<svg xmlns="http://www.w3.org/2000/svg" viewBox="0 0 159.35 62.62"><defs><style>.cls-1{fill:#edf0f8;}</style></defs><title>zzAsset 1</title><g id="Layer_2" data-name="Layer 2"><g id="Layer_1-2" data-name="Layer 1"><path class="cls-1" d="M155.13,39.78a1.34,1.34,0,0,0-.11-.14l0,0c-.09-.13-.19-.25-.29-.37l-.05-.06c-.1-.11-.2-.22-.31-.32l-.07-.07-.21-.18A6.67,6.67,0,0,0,145,35.39a8.35,8.35,0,0,0-1.11-.46,10.44,10.44,0,0,0-8.56-5.47,9.55,9.55,0,0,0-1-.58,8.67,8.67,0,0,0-1.35-.49,8.33,8.33,0,0,0-2.19-.29h0a8.5,8.5,0,0,0-2.58.42,6.26,6.26,0,0,0-1-1.08c0-.22,0-.45.07-.68s0-.52,0-.78a13.41,13.41,0,0,0-13.41-13.41c-.32,0-.65,0-1,0a13.38,13.38,0,0,0-2.78.51A13.41,13.41,0,0,0,96.82,1.33a13.73,13.73,0,0,0-5.3,1.09,13.57,13.57,0,0,0-4.3,3,21,21,0,0,0-2.14-1.73A19.74,19.74,0,0,0,75.54.09l-1-.07-1,0h0A19.7,19.7,0,0,0,67,1.12a19.41,19.41,0,0,0-3,1.32c-.47.26-.93.54-1.38.83a22.22,22.22,0,0,0-2,1.5A20.27,20.27,0,0,0,58.39,7a19.67,19.67,0,0,0-4.11,7.77c-.46,0-.93-.07-1.4-.07h0a13.78,13.78,0,0,0-2.9.31c-.31.07-.61.15-.92.24a13.12,13.12,0,0,0-1.75.66c-.28.13-.56.27-.83.42a13.47,13.47,0,0,0-5.65,5.92,9.78,9.78,0,0,0-1.41-.38,8.29,8.29,0,0,0-1.5-.14h0a8.76,8.76,0,0,0-1.55.14,8.36,8.36,0,0,0-4,1.94,7.79,7.79,0,0,0-.76.76c-.18.21-.35.42-.51.64a9.43,9.43,0,0,0-.74,1.22,10.43,10.43,0,0,0-4.09,1.41c-.31,0-.63-.06-.95-.06a8.41,8.41,0,0,0-7.82,5.3c-.07.17-.13.34-.19.52a8.17,8.17,0,0,0-1.88.57l-.58,0a8.28,8.28,0,0,0-2.5.4,8.15,8.15,0,0,0-4.08-1.08A8.3,8.3,0,0,0,0,41.81c0,.13,0,.26,0,.4s0,.26,0,.4H0A5.51,5.51,0,0,0,1.13,46,8.27,8.27,0,0,0,8.29,50.1H8.4a5.23,5.23,0,0,0,10.27,0l0,0h.07A6.86,6.86,0,0,0,19.9,50a8.41,8.41,0,0,0,7.23,4.12,8.3,8.3,0,0,0,3.56-.8,7.8,7.8,0,0,0,2.36-.72A8.39,8.39,0,0,0,47.14,53a8.36,8.36,0,0,0,10.28-2.32,8.41,8.41,0,0,0,8.29,7,8.25,8.25,0,0,0,3-.58A20,20,0,0,0,98.5,54.66a10.37,10.37,0,0,0,10.59-1.2A8.39,8.39,0,0,0,120,55.85,10.43,10.43,0,0,0,135.72,51c.18-.24.34-.49.5-.75.21,0,.43-.07.64-.12a8.38,8.38,0,0,0,10.91-2h.2l.49,0a5.58,5.58,0,0,0,2,.38,5.68,5.68,0,0,0,1.6-.23,4.65,4.65,0,1,0,3-8.48Z"/></g></g></svg>