<svg xmlns="http://www.w3.org/2000/svg" viewBox="0 0 198.45 70.08"><defs><style>.cls-1{fill:#fff;}.cls-2{fill:#4563cc;}</style></defs><title>BlueSky Digital Labs</title><g id="BlueSkyDigitalLabs_2" data-name="BlueSkyDigitalLabs 2"><g id="BlueSkyDigitalLabs_1" data-name="BlueSkyDigitalLabs 1"><path class="cls-1" d="M53.72,11.89h9c4.91,0,7.2.47,9.32,2.83a6.73,6.73,0,0,1,1.73,4.81,6.57,6.57,0,0,1-3.38,5.86,6.71,6.71,0,0,1,4.8,6.77,8.33,8.33,0,0,1-2.68,6.33C69.82,40.74,67.89,41,63,41H53.72ZM60.85,23h2.63c1,0,3.15,0,3.15-2.32s-2-2.21-3.15-2.21H60.85Zm0,11.53h3.5c.94,0,3.7,0,3.7-2.8,0-2.51-2.52-2.51-3.7-2.51h-3.5Z"/><path class="cls-1" d="M77.33,11.89h6.53V41H77.33Z"/><path class="cls-1" d="M107.24,41h-6.18V38.69H101c-1.34,2.79-4,3-5.67,3-1.33,0-4.48-.32-6.41-2.76-1.73-2.16-2-3.73-2-6.72V19.17h6.54V31.25c0,1.5,0,4.37,3.5,4.37,1.89,0,3.74-1,3.74-4.45v-12h6.53Z"/><path class="cls-1" d="M131.44,34.16A12.88,12.88,0,0,1,127,39.75a10.6,10.6,0,0,1-6.22,2,11.65,11.65,0,0,1-.12-23.3c6.65,0,11.53,5.28,11.53,11.93a9,9,0,0,1-.15,1.73H115.66a4.88,4.88,0,0,0,5.11,4.13,4.64,4.64,0,0,0,4-2.05Zm-5.79-6.49a5.15,5.15,0,0,0-9.91,0Z"/><path class="cls-1" d="M147.49,20.39c-.16-1-.39-2.83-2.68-2.83a2.42,2.42,0,0,0-2.55,2.28c0,1.73.78,2.09,6,4.45,5.43,2.44,6.8,5,6.8,8.34,0,4.25-2.44,8.93-10.15,8.93-8.42,0-10.5-5.51-10.5-9.25v-.94h7.39c0,3.38,2.09,4,3,4a2.81,2.81,0,0,0,2.84-2.79c0-1.93-1.22-2.4-5.71-4.29-2-.82-7.12-2.87-7.12-8.34s5.31-8.58,10.19-8.58a10.36,10.36,0,0,1,7.87,3.31,8.79,8.79,0,0,1,1.93,5.74Z"/><path class="cls-1" d="M157,11.89h6.53V27.08h.08l6.06-7.91h7.75l-8.22,9.6,8,12.24h-7.4L163.62,30.5h-.08V41H157Z"/><path class="cls-1" d="M198.45,19.17,187.51,48.29h-6.93L184,39.91l-8.1-20.74h7l4.37,12.67h.08l4.17-12.67Z"/><path class="cls-2" d="M0,26.39v6.06A8.54,8.54,0,0,1,8.53,41h6.06A14.61,14.61,0,0,0,0,26.39Z"/><path class="cls-2" d="M29.09,12a14.66,14.66,0,0,0-28.88.42,26.19,26.19,0,0,1,6.06.76,8.56,8.56,0,0,1,17,1.52v3.13h3a8.56,8.56,0,1,1,0,17.12H23.61a24.49,24.49,0,0,0-3.24-7.3A24.42,24.42,0,0,0,6.12,17.38,23.92,23.92,0,0,0,0,16.6H0v6.06A18.34,18.34,0,0,1,18.32,41h8a14.65,14.65,0,0,0,2.8-29Z"/><path class="cls-1" d="M53.62,53h3.86a8.26,8.26,0,0,1,4.32,1.1,6.6,6.6,0,0,1,0,11.06,8.26,8.26,0,0,1-4.32,1.09H53.62ZM54.94,65h1.92A7.62,7.62,0,0,0,61.4,64a5.57,5.57,0,0,0,2.08-4.37,5.5,5.5,0,0,0-2.25-4.39,7.39,7.39,0,0,0-4.37-1H54.94Z"/><path class="cls-1" d="M66.41,53h1.25v2.26H66.41Zm0,3.46h1.25v9.79H66.41Z"/><path class="cls-1" d="M79.31,64.69a5.6,5.6,0,0,1-.89,3.58,5.21,5.21,0,0,1-8.9-1.79h1.33A3.79,3.79,0,0,0,74.52,69a3.37,3.37,0,0,0,3.54-3.65v-.86h0a4.19,4.19,0,0,1-3.77,2,5.08,5.08,0,0,1-5.12-5.08,5.15,5.15,0,0,1,5.12-5.19,4.42,4.42,0,0,1,3.77,2h0V56.44h1.25Zm-5.06.65a4,4,0,1,0-3.87-4A3.93,3.93,0,0,0,74.25,65.34Z"/><path class="cls-1" d="M81.31,53h1.26v2.26H81.31Zm0,3.46h1.26v9.79H81.31Z"/><path class="cls-1" d="M85.68,57.57H83.62V56.44h2.06V53h1.25v3.46h2.35v1.13H86.93v8.66H85.68Z"/><path class="cls-1" d="M100.19,66.23H98.94V64.51h0a4.52,4.52,0,0,1-3.81,1.95,5.14,5.14,0,1,1,0-10.27,4.41,4.41,0,0,1,3.81,2h0V56.44h1.25Zm-5.1-.89a4,4,0,1,0-4-4A3.89,3.89,0,0,0,95.09,65.34Z"/><path class="cls-1" d="M102.1,53h1.26V66.23H102.1Z"/><path class="cls-1" d="M110.23,53h1.32V65H117v1.2h-6.8Z"/><path class="cls-1" d="M127.78,66.23h-1.25V64.51h0a4.52,4.52,0,0,1-3.81,1.95,5.14,5.14,0,1,1,0-10.27,4.42,4.42,0,0,1,3.81,2h0V56.44h1.25Zm-5.1-.89a4,4,0,1,0-4-4A3.89,3.89,0,0,0,122.68,65.34Z"/><path class="cls-1" d="M130.1,53h1.25v5.18h0a4.58,4.58,0,0,1,3.81-2,5.14,5.14,0,1,1,0,10.27,4.6,4.6,0,0,1-3.81-1.95h0v1.72H130.1Zm5.1,4.34a4,4,0,0,0,0,8,4,4,0,1,0,0-8Z"/><path class="cls-1" d="M142.41,63.33c0,1.86,1.31,2,1.75,2A1.65,1.65,0,0,0,146,63.58c0-1.34-1.22-1.65-2-1.95-1-.34-2.6-.88-2.6-2.72a2.67,2.67,0,0,1,2.79-2.72,2.62,2.62,0,0,1,2.67,2.67h-1.25a1.48,1.48,0,0,0-1.47-1.54,1.45,1.45,0,0,0-1.49,1.46c0,1,1,1.4,1.76,1.63,1.14.38,2.79,1,2.79,3a2.82,2.82,0,0,1-3.08,3,2.92,2.92,0,0,1-3-3.13Z"/></g></g></svg>
