<svg xmlns="http://www.w3.org/2000/svg" xmlns:xlink="http://www.w3.org/1999/xlink" viewBox="0 0 1920.11 610.11"><defs><style>.cls-1,.cls-57,.cls-61,.cls-66{fill:none;}.cls-2{isolation:isolate;}.cls-3{clip-path:url(#clip-path);}.cls-32,.cls-33,.cls-4,.cls-5{opacity:0.45;}.cls-4{fill:url(#linear-gradient);}.cls-5{fill:url(#linear-gradient-2);}.cls-6{fill:url(#linear-gradient-3);}.cls-7{fill:url(#linear-gradient-4);}.cls-8{fill:#ffd7cf;}.cls-45,.cls-54,.cls-59,.cls-62,.cls-9{mix-blend-mode:multiply;}.cls-9{fill:url(#linear-gradient-5);}.cls-10{fill:#21283a;}.cls-11{fill:url(#linear-gradient-6);}.cls-12{fill:url(#linear-gradient-7);}.cls-13{fill:#6285bc;}.cls-14{fill:#4568af;}.cls-15{fill:url(#linear-gradient-8);}.cls-16{fill:url(#linear-gradient-9);}.cls-17{fill:url(#linear-gradient-10);}.cls-18{fill:#ffd6cf;}.cls-19{fill:url(#linear-gradient-11);}.cls-20{fill:#ea5ca0;}.cls-21{fill:url(#linear-gradient-12);}.cls-22{fill:url(#linear-gradient-13);}.cls-23{fill:url(#linear-gradient-14);}.cls-24{fill:url(#linear-gradient-15);}.cls-25{fill:url(#linear-gradient-16);}.cls-26{fill:#ff65a7;}.cls-27{fill:url(#linear-gradient-17);}.cls-28{fill:#8ec2fe;}.cls-29{fill:url(#linear-gradient-18);}.cls-30{fill:url(#linear-gradient-19);}.cls-31{fill:url(#linear-gradient-20);}.cls-32{fill:url(#linear-gradient-21);}.cls-33{fill:url(#linear-gradient-22);}.cls-34{fill:url(#linear-gradient-23);}.cls-35{fill:#81b7fb;}.cls-36{fill:#4d8bd7;}.cls-37{fill:#f1f2ff;}.cls-38{fill:#d1ddff;}.cls-39{fill:#fff;}.cls-40{fill:#d7ddfb;}.cls-41{fill:#8592c8;}.cls-42{fill:#83b9fd;}.cls-43{fill:#4b8dd9;}.cls-44{fill:#393f5c;}.cls-45,.cls-59{fill:#c8c8c8;}.cls-45,.cls-62{opacity:0.44;}.cls-46{fill:#1f2e3b;}.cls-47{fill:#c6cbe9;}.cls-48{fill:#6e8adb;}.cls-49{fill:#ebb28b;}.cls-50{fill:#f2f7ff;}.cls-51{fill:#f0bc99;}.cls-52{fill:#f0af74;}.cls-53{fill:#4f5977;}.cls-54{fill:#b8b8b8;opacity:0.12;}.cls-55{fill:#edb48d;}.cls-56{fill:#f2be9b;}.cls-57,.cls-61{stroke:#fff;}.cls-57{stroke-miterlimit:10;}.cls-58{fill:#8794ca;}.cls-59{opacity:0.23;}.cls-60{fill:#ebedfd;}.cls-61{stroke-linecap:round;stroke-width:2.21px;}.cls-61,.cls-66{stroke-linejoin:round;}.cls-62{fill:#cacaca;}.cls-63{fill:#c8cdeb;}.cls-64{fill:#f2b173;}.cls-65{fill:#283042;}.cls-66{stroke:#f2be9b;stroke-width:4.02px;}.cls-67{fill:#fed65c;}.cls-68{fill:#feb834;}.cls-69{fill:#264463;}</style><clipPath id="clip-path" transform="translate(0 -243.8)"><rect class="cls-1" width="1055.21" height="821.15"/></clipPath><linearGradient id="linear-gradient" x1="259.54" y1="778.91" x2="259.54" y2="555.92" gradientUnits="userSpaceOnUse"><stop offset="0" stop-color="#fff"/><stop offset="0.15" stop-color="#f1f6fb"/><stop offset="0.42" stop-color="#deeaf7"/><stop offset="0.7" stop-color="#d3e3f4"/><stop offset="1" stop-color="#cfe1f3"/></linearGradient><linearGradient id="linear-gradient-2" x1="792.44" y1="768.56" x2="792.44" y2="514.81" xlink:href="#linear-gradient"/><linearGradient id="linear-gradient-3" x1="413.02" y1="466.27" x2="455.29" y2="480.13" gradientUnits="userSpaceOnUse"><stop offset="0" stop-color="#343a44"/><stop offset="0.3" stop-color="#232d3e"/><stop offset="0.64" stop-color="#182439"/><stop offset="1" stop-color="#142138"/></linearGradient><linearGradient id="linear-gradient-4" x1="438.53" y1="472.03" x2="502.36" y2="472.03" xlink:href="#linear-gradient-3"/><linearGradient id="linear-gradient-5" x1="416.29" y1="343.53" x2="398.68" y2="317.8" gradientUnits="userSpaceOnUse"><stop offset="0" stop-color="#fff" stop-opacity="0"/><stop offset="0.24" stop-color="#f7f3f4" stop-opacity="0.22"/><stop offset="0.77" stop-color="#e1d6da" stop-opacity="0.76"/><stop offset="0.99" stop-color="#d8c9ce"/></linearGradient><linearGradient id="linear-gradient-6" x1="388.73" y1="366.4" x2="453.16" y2="366.4" xlink:href="#linear-gradient"/><linearGradient id="linear-gradient-7" x1="313.29" y1="400.03" x2="313.29" y2="416.97" xlink:href="#linear-gradient"/><linearGradient id="linear-gradient-8" x1="469.01" y1="557.83" x2="503.25" y2="557.83" xlink:href="#linear-gradient-3"/><linearGradient id="linear-gradient-9" x1="460.71" y1="625.62" x2="497.61" y2="625.62" gradientTransform="matrix(0.98, 0.17, -0.17, 0.98, 64.85, -137.13)" xlink:href="#linear-gradient-3"/><linearGradient id="linear-gradient-10" x1="492.74" y1="396.17" x2="508.36" y2="396.17" xlink:href="#linear-gradient"/><linearGradient id="linear-gradient-11" x1="1287.09" y1="-234.7" x2="1302.71" y2="-234.7" gradientTransform="matrix(-0.38, 0.93, 0.93, 0.38, 856.3, -597.52)" xlink:href="#linear-gradient"/><linearGradient id="linear-gradient-12" x1="250.08" y1="594.55" x2="250.08" y2="615.07" xlink:href="#linear-gradient-3"/><linearGradient id="linear-gradient-13" x1="215.76" y1="536.48" x2="161.28" y2="553.56" xlink:href="#linear-gradient-3"/><linearGradient id="linear-gradient-14" x1="113.58" y1="637.57" x2="113.58" y2="667.58" xlink:href="#linear-gradient-3"/><linearGradient id="linear-gradient-15" x1="173.79" y1="497.11" x2="116.88" y2="580.04" xlink:href="#linear-gradient-3"/><linearGradient id="linear-gradient-16" x1="182.18" y1="398.37" x2="177.87" y2="407.29" xlink:href="#linear-gradient"/><linearGradient id="linear-gradient-17" x1="280.18" y1="402.75" x2="273.66" y2="416.25" xlink:href="#linear-gradient"/><linearGradient id="linear-gradient-18" x1="308.57" y1="297.57" x2="308.57" y2="497.07" gradientUnits="userSpaceOnUse"><stop offset="0" stop-color="#eef4fb"/><stop offset="0.31" stop-color="#e3edf8"/><stop offset="1" stop-color="#cfe1f3"/></linearGradient><linearGradient id="linear-gradient-19" x1="470.59" y1="243.04" x2="470.59" y2="517.84" xlink:href="#linear-gradient-18"/><linearGradient id="linear-gradient-20" x1="151.19" y1="376.28" x2="151.19" y2="494.88" xlink:href="#linear-gradient-18"/><linearGradient id="linear-gradient-21" x1="1425.44" y1="744.85" x2="1425.44" y2="518.45" gradientTransform="matrix(-1, 0, 0, 1, 2762.88, 0)" xlink:href="#linear-gradient"/><linearGradient id="linear-gradient-22" x1="730.67" y1="750.32" x2="730.67" y2="540.18" gradientTransform="translate(1040)" xlink:href="#linear-gradient"/><linearGradient id="linear-gradient-23" x1="960.05" y1="466.94" x2="960.05" y2="567.92" xlink:href="#linear-gradient"/></defs><title>BlueSky Home</title><g class="cls-2"><g id="Layer_2" data-name="Layer 2"><g id="Layer_1-2" data-name="Layer 1"><g class="cls-3"><path class="cls-4" d="M.11,576.22v277.7H519V563.16h-1.91V542.27h-4.35V540.7h-1.77v-2.82h-3.25V526.65h-2.08l-1.15-25.09h-.91l-1.15,25.09h-2.08v11.23h-.67v-6.57L476,618.45l-22.63.4v81.63l-9.64-117h-6.48v3.13H434.4v-27.3h-2l-1.13-37.25h-.89l-1.13,37.25h-2v27.3H416.05v6.84l-2.56-4.05V515.11H397.12V494.82h-4.05v20.29h-8.7V645.73L362.29,634.2l-1.63-153.82H342.28v-31.2H333V552.8H328.2V537.42h-8.95V523.84h-4.76v13.58h-3.37V523.58h-2.73v-1.43h-1.12v-2.58h-2v-19.3H300.6v19.3h-2v2.58h-1.12v1.43h-2.73v13.84h-3v25.27h-8.59v43.88H278v11.79H276.6V598h-1.71L274,580.12h-.75L272.25,598h-1.71v20.41h-2.67V674h-7.11V575l-1.25-4.79v-4.91h-1.28l-2.45-52.45-4.47.16V486.45h-6.46v26.76l-6.7.23-3.42,49.45-6.42,54.72H221.6V572.28h-1.31l-.72-16.87H219l-.72,16.87H217V575h-6.17V526.34h-.68V575h-3.58V542.28H187.22V575H184v50.4h-5.36V560.56h-2.07V548l-13.75-4.48V682h-4V555.25h-7.56V543.8h-4v11.45h-10.8V687h-9.25V550.39h-9.5V525.68h-1.15l-.63-20.93h-.5l-.63,20.93h-1.15v24.71H94.45v94.7H80.94V514.54H68.05v-33L31.13,492.4l.15,57H15.55v26.84ZM504.5,528.06h1v9h-1Zm-2,0h1v9h-1Zm-71.26,34.76h1v23.82h-1Zm-1.93,0h1v23.82h-1Zm-34-49.76h.54v2.05h-.54Zm-1.09,0h.54v2.05h-.54Zm-91.06-11.5h.62v17.3h-.62Zm-1.23,0h.62v17.3H302Zm-28,97.76h.81v18.29H274Zm-1.62,0h.81v18.29h-.81Zm-23.85-92.84h.86V513l-.86,0Zm-1.72,0h.86v6.63l-.86,0Zm-27.2,67.09h.62V575h-.62Zm-1.24,0H219V575h-.62ZM115.92,543.92h.54v6.47h-.54Zm-1.08,0h.54v6.47h-.54Z" transform="translate(0 -243.8)"/><path class="cls-5" d="M1060.14,631.3v10.76h-12.3V446.52L1021.93,453V561.77h-5.34v10.79h-10V691.93h-5.34V561.55l-78.16,4.22v11.79H920.3v61.05h-7.12V591.14h-4.3v-30.8H883.21v30.8h-4.77V545.32h-.9v45.82h-8.2V588.6H867.6l-1-15.89h-.76l-1,15.89h-1.74v42.7h-8.93l-7.1-51.54-4.55-46.59L819,533v-25.2h-8.58v25l-5.94-.15L801.23,582h-1.69v4.62l-1.66,4.52v93.29h-9.46V632h-3.55V612.79h-2.28L781.34,596h-1l-1.25,16.81h-2.28V632H775V620.9h-6.85V579.56H756.69v-23.8h-4v-13h-3.63v-1.35h-1.48V539h-2.71V520.77h-6.17V539H736v2.42h-1.48v1.35h-3.63v13h-4.48V543h-6.33v12.79h-11.9v14.49h-6.33V472.63H689.5V502H665.07l-2.16,144.91-29.36,10.86v-123H622V515.63h-5.4v19.12H594.83v70l-3.4,3.82v-6.45H576.65V576.41h-2.72l-1.49-35.09h-1.19l-1.49,35.09H567v25.72h-3.73v-3h-8.62L541.87,709.37v-76.9l-29.64-.37V853.92h560.43V631.3ZM571.2,602.13h-1.28V579.69h1.28Zm2.57,0h-1.28V579.69h1.28Zm45.16-67.38h-.72v-1.94h.72Zm1.44,0h-.72v-1.94h.72Zm121,3.53h-.82V522h.82Zm1.65,0h-.82V522h.82Zm37.23,93h-1.07V614.07h1.07Zm2.15,0h-1.07V614.07h1.07Zm31.71-98.47-1.15,0v-6.18h1.15Zm2.28.06-1.14,0v-6.24h1.14Zm49.41,58.25H865v-1.33h.82Zm1.64,0h-.82v-1.33h.82Z" transform="translate(0 -243.8)"/><path class="cls-6" d="M418.87,420.7c-1.73,7.59-8.25,53.18-10.19,59.41s1.21,19.23,5.09,31.7,11.16,41.34,11.16,41.34,15.07,3.41,20.78,0c0,0-2.63-20-6-41.34s-6.48-21.82-2.32-35.34,12-35.82,16.12-45.19-.36-34.83-.36-34.83-29.3,12.36-32.22,15.24S419.84,416.42,418.87,420.7Z" transform="translate(0 -243.8)"/><path class="cls-7" d="M438.54,400.62c-.27,4.49,6.31,25.76,9.08,29.68s13.51,37.86,17,52.76,8.67,26.33,11.09,36,8.32,33.6,8.32,33.6,18.36,1,18.36,0-2.08-12.82-4.16-30.83-10.05-34.3-11.09-49.54,0-52.66-8.66-72.75S438.54,400.62,438.54,400.62Z" transform="translate(0 -243.8)"/><path class="cls-8" d="M396.4,311.92s7.11,8.42,11.17,10.79,21,0,21,0-5.76,16.93-13.55,21.67-22.35,3.39-22.35,3.39,2.37-6.39,2-11.85-9.45-9.48-9.45-9.48Z" transform="translate(0 -243.8)"/><path class="cls-9" d="M396.4,311.92s7.11,8.42,11.17,10.79,21,0,21,0-5.76,16.93-13.55,21.67-22.35,3.39-22.35,3.39,2.37-6.39,2-11.85-9.45-9.48-9.45-9.48Z" transform="translate(0 -243.8)"/><path class="cls-8" d="M368.63,311.92s3.72,7.19,4.57,8.37,2.2,3.9,3.39,5.59,7.62,6.77,10,7.62,5.92-.51,7.78-3.05,4.07-7.79,5.42-10.83,0-11.18,0-11.18-.17-6.26-10-6.77a113.14,113.14,0,0,0-15.07,0Z" transform="translate(0 -243.8)"/><path class="cls-10" d="M368.63,311.92c1.09,1.07,2.37,1.6,6.09-.09s3.39-7.74,10.5-9.48c2.57-.63,3.73.77,4.4,4.78l.68,4,2,2.37s-.67-5.42,1.7-8.13,6.43,4.93,2.37,6.53,4.74,4.65,4.74,4.65,0-2,2.37-8.47-2.2-15.56-7.11-17.6c-6.89-2.86-7.45-1.7-7.45-1.7s-8.24-4.22-16.71,4C364.79,300,365.4,308.75,368.63,311.92Z" transform="translate(0 -243.8)"/><path class="cls-11" d="M392.54,337l.69-2.2s8,5.89,9.7,5.89c0,0,7.79-15.64,6.06-18.76a31.07,31.07,0,0,0,8-.39c5.75-.94,8.31,0,8.31,0s8.15,34.05,14,44.79,12.48,20.09,12.48,20.09l1.38,10.05S449,404.24,437.23,408l-11.78,3.72s3.12-16.63-7.62-30.48-29.1-35.34-29.1-35.34Z" transform="translate(0 -243.8)"/><path class="cls-8" d="M276.09,405.11c1.83-.51,3.86-.92,5.39-2.24s3.38-2.74,5.3-2.44,4.05,1.38,3.64,2.32-4.88,2.05-5.69,3.37-2.54,3.36-2.54,5.39a28.57,28.57,0,0,1-1.4,6.2,10.54,10.54,0,0,0-5.72-.74C272,417.51,276.09,405.11,276.09,405.11Z" transform="translate(0 -243.8)"/><path class="cls-8" d="M279.83,406.23c3.17-.82,10-1.22,11.71,0s6,6,6.6,7.41,2.44,1.05,1.53,2.35-1.83,4.57-3.15,6a4,4,0,0,1-4.92,1c-1.89-.89-5.45-1.5-7.48-2.92s-4.37-2.65-6.4-2.34a13.35,13.35,0,0,1-3.78,0s1.95-8.84,1.44-9.86S279.83,406.23,279.83,406.23Z" transform="translate(0 -243.8)"/><path class="cls-8" d="M301.09,401.64c-2.67.18-11,.4-13.41,0s-4.48,2.65-6.31,4.28,1,2.72,2.85,2.58,4.27-2.91,5.9-2.44,3.65,3.89,5.48,6.15,2,3.9,4.07,3.78,3.05-2.39,7.11-4.3a93,93,0,0,0,9.56-5.57l-5.07-8.07S305.17,401.38,301.09,401.64Z" transform="translate(0 -243.8)"/><path class="cls-12" d="M310.24,400c-3.25.61-9.15,1.61-9.15,1.61s1.63,6.68,2,10.05a31.41,31.41,0,0,0,1,5.28s7.52-1.7,11.38-3.94,10-9.3,10-9.3Z" transform="translate(0 -243.8)"/><path class="cls-13" d="M383.88,348c-3.13,3.38-15.09,16.93-24.54,25.91s-16.57,11.47-29.79,17c-16.36,6.89-24.27,9.13-24.27,9.13s3.84,10.72,5.57,16c0,0,28.23-6.32,41.93-12s46.79-34.31,46.79-34.31Z" transform="translate(0 -243.8)"/><path class="cls-14" d="M413,321.23s2.07,31,1.55,37.8,8.32,17.15,12.48,26.51,15.59,26.12,20.26,26.57,26.51-.42,35.34-8.39c0,0-7.8-12.82-16.63-29.1-8.94-16.47-14.55-27-18.71-37.64s-16.63-18.43-16.63-18.43S420.93,318.55,413,321.23Z" transform="translate(0 -243.8)"/><path class="cls-14" d="M392.54,337a108.56,108.56,0,0,0,11.78,15.47c7.27,8,10.84,10.81,10.84,10.81s10.63,13.44,14.1,18.64,6.37,9,6.3,13.35,1.67,12.72-4.22,21.29c0,0-.35,3.81-12.47,4.16A180.45,180.45,0,0,0,420.6,402c.33-11.09-4.78-10.74-11.75-17.67s-14.58-13.85-19.09-19.74S383.88,348,383.88,348,386,340.21,392.54,337Z" transform="translate(0 -243.8)"/><path class="cls-15" d="M486.22,545.42A22,22,0,0,1,477,558.75c-6.52,4.35-9.72,8.77-6.95,11.49,0,0,32.58.3,33.12-3.77.88-6.58-3.47-21.05-3.47-21.05Z" transform="translate(0 -243.8)"/><path class="cls-16" d="M430.44,549.1c-4,1.59-5,4.84-11.78,11.47s-11.46,6.93-9.19,10.09,27.14.37,27.14.37,11-1.61,10.71-8.24a22.71,22.71,0,0,0-3.65-11.37Z" transform="translate(0 -243.8)"/><path class="cls-8" d="M495,399.74a24.86,24.86,0,0,1,4.13,8.71,15,15,0,0,0,2.29,5.89c.69.77,3.9,1.23,3.9,1.23s.69,2.52,2.29,2.75,1.38-.23,3.22,0,2.06-.92,3.9-1.61,1.6-.61,2.75-2.37.46-2.61-1.61-5.28a67.38,67.38,0,0,0-7.34-8.18c-3.21-3.06-6.47-9.61-6.47-9.61Z" transform="translate(0 -243.8)"/><path class="cls-17" d="M492.74,396l4.13,8.72a11.36,11.36,0,0,0,11.49-5.5l-8.55-11.69Z" transform="translate(0 -243.8)"/><path class="cls-13" d="M430.64,318.55s15.59,3.59,28.07,14,23.38,22.35,27,26,20.78,36.55,20.78,36.55-5.19,2.43-13,6.58c0,0-9.35-10.74-20.78-29.55-5.19-8.52-27.06-18.6-39.25-24.14S414,322.75,430.64,318.55Z" transform="translate(0 -243.8)"/><path class="cls-18" d="M188.28,371.76c2.54-1.27,15.39-2.79,16.07-.76a27.77,27.77,0,0,1,1.06,6.6,9.58,9.58,0,0,0,.88,4.18c.64,1,2.41,2,2,2.92s-1.77,1.4-1.77,2.41,0,1.4-.38,1.9.38,1,.12,1.78.77,3.3.51,4.69-2.41,2.79-6.85,3.43-6.34,3.93-8.75,7.48-5.64,14.47-5.64,14.47L166.77,410.2s5.52-8,6.16-11.93,2.15-11.16,2.15-11.16Z" transform="translate(0 -243.8)"/><path class="cls-8" d="M153.74,508a24.8,24.8,0,0,0,6.5,7.12,15.14,15.14,0,0,1,4.58,4.36c.45.93-.34,4.07-.34,4.07s2.07,1.6,1.68,3.17-.74,1.19-1.22,3-1.63,1.56-3,3-1.17,1.26-3.23,1.65-2.59-.56-4.28-3.49a67.93,67.93,0,0,1-4.79-9.89c-1.61-4.13-6.44-9.63-6.44-9.63Z" transform="translate(0 -243.8)"/><path class="cls-19" d="M151.13,504.53l6.5,7.13a11.34,11.34,0,0,1-9.44,8.54l-7.58-12.34Z" transform="translate(0 -243.8)"/><path class="cls-20" d="M163.48,406.46s-9.52,5.1-20.42,17.13-20,26.86-20.9,31.93c-3.6,20.75,21.51,61.67,21.51,61.67s4.34-3.74,11.34-9.14c0,0-6.86-26.69-5.89-40.9.68-10,13.84-27.3,25.15-34.49S180.53,408.3,163.48,406.46Z" transform="translate(0 -243.8)"/><path class="cls-10" d="M179,364.57c-8.8-.34-11.85,2.71-12.18,11.84s2,9.6,3.34,12.35c3.29,6.67,2.37,11.07,2.37,11.07s2.74,1.62,8.5.94,6.76-4.4,8.79-6.09a26.35,26.35,0,0,0,3.38-3.38s-3.38-2-4.06-5.42,2-4.93,4.06-2.63l2,2.3s2,.07,1.36-3.86,0-4.94,1.69-7,6.09-3.72,6.09-3.72-3.72-8.46-11.17-9.81S179,364.57,179,364.57Z" transform="translate(0 -243.8)"/><path class="cls-21" d="M231.07,597.9c-1.26,4.08,1.52,11.8,2.44,14.94s4.26,2.14,12.5,1.83,19.82-.61,22.56-1.22-1.77-7.83-5.18-8.84c-5.59-1.65-12-4.37-13.42-7.32s-6.4-2.74-6.4-2.74Z" transform="translate(0 -243.8)"/><path class="cls-22" d="M142.35,485.12c-6.95,6.21-7.28,18.71-3.12,30.14s8.74,13.51,21.42,14,42.75,17,44.69,21c9.13,18.78,26.91,53.85,26.91,53.85s8.31,3.64,18.71-5.2c0,0-6.48-22.43-12.88-41.78-7.94-24-11.71-28.1-19.63-35.86-4.82-4.73-32.47-25.25-43.73-32.52S150.49,477.84,142.35,485.12Z" transform="translate(0 -243.8)"/><path class="cls-23" d="M105.51,637.57s-2.6,1-5.46,6-7.53,6.24-2.34,10.91,12.48,12.22,14.82,12.48,15.69,1.3,18.29,0-.52-4.45-4.06-8.06c-2.88-2.93-7.38-8.31-7.64-9.87s.42-8.06.42-8.06Z" transform="translate(0 -243.8)"/><path class="cls-24" d="M125.55,493.43c-4.34,8.14-.87,18.71,2.25,36.38s3.59,33.54,4.63,41.86-3.22,9.51-13.64,29.78a284.53,284.53,0,0,0-16.14,37.94S109,649,118.81,651.55c0,0,19.7-29.83,28-42.82a87.45,87.45,0,0,0,13-34.42c2.15-13.68,7.33-48,7-72.41s-17.66-17.3-24.42-16.78S131.09,483,125.55,493.43Z" transform="translate(0 -243.8)"/><path class="cls-25" d="M166.77,403.73s2-4.11,2.2-4.72,3.51-.51,9.76,0,12.47,7.38,12.47,7.38l-8.82,5.43Z" transform="translate(0 -243.8)"/><path class="cls-26" d="M176.1,401.53c5,.27,13.17,4.85,14.9,6.59s8.87,8.15,7.12,23.91c-1.33,12-8.31,32.46-9.64,40-1.48,8.43-4.75,21.75-9.26,24.52s-5.4,6-20.44,5.54c-11.3-.33-33.23-8.66-33.23-8.66s2.92-8.6,6.19-19.05c8.77-28,26.83-63.74,32.15-71.91C165,400.73,171.91,401.31,176.1,401.53Z" transform="translate(0 -243.8)"/><path class="cls-27" d="M272.22,405.45l5.89-1.48a11.77,11.77,0,0,1,2.36,10.23c-1.4,6.19-1.4,3.76-1.4,3.76l-5.71,1.7Z" transform="translate(0 -243.8)"/><path class="cls-20" d="M182.44,427.59c4.07,1.62,5.62,1.85,21.91,2.19s18.77,3.36,29.66,2.16c13.56-1.5,41.29-9.53,41.29-9.53s2.5-11.9-1.36-18.37c0,0-37.05,8.56-47.64,6.67s-29.75-5.08-37.22-6.27-15.79.39-15.24,9.71C174.17,419.69,177,425.42,182.44,427.59Z" transform="translate(0 -243.8)"/><path class="cls-8" d="M280.79,420.86c2.73,1.78,6.68,3.35,8.31,3.35s3.86-2.44,4.47-3.35-.71-1.52-1.52-1.63-.72-2.38-2.14-2.26-.94-1.06-2.65-1-1-.82-2.63-.92-2.6,1.52-3.84,2.64S279.47,420,280.79,420.86Z" transform="translate(0 -243.8)"/><rect class="cls-28" x="226.5" y="369.44" width="98.18" height="125.06"/><rect class="cls-29" x="259.48" y="369.44" width="98.18" height="125.06"/><rect class="cls-28" x="388.52" y="322.24" width="98.18" height="172.26"/><rect class="cls-30" x="421.5" y="322.24" width="98.18" height="172.26"/><rect class="cls-28" x="69.12" y="420.15" width="98.18" height="74.35"/><rect class="cls-31" x="102.1" y="420.15" width="98.18" height="74.35"/></g><path class="cls-32" d="M1057.23,642.3V821h560.43V643.1l-29.65.37v76.9L1575.2,610.18h-8.63v3h-3.73V587.41h-2.71l-1.5-35.09h-1.19L1556,587.41h-2.71v25.72h-14.78v6.45l-3.41-3.82v-70h-21.76V526.63h-5.4v19.12h-11.55v123L1467,657.93,1464.81,513h-24.43V483.63H1428v97.62h-6.33V566.76h-11.91V554h-6.33v12.79H1399v-13h-3.64v-1.35h-1.48V550h-2.71V531.77H1385V550h-2.71v2.42h-1.48v1.35h-3.64v13h-4v23.8h-11.41V631.9h-6.86V643h-1.85V623.79h-2.28L1349.54,607h-1l-1.25,16.81H1345V643h-3.54v52.42H1332V602.14l-1.65-4.52V593h-1.7l-3.26-49.42-5.94.15v-25h-8.59V544l-23.58.22-4.55,46.59-7.1,51.54h-8.92V599.6H1265l-1-15.89h-.77l-1,15.89h-1.75v2.54h-8.2V556.32h-.9v45.82h-4.77v-30.8H1221v30.8h-4.29v47.47h-7.13V588.56h-2.75V576.77l-78.16-4.22V702.93h-5.33V583.56h-10V572.77H1108V464L1082,457.52V653.06h-12.3V642.3Zm501.45-51.61H1560v22.44h-1.28Zm-2.56,0h1.28v22.44h-1.28ZM1511,543.81h.72v1.94H1511Zm-1.44,0h.72v1.94h-.72Zm-121-10.83h.82v16.3h-.82Zm-1.64,0h.82v16.3h-.82Zm-37.24,92.09h1.07V642.3h-1.07Zm-2.15,0h1.07V642.3h-1.07Zm-31.7-87.45h1.14v6.18l-1.14,0Zm-2.29,0h1.14v6.24l-1.14,0ZM1264,600.81h.82v1.33H1264Zm-1.65,0h.82v1.33h-.82Z" transform="translate(0 -243.8)"/><path class="cls-33" d="M1919.44,518.75v25l-5.94-.15L1910.23,593h-1.69v4.62l-1.66,4.52v93.29h-9.46V643h-3.55V623.79h-2.28L1890.34,607h-1l-1.25,16.81h-2.28V643H1884V631.9h-6.85V590.56h-11.42v-23.8h-4v-13h-3.63v-1.35h-1.48V550h-2.71V531.77h-6.17V550H1845v2.42h-1.48v1.35h-3.63v13h-4.48V554h-6.33v12.79h-11.9v14.49h-6.33V483.63H1798.5V513h-24.43l-2.16,144.91-29.36,10.86v-123H1731V526.63h-5.4v19.12h-21.76v70l-3.4,3.82v-6.45h-14.78V587.41h-2.72l-1.49-35.09h-1.19l-1.49,35.09H1676v25.72h-3.73v-3h-8.62l-12.82,110.19v-76.9l-29.64-.37V821h298.88M1680.2,613.13h-1.28V590.69h1.28Zm2.57,0h-1.28V590.69h1.28Zm45.16-67.38h-.72v-1.94h.72Zm1.44,0h-.72v-1.94h.72Zm121.05,3.53h-.82V533h.82Zm1.65,0h-.82V533h.82Zm37.23,93h-1.07V625.07h1.07Zm2.15,0h-1.07V625.07h1.07Z" transform="translate(0 -243.8)"/><rect class="cls-34" y="494.5" width="1920.11" height="82.84"/><path class="cls-35" d="M565,720.11c-.51,0-13.39-1.51-14-13.49s7.63-14.94,5.47-28.28-7.83-17.17,4.87-26.9c0,0,5.66-3.92,5.93-9.41.31-6.58,11.67-14.22,19.29-9.83s5.83,11.17-.69,22.14-.24,12.89,1,16.44,4.16,7.27-2.49,15.75,1.27,18.83-4.4,27C580,713.48,575.05,719.5,565,720.11Z" transform="translate(0 -243.8)"/><path class="cls-36" d="M567,738.47a.53.53,0,0,0,.4-.62c-6.92-36.57,7.19-86.43,7.33-86.93a.54.54,0,1,0-1-.29c-.15.5-14.32,50.61-7.36,87.42a.55.55,0,0,0,.64.43Z" transform="translate(0 -243.8)"/><path class="cls-36" d="M569.91,670.5l.09,0a.53.53,0,0,0,.27-.71,74.42,74.42,0,0,1-4.08-12,.54.54,0,0,0-.65-.41.53.53,0,0,0-.41.64,74.11,74.11,0,0,0,4.15,12.26A.55.55,0,0,0,569.91,670.5Z" transform="translate(0 -243.8)"/><path class="cls-36" d="M568.05,681.56a.53.53,0,0,0,.21-.11c2.74-2.26,9.62-6.52,9.68-6.56a.55.55,0,1,0-.57-.93c-.28.18-7,4.34-9.8,6.65a.55.55,0,0,0,.48.95Z" transform="translate(0 -243.8)"/><path class="cls-36" d="M566.51,692.33l.11-.05a.54.54,0,0,0,.24-.73L563,684a.54.54,0,0,0-.73-.24.56.56,0,0,0-.24.73l3.84,7.58A.55.55,0,0,0,566.51,692.33Z" transform="translate(0 -243.8)"/><path class="cls-35" d="M597.15,728.33c-.26,0-6.66-.76-7-6.72s3.8-7.43,2.72-14.06S589,699,595.34,694.16c0,0,2.81-1.95,2.94-4.68.16-3.27,5.81-7.07,9.6-4.89s2.9,5.56-.34,11-.12,6.41.5,8.18,2.07,3.61-1.24,7.83.63,9.37-2.19,13.41A10.88,10.88,0,0,1,597.15,728.33Z" transform="translate(0 -243.8)"/><path class="cls-36" d="M598.15,737.46a.28.28,0,0,0,.2-.31c-3.45-18.19,3.57-43,3.64-43.24a.27.27,0,1,0-.52-.15c-.07.25-7.12,25.17-3.65,43.49a.26.26,0,0,0,.31.21Z" transform="translate(0 -243.8)"/><path class="cls-36" d="M599.58,703.64h0a.27.27,0,0,0,.14-.36,35.79,35.79,0,0,1-2-6,.27.27,0,0,0-.32-.21.28.28,0,0,0-.21.32,37.34,37.34,0,0,0,2.07,6.1A.28.28,0,0,0,599.58,703.64Z" transform="translate(0 -243.8)"/><path class="cls-36" d="M598.66,709.15a.21.21,0,0,0,.1-.06c1.37-1.12,4.79-3.24,4.82-3.26a.27.27,0,1,0-.28-.46c-.15.09-3.49,2.16-4.88,3.3a.28.28,0,0,0,0,.39A.3.3,0,0,0,598.66,709.15Z" transform="translate(0 -243.8)"/><path class="cls-36" d="M597.89,714.5l.06,0a.28.28,0,0,0,.12-.36l-1.91-3.77a.27.27,0,1,0-.48.25l1.9,3.76A.27.27,0,0,0,597.89,714.5Z" transform="translate(0 -243.8)"/><path class="cls-35" d="M1495,720.11c-.51,0-13.39-1.51-14-13.49s7.63-14.94,5.47-28.28-7.83-17.17,4.87-26.9c0,0,5.66-3.92,5.93-9.41.31-6.58,11.67-14.22,19.29-9.83s5.83,11.17-.69,22.14-.24,12.89,1,16.44,4.16,7.27-2.49,15.75,1.27,18.83-4.4,27C1510,713.48,1505.05,719.5,1495,720.11Z" transform="translate(0 -243.8)"/><path class="cls-36" d="M1497,738.47a.53.53,0,0,0,.4-.62c-6.92-36.57,7.19-86.43,7.33-86.93a.54.54,0,1,0-1-.29c-.15.5-14.32,50.61-7.36,87.42a.55.55,0,0,0,.64.43Z" transform="translate(0 -243.8)"/><path class="cls-36" d="M1499.91,670.5l.09,0a.53.53,0,0,0,.27-.71,74.42,74.42,0,0,1-4.08-12,.54.54,0,0,0-.65-.41.53.53,0,0,0-.41.64,74.11,74.11,0,0,0,4.15,12.26A.55.55,0,0,0,1499.91,670.5Z" transform="translate(0 -243.8)"/><path class="cls-36" d="M1498.05,681.56a.53.53,0,0,0,.21-.11c2.74-2.26,9.62-6.52,9.68-6.56a.55.55,0,0,0-.57-.93c-.28.18-7,4.34-9.8,6.65a.55.55,0,0,0,.48.95Z" transform="translate(0 -243.8)"/><path class="cls-36" d="M1496.51,692.33l.11-.05a.54.54,0,0,0,.24-.73L1493,684a.54.54,0,0,0-.73-.24.56.56,0,0,0-.24.73l3.84,7.58A.55.55,0,0,0,1496.51,692.33Z" transform="translate(0 -243.8)"/><path class="cls-35" d="M1527.15,728.33c-.26,0-6.66-.76-7-6.72s3.8-7.43,2.72-14.06-3.89-8.54,2.43-13.39c0,0,2.81-1.95,2.94-4.68.16-3.27,5.81-7.07,9.6-4.89s2.9,5.56-.34,11-.12,6.41.5,8.18,2.07,3.61-1.24,7.83.63,9.37-2.19,13.41A10.88,10.88,0,0,1,1527.15,728.33Z" transform="translate(0 -243.8)"/><path class="cls-36" d="M1528.15,737.46a.28.28,0,0,0,.2-.31c-3.45-18.19,3.57-43,3.64-43.24a.27.27,0,1,0-.52-.15c-.07.25-7.12,25.17-3.65,43.49a.26.26,0,0,0,.31.21Z" transform="translate(0 -243.8)"/><path class="cls-36" d="M1529.58,703.64h.05a.27.27,0,0,0,.14-.36,35.79,35.79,0,0,1-2-6,.27.27,0,0,0-.32-.21.28.28,0,0,0-.21.32,37.34,37.34,0,0,0,2.07,6.1A.28.28,0,0,0,1529.58,703.64Z" transform="translate(0 -243.8)"/><path class="cls-36" d="M1528.66,709.15a.21.21,0,0,0,.1-.06c1.37-1.12,4.79-3.24,4.82-3.26a.27.27,0,0,0-.28-.46c-.15.09-3.49,2.16-4.88,3.3a.28.28,0,0,0,0,.39A.3.3,0,0,0,1528.66,709.15Z" transform="translate(0 -243.8)"/><path class="cls-36" d="M1527.89,714.5l.06,0a.28.28,0,0,0,.12-.36l-1.91-3.77a.27.27,0,1,0-.48.25l1.9,3.76A.27.27,0,0,0,1527.89,714.5Z" transform="translate(0 -243.8)"/><path class="cls-37" d="M1519,372.05l134.6.56a31,31,0,0,1,30.83,33.22l-21.85,310a30.56,30.56,0,0,1-30.48,28.41H1495.23a30.56,30.56,0,0,1-30.47-32.83l23.12-310.64A31,31,0,0,1,1519,372.05Z" transform="translate(0 -243.8)"/><path class="cls-28" d="M1519,372.05l134.6.56a31,31,0,0,1,30.83,33.22l-21.85,310a30.56,30.56,0,0,1-30.48,28.41H1495.23a30.56,30.56,0,0,1-30.47-32.83l23.12-310.64A31,31,0,0,1,1519,372.05Z" transform="translate(0 -243.8)"/><path class="cls-38" d="M1503.84,372.05l134.6.56a31,31,0,0,1,30.83,33.22l-21.85,310a30.56,30.56,0,0,1-30.48,28.41H1480.11a30.57,30.57,0,0,1-30.48-32.83l23.13-310.64A31,31,0,0,1,1503.84,372.05Z" transform="translate(0 -243.8)"/><polygon class="cls-39" points="1493.66 156.64 1647.59 156.64 1629.07 452.35 1474.57 453.5 1493.66 156.64"/><path class="cls-28" d="M1545,734.42a15.29,15.29,0,1,1,15.28-15.29A15.31,15.31,0,0,1,1545,734.42Zm0-28.42a13.14,13.14,0,1,0,13.13,13.13A13.14,13.14,0,0,0,1545,706Z" transform="translate(0 -243.8)"/><path class="cls-28" d="M1584.74,389.5h-25.81a2.62,2.62,0,0,1-2.62-2.62h0a2.62,2.62,0,0,1,2.62-2.62h25.81a2.62,2.62,0,0,1,2.62,2.62h0A2.62,2.62,0,0,1,1584.74,389.5Z" transform="translate(0 -243.8)"/><path class="cls-40" d="M1628.72,476.67h-125a5.69,5.69,0,0,1-5.68-6l1.68-33.89a5.68,5.68,0,0,1,5.68-5.4h124.94a5.69,5.69,0,0,1,5.68,6l-1.67,33.88A5.69,5.69,0,0,1,1628.72,476.67Z" transform="translate(0 -243.8)"/><path class="cls-28" d="M1594.24,476.78h34.48a5.66,5.66,0,0,0,5.65-5.38l1.7-34a5.65,5.65,0,0,0-5.65-5.94h-34.48a5.66,5.66,0,0,0-5.65,5.37l-1.7,34.06A5.66,5.66,0,0,0,1594.24,476.78Z" transform="translate(0 -243.8)"/><path class="cls-41" d="M1582.61,442.92h-71.08a.85.85,0,0,1,0-1.7h71.08a.85.85,0,0,1,0,1.7Z" transform="translate(0 -243.8)"/><path class="cls-41" d="M1582,454.26H1511a.85.85,0,1,1,0-1.7H1582a.85.85,0,0,1,0,1.7Z" transform="translate(0 -243.8)"/><path class="cls-41" d="M1545.52,465.6h-35.11a.85.85,0,1,1,0-1.7h35.11a.85.85,0,1,1,0,1.7Z" transform="translate(0 -243.8)"/><path class="cls-40" d="M1624.29,540.73H1499.35a5.69,5.69,0,0,1-5.68-6l1.67-33.89a5.69,5.69,0,0,1,5.69-5.41H1626a5.69,5.69,0,0,1,5.68,6L1630,535.33A5.68,5.68,0,0,1,1624.29,540.73Z" transform="translate(0 -243.8)"/><path class="cls-28" d="M1589.82,540.84h34.48a5.66,5.66,0,0,0,5.65-5.37l1.7-34.06a5.66,5.66,0,0,0-5.65-5.94h-34.48a5.66,5.66,0,0,0-5.65,5.38l-1.7,34A5.65,5.65,0,0,0,1589.82,540.84Z" transform="translate(0 -243.8)"/><path class="cls-41" d="M1578.18,507h-71.07a.85.85,0,1,1,0-1.69h71.07a.85.85,0,1,1,0,1.69Z" transform="translate(0 -243.8)"/><path class="cls-41" d="M1577.62,518.32h-71.07a.85.85,0,0,1,0-1.7h71.07a.85.85,0,1,1,0,1.7Z" transform="translate(0 -243.8)"/><path class="cls-41" d="M1541.1,529.66H1506a.85.85,0,0,1,0-1.7h35.11a.85.85,0,0,1,0,1.7Z" transform="translate(0 -243.8)"/><polygon class="cls-28" points="1493.66 156.64 1474.57 453.5 1471.45 453.5 1490.59 156.64 1493.66 156.64"/><path class="cls-39" d="M1624.57,455.23a14.15,14.15,0,1,1-13.14-15.09A14.15,14.15,0,0,1,1624.57,455.23Z" transform="translate(0 -243.8)"/><path class="cls-28" d="M1607.92,459.7a1.25,1.25,0,0,1-.8-.36l-4.76-4.67a1.27,1.27,0,0,1,1.78-1.81l3.95,3.88,9.06-7.3a1.27,1.27,0,1,1,1.59,2l-9.94,8A1.26,1.26,0,0,1,1607.92,459.7Z" transform="translate(0 -243.8)"/><path class="cls-39" d="M1621.24,519.3a14.15,14.15,0,1,1-13.14-15.09A14.15,14.15,0,0,1,1621.24,519.3Z" transform="translate(0 -243.8)"/><path class="cls-28" d="M1604.59,523.77a1.25,1.25,0,0,1-.8-.36l-4.75-4.67a1.27,1.27,0,0,1,1.78-1.82l3.94,3.88,9.07-7.29a1.27,1.27,0,1,1,1.59,2l-9.94,8A1.28,1.28,0,0,1,1604.59,523.77Z" transform="translate(0 -243.8)"/><path class="cls-42" d="M1329.67,634s-1.81-2.82-6.49-21.69-16.93-36.88-36-30.19-13.6,28.94-4.2,64.86c6.71,25.65-20.7,45.55,15.43,65.48,21.89,12.07,59.91-4.17,52.45-40.67a49.41,49.41,0,0,0-9.27-20.4A136.68,136.68,0,0,1,1329.67,634Z" transform="translate(0 -243.8)"/><path class="cls-43" d="M1314.56,746.56a.82.82,0,0,1-.63-.93c8.68-55.56-15-130.19-15.27-130.94a.82.82,0,1,1,1.56-.5c.24.75,24.08,75.75,15.33,131.7a.82.82,0,0,1-.94.68Z" transform="translate(0 -243.8)"/><path class="cls-43" d="M1306.91,644l-.13,0a.82.82,0,0,1-.45-1.07,110.2,110.2,0,0,0,5.58-18.39.83.83,0,0,1,1-.67.82.82,0,0,1,.66,1,111.82,111.82,0,0,1-5.68,18.72A.83.83,0,0,1,1306.91,644Z" transform="translate(0 -243.8)"/><path class="cls-43" d="M1310.26,660.64a1,1,0,0,1-.33-.15c-4.24-3.29-14.83-9.39-14.94-9.45a.82.82,0,1,1,.82-1.42c.44.25,10.8,6.21,15.13,9.57a.82.82,0,0,1-.68,1.45Z" transform="translate(0 -243.8)"/><path class="cls-43" d="M1313.11,676.83a.58.58,0,0,1-.17-.06.82.82,0,0,1-.4-1.09l5.43-11.62a.82.82,0,1,1,1.49.69L1314,676.38A.82.82,0,0,1,1313.11,676.83Z" transform="translate(0 -243.8)"/><polygon class="cls-44" points="1699.76 372.55 1695.02 391.45 1752.1 394.52 1750.17 370.83 1699.76 372.55"/><polygon class="cls-44" points="1723.22 384.86 1706.61 440.95 1706.94 525.7 1686.68 526.12 1682.75 439.67 1696.32 386.36 1723.22 384.86"/><polygon class="cls-45" points="1720.86 392.84 1707.69 391.59 1717.36 404.65 1720.86 392.84"/><polygon class="cls-44" points="1751.97 390.66 1755.81 443.29 1771.84 530.16 1751.8 534.28 1732.42 445.67 1725.73 384.96 1751.97 390.66"/><path class="cls-46" d="M1692.46,769.67l11-.07.29,15.81-31.38.21h0a5.59,5.59,0,0,1,4.32-5l15.54-3.8Z" transform="translate(0 -243.8)"/><rect class="cls-47" x="1672.41" y="785.51" width="31.38" height="2.44" transform="translate(-5.14 -232.68) rotate(-0.38)"/><path class="cls-39" d="M1700.16,776.21a2.41,2.41,0,1,1-2.42-2.39A2.4,2.4,0,0,1,1700.16,776.21Z" transform="translate(0 -243.8)"/><path class="cls-46" d="M1757.6,775.9l10.94-1.45,2.26,15.65-31.11,4.12h0a5.59,5.59,0,0,1,3.65-5.53l15-5.71Z" transform="translate(0 -243.8)"/><rect class="cls-47" x="1739.71" y="792.15" width="31.38" height="2.44" transform="translate(-89 -6.36) rotate(-7.55)"/><path class="cls-39" d="M1766.06,781.42a2.41,2.41,0,1,1-2.7-2.07A2.41,2.41,0,0,1,1766.06,781.42Z" transform="translate(0 -243.8)"/><path class="cls-48" d="M1676.7,587.25l-.67-.07-51.54-7.66,2.5-16.85,46.18,6.86c9.18-13.94,23.22-30.26,23.22-30.26-.11.21.52.74,0,0l16.24,1.68c.73,4.11-2.85,4.14-28.25,42.5A8.51,8.51,0,0,1,1676.7,587.25Z" transform="translate(0 -243.8)"/><path class="cls-48" d="M1725.21,534.87l1.67.28a18.62,18.62,0,0,1,15.07,14l11.79,67.19c-25.08,13.67-56.82.15-56.82.15l-6.1-62.67a16.36,16.36,0,0,1,9-16.68h0Z" transform="translate(0 -243.8)"/><polygon class="cls-49" points="1719.55 297.04 1705.42 295.87 1707.72 263.81 1721.85 264.98 1719.55 297.04"/><path class="cls-49" d="M1702,536.89l21.58-1.88s-.16,12.6-13.17,12.42C1698.47,547.26,1702,536.89,1702,536.89Z" transform="translate(0 -243.8)"/><path class="cls-39" d="M1625.31,571.05a9.15,9.15,0,1,1-7.5-10.55A9.14,9.14,0,0,1,1625.31,571.05Z" transform="translate(0 -243.8)"/><path class="cls-39" d="M1630.34,576.55,1621,575a4.54,4.54,0,0,1-3.7-5.22h0a4.53,4.53,0,0,1,5.21-3.7l9.39,1.59a4.53,4.53,0,0,1,3.71,5.21h0A4.56,4.56,0,0,1,1630.34,576.55Z" transform="translate(0 -243.8)"/><circle class="cls-26" cx="1625.32" cy="577.14" r="26.33" transform="translate(394.11 1541.17) rotate(-64)"/><path class="cls-50" d="M1620.61,587.27a2.4,2.4,0,0,1-1.49-.67l-8.84-8.69a2.37,2.37,0,0,1,3.31-3.38l7.34,7.22,16.86-13.58a2.36,2.36,0,0,1,3,3.68l-18.5,14.9A2.35,2.35,0,0,1,1620.61,587.27Z" transform="translate(0 -243.8)"/><path class="cls-51" d="M1702.86,529.2h0a17.42,17.42,0,0,1-16.17-18.57l1.5-21.59,34.74,2.4L1721.44,513A17.41,17.41,0,0,1,1702.86,529.2Z" transform="translate(0 -243.8)"/><path class="cls-10" d="M1721.66,507.29l-5-.25a2.15,2.15,0,0,1-2-2.66c.86-3.54,2-9.64-.3-10.52-3.25-1.25-21.23,2.32-27-2.64-8.12-7-1.37-17,6.32-17s6,8.83,15,9.19,22.72-2.27,15.47,21.08Z" transform="translate(0 -243.8)"/><path class="cls-51" d="M1727.72,508.64a5.47,5.47,0,1,1-5.08-5.84A5.46,5.46,0,0,1,1727.72,508.64Z" transform="translate(0 -243.8)"/><path class="cls-52" d="M1659.83,593.57a9.16,9.16,0,1,1-8.5-9.76A9.16,9.16,0,0,1,1659.83,593.57Z" transform="translate(0 -243.8)"/><path class="cls-52" d="M1665.38,598.54l-9.5-.65a4.54,4.54,0,0,1-4.21-4.83h0a4.55,4.55,0,0,1,4.83-4.2l9.5.66a4.53,4.53,0,0,1,4.2,4.82h0A4.52,4.52,0,0,1,1665.38,598.54Z" transform="translate(0 -243.8)"/><path class="cls-48" d="M1660.19,602l0-17,46.94.07,16.14-38.28a8.51,8.51,0,0,1,11.28-4.21h0a8.5,8.5,0,0,1,4.21,11.28l-18.41,43.27a8.51,8.51,0,0,1-7.76,5Z" transform="translate(0 -243.8)"/><rect class="cls-53" x="1684.05" y="517.26" width="25.41" height="8.86"/><rect class="cls-53" x="1748.56" y="767.86" width="25.41" height="8.86" transform="translate(-115.7 109.56) rotate(-11.09)"/><path class="cls-39" d="M1690.08,513.79l15,.72s-.88,5.74-9,4.86C1689.75,518.68,1690.08,513.79,1690.08,513.79Z" transform="translate(0 -243.8)"/><path class="cls-14" d="M1695.52,602l15.15,0a11.66,11.66,0,0,0,9.82-6.71l16.85-38.14c-6.53,22.25-15.12,44.9-15.12,44.9a7.09,7.09,0,0,1-6.92,4.66l-19.4-.78Z" transform="translate(0 -243.8)"/><path class="cls-54" d="M1602.14,630.61l-112,14.85a5.57,5.57,0,0,1-6.25-4.79l-3.95-29.82a5.57,5.57,0,0,1,4.79-6.25l112-14.85a5.57,5.57,0,0,1,6.25,4.79l4,29.82A5.56,5.56,0,0,1,1602.14,630.61Z" transform="translate(0 -243.8)"/><rect class="cls-40" x="1473.33" y="583.5" width="124.15" height="41.22" rx="5.57" transform="translate(-66.07 -36.8) rotate(-7.55)"/><path class="cls-41" d="M1483.3,600.8a.78.78,0,0,1-.77-.68.76.76,0,0,1,.66-.86l64.16-8.51a.74.74,0,0,1,.87.66.76.76,0,0,1-.66.87l-64.16,8.51Z" transform="translate(0 -243.8)"/><path class="cls-41" d="M1484.65,611a.77.77,0,0,1-.76-.67.78.78,0,0,1,.66-.87l64.16-8.5a.74.74,0,0,1,.87.66.77.77,0,0,1-.67.87l-64.15,8.5Z" transform="translate(0 -243.8)"/><path class="cls-41" d="M1486,621.27a.78.78,0,0,1-.77-.67.76.76,0,0,1,.67-.87l31.74-4.25a.75.75,0,0,1,.87.66.76.76,0,0,1-.66.87l-31.75,4.25Z" transform="translate(0 -243.8)"/><path class="cls-46" d="M1439.82,759.5l-10-.76-1.48,16.51,28.63,2.27.17-2.23a5.11,5.11,0,0,0-3.62-4.85L1439.55,766Z" transform="translate(0 -243.8)"/><path class="cls-46" d="M1309.62,753.46l-1-10-16.51,1.42,2.75,28.58,2.22-.22a5.09,5.09,0,0,0,4.15-4.4l2-14.48Z" transform="translate(0 -243.8)"/><path class="cls-14" d="M1351.08,678.7l18.23,58.74-63.56,3.79,1.89,15.12,77.5-2.61c6.88-.22,12.1-5.47,10.7-13.49l-4.35-43.65,41-.63-7.09,64.8,17.65.63,17.31-72.82a14.41,14.41,0,0,0-13.68-17.75l-41.69-1Z" transform="translate(0 -243.8)"/><polygon class="cls-49" points="1377.24 366.35 1392.91 369.67 1399.56 336.44 1384.04 333.19 1377.24 366.35"/><path class="cls-51" d="M1389.55,597.6h0a16.23,16.23,0,0,0,19.2-12.56l4.13-19.73-31.75-6.65L1377,578.39A16.24,16.24,0,0,0,1389.55,597.6Z" transform="translate(0 -243.8)"/><path class="cls-10" d="M1401.27,573.84l-3,14.51c-1.22,5.79-6.64,9.56-12.11,8.41l-2.86-.6c-9.57-2-15.61-11.84-13.49-22l2.75-13.11,29.84,6.25Z" transform="translate(0 -243.8)"/><path class="cls-10" d="M1400.23,571.69s7.45,2,12.15,2c6.12.1,9.91-6.93,6.09-11.72-.16-.21-.35-.42-.54-.63-4.67-5.08-12.82-2.55-12.78-2S1400.23,571.69,1400.23,571.69Z" transform="translate(0 -243.8)"/><path class="cls-10" d="M1409.85,563.29s-9.13-13.39-24.9-9.45c0,0-6.06-.32-12.43,7.24l26.54,12.63Z" transform="translate(0 -243.8)"/><path class="cls-51" d="M1394.76,580.25a4.75,4.75,0,1,0,5.62-3.67A4.76,4.76,0,0,0,1394.76,580.25Z" transform="translate(0 -243.8)"/><path class="cls-10" d="M1387.83,551.88A15.34,15.34,0,1,1,1376,533.73,15.32,15.32,0,0,1,1387.83,551.88Z" transform="translate(0 -243.8)"/><path class="cls-26" d="M1405.4,669.27c-5.85-9.51-3.07-31.48-.66-44.65a16.06,16.06,0,0,0-7.35-16.49h0l-18.14-5.37c-4.5-1.55-10.39,3.67-13.59,7.19-28.62,31.46-17.6,71.52-17.6,71.52,9.76,2.38,21.77,2.27,28.31,1.46h0l.24,0,.36,0A49.61,49.61,0,0,0,1405.4,669.27Z" transform="translate(0 -243.8)"/><path class="cls-51" d="M1473.59,617.82a9.8,9.8,0,1,0,2.2-13.69A9.8,9.8,0,0,0,1473.59,617.82Z" transform="translate(0 -243.8)"/><path class="cls-51" d="M1471.37,625.48l8.26-6a4.84,4.84,0,0,0,1.08-6.76h0a4.85,4.85,0,0,0-6.76-1.09l-8.26,6a4.87,4.87,0,0,0-1.09,6.77h0A4.86,4.86,0,0,0,1471.37,625.48Z" transform="translate(0 -243.8)"/><path class="cls-26" d="M1478,625.66l-9.67-15.47-42.62,26.65L1399,609.6a9.12,9.12,0,0,0-12.64,2.56h0a9.12,9.12,0,0,0,2.56,12.64l31.65,30.49a9.13,9.13,0,0,0,9.88.14Z" transform="translate(0 -243.8)"/><polygon class="cls-45" points="1391.49 452.8 1408.68 443.15 1407.75 447.62 1432.46 452.17 1391.49 452.8"/><path class="cls-39" d="M1770.18,453l-1.42-4.07-1.42,4.07a14.21,14.21,0,0,1-7.9,8h0a14.21,14.21,0,0,1,7.9,8l1.42,4.07,1.42-4.07a14.24,14.24,0,0,1,7.9-8h0A14.24,14.24,0,0,1,1770.18,453Z" transform="translate(0 -243.8)"/><path class="cls-39" d="M1343.84,571.15l-.94-2.69-.94,2.69a9.39,9.39,0,0,1-5.21,5.3h0a9.38,9.38,0,0,1,5.21,5.31l.94,2.68.94-2.68a9.38,9.38,0,0,1,5.21-5.31h0A9.39,9.39,0,0,1,1343.84,571.15Z" transform="translate(0 -243.8)"/><polygon class="cls-28" points="1479.64 535.3 1483.12 542 1522.96 543.01 1531.07 520.81 1527.71 514.34 1479.64 535.3"/><path class="cls-28" d="M1488.49,788.46l34.8,1.33c3,.11,5.6-1.23,5.8-3.06L1531.4,766c.21-2-2.34-3.71-5.6-3.84l-34.8-1.32c-3-.12-5.6,1.23-5.8,3.06l-2.31,20.7C1482.67,786.59,1485.23,788.34,1488.49,788.46Z" transform="translate(0 -243.8)"/><path class="cls-38" d="M1485.13,782l34.8,1.32c3,.12,5.59-1.23,5.79-3.06l2.31-20.7c.22-2-2.33-3.72-5.6-3.84l-34.8-1.32c-3-.12-5.59,1.23-5.8,3.06l-2.3,20.7C1479.31,780.11,1481.86,781.86,1485.13,782Z" transform="translate(0 -243.8)"/><path class="cls-26" d="M938.64,406.14s-14.29,3.77-11.31,17.86l4,10.31,74-1.38-14-26A21,21,0,0,0,970.2,396l-20.65,2.58Z" transform="translate(0 -243.8)"/><path class="cls-55" d="M956.63,407.76h0a5.28,5.28,0,0,1-7.13-2.11L941,390.14l9.33-5,8.48,15.41A5.28,5.28,0,0,1,956.63,407.76Z" transform="translate(0 -243.8)"/><path class="cls-56" d="M946.68,405.64h0A13,13,0,0,1,929,400.56l-7.82-14.14,22.76-12.59L951.76,388A13,13,0,0,1,946.68,405.64Z" transform="translate(0 -243.8)"/><path class="cls-10" d="M947.75,387.2s-4.25.35-5.46-4.57-7.79-3.58-7.79-3.58l6.2-6.58s9.75-3.73,9.82,9.69Z" transform="translate(0 -243.8)"/><path class="cls-10" d="M941.81,379.43,924.59,389a6.65,6.65,0,0,1-7.26-.46c-2.49-1.88-3.77-4.63-1.76-9.74,3-7.53,5.54-2.06,5.54-2.06s18.14-14.89,21.19-1Z" transform="translate(0 -243.8)"/><circle class="cls-56" cx="950.34" cy="384.65" r="4.09" transform="translate(-28.14 -165.24) rotate(-4.67)"/><path class="cls-39" d="M934.9,401.71l9-5.24s1.65,3.69-3.4,6.22C936.54,404.68,934.9,401.71,934.9,401.71Z" transform="translate(0 -243.8)"/><path class="cls-42" d="M1197.62,702.15c1.27,1.09,14.21-19.86,18.32-47.12,0,0,2-13.4-11.11-7.16,0,0,16.09-58.25-19.34-55.57-6.11.46-9.63,1.64-13.32,5.31-5,5-8,13.21-3,25.53,10,24.63,19.35,34.46,13.93,47S1179.12,686.37,1197.62,702.15Z" transform="translate(0 -243.8)"/><path class="cls-43" d="M1192.31,740.31a1.3,1.3,0,0,1-.93-1.58c10-39.18,1.63-106.43.28-109.42a1.26,1.26,0,0,1,.41-1.76,1.33,1.33,0,0,1,1.81.42c2.25,3.47,9.76,73.39,0,111.4A1.29,1.29,0,0,1,1192.31,740.31Z" transform="translate(0 -243.8)"/><path class="cls-14" d="M1164.09,432.23a29.5,29.5,0,0,1,22.71-48.37h20.66a29.54,29.54,0,1,1,0,59.07H1186.8a29.24,29.24,0,0,1-13.18-3.15l-14.8,8.11Z" transform="translate(0 -243.8)"/><path class="cls-57" d="M1199.62,418.82a6.63,6.63,0,1,0-6.41-.4" transform="translate(0 -243.8)"/><path class="cls-57" d="M1199.55,434.53a21.87,21.87,0,1,0-6.41-.13" transform="translate(0 -243.8)"/><path class="cls-57" d="M1199.62,431.64a19,19,0,1,0-6.41-.12" transform="translate(0 -243.8)"/><path class="cls-57" d="M1199.62,428.39a15.82,15.82,0,1,0-6.41-.15" transform="translate(0 -243.8)"/><path class="cls-57" d="M1199.62,425.12a12.61,12.61,0,1,0-6.41-.19" transform="translate(0 -243.8)"/><path class="cls-57" d="M1199.62,422a9.62,9.62,0,1,0-6.41-.26" transform="translate(0 -243.8)"/><line class="cls-57" x1="1193.1" y1="190.9" x2="1193.1" y2="174.23"/><line class="cls-57" x1="1199.52" y1="191.01" x2="1199.52" y2="174.55"/><circle class="cls-39" cx="1196.84" cy="168.57" r="3.42"/><rect class="cls-38" x="865.11" y="441.25" width="66.36" height="41.64"/><path class="cls-38" d="M944.25,726.63H847a15.8,15.8,0,0,0-15.8,15.8H960.05A15.8,15.8,0,0,0,944.25,726.63Z" transform="translate(0 -243.8)"/><rect class="cls-28" x="714.86" y="181.02" width="375.71" height="263.01" rx="24.21"/><rect class="cls-38" x="701.11" y="181.02" width="375.71" height="263.01" rx="24.21"/><rect class="cls-39" x="727.81" y="206.17" width="323.33" height="204.66"/><rect class="cls-28" x="727.81" y="206.17" width="3.94" height="204.66"/><path class="cls-58" d="M894.57,681.67a11,11,0,1,1,11-11A11,11,0,0,1,894.57,681.67Zm0-20a9,9,0,1,0,9,9A9,9,0,0,0,894.57,661.64Z" transform="translate(0 -243.8)"/><polygon class="cls-59" points="865.11 444.03 931.47 482.89 931.47 444.03 865.11 444.03"/><rect class="cls-60" x="748.63" y="229.01" width="140.36" height="48.95" rx="4.85"/><path class="cls-60" d="M843.75,546.34H752.59a4,4,0,0,1-4-4h0a4,4,0,0,1,4-4h91.16a4,4,0,0,1,4,4h0A4,4,0,0,1,843.75,546.34Z" transform="translate(0 -243.8)"/><path class="cls-60" d="M812.55,564.05h-60a4,4,0,0,1-4-4h0a4,4,0,0,1,4-4h60a4,4,0,0,1,4,4h0A4,4,0,0,1,812.55,564.05Z" transform="translate(0 -243.8)"/><path class="cls-60" d="M812.55,582.62h-60a4,4,0,0,1-4-4h0a4,4,0,0,1,4-4h60a4,4,0,0,1,4,4h0A4,4,0,0,1,812.55,582.62Z" transform="translate(0 -243.8)"/><rect class="cls-60" x="908.59" y="229.01" width="123.2" height="158.11" rx="5.7"/><circle class="cls-35" cx="773.67" cy="253.87" r="15.07"/><path class="cls-41" d="M869.41,492.89H805.19a.92.92,0,1,1,0-1.84h64.22a.92.92,0,1,1,0,1.84Z" transform="translate(0 -243.8)"/><path class="cls-41" d="M869.41,504.31H805.19a.92.92,0,0,1,0-1.84h64.22a.92.92,0,0,1,0,1.84Z" transform="translate(0 -243.8)"/><line class="cls-61" x1="928.44" y1="338.55" x2="977.15" y2="338.55"/><line class="cls-61" x1="928.44" y1="357.11" x2="1009.65" y2="357.11"/><path class="cls-42" d="M925.07,500.79v52.38a7.23,7.23,0,0,0,7.24,7.23h73.32a7.24,7.24,0,0,0,7.25-7.23V500.79a7.24,7.24,0,0,0-7.25-7.23H932.31A7.23,7.23,0,0,0,925.07,500.79Z" transform="translate(0 -243.8)"/><path class="cls-14" d="M934.79,519.46a16.61,16.61,0,1,0,16.61-16.61A16.61,16.61,0,0,0,934.79,519.46Z" transform="translate(0 -243.8)"/><path class="cls-39" d="M925.07,547.92v5.25a7.23,7.23,0,0,0,7.24,7.23h73.32a7.24,7.24,0,0,0,7.25-7.23v-5.25l-26.16-26.15L969,539.54l-17.76-17.77Z" transform="translate(0 -243.8)"/><path class="cls-48" d="M643.29,572.91l-1.14.33a12.86,12.86,0,0,0-9.4,10.36l-3.09,44.51c18.46,6.63,39.47-4.93,39.47-4.93l-.54-40.12c.07-4.55-2.42-9.09-7.51-10h0Z" transform="translate(0 -243.8)"/><polygon class="cls-44" points="667.97 392.85 670.8 404.13 636.72 405.96 637.87 391.82 667.97 392.85"/><polygon class="cls-44" points="653.96 400.19 667.96 433.68 673.31 484.27 684.44 480.68 682.21 432.91 670.02 401.09 653.96 400.19"/><polygon class="cls-62" points="655.93 404.9 663.23 404.21 658.56 411.19 655.93 404.9"/><polygon class="cls-44" points="636.8 403.65 634.51 435.08 624.93 486.94 636.9 489.4 648.47 436.5 652.47 400.25 636.8 403.65"/><path class="cls-46" d="M683,728.19l-6.55.74,1,9.4L696,736.21h0a3.33,3.33,0,0,0-2.92-2.67l-9.48-1.15Z" transform="translate(0 -243.8)"/><rect class="cls-63" x="677.42" y="737.26" width="18.74" height="1.46" transform="translate(1452.43 1150.01) rotate(173.52)"/><path class="cls-46" d="M633.44,731.89,626.9,731l-1.34,9.35,18.57,2.46h0a3.35,3.35,0,0,0-2.18-3.31L633,736.12Z" transform="translate(0 -243.8)"/><rect class="cls-63" x="625.38" y="741.6" width="18.74" height="1.46" transform="translate(1166.49 1317.79) rotate(-172.45)"/><rect class="cls-53" x="672.11" y="723.78" width="15.17" height="5.29" transform="translate(-120.51 -108.43) rotate(-10.45)"/><rect class="cls-53" x="628.6" y="722.16" width="5.29" height="15.17" transform="translate(-206.33 964.97) rotate(-78.91)"/><polygon class="cls-55" points="646.37 332.82 655.94 332.78 656.08 312.03 646.51 312.08 646.37 332.82"/><path class="cls-56" d="M658.21,570.63h0A11.75,11.75,0,0,0,670.08,559l.14-14.62-23.52-.21-.14,14.61A11.76,11.76,0,0,0,658.21,570.63Z" transform="translate(0 -243.8)"/><path class="cls-10" d="M646.71,554.88l3.36.1a1.45,1.45,0,0,0,1.47-1.69c-.4-2.43-.83-6.59.75-7.07,2.25-.67,14.18,2.69,18.32-.34,5.84-4.28,1.82-11.36-3.36-11.75s-4.53,5.62-10.58,5.4-15.18-2.74-11.53,13.37Z" transform="translate(0 -243.8)"/><path class="cls-10" d="M670.55,559.21s-1,0-3.14-2-7.19-2-10.49.87-5.59-6.31-5.59-6.31l-1.74,2.87s.79,4.46-3.37,4.53c0,0,.85,13.29,14.08,11.83C660.3,571,669.8,569.43,670.55,559.21Z" transform="translate(0 -243.8)"/><path class="cls-56" d="M642.56,555.48a3.7,3.7,0,1,0,3.73-3.67A3.7,3.7,0,0,0,642.56,555.48Z" transform="translate(0 -243.8)"/><polygon class="cls-55" points="646.37 328.81 654.24 334.56 655.94 328.76 646.37 328.81"/><polygon class="cls-14" points="654.24 334.56 646.37 337.3 646.37 328.81 654.24 334.56"/><polygon class="cls-14" points="654.24 334.56 658.15 336.53 655.94 328.76 654.24 334.56"/><path class="cls-63" d="M593.7,599.18v35.91a6,6,0,0,0,6,6h97a6,6,0,0,0,6-6V599.18a6,6,0,0,0-6-6h-97A6,6,0,0,0,593.7,599.18Z" transform="translate(0 -243.8)"/><path class="cls-42" d="M593.7,599.18v3.34H702.78v-3.34a6,6,0,0,0-6-6h-97A6,6,0,0,0,593.7,599.18Z" transform="translate(0 -243.8)"/><path class="cls-39" d="M696.2,598.29a1.27,1.27,0,1,0,1.27-1.27A1.26,1.26,0,0,0,696.2,598.29Z" transform="translate(0 -243.8)"/><path class="cls-39" d="M691.14,598.29a1.27,1.27,0,1,0,1.27-1.27A1.26,1.26,0,0,0,691.14,598.29Z" transform="translate(0 -243.8)"/><path class="cls-39" d="M686.08,598.29a1.27,1.27,0,1,0,1.27-1.27A1.26,1.26,0,0,0,686.08,598.29Z" transform="translate(0 -243.8)"/><rect class="cls-39" x="601.69" y="608.11" width="59.59" height="17.57" rx="1.75" transform="translate(1262.97 989.99) rotate(180)"/><path class="cls-39" d="M603,633.9h76.1a1.32,1.32,0,0,0,1.33-1.33h0a1.32,1.32,0,0,0-1.33-1.33H603a1.32,1.32,0,0,0-1.33,1.33h0A1.32,1.32,0,0,0,603,633.9Z" transform="translate(0 -243.8)"/><path class="cls-64" d="M635,634.72a6,6,0,1,0,8.16,2.13A6,6,0,0,0,635,634.72Z" transform="translate(0 -243.8)"/><path class="cls-64" d="M630.46,632.92l3.13,5.35a3,3,0,0,0,4,1.06h0a3,3,0,0,0,1-4L635.54,630a3,3,0,0,0-4-1.06h0A3,3,0,0,0,630.46,632.92Z" transform="translate(0 -243.8)"/><path class="cls-48" d="M630,636.94l9.93-4.94-13.63-27.37,17.67-20.49a5.54,5.54,0,0,0-.81-7.8h0a5.54,5.54,0,0,0-7.8.81L615.4,600.41a5.55,5.55,0,0,0-.66,6Z" transform="translate(0 -243.8)"/><path class="cls-28" d="M590.87,434.87l-.87-2.5-.87,2.5a8.74,8.74,0,0,1-4.85,4.93h0a8.74,8.74,0,0,1,4.85,4.93l.87,2.5.87-2.5a8.74,8.74,0,0,1,4.85-4.93h0A8.74,8.74,0,0,1,590.87,434.87Z" transform="translate(0 -243.8)"/><path class="cls-28" d="M1045,362.44l-1.46-4.18-1.46,4.18a14.63,14.63,0,0,1-8.13,8.28h0A14.64,14.64,0,0,1,1042,379l1.46,4.19L1045,379a14.61,14.61,0,0,1,8.13-8.27h0A14.59,14.59,0,0,1,1045,362.44Z" transform="translate(0 -243.8)"/><path class="cls-28" d="M289,477.44l-1.46-4.18L286,477.44a14.63,14.63,0,0,1-8.13,8.28h0A14.64,14.64,0,0,1,286,494l1.46,4.19L289,494a14.61,14.61,0,0,1,8.13-8.27h0A14.59,14.59,0,0,1,289,477.44Z" transform="translate(0 -243.8)"/><path class="cls-28" d="M1854,466.44l-1.46-4.18-1.46,4.18a14.63,14.63,0,0,1-8.13,8.28h0A14.64,14.64,0,0,1,1851,483l1.46,4.19L1854,483a14.61,14.61,0,0,1,8.13-8.27h0A14.59,14.59,0,0,1,1854,466.44Z" transform="translate(0 -243.8)"/><path class="cls-63" d="M894.46,600.37l-3.6-7.62a2.55,2.55,0,0,0-2.58-1.44l-11.85,1.35a4,4,0,0,1-4.2-2.51l-1.81-4.5a4.06,4.06,0,0,1,1.79-5c1.23-.68,2.47-1.37,2.7-1.48l.67,1.35c-.22.11-1.44.78-2.63,1.45a2.54,2.54,0,0,0-1.13,3.16l1.8,4.49a2.54,2.54,0,0,0,2.64,1.58l11.85-1.35a4.05,4.05,0,0,1,4.11,2.29l3.6,7.63Z" transform="translate(0 -243.8)"/><path class="cls-14" d="M894.54,567.19l-21.09,8.53a2.45,2.45,0,0,0-1.32,3.28l1.62,3.57a2.45,2.45,0,0,0,3.1,1.28l21.3-8.05a2.45,2.45,0,0,0,1.36-3.3l-1.82-4A2.44,2.44,0,0,0,894.54,567.19Z" transform="translate(0 -243.8)"/><path class="cls-58" d="M893.47,596.48h0a2.34,2.34,0,0,0-1.17,2.87l4.46,12.94a3.58,3.58,0,0,0,5.15,2h0a3.58,3.58,0,0,0,1.37-4.89l-6.71-11.93A2.36,2.36,0,0,0,893.47,596.48Z" transform="translate(0 -243.8)"/><path class="cls-26" d="M823.91,690.49,804,668.13a6.36,6.36,0,0,1-.44-7.06l18.05-26.16,11,6.4-15.91,22.48,17.32,19Z" transform="translate(0 -243.8)"/><path class="cls-56" d="M894.14,611a5.8,5.8,0,1,0-.58-8.18A5.81,5.81,0,0,0,894.14,611Z" transform="translate(0 -243.8)"/><path class="cls-56" d="M893.9,615.74l4-4.56a2.89,2.89,0,0,0-.29-4h0a2.87,2.87,0,0,0-4,.29l-4,4.56a2.89,2.89,0,0,0,.29,4h0A2.89,2.89,0,0,0,893.9,615.74Z" transform="translate(0 -243.8)"/><polygon class="cls-55" points="832.87 388.82 842.96 388.72 842.49 369.42 832.51 369.55 832.87 388.82"/><path class="cls-56" d="M840.33,625.24h0a11.23,11.23,0,0,0,11.09-11.38l-.17-14-22.47.28.17,14A11.24,11.24,0,0,0,840.33,625.24Z" transform="translate(0 -243.8)"/><path class="cls-10" d="M844.68,607.41l.13,10.27a7.23,7.23,0,0,1-6.92,7.51l-2,0c-6.77.09-12.33-5.65-12.42-12.82l-.12-9.28,21.12-.26Z" transform="translate(0 -243.8)"/><path class="cls-10" d="M843.66,606.12a45.46,45.46,0,0,0,8.51-.45c4.16-.86,5.67-9.07,2.36-11.73-.14-.12-.3-.23-.46-.35-3.92-2.73-9.05,3.09-9,3.43S843.66,606.12,843.66,606.12Z" transform="translate(0 -243.8)"/><path class="cls-10" d="M848.89,599s-9-7.8-19.07-2.76c0,0-3.33.81-6.5,6.88l19.85,4.55Z" transform="translate(0 -243.8)"/><path class="cls-56" d="M841.25,612.73a3.29,3.29,0,1,0,3.24-3.33A3.28,3.28,0,0,0,841.25,612.73Z" transform="translate(0 -243.8)"/><path class="cls-56" d="M850,614h1.64a1.63,1.63,0,0,0,1.63-1.64h0a1.63,1.63,0,0,0-1.63-1.63H850Z" transform="translate(0 -243.8)"/><path class="cls-26" d="M845.42,631.4H829.25c-8.08,0-10.85,6.67-9.46,13.79l3.05,17.33,1.43,16.4h29.06l3-35.89C856.42,636.63,854.08,631.4,845.42,631.4Z" transform="translate(0 -243.8)"/><path class="cls-14" d="M853.33,678.92l10.56,53.71.16,45.6-7.51.24-6.83-44.24-14-38.3.83,39.26-11.33,43.38h-7.67l5.9-43.37-4.71-33.45s-1.19-14.79,5.56-22.83Z" transform="translate(0 -243.8)"/><rect class="cls-14" x="828.09" y="690.38" width="13.7" height="10.41" transform="translate(1669.88 1147.35) rotate(180)"/><polygon class="cls-56" points="864.04 534.43 864.39 540.85 857.47 540.85 856.54 534.66 864.04 534.43"/><polygon class="cls-56" points="825.19 534.76 823.9 541.54 816.55 541.3 817.52 534.76 825.19 534.76"/><path class="cls-45" d="M835.58,700.78h-7.49s6.85,7.58,8,15.15Z" transform="translate(0 -243.8)"/><path class="cls-46" d="M864,784.65h4.54c2.59,0,5.45.87,6.13,4l.34,2H857s-1.19-3.45.47-6Z" transform="translate(0 -243.8)"/><path class="cls-46" d="M823,784.65h4.54c2.59,0,5.45.87,6.13,4l.34,2H816s-1.19-3.45.47-6Z" transform="translate(0 -243.8)"/><path class="cls-26" d="M845.34,644.24l-1.09-12.65,27-2.32,16.81-19.8,9.68,8.23-18.51,21.78a6.36,6.36,0,0,1-4.29,2.22Z" transform="translate(0 -243.8)"/><polygon class="cls-45" points="856.31 399.49 848.92 399.96 854.96 415.67 856.31 399.49"/><path class="cls-26" d="M828.31,601.41a4.63,4.63,0,1,1-4.63-4.63A4.63,4.63,0,0,1,828.31,601.41Z" transform="translate(0 -243.8)"/><path class="cls-65" d="M825.06,599.39s-10.16-6.38-13.94,7.1c-3.54,12.62,6.55,27.89,8.5,39.44a2.81,2.81,0,0,0,2.79,2.3h11a2.85,2.85,0,0,0,2.85-3.05c-.39-5.41-3.18-15.82-11.43-28.51,0,0-8.8-12,.18-13.52C825,603.15,827,600.86,825.06,599.39Z" transform="translate(0 -243.8)"/><path class="cls-14" d="M1175,753.31a2,2,0,0,1-2-1.44l-66.71-269.56a1.84,1.84,0,0,1,1.61-2.17,2.11,2.11,0,0,1,2.5,1.4l66.71,269.56a1.84,1.84,0,0,1-1.61,2.17A2.28,2.28,0,0,1,1175,753.31Z" transform="translate(0 -243.8)"/><path class="cls-14" d="M1126.16,753.31a2,2,0,0,1-2.05-1.44l-67-269.56a1.85,1.85,0,0,1,1.62-2.17,2.11,2.11,0,0,1,2.5,1.4l67,269.56a1.85,1.85,0,0,1-1.61,2.17A2.28,2.28,0,0,1,1126.16,753.31Z" transform="translate(0 -243.8)"/><path class="cls-14" d="M1111.89,498.15h-49.11a1.85,1.85,0,1,1,0-3.66h49.11a1.85,1.85,0,1,1,0,3.66Z" transform="translate(0 -243.8)"/><path class="cls-14" d="M1117.24,519.71h-49.12a1.85,1.85,0,1,1,0-3.66h49.12a1.85,1.85,0,1,1,0,3.66Z" transform="translate(0 -243.8)"/><path class="cls-14" d="M1122.59,541.26h-49.11a1.85,1.85,0,1,1,0-3.66h49.11a1.85,1.85,0,1,1,0,3.66Z" transform="translate(0 -243.8)"/><path class="cls-14" d="M1127.93,562.82h-49.1a1.85,1.85,0,1,1,0-3.66h49.1a1.85,1.85,0,1,1,0,3.66Z" transform="translate(0 -243.8)"/><path class="cls-58" d="M1133.29,584.38h-49.12a1.85,1.85,0,1,1,0-3.66h49.12a1.85,1.85,0,1,1,0,3.66Z" transform="translate(0 -243.8)"/><path class="cls-14" d="M1138.64,605.93h-49.12a1.85,1.85,0,1,1,0-3.66h49.12a1.85,1.85,0,1,1,0,3.66Z" transform="translate(0 -243.8)"/><path class="cls-14" d="M1144,627.49h-49.11a1.85,1.85,0,1,1,0-3.66H1144a1.85,1.85,0,1,1,0,3.66Z" transform="translate(0 -243.8)"/><path class="cls-14" d="M1149.34,649.05h-49.12a1.85,1.85,0,1,1,0-3.66h49.12a1.85,1.85,0,1,1,0,3.66Z" transform="translate(0 -243.8)"/><path class="cls-14" d="M1154.68,670.6h-49.11a1.84,1.84,0,1,1,0-3.65h49.11a1.84,1.84,0,1,1,0,3.65Z" transform="translate(0 -243.8)"/><path class="cls-14" d="M1160,692.16h-49.11a1.85,1.85,0,1,1,0-3.66H1160a1.85,1.85,0,1,1,0,3.66Z" transform="translate(0 -243.8)"/><path class="cls-14" d="M1165.38,713.72h-49.11a1.85,1.85,0,1,1,0-3.66h49.11a1.85,1.85,0,1,1,0,3.66Z" transform="translate(0 -243.8)"/><path class="cls-46" d="M1096.79,633.47,1105,632l3.67,13.54-23.5,1.46-.33-1.83a4.24,4.24,0,0,1,2.57-4.33l11.14-2Z" transform="translate(0 -243.8)"/><polygon class="cls-55" points="1128.89 276.64 1118.97 276.59 1118.82 255.1 1128.74 255.14 1128.89 276.64"/><path class="cls-56" d="M1116.62,514.23h0a12.19,12.19,0,0,1-12.3-12.07l-.14-15.15,24.37-.22.14,15.14A12.19,12.19,0,0,1,1116.62,514.23Z" transform="translate(0 -243.8)"/><path class="cls-10" d="M1128.53,497.91l-3.47.1a1.5,1.5,0,0,1-1.53-1.75c.41-2.51.86-6.83-.78-7.32-2.33-.69-14.69,2.78-19-.36-6-4.43-1.89-11.77,3.48-12.18s4.7,5.84,11,5.6,15.73-2.83,12,13.85Z" transform="translate(0 -243.8)"/><path class="cls-56" d="M1132.83,498.53a3.83,3.83,0,1,1-3.86-3.8A3.83,3.83,0,0,1,1132.83,498.53Z" transform="translate(0 -243.8)"/><path class="cls-46" d="M1145.43,657.13l8.31-1.16,4.14,14.28-23.54.49-.26-1.84a4.27,4.27,0,0,1,2.75-4.23l10.56-1.43Z" transform="translate(0 -243.8)"/><path class="cls-44" d="M1108.86,568.87l-23.72,7.36a7,7,0,0,0-5.59,9l14.86,50.12,14.18-1.45L1095.87,588l34.92-7.59a10,10,0,0,0,9.06-9.92v-1.62Z" transform="translate(0 -243.8)"/><polygon class="cls-44" points="1134.33 331.1 1139.85 366.11 1155.69 415.06 1143.38 415.93 1125.91 367.49 1115.47 331.1 1134.33 331.1"/><path class="cls-48" d="M1118.23,518.2h0c-6.78,0-12.27,6.2-12.27,13.79l2.9,36.88,33.89,1.45-2.9-39.41c0-7-5-12.67-11.3-12.69Z" transform="translate(0 -243.8)"/><path class="cls-39" d="M1107.3,504.82l8.83-.1s-.33,3.68-5.1,3.42C1107.26,507.94,1107.3,504.82,1107.3,504.82Z" transform="translate(0 -243.8)"/><path class="cls-56" d="M1045.45,535.33a7.1,7.1,0,1,1,.39-10A7.09,7.09,0,0,1,1045.45,535.33Z" transform="translate(0 -243.8)"/><polyline class="cls-66" points="1120.91 284.89 1087.93 299.31 1041.84 286.32"/><path class="cls-14" d="M1100,527.65l8,16.78,14.52-8.08a7.91,7.91,0,0,0,2.93-11h0A7.9,7.9,0,0,0,1116,522Z" transform="translate(0 -243.8)"/><path class="cls-10" d="M1106,502a4.61,4.61,0,1,1,4.61-4.61A4.62,4.62,0,0,1,1106,502Zm0-8a3.39,3.39,0,1,0,3.39,3.39A3.39,3.39,0,0,0,1106,494Z" transform="translate(0 -243.8)"/><path class="cls-10" d="M1115.85,502a4.61,4.61,0,1,1,4.6-4.61A4.62,4.62,0,0,1,1115.85,502Zm0-8a3.39,3.39,0,1,0,3.39,3.39A3.39,3.39,0,0,0,1115.85,494Z" transform="translate(0 -243.8)"/><rect class="cls-10" x="1109.6" y="251.31" width="2.4" height="1.22"/><rect class="cls-10" x="1119.24" y="252.37" width="3.85" height="1.22"/><path class="cls-56" d="M919.32,424.93s-1.58-5.72-11-5.24S896,426.2,899,430s11,1.24,16-5.18Z" transform="translate(0 -243.8)"/><path class="cls-56" d="M993.08,420.31s-1.46-5.24-10.05-4.81-11.36,6-8.59,9.47,10,1.14,14.71-4.75Z" transform="translate(0 -243.8)"/><path class="cls-63" d="M975.34,482.55h29.89a1.47,1.47,0,0,1,1.47,1.47v32a1.19,1.19,0,0,1-1.19,1.19H975.06a1.19,1.19,0,0,1-1.19-1.19V484A1.47,1.47,0,0,1,975.34,482.55Z"/><path class="cls-14" d="M997.8,490.57h8.91a0,0,0,0,1,0,0v19.27a0,0,0,0,1,0,0H997.8a9.31,9.31,0,0,1-9.31-9.31v-.66A9.31,9.31,0,0,1,997.8,490.57Z"/><path class="cls-14" d="M973.87,754.92a.83.83,0,0,1-.47-.16c-2.84-2.12-4.28-4.69-4.29-7.64,0-7.68,9.75-15.12,10.16-15.44a.79.79,0,0,1,1.09.15.78.78,0,0,1-.15,1.09c-.1.07-9.56,7.3-9.54,14.19,0,2.44,1.24,4.6,3.66,6.41a.78.78,0,0,1-.46,1.4Z" transform="translate(0 -243.8)"/><path class="cls-28" d="M1745.09,435.23a29.5,29.5,0,0,1,22.71-48.37h20.66a29.54,29.54,0,1,1,0,59.07H1767.8a29.24,29.24,0,0,1-13.18-3.15l-14.8,8.11Z" transform="translate(0 -243.8)"/><path class="cls-39" d="M1761.26,413.56v3.81a1.61,1.61,0,0,0,1.61,1.61h3.22a12.62,12.62,0,0,0,1,2.52l-2.28,2.27a1.62,1.62,0,0,0,0,2.27l2.7,2.69a1.6,1.6,0,0,0,2.27,0l2.27-2.27a12.62,12.62,0,0,0,2.52,1v3.22a1.61,1.61,0,0,0,1.61,1.61H1780a1.61,1.61,0,0,0,1.61-1.61V427.5a12.38,12.38,0,0,0,2.52-1l2.27,2.27a1.6,1.6,0,0,0,2.27,0l2.7-2.69a1.6,1.6,0,0,0,0-2.27l-2.27-2.27a13.24,13.24,0,0,0,1-2.52h3.21a1.61,1.61,0,0,0,1.61-1.61v-3.81a1.61,1.61,0,0,0-1.61-1.61h-3.21a13,13,0,0,0-1-2.52l2.27-2.27a1.6,1.6,0,0,0,0-2.27l-2.7-2.7a1.6,1.6,0,0,0-2.27,0l-2.27,2.27a13,13,0,0,0-2.52-1v-3.21a1.61,1.61,0,0,0-1.61-1.61h-3.81a1.61,1.61,0,0,0-1.61,1.61v3.21a13.24,13.24,0,0,0-2.52,1l-2.27-2.27a1.6,1.6,0,0,0-2.27,0l-2.7,2.7a1.62,1.62,0,0,0,0,2.27l2.28,2.27a12.38,12.38,0,0,0-1,2.52h-3.22A1.61,1.61,0,0,0,1761.26,413.56Zm10.14,1.9a6.73,6.73,0,1,1,6.73,6.73A6.72,6.72,0,0,1,1771.4,415.46Z" transform="translate(0 -243.8)"/><path class="cls-67" d="M155.48,271.16l-.41.21-1.16.63c-1,.55-2.44,1.37-4.24,2.47a143.74,143.74,0,0,0-14.29,9.93c-2.83,2.23-5.82,4.76-8.83,7.6a112,112,0,0,0-9,9.46c-1.44,1.75-2.88,3.55-4.23,5.46-.7.94-1.34,1.93-2,2.9l-1,1.5-.47.76-.46.77c-1.24,2-2.34,4.19-3.39,6.37-.5,1.11-1,2.21-1.45,3.35-.22.56-.47,1.12-.66,1.69l-.61,1.73a57.47,57.47,0,0,0-1.9,7c-.28,1.18-.43,2.38-.63,3.57-.09.6-.14,1.2-.21,1.79s-.14,1.19-.16,1.79a56.24,56.24,0,0,0,.73,13.92,64.72,64.72,0,0,0,3.59,12.4,76.62,76.62,0,0,0,5.08,10.3c.46.76.89,1.51,1.34,2.23l1.35,2.08.65,1,.67.95c.44.62.87,1.22,1.28,1.81,1.71,2.31,3.24,4.28,4.57,5.84s2.39,2.78,3.12,3.6l1.12,1.26-1.07-1.3c-.69-.86-1.74-2.08-3-3.72s-2.72-3.64-4.32-6c-.39-.59-.79-1.21-1.2-1.85l-.63-1-.6-1-1.26-2.12c-.41-.73-.81-1.49-1.23-2.26a75.09,75.09,0,0,1-4.6-10.34,63,63,0,0,1-3-12.21,54.41,54.41,0,0,1-.18-13.39c0-.57.15-1.13.23-1.7s.15-1.13.26-1.7c.23-1.12.43-2.26.73-3.37a52.73,52.73,0,0,1,2.07-6.61l.64-1.61c.2-.54.46-1.06.69-1.59.45-1.06,1-2.09,1.5-3.12a68.74,68.74,0,0,1,3.47-5.94l.46-.71.48-.7,1-1.4c.67-.9,1.32-1.82,2-2.69,1.36-1.77,2.81-3.44,4.25-5.05a107.64,107.64,0,0,1,9-8.74c3-2.61,6-4.93,8.78-7a139.59,139.59,0,0,1,14.11-9c1.76-1,3.16-1.7,4.11-2.17l1.08-.53.36-.17Z" transform="translate(0 -243.8)"/><path class="cls-14" d="M178.77,276.53a1.25,1.25,0,0,1-1.5-.92l-2.63-11a1.24,1.24,0,0,1,.92-1.5h0a1.24,1.24,0,0,1,1.5.92l2.63,11a1.25,1.25,0,0,1-.92,1.5Z" transform="translate(0 -243.8)"/><path class="cls-26" d="M185.83,275.38c-3.18,3.7-6.89,8.82-12.31,11l.58,2.46,17.46-1c4.12-.24,5-1.93,5-1.93l9.19-11.39S189.08,271.6,185.83,275.38Z" transform="translate(0 -243.8)"/><path class="cls-26" d="M187.37,247.34s-1.55-1.12-5.33.52l-16,7,.59,2.46c5.85-.46,11.46,2.44,16,4.31s18.15-8.24,18.15-8.24Z" transform="translate(0 -243.8)"/><path class="cls-13" d="M248.22,253l0-.07-.09,0a41,41,0,0,0-14.48-8.48c-15-4.7-57.84,16.8-57.84,16.8l2,8.48,2,8.49s48-.13,59.21-11.07a41.13,41.13,0,0,0,9.1-14.1l.09,0Z" transform="translate(0 -243.8)"/><path class="cls-26" d="M240.3,265.88A35.9,35.9,0,0,0,248.25,253a35.76,35.76,0,0,0-12.95-7.9c-.62-.22-1.26-.41-1.91-.6a33.82,33.82,0,0,0,5.4,22.89C239.32,266.86,239.82,266.37,240.3,265.88Z" transform="translate(0 -243.8)"/><path class="cls-67" d="M148.31,276.89s32.14,10.56,28-6.69S148.31,276.89,148.31,276.89Z" transform="translate(0 -243.8)"/><path class="cls-26" d="M178.75,267.26a10.05,10.05,0,0,0-2.6.7c-.31.17-4.52,2.18-6.87,3.3l.28,1.17c2.6-.06,7.27-.16,7.62-.15a9.83,9.83,0,0,0,2.64-.55A22.93,22.93,0,0,0,182,270l-.51-2.13A21.9,21.9,0,0,0,178.75,267.26Z" transform="translate(0 -243.8)"/><path class="cls-39" d="M194.63,267a4,4,0,0,1,2.93-4.77,4,4,0,0,1,4.78,2.93,4,4,0,0,1-2.93,4.77,4,4,0,0,1-4.77-2.92Z" transform="translate(0 -243.8)"/><path class="cls-39" d="M211.18,260.09a4,4,0,0,0-3-.49,4,4,0,0,0-3,4.85h0a4,4,0,0,0,4.86,3,4,4,0,0,0,3-4.85A4,4,0,0,0,211.18,260.09Z" transform="translate(0 -243.8)"/><path class="cls-39" d="M223.57,260.06a4,4,0,0,0-7.8,1.86h0a4,4,0,1,0,7.79-1.87Z" transform="translate(0 -243.8)"/><path class="cls-67" d="M684.74,389.27a23.48,23.48,0,0,0-25.12-23.35c-12.18.84-21.55,11.46-21.4,23.66a22.69,22.69,0,0,0,12.06,20.07,8.26,8.26,0,0,1,4.33,7.22v.34h14.07v-.34a8.87,8.87,0,0,1,4.31-7.44C679.66,405.36,684.74,397.86,684.74,389.27Z" transform="translate(0 -243.8)"/><path class="cls-68" d="M659.62,365.92a22.21,22.21,0,0,0-4.64.83c.36,0,.73,0,1.11,0a16.93,16.93,0,1,1-16.93,16.93q0-.5,0-1a23.5,23.5,0,0,0-1,6.93,22.69,22.69,0,0,0,12.06,20.07,8.26,8.26,0,0,1,4.33,7.22v.34h14.07v-.34a8.87,8.87,0,0,1,4.31-7.44,24,24,0,0,0,11.66-20.16A23.4,23.4,0,0,0,659.62,365.92Z" transform="translate(0 -243.8)"/><path class="cls-48" d="M661.64,418.86a1.92,1.92,0,0,1-1.92-1.93V397.38a1.92,1.92,0,1,1,3.84,0v19.55A1.92,1.92,0,0,1,661.64,418.86Z" transform="translate(0 -243.8)"/><path class="cls-39" d="M645.74,396a2.57,2.57,0,0,1-2.47-1.87,15.07,15.07,0,0,1-.56-3.12,2.58,2.58,0,0,1,5.14-.33,10.13,10.13,0,0,0,.37,2,2.58,2.58,0,0,1-1.77,3.19A2.9,2.9,0,0,1,645.74,396Z" transform="translate(0 -243.8)"/><path class="cls-39" d="M646.14,386.05a2.61,2.61,0,0,1-.94-.18,2.58,2.58,0,0,1-1.45-3.35,17.28,17.28,0,0,1,5.52-7.32,2.58,2.58,0,0,1,3,4.22,12.18,12.18,0,0,0-3.69,5A2.58,2.58,0,0,1,646.14,386.05Z" transform="translate(0 -243.8)"/><rect class="cls-28" x="649.49" y="172.12" width="24.31" height="14.07" rx="2.55"/><path class="cls-26" d="M1372.42,443.28l-2.44-2.44,4-4c.81-.81,1.49-2.07.78-2.79l-3.58-3.58-2.76,2.76c-.81.82-1.43.55-2.14-.16l-3.87-3.87c-.71-.71-1-1.4-.24-2.21l2.76-2.76-3.07-3.08a2.69,2.69,0,0,0-3.29.28l-4,4.05-1.93-1.94a1.92,1.92,0,0,0-2.74-.05l-4.4,4.4a1.9,1.9,0,0,0,.06,2.73l1.94,1.94-3.57,3.56A2.18,2.18,0,0,0,1344,439l3.08,3.07,1.92-1.92c.81-.81,2.34-1.31,3-.6l3.87,3.87c.71.71.14,2.17-.67,3l-1.93,1.92,3.58,3.58c.71.71,1.63.38,2.44-.43l3.56-3.57,2.44,2.44a1.81,1.81,0,0,0,2.64,0l4.41-4.41A1.83,1.83,0,0,0,1372.42,443.28Z" transform="translate(0 -243.8)"/><path class="cls-48" d="M1343.65,445.49l-2.47,2.47-4.15-4.14c-.81-.82-2.26-1.76-3-1l-3.77,3.76,3,3c.81.81.55,1.05-.16,1.76l-3.87,3.87c-.72.72-1.31,1.33-2.12.52l-3-3-3,3c-.71.71-.08,2.47.73,3.28l4.14,4.15-2.16,2.16c-.71.71-1.19,2.05-.38,2.86l4.41,4.41a2.35,2.35,0,0,0,3.07-.17l2.16-2.16,3.45,3.44a1.72,1.72,0,0,0,2.56,0l3-3-1.77-1.78c-.81-.81-1.4-2.62-.69-3.33l3.87-3.87c.71-.71,2.16.24,3,1.05l1.78,1.78,3.76-3.77c.72-.71.49-1.44-.32-2.25l-3.44-3.45,2.47-2.47a2,2,0,0,0-.14-2.76l-4.41-4.41A1.71,1.71,0,0,0,1343.65,445.49Z" transform="translate(0 -243.8)"/><path class="cls-69" d="M1356.42,439.06l5.07,0a1,1,0,0,1,.76.31,1,1,0,0,1,.31.77l-.09,5-2.14,0,.07-3.92-4,0Z" transform="translate(0 -243.8)"/><rect class="cls-69" x="1342.15" y="447.04" width="22.67" height="2.14" transform="translate(79.57 844.5) rotate(-45)"/><path class="cls-69" d="M1334.26,452.8v0l.33-5,2.26,0v3.91l4,0,0,2.14-5.06,0a1.74,1.74,0,0,1-1-.31C1334.61,453.35,1334.26,453.08,1334.26,452.8Z" transform="translate(0 -243.8)"/><rect class="cls-69" x="1332.49" y="443.72" width="22.67" height="2.14" transform="translate(79.06 836.64) rotate(-45)"/></g></g></g></svg>
