<svg xmlns="http://www.w3.org/2000/svg" xmlns:xlink="http://www.w3.org/1999/xlink" viewBox="0 0 2007.28 674.36"><defs><style>.cls-1,.cls-57,.cls-61,.cls-66{fill:none;}.cls-2{isolation:isolate;}.cls-3{clip-path:url(#clip-path);}.cls-32,.cls-33,.cls-4,.cls-5{opacity:0.45;}.cls-4{fill:url(#linear-gradient);}.cls-5{fill:url(#linear-gradient-2);}.cls-6{fill:url(#linear-gradient-3);}.cls-7{fill:url(#linear-gradient-4);}.cls-8{fill:#ffd7cf;}.cls-45,.cls-54,.cls-59,.cls-62,.cls-9{mix-blend-mode:multiply;}.cls-9{fill:url(#linear-gradient-5);}.cls-10{fill:#21283a;}.cls-11{fill:url(#linear-gradient-6);}.cls-12{fill:url(#linear-gradient-7);}.cls-13{fill:#6285bc;}.cls-14{fill:#4568af;}.cls-15{fill:url(#linear-gradient-8);}.cls-16{fill:url(#linear-gradient-9);}.cls-17{fill:url(#linear-gradient-10);}.cls-18{fill:#ffd6cf;}.cls-19{fill:url(#linear-gradient-11);}.cls-20{fill:#ea5ca0;}.cls-21{fill:url(#linear-gradient-12);}.cls-22{fill:url(#linear-gradient-13);}.cls-23{fill:url(#linear-gradient-14);}.cls-24{fill:url(#linear-gradient-15);}.cls-25{fill:url(#linear-gradient-16);}.cls-26{fill:#ff65a7;}.cls-27{fill:url(#linear-gradient-17);}.cls-28{fill:#8ec2fe;}.cls-29{fill:url(#linear-gradient-18);}.cls-30{fill:url(#linear-gradient-19);}.cls-31{fill:url(#linear-gradient-20);}.cls-32{fill:url(#linear-gradient-21);}.cls-33{fill:url(#linear-gradient-22);}.cls-34{fill:url(#linear-gradient-23);}.cls-35{fill:#81b7fb;}.cls-36{fill:#4d8bd7;}.cls-37{fill:#f1f2ff;}.cls-38{fill:#d1ddff;}.cls-39{fill:#fff;}.cls-40{fill:#d7ddfb;}.cls-41{fill:#8592c8;}.cls-42{fill:#83b9fd;}.cls-43{fill:#4b8dd9;}.cls-44{fill:#393f5c;}.cls-45,.cls-59{fill:#c8c8c8;}.cls-45,.cls-62{opacity:0.44;}.cls-46{fill:#1f2e3b;}.cls-47{fill:#c6cbe9;}.cls-48{fill:#6e8adb;}.cls-49{fill:#ebb28b;}.cls-50{fill:#f2f7ff;}.cls-51{fill:#f0bc99;}.cls-52{fill:#f0af74;}.cls-53{fill:#4f5977;}.cls-54{fill:#b8b8b8;opacity:0.12;}.cls-55{fill:#edb48d;}.cls-56{fill:#f2be9b;}.cls-57,.cls-61{stroke:#fff;}.cls-57{stroke-miterlimit:10;}.cls-58{fill:#8794ca;}.cls-59{opacity:0.23;}.cls-60{fill:#ebedfd;}.cls-61{stroke-linecap:round;stroke-width:2.21px;}.cls-61,.cls-66{stroke-linejoin:round;}.cls-62{fill:#cacaca;}.cls-63{fill:#c8cdeb;}.cls-64{fill:#f2b173;}.cls-65{fill:#283042;}.cls-66{stroke:#f2be9b;stroke-width:4.02px;}.cls-67{fill:#eceeff;}.cls-68{fill:#eaedfd;}.cls-69{fill:#fed65c;}.cls-70{fill:#feb834;}.cls-71{fill:#264463;}</style><clipPath id="clip-path" transform="translate(0 -179.56)"><rect class="cls-1" x="87.17" width="1055.21" height="821.15"/></clipPath><linearGradient id="linear-gradient" x1="303.07" y1="778.91" x2="303.07" y2="555.92" gradientUnits="userSpaceOnUse"><stop offset="0" stop-color="#fff"/><stop offset="0.15" stop-color="#f1f6fb"/><stop offset="0.42" stop-color="#deeaf7"/><stop offset="0.7" stop-color="#d3e3f4"/><stop offset="1" stop-color="#cfe1f3"/></linearGradient><linearGradient id="linear-gradient-2" x1="879.62" y1="768.56" x2="879.62" y2="514.81" xlink:href="#linear-gradient"/><linearGradient id="linear-gradient-3" x1="500.2" y1="466.27" x2="542.46" y2="480.13" gradientUnits="userSpaceOnUse"><stop offset="0" stop-color="#343a44"/><stop offset="0.3" stop-color="#232d3e"/><stop offset="0.64" stop-color="#182439"/><stop offset="1" stop-color="#142138"/></linearGradient><linearGradient id="linear-gradient-4" x1="525.7" y1="472.03" x2="589.53" y2="472.03" xlink:href="#linear-gradient-3"/><linearGradient id="linear-gradient-5" x1="503.47" y1="343.53" x2="485.86" y2="317.8" gradientUnits="userSpaceOnUse"><stop offset="0" stop-color="#fff" stop-opacity="0"/><stop offset="0.24" stop-color="#f7f3f4" stop-opacity="0.22"/><stop offset="0.77" stop-color="#e1d6da" stop-opacity="0.76"/><stop offset="0.99" stop-color="#d8c9ce"/></linearGradient><linearGradient id="linear-gradient-6" x1="475.9" y1="366.4" x2="540.34" y2="366.4" xlink:href="#linear-gradient"/><linearGradient id="linear-gradient-7" x1="400.46" y1="400.03" x2="400.46" y2="416.97" xlink:href="#linear-gradient"/><linearGradient id="linear-gradient-8" x1="556.18" y1="557.83" x2="590.42" y2="557.83" xlink:href="#linear-gradient-3"/><linearGradient id="linear-gradient-9" x1="547.88" y1="625.62" x2="584.78" y2="625.62" gradientTransform="matrix(0.98, 0.17, -0.17, 0.98, 66.16, -152.17)" xlink:href="#linear-gradient-3"/><linearGradient id="linear-gradient-10" x1="579.92" y1="396.17" x2="595.53" y2="396.17" xlink:href="#linear-gradient"/><linearGradient id="linear-gradient-11" x1="1374.27" y1="-234.7" x2="1389.88" y2="-234.7" gradientTransform="matrix(-0.38, 0.93, 0.93, 0.38, 976.51, -678.19)" xlink:href="#linear-gradient"/><linearGradient id="linear-gradient-12" x1="337.25" y1="594.55" x2="337.25" y2="615.07" xlink:href="#linear-gradient-3"/><linearGradient id="linear-gradient-13" x1="302.93" y1="536.48" x2="248.45" y2="553.56" xlink:href="#linear-gradient-3"/><linearGradient id="linear-gradient-14" x1="200.75" y1="637.57" x2="200.75" y2="667.58" xlink:href="#linear-gradient-3"/><linearGradient id="linear-gradient-15" x1="260.96" y1="497.11" x2="204.05" y2="580.04" xlink:href="#linear-gradient-3"/><linearGradient id="linear-gradient-16" x1="269.35" y1="398.37" x2="265.04" y2="407.29" xlink:href="#linear-gradient"/><linearGradient id="linear-gradient-17" x1="367.35" y1="402.75" x2="360.83" y2="416.25" xlink:href="#linear-gradient"/><linearGradient id="linear-gradient-18" x1="395.74" y1="361.82" x2="395.74" y2="561.32" gradientUnits="userSpaceOnUse"><stop offset="0" stop-color="#eef4fb"/><stop offset="0.31" stop-color="#e3edf8"/><stop offset="1" stop-color="#cfe1f3"/></linearGradient><linearGradient id="linear-gradient-19" x1="557.76" y1="307.28" x2="557.76" y2="582.08" xlink:href="#linear-gradient-18"/><linearGradient id="linear-gradient-20" x1="238.37" y1="440.53" x2="238.37" y2="559.13" xlink:href="#linear-gradient-18"/><linearGradient id="linear-gradient-21" x1="1512.62" y1="744.85" x2="1512.62" y2="518.45" gradientTransform="matrix(-1, 0, 0, 1, 2937.23, 0)" xlink:href="#linear-gradient"/><linearGradient id="linear-gradient-22" x1="817.84" y1="750.32" x2="817.84" y2="540.18" gradientTransform="translate(1040)" xlink:href="#linear-gradient"/><linearGradient id="linear-gradient-23" x1="1047.23" y1="531.18" x2="1047.23" y2="632.17" xlink:href="#linear-gradient"/></defs><title>BlueSky Home</title><g class="cls-2"><g id="Layer_2" data-name="Layer 2"><g id="Layer_1-2" data-name="Layer 1"><g class="cls-3"><path class="cls-4" d="M0,576.22v277.7H606.14V563.16h-2.23V542.27h-5.08V540.7h-2.07v-2.82H593V526.65h-2.43l-1.34-25.09h-1.07l-1.35,25.09h-2.42v11.23h-.78v-6.57L555.9,618.45l-26.44.4v81.63l-11.26-117h-7.57v3.13h-3.28v-27.3H505l-1.31-37.25h-1l-1.31,37.25H498.9v27.3h-13v6.84l-3-4.05V515.11H463.8V494.82h-4.74v20.29H448.9V645.73L423.1,634.2l-1.9-153.82H399.73v-31.2H388.85V552.8h-5.56V537.42H372.82V523.84h-5.56v13.58h-3.93V523.58h-3.19v-1.43h-1.3v-2.58h-2.39v-19.3H351v19.3h-2.39v2.58h-1.3v1.43h-3.19v13.84h-3.47v25.27h-10v43.88h-6v11.79H323V598h-2l-1.1-17.83H319L317.93,598h-2v20.41h-3.12V674H304.5V575L303,570.18v-4.91h-1.49l-2.87-52.45-5.22.16V486.45h-7.54v26.76l-7.83.23-4,49.45-7.5,54.72h-7.84V572.28h-1.53l-.84-16.87h-.67l-.84,16.87h-1.54V575h-7.2V526.34h-.8V575h-4.19V542.28H218.59V575h-3.78v50.4h-6.26V560.56h-2.42V548l-16.06-4.48V682h-4.69V555.25h-8.82V543.8h-4.69v11.45H159.26V687H148.45V550.39h-11.1V525.68H136l-.74-20.93h-.59L134,525.68h-1.34v24.71H110.22v94.7H94.43V514.54H79.37v-33L36.24,492.4l.18,57H18v26.84Zm589.24-48.16h1.15v9h-1.15Zm-2.3,0h1.15v9h-1.15Zm-83.25,34.76h1.12v23.82h-1.12Zm-2.25,0h1.12v23.82h-1.12Zm-39.69-49.76h.63v2.05h-.63Zm-1.27,0h.64v2.05h-.64Zm-106.37-11.5h.72v17.3h-.72Zm-1.45,0h.72v17.3h-.72Zm-32.72,97.76h.94v18.29h-.94Zm-1.89,0H319v18.29h-.95Zm-27.86-92.84h1V513l-1,0Zm-2,0h1v6.63l-1,0ZM256.4,573.57h.73V575h-.73Zm-1.44,0h.72V575H255ZM135.29,543.92h.63v6.47h-.63Zm-1.26,0h.63v6.47H134Z" transform="translate(0 -179.56)"/><path class="cls-5" d="M1147.32,631.3v10.76H1135V446.52L1109.1,453V561.77h-5.34v10.79h-10V691.93h-5.34V561.55l-78.15,4.22v11.79h-2.76v61.05h-7.12V591.14h-4.3v-30.8H970.39v30.8h-4.77V545.32h-.91v45.82h-8.2V588.6h-1.74l-1-15.89h-.76l-1,15.89h-1.74v42.7h-8.93l-7.1-51.54-4.54-46.59L906.19,533v-25.2h-8.58v25l-5.94-.15L888.41,582h-1.7v4.62l-1.66,4.52v93.29h-9.46V632h-3.54V612.79h-2.28L868.52,596h-1l-1.26,16.81H864V632h-1.85V620.9h-6.86V579.56H843.86v-23.8h-3.94v-13h-3.64v-1.35H834.8V539h-2.71V520.77h-6.16V539h-2.71v2.42h-1.48v1.35H818.1v13h-4.47V543H807.3v12.79H795.39v14.49h-6.33V472.63H776.68V502H752.25l-2.17,144.91-29.36,10.86v-123H709.16V515.63h-5.39v19.12H682v70l-3.41,3.82v-6.45H663.82V576.41h-2.71l-1.5-35.09h-1.19l-1.49,35.09h-2.71v25.72h-3.74v-3h-8.62L629.05,709.37v-76.9l-29.65-.37V853.92h560.43V631.3ZM658.38,602.13H657.1V579.69h1.28Zm2.56,0h-1.28V579.69h1.28Zm45.17-67.38h-.72v-1.94h.72Zm1.43,0h-.72v-1.94h.72Zm121.06,3.53h-.82V522h.82Zm1.64,0h-.82V522h.82Zm37.24,93H866.4V614.07h1.08Zm2.15,0h-1.08V614.07h1.08Zm31.7-98.47-1.15,0v-6.18h1.15Zm2.29.06-1.15,0v-6.24h1.15ZM953,591.14h-.82v-1.33H953Zm1.64,0h-.82v-1.33h.82Z" transform="translate(0 -179.56)"/><path class="cls-6" d="M506,420.7c-1.73,7.59-8.24,53.18-10.19,59.41s1.22,19.23,5.1,31.7,11.15,41.34,11.15,41.34,15.07,3.41,20.79,0c0,0-2.63-20-6-41.34s-6.48-21.82-2.33-35.34,12-35.82,16.12-45.19-.35-34.83-.35-34.83S511,408.81,508.12,411.69,507,416.42,506,420.7Z" transform="translate(0 -179.56)"/><path class="cls-7" d="M525.71,400.62c-.27,4.49,6.31,25.76,9.08,29.68s13.51,37.86,17,52.76,8.66,26.33,11.08,36,8.32,33.6,8.32,33.6,18.36,1,18.36,0-2.08-12.82-4.16-30.83-10-34.3-11.08-49.54,0-52.66-8.66-72.75S525.71,400.62,525.71,400.62Z" transform="translate(0 -179.56)"/><path class="cls-8" d="M483.57,311.92s7.11,8.42,11.17,10.79,21,0,21,0-5.76,16.93-13.55,21.67-22.35,3.39-22.35,3.39,2.38-6.39,2-11.85-9.46-9.48-9.46-9.48Z" transform="translate(0 -179.56)"/><path class="cls-9" d="M483.57,311.92s7.11,8.42,11.17,10.79,21,0,21,0-5.76,16.93-13.55,21.67-22.35,3.39-22.35,3.39,2.38-6.39,2-11.85-9.46-9.48-9.46-9.48Z" transform="translate(0 -179.56)"/><path class="cls-8" d="M455.8,311.92s3.73,7.19,4.57,8.37,2.2,3.9,3.39,5.59,7.62,6.77,10,7.62,5.93-.51,7.79-3.05,4.06-7.79,5.42-10.83,0-11.18,0-11.18-.17-6.26-10-6.77a113.14,113.14,0,0,0-15.07,0Z" transform="translate(0 -179.56)"/><path class="cls-10" d="M455.8,311.92c1.09,1.07,2.37,1.6,6.1-.09s3.38-7.74,10.5-9.48c2.56-.63,3.72.77,4.4,4.78l.67,4,2,2.37s-.68-5.42,1.69-8.13,6.43,4.93,2.37,6.53,4.74,4.65,4.74,4.65,0-2,2.37-8.47-2.19-15.56-7.11-17.6c-6.89-2.86-7.45-1.7-7.45-1.7s-8.24-4.22-16.71,4C452,300,452.57,308.75,455.8,311.92Z" transform="translate(0 -179.56)"/><path class="cls-11" d="M479.71,337l.69-2.2s8,5.89,9.7,5.89c0,0,7.8-15.64,6.07-18.76a31,31,0,0,0,8-.39c5.75-.94,8.32,0,8.32,0s8.14,34.05,14,44.79S539,386.4,539,386.4l1.39,10.05s-4.16,7.79-15.94,11.52l-11.78,3.72s3.12-16.63-7.62-30.48-29.1-35.34-29.1-35.34Z" transform="translate(0 -179.56)"/><path class="cls-8" d="M363.26,405.11c1.83-.51,3.87-.92,5.39-2.24s3.38-2.74,5.3-2.44,4.05,1.38,3.64,2.32-4.87,2.05-5.69,3.37-2.54,3.36-2.54,5.39a28.57,28.57,0,0,1-1.4,6.2,10.49,10.49,0,0,0-5.71-.74C359.2,417.51,363.26,405.11,363.26,405.11Z" transform="translate(0 -179.56)"/><path class="cls-8" d="M367,406.23c3.17-.82,10-1.22,11.71,0s6,6,6.61,7.41,2.44,1.05,1.52,2.35-1.83,4.57-3.15,6a4,4,0,0,1-4.92,1c-1.89-.89-5.44-1.5-7.48-2.92s-4.37-2.65-6.4-2.34a13.38,13.38,0,0,1-3.78,0s1.95-8.84,1.44-9.86S367,406.23,367,406.23Z" transform="translate(0 -179.56)"/><path class="cls-8" d="M388.27,401.64c-2.67.18-11,.4-13.42,0s-4.47,2.65-6.3,4.28,1,2.72,2.84,2.58,4.27-2.91,5.9-2.44,3.66,3.89,5.49,6.15,2,3.9,4.06,3.78,3.05-2.39,7.12-4.3a93.61,93.61,0,0,0,9.55-5.57l-5.06-8.07S392.35,401.38,388.27,401.64Z" transform="translate(0 -179.56)"/><path class="cls-12" d="M397.41,400c-3.25.61-9.14,1.61-9.14,1.61s1.62,6.68,2,10.05a30.93,30.93,0,0,0,1,5.28s7.53-1.7,11.39-3.94,10-9.3,10-9.3Z" transform="translate(0 -179.56)"/><path class="cls-13" d="M471.05,348c-3.13,3.38-15.08,16.93-24.53,25.91s-16.58,11.47-29.8,17c-16.36,6.89-24.27,9.13-24.27,9.13s3.85,10.72,5.57,16c0,0,28.24-6.32,41.93-12s46.79-34.31,46.79-34.31Z" transform="translate(0 -179.56)"/><path class="cls-14" d="M500.15,321.23s2.08,31,1.56,37.8,8.31,17.15,12.47,26.51,15.59,26.12,20.27,26.57,26.5-.42,35.33-8.39c0,0-7.79-12.82-16.63-29.1-8.94-16.47-14.55-27-18.7-37.64s-16.63-18.43-16.63-18.43S508.11,318.55,500.15,321.23Z" transform="translate(0 -179.56)"/><path class="cls-14" d="M479.71,337a108.56,108.56,0,0,0,11.78,15.47c7.27,8,10.84,10.81,10.84,10.81S513,376.7,516.43,381.9s6.37,9,6.3,13.35,1.67,12.72-4.22,21.29c0,0-.35,3.81-12.47,4.16A180.45,180.45,0,0,0,507.77,402c.34-11.09-4.78-10.74-11.74-17.67s-14.59-13.85-19.09-19.74S471.05,348,471.05,348,473.13,340.21,479.71,337Z" transform="translate(0 -179.56)"/><path class="cls-15" d="M573.4,545.42a21.94,21.94,0,0,1-9.27,13.33c-6.51,4.35-9.72,8.77-6.94,11.49,0,0,32.58.3,33.12-3.77.87-6.58-3.48-21.05-3.48-21.05Z" transform="translate(0 -179.56)"/><path class="cls-16" d="M517.62,549.1c-4,1.59-5,4.84-11.79,11.47s-11.45,6.93-9.19,10.09,27.14.37,27.14.37,11-1.61,10.72-8.24a22.71,22.71,0,0,0-3.65-11.37Z" transform="translate(0 -179.56)"/><path class="cls-8" d="M582.17,399.74a24.86,24.86,0,0,1,4.13,8.71,15.19,15.19,0,0,0,2.29,5.89c.69.77,3.9,1.23,3.9,1.23s.69,2.52,2.3,2.75,1.37-.23,3.21,0,2.06-.92,3.9-1.61,1.6-.61,2.75-2.37.46-2.61-1.6-5.28a67.54,67.54,0,0,0-7.35-8.18c-3.21-3.06-6.46-9.61-6.46-9.61Z" transform="translate(0 -179.56)"/><path class="cls-17" d="M579.92,396l4.13,8.72a11.34,11.34,0,0,0,11.48-5.5L587,387.52Z" transform="translate(0 -179.56)"/><path class="cls-13" d="M517.82,318.55s15.59,3.59,28.06,14,23.38,22.35,27,26,20.79,36.55,20.79,36.55-5.2,2.43-13,6.58c0,0-9.36-10.74-20.79-29.55-5.18-8.52-27-18.6-39.25-24.14S501.19,322.75,517.82,318.55Z" transform="translate(0 -179.56)"/><path class="cls-18" d="M275.45,371.76c2.54-1.27,15.4-2.79,16.07-.76a27.77,27.77,0,0,1,1.06,6.6,9.45,9.45,0,0,0,.89,4.18c.63,1,2.41,2,2,2.92s-1.78,1.4-1.78,2.41,0,1.4-.38,1.9.38,1,.13,1.78.76,3.3.5,4.69-2.41,2.79-6.85,3.43-6.34,3.93-8.75,7.48-5.64,14.47-5.64,14.47L253.94,410.2s5.53-8,6.16-11.93,2.16-11.16,2.16-11.16Z" transform="translate(0 -179.56)"/><path class="cls-8" d="M240.92,508a24.66,24.66,0,0,0,6.5,7.12,15.39,15.39,0,0,1,4.58,4.36c.44.93-.35,4.07-.35,4.07s2.08,1.6,1.68,3.17-.73,1.19-1.22,3-1.63,1.56-3,3-1.18,1.26-3.24,1.65-2.59-.56-4.28-3.49a67,67,0,0,1-4.78-9.89c-1.62-4.13-6.45-9.63-6.45-9.63Z" transform="translate(0 -179.56)"/><path class="cls-19" d="M238.3,504.53l6.5,7.13a11.32,11.32,0,0,1-9.43,8.54l-7.59-12.34Z" transform="translate(0 -179.56)"/><path class="cls-20" d="M250.66,406.46s-9.52,5.1-20.42,17.13-20,26.86-20.91,31.93c-3.6,20.75,21.51,61.67,21.51,61.67s4.35-3.74,11.34-9.14c0,0-6.86-26.69-5.89-40.9.68-10,13.85-27.3,25.15-34.49S267.71,408.3,250.66,406.46Z" transform="translate(0 -179.56)"/><path class="cls-10" d="M266.15,364.57c-8.8-.34-11.84,2.71-12.18,11.84s2,9.6,3.34,12.35c3.29,6.67,2.37,11.07,2.37,11.07s2.75,1.62,8.5.94,6.77-4.4,8.79-6.09a26.87,26.87,0,0,0,3.39-3.38s-3.39-2-4.06-5.42,2-4.93,4.06-2.63l2,2.3s2,.07,1.35-3.86,0-4.94,1.69-7,6.09-3.72,6.09-3.72-3.72-8.46-11.16-9.81S266.15,364.57,266.15,364.57Z" transform="translate(0 -179.56)"/><path class="cls-21" d="M318.24,597.9c-1.26,4.08,1.52,11.8,2.44,14.94s4.27,2.14,12.5,1.83,19.82-.61,22.56-1.22-1.77-7.83-5.18-8.84c-5.59-1.65-12-4.37-13.42-7.32s-6.4-2.74-6.4-2.74Z" transform="translate(0 -179.56)"/><path class="cls-22" d="M229.52,485.12c-7,6.21-7.27,18.71-3.11,30.14s8.73,13.51,21.42,14,42.74,17,44.68,21c9.13,18.78,26.91,53.85,26.91,53.85s8.32,3.64,18.71-5.2c0,0-6.48-22.43-12.87-41.78-7.94-24-11.72-28.1-19.64-35.86-4.82-4.73-32.47-25.25-43.73-32.52S237.67,477.84,229.52,485.12Z" transform="translate(0 -179.56)"/><path class="cls-23" d="M192.68,637.57s-2.6,1-5.45,6-7.54,6.24-2.34,10.91,12.47,12.22,14.81,12.48,15.69,1.3,18.29,0-.51-4.45-4.06-8.06c-2.88-2.93-7.37-8.31-7.63-9.87s.41-8.06.41-8.06Z" transform="translate(0 -179.56)"/><path class="cls-24" d="M212.72,493.43c-4.34,8.14-.87,18.71,2.25,36.38s3.6,33.54,4.64,41.86-3.23,9.51-13.65,29.78a284.53,284.53,0,0,0-16.14,37.94S196.17,649,206,651.55c0,0,19.69-29.83,28-42.82a87.29,87.29,0,0,0,13-34.42c2.15-13.68,7.34-48,6.95-72.41s-17.66-17.3-24.42-16.78S218.26,483,212.72,493.43Z" transform="translate(0 -179.56)"/><path class="cls-25" d="M253.94,403.73s2-4.11,2.2-4.72,3.51-.51,9.76,0,12.47,7.38,12.47,7.38l-8.81,5.43Z" transform="translate(0 -179.56)"/><path class="cls-26" d="M263.28,401.53c5,.27,13.16,4.85,14.9,6.59s8.86,8.15,7.11,23.91c-1.32,12-8.31,32.46-9.63,40-1.49,8.43-4.76,21.75-9.26,24.52s-5.41,6-20.45,5.54c-11.3-.33-33.23-8.66-33.23-8.66s2.92-8.6,6.19-19.05c8.78-28,26.83-63.74,32.15-71.91C252.19,400.73,259.08,401.31,263.28,401.53Z" transform="translate(0 -179.56)"/><path class="cls-27" d="M359.4,405.45l5.88-1.48a11.79,11.79,0,0,1,2.37,10.23c-1.41,6.19-1.41,3.76-1.41,3.76l-5.71,1.7Z" transform="translate(0 -179.56)"/><path class="cls-20" d="M269.61,427.59c4.07,1.62,5.63,1.85,21.91,2.19s18.78,3.36,29.67,2.16c13.55-1.5,41.29-9.53,41.29-9.53s2.5-11.9-1.37-18.37c0,0-37.05,8.56-47.64,6.67s-29.74-5.08-37.22-6.27-15.79.39-15.23,9.71C261.35,419.69,264.13,425.42,269.61,427.59Z" transform="translate(0 -179.56)"/><path class="cls-8" d="M368,420.86c2.73,1.78,6.69,3.35,8.31,3.35s3.86-2.44,4.47-3.35-.71-1.52-1.52-1.63-.71-2.38-2.13-2.26-.95-1.06-2.66-1-1-.82-2.63-.92-2.6,1.52-3.84,2.64S366.64,420,368,420.86Z" transform="translate(0 -179.56)"/><rect class="cls-28" x="313.67" y="433.68" width="98.18" height="125.06"/><rect class="cls-29" x="346.65" y="433.68" width="98.18" height="125.06"/><rect class="cls-28" x="475.69" y="386.48" width="98.18" height="172.26"/><rect class="cls-30" x="508.67" y="386.48" width="98.18" height="172.26"/><rect class="cls-28" x="156.3" y="484.4" width="98.18" height="74.35"/><rect class="cls-31" x="189.28" y="484.4" width="98.18" height="74.35"/></g><path class="cls-32" d="M1144.4,642.3V821h560.43V643.1l-29.65.37v76.9l-12.81-110.19h-8.62v3H1650V587.41h-2.71l-1.49-35.09h-1.19l-1.5,35.09h-2.71v25.72h-14.78v6.45l-3.41-3.82v-70h-21.76V526.63h-5.39v19.12h-11.56v123l-29.36-10.86L1552,513h-24.43V483.63h-12.38v97.62h-6.33V566.76h-11.91V554h-6.32v12.79h-4.48v-13h-3.64v-1.35H1481V550h-2.72V531.77h-6.16V550h-2.71v2.42H1468v1.35h-3.64v13h-3.94v23.8H1449V631.9h-6.86V643h-1.85V623.79H1438L1436.71,607h-1l-1.26,16.81h-2.27V643h-3.55v52.42h-9.46V602.14l-1.66-4.52V593h-1.7l-3.26-49.42-5.94.15v-25H1398V544l-23.59.22-4.54,46.59-7.1,51.54h-8.93V599.6h-1.74l-1-15.89h-.76l-1,15.89h-1.74v2.54h-8.2V556.32h-.91v45.82h-4.77v-30.8h-25.66v30.8h-4.3v47.47h-7.12V588.56H1294V576.77l-78.15-4.22V702.93h-5.34V583.56h-10V572.77h-5.34V464l-25.92-6.43V653.06h-12.3V642.3Zm501.45-51.61h1.28v22.44h-1.28Zm-2.56,0h1.28v22.44h-1.28Zm-45.16-46.88h.71v1.94h-.71Zm-1.44,0h.72v1.94h-.72ZM1475.63,533h.82v16.3h-.82Zm-1.64,0h.82v16.3H1474Zm-37.24,92.09h1.08V642.3h-1.08Zm-2.15,0h1.08V642.3h-1.08Zm-31.7-87.45h1.15v6.18l-1.15,0Zm-2.29,0h1.15v6.24l-1.15,0Zm-49.4,63.19h.82v1.33h-.82Zm-1.64,0h.82v1.33h-.82Z" transform="translate(0 -179.56)"/><path class="cls-33" d="M2006.61,518.75v25l-5.94-.15L1997.41,593h-1.7v4.62l-1.66,4.52v93.29h-9.46V643h-3.54V623.79h-2.28L1977.52,607h-1l-1.26,16.81H1973V643h-1.85V631.9h-6.86V590.56h-11.42v-23.8h-3.94v-13h-3.64v-1.35h-1.48V550h-2.71V531.77h-6.16V550h-2.71v2.42h-1.48v1.35h-3.64v13h-4.47V554h-6.33v12.79h-11.91v14.49h-6.33V483.63h-12.38V513h-24.43l-2.17,144.91-29.36,10.86v-123h-11.56V526.63h-5.39v19.12H1791v70l-3.41,3.82v-6.45h-14.78V587.41h-2.71l-1.5-35.09h-1.19l-1.49,35.09h-2.71v25.72h-3.74v-3h-8.62l-12.81,110.19v-76.9l-29.65-.37V821h298.88m-239.9-207.87h-1.28V590.69h1.28Zm2.56,0h-1.28V590.69h1.28Zm45.17-67.38h-.72v-1.94h.72Zm1.43,0h-.72v-1.94h.72Zm121.06,3.53h-.82V533h.82Zm1.64,0h-.82V533h.82Zm37.24,93h-1.08V625.07h1.08Zm2.15,0h-1.08V625.07h1.08Z" transform="translate(0 -179.56)"/><rect class="cls-34" x="87.17" y="558.75" width="1920.11" height="82.84"/><path class="cls-35" d="M652.18,720.11c-.51,0-13.39-1.51-14-13.49s7.62-14.94,5.46-28.28-7.83-17.17,4.87-26.9c0,0,5.67-3.92,5.93-9.41.32-6.58,11.68-14.22,19.3-9.83s5.82,11.17-.7,22.14-.24,12.89,1,16.44,4.16,7.27-2.5,15.75,1.27,18.83-4.4,27C667.19,713.48,662.22,719.5,652.18,720.11Z" transform="translate(0 -179.56)"/><path class="cls-36" d="M654.2,738.47a.55.55,0,0,0,.4-.62c-6.92-36.57,7.18-86.43,7.32-86.93a.54.54,0,0,0-.37-.67.54.54,0,0,0-.67.38c-.15.5-14.32,50.61-7.35,87.42a.54.54,0,0,0,.63.43Z" transform="translate(0 -179.56)"/><path class="cls-36" d="M657.08,670.5l.09,0a.53.53,0,0,0,.28-.71,73,73,0,0,1-4.09-12,.53.53,0,0,0-.64-.41.54.54,0,0,0-.42.64,75.15,75.15,0,0,0,4.15,12.26A.55.55,0,0,0,657.08,670.5Z" transform="translate(0 -179.56)"/><path class="cls-36" d="M655.22,681.56a.65.65,0,0,0,.22-.11c2.73-2.26,9.61-6.52,9.68-6.56a.55.55,0,0,0,.17-.75.53.53,0,0,0-.74-.18c-.29.18-7,4.34-9.81,6.65a.55.55,0,0,0-.07.77A.56.56,0,0,0,655.22,681.56Z" transform="translate(0 -179.56)"/><path class="cls-36" d="M653.68,692.33l.11-.05a.54.54,0,0,0,.24-.73L650.2,684a.54.54,0,0,0-1,.49l3.83,7.58A.55.55,0,0,0,653.68,692.33Z" transform="translate(0 -179.56)"/><path class="cls-35" d="M684.32,728.33c-.25,0-6.66-.76-7-6.72s3.79-7.43,2.72-14.06-3.9-8.54,2.42-13.39c0,0,2.82-1.95,3-4.68.16-3.27,5.81-7.07,9.6-4.89s2.9,5.56-.35,11-.12,6.41.51,8.18,2.07,3.61-1.25,7.83.64,9.37-2.18,13.41A10.92,10.92,0,0,1,684.32,728.33Z" transform="translate(0 -179.56)"/><path class="cls-36" d="M685.32,737.46a.27.27,0,0,0,.2-.31c-3.44-18.19,3.57-43,3.65-43.24a.28.28,0,0,0-.19-.34.27.27,0,0,0-.33.19c-.08.25-7.13,25.17-3.66,43.49a.27.27,0,0,0,.31.21Z" transform="translate(0 -179.56)"/><path class="cls-36" d="M686.76,703.64h0a.27.27,0,0,0,.14-.36,35.19,35.19,0,0,1-2-6,.27.27,0,1,0-.53.11,37.76,37.76,0,0,0,2.06,6.1A.28.28,0,0,0,686.76,703.64Z" transform="translate(0 -179.56)"/><path class="cls-36" d="M685.83,709.15a.24.24,0,0,0,.11-.06c1.36-1.12,4.78-3.24,4.81-3.26a.27.27,0,1,0-.28-.46c-.14.09-3.49,2.16-4.88,3.3a.28.28,0,0,0,0,.39A.28.28,0,0,0,685.83,709.15Z" transform="translate(0 -179.56)"/><path class="cls-36" d="M685.06,714.5l.06,0a.27.27,0,0,0,.12-.36l-1.91-3.77a.27.27,0,0,0-.36-.12.28.28,0,0,0-.12.37l1.91,3.76A.26.26,0,0,0,685.06,714.5Z" transform="translate(0 -179.56)"/><path class="cls-35" d="M1582.18,720.11c-.51,0-13.39-1.51-14-13.49s7.62-14.94,5.46-28.28-7.83-17.17,4.87-26.9c0,0,5.67-3.92,5.93-9.41.32-6.58,11.68-14.22,19.3-9.83s5.82,11.17-.7,22.14-.24,12.89,1,16.44,4.16,7.27-2.5,15.75,1.27,18.83-4.4,27C1597.19,713.48,1592.22,719.5,1582.18,720.11Z" transform="translate(0 -179.56)"/><path class="cls-36" d="M1584.2,738.47a.55.55,0,0,0,.4-.62c-6.92-36.57,7.18-86.43,7.32-86.93a.54.54,0,0,0-.37-.67.54.54,0,0,0-.67.38c-.15.5-14.32,50.61-7.35,87.42a.54.54,0,0,0,.63.43Z" transform="translate(0 -179.56)"/><path class="cls-36" d="M1587.08,670.5l.09,0a.53.53,0,0,0,.28-.71,73,73,0,0,1-4.09-12,.53.53,0,0,0-.64-.41.54.54,0,0,0-.42.64,75.15,75.15,0,0,0,4.15,12.26A.55.55,0,0,0,1587.08,670.5Z" transform="translate(0 -179.56)"/><path class="cls-36" d="M1585.22,681.56a.65.65,0,0,0,.22-.11c2.73-2.26,9.61-6.52,9.68-6.56a.55.55,0,0,0,.17-.75.53.53,0,0,0-.74-.18c-.29.18-7,4.34-9.81,6.65a.55.55,0,0,0-.07.77A.56.56,0,0,0,1585.22,681.56Z" transform="translate(0 -179.56)"/><path class="cls-36" d="M1583.68,692.33l.11-.05a.54.54,0,0,0,.24-.73L1580.2,684a.54.54,0,1,0-1,.49l3.83,7.58A.55.55,0,0,0,1583.68,692.33Z" transform="translate(0 -179.56)"/><path class="cls-35" d="M1614.32,728.33c-.25,0-6.66-.76-7-6.72s3.79-7.43,2.72-14.06-3.9-8.54,2.42-13.39c0,0,2.82-1.95,3-4.68.16-3.27,5.81-7.07,9.6-4.89s2.9,5.56-.35,11-.12,6.41.51,8.18,2.07,3.61-1.25,7.83.64,9.37-2.18,13.41A10.92,10.92,0,0,1,1614.32,728.33Z" transform="translate(0 -179.56)"/><path class="cls-36" d="M1615.32,737.46a.27.27,0,0,0,.2-.31c-3.44-18.19,3.57-43,3.65-43.24a.28.28,0,0,0-.19-.34.27.27,0,0,0-.33.19c-.08.25-7.13,25.17-3.66,43.49a.27.27,0,0,0,.31.21Z" transform="translate(0 -179.56)"/><path class="cls-36" d="M1616.76,703.64h0a.27.27,0,0,0,.14-.36,35.19,35.19,0,0,1-2-6,.27.27,0,1,0-.53.11,37.76,37.76,0,0,0,2.06,6.1A.28.28,0,0,0,1616.76,703.64Z" transform="translate(0 -179.56)"/><path class="cls-36" d="M1615.83,709.15a.24.24,0,0,0,.11-.06c1.36-1.12,4.78-3.24,4.81-3.26a.27.27,0,0,0-.28-.46c-.14.09-3.49,2.16-4.88,3.3a.28.28,0,0,0,0,.39A.28.28,0,0,0,1615.83,709.15Z" transform="translate(0 -179.56)"/><path class="cls-36" d="M1615.06,714.5l.06,0a.27.27,0,0,0,.12-.36l-1.91-3.77a.27.27,0,0,0-.36-.12.28.28,0,0,0-.12.37l1.91,3.76A.26.26,0,0,0,1615.06,714.5Z" transform="translate(0 -179.56)"/><path class="cls-37" d="M1606.14,372.05l134.59.56a31.05,31.05,0,0,1,30.84,33.22l-21.86,310a30.55,30.55,0,0,1-30.48,28.41H1582.4a30.56,30.56,0,0,1-30.47-32.83l23.13-310.64A31,31,0,0,1,1606.14,372.05Z" transform="translate(0 -179.56)"/><path class="cls-28" d="M1606.14,372.05l134.59.56a31.05,31.05,0,0,1,30.84,33.22l-21.86,310a30.55,30.55,0,0,1-30.48,28.41H1582.4a30.56,30.56,0,0,1-30.47-32.83l23.13-310.64A31,31,0,0,1,1606.14,372.05Z" transform="translate(0 -179.56)"/><path class="cls-38" d="M1591,372.05l134.6.56a31,31,0,0,1,30.83,33.22l-21.85,310a30.56,30.56,0,0,1-30.48,28.41H1567.28a30.56,30.56,0,0,1-30.47-32.83l23.12-310.64A31,31,0,0,1,1591,372.05Z" transform="translate(0 -179.56)"/><polygon class="cls-39" points="1580.84 220.89 1734.76 220.89 1716.24 516.59 1561.74 517.75 1580.84 220.89"/><path class="cls-28" d="M1632.15,734.42a15.29,15.29,0,1,1,15.29-15.29A15.3,15.3,0,0,1,1632.15,734.42Zm0-28.42a13.14,13.14,0,1,0,13.14,13.13A13.14,13.14,0,0,0,1632.15,706Z" transform="translate(0 -179.56)"/><path class="cls-28" d="M1671.92,389.5H1646.1a2.62,2.62,0,0,1-2.62-2.62h0a2.62,2.62,0,0,1,2.62-2.62h25.82a2.61,2.61,0,0,1,2.61,2.62h0A2.62,2.62,0,0,1,1671.92,389.5Z" transform="translate(0 -179.56)"/><path class="cls-40" d="M1715.89,476.67H1591a5.69,5.69,0,0,1-5.69-6l1.68-33.89a5.68,5.68,0,0,1,5.68-5.4h125a5.69,5.69,0,0,1,5.68,6l-1.68,33.88A5.69,5.69,0,0,1,1715.89,476.67Z" transform="translate(0 -179.56)"/><path class="cls-28" d="M1681.42,476.78h34.48a5.66,5.66,0,0,0,5.65-5.38l1.7-34a5.66,5.66,0,0,0-5.65-5.94h-34.48a5.65,5.65,0,0,0-5.65,5.37l-1.7,34.06A5.65,5.65,0,0,0,1681.42,476.78Z" transform="translate(0 -179.56)"/><path class="cls-41" d="M1669.78,442.92H1598.7a.85.85,0,1,1,0-1.7h71.08a.85.85,0,1,1,0,1.7Z" transform="translate(0 -179.56)"/><path class="cls-41" d="M1669.22,454.26h-71.08a.85.85,0,0,1,0-1.7h71.08a.85.85,0,0,1,0,1.7Z" transform="translate(0 -179.56)"/><path class="cls-41" d="M1632.7,465.6h-35.12a.85.85,0,1,1,0-1.7h35.12a.85.85,0,0,1,0,1.7Z" transform="translate(0 -179.56)"/><path class="cls-40" d="M1711.47,540.73h-125a5.69,5.69,0,0,1-5.68-6l1.68-33.89a5.69,5.69,0,0,1,5.68-5.41h124.94a5.68,5.68,0,0,1,5.68,6l-1.67,33.89A5.68,5.68,0,0,1,1711.47,540.73Z" transform="translate(0 -179.56)"/><path class="cls-28" d="M1677,540.84h34.48a5.65,5.65,0,0,0,5.65-5.37l1.7-34.06a5.66,5.66,0,0,0-5.65-5.94h-34.48a5.66,5.66,0,0,0-5.65,5.38l-1.7,34A5.66,5.66,0,0,0,1677,540.84Z" transform="translate(0 -179.56)"/><path class="cls-41" d="M1665.36,507h-71.08a.85.85,0,1,1,0-1.69h71.08a.85.85,0,1,1,0,1.69Z" transform="translate(0 -179.56)"/><path class="cls-41" d="M1664.8,518.32h-71.08a.85.85,0,0,1,0-1.7h71.08a.85.85,0,1,1,0,1.7Z" transform="translate(0 -179.56)"/><path class="cls-41" d="M1628.27,529.66h-35.11a.85.85,0,0,1,0-1.7h35.11a.85.85,0,1,1,0,1.7Z" transform="translate(0 -179.56)"/><polygon class="cls-28" points="1580.84 220.89 1561.74 517.75 1558.62 517.75 1577.76 220.89 1580.84 220.89"/><path class="cls-39" d="M1711.74,455.23a14.15,14.15,0,1,1-13.14-15.09A14.15,14.15,0,0,1,1711.74,455.23Z" transform="translate(0 -179.56)"/><path class="cls-28" d="M1695.09,459.7a1.25,1.25,0,0,1-.8-.36l-4.75-4.67a1.27,1.27,0,1,1,1.78-1.81l3.94,3.88,9.06-7.3a1.27,1.27,0,0,1,1.6,2l-9.94,8A1.28,1.28,0,0,1,1695.09,459.7Z" transform="translate(0 -179.56)"/><path class="cls-39" d="M1708.41,519.3a14.14,14.14,0,1,1-13.13-15.09A14.14,14.14,0,0,1,1708.41,519.3Z" transform="translate(0 -179.56)"/><path class="cls-28" d="M1691.77,523.77a1.28,1.28,0,0,1-.81-.36l-4.75-4.67a1.27,1.27,0,0,1,1.78-1.82l4,3.88,9.06-7.29a1.27,1.27,0,1,1,1.59,2l-9.94,8A1.26,1.26,0,0,1,1691.77,523.77Z" transform="translate(0 -179.56)"/><path class="cls-42" d="M1416.85,634s-1.82-2.82-6.5-21.69-16.93-36.88-36-30.19-13.61,28.94-4.21,64.86c6.72,25.65-20.7,45.55,15.44,65.48,21.88,12.07,59.9-4.17,52.44-40.67a49.46,49.46,0,0,0-9.26-20.4A136.68,136.68,0,0,1,1416.85,634Z" transform="translate(0 -179.56)"/><path class="cls-43" d="M1401.74,746.56a.82.82,0,0,1-.64-.93c8.68-55.56-15-130.19-15.27-130.94a.82.82,0,1,1,1.56-.5c.25.75,24.08,75.75,15.33,131.7a.82.82,0,0,1-.93.68Z" transform="translate(0 -179.56)"/><path class="cls-43" d="M1394.09,644l-.14,0a.82.82,0,0,1-.45-1.07,110.82,110.82,0,0,0,5.59-18.39.82.82,0,1,1,1.62.29,112.44,112.44,0,0,1-5.69,18.72A.82.82,0,0,1,1394.09,644Z" transform="translate(0 -179.56)"/><path class="cls-43" d="M1397.43,660.64a.94.94,0,0,1-.32-.15c-4.24-3.29-14.84-9.39-14.95-9.45a.82.82,0,1,1,.82-1.42c.44.25,10.8,6.21,15.13,9.57a.81.81,0,0,1,.15,1.15A.84.84,0,0,1,1397.43,660.64Z" transform="translate(0 -179.56)"/><path class="cls-43" d="M1400.28,676.83l-.17-.06a.81.81,0,0,1-.39-1.09l5.42-11.62a.82.82,0,1,1,1.49.69l-5.42,11.63A.84.84,0,0,1,1400.28,676.83Z" transform="translate(0 -179.56)"/><polygon class="cls-44" points="1786.94 436.8 1782.19 455.7 1839.27 458.76 1837.34 435.07 1786.94 436.8"/><polygon class="cls-44" points="1810.39 449.1 1793.79 505.2 1794.12 589.94 1773.85 590.37 1769.92 503.91 1783.49 450.6 1810.39 449.1"/><polygon class="cls-45" points="1808.03 457.08 1794.86 455.83 1804.53 468.9 1808.03 457.08"/><polygon class="cls-44" points="1839.14 454.9 1842.98 507.54 1859.02 594.41 1838.97 598.53 1819.59 509.91 1812.9 449.21 1839.14 454.9"/><path class="cls-46" d="M1779.63,769.67l11-.07.28,15.81-31.38.21h0a5.61,5.61,0,0,1,4.32-5l15.54-3.8Z" transform="translate(0 -179.56)"/><rect class="cls-47" x="1759.58" y="785.51" width="31.38" height="2.44" transform="translate(-5.14 -167.86) rotate(-0.38)"/><path class="cls-39" d="M1787.34,776.21a2.41,2.41,0,1,1-2.43-2.39A2.4,2.4,0,0,1,1787.34,776.21Z" transform="translate(0 -179.56)"/><path class="cls-46" d="M1844.77,775.9l10.94-1.45L1858,790.1l-31.11,4.12h0a5.6,5.6,0,0,1,3.66-5.53l14.94-5.71Z" transform="translate(0 -179.56)"/><rect class="cls-47" x="1826.89" y="792.15" width="31.38" height="2.44" transform="translate(-88.25 69.34) rotate(-7.55)"/><path class="cls-39" d="M1853.24,781.42a2.41,2.41,0,1,1-2.71-2.07A2.43,2.43,0,0,1,1853.24,781.42Z" transform="translate(0 -179.56)"/><path class="cls-48" d="M1763.87,587.25l-.67-.07-51.54-7.66,2.5-16.85,46.18,6.86c9.18-13.94,23.22-30.26,23.22-30.26-.1.21.52.74,0,0l16.25,1.68c.72,4.11-2.85,4.14-28.25,42.5A8.53,8.53,0,0,1,1763.87,587.25Z" transform="translate(0 -179.56)"/><path class="cls-48" d="M1812.38,534.87l1.68.28a18.61,18.61,0,0,1,15.06,14l11.79,67.19c-25.08,13.67-56.82.15-56.82.15l-6.1-62.67a16.38,16.38,0,0,1,9-16.68h0Z" transform="translate(0 -179.56)"/><polygon class="cls-49" points="1806.72 361.28 1792.6 360.11 1794.9 328.05 1809.02 329.22 1806.72 361.28"/><path class="cls-49" d="M1789.13,536.89l21.58-1.88s-.16,12.6-13.17,12.42C1785.64,547.26,1789.13,536.89,1789.13,536.89Z" transform="translate(0 -179.56)"/><path class="cls-39" d="M1712.49,571.05a9.16,9.16,0,1,1-7.5-10.55A9.15,9.15,0,0,1,1712.49,571.05Z" transform="translate(0 -179.56)"/><path class="cls-39" d="M1717.52,576.55l-9.39-1.59a4.54,4.54,0,0,1-3.71-5.22h0a4.54,4.54,0,0,1,5.22-3.7l9.39,1.59a4.53,4.53,0,0,1,3.7,5.21h0A4.54,4.54,0,0,1,1717.52,576.55Z" transform="translate(0 -179.56)"/><circle class="cls-26" cx="1712.5" cy="577.14" r="26.33" transform="translate(443.07 1683.77) rotate(-64)"/><path class="cls-50" d="M1707.79,587.27a2.43,2.43,0,0,1-1.5-.67l-8.84-8.69a2.37,2.37,0,0,1,3.31-3.38l7.34,7.22L1725,568.17a2.36,2.36,0,1,1,3,3.68l-18.5,14.9A2.34,2.34,0,0,1,1707.79,587.27Z" transform="translate(0 -179.56)"/><path class="cls-51" d="M1790,529.2h0a17.4,17.4,0,0,1-16.17-18.57l1.49-21.59,34.75,2.4-1.5,21.59A17.4,17.4,0,0,1,1790,529.2Z" transform="translate(0 -179.56)"/><path class="cls-10" d="M1808.84,507.29l-5-.25a2.15,2.15,0,0,1-2-2.66c.87-3.54,2-9.64-.3-10.52-3.24-1.25-21.23,2.32-27-2.64-8.12-7-1.37-17,6.32-17s6,8.83,15,9.19,22.73-2.27,15.47,21.08Z" transform="translate(0 -179.56)"/><path class="cls-51" d="M1814.9,508.64a5.47,5.47,0,1,1-5.09-5.84A5.47,5.47,0,0,1,1814.9,508.64Z" transform="translate(0 -179.56)"/><path class="cls-52" d="M1747,593.57a9.16,9.16,0,1,1-8.5-9.76A9.15,9.15,0,0,1,1747,593.57Z" transform="translate(0 -179.56)"/><path class="cls-52" d="M1752.55,598.54l-9.5-.65a4.54,4.54,0,0,1-4.2-4.83h0a4.53,4.53,0,0,1,4.82-4.2l9.5.66a4.54,4.54,0,0,1,4.21,4.82h0A4.54,4.54,0,0,1,1752.55,598.54Z" transform="translate(0 -179.56)"/><path class="cls-48" d="M1747.36,602l0-17,46.93.07,16.14-38.28a8.52,8.52,0,0,1,11.28-4.21h0A8.52,8.52,0,0,1,1826,553.8l-18.42,43.27a8.5,8.5,0,0,1-7.76,5Z" transform="translate(0 -179.56)"/><rect class="cls-53" x="1771.23" y="581.51" width="25.41" height="8.86"/><rect class="cls-53" x="1835.74" y="767.86" width="25.41" height="8.86" transform="translate(-114.07 190.58) rotate(-11.09)"/><path class="cls-39" d="M1777.25,513.79l15,.72s-.89,5.74-9,4.86C1776.92,518.68,1777.25,513.79,1777.25,513.79Z" transform="translate(0 -179.56)"/><path class="cls-14" d="M1782.69,602l15.15,0a11.65,11.65,0,0,0,9.82-6.71l16.85-38.14c-6.53,22.25-15.12,44.9-15.12,44.9a7.08,7.08,0,0,1-6.91,4.66l-19.41-.78Z" transform="translate(0 -179.56)"/><path class="cls-54" d="M1689.31,630.61l-112,14.85a5.56,5.56,0,0,1-6.24-4.79l-4-29.82a5.57,5.57,0,0,1,4.79-6.25l112-14.85a5.57,5.57,0,0,1,6.25,4.79l4,29.82A5.57,5.57,0,0,1,1689.31,630.61Z" transform="translate(0 -179.56)"/><rect class="cls-40" x="1560.51" y="583.5" width="124.15" height="41.22" rx="5.57" transform="translate(-65.31 38.9) rotate(-7.55)"/><path class="cls-41" d="M1570.47,600.8a.78.78,0,0,1-.77-.68.76.76,0,0,1,.67-.86l64.15-8.51a.73.73,0,0,1,.87.66.76.76,0,0,1-.66.87l-64.16,8.51Z" transform="translate(0 -179.56)"/><path class="cls-41" d="M1571.83,611a.77.77,0,0,1-.11-1.54l64.16-8.5a.73.73,0,0,1,.87.66.77.77,0,0,1-.66.87l-64.16,8.5Z" transform="translate(0 -179.56)"/><path class="cls-41" d="M1573.18,621.27a.77.77,0,0,1-.76-.67.76.76,0,0,1,.66-.87l31.74-4.25a.74.74,0,0,1,.87.66.76.76,0,0,1-.66.87l-31.74,4.25Z" transform="translate(0 -179.56)"/><path class="cls-46" d="M1527,759.5l-10-.76-1.47,16.51,28.62,2.27.17-2.23a5.11,5.11,0,0,0-3.62-4.85L1526.72,766Z" transform="translate(0 -179.56)"/><path class="cls-46" d="M1396.8,753.46l-1-10-16.52,1.42,2.75,28.58,2.22-.22a5.09,5.09,0,0,0,4.15-4.4l1.95-14.48Z" transform="translate(0 -179.56)"/><path class="cls-14" d="M1438.26,678.7l18.22,58.74-63.56,3.79,1.89,15.12,77.51-2.61c6.88-.22,12.09-5.47,10.69-13.49l-4.35-43.65,41-.63-7.08,64.8,17.65.63,17.31-72.82a14.42,14.42,0,0,0-13.69-17.75l-41.69-1Z" transform="translate(0 -179.56)"/><polygon class="cls-49" points="1464.42 430.6 1480.08 433.92 1486.73 400.68 1471.21 397.43 1464.42 430.6"/><path class="cls-51" d="M1476.72,597.6h0a16.22,16.22,0,0,0,19.2-12.56l4.14-19.73-31.76-6.65-4.13,19.73A16.23,16.23,0,0,0,1476.72,597.6Z" transform="translate(0 -179.56)"/><path class="cls-10" d="M1488.44,573.84l-3,14.51c-1.21,5.79-6.63,9.56-12.1,8.41l-2.87-.6c-9.57-2-15.61-11.84-13.48-22l2.74-13.11,29.84,6.25Z" transform="translate(0 -179.56)"/><path class="cls-10" d="M1487.41,571.69s7.44,2,12.14,2c6.12.1,9.92-6.93,6.1-11.72-.17-.21-.35-.42-.55-.63-4.67-5.08-12.82-2.55-12.77-2S1487.41,571.69,1487.41,571.69Z" transform="translate(0 -179.56)"/><path class="cls-10" d="M1497,563.29s-9.12-13.39-24.9-9.45c0,0-6-.32-12.43,7.24l26.54,12.63Z" transform="translate(0 -179.56)"/><path class="cls-51" d="M1481.94,580.25a4.75,4.75,0,1,0,5.61-3.67A4.74,4.74,0,0,0,1481.94,580.25Z" transform="translate(0 -179.56)"/><path class="cls-10" d="M1475,551.88a15.34,15.34,0,1,1-11.87-18.15A15.34,15.34,0,0,1,1475,551.88Z" transform="translate(0 -179.56)"/><path class="cls-26" d="M1492.57,669.27c-5.85-9.51-3.06-31.48-.66-44.65a16.06,16.06,0,0,0-7.35-16.49h0l-18.14-5.37c-4.5-1.55-10.38,3.67-13.59,7.19-28.62,31.46-17.6,71.52-17.6,71.52,9.77,2.38,21.77,2.27,28.31,1.46h0l.25,0,.35,0A49.61,49.61,0,0,0,1492.57,669.27Z" transform="translate(0 -179.56)"/><path class="cls-51" d="M1560.76,617.82a9.81,9.81,0,1,0,2.2-13.69A9.81,9.81,0,0,0,1560.76,617.82Z" transform="translate(0 -179.56)"/><path class="cls-51" d="M1558.54,625.48l8.26-6a4.85,4.85,0,0,0,1.09-6.76h0a4.87,4.87,0,0,0-6.77-1.09l-8.26,6a4.87,4.87,0,0,0-1.09,6.77h0A4.86,4.86,0,0,0,1558.54,625.48Z" transform="translate(0 -179.56)"/><path class="cls-26" d="M1565.2,625.66l-9.67-15.47-42.63,26.65-26.75-27.24a9.13,9.13,0,0,0-12.65,2.56h0a9.12,9.12,0,0,0,2.57,12.64l31.65,30.49a9.12,9.12,0,0,0,9.87.14Z" transform="translate(0 -179.56)"/><polygon class="cls-45" points="1478.66 517.04 1495.85 507.4 1494.92 511.86 1519.64 516.41 1478.66 517.04"/><path class="cls-39" d="M1857.36,453l-1.42-4.07-1.42,4.07a14.24,14.24,0,0,1-7.9,8h0a14.24,14.24,0,0,1,7.9,8l1.42,4.07,1.42-4.07a14.21,14.21,0,0,1,7.9-8h0A14.21,14.21,0,0,1,1857.36,453Z" transform="translate(0 -179.56)"/><path class="cls-39" d="M1431,571.15l-.94-2.69-.94,2.69a9.36,9.36,0,0,1-5.21,5.3h0a9.35,9.35,0,0,1,5.21,5.31l.94,2.68.94-2.68a9.38,9.38,0,0,1,5.21-5.31h0A9.39,9.39,0,0,1,1431,571.15Z" transform="translate(0 -179.56)"/><polygon class="cls-28" points="1566.82 599.55 1570.29 606.24 1610.13 607.26 1618.25 585.05 1614.89 578.59 1566.82 599.55"/><path class="cls-28" d="M1575.67,788.46l34.8,1.33c3,.11,5.59-1.23,5.79-3.06l2.31-20.71c.22-2-2.34-3.71-5.6-3.84l-34.8-1.32c-3-.12-5.59,1.23-5.8,3.06l-2.3,20.7C1569.85,786.59,1572.4,788.34,1575.67,788.46Z" transform="translate(0 -179.56)"/><path class="cls-38" d="M1572.3,782l34.8,1.32c3,.12,5.59-1.23,5.8-3.06l2.3-20.7c.22-2-2.33-3.72-5.6-3.84l-34.8-1.32c-3-.12-5.59,1.23-5.79,3.06l-2.31,20.7C1566.48,780.11,1569,781.86,1572.3,782Z" transform="translate(0 -179.56)"/><path class="cls-26" d="M1025.81,406.14s-14.28,3.77-11.31,17.86l4,10.31,74-1.38-14-26A21,21,0,0,0,1057.38,396l-20.66,2.58Z" transform="translate(0 -179.56)"/><path class="cls-55" d="M1043.8,407.76h0a5.29,5.29,0,0,1-7.13-2.11l-8.53-15.51,9.33-5,8.47,15.41A5.28,5.28,0,0,1,1043.8,407.76Z" transform="translate(0 -179.56)"/><path class="cls-56" d="M1033.85,405.64h0a13,13,0,0,1-17.67-5.08l-7.83-14.14,22.76-12.59,7.82,14.14A13,13,0,0,1,1033.85,405.64Z" transform="translate(0 -179.56)"/><path class="cls-10" d="M1034.92,387.2s-4.24.35-5.46-4.57-7.78-3.58-7.78-3.58l6.19-6.58s9.75-3.73,9.83,9.69Z" transform="translate(0 -179.56)"/><path class="cls-10" d="M1029,379.43,1011.77,389a6.67,6.67,0,0,1-7.27-.46c-2.49-1.88-3.77-4.63-1.76-9.74,3-7.53,5.55-2.06,5.55-2.06s18.14-14.89,21.18-1Z" transform="translate(0 -179.56)"/><circle class="cls-56" cx="1037.52" cy="384.65" r="4.09" transform="translate(-27.85 -93.9) rotate(-4.67)"/><path class="cls-39" d="M1022.07,401.71l9-5.24s1.65,3.69-3.4,6.22C1023.72,404.68,1022.07,401.71,1022.07,401.71Z" transform="translate(0 -179.56)"/><path class="cls-42" d="M1284.79,702.15c1.28,1.09,14.21-19.86,18.32-47.12,0,0,2-13.4-11.11-7.16,0,0,16.09-58.25-19.34-55.57-6.11.46-9.63,1.64-13.31,5.31-5,5-8,13.21-3,25.53,10,24.63,19.35,34.46,13.92,47S1266.29,686.37,1284.79,702.15Z" transform="translate(0 -179.56)"/><path class="cls-43" d="M1279.49,740.31a1.3,1.3,0,0,1-.94-1.58c10-39.18,1.63-106.43.29-109.42a1.26,1.26,0,0,1,.4-1.76,1.34,1.34,0,0,1,1.82.42c2.24,3.47,9.75,73.39,0,111.4A1.28,1.28,0,0,1,1279.49,740.31Z" transform="translate(0 -179.56)"/><path class="cls-14" d="M1251.27,432.23a29.49,29.49,0,0,1,22.7-48.37h20.66a29.54,29.54,0,1,1,0,59.07H1274a29.2,29.2,0,0,1-13.17-3.15l-14.8,8.11Z" transform="translate(0 -179.56)"/><path class="cls-57" d="M1286.8,418.82a6.64,6.64,0,1,0-6.41-.4" transform="translate(0 -179.56)"/><path class="cls-57" d="M1286.72,434.53a21.87,21.87,0,1,0-6.41-.13" transform="translate(0 -179.56)"/><path class="cls-57" d="M1286.8,431.64a19,19,0,1,0-6.41-.12" transform="translate(0 -179.56)"/><path class="cls-57" d="M1286.8,428.39a15.83,15.83,0,1,0-6.41-.15" transform="translate(0 -179.56)"/><path class="cls-57" d="M1286.8,425.12a12.62,12.62,0,1,0-6.41-.19" transform="translate(0 -179.56)"/><path class="cls-57" d="M1286.8,422a9.63,9.63,0,1,0-6.41-.26" transform="translate(0 -179.56)"/><line class="cls-57" x1="1280.28" y1="255.15" x2="1280.28" y2="238.48"/><line class="cls-57" x1="1286.69" y1="255.25" x2="1286.69" y2="238.8"/><circle class="cls-39" cx="1284.02" cy="232.82" r="3.42"/><rect class="cls-38" x="952.28" y="505.49" width="66.36" height="41.64"/><path class="cls-38" d="M1031.43,726.63H934.15a15.79,15.79,0,0,0-15.79,15.8h128.86A15.79,15.79,0,0,0,1031.43,726.63Z" transform="translate(0 -179.56)"/><rect class="cls-28" x="802.04" y="245.26" width="375.71" height="263.01" rx="24.21"/><rect class="cls-38" x="788.28" y="245.26" width="375.71" height="263.01" rx="24.21"/><rect class="cls-39" x="814.98" y="270.41" width="323.33" height="204.66"/><rect class="cls-28" x="814.98" y="270.41" width="3.94" height="204.66"/><path class="cls-58" d="M981.74,681.67a11,11,0,1,1,11-11A11,11,0,0,1,981.74,681.67Zm0-20a9,9,0,1,0,9,9A9,9,0,0,0,981.74,661.64Z" transform="translate(0 -179.56)"/><polygon class="cls-59" points="952.28 508.27 1018.64 547.13 1018.64 508.27 952.28 508.27"/><rect class="cls-60" x="835.8" y="293.26" width="140.36" height="48.95" rx="4.85"/><path class="cls-60" d="M930.92,546.34H839.77a4,4,0,0,1-4-4h0a4,4,0,0,1,4-4h91.15a4,4,0,0,1,4,4h0A4,4,0,0,1,930.92,546.34Z" transform="translate(0 -179.56)"/><path class="cls-60" d="M899.72,564.05h-60a4,4,0,0,1-4-4h0a4,4,0,0,1,4-4h60a4,4,0,0,1,4,4h0A4,4,0,0,1,899.72,564.05Z" transform="translate(0 -179.56)"/><path class="cls-60" d="M899.72,582.62h-60a4,4,0,0,1-4-4h0a4,4,0,0,1,4-4h60a4,4,0,0,1,4,4h0A4,4,0,0,1,899.72,582.62Z" transform="translate(0 -179.56)"/><rect class="cls-60" x="995.76" y="293.26" width="123.2" height="158.11" rx="5.7"/><circle class="cls-35" cx="860.84" cy="318.12" r="15.07"/><path class="cls-41" d="M956.58,492.89H892.36a.92.92,0,1,1,0-1.84h64.22a.92.92,0,0,1,0,1.84Z" transform="translate(0 -179.56)"/><path class="cls-41" d="M956.58,504.31H892.36a.92.92,0,1,1,0-1.84h64.22a.92.92,0,0,1,0,1.84Z" transform="translate(0 -179.56)"/><line class="cls-61" x1="1015.61" y1="402.79" x2="1064.33" y2="402.79"/><line class="cls-61" x1="1015.61" y1="421.35" x2="1096.82" y2="421.35"/><path class="cls-42" d="M1012.24,500.79v52.38a7.23,7.23,0,0,0,7.24,7.23h73.33a7.23,7.23,0,0,0,7.24-7.23V500.79a7.23,7.23,0,0,0-7.24-7.23h-73.33A7.23,7.23,0,0,0,1012.24,500.79Z" transform="translate(0 -179.56)"/><path class="cls-14" d="M1022,519.46a16.61,16.61,0,1,0,16.61-16.61A16.61,16.61,0,0,0,1022,519.46Z" transform="translate(0 -179.56)"/><path class="cls-39" d="M1012.24,547.92v5.25a7.23,7.23,0,0,0,7.24,7.23h73.33a7.23,7.23,0,0,0,7.24-7.23v-5.25l-26.15-26.15-17.76,17.77-17.76-17.77Z" transform="translate(0 -179.56)"/><path class="cls-48" d="M730.46,572.91l-1.14.33a12.86,12.86,0,0,0-9.4,10.36l-3.08,44.51c18.45,6.63,39.46-4.93,39.46-4.93l-.54-40.12c.07-4.55-2.41-9.09-7.51-10h0Z" transform="translate(0 -179.56)"/><polygon class="cls-44" points="755.14 457.09 757.97 468.37 723.89 470.2 725.04 456.06 755.14 457.09"/><polygon class="cls-44" points="741.14 464.44 755.13 497.93 760.48 548.52 771.62 544.92 769.38 497.16 757.2 465.33 741.14 464.44"/><polygon class="cls-62" points="743.11 469.15 750.41 468.45 745.73 475.44 743.11 469.15"/><polygon class="cls-44" points="723.97 467.9 721.68 499.32 712.11 551.18 724.08 553.64 735.64 500.74 739.64 464.5 723.97 467.9"/><path class="cls-46" d="M770.16,728.19l-6.55.74,1,9.4,18.62-2.12h0a3.33,3.33,0,0,0-2.92-2.67l-9.49-1.15Z" transform="translate(0 -179.56)"/><rect class="cls-63" x="764.59" y="737.26" width="18.74" height="1.46" transform="translate(1626.22 1204.42) rotate(173.52)"/><path class="cls-46" d="M720.61,731.89l-6.53-.86-1.35,9.35,18.57,2.46h0a3.34,3.34,0,0,0-2.18-3.31l-8.92-3.41Z" transform="translate(0 -179.56)"/><rect class="cls-63" x="712.55" y="741.6" width="18.74" height="1.46" transform="translate(1340.08 1393.49) rotate(-172.45)"/><rect class="cls-53" x="759.28" y="723.78" width="15.17" height="5.29" transform="translate(-119.07 -28.37) rotate(-10.45)"/><rect class="cls-53" x="715.78" y="722.16" width="5.29" height="15.17" transform="translate(-135.93 1114.76) rotate(-78.91)"/><polygon class="cls-55" points="733.54 397.07 743.11 397.02 743.25 376.28 733.68 376.32 733.54 397.07"/><path class="cls-56" d="M745.39,570.63h0A11.76,11.76,0,0,0,757.26,559l.13-14.62-23.52-.21-.14,14.61A11.76,11.76,0,0,0,745.39,570.63Z" transform="translate(0 -179.56)"/><path class="cls-10" d="M733.89,554.88l3.35.1a1.45,1.45,0,0,0,1.47-1.69c-.4-2.43-.83-6.59.75-7.07,2.26-.67,14.18,2.69,18.32-.34,5.84-4.28,1.82-11.36-3.36-11.75s-4.53,5.62-10.57,5.4-15.18-2.74-11.53,13.37Z" transform="translate(0 -179.56)"/><path class="cls-10" d="M757.72,559.21s-1.05,0-3.13-2-7.2-2-10.5.87-5.59-6.31-5.59-6.31l-1.74,2.87s.8,4.46-3.36,4.53c0,0,.85,13.29,14.07,11.83C747.47,571,757,569.43,757.72,559.21Z" transform="translate(0 -179.56)"/><path class="cls-56" d="M729.74,555.48a3.7,3.7,0,1,0,3.73-3.67A3.7,3.7,0,0,0,729.74,555.48Z" transform="translate(0 -179.56)"/><polygon class="cls-55" points="733.54 393.05 741.41 398.81 743.11 393 733.54 393.05"/><polygon class="cls-14" points="741.41 398.81 733.54 401.55 733.54 393.05 741.41 398.81"/><polygon class="cls-14" points="741.41 398.81 745.33 400.77 743.11 393 741.41 398.81"/><path class="cls-63" d="M680.87,599.18v35.91a6,6,0,0,0,6,6h97a6,6,0,0,0,6-6V599.18a6,6,0,0,0-6-6h-97A6,6,0,0,0,680.87,599.18Z" transform="translate(0 -179.56)"/><path class="cls-42" d="M680.87,599.18v3.34H790v-3.34a6,6,0,0,0-6-6h-97A6,6,0,0,0,680.87,599.18Z" transform="translate(0 -179.56)"/><path class="cls-39" d="M783.38,598.29a1.26,1.26,0,1,0,1.26-1.27A1.25,1.25,0,0,0,783.38,598.29Z" transform="translate(0 -179.56)"/><path class="cls-39" d="M778.32,598.29a1.26,1.26,0,1,0,1.26-1.27A1.25,1.25,0,0,0,778.32,598.29Z" transform="translate(0 -179.56)"/><path class="cls-39" d="M773.26,598.29a1.27,1.27,0,0,0,2.53,0,1.27,1.27,0,1,0-2.53,0Z" transform="translate(0 -179.56)"/><rect class="cls-39" x="688.86" y="608.11" width="59.59" height="17.57" rx="1.75" transform="translate(1437.32 1054.24) rotate(180)"/><path class="cls-39" d="M690.19,633.9H766.3a1.33,1.33,0,0,0,1.33-1.33h0a1.33,1.33,0,0,0-1.33-1.33H690.19a1.33,1.33,0,0,0-1.33,1.33h0A1.33,1.33,0,0,0,690.19,633.9Z" transform="translate(0 -179.56)"/><path class="cls-64" d="M722.13,634.72a6,6,0,1,0,8.16,2.13A6,6,0,0,0,722.13,634.72Z" transform="translate(0 -179.56)"/><path class="cls-64" d="M717.63,632.92l3.13,5.35a3,3,0,0,0,4,1.06h0a3,3,0,0,0,1.06-4L722.71,630a3,3,0,0,0-4-1.06h0A3,3,0,0,0,717.63,632.92Z" transform="translate(0 -179.56)"/><path class="cls-48" d="M717.13,636.94l9.93-4.94-13.62-27.37,17.66-20.49a5.54,5.54,0,0,0-.81-7.8h0a5.54,5.54,0,0,0-7.8.81l-19.91,23.26a5.55,5.55,0,0,0-.66,6Z" transform="translate(0 -179.56)"/><path class="cls-28" d="M678,434.87l-.87-2.5-.87,2.5a8.74,8.74,0,0,1-4.85,4.93h0a8.74,8.74,0,0,1,4.85,4.93l.87,2.5.87-2.5a8.77,8.77,0,0,1,4.85-4.93h0A8.77,8.77,0,0,1,678,434.87Z" transform="translate(0 -179.56)"/><path class="cls-28" d="M1132.12,362.44l-1.46-4.18-1.46,4.18a14.59,14.59,0,0,1-8.13,8.28h0a14.61,14.61,0,0,1,8.13,8.27l1.46,4.19,1.46-4.19a14.64,14.64,0,0,1,8.13-8.27h0A14.63,14.63,0,0,1,1132.12,362.44Z" transform="translate(0 -179.56)"/><path class="cls-28" d="M376.12,477.44l-1.46-4.18-1.46,4.18a14.59,14.59,0,0,1-8.13,8.28h0A14.61,14.61,0,0,1,373.2,494l1.46,4.19,1.46-4.19a14.64,14.64,0,0,1,8.13-8.27h0A14.63,14.63,0,0,1,376.12,477.44Z" transform="translate(0 -179.56)"/><path class="cls-28" d="M1941.12,466.44l-1.46-4.18-1.46,4.18a14.59,14.59,0,0,1-8.13,8.28h0a14.61,14.61,0,0,1,8.13,8.27l1.46,4.19,1.46-4.19a14.64,14.64,0,0,1,8.13-8.27h0A14.63,14.63,0,0,1,1941.12,466.44Z" transform="translate(0 -179.56)"/><path class="cls-63" d="M981.63,600.37l-3.6-7.62a2.54,2.54,0,0,0-2.57-1.44l-11.86,1.35a4.06,4.06,0,0,1-4.2-2.51l-1.8-4.5a4,4,0,0,1,1.79-5c1.22-.68,2.47-1.37,2.69-1.48l.67,1.35-2.63,1.45a2.54,2.54,0,0,0-1.13,3.16l1.81,4.49a2.53,2.53,0,0,0,2.63,1.58l11.86-1.35a4,4,0,0,1,4.1,2.29l3.6,7.63Z" transform="translate(0 -179.56)"/><path class="cls-14" d="M981.71,567.19l-21.09,8.53a2.44,2.44,0,0,0-1.31,3.28l1.62,3.57a2.44,2.44,0,0,0,3.1,1.28l21.29-8.05a2.46,2.46,0,0,0,1.37-3.3l-1.82-4A2.45,2.45,0,0,0,981.71,567.19Z" transform="translate(0 -179.56)"/><path class="cls-58" d="M980.64,596.48h0a2.35,2.35,0,0,0-1.17,2.87l4.46,12.94a3.59,3.59,0,0,0,5.15,2h0a3.59,3.59,0,0,0,1.38-4.89l-6.72-11.93A2.35,2.35,0,0,0,980.64,596.48Z" transform="translate(0 -179.56)"/><path class="cls-26" d="M911.08,690.49l-19.9-22.36a6.34,6.34,0,0,1-.45-7.06l18.06-26.16,11,6.4-15.9,22.48,17.31,19Z" transform="translate(0 -179.56)"/><path class="cls-56" d="M981.32,611a5.8,5.8,0,1,0-.59-8.18A5.8,5.8,0,0,0,981.32,611Z" transform="translate(0 -179.56)"/><path class="cls-56" d="M981.07,615.74l3.95-4.56a2.89,2.89,0,0,0-.29-4h0a2.87,2.87,0,0,0-4,.29l-4,4.56a2.87,2.87,0,0,0,.29,4h0A2.87,2.87,0,0,0,981.07,615.74Z" transform="translate(0 -179.56)"/><polygon class="cls-55" points="920.04 453.06 930.13 452.96 929.67 433.67 919.68 433.79 920.04 453.06"/><path class="cls-56" d="M927.5,625.24h0a11.24,11.24,0,0,0,11.1-11.38l-.18-14-22.47.28.18,14A11.23,11.23,0,0,0,927.5,625.24Z" transform="translate(0 -179.56)"/><path class="cls-10" d="M931.85,607.41l.13,10.27a7.22,7.22,0,0,1-6.92,7.51l-2,0c-6.77.09-12.33-5.65-12.42-12.82l-.12-9.28,21.12-.26Z" transform="translate(0 -179.56)"/><path class="cls-10" d="M930.83,606.12a45.58,45.58,0,0,0,8.52-.45c4.15-.86,5.66-9.07,2.36-11.73l-.47-.35c-3.92-2.73-9,3.09-8.94,3.43S930.83,606.12,930.83,606.12Z" transform="translate(0 -179.56)"/><path class="cls-10" d="M936.07,599s-9-7.8-19.07-2.76c0,0-3.33.81-6.51,6.88l19.85,4.55Z" transform="translate(0 -179.56)"/><path class="cls-56" d="M928.42,612.73a3.29,3.29,0,1,0,3.25-3.33A3.28,3.28,0,0,0,928.42,612.73Z" transform="translate(0 -179.56)"/><path class="cls-56" d="M937.17,614h1.63a1.63,1.63,0,0,0,1.64-1.64h0a1.63,1.63,0,0,0-1.64-1.63h-1.63Z" transform="translate(0 -179.56)"/><path class="cls-26" d="M932.59,631.4H916.42c-8.08,0-10.85,6.67-9.45,13.79l3,17.33,1.43,16.4h29.06l3-35.89C943.59,636.63,941.26,631.4,932.59,631.4Z" transform="translate(0 -179.56)"/><path class="cls-14" d="M940.51,678.92l10.55,53.71.16,45.6-7.51.24-6.82-44.24-14-38.3.84,39.26-11.34,43.38H904.7l5.89-43.37-4.71-33.45s-1.18-14.79,5.57-22.83Z" transform="translate(0 -179.56)"/><rect class="cls-14" x="915.26" y="690.38" width="13.7" height="10.41" transform="translate(1844.23 1211.6) rotate(180)"/><polygon class="cls-56" points="951.22 598.67 951.56 605.09 944.64 605.09 943.71 598.91 951.22 598.67"/><polygon class="cls-56" points="912.36 599.01 911.08 605.78 903.73 605.54 904.7 599.01 912.36 599.01"/><path class="cls-45" d="M922.75,700.78h-7.49s6.85,7.58,8,15.15Z" transform="translate(0 -179.56)"/><path class="cls-46" d="M951.16,784.65h4.54c2.59,0,5.45.87,6.13,4l.34,2h-18s-1.19-3.45.48-6Z" transform="translate(0 -179.56)"/><path class="cls-46" d="M910.19,784.65h4.54c2.59,0,5.45.87,6.13,4l.34,2H903.15s-1.19-3.45.47-6Z" transform="translate(0 -179.56)"/><path class="cls-26" d="M932.52,644.24l-1.09-12.65,27-2.32,16.82-19.8,9.67,8.23-18.51,21.78a6.34,6.34,0,0,1-4.29,2.22Z" transform="translate(0 -179.56)"/><polygon class="cls-45" points="943.48 463.74 936.1 464.21 942.13 479.92 943.48 463.74"/><path class="cls-26" d="M915.48,601.41a4.63,4.63,0,1,1-4.62-4.63A4.63,4.63,0,0,1,915.48,601.41Z" transform="translate(0 -179.56)"/><path class="cls-65" d="M912.23,599.39s-10.15-6.38-13.93,7.1c-3.54,12.62,6.54,27.89,8.49,39.44a2.82,2.82,0,0,0,2.79,2.3h11a2.84,2.84,0,0,0,2.84-3.05c-.39-5.41-3.18-15.82-11.43-28.51,0,0-8.79-12,.19-13.52C912.19,603.15,914.21,600.86,912.23,599.39Z" transform="translate(0 -179.56)"/><path class="cls-14" d="M1262.21,753.31a2.07,2.07,0,0,1-2.06-1.44l-66.71-269.56a1.85,1.85,0,0,1,1.61-2.17,2.1,2.1,0,0,1,2.5,1.4l66.72,269.56a1.85,1.85,0,0,1-1.62,2.17A2.25,2.25,0,0,1,1262.21,753.31Z" transform="translate(0 -179.56)"/><path class="cls-14" d="M1213.33,753.31a2,2,0,0,1-2-1.44l-67-269.56a1.83,1.83,0,0,1,1.61-2.17,2.11,2.11,0,0,1,2.5,1.4l67,269.56a1.83,1.83,0,0,1-1.61,2.17A2.28,2.28,0,0,1,1213.33,753.31Z" transform="translate(0 -179.56)"/><path class="cls-14" d="M1199.06,498.15H1150a1.85,1.85,0,1,1,0-3.66h49.11a1.85,1.85,0,1,1,0,3.66Z" transform="translate(0 -179.56)"/><path class="cls-14" d="M1204.41,519.71H1155.3a1.85,1.85,0,1,1,0-3.66h49.11a1.85,1.85,0,1,1,0,3.66Z" transform="translate(0 -179.56)"/><path class="cls-14" d="M1209.76,541.26h-49.11a1.85,1.85,0,1,1,0-3.66h49.11a1.85,1.85,0,1,1,0,3.66Z" transform="translate(0 -179.56)"/><path class="cls-14" d="M1215.11,562.82H1166a1.85,1.85,0,1,1,0-3.66h49.11a1.85,1.85,0,1,1,0,3.66Z" transform="translate(0 -179.56)"/><path class="cls-58" d="M1220.46,584.38h-49.11a1.85,1.85,0,1,1,0-3.66h49.11a1.85,1.85,0,1,1,0,3.66Z" transform="translate(0 -179.56)"/><path class="cls-14" d="M1225.81,605.93H1176.7a1.85,1.85,0,1,1,0-3.66h49.11a1.85,1.85,0,1,1,0,3.66Z" transform="translate(0 -179.56)"/><path class="cls-14" d="M1231.16,627.49h-49.11a1.85,1.85,0,1,1,0-3.66h49.11a1.85,1.85,0,1,1,0,3.66Z" transform="translate(0 -179.56)"/><path class="cls-14" d="M1236.51,649.05H1187.4a1.85,1.85,0,1,1,0-3.66h49.11a1.85,1.85,0,1,1,0,3.66Z" transform="translate(0 -179.56)"/><path class="cls-14" d="M1241.86,670.6h-49.11a1.84,1.84,0,1,1,0-3.65h49.11a1.84,1.84,0,1,1,0,3.65Z" transform="translate(0 -179.56)"/><path class="cls-14" d="M1247.21,692.16H1198.1a1.85,1.85,0,1,1,0-3.66h49.11a1.85,1.85,0,1,1,0,3.66Z" transform="translate(0 -179.56)"/><path class="cls-14" d="M1252.56,713.72h-49.11a1.85,1.85,0,1,1,0-3.66h49.11a1.85,1.85,0,1,1,0,3.66Z" transform="translate(0 -179.56)"/><path class="cls-46" d="M1184,633.47l8.25-1.5,3.68,13.54L1172.38,647l-.33-1.83a4.25,4.25,0,0,1,2.57-4.33l11.14-2Z" transform="translate(0 -179.56)"/><polygon class="cls-55" points="1216.06 340.88 1206.14 340.84 1206 319.34 1215.91 319.39 1216.06 340.88"/><path class="cls-56" d="M1203.79,514.23h0a12.19,12.19,0,0,1-12.3-12.07l-.14-15.15,24.37-.22.14,15.14A12.19,12.19,0,0,1,1203.79,514.23Z" transform="translate(0 -179.56)"/><path class="cls-10" d="M1215.7,497.91l-3.47.1a1.49,1.49,0,0,1-1.52-1.75c.41-2.51.86-6.83-.79-7.32-2.33-.69-14.68,2.78-19-.36-6-4.43-1.88-11.77,3.48-12.18s4.7,5.84,11,5.6,15.73-2.83,11.95,13.85Z" transform="translate(0 -179.56)"/><path class="cls-56" d="M1220,498.53a3.83,3.83,0,1,1-3.86-3.8A3.82,3.82,0,0,1,1220,498.53Z" transform="translate(0 -179.56)"/><path class="cls-46" d="M1232.6,657.13l8.31-1.16,4.15,14.28-23.55.49-.25-1.84a4.25,4.25,0,0,1,2.75-4.23l10.55-1.43Z" transform="translate(0 -179.56)"/><path class="cls-44" d="M1196,568.87l-23.72,7.36a7,7,0,0,0-5.58,9l14.85,50.12,14.18-1.45L1183.05,588l34.91-7.59a10,10,0,0,0,9.07-9.92v-1.62Z" transform="translate(0 -179.56)"/><polygon class="cls-44" points="1221.51 395.35 1227.03 430.35 1242.87 479.3 1230.56 480.17 1213.09 431.73 1202.64 395.35 1221.51 395.35"/><path class="cls-48" d="M1205.4,518.2h0c-6.78,0-12.27,6.2-12.27,13.79l2.9,36.88,33.89,1.45L1227,530.91c0-7-5.06-12.67-11.3-12.69Z" transform="translate(0 -179.56)"/><path class="cls-39" d="M1194.47,504.82l8.83-.1s-.33,3.68-5.1,3.42C1194.44,507.94,1194.47,504.82,1194.47,504.82Z" transform="translate(0 -179.56)"/><path class="cls-56" d="M1132.63,535.33a7.1,7.1,0,1,1,.38-10A7.1,7.1,0,0,1,1132.63,535.33Z" transform="translate(0 -179.56)"/><polyline class="cls-66" points="1208.08 349.13 1175.11 363.56 1129.01 350.56"/><path class="cls-14" d="M1187.15,527.65l7.95,16.78,14.52-8.08a7.91,7.91,0,0,0,2.94-11h0a7.92,7.92,0,0,0-9.42-3.38Z" transform="translate(0 -179.56)"/><path class="cls-10" d="M1193.14,502a4.61,4.61,0,1,1,4.61-4.61A4.61,4.61,0,0,1,1193.14,502Zm0-8a3.39,3.39,0,1,0,3.39,3.39A3.39,3.39,0,0,0,1193.14,494Z" transform="translate(0 -179.56)"/><path class="cls-10" d="M1203,502a4.61,4.61,0,1,1,4.61-4.61A4.61,4.61,0,0,1,1203,502Zm0-8a3.39,3.39,0,1,0,3.39,3.39A3.39,3.39,0,0,0,1203,494Z" transform="translate(0 -179.56)"/><rect class="cls-10" x="1196.77" y="315.55" width="2.4" height="1.22"/><rect class="cls-10" x="1206.41" y="316.61" width="3.85" height="1.22"/><path class="cls-56" d="M1006.5,424.93s-1.59-5.72-11-5.24-12.39,6.51-9.37,10.33,11,1.24,16.05-5.18Z" transform="translate(0 -179.56)"/><path class="cls-56" d="M1080.25,420.31s-1.45-5.24-10-4.81-11.36,6-8.6,9.47,10.05,1.14,14.71-4.75Z" transform="translate(0 -179.56)"/><path class="cls-63" d="M1062.52,546.8h29.89a1.47,1.47,0,0,1,1.47,1.47v32a1.19,1.19,0,0,1-1.19,1.19h-30.45a1.19,1.19,0,0,1-1.19-1.19v-32A1.47,1.47,0,0,1,1062.52,546.8Z"/><path class="cls-14" d="M1085,554.82h8.91a0,0,0,0,1,0,0v19.27a0,0,0,0,1,0,0H1085a9.31,9.31,0,0,1-9.31-9.31v-.66A9.31,9.31,0,0,1,1085,554.82Z"/><path class="cls-14" d="M1061,754.92a.8.8,0,0,1-.46-.16c-2.84-2.12-4.29-4.69-4.29-7.64,0-7.68,9.74-15.12,10.16-15.44a.78.78,0,0,1,.93,1.24c-.09.07-9.56,7.3-9.54,14.19,0,2.44,1.24,4.6,3.67,6.41a.77.77,0,0,1,.15,1.08A.75.75,0,0,1,1061,754.92Z" transform="translate(0 -179.56)"/><path class="cls-28" d="M1832.27,435.23a29.49,29.49,0,0,1,22.7-48.37h20.66a29.54,29.54,0,1,1,0,59.07H1855a29.2,29.2,0,0,1-13.17-3.15l-14.8,8.11Z" transform="translate(0 -179.56)"/><path class="cls-39" d="M1848.44,413.56v3.81A1.61,1.61,0,0,0,1850,419h3.22a12.62,12.62,0,0,0,1,2.52l-2.27,2.27a1.6,1.6,0,0,0,0,2.27l2.69,2.69a1.61,1.61,0,0,0,2.28,0l2.27-2.27a12.15,12.15,0,0,0,2.52,1v3.22a1.61,1.61,0,0,0,1.6,1.61h3.82a1.61,1.61,0,0,0,1.6-1.61V427.5a12.15,12.15,0,0,0,2.52-1l2.27,2.27a1.61,1.61,0,0,0,2.28,0l2.69-2.69a1.6,1.6,0,0,0,0-2.27l-2.27-2.27a12.62,12.62,0,0,0,1-2.52h3.22a1.61,1.61,0,0,0,1.6-1.61v-3.81a1.61,1.61,0,0,0-1.6-1.61h-3.22a12.38,12.38,0,0,0-1-2.52l2.27-2.27a1.6,1.6,0,0,0,0-2.27l-2.69-2.7a1.61,1.61,0,0,0-2.28,0l-2.27,2.27a12.72,12.72,0,0,0-2.52-1v-3.21a1.61,1.61,0,0,0-1.6-1.61h-3.82a1.61,1.61,0,0,0-1.6,1.61v3.21a12.72,12.72,0,0,0-2.52,1l-2.27-2.27a1.61,1.61,0,0,0-2.28,0l-2.69,2.7a1.6,1.6,0,0,0,0,2.27l2.27,2.27a12.38,12.38,0,0,0-1,2.52H1850A1.61,1.61,0,0,0,1848.44,413.56Zm10.13,1.9a6.73,6.73,0,1,1,6.73,6.73A6.72,6.72,0,0,1,1858.57,415.46Z" transform="translate(0 -179.56)"/><path class="cls-67" d="M531.9,250.14s8.82-10.15,14.23-14.8c9.73-8.37,20.9-23.17,56.61-12.26a82.54,82.54,0,0,1,8.14,3.1c3.15,1.33,12.9,1.37,22.89-6.56,15.87-12.6,22.07-22.11,43.82-22.41,25.29-.34,29.27,31.2,48.94,39.27,12.51,5.14,45.52,10.24,52.35,12.52Z" transform="translate(0 -179.56)"/><path class="cls-68" d="M1973.28,241.33s-10.3-11.84-16.6-17.27c-11.37-9.77-24.4-27.05-66.07-14.32a97.27,97.27,0,0,0-9.5,3.63c-3.67,1.56-15.06,1.6-26.71-7.66-18.52-14.71-25.77-25.8-51.14-26.15-29.53-.4-34.17,36.41-57.12,45.83-14.6,6-53.13,12-61.1,14.61Z" transform="translate(0 -179.56)"/><path class="cls-69" d="M242.66,271.16l-.42.21-1.16.63c-1,.55-2.44,1.37-4.24,2.47a144.92,144.92,0,0,0-14.29,9.93c-2.83,2.23-5.81,4.76-8.82,7.6a112,112,0,0,0-9,9.46c-1.45,1.75-2.89,3.55-4.24,5.46-.7.94-1.34,1.93-2,2.9-.31.5-.63,1-.95,1.5l-.48.76-.45.77a71.75,71.75,0,0,0-3.4,6.37c-.49,1.11-1,2.21-1.45,3.35-.22.56-.47,1.12-.66,1.69l-.61,1.73a57.47,57.47,0,0,0-1.9,7c-.27,1.18-.43,2.38-.62,3.57-.1.6-.14,1.2-.21,1.79s-.15,1.19-.17,1.79a57.23,57.23,0,0,0,.73,13.92,64,64,0,0,0,3.6,12.4,76.62,76.62,0,0,0,5.08,10.3c.45.76.89,1.51,1.33,2.23l1.35,2.08.65,1,.67.95,1.29,1.81c1.7,2.31,3.24,4.28,4.57,5.84s2.39,2.78,3.11,3.6l1.12,1.26-1.07-1.3c-.69-.86-1.74-2.08-3-3.72s-2.72-3.64-4.32-6l-1.21-1.85-.62-1-.61-1-1.26-2.12c-.41-.73-.81-1.49-1.23-2.26a76.31,76.31,0,0,1-4.6-10.34,63,63,0,0,1-3-12.21,54.9,54.9,0,0,1-.18-13.39c0-.57.15-1.13.23-1.7s.15-1.13.27-1.7c.23-1.12.42-2.26.72-3.37a54.43,54.43,0,0,1,2.07-6.61l.64-1.61c.21-.54.47-1.06.7-1.59.45-1.06,1-2.09,1.49-3.12,1.09-2,2.21-4,3.47-5.94l.46-.71.49-.7,1-1.4c.68-.9,1.32-1.82,2-2.69,1.36-1.77,2.81-3.44,4.26-5.05a106,106,0,0,1,8.95-8.74c3-2.61,6-4.93,8.78-7a140.73,140.73,0,0,1,14.11-9c1.76-1,3.16-1.7,4.11-2.17l1.08-.53.36-.17Z" transform="translate(0 -179.56)"/><path class="cls-14" d="M266,276.53a1.25,1.25,0,0,1-1.5-.92l-2.64-11a1.25,1.25,0,0,1,.92-1.5h0a1.24,1.24,0,0,1,1.5.92l2.63,11a1.25,1.25,0,0,1-.91,1.5Z" transform="translate(0 -179.56)"/><path class="cls-26" d="M273,275.38c-3.18,3.7-6.88,8.82-12.31,11l.58,2.46,17.47-1c4.12-.24,5-1.93,5-1.93l9.19-11.39S276.25,271.6,273,275.38Z" transform="translate(0 -179.56)"/><path class="cls-26" d="M274.54,247.34s-1.55-1.12-5.33.52l-16,7,.59,2.46c5.85-.46,11.46,2.44,16,4.31s18.15-8.24,18.15-8.24Z" transform="translate(0 -179.56)"/><path class="cls-13" d="M335.39,253l0-.07-.08,0a41.17,41.17,0,0,0-14.48-8.48c-15-4.7-57.85,16.8-57.85,16.8l2,8.48,2,8.49s47.95-.13,59.2-11.07a41.21,41.21,0,0,0,9.11-14.1l.08,0Z" transform="translate(0 -179.56)"/><path class="cls-26" d="M327.47,265.88A35.73,35.73,0,0,0,335.42,253a35.65,35.65,0,0,0-12.95-7.9c-.62-.22-1.26-.41-1.91-.6A33.79,33.79,0,0,0,326,267.34C326.49,266.86,327,266.37,327.47,265.88Z" transform="translate(0 -179.56)"/><path class="cls-69" d="M235.48,276.89s32.14,10.56,28-6.69S235.48,276.89,235.48,276.89Z" transform="translate(0 -179.56)"/><path class="cls-26" d="M265.92,267.26a10.16,10.16,0,0,0-2.6.7c-.31.17-4.52,2.18-6.87,3.3l.28,1.17c2.6-.06,7.27-.16,7.62-.15a9.83,9.83,0,0,0,2.64-.55,22.82,22.82,0,0,0,2.16-1.75l-.51-2.13A22,22,0,0,0,265.92,267.26Z" transform="translate(0 -179.56)"/><path class="cls-39" d="M281.81,267a4,4,0,0,1,2.93-4.77,4,4,0,0,1,4.77,2.93,4,4,0,0,1-7.7,1.85Z" transform="translate(0 -179.56)"/><path class="cls-39" d="M298.36,260.09a4,4,0,0,0-3.05-.49,4,4,0,0,0-3,4.85h0a4,4,0,0,0,4.85,3,4,4,0,0,0,3-4.85A4,4,0,0,0,298.36,260.09Z" transform="translate(0 -179.56)"/><path class="cls-39" d="M310.74,260.06a4,4,0,0,0-7.79,1.86h0a4,4,0,0,0,7.79-1.87Z" transform="translate(0 -179.56)"/><path class="cls-69" d="M771.91,389.27a23.47,23.47,0,0,0-25.12-23.35c-12.17.84-21.55,11.46-21.4,23.66a22.69,22.69,0,0,0,12.06,20.07,8.26,8.26,0,0,1,4.33,7.22v.34h14.07v-.34a8.9,8.9,0,0,1,4.31-7.44C766.83,405.36,771.91,397.86,771.91,389.27Z" transform="translate(0 -179.56)"/><path class="cls-70" d="M746.79,365.92a22.21,22.21,0,0,0-4.64.83c.37,0,.74,0,1.11,0a16.93,16.93,0,1,1-16.93,16.93q0-.5,0-1a23.5,23.5,0,0,0-1,6.93,22.69,22.69,0,0,0,12.06,20.07,8.26,8.26,0,0,1,4.33,7.22v.34h14.07v-.34a8.9,8.9,0,0,1,4.31-7.44,24,24,0,0,0,11.66-20.16A23.39,23.39,0,0,0,746.79,365.92Z" transform="translate(0 -179.56)"/><path class="cls-48" d="M748.82,418.86a1.92,1.92,0,0,1-1.92-1.93V397.38a1.92,1.92,0,1,1,3.83,0v19.55A1.91,1.91,0,0,1,748.82,418.86Z" transform="translate(0 -179.56)"/><path class="cls-39" d="M732.91,396a2.57,2.57,0,0,1-2.47-1.87,14.41,14.41,0,0,1-.55-3.12,2.58,2.58,0,0,1,5.14-.33,9.43,9.43,0,0,0,.36,2,2.58,2.58,0,0,1-1.77,3.19A2.83,2.83,0,0,1,732.91,396Z" transform="translate(0 -179.56)"/><path class="cls-39" d="M733.32,386.05a2.62,2.62,0,0,1-1-.18,2.59,2.59,0,0,1-1.45-3.35,17.28,17.28,0,0,1,5.52-7.32,2.58,2.58,0,0,1,3,4.22,12.16,12.16,0,0,0-3.7,5A2.58,2.58,0,0,1,733.32,386.05Z" transform="translate(0 -179.56)"/><rect class="cls-28" x="736.66" y="236.37" width="24.31" height="14.07" rx="2.55"/><path class="cls-26" d="M1459.59,443.28l-2.44-2.44,4-4c.81-.81,1.49-2.07.78-2.79l-3.58-3.58-2.76,2.76c-.81.82-1.42.55-2.14-.16l-3.87-3.87c-.71-.71-1.05-1.4-.23-2.21l2.76-2.76-3.08-3.08a2.68,2.68,0,0,0-3.28.28l-4,4.05-1.94-1.94a1.91,1.91,0,0,0-2.73-.05l-4.41,4.4a1.92,1.92,0,0,0,.06,2.73l1.94,1.94-3.57,3.56a2.18,2.18,0,0,0,.07,2.94l3.08,3.07,1.92-1.92c.81-.81,2.34-1.31,3-.6l3.87,3.87c.72.71.14,2.17-.67,3l-1.92,1.92,3.57,3.58c.72.71,1.63.38,2.44-.43l3.57-3.57,2.43,2.44a1.81,1.81,0,0,0,2.64,0l4.41-4.41A1.83,1.83,0,0,0,1459.59,443.28Z" transform="translate(0 -179.56)"/><path class="cls-48" d="M1430.83,445.49l-2.48,2.47-4.15-4.14c-.81-.82-2.25-1.76-3-1l-3.76,3.76,3,3c.81.81.55,1.05-.16,1.76l-3.87,3.87c-.71.72-1.31,1.33-2.12.52l-3-3-3,3c-.71.71-.08,2.47.73,3.28l4.15,4.15-2.16,2.16c-.72.71-1.2,2.05-.39,2.86l4.41,4.41a2.35,2.35,0,0,0,3.07-.17l2.17-2.16,3.44,3.44a1.73,1.73,0,0,0,2.57,0l3-3-1.78-1.78c-.81-.81-1.4-2.62-.69-3.33l3.87-3.87c.71-.71,2.16.24,3,1.05l1.78,1.78,3.77-3.77c.71-.71.49-1.44-.32-2.25l-3.45-3.45,2.47-2.47a2,2,0,0,0-.13-2.76l-4.41-4.41A1.71,1.71,0,0,0,1430.83,445.49Z" transform="translate(0 -179.56)"/><path class="cls-71" d="M1443.59,439.06l5.07,0a1.06,1.06,0,0,1,1.08,1.08l-.09,5-2.14,0,.07-3.92-4,0Z" transform="translate(0 -179.56)"/><rect class="cls-71" x="1429.32" y="447.04" width="22.67" height="2.14" transform="translate(105.1 970.39) rotate(-45)"/><path class="cls-71" d="M1421.44,452.8v0l.33-5,2.26,0v3.91l4,0,0,2.14-5.06,0a1.77,1.77,0,0,1-1-.31C1421.78,453.35,1421.44,453.08,1421.44,452.8Z" transform="translate(0 -179.56)"/><rect class="cls-71" x="1419.67" y="443.72" width="22.67" height="2.14" transform="translate(104.59 962.53) rotate(-45)"/></g></g></g></svg>
