<svg xmlns="http://www.w3.org/2000/svg" xmlns:xlink="http://www.w3.org/1999/xlink" viewBox="0 0 1932.6 738.5"><defs><style>.cls-1{opacity:0.47;}.cls-2{fill:#e0e4f0;}.cls-3{opacity:0.5;}.cls-4{fill:#e6e6e6;}.cls-5{opacity:0.22;}.cls-6{fill:#8184c4;}.cls-7{fill:#575a8f;}.cls-8{opacity:0.2;}.cls-9{fill:#4d5068;}.cls-10{fill:#ff65a7;}.cls-11{fill:#fff;}.cls-12{opacity:0.3;}.cls-13{fill:#231f20;}.cls-14{fill:#4563cc;}.cls-15{fill:url(#linear-gradient);}.cls-16{fill:url(#linear-gradient-2);}.cls-17{fill:#ffcebd;}.cls-18{fill:#191c3c;}.cls-19{opacity:0.1;}.cls-20{fill:#536dfe;}.cls-21{fill:#dfe2ec;}.cls-22{opacity:0.18;}.cls-23{fill:#fec55e;}.cls-24{fill:#f5f7f9;}.cls-25{fill:#41446b;}.cls-26{fill:#474963;}.cls-27{fill:#3a3c4e;}.cls-28{opacity:0.14;}.cls-29{opacity:0.27;}.cls-30{fill:#bfbfbf;}.cls-31{fill:#d6a294;}.cls-32{fill:#6371c5;}.cls-33{fill:#828dd1;}.cls-34{opacity:0.4;}.cls-35{fill:#717386;}.cls-36{fill:#2f334f;}.cls-37{fill:#3e4154;}.cls-38{fill:#3454ad;}.cls-39{fill:url(#linear-gradient-3);}.cls-40{fill:#4a5594;}.cls-41{fill:#616393;}.cls-42{fill:#212121;}</style><linearGradient id="linear-gradient" x1="974.81" y1="133.97" x2="1141.53" y2="133.97" gradientUnits="userSpaceOnUse"><stop offset="0" stop-color="#fec55e"/><stop offset="1" stop-color="#ffa000"/></linearGradient><linearGradient id="linear-gradient-2" x1="1423.71" y1="127.65" x2="1573.6" y2="127.65" xlink:href="#linear-gradient"/><linearGradient id="linear-gradient-3" x1="1002.88" y1="579.01" x2="1022.34" y2="579.01" xlink:href="#linear-gradient"/></defs><title>Our Story</title><g id="Layer_2" data-name="Layer 2"><g id="Layer_1-2" data-name="Layer 1"><g class="cls-1"><path class="cls-2" d="M1081.6,736.5a520.78,520.78,0,0,0-45-212.35A164.81,164.81,0,0,0,839.28,295.37,520.1,520.1,0,0,0,559,213.92q-19.28,0-38.19,1.38a134.6,134.6,0,0,0-206.69,59.49,524,524,0,0,0-109,77.23,149.17,149.17,0,0,0-148.46,240A522.73,522.73,0,0,0,36.46,736.5Z"/></g><g class="cls-1"><path class="cls-2" d="M1932.6,736.5a520.78,520.78,0,0,0-45-212.35,164.81,164.81,0,0,0-197.35-228.78A520.1,520.1,0,0,0,1410,213.92q-19.27,0-38.19,1.38a134.6,134.6,0,0,0-206.69,59.49,524,524,0,0,0-109,77.23,149.17,149.17,0,0,0-148.46,240A522.73,522.73,0,0,0,887.46,736.5Z"/></g><g class="cls-1"><path class="cls-2" d="M481,738.5C481,605.69,373.28,498,240.47,498S0,605.69,0,738.5Z"/></g><g class="cls-1"><path class="cls-2" d="M963,738.5C963,605.69,855.3,498,722.49,498S482,605.69,482,738.5Z"/></g><g class="cls-1"><path class="cls-2" d="M1441.78,738.5c0-132.81-107.66-240.47-240.47-240.47S960.83,605.69,960.83,738.5Z"/></g><g class="cls-1"><path class="cls-2" d="M1920.6,738.5c0-132.81-107.66-240.47-240.47-240.47S1439.66,605.69,1439.66,738.5Z"/></g><g class="cls-3"><circle class="cls-2" cx="731.36" cy="200.42" r="15.82" transform="translate(368.96 866.55) rotate(-76.78)"/></g><g class="cls-3"><circle class="cls-2" cx="1371.36" cy="149.42" r="15.82" transform="translate(912.22 1450.25) rotate(-76.78)"/></g><g class="cls-3"><path class="cls-2" d="M464.83,139.16a20.49,20.49,0,1,1-20.48-20.49A20.48,20.48,0,0,1,464.83,139.16Z"/></g><g class="cls-3"><path class="cls-2" d="M1523.83,154.16a20.49,20.49,0,1,1-20.48-20.49A20.48,20.48,0,0,1,1523.83,154.16Z"/></g><g class="cls-3"><path class="cls-2" d="M1158.83,224.16a20.49,20.49,0,1,1-20.48-20.49A20.48,20.48,0,0,1,1158.83,224.16Z"/></g><g class="cls-3"><path class="cls-2" d="M227.17,273.3a10.44,10.44,0,1,1-10.44-10.44A10.45,10.45,0,0,1,227.17,273.3Z"/></g><g class="cls-3"><circle class="cls-2" cx="321.36" cy="196.59" r="10.44"/></g><g class="cls-3"><circle class="cls-2" cx="1762.36" cy="224.59" r="10.44"/></g><g class="cls-3"><path class="cls-2" d="M827.49,222.19a9.32,9.32,0,1,1-9.32-9.32A9.31,9.31,0,0,1,827.49,222.19Z"/></g><g class="cls-3"><path class="cls-2" d="M528.83,147.56a3.22,3.22,0,1,1-3.22-3.22A3.22,3.22,0,0,1,528.83,147.56Z"/></g><g class="cls-3"><circle class="cls-2" cx="257.92" cy="231.59" r="4.19"/></g><g class="cls-3"><path class="cls-2" d="M112.12,322.75a5.57,5.57,0,1,1-5.57-5.57A5.57,5.57,0,0,1,112.12,322.75Z"/></g><g class="cls-3"><path class="cls-2" d="M570.49,161.57a5.57,5.57,0,1,1-5.56-5.57A5.57,5.57,0,0,1,570.49,161.57Z"/></g><g class="cls-3"><path class="cls-2" d="M1233.49,152.57a5.57,5.57,0,1,1-5.56-5.57A5.57,5.57,0,0,1,1233.49,152.57Z"/></g><g class="cls-3"><circle class="cls-2" cx="162.03" cy="305.29" r="23.62" transform="translate(-165.28 416.32) rotate(-80.78)"/></g><g class="cls-3"><circle class="cls-2" cx="1035.03" cy="279.29" r="23.62" transform="translate(593.54 1256.22) rotate(-80.78)"/></g><g class="cls-3"><path class="cls-2" d="M37,580.93a5.57,5.57,0,1,1-5.57-5.57A5.57,5.57,0,0,1,37,580.93Z"/></g><g class="cls-3"><circle class="cls-2" cx="645.25" cy="185.18" r="22.89"/></g><g class="cls-3"><circle class="cls-2" cx="1639.25" cy="186.18" r="22.89"/></g><g class="cls-3"><circle class="cls-2" cx="910.25" cy="242.18" r="22.89"/></g><g class="cls-3"><circle class="cls-2" cx="29.04" cy="382.8" r="18.12" transform="translate(-144.28 40.25) rotate(-22.5)"/></g><g class="cls-3"><path class="cls-2" d="M1870.17,288.3a10.44,10.44,0,1,1-10.44-10.44A10.45,10.45,0,0,1,1870.17,288.3Z"/></g><polygon class="cls-4" points="1734.61 63.16 1469.67 101.28 1529.82 161.37 1227.2 463.93 856.78 191.63 314.61 737.26 526.36 737.5 887.56 372.56 1244 631.77 1622.38 253.63 1696.99 327.28 1734.61 63.16"/><g class="cls-3"><path class="cls-2" d="M553.39,104.94A22.38,22.38,0,1,1,531,82.56,22.38,22.38,0,0,1,553.39,104.94Z"/></g><g class="cls-3"><path class="cls-2" d="M1340.51,147.56a22.38,22.38,0,1,1-22.38-22.38A22.38,22.38,0,0,1,1340.51,147.56Z"/></g><g class="cls-3"><path class="cls-2" d="M1292.84,66.91a6.9,6.9,0,1,1-6.9-6.9A6.9,6.9,0,0,1,1292.84,66.91Z"/></g><g class="cls-5"><path class="cls-6" d="M1195.89,555.37c2.45-32.2,4.9-64.67.72-96.69-1.37-10.53-5.38-23.07-15.77-25.29-9.54-2-18.06,6.2-23.49,14.31-25.49,38.1-27,87.36-21.43,132.87a515,515,0,0,0,41,147.83l5.33,5.93C1186.85,674,1191.29,615.75,1195.89,555.37Z"/><path class="cls-7" d="M1176.88,716.08c-26-81.23-25-173.83-3.82-255.85.75-2.93-4-3.55-4.69-.62a479,479,0,0,0-14.2,129.08c1.21,44,10.34,85.39,22.47,127.49,0,.15.29.05.24-.1Z"/><path class="cls-7" d="M1143,484.66a68.93,68.93,0,0,0,15.09,32.62c1.21,1.42,3.49-.28,2.32-1.77a72.52,72.52,0,0,1-14.72-31.22c-.33-1.7-3-1.35-2.69.37Z"/><path class="cls-7" d="M1139.66,528.48c1.42,12.45,4.79,28.92,12.74,38.93a.7.7,0,0,0,1.2-.7c-1.79-6.05-5.25-11.66-7.43-17.63a174.36,174.36,0,0,1-5.91-20.69.3.3,0,0,0-.6.09Z"/><path class="cls-7" d="M1141.58,586.1c1.79,9.1,6.31,17.58,11.69,25.06.75,1.05,2.37-.19,1.59-1.22-5.56-7.41-9.14-15.48-12.42-24.08a.45.45,0,0,0-.86.24Z"/><path class="cls-7" d="M1179.76,495.61c-7,12.57-12.91,23.78-22.88,34.35-1.79,1.9,1.39,4.29,3.17,2.47,9.47-9.67,18.83-22.83,22-36.19.34-1.43-1.7-1.72-2.31-.63Z"/><path class="cls-7" d="M1178.2,535.37c-3.47,14.63-9.33,28-18.77,39.82a1.6,1.6,0,0,0,2.53,2c9.43-12.3,15.69-26.18,17.34-41.64a.56.56,0,0,0-1.1-.15Z"/><path class="cls-7" d="M1180.05,584.13c-4,17.75-8,32.89-18.08,48.35-1.66,2.53,2.06,5.45,3.73,2.9,9.59-14.65,17.33-33.45,16.64-51.26,0-1.39-2-1.17-2.29,0Z"/><path class="cls-6" d="M1166,705q-28.29-63.91-56.6-127.81c-6.66-15-13.43-30.26-23.7-43.11s-24.61-23.26-40.92-25.29a15.64,15.64,0,0,0-6.88.33c-6.83,2.26-8.65,11-8.74,18.2-.71,57,35.09,107.74,73.17,150.23,22.71,25.34,48.52,50.44,81.48,58.93C1183.82,736.52,1172.09,718.75,1166,705Z"/><path class="cls-7" d="M1043.81,526.07c11.51,33.25,29.5,63.41,48.45,92.89,21,32.66,42.28,65.15,63,98,1.62,2.58,5.76.15,4.08-2.38-20.64-31.06-40.75-62.47-61-93.79-19.74-30.52-39.39-61.12-51.86-95.47-.59-1.62-3.19-.94-2.61.72Z"/><path class="cls-7" d="M1037.79,552.57c8.41,8.68,16.76,17.69,26,25.48,2.2,1.85,5.34-1.15,3.2-3.19-8.79-8.4-18.7-15.76-28.29-23.21-.64-.5-1.52.3-.92.92Z"/><path class="cls-7" d="M1060.18,602.55l19.23,13.64c6.32,4.49,12.57,9.74,19.72,12.82,1.38.59,2.92-1,1.71-2.21-5.26-5.3-12.07-9-18.29-13.07l-21-13.61c-1.54-1-2.88,1.4-1.42,2.43Z"/><path class="cls-7" d="M1094.65,657.1c6.38,2.53,12.77,4.74,18.69,8.28,4.86,2.9,8.8,7.63,14,9.75,1.42.58,2.23-1.22,1.76-2.29-2.42-5.5-10.18-9.68-15.36-12.25-5.93-2.93-12.19-5-18.83-5.17-1,0-1.07,1.35-.23,1.68Z"/><path class="cls-7" d="M1073.46,541.93a157.21,157.21,0,0,1-3.28,22.35c-1.3,5.63-3.8,11.19-4,17a.76.76,0,0,0,1.4.38c3.64-5.53,4.39-13,5.56-19.47a199.17,199.17,0,0,0,2.58-20.22c.12-1.48-2.19-1.47-2.31,0Z"/><path class="cls-7" d="M1092.75,583.07c.48,10.62-.37,22.33,1.81,32.72.14.71,1.13.49,1.18-.16.79-10.55-1.59-22-2.49-32.56,0-.32-.52-.32-.5,0Z"/><path class="cls-7" d="M1115.87,620.8c0,6.14.19,12.34-.1,18.47-.25,5.37-1.46,10.94.39,16.09a1,1,0,0,0,1.84,0c1.85-5.14.59-10.73.39-16.09-.24-6.14-.07-12.32-.1-18.47a1.21,1.21,0,0,0-2.42,0Z"/><path class="cls-6" d="M1282.63,534.27c-1.44-8.19-8.06-16.08-16.38-16.13-7.59,0-13.68,6-18.47,11.92-43.17,53.13-57.39,132.91-68.48,200.47l4.41,5.68c36.52-56.56,73.39-113.83,95.18-177.53C1281.59,550.81,1284.07,542.47,1282.63,534.27Z"/><path class="cls-7" d="M1190.25,712c20.54-56.88,46.33-111.32,72.21-165.9.86-1.81-1.88-3.38-2.69-1.57-24.46,55.12-51.87,109.74-70.49,167.2-.2.62.75.87,1,.27Z"/><path class="cls-7" d="M1240.06,555.35l-.15,14.78c0,4.31-.61,8.81.64,13a1.12,1.12,0,0,0,2.14,0c1.25-4.13.68-8.68.64-13l-.15-14.78a1.56,1.56,0,0,0-3.12,0Z"/><path class="cls-7" d="M1225.54,586.23c-1,9.84-3.28,21-2.1,30.83a.71.71,0,0,0,1.38.18c3.76-9.18,3.06-21.35,2.23-31a.76.76,0,0,0-1.51,0Z"/><path class="cls-7" d="M1209.64,625.38c-2.07,5-2.26,11.15-3.07,16.55-.73,4.82-1.94,9.72-1.8,14.6a.71.71,0,0,0,1.38.19c1.94-5.14,2.45-11,3.46-16.44.89-4.8,2.39-9.74,2.11-14.62a1.07,1.07,0,0,0-2.08-.28Z"/><path class="cls-7" d="M1257.21,589.67a62.67,62.67,0,0,0-16.46,9.43c-3.82,3-9.63,7.32-10.92,12.19a1.07,1.07,0,0,0,1.55,1.19c4.34-2.18,7.68-7.5,11.4-10.74a109.3,109.3,0,0,1,15-10.7c.7-.42.24-1.69-.58-1.37Z"/><path class="cls-7" d="M1238,634c-4.57,4.28-8.83,8.74-13.08,13.33-3.76,4.07-8.33,8-11.05,12.85-.55,1,.62,2.4,1.65,1.65,4.77-3.47,8.34-8.76,12.15-13.22s7.63-9.11,11.2-13.94c.38-.52-.43-1.08-.87-.67Z"/></g><g class="cls-8"><path class="cls-6" d="M397.77,622c-14-19-28.19-38.09-45.79-53.79-5.8-5.17-14-10.18-20.8-6.44-6.25,3.43-7,12-6.15,19.12,4.11,33.25,26.83,61.17,51.63,83.69A376.17,376.17,0,0,0,470,726.66l5.78.73C449.42,691.82,424.07,657.53,397.77,622Z"/><path class="cls-7" d="M464,719.87c-53.2-32.46-96.84-84.16-124.34-139.59-1-2-3.89-.08-2.89,1.89a349.93,349.93,0,0,0,53.82,78.14c21.7,23.75,46.51,42.26,73.33,59.73.1.06.18-.11.08-.17Z"/><path class="cls-7" d="M334.76,608.14A50.35,50.35,0,0,0,358.69,619a1.07,1.07,0,0,0,.43-2.09,53.07,53.07,0,0,1-23.05-10.22c-1-.78-2.31.68-1.31,1.49Z"/><path class="cls-7" d="M353.84,634c6.73,6.2,16.47,13.69,25.64,15.43a.52.52,0,0,0,.34-1c-3.89-2.49-8.48-3.94-12.54-6.19a129.28,129.28,0,0,1-13.15-8.62.22.22,0,0,0-.29.34Z"/><path class="cls-7" d="M382.43,664.89c5.34,4.17,11.88,6.7,18.43,8.27a.74.74,0,0,0,.3-1.44c-6.61-1.44-12.45-4.18-18.36-7.37-.33-.18-.67.31-.37.54Z"/><path class="cls-7" d="M360.31,596.63c2.14,10.28,4.22,19.31,3.76,29.92-.09,1.9,2.81,1.7,2.93-.15.61-9.87-.5-21.62-5.12-30.52-.49-1-1.76-.14-1.57.75Z"/><path class="cls-7" d="M378.44,619.36c5.07,9.74,8.24,19.95,8.64,31a1.18,1.18,0,0,0,2.35-.12c-.67-11.3-3.83-22-10.32-31.3a.4.4,0,0,0-.67.45Z"/><path class="cls-7" d="M402.76,645.42c6.24,11.75,11.31,22,13.1,35.37.29,2.19,3.74,2,3.45-.18-1.7-12.68-6.41-26.77-15.29-36.29-.7-.74-1.68.32-1.26,1.1Z"/><path class="cls-6" d="M452.76,719l-92.35-43.61c-10.87-5.13-21.88-10.3-33.69-12.5S302,661.75,292,668.42a11.5,11.5,0,0,0-3.64,3.47c-2.7,4.51.47,10.21,3.86,14.23,26.87,31.87,70.87,42.8,112.22,48.09,24.66,3.15,50.92,4.7,73.19-6.36C477.64,727.85,462.67,723.64,452.76,719Z"/><path class="cls-7" d="M299.71,678.42c22.25,12.87,46.6,21,71.16,28.2,27.21,8,54.5,15.81,81.63,24.11,2.12.65,3.25-2.67,1.11-3.27-26.24-7.31-52.37-15.06-78.52-22.69-25.5-7.44-51-15-74.28-28-1.1-.62-2.21,1-1.1,1.65Z"/><path class="cls-7" d="M309.05,695.94c8.79.79,17.71,1.77,26.55,1.66,2.09,0,2.39-3.19.24-3.3-8.87-.43-17.87.23-26.73.69a.48.48,0,0,0-.06,1Z"/><path class="cls-7" d="M345.29,712.87l17.15-1.64c5.64-.54,11.61-.63,17-2.34a1,1,0,0,0-.12-2c-5.43-.41-11,.78-16.35,1.51l-18.08,2.49c-1.33.18-.92,2.15.37,2Z"/><path class="cls-7" d="M390.41,726.55c4.74-1.65,9.33-3.47,14.29-4.35,4.07-.71,8.51,0,12.38-1.28,1.06-.36.65-1.74-.12-2.11-4-1.88-10.25-.49-14.34.57a32.56,32.56,0,0,0-12.88,6.14c-.58.48.05,1.25.67,1Z"/><path class="cls-7" d="M323.68,673a114.15,114.15,0,0,1,8.86,13.92c2,3.73,3.25,8,5.92,11.26a.55.55,0,0,0,1-.46c-.62-4.79-3.8-9.31-6.23-13.42a146.25,146.25,0,0,0-8.22-12.4c-.65-.88-1.92.23-1.28,1.1Z"/><path class="cls-7" d="M354,686.55c5.34,5.63,10.47,12.51,16.64,17.22.41.32.85-.28.57-.66-4.6-6.21-11.38-11.4-16.93-16.8-.17-.17-.44.06-.28.24Z"/><path class="cls-7" d="M384.8,696.35c2.91,3.41,6,6.74,8.77,10.26,2.42,3.08,4.42,6.74,7.9,8.71a.71.71,0,0,0,1-.88c-1.44-3.73-4.81-6.22-7.47-9.08-3.07-3.28-5.93-6.78-8.88-10.16a.88.88,0,0,0-1.34,1.15Z"/><path class="cls-6" d="M435.64,568.86c-4.72-3.85-12.14-5-16.76-1.09-4.22,3.6-4.69,9.86-4.52,15.41,1.52,50,31.77,100.88,57.92,143.52l5.15,1c-6.83-48.71-13.82-98-32.2-143.6C443,578.49,440.35,572.7,435.64,568.86Z"/><path class="cls-7" d="M469.48,711.23C453.67,670,441.91,627.57,430.15,585c-.4-1.42-2.66-1-2.24.41,12.81,42.16,23.76,85.44,40.91,126.1.19.44.83.12.66-.32Z"/><path class="cls-7" d="M422.18,600.84l7,8.24c2,2.41,3.87,5.17,6.55,6.86a.81.81,0,0,0,1.18-1c-1.28-2.88-3.76-5.12-5.84-7.47l-7.14-8.09a1.14,1.14,0,0,0-1.72,1.48Z"/><path class="cls-7" d="M428.9,624.85c4.18,5.89,8.22,13.18,13.57,18a.52.52,0,0,0,.85-.56c-2.31-6.87-8.51-13.26-13.59-18.2a.55.55,0,0,0-.83.72Z"/><path class="cls-7" d="M438.82,654.08c1.26,3.78,4.08,7.25,6.21,10.62,1.9,3,3.57,6.3,6,8.93a.52.52,0,0,0,.85-.56c-1.38-3.76-3.91-7.26-5.94-10.73-1.8-3.08-3.33-6.53-5.82-9.09a.77.77,0,0,0-1.28.83Z"/><path class="cls-7" d="M448.05,611.62a46,46,0,0,0-4.59,13.08c-.67,3.49-1.83,8.64-.22,11.95a.78.78,0,0,0,1.43-.08c1.36-3.28.66-7.81,1.18-11.38A78.57,78.57,0,0,1,449,612.1c.18-.57-.68-1.05-1-.48Z"/><path class="cls-7" d="M458.6,645.32c-.48,4.55-.71,9-.86,13.62-.13,4-.78,8.4,0,12.38.16.8,1.49,1,1.7.12,1-4.19.42-8.82.4-13.11s-.14-8.68-.47-13.05c0-.47-.75-.39-.8,0Z"/></g><g class="cls-5"><path class="cls-6" d="M1498.85,590c13.84-25.87,27.81-52,46.64-74.44,6.19-7.41,15.38-15.06,24.43-11.68,8.3,3.1,10.81,13.56,11,22.42.94,41.64-22,80.1-48.42,112.28a468,468,0,0,1-103.58,93.26l-7,1.94Z"/><path class="cls-7" d="M1435,722.43c59.6-49.54,104-121,127.8-194.18.85-2.62,4.76-.8,3.89,1.8a434.66,434.66,0,0,1-52.11,105.85c-22.41,33.14-49.6,60.39-79.45,86.72-.11.1-.25-.1-.13-.19Z"/><path class="cls-7" d="M1573.88,561.63a62.49,62.49,0,0,1-27.49,17.63c-1.62.5-2.53-1.92-.91-2.48A66,66,0,0,0,1572,560c1.08-1.14,3,.42,1.88,1.59Z"/><path class="cls-7" d="M1555.06,596.84c-7.16,8.85-17.79,19.83-28.76,23.62a.64.64,0,0,1-.58-1.12c4.32-3.77,9.71-6.38,14.3-9.88a160.64,160.64,0,0,0,14.63-13,.27.27,0,0,1,.41.35Z"/><path class="cls-7" d="M1525.47,640.06c-5.82,6.1-13.41,10.39-21.19,13.5a.92.92,0,0,1-.63-1.72c7.88-3,14.57-7.39,21.27-12.38.37-.28.87.26.55.6Z"/><path class="cls-7" d="M1540.38,552.09c-.79,13-1.72,24.52.77,37.49.44,2.32-3.16,2.6-3.64.34-2.53-12-3.29-26.68.79-38.48.44-1.26,2.14-.48,2.08.65Z"/><path class="cls-7" d="M1522.16,583.32c-4.48,12.9-6.54,26-5,39.67a1.46,1.46,0,0,1-2.91.27c-1.22-14,.75-27.72,7-40.37a.5.5,0,0,1,.91.43Z"/><path class="cls-7" d="M1497,619.77c-5.56,15.59-10,29.09-9.74,45.88,0,2.75-4.24,3.17-4.28.4-.2-15.91,3-34.09,12.27-47.4.72-1,2.12.09,1.75,1.12Z"/><path class="cls-6" d="M1447.27,714.15l84.8-94.54c10-11.12,20.1-22.38,32.58-30.59s27.79-13.19,42.46-10.36a14.07,14.07,0,0,1,5.84,2.21c5.28,3.87,4.39,11.93,2.45,18.18-15.41,49.49-60.57,83.24-105.4,109.26-26.74,15.51-56.1,30-87,28C1423.05,736.35,1438.17,724.29,1447.27,714.15Z"/><path class="cls-7" d="M1603.11,593.83c-19.28,25.49-43.29,46.51-67.94,66.65-27.32,22.33-54.83,44.42-81.92,67-2.12,1.77-5-1.49-2.85-3.2,26.55-21,52.75-42.54,79-63.91,25.63-20.83,51.19-41.75,71.61-67.93,1-1.24,3,.08,2.06,1.36Z"/><path class="cls-7" d="M1600.87,618.42c-9.7,5.14-19.45,10.57-29.63,14.71-2.41,1-4.28-2.5-1.87-3.66,10-4.79,20.58-8.36,31-12.11.7-.25,1.23.69.54,1.06Z"/><path class="cls-7" d="M1567.5,655.31l-20.45,6.39c-6.72,2.1-13.6,4.88-20.64,5.53-1.36.13-2.25-1.67-.85-2.38,6-3.1,13-4.41,19.46-6.16l21.93-5.88c1.61-.43,2.09,2,.55,2.5Z"/><path class="cls-7" d="M1522.39,692.76c-6.22.4-12.36.52-18.47,1.91-5,1.15-9.75,4.12-14.81,4.5-1.39.1-1.59-1.68-.88-2.47,3.64-4.07,11.51-5.5,16.71-6.27a40.59,40.59,0,0,1,17.72.82c.9.27.55,1.46-.27,1.51Z"/><path class="cls-7" d="M1573,599.21a141.54,141.54,0,0,0-3.44,20.23c-.46,5.22.14,10.74-1.35,15.76a.69.69,0,0,1-1.32-.07c-1.6-5.79-.13-12.5.67-18.38a178.25,178.25,0,0,1,3.44-18.19c.32-1.32,2.31-.66,2,.65Z"/><path class="cls-7" d="M1544.82,629.34c-3.4,9-6,19.39-10.75,27.76-.32.57-1.12.1-1-.47,2.28-9.34,7.55-18.56,11.3-27.43.11-.27.54-.14.43.14Z"/><path class="cls-7" d="M1514.25,655.44c-1.7,5.31-3.63,10.61-5.1,16-1.29,4.71-1.81,9.86-4.85,13.79a.88.88,0,0,1-1.6-.51c-.14-5,2.51-9.44,4.19-14,1.92-5.24,3.52-10.63,5.27-15.93a1.1,1.1,0,0,1,2.09.67Z"/><path class="cls-6" d="M1442.68,531.5c5.11-5.57,14-8.38,20.43-4.36,5.83,3.67,7.54,11.3,8.33,18.15,7.15,61.78-20.89,129.85-45.37,187l-6.15,2.2c-.38-61.16-.67-123,13.71-182.49C1435.41,544.68,1437.57,537.08,1442.68,531.5Z"/><path class="cls-7" d="M1426.72,712.79c12-53.62,18.83-107.91,25.64-162.37.22-1.81,3.09-1.68,2.82.11-8.16,54.17-13.81,109.41-27.58,162.52-.15.58-1,.3-.88-.26Z"/><path class="cls-7" d="M1465,568.43l-7.09,11.4c-2.07,3.32-3.83,7-6.82,9.62a1,1,0,0,1-1.64-1c1.06-3.78,3.71-7,5.83-10.25q3.68-5.62,7.33-11.25a1.42,1.42,0,0,1,2.39,1.52Z"/><path class="cls-7" d="M1461.07,599.18c-4.08,8-7.74,17.69-13.44,24.65a.64.64,0,0,1-1.15-.53c1.61-8.88,8.08-17.85,13.44-24.86a.68.68,0,0,1,1.15.74Z"/><path class="cls-7" d="M1454.14,636.94c-.87,4.87-3.71,9.65-5.72,14.18-1.8,4-3.26,8.4-5.75,12.07a.64.64,0,0,1-1.15-.54c1-4.88,3.51-9.64,5.38-14.28,1.66-4.11,2.91-8.63,5.51-12.23a1,1,0,0,1,1.73.8Z"/><path class="cls-7" d="M1435.13,586.36a57.18,57.18,0,0,1,8,15.26c1.46,4.17,3.81,10.31,2.42,14.67a1,1,0,0,1-1.77.16c-2.25-3.79-2.22-9.5-3.5-13.8a98.8,98.8,0,0,0-6.27-15.52c-.33-.67.64-1.42,1.12-.77Z"/><path class="cls-7" d="M1428.23,629.73c1.4,5.51,2.5,11,3.51,16.59.89,5,2.48,10.2,2.2,15.24-.06,1-1.65,1.54-2.07.46-2-5-2.12-10.78-2.86-16.06s-1.4-10.7-1.78-16.14c0-.59.86-.62,1-.09Z"/></g><g class="cls-8"><path class="cls-6" d="M750.72,736.52c4.78-40.82,11.11-71.13,41-100.42,14-13.73,32.5-23.35,43.55-39.39,13.45-19.53,14.52-46.75,33-62,19.84-16.36,51.65-11.87,72.07-27.54,14.57-11.17,19.91-29.91,30.37-44.76,17-24.06,49.11-37.23,78.84-32.27-29.76,7-50.76,38.63-44.89,67.63,3.76,18.55,16.85,35.49,15.24,54.32-3.2,37.41-59.79,53.42-64.16,90.72-1.18,10.15,1.9,20.3,2.33,30.51,1.31,31.73-27.33,61.78-60.22,63.18Z"/><path class="cls-7" d="M973.23,523.29a525.58,525.58,0,0,0-78.15,92C873.54,647.52,858.37,681.75,840.9,716c-1.58,3.08-6.74.92-5.73-2.33,22.93-73.46,79.71-140.11,138-190.46.07-.06.17,0,.1.1Z"/><path class="cls-7" d="M970.7,561.18a59,59,0,0,0-24.26,2c-8.24,2.53-13.85,7.72-21.39,11.18-.84.39-2-.46-1.39-1.34,9.25-13.17,32.44-15.55,47.23-13.19.8.13.62,1.48-.19,1.38Z"/><path class="cls-7" d="M952.43,602.23a73,73,0,0,0-34.12-.42c-10.31,2.46-18.3,8-27.45,12.78a1.5,1.5,0,0,1-1.86-2.32c15.27-15.91,43.64-17.2,63.62-10.72a.35.35,0,0,1-.19.68Z"/><path class="cls-7" d="M932.23,656.65c-31.36-3.69-52.12,2.39-75.8,22.7-1.41,1.21-3.9-.36-2.75-2,15.4-22.48,53.42-33.33,79-22.1a.77.77,0,0,1-.4,1.44Z"/><path class="cls-7" d="M912.18,542.75c12.62,13.35,8,39.8-4.2,51.93-.46.45-1.28-.13-.92-.68,5.44-8.18,9.36-16,9.66-26,.27-9.15-3.42-16-6.13-24.37a1,1,0,0,1,1.59-.89Z"/><path class="cls-7" d="M888.61,572.72c6.46,17.24,5.75,40.15-4.69,55.89-.52.78-1.9.3-1.6-.65,6.08-19.21,8.78-34.71,4.61-54.79a.87.87,0,0,1,1.68-.45Z"/><path class="cls-7" d="M852.19,605.69c11.25,24.2,9.69,51-.85,75.17-1,2.21-4.75,1.27-3.79-1,10.18-24.24,9.62-48.35,2.38-73.24-.37-1.26,1.68-2.18,2.26-.92Z"/></g><g class="cls-8"><path class="cls-6" d="M1218.89,736.52c3.3-28.14,7.66-49,28.25-69.23,9.66-9.47,22.41-16.1,30-27.16,9.27-13.46,10-32.23,22.75-42.73,13.68-11.28,35.61-8.19,49.69-19,10-7.7,13.73-20.62,20.94-30.86,11.69-16.59,33.85-25.66,54.35-22.25-20.52,4.82-35,26.64-31,46.63,2.6,12.79,11.62,24.47,10.51,37.45-2.21,25.79-41.22,36.83-44.23,62.55-.82,7,1.31,14,1.6,21,.9,21.88-18.84,42.59-41.52,43.56Z"/><path class="cls-7" d="M1372.3,589.51a362.53,362.53,0,0,0-53.88,63.42c-14.85,22.23-25.31,45.83-37.36,69.43-1.08,2.12-4.65.63-4-1.61,15.81-50.64,55-96.6,95.12-131.3,0-.05.11,0,.07.06Z"/><path class="cls-7" d="M1370.55,615.64a40.59,40.59,0,0,0-16.73,1.35c-5.67,1.75-9.54,5.32-14.74,7.71-.58.27-1.39-.31-1-.93,6.38-9.08,22.36-10.71,32.56-9.09.55.09.43,1-.13,1Z"/><path class="cls-7" d="M1358,643.93a50.44,50.44,0,0,0-23.53-.28c-7.1,1.69-12.62,5.53-18.92,8.8a1,1,0,0,1-1.28-1.59c10.53-11,30.08-11.86,43.86-7.39a.24.24,0,0,1-.13.46Z"/><path class="cls-7" d="M1344,681.45c-21.62-2.54-35.93,1.65-52.26,15.65-1,.84-2.69-.25-1.89-1.4,10.61-15.5,36.82-23,54.43-15.24a.53.53,0,0,1-.28,1Z"/><path class="cls-7" d="M1330.2,602.93c8.71,9.2,5.51,27.44-2.89,35.8-.32.31-.88-.09-.63-.47,3.75-5.64,6.45-11.06,6.65-17.92.19-6.3-2.35-11-4.22-16.8a.65.65,0,0,1,1.09-.61Z"/><path class="cls-7" d="M1314,623.59c4.45,11.89,4,27.68-3.24,38.53-.35.54-1.31.21-1.1-.44,4.19-13.25,6.05-23.94,3.17-37.78a.61.61,0,0,1,1.17-.31Z"/><path class="cls-7" d="M1288.85,646.32c7.75,16.68,6.67,35.18-.59,51.83-.66,1.52-3.27.87-2.61-.7,7-16.71,6.63-33.34,1.64-50.49-.26-.87,1.15-1.51,1.56-.64Z"/></g><g class="cls-8"><path class="cls-6" d="M729.55,736.52c-5.18-45.83-12-79.85-44.37-112.73C670,608.37,650,597.57,638,579.56c-14.56-21.92-15.72-52.48-35.73-69.58-21.48-18.36-55.92-13.33-78-30.92-15.77-12.54-21.56-33.58-32.88-50.25C473,401.8,438.2,387,406,392.58c32.23,7.85,55,43.37,48.61,75.93-4.07,20.82-18.24,39.84-16.5,61,3.46,42,64.74,60,69.46,101.84,1.29,11.4-2.05,22.79-2.51,34.25-1.42,35.62,29.59,69.36,65.2,70.93Z"/><path class="cls-7" d="M488.63,497.14A585,585,0,0,1,573.24,600.4C596.56,636.61,613,675,631.91,713.46c1.7,3.46,7.3,1,6.2-2.62-24.82-82.46-86.3-157.3-149.37-213.81-.08-.07-.19,0-.11.11Z"/><path class="cls-7" d="M491.37,539.68a61.48,61.48,0,0,1,26.27,2.21c8.91,2.83,15,8.66,23.15,12.55.91.43,2.19-.52,1.51-1.51-10-14.79-35.12-17.45-51.14-14.8-.86.14-.67,1.65.21,1.55Z"/><path class="cls-7" d="M511.15,585.76a76.33,76.33,0,0,1,36.94-.47c11.16,2.76,19.82,9,29.73,14.34a1.66,1.66,0,0,0,2-2.6c-16.53-17.86-47.25-19.31-68.88-12a.39.39,0,0,0,.21.76Z"/><path class="cls-7" d="M533,646.85c34-4.13,56.43,2.68,82.07,25.49,1.53,1.35,4.22-.41,3-2.3-16.67-25.23-57.83-37.41-85.48-24.81a.88.88,0,0,0,.44,1.62Z"/><path class="cls-7" d="M554.74,519c-13.67,15-8.66,44.69,4.54,58.31.49.5,1.38-.16,1-.77-5.89-9.18-10.13-18-10.45-29.18-.3-10.27,3.69-17.94,6.63-27.36a1,1,0,0,0-1.71-1Z"/><path class="cls-7" d="M580.25,552.63c-7,19.36-6.23,45.08,5.08,62.75a1,1,0,0,0,1.73-.73c-6.58-21.57-9.51-39-5-61.51a1,1,0,0,0-1.82-.51Z"/><path class="cls-7" d="M619.68,589.64c-12.18,27.17-10.49,57.28.92,84.4,1,2.47,5.14,1.42,4.11-1.14-11-27.22-10.42-54.29-2.58-82.22.4-1.42-1.81-2.46-2.45-1Z"/></g><g class="cls-8"><path class="cls-6" d="M691,575.06l-.64.31c-6.66,3.19-10.2,2.65-16.69-.34a67.82,67.82,0,0,1-16.73-10.42c-6.28-5.54-11.14-13-12.15-21.33-.23-1.86-.22-3.91.89-5.42,1.52-2.09,4.63-2.39,7-1.47s4.3,2.81,6.21,4.54a7.07,7.07,0,0,0,2.74,1.75,2.55,2.55,0,0,0,2.89-1c.87-1.52-.61-3.27-2-4.39-3.11-2.6-6-4.1-9.3-6.4-4.1-2.88-7.9-6.41-10.15-10.89s-2.75-10-.41-14.48a8.75,8.75,0,0,1,3-3.4c2.29-1.44,5.22-1.37,7.87-.8s5.2,1.57,7.89,1.85c6.36.66,8.86-3.81,8.73-9.67-.08-3.92-1.35-7.74-1.57-11.66-.4-6.9,3-14.25,9.25-17.2s15-.13,17.22,6.41c2.43,7.11-3.12,15.09.55,21.89a20.82,20.82,0,0,0,6,6.57c3.49,2.15,8.51-.38,12.57-.2a3.69,3.69,0,0,1,2.52.81,3.48,3.48,0,0,1,.78,1.82,15,15,0,0,1-4.55,13.7c-4.2,3.83-11.49,5.78-13.28,11.78-1.11,3.72-.63,13,5.29,12,2.22-.35,3.71-2.55,5.84-3.27,2.64-.89,5.66.86,6.84,3.38a10.37,10.37,0,0,1-.2,8.12c-1.62,4.08-4.74,7.36-7.79,10.52C703.36,564.77,699.24,571,691,575.06Z"/><rect class="cls-9" x="680.73" y="488.56" width="2.83" height="130.98"/><polygon class="cls-9" points="682.15 532.38 664.38 514.61 666.38 512.61 682.15 528.38 697.91 512.61 699.92 514.61 682.15 532.38"/><polygon class="cls-9" points="682.15 566.06 664.38 548.29 666.38 546.29 682.15 562.06 697.91 546.29 699.92 548.29 682.15 566.06"/><path class="cls-6" d="M760.07,531.85l-.9.43c-9.31,4.46-14.26,3.71-23.34-.48-8.36-3.86-16.47-8.44-23.4-14.56-8.77-7.75-15.58-18.22-17-29.84-.32-2.6-.3-5.46,1.24-7.58,2.13-2.91,6.49-3.34,9.85-2s6,3.92,8.69,6.33a9.74,9.74,0,0,0,3.83,2.46,3.58,3.58,0,0,0,4-1.35c1.21-2.13-.86-4.58-2.74-6.15-4.35-3.63-8.44-5.73-13-8.94-5.73-4-11-9-14.19-15.24s-3.85-14.05-.57-20.25a12.32,12.32,0,0,1,4.16-4.75c3.2-2,7.31-1.92,11-1.12s7.27,2.2,11,2.59c8.9.92,12.39-5.34,12.22-13.52-.12-5.49-1.89-10.83-2.21-16.31-.56-9.64,4.2-19.93,12.94-24s20.95-.18,24.08,9c3.39,9.94-4.36,21.1.77,30.6a29,29,0,0,0,8.42,9.18c4.87,3,11.9-.53,17.58-.27a5.17,5.17,0,0,1,3.52,1.14,4.75,4.75,0,0,1,1.09,2.53,21,21,0,0,1-6.36,19.17c-5.88,5.36-16.07,8.08-18.57,16.46-1.56,5.21-.88,18.18,7.4,16.87,3.11-.5,5.19-3.57,8.17-4.58,3.68-1.25,7.91,1.2,9.56,4.73s1.16,7.73-.28,11.34c-2.27,5.72-6.63,10.3-10.9,14.72C777.42,517.45,771.66,526.14,760.07,531.85Z"/><rect class="cls-9" x="746.34" y="410.88" width="2.83" height="325.64"/><polygon class="cls-9" points="747.75 471.37 723.3 446.92 725.3 444.92 747.75 467.36 770.2 444.92 772.2 446.92 747.75 471.37"/><polygon class="cls-9" points="747.75 518.47 723.3 494.02 725.3 492.02 747.75 514.46 770.2 492.02 772.2 494.02 747.75 518.47"/></g><path class="cls-10" d="M731.05,84.47v56.68a13,13,0,0,1-13,13h-6v30.77a1.46,1.46,0,0,1-2.58.94l-32.86-31.71H609a13,13,0,0,1-13-13V84.47a13,13,0,0,1,13-13H718.09A13,13,0,0,1,731.05,84.47Z"/><path class="cls-11" d="M707.07,105.62H636a2.82,2.82,0,0,1-2.82-2.82h0A2.83,2.83,0,0,1,636,100h71.11a2.83,2.83,0,0,1,2.82,2.83h0A2.82,2.82,0,0,1,707.07,105.62Z"/><path class="cls-11" d="M707.07,118.79H636a2.82,2.82,0,0,1-2.82-2.82h0a2.82,2.82,0,0,1,2.82-2.82h71.11a2.82,2.82,0,0,1,2.82,2.82h0A2.82,2.82,0,0,1,707.07,118.79Z"/><path class="cls-11" d="M682.07,132H636a2.83,2.83,0,0,1-2.82-2.83h0a2.82,2.82,0,0,1,2.82-2.82h46.11a2.82,2.82,0,0,1,2.82,2.82h0A2.83,2.83,0,0,1,682.07,132Z"/><g class="cls-12"><path class="cls-13" d="M651.81,87.79h-67.6v53.36a13,13,0,0,0,13,13h67.6V100.76A13,13,0,0,0,651.81,87.79Z"/></g><path class="cls-14" d="M555,100.76v56.68a13,13,0,0,0,13,13h6v30.77a1.46,1.46,0,0,0,2.58.94l32.85-31.71h38.73a13,13,0,0,0,13-13V100.76a13,13,0,0,0-13-13H567.93A13,13,0,0,0,555,100.76Z"/><path class="cls-11" d="M643.25,116H572.14a2.82,2.82,0,0,1-2.82-2.82h0a2.83,2.83,0,0,1,2.82-2.83h71.11a2.83,2.83,0,0,1,2.82,2.83h0A2.82,2.82,0,0,1,643.25,116Z"/><path class="cls-11" d="M643.25,129.14H572.14a2.82,2.82,0,0,1-2.82-2.82h0a2.82,2.82,0,0,1,2.82-2.82h71.11a2.82,2.82,0,0,1,2.82,2.82h0A2.82,2.82,0,0,1,643.25,129.14Z"/><path class="cls-11" d="M618.25,142.32H572.14a2.83,2.83,0,0,1-2.82-2.83h0a2.82,2.82,0,0,1,2.82-2.82h46.11a2.82,2.82,0,0,1,2.82,2.82h0A2.83,2.83,0,0,1,618.25,142.32Z"/><path class="cls-15" d="M1141.53,79.06v70a16,16,0,0,1-16,16h-7.38v38a1.81,1.81,0,0,1-3.19,1.17l-40.58-39.17H990.82a16,16,0,0,1-16-16v-70a16,16,0,0,1,16-16h134.7A16,16,0,0,1,1141.53,79.06Z"/><path class="cls-11" d="M1111.9,105.18h-87.83a3.48,3.48,0,0,1-3.48-3.48h0a3.48,3.48,0,0,1,3.48-3.49h87.83a3.49,3.49,0,0,1,3.49,3.49h0A3.48,3.48,0,0,1,1111.9,105.18Z"/><path class="cls-11" d="M1111.9,121.45h-87.83a3.48,3.48,0,0,1-3.48-3.48h0a3.48,3.48,0,0,1,3.48-3.49h87.83a3.49,3.49,0,0,1,3.49,3.49h0A3.48,3.48,0,0,1,1111.9,121.45Z"/><path class="cls-11" d="M1081,137.73h-57a3.49,3.49,0,0,1-3.48-3.49h0a3.48,3.48,0,0,1,3.48-3.49h57a3.49,3.49,0,0,1,3.49,3.49h0A3.49,3.49,0,0,1,1081,137.73Z"/><g class="cls-12"><path class="cls-13" d="M1043.65,83.17h-83.5v65.9a16,16,0,0,0,16,16h83.5V99.18A16,16,0,0,0,1043.65,83.17Z"/></g><path class="cls-14" d="M924,99.18v70a16,16,0,0,0,16,16h7.37v38a1.81,1.81,0,0,0,3.2,1.16l40.57-39.16H1039a16,16,0,0,0,16-16v-70a16,16,0,0,0-16-16H940A16,16,0,0,0,924,99.18Z"/><path class="cls-11" d="M1033.08,118H945.25a3.49,3.49,0,0,1-3.49-3.49h0a3.49,3.49,0,0,1,3.49-3.49h87.83a3.49,3.49,0,0,1,3.48,3.49h0A3.48,3.48,0,0,1,1033.08,118Z"/><path class="cls-11" d="M1033.08,134.24H945.25a3.49,3.49,0,0,1-3.49-3.49h0a3.48,3.48,0,0,1,3.49-3.48h87.83a3.48,3.48,0,0,1,3.48,3.48h0A3.48,3.48,0,0,1,1033.08,134.24Z"/><path class="cls-11" d="M1002.2,150.51h-57a3.49,3.49,0,0,1-3.49-3.49h0a3.48,3.48,0,0,1,3.49-3.48h57a3.48,3.48,0,0,1,3.48,3.48h0A3.48,3.48,0,0,1,1002.2,150.51Z"/><path class="cls-16" d="M1573.6,78.28v62.95a14.39,14.39,0,0,1-14.39,14.39h-6.64v34.17a1.62,1.62,0,0,1-2.87,1l-36.48-35.21H1438.1a14.39,14.39,0,0,1-14.39-14.39V78.28a14.39,14.39,0,0,1,14.39-14.39h121.11A14.39,14.39,0,0,1,1573.6,78.28Z"/><path class="cls-11" d="M1547,101.77h-79a3.13,3.13,0,0,1-3.13-3.14h0A3.13,3.13,0,0,1,1468,95.5h79a3.13,3.13,0,0,1,3.14,3.13h0A3.13,3.13,0,0,1,1547,101.77Z"/><path class="cls-11" d="M1547,116.4h-79a3.13,3.13,0,0,1-3.13-3.14h0a3.13,3.13,0,0,1,3.13-3.13h79a3.13,3.13,0,0,1,3.14,3.13h0A3.13,3.13,0,0,1,1547,116.4Z"/><path class="cls-11" d="M1519.2,131H1468a3.14,3.14,0,0,1-3.13-3.14h0a3.13,3.13,0,0,1,3.13-3.13h51.2a3.14,3.14,0,0,1,3.14,3.13h0A3.15,3.15,0,0,1,1519.2,131Z"/><g class="cls-12"><path class="cls-13" d="M1485.6,82h-75.07v59.26a14.39,14.39,0,0,0,14.39,14.39H1500V96.37A14.4,14.4,0,0,0,1485.6,82Z"/></g><path class="cls-14" d="M1378.05,96.37v62.94a14.4,14.4,0,0,0,14.4,14.4h6.63v34.17a1.63,1.63,0,0,0,2.87,1l36.48-35.21h43a14.4,14.4,0,0,0,14.39-14.4V96.37A14.4,14.4,0,0,0,1481.43,82h-89A14.4,14.4,0,0,0,1378.05,96.37Z"/><path class="cls-11" d="M1476.09,113.26h-79a3.13,3.13,0,0,1-3.13-3.13h0a3.14,3.14,0,0,1,3.13-3.14h79a3.14,3.14,0,0,1,3.14,3.14h0A3.13,3.13,0,0,1,1476.09,113.26Z"/><path class="cls-11" d="M1476.09,127.89h-79a3.13,3.13,0,0,1-3.13-3.13h0a3.14,3.14,0,0,1,3.13-3.14h79a3.14,3.14,0,0,1,3.14,3.14h0A3.13,3.13,0,0,1,1476.09,127.89Z"/><path class="cls-11" d="M1448.33,142.52h-51.2a3.13,3.13,0,0,1-3.13-3.13h0a3.14,3.14,0,0,1,3.13-3.14h51.2a3.15,3.15,0,0,1,3.14,3.14h0A3.14,3.14,0,0,1,1448.33,142.52Z"/><rect class="cls-17" x="1355.32" y="698.97" width="22.42" height="22.42" transform="translate(2733.07 1420.37) rotate(180)"/><rect class="cls-17" x="1328.1" y="698.97" width="22.42" height="22.42" transform="translate(2678.62 1420.37) rotate(180)"/><polygon class="cls-7" points="1384.82 469.29 1384.82 594.82 1378.79 713.79 1354.39 713.79 1354.39 477.28 1384.82 469.29"/><g class="cls-12"><polygon class="cls-18" points="1384.82 469.29 1384.82 471.07 1367.74 498.11 1362.97 619.91 1355.37 713.79 1354.39 713.79 1354.39 477.28 1384.82 469.29"/></g><path class="cls-7" d="M1308.48,462.88v28.23c0,12.13,2.72,16.11,8,27l1.39,2.9,4,98.85,2.94,93.88h25.81l7.59-93.88,8-125,18.68-25.61V455.63Z"/><polygon class="cls-11" points="1447.88 338.07 1437.35 321.91 1378.79 388.34 1402.7 387.14 1447.88 338.07"/><path class="cls-18" d="M1303.7,283.86a42.61,42.61,0,0,0,1.2-29.8l.1-.74q2,6.74,4.06,13.48a31.37,31.37,0,0,0,2.5,6.52c1.11,2,2.63,3.65,3.84,5.55a20.71,20.71,0,0,1,2.92,14.42,12,12,0,0,1-1.77,4.82c-1.63,2.37-4.33,3.75-7,4.92a111.34,111.34,0,0,1-19.94,6.71C1292.92,300.46,1299.86,292.91,1303.7,283.86Z"/><path class="cls-17" d="M1424.48,362h7a0,0,0,0,1,0,0v5.23a0,0,0,0,1,0,0H1420a0,0,0,0,1,0,0v-.77A4.46,4.46,0,0,1,1424.48,362Z" transform="translate(2863.87 52.15) rotate(153.4)"/><path class="cls-9" d="M1378.79,388.34,1352,298.71l17.08,5.8a9.59,9.59,0,0,1,4.56,5.35l21.74,59.68Z"/><g class="cls-5"><path class="cls-18" d="M1378.79,388.34,1352,298.71l17.08,5.8a9.59,9.59,0,0,1,4.56,5.35l21.74,59.68Z"/></g><path class="cls-17" d="M1415,362.72l6.45,2.85,4,4.89a3.37,3.37,0,0,1,.21,4l-1.43,2.13-2.6,5-3,3.2-3.41,2.52-7.56,2.29-9.25-9.28,6.72-6.34,6.43-10.22A2.74,2.74,0,0,1,1415,362.72Z"/><path class="cls-9" d="M1352,301.11l28.2,46.8a37.45,37.45,0,0,1,5.62,26.21l-4.59,29.49,8.94,65.68h-88.79l7.11-70.48-4.36-101.3,40.43,4.93Z"/><path class="cls-18" d="M1423.54,736.52H1348.3V724.17l6.78-8.65h35.16l25.19,5.13a10.15,10.15,0,0,1,8.11,9.94Z"/><rect class="cls-9" x="1345.69" y="731" width="79.97" height="5.52"/><g class="cls-12"><path class="cls-18" d="M1327.48,731v-6.83l6.78-8.65h35.16l25.19,5.13a10.15,10.15,0,0,1,8.11,9.94V731h2.12v5.52h-80V731Z"/></g><path class="cls-18" d="M1396.31,736.52h-75.24V724.17l6.79-8.65H1363l25.19,5.13a10.15,10.15,0,0,1,8.11,9.94Z"/><rect class="cls-9" x="1318.46" y="731" width="79.97" height="5.52"/><g class="cls-5"><path class="cls-18" d="M1351.84,383.5l.15-.1C1352.33,383.33,1352.22,383.37,1351.84,383.5Zm-31.66,32.4c2.47-2.38,2.34-6.53,5.31-9.09a1.92,1.92,0,0,0-.38-3c3.3-1.81,3.87-7.19,8.32-7.91,3.94-.64.08-2.41-1-2.81,6.93,1.07,18-8.66,19.38-9.58-2.27.72-15.41,4.36-17.16,4.17-3.5-.39-7-.16-9.45-3.42-1.56-2.09,4.92-12.06,4.34-11.77,1.27-.62-1.78-4.72-3.1-5.32-9.22-4.23-11.69-18-14.24-26.74-.71-2.45-4.54-1.4-3.83,1.06,2.67,9.15,8.34,17.34,11.18,25.92.93,2.82,2.08.87,2.16,1.2.21.8-1.86,2.51-1.73,3.72,1.64,14.78-6.89,17.09,2.14,18.54a13.2,13.2,0,0,1-2.25,1.47,2,2,0,0,0,.47,3.63c-2.63,2.07,1.15,4.14-1.49,6.21a2,2,0,0,0,0,3.83C1322.71,407.09,1317.46,418.51,1320.18,415.9Z"/></g><g class="cls-5"><path class="cls-18" d="M1381.22,403.61l0-.27c-1.2-4.38-1.62-9.45,0-13.75a3.27,3.27,0,0,0,1.64-.8,4.11,4.11,0,0,0,.82-1.15l.28-1.82a2.78,2.78,0,0,0-.1-.55l.19-.06,1.63-10.42a1.86,1.86,0,0,0-1.32,1.29,13.69,13.69,0,0,1-1.31,2.79.58.58,0,0,0-.14,0,38,38,0,0,1-17.08,3.16c-2.62-.1,3.2,3.17,5.66,3.56,6.67,1.05,1.63,2.21,5.29,3.29a9.69,9.69,0,0,0-.29,1.09c-.76,4.84-3.46,5.53-2.09,10.21C1375,402.27,1381.22,403.61,1381.22,403.61Z"/></g><g class="cls-19"><path class="cls-18" d="M1321.34,380.11l3.42,15,50.86-1.94,7.86-4.1-2.26,14.51.46,3.42-.46-.22L1323,419.27a19.83,19.83,0,0,1-16.18-3.64l1.7-16.82-.62-14.28Z"/></g><path class="cls-17" d="M1321.34,376.91l3.42,15,50.86-1.94,17.21-9,10-7v1.86a9.35,9.35,0,0,1-3.5,7.29l-.9.73,4.4,3.45,2.44,1.79a5.88,5.88,0,0,1,1.82,7.32l-1.68,3.45a10.89,10.89,0,0,1-9.81,6.14h-9.19l-5.2-2.4L1323,416.07a19.86,19.86,0,0,1-22.71-12.31l-6.8-17.7Z"/><g class="cls-12"><polygon class="cls-18" points="1322.35 381.38 1295.09 390.33 1293.45 386.06 1321.34 376.9 1322.35 381.38"/></g><path class="cls-9" d="M1307.4,294.48l-20.66,19.09a27.32,27.32,0,0,0-8.07,26.19l11,47.55,35.11-11.53-8.46-34.9,2.3-34.6Z"/><path class="cls-18" d="M1340.78,272.47c-.06-4.23.46-8.37.61-12.52.16-4.34-.83-8.76-.67-13.16a73.73,73.73,0,0,1,5.22-24.7,3.55,3.55,0,0,1,1.12-1.72,3.75,3.75,0,0,1,2-.43c3.21,0,6.67,0,9.21,2,2.26,1.75,3.28,4.62,4.17,7.34,1.8,5.56,5.44,12.77,5.56,18.62.11,5.49-2.77,11.32-3.9,16.64-1.8,8.43-.77,17.21-1.8,25.76-.51,4.22-1.42,8.69-.67,12.94.69,3.87,4,7,6.64,9.77a2.39,2.39,0,0,0,.6.5,2.93,2.93,0,0,0,1.1.23,7.41,7.41,0,0,1,5.61,3.79c-.95,1.34-3,1.24-4.54.72s-3.22-1.28-4.79-.79c0,1.19,1.68,2,1.39,3.16-.19.75-1.09,1-1.86,1.1-4.84.44-5.39-1.67-7.12-5.23-2.54-5.21-1.52,3.89-1.27,5.33a5.24,5.24,0,0,1-3.16-2.35c-.76-1.11-1.27-2.38-1.94-3.55-1.59-2.79-4-5-5.59-7.83a43.05,43.05,0,0,1-5.64-20.68Q1340.89,279.94,1340.78,272.47Z"/><path class="cls-17" d="M1332,316.33h0a12.51,12.51,0,0,0,12.51-12.51V270.41h-25v33.41A12.51,12.51,0,0,0,1332,316.33Z"/><g class="cls-12"><polygon class="cls-18" points="1319.52 288.83 1344.55 296.84 1344.55 270.41 1319.52 270.41 1319.52 288.83"/></g><path class="cls-17" d="M1361.56,248.52v14.76a10.87,10.87,0,0,1-1.4,5.35l-11.35,20.23a5.66,5.66,0,0,1-5,2.9h-5.93a5.65,5.65,0,0,1-3.86-1.51l-13-12a10.21,10.21,0,0,1-3.28-7.5V238.38s12.07-12.8,29.36-8.44A19.14,19.14,0,0,1,1361.56,248.52Z"/><path class="cls-11" d="M1352,276.28h-17.35S1342.42,291.76,1352,276.28Z"/><path class="cls-18" d="M1351.81,218c-2.42-1.16-5.23-1-7.87-1.5-3-.57-5.77-2-8.75-2.61-7.06-1.47-14.5,1.84-19.45,7.09s-7.74,12.16-9.62,19.12a95.44,95.44,0,0,0-2.22,38.9c.87,5.77,3.24,11.45,3.71,17.23.43,5.32,2,8,5.53,12.22l6.47,7.69a28.76,28.76,0,0,0,5.49,5.42c1.66,1.13,3.89,1.47,5.28,2.75,1.29-1.4,1.2-3.44.73-5.18s-1.31-3.45-1.39-5.27a7,7,0,0,0,5.46,3.54c.75,0,2.73.26,2.93-.79.26-1.31-1.21-1-1.74-1.62a.94.94,0,0,1-.15-.68c0-.75,0-1.51.08-2.27a10.39,10.39,0,0,0,6.44.61l-11.46-8.86c-5.31-4.11-8.12-12.52-9.64-18.87a109.83,109.83,0,0,1-2.78-18.83,36.61,36.61,0,0,1,.5-8.62c.53-3.05.19-6.11.84-9.11a7.05,7.05,0,0,1,1.08-2.66c1-1.42,2.8-2.09,4.45-2.68,5.46-2,11-3.94,16.71-4.71a71,71,0,0,0,8.13-1.13,11.2,11.2,0,0,0,6.78-4.32C1360.52,228,1356.6,220.31,1351.81,218Z"/><polygon class="cls-20" points="1524.66 451.33 1503.74 598.73 1503.22 718.87 1535.04 718.87 1541.61 613.97 1570.95 507.9 1597.92 616.38 1614.49 718.87 1647.49 718.87 1615.41 451.33 1524.66 451.33"/><path class="cls-18" d="M1501.46,717.6l-4.88,5.29-25.72,3c-5.89,2-6.92,3.23-8.73,9.2l-.45,1.48h53.07l3.77-4.71v4.71h17.41V717.6h-34.47Z"/><path class="cls-18" d="M1648.08,717.6l4.87,5.29,25.72,3c5.89,2,6.92,3.23,8.73,9.2l.45,1.48h-53.06l-3.78-4.71v4.71H1613.6V717.6h34.48Z"/><path class="cls-11" d="M1558,281.71l-35.72,19.84,3.15,84.19-2.65,55.17a10,10,0,0,0,9.94,10.42h73.76a10,10,0,0,0,9.92-10.73l-4.57-57.12,17.88-79.6-39.9-22.17Z"/><polygon class="cls-17" points="1589.84 282.69 1573.94 311.79 1558.03 282.69 1558.03 262.03 1589.84 262.03 1589.84 282.69"/><path class="cls-9" d="M1603.56,219.15a17.1,17.1,0,0,0-1.6-3.86l-3.9-7.61c-2.33-4.55-4.68-3.93-8.94-5.29-3.83-1.21-7.24-3.81-11.37-4a14.64,14.64,0,0,0-7.34,2,13.69,13.69,0,0,1-2.9,1.3c-1.74.44-3.57,0-5.36.07a10.12,10.12,0,0,0-9.24,7.41,6.86,6.86,0,0,1-.65,2,7,7,0,0,1-1.23,1.33c-5.46,5.21-2.24,14-1.37,20.37.49,3.58.07,7.32,3,10l-1.46-.36c3.58,3.55,8.46,5.57,13.42,6.51a76.82,76.82,0,0,0,15.09.84l18.22-.2a5.37,5.37,0,0,0,3.31-.77c1-.81,1.31-2.24,1.49-3.55,1-6.92.32-13.83.91-20.85A17.25,17.25,0,0,0,1603.56,219.15Z"/><g class="cls-12"><path class="cls-18" d="M1558,273.9l4.46,7.74a16.36,16.36,0,0,0,27.35,1.56V262H1558Z"/></g><path class="cls-17" d="M1555.47,230.14v24.23a31.13,31.13,0,0,0,4.16,15.56l4.67,8.1a16.42,16.42,0,0,0,14.21,8.2h0a16.39,16.39,0,0,0,14-7.89l1-1.55a31.2,31.2,0,0,0,4.52-16.16V216h-41.92Z"/><path class="cls-17" d="M1555.79,258l-4.87-2.57s-5.13-7.5-2.76-12.63c0,0,1.78-4.34,5.13-2.37l4.74,4.74Z"/><path class="cls-17" d="M1596.82,258l4.87-2.57s5.13-7.5,2.76-12.63c0,0-1.78-4.34-5.13-2.37l-4.74,4.74Z"/><path class="cls-9" d="M1554.12,234.05a82.26,82.26,0,0,1,.92,11.4c0,1.5-.68,5.88,2.54,4.73a2.65,2.65,0,0,0,1.39-2.46c.24-3.68-2.81-6.81-1.06-10.21,1.27-2.48,4.26-4,4.8-6.87.38-2-.69-4-.94-6.09a6,6,0,0,1,1.14-4.51,4,4,0,0,1,4.27-1.36c1.47.5,2.38,1.91,3.49,3a9.54,9.54,0,0,0,9.93,2c2-.81,3.71-2.29,5.55-3.46s4.1-2,6.2-1.41c3,.9,4.35,4.37,5,7.45s1.44,7.05,1.08,10.34c-.3,2.68-1.85,5.16-2.48,7.84a6.45,6.45,0,0,0-.25,1.95,7.3,7.3,0,0,0,1.33,3.27.8.8,0,0,0,.33.35.77.77,0,0,0,.71-.25c1.79-1.6,2.32-4.15,2.76-6.51.57-3.12,1.63-5.22.82-8.41-1.22-6.45.32-13.16-.75-19.63a3.89,3.89,0,0,0-.66-1.86,4.19,4.19,0,0,0-2-1.18c-9.17-3.16-19.13-2.81-28.83-2.42-3.42.14-7,.33-9.92,2.11-3.44,2.11-5.33,6.14-5.87,10.14S1553.65,230,1554.12,234.05Z"/><path class="cls-11" d="M1572.2,267.74l15.68-.68S1581.4,283.8,1572.2,267.74Z"/><path class="cls-17" d="M1470.34,353.59l-1.42-4-42.82-27.43h0a7.52,7.52,0,0,1,9.29-1.06l8.5,5.29,3.06-.67a9.58,9.58,0,0,1,7.21,1.3l4.2,2.68,14.17,4.27a12.86,12.86,0,0,1,8.29,7.71l3,7.91Z"/><path class="cls-17" d="M1677.53,353.59l1.42-4,42.83-27.43h0a7.53,7.53,0,0,0-9.3-1.06l-8.5,5.29-3.06-.67a9.59,9.59,0,0,0-7.21,1.3l-4.2,2.68-14.17,4.27a12.86,12.86,0,0,0-8.29,7.71l-3,7.91Z"/><path class="cls-11" d="M1558,281.71l-42.18,23.44a25.39,25.39,0,0,0-13,20.27l-3.48,45.85L1485.81,349l-18.1,5.43,25.68,56.91a10.14,10.14,0,0,0,13.71,5,17.22,17.22,0,0,0,8.26-8.27l13.57-67.55,29.1-43.2Z"/><path class="cls-11" d="M1589.84,281.71,1632,305.15a25.41,25.41,0,0,1,13,20.27l3.49,45.85L1662.07,349l18.09,5.43-25.67,56.91a10.15,10.15,0,0,1-13.72,5,17.22,17.22,0,0,1-8.26-8.27l-13.57-67.55-29.1-43.2Z"/><rect class="cls-18" x="1524.19" y="446.45" width="91.89" height="13.99"/><rect class="cls-10" x="1561.42" y="446.45" width="15.82" height="13.99"/><g class="cls-3"><path class="cls-21" d="M1611.86,383.48l8.32-37.05a105.49,105.49,0,0,0-7.31,13.43,3.58,3.58,0,0,0,1.4,4.61c-1.63,4-8.72,11.26-11.6,14-2.22,2.41,4.21,2.71,6.86,2.06l.24-.06a91.16,91.16,0,0,1-6.09,9.41c-1.41,1.93-4.88,4.56-2.84,4.19,1.73-.31,8.1.7,9.77.24-.78,2.22-1.61,4.4-2.53,6.62s.48,4.85,2.2,4.89c-1.32,0,.52,13,.78,14.29a27.14,27.14,0,0,0,3.66,9.62l-1.85-32.23.08-.45Z"/></g><g class="cls-3"><path class="cls-21" d="M1533.35,391.66q-10.85-5.45-6.47-11c2.93.84,6.95.15,9.88,1,1.82.52.8-1.81-5-2.43,1,.11-6.47-9.12-3.81-9.27a2,2,0,0,0,1.74-3c-3.22-5.49-3.6-13.55-5.73-20.14l1,28.09,2.08,1.66-2-.58.37,9.81-.16,3.39c.26.42.5.85.8,1.25l-.86,0-2,42.52a1.78,1.78,0,0,0,.76-1.55c0-8.59,2.76-16.17,3.75-24.53.31-2.66-2-13.15,4.09-11.5A2,2,0,0,0,1533.35,391.66Z"/></g><polygon class="cls-2" points="1558.03 281.7 1548.66 286.91 1559.69 326.2 1573.94 311.79 1558.03 281.7"/><polygon class="cls-2" points="1589.84 281.7 1599.21 286.91 1588.18 326.2 1573.94 311.79 1589.84 281.7"/><circle class="cls-18" cx="1573.94" cy="325.52" r="1.62"/><circle class="cls-18" cx="1573.16" cy="346.69" r="1.62"/><circle class="cls-18" cx="1572.39" cy="367.86" r="1.62"/><circle class="cls-18" cx="1571.62" cy="389.03" r="1.62"/><circle class="cls-18" cx="1570.84" cy="410.2" r="1.62"/><circle class="cls-18" cx="1570.07" cy="431.37" r="1.62"/><g class="cls-22"><path class="cls-18" d="M1541.6,614l-3.36,53.83a12.81,12.81,0,0,1-1.34.8,212.3,212.3,0,0,0-7.79-49.38,13.06,13.06,0,0,0,7.27-5l-5.7-.64a8.2,8.2,0,0,0,3.45-3.64l-12.49-.15c11.42-2.59,20.2-13.9,19.88-25.6a6.59,6.59,0,0,1-4.59-.85l12.63-19.74c.73-1.14,1.49-2.52,1-3.79a17.2,17.2,0,0,1-7.57,3.63c3.15-3.84,6.36-7.78,8-12.48,1.88-5.53,1.34-11.56,2.24-17.32a35.38,35.38,0,0,1,17.6-25.1Zm30.12-103c0-.78,0-1.56-.08-2.35l-.45-.38a.57.57,0,0,1-.13.08Z"/></g><g class="cls-22"><path class="cls-18" d="M1646.54,711,1616,456.46l-1.08-.19-.49,1.23a203.78,203.78,0,0,0,1.27,49.84c1.45,9.67,3.59,19.54,1.57,29.1-.68,3.23-2.06,5.77-3.27,8.72-1.5,3.67-1.76,8.38-2.48,12.28a100.62,100.62,0,0,0-1.66,12.16c-.26,4.35-1.54,8.55-1.55,13,0,.51,16.32-3.33,18.07-5a117.91,117.91,0,0,1-7,22.33,30.77,30.77,0,0,1,7.52-10,54.2,54.2,0,0,0-5.14,16.57l10-1.11q-4.32,9.44-8.62,18.88l10.61-5.58q-1.3,23.5-2.6,47c-.34,6-.63,12.23,1.67,17.78,1.7,4.1,4.69,7.52,7,11.33a36,36,0,0,1,4.84,21.86C1645.33,714.8,1645.91,712.9,1646.54,711Z"/></g><path class="cls-14" d="M762.43,121.62a9.38,9.38,0,1,1,9.38-9.37A9.38,9.38,0,0,1,762.43,121.62Zm0-13.76a4.39,4.39,0,1,0,4.39,4.39A4.39,4.39,0,0,0,762.43,107.86Z"/><path class="cls-14" d="M361.84,216.41a5,5,0,1,1,5-5A5,5,0,0,1,361.84,216.41Zm0-7.3a2.33,2.33,0,1,0,2.33,2.33A2.33,2.33,0,0,0,361.84,209.11Z"/><path class="cls-14" d="M1475.88,25.92a5,5,0,1,1,5-5A5,5,0,0,1,1475.88,25.92Zm0-7.29a2.33,2.33,0,1,0,2.33,2.33A2.32,2.32,0,0,0,1475.88,18.63Z"/><path class="cls-14" d="M1122.48,56.37a9.38,9.38,0,1,1,9.38-9.37A9.38,9.38,0,0,1,1122.48,56.37Zm0-13.76a4.39,4.39,0,1,0,4.39,4.39A4.39,4.39,0,0,0,1122.48,42.61Z"/><path class="cls-23" d="M538.21,216.58a6.29,6.29,0,1,1,6.29-6.28A6.29,6.29,0,0,1,538.21,216.58Zm0-9.23a2.95,2.95,0,1,0,2.94,3A2.95,2.95,0,0,0,538.21,207.35Z"/><path class="cls-23" d="M1075.34,157.59a6.29,6.29,0,1,1,6.28-6.29A6.29,6.29,0,0,1,1075.34,157.59Zm0-9.23a2.94,2.94,0,1,0,2.94,2.94A2.94,2.94,0,0,0,1075.34,148.36Z"/><path class="cls-23" d="M667,50.34a6.29,6.29,0,1,1,6.28-6.28A6.29,6.29,0,0,1,667,50.34Zm0-9.23a2.95,2.95,0,1,0,2.94,3A2.95,2.95,0,0,0,667,41.11Z"/><path class="cls-23" d="M1336.1,33.53a6.29,6.29,0,1,1,6.28-6.29A6.29,6.29,0,0,1,1336.1,33.53Zm0-9.23a2.95,2.95,0,1,0,2.94,2.94A2.94,2.94,0,0,0,1336.1,24.3Z"/><path class="cls-14" d="M677.59,96H673v-4.6a2.6,2.6,0,0,0-5.2,0V96h-4.6a2.6,2.6,0,1,0,0,5.2h4.6v4.61a2.6,2.6,0,0,0,5.2,0v-4.61h4.61a2.6,2.6,0,1,0,0-5.2Z"/><path class="cls-14" d="M1368.53,234.11h-4.6V229.5a2.6,2.6,0,0,0-5.2,0v4.61h-4.61a2.6,2.6,0,1,0,0,5.2h4.61v4.6a2.6,2.6,0,1,0,5.2,0v-4.6h4.6a2.6,2.6,0,1,0,0-5.2Z"/><path class="cls-14" d="M1220.91,80h-4.61V75.35a2.6,2.6,0,1,0-5.2,0V80h-4.6a2.6,2.6,0,1,0,0,5.2h4.6v4.6a2.6,2.6,0,1,0,5.2,0v-4.6h4.61a2.6,2.6,0,0,0,0-5.2Z"/><path class="cls-23" d="M344.59,149.57h-3.07v-3.08a1.74,1.74,0,0,0-3.48,0v3.08H335a1.74,1.74,0,1,0,0,3.47H338v3.07a1.74,1.74,0,0,0,3.48,0V153h3.07a1.74,1.74,0,1,0,0-3.47Z"/><path class="cls-23" d="M937.83,4.81h-3.07V1.74a1.74,1.74,0,1,0-3.47,0V4.81h-3.08a1.74,1.74,0,1,0,0,3.47h3.08v3.08a1.74,1.74,0,0,0,3.47,0V8.28h3.07a1.74,1.74,0,1,0,0-3.47Z"/><path class="cls-23" d="M1510.32,96.47h-3.07V93.4a1.74,1.74,0,1,0-3.47,0v3.07h-3.08a1.74,1.74,0,0,0,0,3.48h3.08V103a1.74,1.74,0,1,0,3.47,0V100h3.07a1.74,1.74,0,1,0,0-3.48Z"/><path class="cls-23" d="M1236,184.61h-3.08v-3.07a1.74,1.74,0,1,0-3.47,0v3.07h-3.07a1.74,1.74,0,1,0,0,3.47h3.07v3.08a1.74,1.74,0,0,0,3.47,0v-3.08H1236a1.74,1.74,0,0,0,0-3.47Z"/><path class="cls-23" d="M893.39,228.67h-3.08V225.6a1.74,1.74,0,1,0-3.47,0v3.07h-3.08a1.74,1.74,0,0,0,0,3.48h3.08v3.07a1.74,1.74,0,1,0,3.47,0v-3.07h3.08a1.74,1.74,0,0,0,0-3.48Z"/><path class="cls-23" d="M702,190.84l-2.05,2.06-2.06-2.05a1.62,1.62,0,0,0-2.32,0,1.64,1.64,0,0,0,0,2.32l2.05,2.05-2.05,2.06a1.64,1.64,0,0,0,2.32,2.32l2.06-2.06L702,199.6a1.64,1.64,0,0,0,2.33-2.32l-2.06-2.06,2.06-2.05a1.65,1.65,0,0,0-2.33-2.33Z"/><path class="cls-14" d="M388.1,77.6l-2.05,2.05L384,77.6a1.62,1.62,0,0,0-2.32,0,1.64,1.64,0,0,0,0,2.32l2.06,2L381.67,84A1.64,1.64,0,0,0,384,86.35l2.06-2,2.05,2A1.64,1.64,0,0,0,390.43,84L388.37,82l2.06-2a1.64,1.64,0,0,0-2.33-2.32Z"/><path class="cls-14" d="M326.79,287.69l-2.06,2.06-2.05-2.06a1.64,1.64,0,0,0-2.33,2.32l2.06,2.06-2.06,2.05a1.65,1.65,0,0,0,2.33,2.33l2.05-2.06,2.06,2.06a1.64,1.64,0,1,0,2.32-2.33l-2.06-2.05,2.06-2.06a1.64,1.64,0,0,0-2.32-2.32Z"/><path class="cls-14" d="M1141.71,194.64l-2,2.06-2.06-2.06a1.64,1.64,0,0,0-2.32,2.32l2,2.06-2,2a1.64,1.64,0,0,0,2.32,2.33l2.06-2.06,2,2.06a1.64,1.64,0,0,0,2.32-2.33l-2-2,2-2.06a1.62,1.62,0,0,0,0-2.32A1.64,1.64,0,0,0,1141.71,194.64Z"/><path class="cls-14" d="M1610.67,106l-2.06,2-2-2a1.64,1.64,0,0,0-2.32,0,1.62,1.62,0,0,0,0,2.32l2,2-2,2.06a1.62,1.62,0,0,0,0,2.32,1.64,1.64,0,0,0,2.32,0l2-2,2.06,2a1.64,1.64,0,0,0,2.32-2.32l-2-2.06,2-2a1.64,1.64,0,0,0-2.32-2.32Z"/><path class="cls-14" d="M1007.77,11.57l-2.06,2.06-2.05-2.06a1.64,1.64,0,0,0-2.33,2.32l2.06,2.06L1001.33,18a1.64,1.64,0,1,0,2.33,2.32l2.05-2.06,2.06,2.06a1.64,1.64,0,1,0,2.32-2.32L1008,16l2.06-2.06a1.64,1.64,0,1,0-2.32-2.32Z"/><path class="cls-14" d="M851.31,48.89a4.84,4.84,0,1,1-4.84-4.83A4.83,4.83,0,0,1,851.31,48.89Z"/><path class="cls-14" d="M413.3,192.75a2.46,2.46,0,1,1-2.45-2.45A2.46,2.46,0,0,1,413.3,192.75Z"/><path class="cls-14" d="M1157.72,130.21a3.23,3.23,0,1,1-3.22-3.23A3.22,3.22,0,0,1,1157.72,130.21Z"/><circle class="cls-14" cx="977.62" cy="241.24" r="3.22"/><path class="cls-14" d="M1549.87,216.75a3.23,3.23,0,1,1-3.22-3.23A3.22,3.22,0,0,1,1549.87,216.75Z"/><rect class="cls-24" x="225.41" y="634.74" width="892.19" height="102.76"/><rect class="cls-17" x="255.2" y="677.4" width="21.76" height="28.34"/><rect class="cls-17" x="432.02" y="677.4" width="21.76" height="28.34"/><polygon class="cls-10" points="337.76 431.52 306.5 439.59 300.19 504.58 308.87 589.94 391.95 591.7 398.15 507.26 392.75 440.04 372.42 431.52 337.76 431.52"/><path class="cls-9" d="M275.92,611.4l17.95,16.08a28.39,28.39,0,0,0,18.95,7.25h69a28.35,28.35,0,0,0,17.53-6.06l27.28-21.4-3.38-47.44-58,24.56h-39l-50.34-27.34-5.53,17.21Z"/><path class="cls-25" d="M275.92,611.4l17.95,16.08a28.39,28.39,0,0,0,18.95,7.25h69a28.35,28.35,0,0,0,17.53-6.06l27.28-21.4-3.38-47.44-58,24.56h-39l-50.34-27.34-5.53,17.21Z"/><path class="cls-11" d="M255.05,700a63.14,63.14,0,0,1-14.43,30.48v7h42.24l.82-9.77s-6.22-15.65-6.84-23C276.84,704.72,274.7,694,255.05,700Z"/><path class="cls-10" d="M283.47,730.21s-35.23-2.13-42.85.3v7h42.24Z"/><rect class="cls-25" x="255.2" y="707.51" width="11.82" height="2.92"/><rect class="cls-25" x="254.18" y="711.86" width="11.82" height="2.92"/><rect class="cls-25" x="251.88" y="717.41" width="11.82" height="2.92"/><path class="cls-11" d="M453.43,700a63.14,63.14,0,0,0,14.43,30.48v7H425.62l-.82-9.77s6.22-15.65,6.84-23C431.64,704.72,433.79,694,453.43,700Z"/><path class="cls-10" d="M425,730.21s35.23-2.13,42.85.3v7H425.62Z"/><rect class="cls-25" x="441.46" y="707.51" width="11.82" height="2.92"/><rect class="cls-25" x="442.48" y="711.86" width="11.82" height="2.92"/><rect class="cls-25" x="444.78" y="717.41" width="11.82" height="2.92"/><path class="cls-25" d="M255.36,697.35H279s5.87-95.41,3.15-133.35a7.65,7.65,0,0,0-7.65-7.08h-8.43c-15.42,0-26.14,12.79-27.23,28.17C236,624.91,255.36,697.35,255.36,697.35Z"/><path class="cls-25" d="M453.61,700H430s-13.58-96.89-11.59-134.22a6.54,6.54,0,0,1,6.54-6.21h9.39a27.22,27.22,0,0,1,27.22,28.17C460.22,625.54,453.61,700,453.61,700Z"/><path class="cls-26" d="M350.73,565.7l-31.91-3a2,2,0,0,1-2-2V516.11a2,2,0,0,1,2-2l31.91,3Z"/><path class="cls-18" d="M350.73,565.7l31.91-3a2,2,0,0,0,2-2V516.11a2,2,0,0,0-2-2l-31.91,3Z"/><g class="cls-3"><path class="cls-27" d="M435.8,606.81l1.57,0c-3.39.05-7.53-2.75-9.09-5.65s.44-8.8-3.36-9.54c-3-.58-11.94,5.94-14.81,7.39L395,606.6c-4.45,2.24-9,4.51-13.88,5.39-8.69,1.55-17.51-1.4-26.34-1.73-6.7-.25-13.47,1-20.07-.17a47.89,47.89,0,0,1-9.8-3.16c-13.45-5.56-26.46-12.72-40.78-15.3-1.9-.34-7.12-2.41-8.31-1.15-1.36,1.43,1.06,9.12,1.45,10.91a23,23,0,0,0-7.72-7.89,74.49,74.49,0,0,0,7.76,26.61c-2.45-2-4.86-4.11-7.39-6,1.68,4.17,5.26,6.72,7,10.58,2.2,4.79,1.12,12.18,1.31,17.37.05,1.18,0,2.58-1,3.23a22.5,22.5,0,0,0-8.5-8.19,32.79,32.79,0,0,1,3.16,12.9,20,20,0,0,1-7.13-6c-.8-1.09-2-2.42-3.21-1.87s-1.09,2.06-.89,3.26a18.74,18.74,0,0,0,2,6.72c3.2,5.26,10,7.53,13.76,12.49,1.28,1.7,2.66,3.32,4,5,.73-14.84,1.54-33.81,2-52.32l11.38,10.2a28.39,28.39,0,0,0,18.95,7.25h69a28.35,28.35,0,0,0,17.53-6.06l20.74-16.27c1.66,20.44,4.12,42.27,6.16,59,.17-.38.35-.75.51-1.14a30.2,30.2,0,0,0,3.24,2.24c1.54-6.16,1.37-14.38-1.61-20.13-.5-.94-1.14-1.81-1.6-2.77-1.36-2.87-.93-6.22-.48-9.36a30,30,0,0,0,6.77,4.41c.51.24,1.3.36,1.49-.18-.93-6.09-5.34-10.94-8.46-16a32.28,32.28,0,0,1,13.41-1.59l1-.64A18.55,18.55,0,0,1,435.8,606.81Z"/></g><g class="cls-19"><path class="cls-18" d="M308.87,504.06c2.05.52,5.35,1.12,3.58,0a101.54,101.54,0,0,1-14.33-11.25l.56,5.51c.66.57,1.33,1.14,2,1.69a1.8,1.8,0,0,0-1.73,1l.3,3a21.21,21.21,0,0,1,2.13.57l-.54-.06a1.57,1.57,0,0,0-1.46.76l.25,2.46.63.49a.91.91,0,0,0,.13.08,1.47,1.47,0,0,0-.63.67l3.53,34.71c.5,3.54.86,7.08,1.08,10.64l1.86,18.27a1.85,1.85,0,0,0,1.89-1.76,141.8,141.8,0,0,0-2.63-36.43,90.94,90.94,0,0,1-1.65-21.5c.11-4.12,4.73-.59,3.9-3,.07-.45-3.48-4.23-3.69-4.58C302.06,501.78,305,503.09,308.87,504.06Z"/></g><path class="cls-17" d="M316.83,526.89l-5.3-.21-9.34,9.1H283.68l7.92-19.69-26.44-4.35-11.81,36.89a6.76,6.76,0,0,0,6.6,8.82l40.93-1.38,11.57,3.76,12-3.68,10.76-5.84,1-9.86A2.22,2.22,0,0,0,334,538H322.58l-7.36-3.51h1.61Z"/><g class="cls-12"><polygon class="cls-18" points="263.67 516.4 289.75 520.69 291.61 516.09 265.16 511.74 263.67 516.4"/></g><path class="cls-10" d="M314,461.29l23.77-29.77-37.6,9.7a28.58,28.58,0,0,0-19.79,18.13L261.5,511.13l34.78,5.72Z"/><g class="cls-19"><path class="cls-18" d="M396.59,528.57l1.56-21.31-.08-1.08a1.55,1.55,0,0,0-.71,0l-1.08.23a5.9,5.9,0,0,1,1.64-2.06l-.31-3.78c-1.57.14.43-.6-1.15-.47,1.53-1.15-.56-1.48.9-2.73l-.32-3.92a81.26,81.26,0,0,1-10.58,8.22c-1.2.78,1.48,1,3.15.89,2-.17,1.7,1.7,3.72,1.53-.35,1.23-.71,2.47-1.06,3.71a1.6,1.6,0,0,0,1.33,2.35c-.3.34-1.14,2.91-1.44,3.25-1.35,1.33.9,1,2.45.25l1.44-.52-1.22,1.5a1.75,1.75,0,0,0-.26,1.73c-.81.67-2.4,4.93-3.22,5.84-1.13,1.25,1.22.1,2.71-1,.65-.5,1.22-.91,1.72-1.29-.41.72-.8,1.46-1.26,2.17s.5,3.11,1,3.55c-1.29,2.77-3.27,3.9-4.57,6.67a1.64,1.64,0,0,0,.57,2.16l1.59,1.12a1.54,1.54,0,0,0,1.59,0c-1.12.66-2.17,15-2.65,17.93a74.34,74.34,0,0,0-1.19,12.91,1.58,1.58,0,0,0,2.87.85l2.6-35.39a1.45,1.45,0,0,0-1.53,0A10,10,0,0,0,396.59,528.57Z"/></g><path class="cls-17" d="M430.85,511.74l11.81,36.89a6.76,6.76,0,0,1-6.6,8.82l-39.71-1.38-11.57,3.76-11.95-3.68-10.76-5.84-1-9.86a2.21,2.21,0,0,1,2.2-2.43h11.37l7.37-3.51h-3.17l-4,.59a4,4,0,0,1-4.54-3.91h0L378,527l7.68-.3,9.33,9.1h17.29l-7.92-19.69Z"/><g class="cls-12"><polygon class="cls-18" points="430.85 511.74 404.4 516.09 405.89 519.77 432.04 515.47 430.85 511.74"/></g><path class="cls-10" d="M383.5,461.29l-23.77-29.77,37.6,9.7a28.58,28.58,0,0,1,19.79,18.13L436,511.13l-34.78,5.72Z"/><path class="cls-17" d="M350.88,466.26h0a15.39,15.39,0,0,1-15.4-15.4V424.15h30.8v26.71A15.4,15.4,0,0,1,350.88,466.26Z"/><path class="cls-18" d="M377.89,398.06c-.62,7.85-.95,17-8.62,21.49a6.38,6.38,0,0,1-1.89.79,6.45,6.45,0,0,1-1.7.06,17,17,0,0,1-6.61-1.86,8.15,8.15,0,0,0-2.21-1c-2.57-.51-4.66,1.89-6.82,3.37-4.09,2.78-9.55,2.39-14.32,1.11-2.72-.74-5.79-2.2-6.22-5-.22-1.41.31-2.92-.25-4.23a7.24,7.24,0,0,0-2.37-2.4c-2-1.63-1.87-4.81-1.93-7.24,0-1.95-.09-3.91-.13-5.86a16.41,16.41,0,0,0-.23-2.89c-.23-1.15-.71-2.25-.83-3.42-.15-1.43.59-1.88,1.05-3,.4-1,.22-2,.76-3a36.26,36.26,0,0,1,2.38-3.16c1-1.42,1.7-3,2.67-4.51a6.57,6.57,0,0,1,4-3.11c.65-.13,1.31-.1,2-.22,1.94-.36,3.35-2,4.85-3.24a17.2,17.2,0,0,1,4.94-2.94,8.79,8.79,0,0,1,4-.7c1.8.18,3.47,1.19,5.28,1.11.85,0,1.68-.32,2.54-.36,2.08-.09,4,1.26,6.05,1.44,5.32.46,11.37,5.35,11.13,10.93a5.31,5.31,0,0,0,.12,2c.36,1,1.36,1.56,1.88,2.45,1.22,2.08-.51,4.71-.16,7.08.11.7.39,1.36.56,2A12.7,12.7,0,0,1,377.89,398.06Z"/><path class="cls-17" d="M336.87,424.76a7.07,7.07,0,0,1-7.79-5.38s-4.72-12.73,0-13.34c0,0,9.94,6.49,9.94,9.38S336.87,424.76,336.87,424.76Z"/><path class="cls-17" d="M368.42,424.76a7.07,7.07,0,0,0,7.79-5.38s4.72-12.73,0-13.34c0,0-9.93,6.49-9.93,9.38S368.42,424.76,368.42,424.76Z"/><g class="cls-12"><path class="cls-18" d="M335.48,445.25a22.68,22.68,0,0,0,6.72,6.24,18.84,18.84,0,0,0,19.08.23l.55-.31a23.06,23.06,0,0,0,4.45-3.35V431.52h-30.8Z"/></g><path class="cls-17" d="M361.83,446.49l-.55.32a18.75,18.75,0,0,1-9.34,2.48h0a18.9,18.9,0,0,1-9.74-2.71h0a22.81,22.81,0,0,1-11-19.53V389.46h42.15v37.22A22.81,22.81,0,0,1,361.83,446.49Z"/><path class="cls-18" d="M376.84,381.44a10.24,10.24,0,0,0-3.55-2.87c-13.51-7.55-32-4.56-42.49,6.85a18.88,18.88,0,0,0-3.58,5.28c-1.93,4.58-1.07,9.8,0,14.64l-.63.18c1.38-.13,3.52-.07,4.68-.82a3.47,3.47,0,0,0,1.57-2.83,1.33,1.33,0,0,1,.2-.95c.29-.3.78-.2,1.19-.16a3.45,3.45,0,0,0,3.64-4.63,2,2,0,0,0,2.22-.56c1.37-1.42.5-4.13,1.9-5.4,2.25-2,3.85,1.75,5.67,2.87a4.86,4.86,0,0,0,5.58-.48c-.85,1.62.38,3.76,2.12,4.33a6.09,6.09,0,0,0,5.18-1.07c.14.32.28.65.41,1,6.79,4.71,16.91,7.4,18.53-3.73C379.91,390.3,378.49,383.78,376.84,381.44Z"/><g class="cls-12"><path class="cls-18" d="M352.26,424.36a3.71,3.71,0,0,1-3.61-2.87,3.86,3.86,0,0,0-.1.84,3.71,3.71,0,0,0,7.41,0,3.86,3.86,0,0,0-.1-.84A3.71,3.71,0,0,1,352.26,424.36Z"/></g><path class="cls-14" d="M331.74,290.85v55.46A12.68,12.68,0,0,1,319.06,359h-5.84V389.1a1.43,1.43,0,0,1-2.53.92l-32.15-31H212.36a12.68,12.68,0,0,1-12.68-12.68V290.85a12.68,12.68,0,0,1,12.68-12.68h106.7A12.68,12.68,0,0,1,331.74,290.85Z"/><path class="cls-11" d="M309.67,305.49h-87.1a3.46,3.46,0,0,1-3.46-3.46h0a3.46,3.46,0,0,1,3.46-3.46h87.1a3.45,3.45,0,0,1,3.45,3.46h0A3.45,3.45,0,0,1,309.67,305.49Z"/><path class="cls-11" d="M309.67,321.62h-87.1a3.45,3.45,0,0,1-3.46-3.45h0a3.46,3.46,0,0,1,3.46-3.46h87.1a3.45,3.45,0,0,1,3.45,3.46h0A3.44,3.44,0,0,1,309.67,321.62Z"/><path class="cls-11" d="M279,337.76H222.57a3.46,3.46,0,0,1-3.46-3.46h0a3.46,3.46,0,0,1,3.46-3.46H279a3.46,3.46,0,0,1,3.46,3.46h0A3.46,3.46,0,0,1,279,337.76Z"/><rect class="cls-17" x="1103.96" y="696.07" width="24.55" height="19.18" transform="translate(2232.47 1411.32) rotate(180)"/><path class="cls-25" d="M1138,437.41,1104,588.31V701.48h24.55s20.33-78.52,10-111.13l40.67-94.11Z"/><polygon class="cls-25" points="1134.9 701.48 1134.9 730.13 1054.6 730.13 1054.6 720.15 1077.61 715.55 1094.75 695.85 1098.33 695.85 1103.96 705.06 1128.51 705.83 1132.09 701.48 1134.9 701.48"/><rect class="cls-18" x="1092.13" y="698.87" width="3.07" height="6.73" transform="translate(-169.38 1008.73) rotate(-46.34)"/><rect class="cls-18" x="1088.08" y="703.97" width="3.07" height="5" transform="translate(-199.36 864.27) rotate(-39.94)"/><polygon class="cls-18" points="1086.1 712.57 1088.21 710.34 1085 707.27 1082.88 709.5 1086.1 712.57"/><rect class="cls-17" x="1185.48" y="701.48" width="18.22" height="19.18" transform="translate(2389.18 1422.14) rotate(180)"/><g class="cls-12"><polygon class="cls-18" points="1135.32 449.48 1146.98 450.2 1179.15 496.24 1162.09 535.73 1152.68 491.22 1132.34 462.66 1135.32 449.48"/></g><path class="cls-25" d="M1214.44,454l-1.53,130.05c13.81,28.39-9.21,117.39-9.21,117.39h-20l-2.68-105-22.25-105.27-30.31-42.55Z"/><polygon class="cls-25" points="1157.41 729.69 1189.22 729.69 1207.54 721.17 1206.26 705.83 1203.7 709.66 1199.1 709.92 1193.47 701.48 1178.13 701.48 1157.41 729.69"/><polygon class="cls-18" points="1207.54 721.17 1207.54 727.06 1190.66 736.52 1157.41 736.52 1157.41 729.69 1189.22 729.69 1207.54 721.17"/><rect class="cls-18" x="1175.12" y="706.85" width="10.36" height="3.07"/><rect class="cls-18" x="1172.91" y="712.22" width="10.36" height="3.07"/><rect class="cls-18" x="1169.46" y="717.59" width="10.36" height="3.07"/><rect class="cls-18" x="1054.6" y="729.69" width="80.31" height="6.83" transform="translate(2189.5 1466.21) rotate(180)"/><path class="cls-17" d="M1106.6,338.17l-13.81,5.37-36.45-41.05.58-11.42a4.74,4.74,0,0,0-3.63-4.85l-5.51-1.34-.64,6.68-2.49-17.15a9.12,9.12,0,0,0-7-7.53h0a.68.68,0,0,0-.82.76l2.28,17.24-4.67,5.92a7.6,7.6,0,0,0-1.37,6.68l2.59,9.61,7.38,6.52,35.2,62.65,33.31-10.4Z"/><polygon class="cls-17" points="1163.76 320.8 1218.35 307.11 1182.41 230.41 1156.33 253.46 1168.47 288.82 1163.76 320.8"/><g class="cls-12"><polygon class="cls-18" points="1098.54 341.3 1106.6 338.17 1111.52 365.86 1102.8 368.58 1098.54 341.3"/></g><path class="cls-11" d="M1168.47,288.82l-35.9,20.78a10.56,10.56,0,0,0-1.84,1.34L1104,335.11l5.37,34.45L1177,329.32Z"/><polygon class="cls-11" points="1232.44 326.1 1218.35 457.81 1121.6 457.81 1147.31 304.04 1168.47 288.82 1185.37 308.93 1207.34 282.64 1232.44 326.1"/><path class="cls-18" d="M1185.91,242.91a129,129,0,0,0,7.78,15.67c.92,1.57,2.4,5.42,4.41,5.83,2.66.54,2.66-2.33,2.61-4.07-.07-2.83,1.25-5.5,1.63-8.31.18-1.31.16-2.63.29-3.95.3-3.15,1.45-6.14,2.15-9.23,1.38-6.11-1.13-11.29-4.08-16.54-1.49-2.64-2.86-5.48-4.6-8-2.21-3.16-5.41-3.1-8.43-5-2.34-1.5-3.9-4.37-6.63-4.86-3.39-.61-6.82,2.84-10,1.52s-6.33-3.19-10-1.15c-1.24.69-2.34,1.73-3.74,1.91a12.22,12.22,0,0,1-2.88-.27,13.78,13.78,0,0,0-5.54.95c-1.71.53-3.64,1.28-4.22,3-.35,1-.12,2.18-.59,3.14-.58,1.22-2.05,1.71-3.39,1.87a10.38,10.38,0,0,0-3.94.8c-1.88,1.08-2.42,6.64-1.54,8.41,1,2,3.53,2.79,5.77,2.67s4.41-.87,6.66-1,4.78.54,5.86,2.5a7.57,7.57,0,0,1,.67,2l2.73,11c.85,3.44,1.81,7.07,4.37,9.52a10.42,10.42,0,0,0,10.19,2.19,12.55,12.55,0,0,0,7.65-7.33,14.27,14.27,0,0,1,1.87-4c1-1.14,2.81-1.73,3.93-.74A4.07,4.07,0,0,1,1185.91,242.91Z"/><path class="cls-17" d="M1141.55,227.69v17.65l2.3,2.3s-5,6.91-4.6,14.2h4.6v8.72a13.53,13.53,0,0,0,13.53,13.53h1.72a18.9,18.9,0,0,0,18.9-18.9v-7.57s7.29-3.46,7.29-10c0,0,1.15-10-5-9.59,0,0-8.06-.38-8.44,6.14l-8.79.77V240a6.61,6.61,0,0,0-6.17-6.59h0l-.39-10.34S1146.16,221.17,1141.55,227.69Z"/><path class="cls-18" d="M1144.62,274.71c1.35-.75,1.92,1.27,2.05,2.2s.42,2,1.31,2.23a2.42,2.42,0,0,0,1.16-.09,8.47,8.47,0,0,0,1.72-.57,8.09,8.09,0,0,0,1.27-.82c1.51-1.09,2.78-2.2,2.71-4.14s-.57-3.77-2.53-4.63a10.5,10.5,0,0,0-5.1-.49c-1.31.1-3.19.76-4.12-.55a2.79,2.79,0,0,1,0-2.43,3.91,3.91,0,0,1,.58-1.28c.84-1.07,4.77-.73,6.11-.81a27.84,27.84,0,0,1,4.74-.16,5.89,5.89,0,0,1,3.91,2c.81,1,1.25,2.44,2.46,2.89a3.21,3.21,0,0,0,1.57.1,4.25,4.25,0,0,0,3.06-1.73c.93-1.49.33-3.41-.15-5.1-1.06-3.78-.6-7.72-1.63-11.4-.56-2-1.61-6.94.07-8.67h9c-.94,4.16-2,11.55-.36,15.49,2.86,6.87,8.56,16.67,1.87,23.11a21.22,21.22,0,0,1-6.42,3.77,16.62,16.62,0,0,1-4.53,1.49c-1.82.23-3.66-.14-5.5-.06-2.3.1-4.61.93-6.87.5a12.62,12.62,0,0,1-4.14-1.93,2.27,2.27,0,0,1-.73-.61,6.08,6.08,0,0,1-.47-1.3,5.69,5.69,0,0,0-.52-.85,6.94,6.94,0,0,1-1.14-4.18C1144,275.57,1144.15,275,1144.62,274.71Z"/><g class="cls-28"><path class="cls-18" d="M1135.73,626.68c1.08-1.5,2.11-3,2.11-4.63,0-.93-3-5.93-2.66-6.32a3,3,0,0,1,2.16-1.06c-.25-1.14-1.45-1.72-2.38-2.42s-1.63-2.16-.76-2.92c1.19-.88,2.6-.55,3.87-.76a93.86,93.86,0,0,0-1.68-9.37,19.13,19.13,0,0,0-3-7.94c-1.54-2-4.28-2.33-5.33-4.69a1.19,1.19,0,0,1-.13-.66c.1-.55.8-.72,1.36-.75a55,55,0,0,0,6.91-.41c1.28-.23,4.47-2.08,5-1s-2.27,5.5-2.74,6.58c3.33,10.47,3.24,22,2.74,32.87-.3,6.56-.91,13.09-1.69,19.61-.69,5.77-.82,12.81-2.75,18.21a16.53,16.53,0,0,0-1.34-7.69,34.74,34.74,0,0,0-4.54-6.82,4.43,4.43,0,0,1-.77-1.21,4,4,0,0,1-.19-1.28,18.86,18.86,0,0,1,.2-3.19c2.62,1.45,5.19,2.56,7.88,3.73-.42-3.62-.79-8.19-3.26-11.09-.63-.75-1.44-1.53-1.41-2.51a3.23,3.23,0,0,1,.35-1.17A21.47,21.47,0,0,1,1135.73,626.68Zm25.76-89.57c.87-2-4.09-.22-4.37,0a10.22,10.22,0,0,0-3.46,4.84c-1.09,2.93-1.26,6.12-2,9.15a24.72,24.72,0,0,1-6.53,11.55c1.41,0,2.24,1.78,1.89,3.16a9.71,9.71,0,0,1-2.31,3.51c-1.6,2-2.29,5.55-4,7.15-.83.78-2.11.77-3.07,1.16.38.57,4.48,4.31,4.34,4.64Z"/></g><g class="cls-29"><path class="cls-30" d="M1220.93,433.69l-.52,4.88a1.59,1.59,0,0,1-.33-1.66A29,29,0,0,0,1220.93,433.69Z"/><path class="cls-30" d="M1221.36,377c2.93-.75-2.82-3.12-4.95-5.56-.3-.8,6.36-1,7-1.37-.4-2.92,0-5.55-.38-8.47-1.54-.8-7.19-1.43-5.73-1.92,7.28-2.45,1.31-34.13-.82-38.85-1-2.21,7.42,11.52,8.43,13.75,2.58,5.72,3.35,11.53,4.75,17.4l-.87,8.11c-.36.07-.71.12-1.06.2a11.75,11.75,0,0,1,.94.87l-2,19c-.57.07-.13,1.77-.7,1.84.55.81,0,0,.42.83l-4.77,44.55c-3.26,18.81-3.72-12.11-3.26-17.45.93-10.84,6.59-23.53-1-25.32C1215.59,384.18,1219.76,377.16,1221.36,377Z"/></g><polygon class="cls-17" points="1257.79 369.56 1259.71 391.5 1240.15 483.58 1242.45 495.47 1240.15 511.2 1234.48 516.19 1226.72 518.49 1218.35 521.56 1214.83 521.56 1207.34 518.49 1212.14 512.35 1214.06 502.58 1210.99 507.75 1205.17 509.28 1212.53 491.22 1224.58 478.73 1232.44 398.98 1229.4 369.56 1257.79 369.56"/><g class="cls-12"><polygon class="cls-18" points="1258.33 375.7 1230.04 375.7 1229.4 369.56 1257.79 369.56 1258.33 375.7"/></g><path class="cls-11" d="M1207.34,282.64l43.83,25a16.26,16.26,0,0,1,8.19,13.37l2.27,48.53h-34.91l-2.14-33.3Z"/><polygon class="cls-20" points="539.77 461.63 539.78 461.63 574.42 460.81 568.04 700.77 547.61 700.77 542.19 498.24 535.45 498.24 523.43 700.77 507.53 700.77 505.13 460.81 539.77 461.63"/><g class="cls-12"><path class="cls-18" d="M522.08,487.9c7.9,13.37,13.37,10.34,13.37,10.34l-12,202.53h-6.34l.66-28.07a291,291,0,0,1,2.44-34.38c1.75-12.34,2-24.83,2.21-37.27a148.86,148.86,0,0,0-.29-15.95c-.85-9.37-3.49-18.66-3.05-28.13.18-4,1.4-7.81,1.71-11.69.41-5.11.21-10.36.33-15.48q.35-15.22.71-30.44C521.86,497,523.32,490,522.08,487.9Z"/></g><g class="cls-12"><path class="cls-18" d="M556.51,462.32a4.11,4.11,0,0,1,1.41-1.12c3.9-1.79,12.08-.28,16.5-.38l-6.38,240H552.55s1.55-22.69,1.19-24.29c-.9-4-2.31-7.91-2.67-12a58.26,58.26,0,0,1,.46-10.38c.88-9.64.83-19,2-28.58.88-7.29-.69-15.23,1.1-22.41,1.17-4.69,2.34-9.56,1.36-14.29-.5-2.45-1.57-4.74-2.18-7.16-1-3.74-.83-7.66-.65-11.51.88-18.67,1.29-37.36,1.53-56,.12-9,.4-17.93-.91-26.69C552.93,481.83,552.61,467,556.51,462.32Z"/></g><rect class="cls-17" x="532.68" y="260.19" width="16.98" height="57.74" transform="translate(1082.34 578.12) rotate(180)"/><polygon class="cls-31" points="549.66 303.62 532.68 292.73 532.68 287.78 549.66 293.15 549.66 303.62"/><path class="cls-24" d="M595.56,379.83c0-.39,0-.78-.07-1.16A1.16,1.16,0,0,1,595.56,379.83ZM489.1,414.9c1.69,5.08,4.45,10.45,9.5,12.23a18.51,18.51,0,0,0,6.3.75l.76,0v19.92h68.15l1.78-20.48c5.08,2.36,9.7,3,14.29-4.2,7-11,6.42-30.4,5.68-43.27-.15.24.85-3.71.43-3.63,1.17-12.12-1.76-20.92-4.71-32.73-2.73-11-9.35-20-17.74-27.53s-18.48-4.83-23.79-15.38l-7.66,8.22-9.36-8.22c-4.64,6.47-14.56,6-21.32,8.44-8.42,3.05-12.8,10-16.12,18C484.59,352.72,480.14,388,489.1,414.9Z"/><path class="cls-17" d="M579.6,255.17c-.48-7.19,1.85-14.37,1-21.53l.09,2.17A72.2,72.2,0,0,0,563,223.87c-1.87-.88-3.92-1.71-6-1.34a10.72,10.72,0,0,0-4.22,2.15L533,238.83c-3.5,2.5-7.17,5.2-8.84,9.17s-1.1,8.24-.53,12.39c1.06,7.77,2.17,15.54,3.19,23.31.64,4.9.72,5.3,5.24,6.77a75,75,0,0,0,8.23,2.41c7.83,1.61,11.06,4.86,19,2.43,10.56-3.22,15.56-16.87,14-25.45A6.6,6.6,0,0,0,580,271C585.08,268.77,579.88,259.35,579.6,255.17Z"/><path class="cls-9" d="M591.5,219.26c-.84-4.09-1.85-8.32-5.89-10.4-3.23-1.66-6.61-.33-9.77-1.81-4.08-1.91-6.26-4.85-11.37-3.8-2.26.47-4.32,1.59-6.54,2.2-7.24,2-14.51-7.17-21.6-.66-2.87,2.63-4.08,7-7.55,8.74-5.67,2.86-5.87,3.67-7.93,9.52-1.67,4.72-5.07,6.77-6,12.16-.73,4.21-2.86,8.08-3.57,12.3-.75,4.49,1.15,8.33,1.19,12.64,0,5.37-.74,10.72-.47,16.19.1,1.9.19,3.79.29,5.69.19,3.73.5,6.49,4,7.86s8.85.81,12.29.08c1.55-.32,3.24-.93,3.91-2.37a5.17,5.17,0,0,0,.37-2.14c.14-7.11-2.1-14-2.73-21.11a10.85,10.85,0,0,1,.26-4.25,4.32,4.32,0,0,1,2.82-3c4.11-1.09,10.75,3.9,11.05-1.52s-.68-10.92.65-14.75c.26-.73-.77-1-.31-1.61s.41-.23,1-.38c2.25-.58,5-.84,6.07-2.9.52-1,.47-2.23.92-3.27.85-2,3.34-2.82,5.42-2.33,3,.7,5.2,5.11,8.58,4.51,2.09-.37,3-3,5-3.78,1.54-.55,3.24.23,4.52,1.25a22.51,22.51,0,0,0,3.82,3c1.08.53,8.07-.3,8.65-1.48.41-.81.81-1.62,1.21-2.43l.18.63C591.15,227.91,592.37,223.53,591.5,219.26Z"/><path class="cls-18" d="M505.92,464.44a267.88,267.88,0,0,0,68.25,0,1.62,1.62,0,0,0,1.42-1.61V446.54a1.62,1.62,0,0,0-1.82-1.6,268.13,268.13,0,0,1-67.46,0,1.61,1.61,0,0,0-1.81,1.6v16.29A1.62,1.62,0,0,0,505.92,464.44Z"/><path class="cls-23" d="M550.44,466.41q-10.05.39-20.09,0V446.89q10,.36,20.09,0Z"/><path class="cls-18" d="M560.48,700.77l17,14.52,22.63,7.8a18.38,18.38,0,0,1,11.59,12l.43,1.4H567.05l-3.57-7.79v7.79H547V706.7l3.69-5.93Z"/><path class="cls-18" d="M512.08,700.77,495,715.29l-22.63,7.8a18.38,18.38,0,0,0-11.59,12l-.42,1.4h45.13l3.56-7.79v7.79h16.45V706.7l-3.69-5.93Z"/><path class="cls-9" d="M544.87,277.76h0V237.55h-7.79v31.72C537.08,274,540.57,277.76,544.87,277.76Z"/><polygon class="cls-32" points="531.62 431.97 542.35 441.94 553.07 431.97 546.43 325.98 538.27 325.98 531.62 431.97"/><polygon class="cls-33" points="539.86 439.62 531.62 431.97 538.27 325.98 542.35 325.98 542.35 441.94 539.86 439.62"/><path class="cls-32" d="M524.65,388.88a2.46,2.46,0,0,0,0,.28l.07-.11Z"/><path class="cls-17" d="M526.3,395.74a25.71,25.71,0,0,1-1.87-5.35,1.45,1.45,0,0,0,.24-1.23c-.59,1-2.3.95-3.15.07a5.78,5.78,0,0,1-1.2-3.53,149.2,149.2,0,0,1-.76-16.51c-1.84-.83-3.82.91-4.79,2.68a14.74,14.74,0,0,0-1.4,10.36,12.62,12.62,0,0,0-10.64-2.07c-2,.52-4.12,2.55-3,4.26.83,1.25,3.11,1.53,3.1,3a4.2,4.2,0,0,0-.69,8.34,5.07,5.07,0,0,0-2.58,5.32A2.7,2.7,0,0,1,502,402c-1.33.09-2.07,1.82-1.54,3a4,4,0,0,0,3.19,2.09,31.25,31.25,0,0,0,4,0,52.07,52.07,0,0,0,6.61,0c2.26-.28,4.49.65,6.86.83a5.43,5.43,0,0,0,1.56,0c1.76-.37,2.84-2.14,3.44-3.84s1-3.55,2.2-4.87C528.19,398.16,526.82,396.72,526.3,395.74Z"/><g class="cls-19"><path class="cls-13" d="M595.56,380.39c0-.38,0-.77-.07-1.14A1.13,1.13,0,0,1,595.56,380.39Zm-4.49,40.3a22.45,22.45,0,0,0,1.16-2c4.51-11.14-12.22-14.22-12.22-14.22-2.74,1.32-5.8-.85-8.06-2.88-3.3-3-5.82-6.13-10.09-7.33-12.5-3.5-26.73-6-39-10.4.11,5.84-1.68,10.65-3.09,16.32,5.2,1.08,10,3.56,14.67,6,8.2,4.29,14.41,6.63,22,11.86,3.93,2.69,9.47,1.3,13.75,3.39C578.09,425.24,584.62,430.81,591.07,420.69Z"/></g><g class="cls-19"><path class="cls-13" d="M595.56,379.83c0-.39,0-.78-.07-1.16A1.16,1.16,0,0,1,595.56,379.83Z"/><path class="cls-13" d="M575.59,433.3a34.84,34.84,0,0,1-10.77-3.43c-10.4-5.36-20.65-11.21-31.08-16.66-4.75-2.49-9.59-5-14.84-6.09,1.42-5.75,3.23-10.61,3.11-16.53,12.38,4.42,26.79,7,39.44,10.53,4.32,1.22,6.87,4.42,10.2,7.42,2.29,2.06,5.4,4.25,8.17,2.92,0,0,17.09.6,10.06,11.64-4.59,7.19-9.21,6.56-14.29,4.2Z"/></g><g class="cls-19"><path class="cls-13" d="M566.27,404.57c2.28,2.05,6.52-65.59,6.52-65.59s14.08-3.76,16.82,7.2c2.95,11.81,5,23.81,3.81,35.93a1.18,1.18,0,0,0,.84-.51c.75,12.87,1.36,32.24-5.68,43.27C583.1,433.47,562.93,401.57,566.27,404.57Z"/><path class="cls-13" d="M594.26,381.6c0-.38,0-.78-.06-1.15A1.14,1.14,0,0,1,594.26,381.6Z"/></g><path class="cls-24" d="M522,387.55c12.38,4.42,26.79,7,39.44,10.53,4.32,1.22,8-2.54,11.34.46l.61-66.85s-7.12-21.5,1.28-14A57.17,57.17,0,0,1,592,346.18c3,11.81,5.49,23,4.32,35.15.43-.08,1.69,32.51-5.34,43.54-5.49,8.6-18.65,5.85-26.2,2-10.4-5.36-20.65-11.21-31.08-16.66a58.57,58.57,0,0,0-15.31-5.05C519.85,399.38,521.19,392.3,522,387.55Z"/><g class="cls-8"><path class="cls-13" d="M513.78,308.92c-8.41,3.06-12.8,10-16.12,18C487,352.64,482.52,388,491.48,414.82c1.69,5.08,4.45,10.45,9.49,12.23a18.57,18.57,0,0,0,6.3.75l7.41-22.87L512.21,339S520.55,306.46,513.78,308.92Z"/></g><path class="cls-32" d="M577.83,394.29c0,.1,0,.19,0,.28l-.07-.11Z"/><path class="cls-17" d="M576.18,401.15a25.74,25.74,0,0,0,1.88-5.35c-.34-.37-.27-.76-.24-1.23.59,1,2.3,1,3.15.07a5.75,5.75,0,0,0,1.19-3.53,149.2,149.2,0,0,0,.76-16.51c1.84-.83,3.82.91,4.79,2.68a14.64,14.64,0,0,1,1.4,10.36,12.63,12.63,0,0,1,10.64-2.07c2,.52,4.12,2.56,3,4.26-.82,1.25-3.1,1.53-3.1,3a4.2,4.2,0,0,1,.69,8.34,5.06,5.06,0,0,1,2.58,5.32,2.72,2.72,0,0,0-2.48.93c1.33.09,2.07,1.82,1.55,3a4,4,0,0,1-3.2,2.09,31.1,31.1,0,0,1-4,0,52.23,52.23,0,0,1-6.62,0c-2.26-.28-4.49.65-6.85.83a5.43,5.43,0,0,1-1.56,0c-1.76-.37-2.84-2.14-3.44-3.84s-1-3.55-2.21-4.87C574.29,403.57,575.67,402.13,576.18,401.15Z"/><g class="cls-19"><path class="cls-13" d="M508.6,413.44l63.52-12.68c2.21-.44,4.67-.84,6.55.4a7.38,7.38,0,0,1,2.53,3.64c1.86,4.75-.94,10.21-2.31,15.12l-16.42,4.34c-18.65,4.91-37.54,9.85-56.81,10.19v-6.59l-.76,0a18.51,18.51,0,0,1-6.3-.75C493.55,425.35,508.6,413.44,508.6,413.44Z"/></g><path class="cls-24" d="M528.35,308.59c-4.64,6.47-10.84-2.13-17.61.33-8.41,3.06-12.8,10-16.12,18-10.69,25.76-15.14,61.08-6.18,87.94,1.69,5.08,4.45,10.45,9.49,12.23a18.57,18.57,0,0,0,6.3.75c19.77-.12,39.13-5.19,58.24-10.23,6.08-1.6,12.54-3.65,18.9-3.47.82-2.35-2.31-20.22-2.19-20.26-5.2,1.67-28,5.25-34.24,6.49-3.26.65-37.26,6.83-37.26,6.83L511.6,339Z"/><path class="cls-23" d="M532.55,325l-10.47-18.56c4.17-1,8.12-2.73,10.6-6.15l9.41,8.46Z"/><polygon class="cls-32" points="535.49 320.03 538.09 325.95 546.43 325.98 548.67 320.42 542.09 308.79 535.49 320.03"/><path class="cls-23" d="M559.37,309,551.28,325l-9.19-16.25,7.66-8.22C552.17,305.37,555.58,307.42,559.37,309Z"/><path class="cls-18" d="M675,304c-1-4.68-3.89-9.41-2.31-13.93,1.29-3.72,5.12-5.8,7.86-8.63,4.65-4.81,6.13-11.9,6.19-18.59,0-3.24-.21-6.52.45-9.69,1.33-6.44,6.11-11.51,9.5-17.15a23.92,23.92,0,0,1,3.87-5.52,18.18,18.18,0,0,1,6.53-3.35q7.8-2.7,15.72-5c2.57-.76,5.36-1.49,7.86-.56a12.73,12.73,0,0,1,4.72,3.83l8.16,9.18a9.57,9.57,0,0,1,4.65,6c1,3.92,0,8-.8,12s-1.37,8.24.34,11.9,5.53,6.24,6.38,10.19-1.41,7.62-3.44,11c-3.48,5.8-6.66,12.47-5.3,19.1.82,4,3.26,7.59,3.77,11.66A12.91,12.91,0,0,1,744,328.26c-2.15,1.53-5,2.61-5.89,5.08-.7,1.85-.09,3.94-.4,5.9-.65,4.15-5.36,6.64-9.55,6.34s-7.93-2.62-11.49-4.85-7.34-4.5-11.53-4.7c-8.13-.38-16,7.06-23.58,4.25-6.17-2.29-8.23-10.09-7.74-16.65S676.42,310.46,675,304Z"/><rect class="cls-17" x="692.42" y="294.62" width="33.14" height="38.12" transform="translate(1417.98 627.36) rotate(180)"/><rect class="cls-17" x="703.7" y="274.92" width="16.82" height="38.12" transform="translate(1424.23 587.96) rotate(180)"/><g class="cls-34"><polygon class="cls-18" points="703.7 284.45 720.53 292.66 720.53 274.92 703.7 274.92 703.7 284.45"/></g><path class="cls-17" d="M728.55,288.83c6,2.91,16.23-6.12,15.85-21.05,0-.61,7.27-1.34,6.9-1.83-7.94-10.58-9-30.67-13.52-35.17-10.24-10.24-52.41,0-52.41,0v24.57C685.37,277.8,728.55,288.83,728.55,288.83Z"/><path class="cls-17" d="M735.26,610.68s-16.42,57.45-19.15,84.26l-18.6-6.57s5.8-26,2.18-52.06Z"/><path class="cls-18" d="M716.11,694.94l16.81,26.81,27.78,7.11v2.74l-27.78,4.92s-8.92,0-9.86-2.19l-21.18-20.24H698.6v20.24h-4.38s2.74-16.41,0-19.7c0,0-6.56-9.3-1.64-24.07l4.93-2.19Z"/><g class="cls-12"><path class="cls-18" d="M731,626.39l-30.08,27.86a132.18,132.18,0,0,0-1.18-17.94l35.57-25.63S733.46,617,731,626.39Z"/></g><polygon class="cls-17" points="754.41 598.09 676.72 670.09 667.41 653.9 709 598.09 754.41 598.09"/><path class="cls-18" d="M676.72,670.08,660.3,707,668,725l-3.28,9.3-17.51-24.62s-3.83-7.11,0-17l4.92-18.6s2.19-3.83-2.18-2.74-15.87,9.3-15.87,9.3v-4.38l12-10.12,6.56-9.57s10.94-6.57,14.77-2.74Z"/><path class="cls-25" d="M690.39,461.31s-9.3,28.45,0,50.34c5.12,12,6.17,27.68,7.07,40.5.89,12.55.6,31.85-1.54,44.27-1.42,8.25-1.95,9.39,7.18,9.79A44.82,44.82,0,0,0,721.77,603a17.31,17.31,0,0,1,5.6-1.68c2.35-.09,4.57.95,6.79,1.7a28.58,28.58,0,0,0,17.57.2,36.42,36.42,0,0,1,5.81-1.71c6.18-.89,11.82,4.47,17.58,3.7,5.07-.67,3.91-2.38,3.13-7-1.28-7.53-3-21.57-4.51-29.08-2.63-13.5-7.63-29.15-6.82-43L767,463s3-15.48,5.33-22.51Z"/><g class="cls-12"><path class="cls-35" d="M773.33,598.3c-1.29-7.53-4.7-21.57-6.16-29.08-2.4-12.37-5.17-26.55-5.26-39.52a94.5,94.5,0,0,0-.94-11.51L753.86,463s10.85-13.66,13.1-21.15l5.36-1.36C770,447.47,767,463,767,463l-.07,63.25c-.81,13.87,4.19,29.52,6.82,43,1.46,7.51,3.23,21.55,4.51,29.08.78,4.57,1.94,6.28-3.13,7a10.2,10.2,0,0,1-3.6-.25C775,604.19,774,602.4,773.33,598.3Z"/></g><g class="cls-12"><path class="cls-18" d="M690.39,461.31,770.17,441l1.18,2.78c-1.21,4.55-2.67,11.23-3.86,16.86-12.42,7.65-38.81,19.21-80.19,14.77A95.27,95.27,0,0,1,690.39,461.31Z"/></g><path class="cls-25" d="M725.84,294.82l13.72-.28c3.24-.07,15.12,2.2,17.72,4.14l6.7,9.91c1.51,1.13.28,33.45.28,33.45l1,64.2a15.78,15.78,0,0,0,1.26,5.94L779,441.61s-28.45,27.36-88.64,19.7V439.43L664.68,321.24l23-21.88,32.83,11.49Z"/><g class="cls-12"><polygon class="cls-18" points="692.42 324.82 682.28 402.13 664.68 321.24 692.42 324.82"/></g><g class="cls-22"><path class="cls-18" d="M690.74,466.05a30.56,30.56,0,0,0,5.37,24.77c2.36,3.11,5.29,5.73,7.76,8.74,4,4.87,6.68,10.65,9.29,16.37,2.85,6.24,5.71,13.08,4.13,19.75-.91,3.84-3.21,7.17-4.89,10.74a35.1,35.1,0,0,0-1,26.88c2.23,5.93,6,11.15,8.43,17a23.09,23.09,0,0,1,1.66,12.84,44.71,44.71,0,0,1-18.34,3.06c-9.13-.4-8.6-1.54-7.18-9.79,2.14-12.42,2.43-31.72,1.54-44.27-.9-12.82-2-28.46-7.07-40.5-7.56-17.8-2.82-39.93-.79-47.58A7.28,7.28,0,0,1,690.74,466.05Z"/><path class="cls-18" d="M691,469.51l-.17-3.26A5.34,5.34,0,0,1,691,469.51Z"/><path class="cls-18" d="M690.81,466.25c0-.07,0-.13-.07-.2s0-.2,0-.29Z"/></g><g class="cls-12"><polygon class="cls-18" points="690.39 439.43 684.91 414.21 740.18 412.64 740.18 429.79 690.39 440.54 690.39 439.43"/></g><path class="cls-21" d="M707.9,328.9s28.22,36.75,40.84,91.16c0,0-4.78-84-12.93-103.19l-5.39-9.59-9.93,3.57-15.11,2.92Z"/><path class="cls-36" d="M748.74,420.06s-30.44-67.55-37-69.43L709,354.9,707.09,339l-3.39,6.65-16-46.24S735.46,357.33,748.74,420.06Z"/><g class="cls-12"><polygon class="cls-18" points="725.84 299.74 735.8 309.21 735.8 321.79 730.82 310.3 725.84 325.07 714.47 320.15 708.63 335.11 687.66 299.36 690.39 292.25 720.49 315.77 723.06 301.55 725.84 299.74"/></g><path class="cls-21" d="M751.32,421.38s3.19,34.9-6.23,37c0,0,21.68-8.43,23.45-9.46S755.6,446.76,751.32,421.38Z"/><path class="cls-37" d="M767,448.93c1.56-.91-9.59-1.9-15.24-19.3-.14-4.8-.45-8.25-.45-8.25,4.28,25.38,19,26.51,17.22,27.55C767,449.8,767,448.93,767,448.93Z"/><rect class="cls-17" x="691.44" y="387.17" width="13.76" height="38.18" transform="translate(220.39 1057.62) rotate(-83.92)"/><path class="cls-25" d="M687.67,394.22l65.11,1.85-17.34-81.78a14.55,14.55,0,0,1,11.79-17.6h0A14.56,14.56,0,0,1,764,308.59l16,97a17.5,17.5,0,0,1-18.88,20.14l-73.39-11.32Z"/><g class="cls-12"><path class="cls-35" d="M751.8,396l-64.13-1.82v1.53s60.62,10.34,69.08,6.79c2-.86-6.57-2.33-6.5-2.68.1-.58,7.4.67,7,.11C755.83,397.85,751.8,396,751.8,396Z"/></g><path class="cls-17" d="M683,397.7c0-.77-3.12-4.59-3.67-5.12l-1.76-1.67a6.94,6.94,0,0,0-5.69-1.85,19.37,19.37,0,0,1-5.53.21c-2.62-.42-5-1.77-7.78-1.17a2.86,2.86,0,0,0-2.39,2.7c.12,1.55,1.92,2.71,1.7,4.25-.16,1.09-1.29,1.83-1.51,2.91-.28,1.45,1.19,2.74,1.1,4.22-.08,1.29-1.3,2.19-1.81,3.38a4,4,0,0,0,.4,3.63,7.75,7.75,0,0,0,2.78,2.52c2.89,1.67,5.7,1.77,8.93,1.71,3-.05,6.08-1.24,9.09-1.1,2.19.11,4.13-1.74,4.68-3.92.43-1.74.39-.67.58-2.45C682.45,402.72,682.64,400.93,683,397.7Z"/><path class="cls-36" d="M745.09,395.85l4.11.13c-2.82-20.64-5.45-44.52-3-47.41l4.65,2-7.24-14.33,6.5,3.66-20.58-41.6S727.06,338.38,745.09,395.85Z"/><polygon class="cls-24" points="725.84 294.82 735.8 304.28 735.8 316.87 730.82 310.3 725.84 320.15 714.47 320.15 707.9 328.9 687.66 299.36 690.39 287.32 720.49 310.85 723.06 296.62 725.84 294.82"/><rect class="cls-17" x="722.66" y="400.98" width="13.76" height="38.18" transform="matrix(-0.11, -0.99, 0.99, -0.11, 389.1, 1189.99)"/><path class="cls-25" d="M740.18,408l-65.11,1.85,17.35-81.78a14.55,14.55,0,0,0-11.8-17.6h0a14.55,14.55,0,0,0-16.74,11.91l-16,97a17.49,17.49,0,0,0,18.87,20.14l73.39-11.32Z"/><g class="cls-12"><path class="cls-35" d="M676.06,409.85,740.18,408v1.53s-60.62,10.34-69.07,6.79c-2.05-.86,6.56-2.33,6.5-2.68-.11-.58-7.4.67-7,.11C672,411.66,676.06,409.85,676.06,409.85Z"/></g><path class="cls-17" d="M744.88,411.51c0-.76,3.12-4.59,3.67-5.12l1.76-1.67a7,7,0,0,1,5.69-1.85,19,19,0,0,0,5.53.21c2.62-.42,5-1.77,7.78-1.16a2.83,2.83,0,0,1,2.38,2.69c-.11,1.55-1.91,2.71-1.69,4.25.15,1.09,1.29,1.83,1.5,2.91.29,1.45-1.18,2.74-1.09,4.22.08,1.29,1.3,2.19,1.81,3.38a4.11,4.11,0,0,1-.4,3.63,7.7,7.7,0,0,1-2.79,2.52c-2.89,1.67-5.7,1.77-8.92,1.71-3-.05-6.08-1.24-9.09-1.1-2.19.11-4.13-1.74-4.68-3.92-.43-1.74-.4-.67-.59-2.45Z"/><g class="cls-8"><path class="cls-18" d="M647.92,419.43l11-66.86a31.11,31.11,0,0,0,1.77,6.79c1.08,2.77,2.47,5.47,2.83,8.42s-.34,5.9-1,8.78c-1.69,7-3.4,14.06-6.56,20.52-.79,1.62-1.69,3.29-1.64,5.08s.91,3.23,1.6,4.77a23.81,23.81,0,0,1-3.24,24.17c-.45.55-1,1-1.45,1.53A17.36,17.36,0,0,1,647.92,419.43Z"/></g><path class="cls-18" d="M656,327.19a43.21,43.21,0,0,0,9.68-23.84c.69-8.9-5-18.22-2.47-26.9,1.88-6.46,8.4-10.54,11-16.72,2.53-5.93,1.1-12.74,2-19.13,3-22.09,31-25.16,48.71-22.22,5.43.9,18.57,3,20.69,9.43,2.83,8.59-10.41,12.66-16.36,9.61-1.77-.91-3.31-2.27-5.19-2.91a7.55,7.55,0,0,0-9.76,9.07c.41,1.55,1.32,3,1.39,4.59.18,4.07-4.79,6.33-8.87,6.36-1.17,0-2.46,0-3.36.73a4.22,4.22,0,0,0-1.15,2.05c-3.5,11.26,4.53,18.38-4.75,27.54-6.47,6.4-21.56,17.75-15,28.49,1.19,2,3.13,3.55,3.54,5.8.6,3.25-2.28,6.07-5.13,7.75s-6.18,3.16-7.55,6.17c-1.43,3.16-.16,6.82,0,10.28.58,10.49-6.19,11.53-12.48,17-4.57,4-6.1,12.41-5.38,18.09.11.9.05,2.14-.84,2.31a1.76,1.76,0,0,1-1.15-.35,24.47,24.47,0,0,1-5.95-4.29,8.29,8.29,0,0,1-2.4-6.7c.25-1.6,1.13-3,1.52-4.61,1.25-5.06-2.68-9.9-3.4-15.06C641.9,339.69,650.44,333.89,656,327.19Z"/><path class="cls-23" d="M949.57,292.4c-.61-1.06-1.61-1.84-2.22-2.89-2.7-4.67,3.65-10.49,1.85-15.58-1.24-3.5-5.79-4.9-7.14-8.35-1.61-4.1,2-9.39-.74-12.89-.7-.92-1.75-1.53-2.48-2.43-1.93-2.38-1.11-5.84-1.31-8.9-.41-6.17-5.31-11.26-6.13-17.39a11,11,0,0,0-.73-3.66A6.72,6.72,0,0,0,928.5,218a24.39,24.39,0,0,0-9.69-4.26c-1.39-.28-2.94-.5-3.84-1.59s-.93-2.49-2-3.23a4,4,0,0,0-2.12-.56l-10-.74-1.48-.11c-3-.84-6.47.88-9.27,2.61-4.17,2.57-8.44,5.24-11.4,9.15-2.82,3.73-3.79,8.65-6.62,12.3-2.55,3.28-6.1,4.72-5.67,9.78.12,1.45.58,2.9.34,4.34-.2,1.16-.86,2.23-.93,3.4-.11,1.57.82,3,.87,4.6.09,2.27-1.6,4.16-2.7,6.15a12.9,12.9,0,0,0-1.38,8.57,32.24,32.24,0,0,1,1,5,12.4,12.4,0,0,1-.92,4.43c-1.63,4.51-4.46,8-6.64,12.13s1.87,7.48,2.83,11.29c.89,3.54-.81,7.23-.64,10.87.14,2.72,1.31,5.27,2.46,7.74a2.92,2.92,0,0,0,1.44,1.72c1.47.55,2.61-1.25,3.73-2.35,2.74-2.67,7.28-1.47,11-2.43,3.07-.79,5.73-3.15,8.91-3.15s5.87,2.36,9,2.86c4.91.79,9.2-3,13.77-5,10.47-4.46,23.66.77,33.34-5.2a22.52,22.52,0,0,0,5.39-4.87C949.43,299,951.25,295.3,949.57,292.4Z"/><rect class="cls-17" x="889" y="266.99" width="25.17" height="33.7"/><polygon class="cls-17" points="920.44 300.69 885.66 300.69 885.66 283.01 920.44 286.13 920.44 300.69"/><path class="cls-17" d="M1046.79,323.83c-1.6-.76-3.48-.49-5.23-.21-8.47,1.37-20.4,4.52-28.86,3a8.11,8.11,0,0,1-3-1.09c-1.7-1.13-2.59-3.12-3.4-5s-1.73-3.86-3.45-4.95c-7.52-4.75-4.1,7.62-3.62,10.16,1.06,5.71-1.87,8.2-3.14,13a3.62,3.62,0,0,0-1.43,3.74,8.8,8.8,0,0,0,3,4.24c8,7.43,11.71-3.18,16.48-8,7.15-7.19,20.5-9.82,30.21-9.48,1.45.05,3.13.07,4-1.07C1049.42,326.81,1048.39,324.58,1046.79,323.83Z"/><path class="cls-11" d="M925.89,391.52H867.1V282.25l18.3,3.88,5.81,6.56a16.7,16.7,0,0,0,26.86-2.57l2.37-4h0l15.43,50.75Z"/><path class="cls-32" d="M852.67,566.24S842.1,603.66,839.92,691L834.37,721v8.15a6.3,6.3,0,0,0,6.31,6.31h2.61a15.13,15.13,0,0,0,15.07-13.77l1.86-14.55-3.66-27.15c-.55,2.85,8.73-39,22.74-92.44l6.1-21.12Z"/><path class="cls-17" d="M852.67,566.24S842.1,603.66,839.92,691L834.37,721v8.15a6.3,6.3,0,0,0,6.31,6.31h2.61a15.13,15.13,0,0,0,15.07-13.77l1.86-14.55-3.66-27.15c-.55,2.85,8.73-39,22.74-92.44l6.1-21.12Z"/><path class="cls-18" d="M858.36,706.67c-.71,7.79-7.24,10.44-15.07,10.44h-2.61c-2.44,0-3.18-5.38-4.23-7.4L834.37,721v8.15a6.3,6.3,0,0,0,6.31,6.31h2.61c7.83,0,14.36,2.35,15.07-5.45l1.86-22.87-1-7.28Z"/><path class="cls-17" d="M930.69,566.24s1.12,39.93-15.89,118.7l3.56,39.72a15.3,15.3,0,0,1-1.84,8.74h0a6,6,0,0,1-5.29,3.12h-7.54a6,6,0,0,1-6-5.52l-2.59-29.75,6.32-25.19s-3.7-77.73-1.66-90.22l-3.26-19.46Z"/><path class="cls-18" d="M917.58,707.65a16,16,0,0,1-1.06,2.45c-1.06,1.93-3.09,4.79-5.29,4.79h-7.54c-3.13,0-5.74-4.06-6-7.18l-1.62-10.31-1,3.85L897.68,731a6,6,0,0,0,6,5.52h7.54a6,6,0,0,0,5.29-3.12,15.3,15.3,0,0,0,1.84-8.74Z"/><g class="cls-12"><path class="cls-18" d="M850.76,574.56H883l2.36-8.18-32.73-.14S851.91,569,850.76,574.56Z"/></g><g class="cls-12"><path class="cls-18" d="M896.49,566.38l1.37,8.18h32.71c.2-5.52.12-8.32.12-8.32Z"/></g><path class="cls-20" d="M948.63,432.56s18.31,13.87,5,71.55c0,0-13.31,41.6-16.08,63.79H847.68s2.66-52.7,0-68.9c0,0-1.11-67,22.19-72Z"/><g class="cls-12"><path class="cls-18" d="M948.63,432.56,869.87,427c-6.58,1.41-11.21,7.77-14.47,16.16,7.81,4.92,17.49,12.3,27.83,12.83a20.78,20.78,0,0,0,18.36-9.3l5.35-8.07.78,1.65a20.71,20.71,0,0,0,22.61,11.51c9.95-1.93,18.44-8,24-10.44C951.63,434.83,948.63,432.56,948.63,432.56Z"/></g><path class="cls-20" d="M920.44,286.13s26.53,3.95,29.86,14.18l-11.65,60.14s-2.12,19.92.6,25.22,22,53.48,22,53.48a298.57,298.57,0,0,1-30.87,7.65,20.72,20.72,0,0,1-22.61-11.51l-.78-1.65-5.35,8.07a20.79,20.79,0,0,1-18.36,9.3c-11.57-.6-22.34-2.86-30.56-7.81,0,0,11.1-50.78,11.1-54.56l-8.32-50.78,11.43-54.56c.12-.58-.36-1.18.22-1.05l18.3.76,23.85,94.64,16.09-33.84Z"/><path class="cls-20" d="M920.44,286.13s26.53,3.95,29.86,14.18l17.19,66.8,27.73-31.62,16.82,8.32S986.8,384,974.59,396.61a8.68,8.68,0,0,1-5.77,2.6c-4.58.26-12.37-.9-16.86-10.57l-13.31-28.19Z"/><g class="cls-12"><path class="cls-18" d="M860.48,464.51a4.35,4.35,0,0,0,1.87-2.95c1.16-5-2.32-11.33-2.78-16.37a166.36,166.36,0,0,1-.28-17.88c.09-4.12-1.2-9.27-.37-13.3-3.22,15.6-6.25,51-6.25,51C855.66,465,858.58,465.68,860.48,464.51Z"/></g><g class="cls-12"><path class="cls-18" d="M861,311.14l-5.59,26.72c-.33,1.59.71,4.35,1,5.92q1,6.35,2.08,12.69c.34,2.07.67,4.14,1,6.2.13.77.19,4.22.82,4.67,1.54,1.1.51-7.25.43-8.1a34.86,34.86,0,0,1,.11-10.25,17.84,17.84,0,0,0,.68-4.33,19.29,19.29,0,0,0-1-4.07c-1.47-5.43-.2-12.29,0-17.92Q860.81,316.9,861,311.14Z"/></g><polygon class="cls-38" points="920.44 286.13 933.65 326.48 927.6 332.19 933.1 342.69 909.25 377.65 925.34 343.81 920.44 286.13"/><polygon class="cls-38" points="885.4 283.01 875.41 312.75 885.4 316.08 880.41 322.46 909.25 377.65 885.4 283.01"/><path class="cls-38" d="M909.06,393.87c-.25,13,1.21,27.63-3,40.12-.25.74.92,1.05,1.16.32,4.08-12.3,2.76-27.68,2-40.44a.08.08,0,1,0-.16,0Z"/><g class="cls-12"><path class="cls-18" d="M850.06,494.15a4.1,4.1,0,0,0,3.66-.38,7.72,7.72,0,0,0,2.55-2.8c1.7-2.91,1.81-5.74,1.77-9,0-2.82-1-5.74-1-8.6h.09V456.71h-5.57c-2.83,13.37-3.59,27.88-3.78,36C848.52,493.1,849.22,493.79,850.06,494.15Z"/></g><path class="cls-17" d="M838.92,466.53c-.77,0-4.65,3.13-5.19,3.68L832,472a7,7,0,0,0-1.89,5.73,19.72,19.72,0,0,1,.19,5.58c-.44,2.65-1.82,5-1.22,7.85a2.88,2.88,0,0,0,2.71,2.42c1.57-.11,2.75-1.92,4.3-1.69,1.1.16,1.84,1.31,2.93,1.53,1.46.29,2.77-1.19,4.26-1.09,1.3.09,2.21,1.33,3.41,1.84a4.1,4.1,0,0,0,3.66-.38,7.72,7.72,0,0,0,2.55-2.8c1.7-2.91,1.82-5.74,1.77-9,0-3-1.22-6.14-1.06-9.18.11-2.21-1.75-4.18-3.94-4.73-1.76-.45-.68-.41-2.47-.61Z"/><rect class="cls-32" x="838.09" y="456.71" width="15.67" height="16.67"/><path class="cls-20" d="M857.39,337.44l9.71-55.19-15.59,9A31.82,31.82,0,0,0,838,306.58l-5.68,13.68c-3.32,10.8-3.07,29.3-2.89,32.85L834.92,465h23.3L856,383.2Z"/><g class="cls-8"><path class="cls-18" d="M939.25,385.67c-2.72-5.3-.6-25.22-.6-25.22s.94-4.86.86-4.9l-.07.73a14.59,14.59,0,0,0-4.05,5.26c-2.53,5.57.92,15.85-3.55,19.66a17.65,17.65,0,0,1-5.2,2.71,5.5,5.5,0,0,0-2.53,1.6,1.94,1.94,0,0,0,.19,2.7,3.13,3.13,0,0,0,1.69.35,13.58,13.58,0,0,1,12,9.19c1.77,5.57,4.25,9.31,6.71,14.48.49,1,.75,2.19,1.33,3.18,1.69,2.87,5.59,3.84,8,6C948.3,407.07,940.87,388.81,939.25,385.67Z"/></g><g class="cls-8"><path class="cls-18" d="M938.65,360.46,952,388.64a20.75,20.75,0,0,0,3.43,5.25c-.56-4.2-2.68-8.37-4.22-12.44-1.39-3.67-1.89-7.8-3.56-11.27-2.29-4.73-2.93-9.22-6.47-13.26a1.13,1.13,0,0,0-.86-.52c-.39,0-.64.42-.81.77C938.93,358.22,938.08,359.25,938.65,360.46Z"/></g><g class="cls-12"><path class="cls-18" d="M914.17,267H889v7.08l4.55,4a8.21,8.21,0,0,0,5.41,2h3.86a8.18,8.18,0,0,0,5.54-2.16l5.81-5.32Z"/></g><path class="cls-17" d="M882.56,236.62v23.77a10.37,10.37,0,0,0,3.53,7.8l7.46,6.54a8.21,8.21,0,0,0,5.41,2h3.86a8.22,8.22,0,0,0,5.54-2.15l9.72-8.91a10.37,10.37,0,0,0,3.37-7.66V236.62S923.53,225,914.59,220c0,0-12.27-4.78-23.92,0C890.67,220,882.56,222.27,882.56,236.62Z"/><path class="cls-23" d="M876.5,276.92c-.43-.83-1.58-.22-1.43.6.3,1.58-6.63,2.71-7.75,4.11-2.4,3,.95,8.3-1.81,11a7.73,7.73,0,0,0-2.16-1.33c-1.41-.57-2.76.85-2.81,2.15,0,1.05-.09,2.1-.14,3.15a2.4,2.4,0,0,0,1,2c-.85,1.32-1.77,2.62-1.89,2.76a15.08,15.08,0,0,0-2.13,3.34,14.45,14.45,0,0,0-1.39,7.8c.2,2.48,4.23,3.49,4.69.64a23.15,23.15,0,0,1,4-10.4c1.12-1.56,2.43-3.14,2.68-5.13,2.75-1.92,3.45-5.05,3.92-9,.46-1.82.91-3.65,1.37-5.48a15.16,15.16,0,0,0,2.05-.73c.47-.61,1.45-.73,1.89-1.42C877.76,279.17,877.37,278.64,876.5,276.92Z"/><path class="cls-23" d="M946.4,305.49c-2.56-4.11-1.44-7.26-2.13-11.57a10.21,10.21,0,0,0-1.62-3.54,15.38,15.38,0,0,1-1.94-7.79c-.31-6.57-10.05-7.75-11.59-1.36a1.63,1.63,0,0,0,3.14.86q3.39-3.43,5.09.84-.51,1.54-1.08,3.06a8,8,0,0,0-.33,3.6,11.65,11.65,0,0,0,1.23,2.63,11.88,11.88,0,0,1,1.47,6.34c-.25,5.68,2.47,14.54,9.25,14.84a1.46,1.46,0,0,0,1.43-1.43C949.47,308.78,948.1,308.23,946.4,305.49Z"/><path class="cls-23" d="M944.24,315c-7.57-4.1-3.48-10.65-6.74-16.09a9.11,9.11,0,0,0,.46-4.16,8.53,8.53,0,0,0-2.29-4.83c-1.32-1.37-3.57-1.41-4.72-2.51-2.43-2.33,0-4.85-2.3-7.52a4,4,0,0,0-5.68-.73c-2.25,1.49-.88,5.69,2,4.63-2.46.92-3.3,4.32-1.8,6.77a7.05,7.05,0,0,0,2.25,1.95c3.84,1.94,3.1-1.06,6.22,2.86a4.41,4.41,0,0,0-1.07.21c-5,1.8-2.39,8.32,2.17,7.75a24.52,24.52,0,0,0,1.9,10.9,12,12,0,0,0,7.28,6.35C945.16,321.7,947.27,316.64,944.24,315Z"/><path class="cls-23" d="M880.76,269.85a.79.79,0,0,0-.55-1.33c-13.45.37-1.54,11.08-4.65,17.81-2,4.28-4.75,5.66-5.67,10.61a15,15,0,0,1-2.18,8.9q-2,1.62-3.87,3.39a7.08,7.08,0,0,0-1.05,3.61c-.25,2.92,4,3.76,5.32,1.44,1.87-3.2,5.78-4.41,7.35-8.27a21.63,21.63,0,0,0,1-3.95c1-4.86.94-7.33,3.92-11.47,2.09-2.9,3.67-5.3,3.37-9C883.44,277.42,878,273.1,880.76,269.85Z"/><path class="cls-23" d="M889.46,218.62a.79.79,0,0,0-.2-1.42c-13.11-3.06-4.3,10.32-9,16-3,3.64-6,4.27-8.17,8.83a15,15,0,0,1-4.37,8.05c-1.56.71-3.1,1.48-4.6,2.3a7,7,0,0,0-1.93,3.23c-1,2.75,2.88,4.63,4.77,2.74,2.63-2.63,6.71-2.81,9.21-6.13a22.32,22.32,0,0,0,2-3.57c2.21-4.44,2.76-6.85,6.69-10.1,2.76-2.28,4.89-4.2,5.55-7.85C890.13,226.63,885.91,221.05,889.46,218.62Z"/><path class="cls-23" d="M911.61,215.45a.79.79,0,0,0-1.26-.69c-10.26,8.71,5.73,9.6,7.52,16.8,1.14,4.57-.16,7.39,2.22,11.82a15.12,15.12,0,0,1,3.87,8.3c-.37,1.68-.66,3.37-.9,5.08a7,7,0,0,0,1.45,3.47c1.62,2.43,5.44.44,5-2.21-.54-3.67,1.74-7.06.56-11a22.29,22.29,0,0,0-1.68-3.73c-2.24-4.42-3.85-6.29-4.12-11.39-.19-3.57-.47-6.43-3-9.13C918.44,219.68,911.45,219.75,911.61,215.45Z"/><path class="cls-23" d="M910.44,210.08c-2.41,0-5.33-.25-7.29,1.46-2.28,2-1.86,5.33-5.36,6.22-6.34,1.63-10.21-7.28-16.84-3.59-4.35,2.43-.45,9.11,3.9,6.68,0,0,5.6,3.43,6.78,3.85a13.64,13.64,0,0,0,8.21.52,13.44,13.44,0,0,0,6.48-4.14c.7-.8,1.1-1.83,1.72-2.64a3.36,3.36,0,0,0,.66-1.11c0,.1.14.52,1.74.49C915.41,217.72,915.43,210,910.44,210.08Z"/><path class="cls-11" d="M891.05,261.79h20.87S902,274,891.05,261.79Z"/><g class="cls-8"><path class="cls-18" d="M869.44,388.26c-.77-1.37-.29-3.08-.38-4.65-.12-2.15-1.31-4.06-2.53-5.83a93.89,93.89,0,0,0-5.76-7.43l3,18.29c0,1.43-1.6,9.62-3.58,19.23a16.42,16.42,0,0,0,2.39-3.13q2.46-4,4.94-8.07a7.8,7.8,0,0,1,2.94-3.23c2.43-1.18,5.53.34,8-.84-.15-.32-.3-.64-.46-1C875.54,389.64,871,391,869.44,388.26Z"/></g><path class="cls-18" d="M911.47,385.67a2.22,2.22,0,1,1-2.22-2.22A2.22,2.22,0,0,1,911.47,385.67Z"/><rect class="cls-39" x="1002.88" y="527.24" width="19.46" height="103.54" rx="2.1"/><rect class="cls-11" x="1009.52" y="535.25" width="5.14" height="5.14"/><rect class="cls-11" x="1009.52" y="545.53" width="5.14" height="5.14"/><rect class="cls-11" x="1009.52" y="555.81" width="5.14" height="5.14"/><rect class="cls-11" x="1009.52" y="566.09" width="5.14" height="5.14"/><rect class="cls-11" x="1009.52" y="576.37" width="5.14" height="5.14"/><rect class="cls-11" x="1009.52" y="586.65" width="5.14" height="5.14"/><rect class="cls-11" x="1009.52" y="596.93" width="5.14" height="5.14"/><rect class="cls-11" x="1009.52" y="607.21" width="5.14" height="5.14"/><rect class="cls-11" x="1009.52" y="617.49" width="5.14" height="5.14"/><path class="cls-10" d="M1092.31,625.64,1078,630.8a2.1,2.1,0,0,1-2.69-1.27l-33.62-93.47a2.11,2.11,0,0,1,1.27-2.69l14.35-5.16a2.12,2.12,0,0,1,2.7,1.27L1093.58,623A2.11,2.11,0,0,1,1092.31,625.64Z"/><path class="cls-11" d="M1063.42,545.69a7.5,7.5,0,1,1-9.59-4.52A7.49,7.49,0,0,1,1063.42,545.69Z"/><path class="cls-11" d="M1085.57,607.28a7.5,7.5,0,1,1-9.59-4.52A7.5,7.5,0,0,1,1085.57,607.28Z"/><rect class="cls-33" x="1022.21" y="519.9" width="19.46" height="110.88" rx="1.47"/><path class="cls-40" d="M1024.44,630.78h7.5V519.9h-7.5a2.23,2.23,0,0,0-2.23,2.22V628.56A2.22,2.22,0,0,0,1024.44,630.78Z"/><rect class="cls-11" x="1022.21" y="533.34" width="19.46" height="15.42"/><rect class="cls-11" x="1022.21" y="601.88" width="19.46" height="15.42"/><rect class="cls-6" x="975.18" y="513.66" width="27.54" height="117.12" rx="1.72"/><path class="cls-41" d="M977.78,630.78H989V513.66H977.78a2.59,2.59,0,0,0-2.6,2.6V628.18A2.59,2.59,0,0,0,977.78,630.78Z"/><rect class="cls-42" x="984.82" y="527.24" width="8.26" height="95.46" rx="0.85"/></g></g></svg>
