<svg xmlns="http://www.w3.org/2000/svg" xmlns:xlink="http://www.w3.org/1999/xlink" viewBox="0 0 1933 695"><defs><style>.cls-1{opacity:0.47;}.cls-2,.cls-4{fill:#e0e4f0;}.cls-3,.cls-4{opacity:0.5;}.cls-37,.cls-5{fill:#3454ad;}.cls-6{fill:#fec55e;}.cls-7{opacity:0.2;}.cls-8{fill:#b2b8fa;}.cls-9{fill:#575a8f;}.cls-10{opacity:0.44;}.cls-11{fill:#191c3c;}.cls-12{opacity:0.22;}.cls-13{fill:#8184c4;}.cls-14{fill:#4d5068;}.cls-15{fill:#536dfe;}.cls-16{fill:#ffcebd;}.cls-17{opacity:0.3;}.cls-18{opacity:0.17;}.cls-19{fill:#fff;}.cls-20{opacity:0.11;}.cls-21{opacity:0.18;}.cls-22{fill:#4563cc;}.cls-23{fill:#3a3c4e;}.cls-24{opacity:0.21;}.cls-25{fill:#6371c5;}.cls-26{fill:#6e6fda;}.cls-27{fill:#98aee5;}.cls-28{fill:#41446b;}.cls-29{fill:#dfe2ec;}.cls-30{opacity:0.23;}.cls-31{opacity:0.08;}.cls-32{fill:#231f20;}.cls-33{fill:#ffeac6;}.cls-34{fill:#fbbd1c;}.cls-35{fill:#fed58d;}.cls-36{fill:#ffe8bf;}.cls-37{font-size:16.99px;font-family:CenturyGothic-Bold, Century Gothic;font-weight:700;}.cls-38{opacity:0.1;}.cls-39{fill:#f7f9fa;}.cls-40{fill:#f5f7f9;}.cls-41{opacity:0.15;}.cls-42{opacity:0.4;}.cls-43{fill:#ff65a7;}.cls-44{fill:#e5e4e3;}.cls-45{fill:#bebcba;}.cls-46{fill:#f3f4f9;}.cls-47{fill:#e8eaed;}.cls-48{fill:#ececec;}.cls-49{fill:#bf9447;}.cls-50{fill:#403118;}.cls-51{fill:#212121;}.cls-52{fill:#fed17e;}.cls-53{fill:url(#linear-gradient);}.cls-54{fill:url(#linear-gradient-2);}.cls-55{fill:url(#linear-gradient-3);}.cls-56{fill:url(#linear-gradient-4);}.cls-57{fill:url(#linear-gradient-5);}.cls-58{fill:url(#linear-gradient-6);}.cls-59{fill:url(#linear-gradient-7);}.cls-60{fill:url(#linear-gradient-8);}</style><linearGradient id="linear-gradient" x1="148.47" y1="635.82" x2="232.73" y2="635.82" gradientUnits="userSpaceOnUse"><stop offset="0" stop-color="#fec55e"/><stop offset="1" stop-color="#ffa000"/></linearGradient><linearGradient id="linear-gradient-2" x1="148.29" y1="657.28" x2="232.55" y2="657.28" xlink:href="#linear-gradient"/><linearGradient id="linear-gradient-3" x1="144.27" y1="678.73" x2="228.53" y2="678.73" xlink:href="#linear-gradient"/><linearGradient id="linear-gradient-4" x1="235.05" y1="635.6" x2="319.31" y2="635.6" xlink:href="#linear-gradient"/><linearGradient id="linear-gradient-5" x1="236.74" y1="615.21" x2="321" y2="615.21" xlink:href="#linear-gradient"/><linearGradient id="linear-gradient-6" x1="234.74" y1="594.12" x2="319" y2="594.12" xlink:href="#linear-gradient"/><linearGradient id="linear-gradient-7" x1="236.74" y1="657.06" x2="321" y2="657.06" xlink:href="#linear-gradient"/><linearGradient id="linear-gradient-8" x1="232.73" y1="678.51" x2="316.98" y2="678.51" xlink:href="#linear-gradient"/></defs><title>Our Team</title><g id="Layer_2" data-name="Layer 2"><g id="Layer_1-2" data-name="Layer 1"><g class="cls-1"><path class="cls-2" d="M1085,693a520.62,520.62,0,0,0-45-212.35A164.8,164.8,0,0,0,842.68,251.87a520.13,520.13,0,0,0-280.26-81.45q-19.26,0-38.19,1.38a134.6,134.6,0,0,0-206.69,59.49,524.56,524.56,0,0,0-109,77.23,149.17,149.17,0,0,0-148.46,240A523.11,523.11,0,0,0,39.85,693Z"/></g><g class="cls-1"><path class="cls-2" d="M1933,693a520.62,520.62,0,0,0-45-212.35,164.8,164.8,0,0,0-197.34-228.78,520.13,520.13,0,0,0-280.26-81.45q-19.26,0-38.19,1.38a134.6,134.6,0,0,0-206.69,59.49,524.56,524.56,0,0,0-109,77.23,149.17,149.17,0,0,0-148.46,240A523.11,523.11,0,0,0,887.85,693Z"/></g><g class="cls-1"><path class="cls-2" d="M481.34,695c0-132.81-107.66-240.47-240.47-240.47S.4,562.19.4,695Z"/></g><g class="cls-1"><path class="cls-2" d="M963.36,695c0-132.81-107.67-240.47-240.48-240.47S482.41,562.19,482.41,695Z"/></g><g class="cls-1"><path class="cls-2" d="M1442.18,695c0-132.81-107.67-240.47-240.48-240.47S961.23,562.19,961.23,695Z"/></g><g class="cls-1"><path class="cls-2" d="M1921,695c0-132.81-107.66-240.47-240.47-240.47S1440.05,562.19,1440.05,695Z"/></g><g class="cls-3"><circle class="cls-2" cx="731.75" cy="156.92" r="15.82" transform="translate(411.61 833.38) rotate(-76.78)"/></g><g class="cls-3"><circle class="cls-2" cx="1371.75" cy="105.92" r="15.82" transform="translate(954.87 1417.08) rotate(-76.78)"/></g><g class="cls-3"><path class="cls-2" d="M465.22,95.66a20.48,20.48,0,1,1-20.48-20.49A20.48,20.48,0,0,1,465.22,95.66Z"/></g><g class="cls-3"><path class="cls-2" d="M1524.22,110.66a20.48,20.48,0,1,1-20.48-20.49A20.48,20.48,0,0,1,1524.22,110.66Z"/></g><g class="cls-3"><path class="cls-2" d="M1159.22,180.66a20.48,20.48,0,1,1-20.48-20.49A20.48,20.48,0,0,1,1159.22,180.66Z"/></g><g class="cls-3"><path class="cls-2" d="M227.56,229.8a10.44,10.44,0,1,1-10.44-10.44A10.44,10.44,0,0,1,227.56,229.8Z"/></g><g class="cls-3"><circle class="cls-2" cx="321.76" cy="153.09" r="10.44"/></g><g class="cls-3"><circle class="cls-2" cx="1762.76" cy="181.09" r="10.44"/></g><g class="cls-3"><path class="cls-2" d="M827.88,178.69a9.32,9.32,0,1,1-9.31-9.32A9.31,9.31,0,0,1,827.88,178.69Z"/></g><g class="cls-3"><path class="cls-2" d="M529.22,104.06a3.22,3.22,0,1,1-3.21-3.22A3.22,3.22,0,0,1,529.22,104.06Z"/></g><g class="cls-3"><circle class="cls-2" cx="258.31" cy="188.09" r="4.19"/></g><g class="cls-3"><path class="cls-2" d="M112.51,279.25a5.57,5.57,0,1,1-5.57-5.57A5.57,5.57,0,0,1,112.51,279.25Z"/></g><g class="cls-3"><path class="cls-2" d="M570.89,118.07a5.57,5.57,0,1,1-5.57-5.57A5.57,5.57,0,0,1,570.89,118.07Z"/></g><g class="cls-3"><path class="cls-2" d="M1233.89,109.07a5.57,5.57,0,1,1-5.57-5.57A5.57,5.57,0,0,1,1233.89,109.07Z"/></g><g class="cls-3"><circle class="cls-2" cx="162.42" cy="261.79" r="23.62" transform="matrix(0.16, -0.99, 0.99, 0.16, -122.01, 380.18)"/></g><g class="cls-3"><circle class="cls-2" cx="1035.42" cy="235.79" r="23.62" transform="translate(636.81 1220.07) rotate(-80.78)"/></g><g class="cls-3"><path class="cls-2" d="M37.43,537.43a5.57,5.57,0,1,1-5.57-5.57A5.57,5.57,0,0,1,37.43,537.43Z"/></g><g class="cls-3"><circle class="cls-2" cx="645.64" cy="141.68" r="22.89"/></g><g class="cls-3"><circle class="cls-2" cx="1639.64" cy="142.68" r="22.89"/></g><g class="cls-3"><circle class="cls-2" cx="910.64" cy="198.68" r="22.89"/></g><g class="cls-3"><circle class="cls-2" cx="29.43" cy="339.3" r="18.12" transform="translate(-127.61 37.09) rotate(-22.5)"/></g><g class="cls-3"><path class="cls-2" d="M1870.56,244.8a10.44,10.44,0,1,1-10.44-10.44A10.44,10.44,0,0,1,1870.56,244.8Z"/></g><path class="cls-4" d="M1304.5,71.11a6.43,6.43,0,1,1-6.43-6.42A6.43,6.43,0,0,1,1304.5,71.11Z"/><path class="cls-5" d="M1109.79,58.05a7.38,7.38,0,1,1,7.38-7.38A7.39,7.39,0,0,1,1109.79,58.05Zm0-10.83a3.46,3.46,0,1,0,3.46,3.45A3.46,3.46,0,0,0,1109.79,47.22Z"/><path class="cls-5" d="M1233.77,127.06a4.93,4.93,0,1,1,4.93-4.93A4.93,4.93,0,0,1,1233.77,127.06Zm0-7.24a2.31,2.31,0,1,0,2.31,2.31A2.31,2.31,0,0,0,1233.77,119.82Z"/><path class="cls-5" d="M776.09,97.75A4.93,4.93,0,1,1,781,92.82,4.94,4.94,0,0,1,776.09,97.75Zm0-7.24a2.31,2.31,0,1,0,2.31,2.31A2.31,2.31,0,0,0,776.09,90.51Z"/><path class="cls-5" d="M900.67,77.53a6.42,6.42,0,1,1,6.41-6.42A6.42,6.42,0,0,1,900.67,77.53Zm0-9.42a3,3,0,1,0,3,3A3,3,0,0,0,900.67,68.11Z"/><path class="cls-5" d="M1077.28,105.52h-3.16v-3.17a1.79,1.79,0,1,0-3.58,0v3.17h-3.17a1.79,1.79,0,1,0,0,3.57h3.17v3.17a1.79,1.79,0,0,0,3.58,0v-3.17h3.16a1.79,1.79,0,1,0,0-3.57Z"/><path class="cls-5" d="M1006.8,11h-4.29V6.69a2.43,2.43,0,0,0-4.85,0V11h-4.29a2.43,2.43,0,1,0,0,4.85h4.29v4.29a2.43,2.43,0,0,0,4.85,0V15.83h4.29a2.43,2.43,0,0,0,0-4.85Z"/><path class="cls-5" d="M841.89,59.93h-2.43V57.5a1.37,1.37,0,1,0-2.73,0v2.43H834.3a1.37,1.37,0,0,0,0,2.74h2.43v2.42a1.37,1.37,0,1,0,2.73,0V62.67h2.43a1.37,1.37,0,1,0,0-2.74Z"/><path class="cls-5" d="M1199.46,84.33H1197V81.9a1.37,1.37,0,1,0-2.74,0v2.43h-2.42a1.37,1.37,0,1,0,0,2.74h2.42v2.42a1.37,1.37,0,1,0,2.74,0V87.07h2.43a1.37,1.37,0,0,0,0-2.74Z"/><path class="cls-5" d="M751.6,134h-2.22v-2.22a1.26,1.26,0,0,0-2.51,0V134h-2.22a1.26,1.26,0,0,0,0,2.51h2.22v2.22a1.26,1.26,0,1,0,2.51,0v-2.22h2.22a1.26,1.26,0,1,0,0-2.51Z"/><path class="cls-5" d="M1157.62,150.49h-2.22v-2.22a1.26,1.26,0,0,0-2.51,0v2.22h-2.22a1.26,1.26,0,0,0,0,2.51h2.22v2.22a1.26,1.26,0,1,0,2.51,0V153h2.22a1.26,1.26,0,1,0,0-2.51Z"/><path class="cls-5" d="M1113,213.58l-1.92,1.91-1.91-1.91a1.53,1.53,0,0,0-2.17,2.16l1.92,1.92-1.92,1.91a1.53,1.53,0,0,0,0,2.17,1.55,1.55,0,0,0,2.17,0l1.91-1.92,1.92,1.92a1.53,1.53,0,1,0,2.16-2.17l-1.91-1.91,1.91-1.92a1.53,1.53,0,1,0-2.16-2.16Z"/><path class="cls-5" d="M711.76,220.27l-1.13,1.12-1.12-1.12a.9.9,0,0,0-1.27,1.27l1.13,1.12-1.13,1.12a.9.9,0,1,0,1.27,1.27l1.12-1.12,1.13,1.12a.89.89,0,0,0,1.26,0,.9.9,0,0,0,0-1.27l-1.12-1.12,1.12-1.12a.9.9,0,0,0,0-1.27A.89.89,0,0,0,711.76,220.27Z"/><path class="cls-5" d="M903.14,19.15l-1.91,1.92-1.92-1.92a1.53,1.53,0,0,0-2.16,2.16l1.91,1.92-1.91,1.91a1.53,1.53,0,0,0,2.16,2.17l1.92-1.92,1.91,1.92a1.53,1.53,0,0,0,2.17-2.17l-1.92-1.91,1.92-1.92a1.53,1.53,0,0,0-2.17-2.16Z"/><path class="cls-5" d="M795,179.65,793,181.57l-1.91-1.92a1.53,1.53,0,0,0-2.17,2.16l1.92,1.92L789,185.65a1.53,1.53,0,0,0,2.17,2.16l1.91-1.92,1.92,1.92a1.53,1.53,0,0,0,2.16-2.16l-1.91-1.92,1.91-1.92a1.53,1.53,0,0,0-2.16-2.16Z"/><path class="cls-5" d="M1226.2,178.62l-1.09,1.09-1.1-1.09a.87.87,0,0,0-1.23,1.23l1.09,1.1-1.09,1.09a.88.88,0,0,0,0,1.24.87.87,0,0,0,1.23,0l1.1-1.09,1.09,1.09a.88.88,0,1,0,1.24-1.24l-1.09-1.09,1.09-1.1a.87.87,0,0,0,0-1.23A.88.88,0,0,0,1226.2,178.62Z"/><path class="cls-5" d="M1077.82.45l-1.91,1.91L1074,.45a1.53,1.53,0,1,0-2.16,2.16l1.91,1.92-1.91,1.91A1.53,1.53,0,1,0,1074,8.61l1.92-1.92,1.91,1.92A1.53,1.53,0,1,0,1080,6.44l-1.92-1.91L1080,2.61a1.53,1.53,0,0,0-2.17-2.16Z"/><path class="cls-5" d="M892.21,147.67l-1.92,1.91-1.91-1.91a1.53,1.53,0,0,0-2.17,2.16l1.92,1.92-1.92,1.91a1.53,1.53,0,0,0,0,2.17,1.55,1.55,0,0,0,2.17,0l1.91-1.92,1.92,1.92a1.53,1.53,0,0,0,2.16-2.17l-1.92-1.91,1.92-1.92a1.53,1.53,0,0,0-2.16-2.16Z"/><path class="cls-6" d="M838.09,133.33a2,2,0,1,1-2-2A2,2,0,0,1,838.09,133.33Z"/><path class="cls-6" d="M887.41,214.49a1.55,1.55,0,1,1-1.55-1.55A1.56,1.56,0,0,1,887.41,214.49Z"/><path class="cls-6" d="M1141.47,250a1.55,1.55,0,1,1-1.55-1.55A1.55,1.55,0,0,1,1141.47,250Z"/><path class="cls-6" d="M685.76,173.24a2,2,0,1,1-2-2A2,2,0,0,1,685.76,173.24Z"/><path class="cls-6" d="M1146.12,106.55a2,2,0,1,1-2-2A2,2,0,0,1,1146.12,106.55Z"/><path class="cls-6" d="M954.2,2.38a2,2,0,1,1-2-2A2,2,0,0,1,954.2,2.38Z"/><path class="cls-6" d="M925.23,119.59a2.41,2.41,0,1,1-2.41-2.4A2.41,2.41,0,0,1,925.23,119.59Z"/><path class="cls-6" d="M1058.76,156.27a2.41,2.41,0,1,1-2.4-2.4A2.41,2.41,0,0,1,1058.76,156.27Z"/><g class="cls-7"><path class="cls-8" d="M856.24,692.71c-4.46-38-10.36-66.28-38.19-93.57-13-12.8-30.29-21.76-40.58-36.71-12.54-18.2-13.54-43.57-30.76-57.76-18.48-15.24-48.12-11.06-67.15-25.66C666,468.6,661,451.13,651.26,437.3c-15.81-22.43-45.77-34.69-73.47-30.07,27.74,6.51,47.31,36,41.83,63-3.5,17.28-15.7,33.07-14.2,50.62,3,34.86,55.72,49.78,59.78,84.53,1.11,9.47-1.76,18.92-2.16,28.44-1.22,29.56,25.46,57.56,56.12,58.87Z"/><path class="cls-9" d="M648.89,494a489.1,489.1,0,0,1,72.82,85.72c20.07,30,34.21,61.94,50.49,93.84,1.47,2.87,6.29.86,5.34-2.17C756.18,603,703.27,540.83,649,493.92c-.07-.05-.16,0-.1.09Z"/><path class="cls-9" d="M651.25,529.32a54.85,54.85,0,0,1,22.61,1.84c7.67,2.35,12.9,7.19,19.93,10.41.78.36,1.88-.42,1.3-1.25-8.63-12.27-30.23-14.48-44-12.29-.74.12-.58,1.38.18,1.29Z"/><path class="cls-9" d="M668.27,567.57a68,68,0,0,1,31.8-.39c9.6,2.29,17.06,7.48,25.58,11.91a1.4,1.4,0,0,0,1.73-2.17c-14.23-14.82-40.67-16-59.29-10a.33.33,0,0,0,.18.63Z"/><path class="cls-9" d="M687.1,618.28c29.22-3.43,48.57,2.23,70.63,21.15,1.31,1.13,3.63-.33,2.56-1.9-14.35-20.95-49.77-31-73.57-20.59a.72.72,0,0,0,.38,1.34Z"/><path class="cls-9" d="M705.79,512.14c-11.77,12.44-7.45,37.1,3.91,48.4.42.42,1.19-.13.85-.64-5.07-7.62-8.72-14.95-9-24.22-.25-8.52,3.18-14.89,5.71-22.71a.88.88,0,0,0-1.47-.83Z"/><path class="cls-9" d="M727.74,540.08c-6,16.06-5.36,37.41,4.37,52.07.49.73,1.77.28,1.49-.6-5.66-17.9-8.18-32.35-4.29-51.06a.81.81,0,0,0-1.57-.41Z"/><path class="cls-9" d="M761.68,570.8c-10.48,22.55-9,47.54.79,70.05.9,2,4.43,1.18,3.54-1-9.49-22.59-9-45.06-2.22-68.25.34-1.17-1.56-2-2.11-.85Z"/></g><g class="cls-10"><path class="cls-11" d="M1151.47,479.26c.07,0,.07-.12,0-.12a.06.06,0,0,0,0,.12Z"/></g><g class="cls-12"><path class="cls-8" d="M978,544.13c-16.65-25.07-33.45-50.34-54.86-71.48-7-7-17.18-13.87-26.08-9.55-8.18,4-9.72,14.9-9.07,24,3.09,42.61,30.23,79.65,60.37,109.94a480.36,480.36,0,0,0,114.82,85.16l7.32,1.3Z"/><path class="cls-9" d="M1056.07,673.13C990.4,628.35,938.15,559.67,906.69,487.28c-1.12-2.58-4.94-.35-3.79,2.23a446.19,446.19,0,0,0,63.5,103c26.11,31.66,56.52,56.83,89.55,80.82.13.09.25-.12.12-.21Z"/><path class="cls-9" d="M898.61,522.45a64.13,64.13,0,0,0,29.78,15.33,1.36,1.36,0,0,0,.69-2.63,67.54,67.54,0,0,1-28.7-14.51c-1.22-1.06-3,.72-1.77,1.81Z"/><path class="cls-9" d="M921.24,556.57c8.18,8.34,20.1,18.52,31.67,21.32a.66.66,0,0,0,.49-1.2c-4.79-3.43-10.54-5.57-15.57-8.7a164.28,164.28,0,0,1-16.19-11.82c-.28-.22-.65.14-.4.4Z"/><path class="cls-9" d="M955.67,597.83c6.53,5.66,14.7,9.3,22.94,11.72,1.16.34,1.64-1.5.48-1.82-8.34-2.25-15.59-6.13-22.92-10.57a.42.42,0,0,0-.5.67Z"/><path class="cls-9" d="M931.89,509.44c2.07,13.24,4.13,24.88,2.86,38.36-.23,2.42,3.48,2.35,3.74,0,1.42-12.54.77-27.57-4.54-39.21-.57-1.25-2.24-.29-2.06.85Z"/><path class="cls-9" d="M953.52,539.56c5.83,12.74,9.21,26,9,40a1.5,1.5,0,0,0,3,0c-.12-14.44-3.47-28.23-11.12-40.54a.52.52,0,0,0-.89.52Z"/><path class="cls-9" d="M982.81,574.33c7.2,15.38,13,28.74,14.41,45.9.24,2.81,4.64,2.82,4.41,0-1.35-16.26-6.44-34.52-17.14-47.21-.83-1-2.15.29-1.68,1.31Z"/><path class="cls-8" d="M1041.76,671.24,926.94,609.73c-13.51-7.23-27.21-14.54-42.11-18.1s-31.41-3-44.57,4.85a14.76,14.76,0,0,0-4.86,4.18c-3.73,5.58-.06,13,4,18.39,32.16,42.33,87.51,59.08,139.84,68.49,31.2,5.62,64.56,9.28,93.64-3.36C1072.88,684.18,1054.08,677.84,1041.76,671.24Z"/><path class="cls-9" d="M849.42,609.72c27.51,17.83,58,29.7,88.82,40.51,34.15,12,68.4,23.66,102.43,36,2.66,1,4.32-3.19,1.63-4.09-33-11-65.74-22.57-98.56-34-32-11.12-64-22.36-92.81-40.46-1.36-.86-2.89,1.13-1.51,2Z"/><path class="cls-9" d="M860.18,632.64c11.15,1.57,22.45,3.4,33.71,3.83,2.67.1,3.26-3.91.52-4.19-11.27-1.13-22.76-.86-34.08-.85-.76,0-1,1.1-.15,1.21Z"/><path class="cls-9" d="M905.26,656.55l22-1c7.22-.33,14.82,0,21.84-1.88,1.35-.36,1.58-2.4,0-2.6-6.9-.88-14,.27-20.93.87l-23.2,2c-1.7.14-1.31,2.67.35,2.6Z"/><path class="cls-9" d="M961.85,676.89c6.14-1.8,12.1-3.83,18.48-4.62,5.23-.65,10.84.56,15.85-.84,1.37-.38.94-2.17,0-2.69-4.93-2.65-13-1.28-18.3-.2-6,1.24-11.84,3.29-16.8,7-.77.57,0,1.6.79,1.36Z"/><path class="cls-9" d="M880.3,604.39a144.79,144.79,0,0,1,10.39,18.3c2.27,4.88,3.62,10.41,6.81,14.73a.71.71,0,0,0,1.25-.53c-.49-6.15-4.24-12.1-7.07-17.49A185.1,185.1,0,0,0,882,603.06c-.77-1.16-2.45.17-1.7,1.33Z"/><path class="cls-9" d="M918,623.57c6.44,7.53,12.53,16.62,20.08,23,.51.43,1.11-.3.78-.8-5.47-8.21-13.77-15.26-20.49-22.5-.2-.22-.56.05-.37.28Z"/><path class="cls-9" d="M956.65,638.06c3.49,4.52,7.21,9,10.51,13.63,2.89,4.08,5.19,8.87,9.5,11.6a.89.89,0,0,0,1.35-1c-1.59-4.84-5.71-8.23-8.93-12-3.69-4.38-7.11-9-10.65-13.52a1.13,1.13,0,0,0-1.78,1.39Z"/><path class="cls-13" d="M1029.64,478.93c-5.75-5.2-15.13-7.2-21.28-2.47-5.6,4.32-6.6,12.27-6.74,19.34-1.3,63.78,34,130.56,64.51,186.56l6.5,1.65c-5.57-62.49-11.28-125.7-31.75-185C1038.35,491.68,1035.4,484.13,1029.64,478.93Z"/><path class="cls-9" d="M1063.56,662.48c-17.48-53.57-29.71-108.35-42-163.29-.4-1.83-3.32-1.41-2.87.38,13.6,54.52,24.74,110.37,44,163.27.21.57,1,.21.86-.36Z"/><path class="cls-9" d="M1010.43,518.81l8.36,11c2.43,3.19,4.59,6.82,7.9,9.15a1,1,0,0,0,1.56-1.22c-1.45-3.75-4.46-6.77-7-9.89L1012.72,517a1.45,1.45,0,0,0-2.29,1.79Z"/><path class="cls-9" d="M1017.45,549.82c4.94,7.77,9.62,17.32,16.11,23.86a.66.66,0,0,0,1.13-.65c-2.51-8.91-10-17.45-16.14-24.07a.7.7,0,0,0-1.1.86Z"/><path class="cls-9" d="M1028.2,587.7c1.36,4.89,4.72,9.49,7.21,13.92,2.23,4,4.15,8.26,7,11.77a.66.66,0,0,0,1.12-.66c-1.52-4.89-4.52-9.5-6.88-14.06-2.09-4-3.81-8.52-6.82-11.95a1,1,0,0,0-1.68,1Z"/><path class="cls-9" d="M1042.69,534.21a58.56,58.56,0,0,0-6.69,16.36c-1.08,4.4-2.89,10.89-1,15.21a1,1,0,0,0,1.82,0c1.93-4.09,1.35-9.91,2.23-14.42a101.41,101.41,0,0,1,4.9-16.46c.27-.72-.79-1.39-1.22-.68Z"/><path class="cls-9" d="M1054,577.82c-.91,5.76-1.49,11.48-2,17.29-.43,5.14-1.54,10.65-.76,15.77.16,1,1.83,1.41,2.16.27,1.51-5.28,1.11-11.21,1.36-16.68s.38-11.07.24-16.65c0-.61-.94-.55-1,0Z"/></g><g class="cls-12"><path class="cls-8" d="M547,544.13c-16.65-25.07-33.45-50.34-54.86-71.48-7-7-17.18-13.87-26.08-9.55-8.18,4-9.72,14.9-9.06,24,3.08,42.61,30.22,79.65,60.36,109.94a480.36,480.36,0,0,0,114.82,85.16l7.32,1.3Z"/><path class="cls-9" d="M625.13,673.13c-65.67-44.78-117.92-113.46-149.38-185.85-1.12-2.58-4.94-.35-3.79,2.23a446.19,446.19,0,0,0,63.5,103C561.57,624.18,592,649.35,625,673.34c.13.09.25-.12.12-.21Z"/><path class="cls-9" d="M467.67,522.45a64.13,64.13,0,0,0,29.78,15.33,1.36,1.36,0,0,0,.69-2.63,67.54,67.54,0,0,1-28.7-14.51c-1.22-1.06-3,.72-1.77,1.81Z"/><path class="cls-9" d="M490.3,556.57c8.18,8.34,20.1,18.52,31.67,21.32a.66.66,0,0,0,.49-1.2c-4.79-3.43-10.54-5.57-15.57-8.7a164.28,164.28,0,0,1-16.19-11.82c-.28-.22-.65.14-.4.4Z"/><path class="cls-9" d="M524.73,597.83c6.53,5.66,14.7,9.3,22.94,11.72,1.16.34,1.64-1.5.48-1.82-8.34-2.25-15.59-6.13-22.92-10.57a.42.42,0,0,0-.5.67Z"/><path class="cls-9" d="M501,509.44c2.07,13.24,4.13,24.88,2.86,38.36-.23,2.42,3.48,2.35,3.75,0,1.41-12.54.76-27.57-4.55-39.21-.57-1.25-2.24-.29-2.06.85Z"/><path class="cls-9" d="M522.58,539.56c5.83,12.74,9.21,26,9,40a1.5,1.5,0,0,0,3,0c-.12-14.44-3.47-28.23-11.12-40.54a.52.52,0,0,0-.89.52Z"/><path class="cls-9" d="M551.87,574.33c7.2,15.38,13,28.74,14.41,45.9.24,2.81,4.64,2.82,4.41,0-1.35-16.26-6.44-34.52-17.14-47.21-.83-1-2.15.29-1.68,1.31Z"/><path class="cls-8" d="M610.82,671.24,496,609.73c-13.51-7.23-27.21-14.54-42.11-18.1s-31.41-3-44.57,4.85a14.76,14.76,0,0,0-4.86,4.18c-3.73,5.58-.06,13,4,18.39,32.16,42.33,87.51,59.08,139.84,68.49,31.2,5.62,64.56,9.28,93.64-3.36C641.94,684.18,623.14,677.84,610.82,671.24Z"/><path class="cls-9" d="M418.48,609.72c27.51,17.83,58,29.7,88.82,40.51,34.15,12,68.4,23.66,102.43,36,2.66,1,4.32-3.19,1.63-4.09-33-11-65.74-22.57-98.56-34-32-11.12-64-22.36-92.81-40.46-1.36-.86-2.89,1.13-1.51,2Z"/><path class="cls-9" d="M429.24,632.64c11.15,1.57,22.45,3.4,33.71,3.83,2.67.1,3.26-3.91.52-4.19-11.27-1.13-22.76-.86-34.08-.85-.76,0-.95,1.1-.15,1.21Z"/><path class="cls-9" d="M474.32,656.55l21.95-1c7.22-.33,14.82,0,21.84-1.88,1.35-.36,1.58-2.4,0-2.6-6.9-.88-14,.27-20.93.87L474,654c-1.7.14-1.31,2.67.35,2.6Z"/><path class="cls-9" d="M530.91,676.89c6.14-1.8,12.1-3.83,18.48-4.62,5.23-.65,10.84.56,15.85-.84,1.37-.38.94-2.17,0-2.69-4.93-2.65-13-1.28-18.3-.2-6,1.24-11.84,3.29-16.8,7-.77.57,0,1.6.79,1.36Z"/><path class="cls-9" d="M449.36,604.39a144.79,144.79,0,0,1,10.39,18.3c2.27,4.88,3.62,10.41,6.81,14.73a.71.71,0,0,0,1.25-.53c-.49-6.15-4.24-12.1-7.07-17.49a185.1,185.1,0,0,0-9.68-16.34c-.77-1.16-2.45.17-1.7,1.33Z"/><path class="cls-9" d="M487.1,623.57c6.44,7.53,12.53,16.62,20.08,23,.51.43,1.11-.3.78-.8-5.47-8.21-13.77-15.26-20.49-22.5-.2-.22-.56.05-.37.28Z"/><path class="cls-9" d="M525.71,638.06c3.5,4.52,7.21,9,10.51,13.63,2.89,4.08,5.19,8.87,9.5,11.6a.9.9,0,0,0,1.36-1c-1.6-4.84-5.72-8.23-8.94-12-3.69-4.38-7.11-9-10.65-13.52a1.13,1.13,0,0,0-1.78,1.39Z"/><path class="cls-13" d="M598.7,478.93c-5.75-5.2-15.13-7.2-21.28-2.47-5.6,4.32-6.6,12.27-6.74,19.34-1.3,63.78,34,130.56,64.51,186.56l6.5,1.65c-5.57-62.49-11.28-125.7-31.75-185C607.41,491.68,604.46,484.13,598.7,478.93Z"/><path class="cls-9" d="M632.62,662.48c-17.48-53.57-29.71-108.35-42-163.29-.4-1.83-3.32-1.41-2.87.38,13.6,54.52,24.74,110.37,44,163.27.21.57,1,.21.86-.36Z"/><path class="cls-9" d="M579.49,518.81l8.36,11c2.43,3.19,4.59,6.82,7.9,9.15a1,1,0,0,0,1.56-1.22c-1.45-3.75-4.46-6.77-6.95-9.89L581.78,517a1.45,1.45,0,0,0-2.29,1.79Z"/><path class="cls-9" d="M586.51,549.82c4.94,7.77,9.62,17.32,16.11,23.86a.66.66,0,0,0,1.13-.65c-2.51-8.91-10-17.45-16.14-24.07a.7.7,0,0,0-1.1.86Z"/><path class="cls-9" d="M597.26,587.7c1.36,4.89,4.72,9.49,7.21,13.92,2.23,4,4.15,8.26,7,11.77a.66.66,0,0,0,1.12-.66c-1.52-4.89-4.52-9.5-6.88-14.06-2.09-4-3.81-8.52-6.82-11.95a1,1,0,0,0-1.68,1Z"/><path class="cls-9" d="M611.75,534.21a58.86,58.86,0,0,0-6.69,16.36c-1.08,4.4-2.89,10.89-1,15.21a1,1,0,0,0,1.82,0c1.94-4.09,1.35-9.91,2.23-14.42a101.41,101.41,0,0,1,4.9-16.46c.27-.72-.79-1.39-1.22-.68Z"/><path class="cls-9" d="M623,577.82c-.91,5.76-1.49,11.48-2,17.29-.43,5.14-1.54,10.65-.76,15.77.16,1,1.83,1.41,2.16.27,1.51-5.28,1.11-11.21,1.36-16.68s.38-11.07.24-16.65c0-.61-.94-.55-1,0Z"/></g><g class="cls-7"><path class="cls-8" d="M1307.36,692.71c4.46-38,10.36-66.28,38.19-93.57,13-12.8,30.29-21.76,40.58-36.71,12.54-18.2,13.54-43.57,30.76-57.76C1435.37,489.43,1465,493.61,1484,479c13.58-10.41,18.56-27.88,28.3-41.71,15.81-22.43,45.77-34.69,73.47-30.07-27.74,6.51-47.31,36-41.83,63,3.5,17.28,15.7,33.07,14.2,50.62-3,34.86-55.72,49.78-59.78,84.53-1.11,9.47,1.76,18.92,2.16,28.44,1.22,29.56-25.46,57.56-56.12,58.87Z"/><path class="cls-9" d="M1514.71,494a489.1,489.1,0,0,0-72.82,85.72c-20.07,30-34.22,61.94-50.5,93.84-1.46,2.87-6.28.86-5.33-2.17,21.36-68.45,74.27-130.57,128.55-177.48.07-.05.16,0,.1.09Z"/><path class="cls-9" d="M1512.35,529.32a54.85,54.85,0,0,0-22.61,1.84c-7.67,2.35-12.9,7.19-19.93,10.41-.78.36-1.88-.42-1.3-1.25,8.63-12.27,30.23-14.48,44-12.29.74.12.58,1.38-.18,1.29Z"/><path class="cls-9" d="M1495.33,567.57a68,68,0,0,0-31.8-.39c-9.6,2.29-17.06,7.48-25.58,11.91a1.4,1.4,0,0,1-1.73-2.17c14.23-14.82,40.67-16,59.29-10a.33.33,0,0,1-.18.63Z"/><path class="cls-9" d="M1476.5,618.28c-29.22-3.43-48.57,2.23-70.63,21.15-1.31,1.13-3.63-.33-2.56-1.9,14.35-20.95,49.77-31,73.57-20.59a.72.72,0,0,1-.38,1.34Z"/><path class="cls-9" d="M1457.81,512.14c11.77,12.44,7.45,37.1-3.91,48.4-.42.42-1.19-.13-.85-.64,5.07-7.62,8.72-14.95,9-24.22.25-8.52-3.18-14.89-5.71-22.71a.88.88,0,0,1,1.47-.83Z"/><path class="cls-9" d="M1435.86,540.08c6,16.06,5.36,37.41-4.37,52.07-.49.73-1.77.28-1.49-.6,5.66-17.9,8.18-32.35,4.29-51.06a.81.81,0,0,1,1.57-.41Z"/><path class="cls-9" d="M1401.92,570.8c10.48,22.55,9,47.54-.79,70.05-.9,2-4.43,1.18-3.54-1,9.49-22.59,9-45.06,2.22-68.25-.34-1.17,1.56-2,2.11-.85Z"/></g><g class="cls-7"><path class="cls-8" d="M1286.81,692.71c-4.16-35.49-9.66-61.84-35.63-87.31-12.17-11.93-28.26-20.3-37.86-34.24-11.7-17-12.63-40.65-28.69-53.89-17.25-14.22-44.91-10.32-62.66-23.95-12.67-9.71-17.31-26-26.41-38.91-14.74-20.92-42.69-32.37-68.54-28.06,25.88,6.08,44.14,33.59,39,58.8-3.27,16.13-14.65,30.86-13.25,47.23,2.78,32.52,52,46.44,55.78,78.87,1,8.83-1.65,17.65-2,26.53-1.14,27.59,23.76,53.71,52.35,54.93Z"/><path class="cls-9" d="M1093.36,507.33a456.51,456.51,0,0,1,67.94,80c18.72,28,31.92,57.79,47.11,87.55,1.37,2.68,5.86.8,5-2C1193.46,609,1144.09,551,1093.45,507.24c-.07-.05-.15,0-.09.09Z"/><path class="cls-9" d="M1095.56,540.27a51,51,0,0,1,21.09,1.71c7.16,2.2,12,6.71,18.59,9.72.73.34,1.76-.4,1.22-1.17-8-11.45-28.21-13.51-41.07-11.46a.61.61,0,0,0,.17,1.2Z"/><path class="cls-9" d="M1111.44,576a63.45,63.45,0,0,1,29.67-.36c9,2.14,15.91,7,23.86,11.11a1.31,1.31,0,0,0,1.61-2c-13.27-13.83-37.94-14.95-55.31-9.32a.31.31,0,0,0,.17.59Z"/><path class="cls-9" d="M1129,623.26c27.27-3.2,45.32,2.08,65.9,19.74,1.23,1,3.39-.31,2.39-1.77-13.39-19.55-46.44-29-68.64-19.22a.67.67,0,0,0,.35,1.25Z"/><path class="cls-9" d="M1146.44,524.24c-11,11.61-7,34.61,3.65,45.15.39.4,1.11-.12.8-.59-4.73-7.11-8.14-13.95-8.4-22.6-.24-8,3-13.89,5.33-21.19a.83.83,0,0,0-1.38-.77Z"/><path class="cls-9" d="M1166.93,550.3c-5.62,15-5,34.91,4.07,48.59.45.68,1.65.26,1.39-.56-5.28-16.7-7.63-30.19-4-47.64a.76.76,0,0,0-1.46-.39Z"/><path class="cls-9" d="M1198.59,579c-9.78,21-8.42,44.36.74,65.36.83,1.92,4.13,1.1,3.3-.88-8.85-21.08-8.37-42-2.07-63.68.32-1.09-1.46-1.9-2-.8Z"/></g><g class="cls-7"><path class="cls-8" d="M1305.11,651.17l-.6.3c-6.18,3-9.48,2.56-15.56-.17a63.41,63.41,0,0,1-15.69-9.54c-5.89-5.11-10.5-12-11.52-19.77a7.09,7.09,0,0,1,.78-5.06c1.4-2,4.3-2.27,6.55-1.43s4,2.57,5.83,4.16a6.39,6.39,0,0,0,2.57,1.61,2.39,2.39,0,0,0,2.69-.92c.79-1.43-.61-3.05-1.87-4.08-2.93-2.39-5.66-3.76-8.73-5.87-3.85-2.66-7.42-5.91-9.56-10.06s-2.66-9.33-.52-13.49a8.25,8.25,0,0,1,2.75-3.19c2.12-1.37,4.85-1.33,7.32-.83s4.86,1.42,7.37,1.66c5.94.55,8.22-3.64,8-9.09-.11-3.66-1.33-7.2-1.58-10.85-.43-6.43,2.67-13.31,8.47-16.12s14-.25,16.1,5.82c2.33,6.6-2.77,14.09.72,20.38a19.15,19.15,0,0,0,5.67,6.07c3.27,2,7.92-.43,11.71-.3a3.43,3.43,0,0,1,2.35.73,3.19,3.19,0,0,1,.75,1.68,14,14,0,0,1-4.11,12.82c-3.88,3.61-10.66,5.49-12.27,11.09-1,3.48-.46,12.12,5,11.19,2.06-.35,3.43-2.41,5.41-3.1,2.45-.86,5.28.74,6.4,3.08a9.71,9.71,0,0,1-.11,7.57c-1.47,3.82-4.35,6.9-7.16,9.87C1316.57,641.46,1312.79,647.29,1305.11,651.17Z"/><rect class="cls-14" x="1295.38" y="570.65" width="2.64" height="122.05" transform="matrix(1, -0.01, 0.01, 1, -6.24, 12.97)"/><polygon class="cls-14" points="1296.5 611.49 1279.77 595.09 1281.62 593.21 1296.46 607.75 1311.01 592.91 1312.89 594.76 1296.5 611.49"/><polygon class="cls-14" points="1296.81 642.87 1280.09 626.48 1281.94 624.59 1296.78 639.14 1311.32 624.3 1313.21 626.15 1296.81 642.87"/></g><g class="cls-7"><path class="cls-8" d="M1558.34,690.33l-.59.29c-6.18,3-9.48,2.57-15.56-.16a63.56,63.56,0,0,1-15.69-9.55c-5.9-5.1-10.5-12-11.52-19.77a7.06,7.06,0,0,1,.78-5.06c1.4-2,4.3-2.27,6.54-1.42s4,2.57,5.84,4.16a6.65,6.65,0,0,0,2.56,1.61,2.39,2.39,0,0,0,2.69-.93c.79-1.42-.6-3-1.87-4.08-2.92-2.38-5.66-3.76-8.72-5.87-3.85-2.65-7.42-5.9-9.56-10.06s-2.66-9.33-.52-13.48a8.18,8.18,0,0,1,2.74-3.2c2.12-1.36,4.86-1.32,7.33-.82s4.86,1.42,7.37,1.65c5.93.56,8.22-3.63,8-9.09-.12-3.65-1.34-7.2-1.58-10.85-.44-6.42,2.67-13.3,8.46-16.11s14-.26,16.1,5.81c2.33,6.6-2.76,14.09.72,20.39a19.45,19.45,0,0,0,5.67,6.06c3.27,2,7.93-.43,11.72-.29a3.39,3.39,0,0,1,2.35.73,3.27,3.27,0,0,1,.75,1.68,14,14,0,0,1-4.12,12.82c-3.88,3.6-10.65,5.49-12.26,11.09-1,3.48-.47,12.12,5,11.19,2.07-.35,3.43-2.42,5.41-3.11,2.45-.85,5.28.75,6.4,3.09a9.64,9.64,0,0,1-.1,7.56c-1.48,3.82-4.36,6.9-7.17,9.88C1569.81,680.62,1566,686.44,1558.34,690.33Z"/><rect class="cls-14" x="1548.41" y="609.8" width="2.64" height="80.9" transform="translate(-6.41 15.49) rotate(-0.57)"/><polygon class="cls-14" points="1549.73 650.64 1533.01 634.25 1534.86 632.36 1549.7 646.91 1564.24 632.07 1566.13 633.92 1549.73 650.64"/><polygon class="cls-14" points="1550.05 682.03 1533.32 665.63 1535.17 663.75 1550.01 678.29 1564.56 663.45 1566.44 665.3 1550.05 682.03"/></g><g class="cls-7"><path class="cls-13" d="M1611.45,549.06l-.62.31c-6.51,3.19-10,2.7-16.38-.18a66.74,66.74,0,0,1-16.52-10c-6.2-5.38-11-12.68-12.12-20.81-.24-1.83-.25-3.83.82-5.33,1.47-2.06,4.52-2.39,6.89-1.5s4.24,2.7,6.14,4.38a6.85,6.85,0,0,0,2.7,1.69,2.52,2.52,0,0,0,2.83-1c.84-1.5-.64-3.21-2-4.29-3.07-2.52-6-4-9.18-6.18-4-2.8-7.81-6.22-10.06-10.59s-2.8-9.83-.55-14.2a8.63,8.63,0,0,1,2.89-3.36c2.23-1.44,5.11-1.4,7.71-.87s5.12,1.49,7.76,1.74c6.24.59,8.65-3.83,8.47-9.57-.12-3.84-1.4-7.57-1.66-11.42-.46-6.76,2.81-14,8.91-17s14.69-.27,17,6.12c2.45,7-2.91,14.83.75,21.46a20.36,20.36,0,0,0,6,6.38c3.44,2.09,8.35-.45,12.33-.31a3.63,3.63,0,0,1,2.48.77,3.4,3.4,0,0,1,.78,1.77,14.75,14.75,0,0,1-4.32,13.49c-4.09,3.8-11.22,5.78-12.92,11.68-1,3.66-.49,12.76,5.31,11.77,2.18-.36,3.62-2.53,5.7-3.26,2.58-.9,5.56.78,6.74,3.24a10.17,10.17,0,0,1-.12,8c-1.54,4-4.58,7.26-7.54,10.4C1623.52,538.84,1619.54,545,1611.45,549.06Z"/><rect class="cls-14" x="1602.11" y="464.29" width="1.99" height="228.41" transform="translate(-5.74 16.15) rotate(-0.58)"/><polygon class="cls-14" points="1602.39 506.72 1585.07 489.75 1586.46 488.33 1602.36 503.91 1617.95 488.01 1619.37 489.4 1602.39 506.72"/><polygon class="cls-14" points="1602.72 539.76 1585.4 522.78 1586.79 521.36 1602.69 536.95 1618.28 521.05 1619.7 522.44 1602.72 539.76"/></g><polygon class="cls-15" points="523.72 442.55 505.24 572.7 504.79 678.78 532.89 678.78 538.68 586.15 564.59 492.5 588.4 588.28 603.03 678.78 632.17 678.78 603.85 442.55 523.72 442.55"/><path class="cls-11" d="M503.23,677.66l-4.31,4.67-22.71,2.61c-5.2,1.79-6.11,2.86-7.71,8.12l-.39,1.31H515l3.34-4.16v4.16h15.37V677.66H503.23Z"/><path class="cls-11" d="M632.69,677.66l4.31,4.67,22.71,2.61c5.2,1.79,6.11,2.86,7.71,8.12l.4,1.31H621l-3.33-4.16v4.16H602.26V677.66h30.43Z"/><path class="cls-14" d="M553.18,292.76l-31.53,17.53,2.77,74.34-2.33,48.71a8.78,8.78,0,0,0,8.77,9.2H596a8.78,8.78,0,0,0,8.76-9.48l-4-50.43,15.8-70.29-35.23-19.58Z"/><polygon class="cls-16" points="581.27 293.63 567.23 319.32 553.18 293.63 553.18 275.39 581.27 275.39 581.27 293.63"/><path class="cls-14" d="M593.38,237.52a14.63,14.63,0,0,0-1.41-3.4l-3.44-6.73c-2.06-4-4.14-3.47-7.9-4.66-3.37-1.08-6.39-3.37-10-3.53a13,13,0,0,0-6.48,1.76,12.24,12.24,0,0,1-2.56,1.15c-1.54.39-3.16,0-4.74.06a9,9,0,0,0-8.16,6.54,4,4,0,0,1-1.66,2.95c-4.82,4.61-2,12.33-1.21,18,.43,3.16.06,6.46,2.68,8.84l-1.29-.32A22.56,22.56,0,0,0,559,263.92a66.59,66.59,0,0,0,13.32.74l16.09-.17a4.7,4.7,0,0,0,2.92-.68,4.64,4.64,0,0,0,1.32-3.13c.85-6.12.28-12.21.8-18.42A14.77,14.77,0,0,0,593.38,237.52Z"/><g class="cls-17"><path class="cls-11" d="M553.18,285.87l4,6.84a14.45,14.45,0,0,0,24.15,1.37V275.39h-28.1Z"/></g><path class="cls-16" d="M550.92,247.23v21.4a27.48,27.48,0,0,0,3.68,13.73l4.12,7.15a14.5,14.5,0,0,0,12.54,7.25h0a14.48,14.48,0,0,0,12.38-7l.83-1.37a27.51,27.51,0,0,0,4-14.27V234.71h-37Z"/><path class="cls-16" d="M551.21,271.79l-4.3-2.26s-4.53-6.63-2.44-11.16c0,0,1.57-3.83,4.53-2.09l4.18,4.18Z"/><path class="cls-16" d="M587.43,271.79l4.3-2.26s4.53-6.63,2.44-11.16c0,0-1.57-3.83-4.53-2.09l-4.18,4.18Z"/><path class="cls-14" d="M549.73,250.68a72.19,72.19,0,0,1,.81,10.06c0,1.33-.6,5.2,2.25,4.19a2.35,2.35,0,0,0,1.22-2.18c.21-3.25-2.48-6-.93-9,1.12-2.19,3.76-3.55,4.23-6.07.34-1.8-.6-3.57-.83-5.38a5.3,5.3,0,0,1,1-4,3.56,3.56,0,0,1,3.77-1.2c1.3.44,2.1,1.69,3.08,2.64a8.4,8.4,0,0,0,8.78,1.76,31.24,31.24,0,0,0,4.9-3c1.63-1,3.62-1.8,5.47-1.25,2.66.8,3.84,3.87,4.4,6.59s1.28,6.22,1,9.13c-.26,2.36-1.63,4.55-2.19,6.92a6.25,6.25,0,0,0-.22,1.72,6.58,6.58,0,0,0,1.18,2.89.67.67,0,0,0,.3.3c.21.09.44-.06.62-.22,1.58-1.41,2.05-3.66,2.43-5.75.51-2.75,1.45-4.6.73-7.42-1.08-5.69.28-11.62-.66-17.33a3.46,3.46,0,0,0-.59-1.65,3.7,3.7,0,0,0-1.76-1c-8.1-2.79-16.89-2.48-25.46-2.13-3,.12-6.18.28-8.76,1.86-3,1.86-4.7,5.42-5.18,8.95S549.32,247.14,549.73,250.68Z"/><path class="cls-16" d="M475.75,356.24l-1.25-3.58-37.82-24.22h0a6.66,6.66,0,0,1,8.21-.94l7.5,4.67,2.71-.59a8.5,8.5,0,0,1,6.37,1.15l3.71,2.37,12.51,3.77a11.32,11.32,0,0,1,7.31,6.81l2.67,7Z"/><path class="cls-16" d="M658.71,356.24l1.25-3.58,37.81-24.22h0a6.64,6.64,0,0,0-8.2-.94l-7.51,4.67-2.7-.59a8.5,8.5,0,0,0-6.37,1.15l-3.71,2.37-12.51,3.77a11.35,11.35,0,0,0-7.32,6.81l-2.67,7Z"/><path class="cls-14" d="M553.18,292.76l-37.24,20.7a22.41,22.41,0,0,0-11.47,17.9l-3.08,40.49-12-19.71-16,4.79,22.67,50.26a9,9,0,0,0,12.11,4.45,15.21,15.21,0,0,0,7.29-7.31l12-59.64,25.69-38.15Z"/><path class="cls-14" d="M581.28,292.76l37.24,20.7A22.41,22.41,0,0,1,630,331.36l3.08,40.49,12-19.71,16,4.79-22.67,50.26a9,9,0,0,1-12.12,4.45,15.25,15.25,0,0,1-7.29-7.31l-12-59.64-25.69-38.15Z"/><rect class="cls-11" x="523.3" y="438.23" width="81.14" height="12.35"/><rect class="cls-6" x="556.18" y="438.23" width="13.97" height="12.35"/><g class="cls-18"><path class="cls-11" d="M600.71,382.63l7.36-32.72a91.38,91.38,0,0,0-6.46,11.87,3.14,3.14,0,0,0,1.24,4.06c-1.44,3.51-7.71,9.94-10.25,12.39-2,2.13,3.72,2.4,6,1.82l.22-.05a79.29,79.29,0,0,1-5.38,8.31c-1.24,1.7-4.31,4-2.5,3.7,1.53-.28,7.15.62,8.62.21-.68,2-1.42,3.88-2.23,5.84s.42,4.28,1.94,4.32c-1.16,0,.46,11.52.69,12.62a24.06,24.06,0,0,0,3.23,8.5L601.61,395l.06-.4Z"/></g><g class="cls-18"><path class="cls-11" d="M531.39,389.85q-9.58-4.8-5.71-9.73c2.58.74,6.14.14,8.72.88,1.61.46.71-1.59-4.37-2.14.86.09-5.72-8.05-3.37-8.19A1.8,1.8,0,0,0,528.2,368c-2.85-4.85-3.18-12-5.06-17.78l.92,24.8,1.84,1.47-1.8-.52.32,8.67-.14,3a12.86,12.86,0,0,0,.71,1.1l-.76,0-1.8,37.54a1.58,1.58,0,0,0,.67-1.36c0-7.58,2.43-14.28,3.31-21.66.28-2.35-1.8-11.62,3.61-10.16A1.79,1.79,0,0,0,531.39,389.85Z"/></g><polygon class="cls-19" points="553.18 292.76 544.91 297.36 554.65 332.05 567.23 319.32 553.18 292.76"/><polygon class="cls-19" points="581.27 292.76 589.54 297.36 579.81 332.05 567.23 319.32 581.27 292.76"/><circle class="cls-11" cx="567.23" cy="331.45" r="1.43"/><path class="cls-11" d="M568,350.15a1.44,1.44,0,1,1-1.43-1.44A1.43,1.43,0,0,1,568,350.15Z"/><path class="cls-11" d="M567.3,368.84a1.44,1.44,0,1,1-1.44-1.43A1.43,1.43,0,0,1,567.3,368.84Z"/><circle class="cls-11" cx="565.18" cy="387.53" r="1.43"/><circle class="cls-11" cx="564.5" cy="406.23" r="1.43"/><path class="cls-11" d="M565.25,424.92a1.44,1.44,0,1,1-1.43-1.44A1.43,1.43,0,0,1,565.25,424.92Z"/><g class="cls-20"><path class="cls-11" d="M538.68,586.15l-3,47.54a12.72,12.72,0,0,1-1.18.71,188.3,188.3,0,0,0-6.88-43.61,11.5,11.5,0,0,0,6.42-4.44l-5-.57a7.12,7.12,0,0,0,3.05-3.21l-11-.13c10.08-2.28,17.84-12.28,17.55-22.61a5.86,5.86,0,0,1-4.05-.74l11.15-17.44c.65-1,1.32-2.22.89-3.34a15.13,15.13,0,0,1-6.69,3.2c2.78-3.39,5.62-6.87,7-11,1.65-4.88,1.17-10.2,2-15.3A31.2,31.2,0,0,1,564.44,493Zm26.59-90.92c0-.7,0-1.39-.07-2.08l-.39-.34-.12.08Z"/></g><g class="cls-20"><path class="cls-11" d="M631.34,671.85l-27-224.78-.95-.16L603,448a179.58,179.58,0,0,0,1.13,44c1.27,8.53,3.16,17.25,1.38,25.69-.6,2.85-1.82,5.1-2.88,7.7-1.33,3.25-1.56,7.41-2.19,10.85A87.25,87.25,0,0,0,599,547c-.23,3.85-1.37,7.56-1.37,11.48,0,.45,14.41-2.94,15.95-4.4a105,105,0,0,1-6.19,19.72,27.27,27.27,0,0,1,6.63-8.84,48,48,0,0,0-4.53,14.64l8.85-1q-3.81,8.32-7.61,16.67l9.37-4.93q-1.16,20.76-2.3,41.51c-.29,5.3-.55,10.8,1.48,15.7,1.5,3.63,4.15,6.64,6.15,10a31.74,31.74,0,0,1,4.28,19.3C630.27,675.19,630.78,673.51,631.34,671.85Z"/></g><path class="cls-14" d="M561.4,277.27c-.52,1-.7,2.22-1.25,3.24a2.63,2.63,0,0,1-2.8,1.56c-1.26-.38-1.63-1.95-1.82-3.26-.52-3.68.5-7.13-.79-10.83a13.9,13.9,0,0,1-.85-2.8c-.11-.89,0-1.8-.15-2.68a2,2,0,0,0-1.75-1.76,1.85,1.85,0,0,0-1.62,1.52,5.66,5.66,0,0,0,.15,2.38,41.32,41.32,0,0,1,.86,11.65c-.34,3.91,1.16,7.65,2.4,11.29a17.83,17.83,0,0,0,1.62,3.69,13.73,13.73,0,0,0,8.33,5.61,41,41,0,0,0,10.21.91,16.46,16.46,0,0,0,6.6-.88c6-2.57,7.93-13.9,8.58-19.48.3-2.57-.24-4.59-.43-7-.22-2.83.71-6.08,1.08-8.89a1.19,1.19,0,0,0-.2-1.08c-.34-.29-1-.26-1.08-.7a6.62,6.62,0,0,0-2.26,3.31,7.89,7.89,0,0,0-.11,1.82,24.44,24.44,0,0,1-.5,7.15,68.59,68.59,0,0,0-1.94,8.22c-.2,1.31-.59,2.91-1.88,3.22a2.28,2.28,0,0,1-2.44-1.55,8.52,8.52,0,0,1-.36-3.11,4.79,4.79,0,0,0-.8-3c-.91-1.1-2.49-1.29-3.91-1.4C569.93,274.08,564,272.13,561.4,277.27Z"/><path class="cls-19" d="M562,280.15h15.3S570.22,293.22,562,280.15Z"/><path class="cls-14" d="M1388.39,416.61l-3.1,14a17,17,0,0,0-.36,5l7.9,101.7h61.41l12-75.31a69,69,0,0,0,1.56-33.7L1464.94,414Z"/><polygon class="cls-16" points="1395.7 537.31 1398.06 549.33 1399.1 564.22 1420 649.13 1412.69 678.91 1417.13 683.35 1430.97 680.48 1436.2 646.78 1433.07 641.03 1425.49 567.88 1427.06 537.31 1395.7 537.31"/><g class="cls-17"><polygon class="cls-11" points="1417.91 564.22 1430.34 614.7 1425.49 567.88 1427.06 537.31 1414.52 537.31 1416.87 549.33 1417.91 564.22"/></g><polygon class="cls-16" points="1419.22 537.31 1421.57 549.33 1422.62 564.22 1443.52 649.13 1436.2 678.91 1440.64 683.35 1454.49 680.48 1459.71 646.78 1456.58 641.03 1449 567.88 1450.57 537.31 1419.22 537.31"/><g class="cls-21"><path class="cls-11" d="M1385.83,447.15l-.57-7.24c2.55,2.06,5.06,4.17,7.46,6.38A18.09,18.09,0,0,1,1385.83,447.15Zm5.81,74.82c1.2-7.65,0-15.79-1.84-23.63ZM1388,475l.54,7c1.54-2.08,4.25-3.48,4.59-6Zm-.66-16.33c-.34-1.56,1.55-2.7,3.15-2.77s3.32.34,4.72-.43a57.93,57.93,0,0,0-9.3-7.44l2,26.11,14.59-6.37a30.34,30.34,0,0,1-14.12-7.55A3.12,3.12,0,0,1,1387.33,458.68Z"/></g><g class="cls-7"><path class="cls-11" d="M1463.52,416.28a35.93,35.93,0,0,1-.71,17.39,11.37,11.37,0,0,1-2.88,12l3.7-.07a19.72,19.72,0,0,1-2.87,9.28c1.11-.21,2.07,1,2.07,2.1a5.43,5.43,0,0,1-1.31,3,60.25,60.25,0,0,1-12.87,13.08l11.8-2.16a48.65,48.65,0,0,1-10.3,13.81l3.66.64q-1.53,14-3.08,28.08L1466.29,462a69,69,0,0,0,1.56-33.7l-2.2-10.83c-.52-.69-1.05-1.38-1.62-2.05Z"/></g><path class="cls-16" d="M1316.33,257.73l-3.61-8.53,5.48-10.93a6.27,6.27,0,0,0,.26-5l-1.72-4.55a5.79,5.79,0,0,0-5.69-3.74l-1.8.08-7.65,2.76a6.17,6.17,0,0,0-4,4.81l-1,6.36.41,8.87,7.34,15.55Z"/><rect class="cls-19" x="1382.12" y="311.06" width="72.12" height="105.55"/><path class="cls-11" d="M1449.27,243.32a9.67,9.67,0,0,0-1.94-3.09,18.71,18.71,0,0,0-2.56-1.81c-3.14-2.14-4.2-4.9-8-5.86l-6.43-1.62a30.75,30.75,0,0,0-8.75-1.34c-5.65.23-10.68,3.5-15.16,7a14.61,14.61,0,0,0-4.06,4.16,18.57,18.57,0,0,0-1.6,5.58,41.58,41.58,0,0,1-2.56,8.14l-.44.36c6.09,10.42,5.06,23.86,11.24,34.23a17.51,17.51,0,0,0,3.87,4.69c5.14,4.25,12.73,4,19.07,1.87,8.77-2.88,18.09-9.72,18.79-19.49.4-5.64,2.38-10.81,2.19-16.61A43.13,43.13,0,0,0,1449.27,243.32Z"/><g class="cls-17"><path class="cls-11" d="M1386.66,367.65l-.13,1.42.68,3-2,11.68-3.05,32.84h6.27L1386,427.4c5.24.2,12.32-1.69,19.17-10.54l9.77-83.79-7-20.54-.08-1.47h-25.77Z"/></g><path class="cls-14" d="M1375.91,330.49l6.57,40.11-12.38,52.54s13.57,9.4,27.68-6.8l14.65-83.08-5.75-20.9V295.9l-23.77,2.64a26.75,26.75,0,0,0-9.16,2.74l-3.57,1.81a10.2,10.2,0,0,1-5.8,1l-24.9-3L1317,255.45l-15.67,6.18,21.83,54.59a8.31,8.31,0,0,0,6.11,5.07Z"/><path class="cls-11" d="M1413.53,675.46l-3.84,6.37a6.39,6.39,0,0,0-.92,3.3h0a9,9,0,0,0,7.52,8.88l1.28.22a10.55,10.55,0,0,0,7-1.28l6.65-3.85,3.13-13.64h3.14v-8.31l2.76-6a9.73,9.73,0,0,0-.54-9.2l-5.93-9.61-2.21,29.84a8.53,8.53,0,0,1-10.16,7.79C1418.31,679.35,1415.22,678,1413.53,675.46Z"/><path class="cls-11" d="M1437.05,675.46l-3.85,6.37a6.39,6.39,0,0,0-.92,3.3h0a9,9,0,0,0,7.52,8.88l1.29.22a10.53,10.53,0,0,0,7-1.28l6.65-3.85,3.14-13.64H1461v-8.31l2.77-6a9.75,9.75,0,0,0-.55-9.2l-5.92-9.61-2.22,29.84a8.52,8.52,0,0,1-10.16,7.79C1441.83,679.35,1438.73,678,1437.05,675.46Z"/><path class="cls-11" d="M1487.71,284.87c-7.24-11.81-14.57-24.32-15.35-38.15-.22-4,.1-8-.58-11.87s-2.57-7.86-6-9.76a6.69,6.69,0,0,0-5.1-.72c-2.55.79-4.07,3.35-5.26,5.74a115.85,115.85,0,0,0-4.94,11.45l2.28,8.61a28.68,28.68,0,0,0,4-6.88c-.15,6.36-.31,12.75.68,19s3.2,12.5,7.28,17.37a19.79,19.79,0,0,1-4.17-12.64,33,33,0,0,0,18.53,19.71,36.71,36.71,0,0,1-6.7-13.39A89.48,89.48,0,0,1,1487.71,284.87Z"/><path class="cls-22" d="M1450.34,239.83h.17a2.36,2.36,0,0,1,2.36,2.36V251a2.36,2.36,0,0,1-2.36,2.36h-.17A2.37,2.37,0,0,1,1448,251V242.2a2.37,2.37,0,0,1,2.37-2.37Z" transform="translate(-3.29 472.98) rotate(-18.5)"/><path class="cls-16" d="M1406.68,280.49H1432a0,0,0,0,1,0,0v29a12.24,12.24,0,0,1-12.24,12.24h-.87a12.24,12.24,0,0,1-12.24-12.24v-29A0,0,0,0,1,1406.68,280.49Z"/><g class="cls-17"><path class="cls-11" d="M1406.68,300.76a30,30,0,0,0,16.26-3.58l7.13-3.4a6.19,6.19,0,0,0,2-1.52V280.49h-25.34Z"/></g><path class="cls-16" d="M1405.37,242.08l-7.57,13.59-2.46,3.42a15.32,15.32,0,0,0-2.74,11l2.8,20.78a7.84,7.84,0,0,0,7,6.74h0a30,30,0,0,0,17.41-3.54l7.14-3.4a6.4,6.4,0,0,0,3.64-6h0s6.14,4.18,9.28,0c0,0,6.53-6.53,4.7-9.14,0,0-3.92-3.14-7.58-.27l7.9-15.4S1435.16,229,1405.37,242.08Z"/><path class="cls-11" d="M1448.75,254a12,12,0,0,0-.75-4.74,10.08,10.08,0,0,0-2.54-3.17c-7.12-6.44-16.92-9.11-26.47-10a20.88,20.88,0,0,0-7.1.22c-5.73,1.46-9.43,6.91-12.18,12.15l.17.81c7.61.57,13.63-2.28,19.89-6.14,2,7.31,1.35,14.56,5.82,21.26a23.75,23.75,0,0,0,11.7,9c2.14.76,4.8.67,6.79,1.69s3.1,3.06,5.14,4C1449.81,270.81,1448.93,262.21,1448.75,254Z"/><path class="cls-19" d="M1397.78,280.23s3.15,5.75,13.6,5.48C1411.38,285.71,1397.77,299.82,1397.78,280.23Z"/><path class="cls-16" d="M1553,257.73l3.6-8.53-5.48-10.93a6.27,6.27,0,0,1-.25-5l1.71-4.55a5.8,5.8,0,0,1,5.7-3.74l1.79.08,7.65,2.76a6.17,6.17,0,0,1,4,4.81l1,6.36-.42,8.87-7.34,15.55Z"/><g class="cls-17"><path class="cls-11" d="M1454.24,414.36V311.06h-21.59l-2.89,5.55-11.48,18.9s0,55.39,10.71,74.46,37,11.75,37,11.75l-1.1-7.73Z"/></g><path class="cls-14" d="M1432,292.77l20.93-.26,64,9.4,35-46.46,14.89,7.87-27.9,50.57a28.16,28.16,0,0,1-26.59,14.49l-43.27-2.95-6.06,50.9,6.06,42.37s-26.34,7.31-37-11.76-10.71-74.46-10.71-74.46L1432,312.36Z"/><polygon class="cls-23" points="1406.68 299.04 1397.79 320.01 1404.58 323.34 1396.59 332.56 1398.94 409.79 1412.43 333.26 1406.68 299.04"/><path class="cls-23" d="M1421.31,332.48a385.46,385.46,0,0,0,3,45.52l2.74,15h0l14.21-71.23-7.84-5.48,6.66-6.86L1432,294.26v18.1Z"/><g class="cls-7"><path class="cls-11" d="M1479.15,326.12l6.35.43,5.49.37a17.82,17.82,0,0,1-1.09-4.31A17.51,17.51,0,0,1,1479.15,326.12Z"/></g><g class="cls-7"><path class="cls-11" d="M1464.14,318.86l-.57,5.69a9,9,0,0,0-6-2.34,40.38,40.38,0,0,1,7.86,18.44l-2.65-.71a71.72,71.72,0,0,0,2.59,16.71l3.71-31.22,7.13.48A18,18,0,0,1,1464.14,318.86Z"/></g><g class="cls-24"><path class="cls-11" d="M1389.2,371.05a37.44,37.44,0,0,1-3.83-2.1,1.68,1.68,0,0,0,.45-1.76,112.55,112.55,0,0,0-4.7-12.41,1.45,1.45,0,0,0-1.39-.94l2.75,16.76-.66,2.8a1.54,1.54,0,0,0,.08.19h-.13l-1,4.31c.44.21.32.83-.24,1l-1.11,4.72c3-.67,6.12-1.54,8.3-3.34a1.85,1.85,0,0,0,.48-1.83,4,4,0,0,0-1.46-1.95c.62-.16,1.23-.32,1.85-.52,1.14-.37-3.54-1.71-3.83-2.61C1385.23,372.5,1390.19,371.55,1389.2,371.05Z"/></g><g class="cls-24"><path class="cls-11" d="M1464.59,363.09c-1.79,1.2-3.6,2.35-5.48,3.43a1.92,1.92,0,0,0-.25,3.06,23,23,0,0,0-5.89,2.25c-1.14.68,4.25,1.66,5.55,2.29s-3.18,2-2,2.51c-.49.83,2.54.28,3.36.89.46.35-1.84,2.52-1.41,2.88l-1.71-.48c-2-.56-3.33,2.39-1.45,3.43,2.12,1.17,8.73,3.62,9.41,6.27a1.52,1.52,0,0,0,.25.51l-1.44-10.08-.14-1-.4-2.74.15-1.24.36-3Z"/></g><path class="cls-6" d="M830.08,298.49c-.54-.94-1.43-1.64-2-2.58-2.41-4.16,3.25-9.35,1.65-13.88-1.1-3.12-5.16-4.37-6.37-7.45-1.43-3.65,1.75-8.37-.65-11.48-.63-.82-1.57-1.37-2.22-2.17-1.72-2.12-1-5.21-1.16-7.93-.37-5.5-4.74-10-5.46-15.5a10,10,0,0,0-.66-3.27,6,6,0,0,0-1.93-2,21.84,21.84,0,0,0-8.64-3.79c-1.24-.25-2.62-.45-3.42-1.42s-.83-2.22-1.75-2.88a3.58,3.58,0,0,0-1.89-.49l-8.93-.66-1.32-.1c-2.66-.75-5.76.78-8.26,2.32-3.72,2.3-7.53,4.67-10.16,8.16-2.52,3.33-3.38,7.71-5.91,11-2.27,2.93-5.43,4.21-5,8.72a15.88,15.88,0,0,1,.3,3.87c-.17,1-.76,2-.83,3-.09,1.4.73,2.71.79,4.1.07,2-1.43,3.71-2.42,5.48a11.53,11.53,0,0,0-1.23,7.64,29.17,29.17,0,0,1,.91,4.48,11,11,0,0,1-.83,3.95c-1.45,4-4,7.11-5.92,10.82s1.68,6.66,2.53,10.06c.79,3.16-.73,6.44-.57,9.69a18.82,18.82,0,0,0,2.19,6.9,2.7,2.7,0,0,0,1.28,1.54c1.31.48,2.33-1.12,3.33-2.1,2.44-2.38,6.49-1.31,9.79-2.16,2.74-.71,5.11-2.82,7.93-2.82s5.24,2.11,8,2.56c4.37.7,8.19-2.71,12.27-4.44,9.33-4,21.09.68,29.72-4.64a20.22,20.22,0,0,0,4.8-4.34C830,304.34,831.58,301.07,830.08,298.49Z"/><rect class="cls-16" x="776.09" y="275.84" width="22.43" height="30.04"/><polygon class="cls-16" points="804.11 305.88 773.11 305.88 773.11 290.12 804.11 292.9 804.11 305.88"/><path class="cls-16" d="M916.74,326.5a8,8,0,0,0-4.66-.18c-7.56,1.22-18.19,4-25.73,2.66a7.19,7.19,0,0,1-2.7-1c-1.52-1-2.31-2.78-3-4.45s-1.54-3.43-3.08-4.41c-6.69-4.23-3.64,6.8-3.22,9.06.95,5.09-1.67,7.31-2.79,11.6a3.19,3.19,0,0,0-1.28,3.33,7.86,7.86,0,0,0,2.63,3.78c7.18,6.62,10.44-2.84,14.7-7.11,6.37-6.41,18.27-8.76,26.92-8.45,1.29,0,2.8.06,3.6-1C919.08,329.16,918.17,327.18,916.74,326.5Z"/><path class="cls-19" d="M809,386.84H756.56v-97.4l16.32,3.46,5.18,5.85A14.88,14.88,0,0,0,802,296.46l2.11-3.56h0l13.76,45.24Z"/><path class="cls-25" d="M743.71,542.58s-9.43,33.36-11.37,111.25l-5,26.66v7.27a5.63,5.63,0,0,0,5.63,5.62h2.32a13.49,13.49,0,0,0,13.44-12.27l1.66-13-3.27-24.2c-.48,2.54,7.79-34.74,20.27-82.4l5.44-18.83Z"/><path class="cls-16" d="M743.71,542.58s-9.43,33.36-11.37,111.25l-5,26.66v7.27a5.63,5.63,0,0,0,5.63,5.62h2.32a13.49,13.49,0,0,0,13.44-12.27l1.66-13-3.27-24.2c-.48,2.54,7.79-34.74,20.27-82.4l5.44-18.83Z"/><path class="cls-11" d="M748.78,667.76c-.63,7-6.46,9.3-13.44,9.3H733c-2.18,0-2.83-4.79-3.77-6.59l-1.86,10v7.27a5.63,5.63,0,0,0,5.63,5.62h2.32c7,0,12.81,2.09,13.44-4.85l1.66-20.39-.88-6.49Z"/><path class="cls-16" d="M813.25,542.58s1,35.6-14.17,105.81l3.18,35.41a13.59,13.59,0,0,1-1.64,7.78h0a5.38,5.38,0,0,1-4.71,2.79h-6.72a5.39,5.39,0,0,1-5.37-4.92l-2.3-26.52,5.63-22.45s-3.3-69.29-1.48-80.43l-2.9-17.34Z"/><path class="cls-11" d="M801.56,668.63a12.79,12.79,0,0,1-.94,2.19c-1,1.72-2.75,4.27-4.71,4.27h-6.72c-2.8,0-5.12-3.62-5.37-6.4l-1.44-9.19-.86,3.43,2.3,26.52a5.39,5.39,0,0,0,5.37,4.92h6.72a5.38,5.38,0,0,0,4.71-2.79,13.59,13.59,0,0,0,1.64-7.78Z"/><g class="cls-17"><path class="cls-11" d="M742,550h28.78l2.1-7.29-29.17-.13S743,545,742,550Z"/></g><g class="cls-17"><path class="cls-11" d="M782.77,542.71,784,550h29.15c.18-4.92.11-7.42.11-7.42Z"/></g><path class="cls-26" d="M829.24,423.43s16.32,12.36,4.45,63.78c0,0-11.86,37.08-14.33,56.86h-80.1s2.37-47,0-61.42c0,0-1-59.72,19.78-64.17Z"/><g class="cls-17"><path class="cls-11" d="M829.24,423.43,759,418.48c-5.87,1.26-10,6.92-12.9,14.4,7,4.39,15.59,11,24.81,11.44A18.52,18.52,0,0,0,787.31,436l4.77-7.19.7,1.47a18.47,18.47,0,0,0,20.15,10.26c8.87-1.72,16.43-7.16,21.38-9.31C831.91,425.45,829.24,423.43,829.24,423.43Z"/></g><path class="cls-27" d="M804.11,292.9s23.65,3.53,26.62,12.64l-10.39,53.61s-1.89,17.76.54,22.48,19.57,47.67,19.57,47.67a267.68,267.68,0,0,1-27.52,6.82,18.47,18.47,0,0,1-20.15-10.26l-.7-1.47-4.77,7.19A18.52,18.52,0,0,1,771,439.87c-10.32-.53-19.92-2.55-27.24-7,0,0,9.89-45.27,9.89-48.64L746.18,339l10.19-48.63c.11-.52-.32-1.05.19-.94l16.32.68,21.26,84.36,14.34-30.16Z"/><path class="cls-27" d="M804.11,292.9s23.65,3.53,26.62,12.64l15.32,59.55,24.73-28.19,15,7.42s-22.5,35.8-33.38,47.06a7.67,7.67,0,0,1-5.14,2.32c-4.08.23-11-.81-15-9.43l-11.87-25.12Z"/><g class="cls-17"><path class="cls-11" d="M750.67,451.91a3.89,3.89,0,0,0,1.66-2.63c1-4.49-2.06-10.11-2.47-14.59a145.91,145.91,0,0,1-.25-15.94c.08-3.67-1.08-8.26-.33-11.86-2.87,13.9-5.57,45.49-5.57,45.49C746.37,452.38,749,453,750.67,451.91Z"/></g><g class="cls-17"><path class="cls-11" d="M751.17,315.2l-5,23.81c-.29,1.42.64,3.88.87,5.28q.91,5.65,1.85,11.32.45,2.76.91,5.52c.11.68.16,3.76.73,4.16,1.37,1,.45-6.46.38-7.22a30.7,30.7,0,0,1,.1-9.13,16,16,0,0,0,.6-3.87,17,17,0,0,0-.86-3.62c-1.32-4.84-.18-10.95,0-16C750.9,322,751,318.62,751.17,315.2Z"/></g><polygon class="cls-28" points="804.11 292.9 815.89 328.87 810.5 333.95 815.4 343.31 794.14 374.48 808.48 344.32 804.11 292.9"/><polygon class="cls-28" points="772.88 290.12 763.98 316.63 772.88 319.6 768.43 325.29 794.14 374.48 772.88 290.12"/><path class="cls-23" d="M794,388.94c-.22,11.62,1.08,24.63-2.69,35.76-.22.66.82.94,1,.29,3.64-11,2.47-24.68,1.81-36.05a.08.08,0,1,0-.15,0Z"/><g class="cls-17"><path class="cls-11" d="M741.38,478.33a3.64,3.64,0,0,0,3.26-.35,6.92,6.92,0,0,0,2.28-2.49c1.51-2.59,1.61-5.12,1.57-8,0-2.51-.92-5.12-.93-7.66h.08V445h-5A185.76,185.76,0,0,0,739.31,477C740,477.39,740.63,478,741.38,478.33Z"/></g><path class="cls-16" d="M731.45,453.7c-.69,0-4.14,2.79-4.62,3.29s-1,1-1.51,1.57a6.26,6.26,0,0,0-1.69,5.11,17.34,17.34,0,0,1,.17,5c-.39,2.36-1.62,4.48-1.08,7a2.55,2.55,0,0,0,2.41,2.16c1.4-.1,2.45-1.71,3.83-1.51,1,.14,1.64,1.17,2.61,1.37,1.3.26,2.48-1.06,3.8-1,1.16.07,2,1.18,3,1.64a3.64,3.64,0,0,0,3.26-.35,6.74,6.74,0,0,0,2.28-2.49c1.51-2.59,1.61-5.12,1.58-8,0-2.68-1.09-5.47-.95-8.18a4.45,4.45,0,0,0-3.52-4.22c-1.56-.4-.6-.37-2.2-.54Z"/><rect class="cls-16" x="730.71" y="444.95" width="13.97" height="14.86"/><path class="cls-27" d="M747.91,338.63l8.65-49.19-13.89,8a28.33,28.33,0,0,0-12,13.7l-5.07,12.19c-3,9.63-2.73,26.13-2.58,29.29l4.92,99.77h20.76l-2-73Z"/><g class="cls-7"><path class="cls-11" d="M820.88,381.63c-2.43-4.72-.54-22.48-.54-22.48s.84-4.33.78-4.37l-.07.65a13.06,13.06,0,0,0-3.61,4.69c-2.25,5,.82,14.13-3.16,17.53a15.77,15.77,0,0,1-4.64,2.41,4.94,4.94,0,0,0-2.26,1.42,1.74,1.74,0,0,0,.18,2.41,2.84,2.84,0,0,0,1.51.32,12.07,12.07,0,0,1,10.72,8.19c1.58,5,3.8,8.3,6,12.9.44.93.68,1.95,1.2,2.84,1.5,2.56,5,3.42,7.13,5.33C829,400.71,822.32,384.43,820.88,381.63Z"/></g><g class="cls-7"><path class="cls-11" d="M820.35,359.16l11.86,25.11a18.83,18.83,0,0,0,3,4.69c-.49-3.74-2.38-7.47-3.75-11.09-1.24-3.27-1.68-6.95-3.18-10.05-2-4.22-2.61-8.21-5.76-11.82-.21-.23-.46-.49-.77-.46s-.57.38-.73.69C820.6,357.16,819.84,358.08,820.35,359.16Z"/></g><g class="cls-17"><path class="cls-11" d="M798.53,275.84H776.09v6.32l4,3.55a7.33,7.33,0,0,0,4.83,1.81h3.44a7.25,7.25,0,0,0,4.93-1.92l5.19-4.74Z"/></g><path class="cls-16" d="M770.35,248.77V270a9.23,9.23,0,0,0,3.15,7l6.64,5.83a7.34,7.34,0,0,0,4.83,1.82h3.44a7.3,7.3,0,0,0,4.93-1.92L802,274.7a9.23,9.23,0,0,0,3-6.82V248.77s1.85-10.38-6.12-14.83c0,0-10.94-4.26-21.32,0C777.58,233.94,770.35,236,770.35,248.77Z"/><path class="cls-6" d="M764.94,284.69c-.37-.74-1.4-.19-1.27.54.27,1.4-5.91,2.41-6.91,3.66-2.13,2.66.85,7.4-1.61,9.81a6.79,6.79,0,0,0-1.92-1.19c-1.26-.51-2.46.76-2.51,1.91l-.12,2.82a2.06,2.06,0,0,0,.87,1.78c-.76,1.18-1.58,2.34-1.69,2.47a13.56,13.56,0,0,0-1.91,3,13,13,0,0,0-1.23,6.95c.18,2.21,3.77,3.1,4.18.57a20.54,20.54,0,0,1,3.58-9.27c1-1.39,2.17-2.8,2.39-4.57,2.45-1.71,3.07-4.51,3.49-8l1.23-4.88a16.39,16.39,0,0,0,1.82-.65c.43-.55,1.3-.66,1.69-1.27C766.07,286.7,765.72,286.23,764.94,284.69Z"/><path class="cls-6" d="M827.25,310.16c-2.28-3.66-1.28-6.47-1.89-10.31a9.21,9.21,0,0,0-1.45-3.16c-2.27-4.2-1.39-5.86-2.18-14.63-15.79,5.77-8.31,10.33-7.08,7.24q3-3.06,4.54.75c-.3.92-.62,1.83-1,2.73a7.28,7.28,0,0,0-.29,3.21,10.61,10.61,0,0,0,1.1,2.34,10.58,10.58,0,0,1,1.3,5.65c-.21,5.07,2.21,13,8.25,13.23a1.28,1.28,0,0,0,1.27-1.27C830,313.09,828.77,312.61,827.25,310.16Z"/><path class="cls-6" d="M825.33,318.64c-6.75-3.65-3.1-9.49-6-14.34a8.07,8.07,0,0,0,.41-3.7,7.56,7.56,0,0,0-2-4.31c-1.18-1.22-3.18-1.26-4.2-2.24-2.17-2.08,0-4.32-2.06-6.7a3.6,3.6,0,0,0-5.06-.65c-2,1.33-.79,5.07,1.75,4.13-2.2.81-3,3.85-1.61,6a6.11,6.11,0,0,0,2,1.73c3.42,1.74,2.76-.94,5.54,2.55a3.5,3.5,0,0,0-.95.2c-4.47,1.6-2.13,7.41,1.94,6.9a21.79,21.79,0,0,0,1.69,9.72,10.68,10.68,0,0,0,6.49,5.66C826.15,324.61,828,320.1,825.33,318.64Z"/><path class="cls-6" d="M768.75,278.39a.71.71,0,0,0-.49-1.19c-12,.34-1.38,9.88-4.15,15.88-1.76,3.81-4.23,5.05-5.05,9.46a13.45,13.45,0,0,1-1.94,7.93q-1.79,1.44-3.46,3a6.27,6.27,0,0,0-.93,3.21c-.23,2.6,3.54,3.35,4.74,1.29,1.67-2.86,5.15-3.94,6.55-7.37a19.68,19.68,0,0,0,.91-3.53c.91-4.33.84-6.53,3.5-10.22,1.85-2.59,3.26-4.73,3-8C771.14,285.14,766.24,281.29,768.75,278.39Z"/><path class="cls-6" d="M776.5,232.73a.7.7,0,0,0-.18-1.27c-11.68-2.72-3.83,9.2-8,14.3-2.67,3.24-5.38,3.81-7.29,7.87a13.46,13.46,0,0,1-3.89,7.17q-2.1.94-4.11,2.06a6.31,6.31,0,0,0-1.72,2.87c-.88,2.46,2.57,4.13,4.26,2.45,2.34-2.35,6-2.51,8.21-5.47a19.81,19.81,0,0,0,1.77-3.18c2-4,2.47-6.11,6-9,2.46-2,4.36-3.75,5-7C777.09,239.86,773.34,234.9,776.5,232.73Z"/><path class="cls-6" d="M796.24,229.9a.7.7,0,0,0-1.12-.62c-9.15,7.77,5.11,8.57,6.7,15,1,4.07-.14,6.58,2,10.54a13.31,13.31,0,0,1,3.45,7.4c-.32,1.49-.59,3-.8,4.52a6.33,6.33,0,0,0,1.29,3.09c1.45,2.17,4.85.4,4.5-2-.49-3.28,1.55-6.3.5-9.86a20.6,20.6,0,0,0-1.5-3.32c-2-3.94-3.44-5.61-3.68-10.15-.17-3.18-.41-5.73-2.68-8.14C802.33,233.67,796.1,233.73,796.24,229.9Z"/><path class="cls-6" d="M795.2,225.12c-2.15,0-4.75-.23-6.5,1.29-2,1.77-1.66,4.75-4.78,5.55-5.65,1.45-9.1-6.49-15-3.2-3.88,2.16-.41,8.12,3.47,6,0,0,5,3.06,6,3.43a12.14,12.14,0,0,0,7.32.47,12,12,0,0,0,5.78-3.69c.62-.71,1-1.63,1.53-2.35a2.93,2.93,0,0,0,.59-1c0,.09.13.46,1.55.44C799.63,231.93,799.64,225,795.2,225.12Z"/><path class="cls-19" d="M777.92,271.21h18.6S787.67,282.06,777.92,271.21Z"/><g class="cls-7"><path class="cls-11" d="M758.66,383.94c-.69-1.23-.26-2.75-.34-4.15a10.52,10.52,0,0,0-2.26-5.19c-1.59-2.3-3.32-4.5-5.13-6.63l2.67,16.3c0,1.28-1.42,8.58-3.19,17.15a15.15,15.15,0,0,0,2.13-2.79l4.41-7.2a7,7,0,0,1,2.62-2.88c2.16-1.05,4.93.3,7.09-.74-.13-.29-.27-.57-.41-.85C764.09,385.17,760,386.39,758.66,383.94Z"/></g><path class="cls-11" d="M796.12,381.63a2,2,0,1,1-2-2A2,2,0,0,1,796.12,381.63Z"/><rect class="cls-16" x="974.82" y="300.44" width="27.27" height="42.5"/><path class="cls-16" d="M934.72,222.29l8.43-12L940,200.41a5.34,5.34,0,0,1-.18-2.51l6-26.78,3,4.36a4.77,4.77,0,0,1,.75,3.61L948.33,197l2.95,4.75h12.56l-11,12.79L948.64,227Z"/><path class="cls-16" d="M1042.22,222.29l-8.43-12,3.13-9.89a5.34,5.34,0,0,0,.18-2.51l-6-26.78-3,4.36a4.73,4.73,0,0,0-.75,3.61l1.29,17.91-2.95,4.75H1013.1l11,12.79L1028.3,227Z"/><path class="cls-19" d="M1002,311.72l32.82-5.46L1055.57,282l-30.23-56.35,18.09-7.4,36,58.71a18.83,18.83,0,0,1-.78,20.89c-8.63,11.95-23.45,31.7-36.23,44.86l-13.15,105.74H951.35L935.16,342.69a547.28,547.28,0,0,1-37.74-49.23,18.79,18.79,0,0,1-.08-20.75l39.24-60.17,15.18,11.13-30.26,57.8,18.21,24.79L967,312.33,987.44,322Z"/><polygon class="cls-14" points="951.35 448.43 927.93 574.98 908.85 678.13 936.17 678.13 957.31 588.07 991.09 497 1023.61 590.13 1040.9 678.13 1069.23 678.13 1029.26 448.43 951.35 448.43"/><rect class="cls-11" x="950.02" y="445.88" width="80.49" height="9.31"/><rect class="cls-6" x="981.26" y="445.88" width="18" height="9.31"/><polygon class="cls-22" points="977.66 331.19 980.78 337.93 994.43 337.95 997.75 331.69 987.45 322.33 977.66 331.19"/><g class="cls-17"><path class="cls-11" d="M1034.92,404.59c-18.69.22-55.84,1.78-42.52-66.66l-7.56,0s-20.42,79.34,47.16,88.42Z"/></g><path class="cls-11" d="M936.39,220.53a1.67,1.67,0,1,1-1.67-1.67A1.66,1.66,0,0,1,936.39,220.53Z"/><path class="cls-11" d="M1045.48,226.84a1.67,1.67,0,1,1-1.67-1.67A1.67,1.67,0,0,1,1045.48,226.84Z"/><path class="cls-11" d="M990,437.58a1.67,1.67,0,1,1-1.67-1.67A1.67,1.67,0,0,1,990,437.58Z"/><path class="cls-11" d="M990,416.24a1.67,1.67,0,1,1-1.67-1.67A1.67,1.67,0,0,1,990,416.24Z"/><path class="cls-11" d="M990,394.9a1.67,1.67,0,1,1-1.67-1.67A1.67,1.67,0,0,1,990,394.9Z"/><path class="cls-11" d="M907.33,678.13l-4.19,4.53-22.08,2.54c-5.06,1.75-5.94,2.78-7.5,7.9l-.38,1.27h45.56l3.24-4v4h14.95V678.13h-29.6Z"/><path class="cls-11" d="M1069.73,678.13l4.19,4.53L1096,685.2c5.06,1.75,5.94,2.78,7.5,7.9l.38,1.27h-45.56l-3.24-4v4h-14.94V678.13h29.59Z"/><g class="cls-17"><polygon class="cls-11" points="962.3 311.84 974.11 337.93 985.92 323.56 975.38 313.88 962.3 311.84"/></g><g class="cls-17"><polygon class="cls-11" points="1013 311.84 1000.52 337.95 988.1 322.04 1002.01 311.72 1013 311.84"/></g><polygon class="cls-29" points="961.84 311.07 975.1 333.58 987.44 322.04 975.33 312.36 961.84 311.07"/><polygon class="cls-29" points="1014.24 309.79 999.78 333.58 987.44 322.04 1002.01 311.72 1014.24 309.79"/><path class="cls-11" d="M1011.93,248.72a19.28,19.28,0,0,0-1.39-4.32,27.83,27.83,0,0,0-2.15-3.74,16.54,16.54,0,0,0-2.95-3.55,20.31,20.31,0,0,0-6.51-3.3c-5.76-2.08-11.64-4.19-17.76-4.32a5.46,5.46,0,0,0-2.13.26,13.49,13.49,0,0,0-1.87,1.16,11.19,11.19,0,0,1-3.26,1.09c-4.49,1-9.18,2.67-12,6.32-3,4-3.21,9.33-3.17,14.3a50.51,50.51,0,0,0,.82,10.13c.59,2.72,1.62,6.36,3.75,8.3l-1.36-.34a23.89,23.89,0,0,0,12.46,6.05,71.38,71.38,0,0,0,14,.78l16.93-.19a5,5,0,0,0,3.07-.71,4.87,4.87,0,0,0,1.38-3.29,25.71,25.71,0,0,0,.43-5.1c-.07-1-.52-1.88-.55-2.88-.09-3.13,1.67-6.32,2.25-9.37A19.17,19.17,0,0,0,1011.93,248.72Z"/><g class="cls-17"><path class="cls-11" d="M974.82,308.39a15.82,15.82,0,0,0,26.07-1.42l.92-1.5c.1-.18.17-.37.28-.55v-3H974.82Z"/></g><path class="cls-16" d="M965.89,259.19V281.7a28.94,28.94,0,0,0,3.87,14.45l4.34,7.52a15.22,15.22,0,0,0,13.2,7.62h0a15.21,15.21,0,0,0,13-7.32l.88-1.45a28.86,28.86,0,0,0,4.2-15V246H966.45Z"/><path class="cls-16" d="M966.2,285l-.45-.23a13.26,13.26,0,0,1-7.09-9.47,7.6,7.6,0,0,1,.45-4.41s1.65-4,4.77-2.2l4.4,4.4Z"/><path class="cls-16" d="M1004.31,285l.44-.23a13.25,13.25,0,0,0,7.1-9.47,7.69,7.69,0,0,0-.46-4.41s-1.65-4-4.76-2.2l-4.4,4.4Z"/><path class="cls-11" d="M964.64,262.83a73.62,73.62,0,0,1,.85,10.58c0,1.4-.62,5.47,2.37,4.4a2.45,2.45,0,0,0,1.29-2.29c.16-2.43-1.3-4.52-1.47-6.89s1.19-4,2.73-5.61A13.24,13.24,0,0,0,973,249.23c.43,1,2.78,2.26,3.68,2.9a45.23,45.23,0,0,0,23.8,8.11c1.14.05,3.73-.5,4.69.11,1.16.73.72,3.66.59,4.84-.28,2.48-1.72,4.79-2.3,7.28a6.52,6.52,0,0,0-.24,1.81,7,7,0,0,0,1.24,3,.74.74,0,0,0,.31.32c.23.09.47-.07.66-.23,1.66-1.49,2.16-3.85,2.56-6.05.53-2.9,1.52-4.84.76-7.81-1.13-6,.3-12.22-.69-18.23a2.93,2.93,0,0,0-2.47-2.82c-8.52-2.94-17.78-2.61-26.78-2.25-3.18.13-6.51.3-9.22,2-3.2,2-4.94,5.7-5.45,9.41S964.21,259.1,964.64,262.83Z"/><path class="cls-19" d="M976,292.63l21-.92S988.32,314.09,976,292.63Z"/><g class="cls-30"><path class="cls-11" d="M971.64,549.44,958.4,585.12a18.68,18.68,0,0,1-5-5.84c-.54-1-.93-2.44-.08-3.22.62-.57,1.58-.49,2.37-.79,1.5-.58,2.05-2.38,2.45-3.94a75.52,75.52,0,0,1,12.64-26.22C971.05,546.55,971.34,548,971.64,549.44ZM957.69,587l-10.89-.61a13,13,0,0,0,8.29,4.65,37.09,37.09,0,0,1-12.43,7.62l5.71.25a2.31,2.31,0,0,1,1.67.53,2.26,2.26,0,0,1,.37,1.73l-.66,11.91c-.16,3-.37,6.07-2,8.55s-5.17,4-7.65,2.33q1.78,6.59,3.56,13.18a7.87,7.87,0,0,1-4.76-3q.68,12.42,1.34,24.84l.35.24,16.71-71.17Z"/></g><g class="cls-30"><path class="cls-11" d="M1032.26,613.85c.68-1.67,1.66-3.51.94-5.17-.54-1.24-1.87-1.89-3-2.71a9.3,9.3,0,0,1,4.26-16.61c-3.53-1.44-7.14-2.93-9.94-5.51s-4.67-6.53-3.74-10.23c.5-2,1.76-3.77,1.87-5.82.26-4.8-5.48-7.49-7.83-11.68-1.29-2.3-1.52-5-1.9-7.62a56.37,56.37,0,0,0-12.58-27.91c0,1.09.06,2.19.08,3.28l23.13,66.27,13.25,67.39c2-6.35.06-13.7-2.17-20.21C1032.07,629.7,1029.21,621.3,1032.26,613.85Z"/></g><g class="cls-31"><path class="cls-11" d="M1034.93,345.12a5,5,0,0,0-2.91,1.16C1033,345.94,1034,345.54,1034.93,345.12Z"/></g><g class="cls-31"><path class="cls-11" d="M1035.21,400.62l7.2-57.93c3-3.09,6.13-6.56,9.25-10.2a9.4,9.4,0,0,0-2,1.45,38.9,38.9,0,0,0-3.9,4.7c-.41-.28-.84,0-1.16.3a37.42,37.42,0,0,1-9.71,6.18,5,5,0,0,1,2.78.54,56.56,56.56,0,0,1-12.4,7.66l9.4-.9a2.55,2.55,0,0,1,1.4.12c1,.5.92,1.94.69,3q-1.38,6.46-2.77,12.93a6.66,6.66,0,0,0,2.21-4.8c2.46,6.24-1.26,13-2.22,19.65-.52,3.59-.28,7.47-2.19,10.55-1.1,1.78-2.91,3.25-3.18,5.33l4.8-3.65a35.74,35.74,0,0,1-4.78,9.47A39.63,39.63,0,0,0,1035.21,400.62Z"/></g><g class="cls-31"><path class="cls-11" d="M949.94,360.51c.52,1.45-1.74,2.05-3,2.88-1.89,1.19-2,3.87-1.84,6.1,1.07,14.49,4.63,29.27.91,43.31,0-.07-.08-.14-.11-.21l-10.7-69.9s-8.27-9.43-18.93-23.25l9.25,7.94c5.11,4.38,10.72,9,17.44,9.4a19.58,19.58,0,0,0-8.6,3.89,64.29,64.29,0,0,0,10.47,2L939,348.24a25.07,25.07,0,0,0,9.8,11.2A2.33,2.33,0,0,1,949.94,360.51Z"/></g><path class="cls-22" d="M982.59,338s-11.77,91.94,70.45,82.58l7.59-11.64L1052,397s-64.32,23.7-59.63-59.07Z"/><path class="cls-6" d="M967.18,114.77c-12.59,0-23.84-7-28.66-17.94L923,61.73a14.39,14.39,0,0,1,1.14-13.88A16.35,16.35,0,0,1,938,40.55h25.82v5.1H938a11.28,11.28,0,0,0-9.56,5,9.38,9.38,0,0,0-.75,9l15.53,35.1c4,9,13.42,14.9,24,14.9Z"/><rect class="cls-6" x="977.1" y="118.49" width="23.29" height="47.16"/><g class="cls-17"><polygon class="cls-32" points="1000.38 131.89 977.1 135.29 977.1 118.49 1000.38 118.49 1000.38 131.89"/></g><g class="cls-17"><polygon class="cls-32" points="963.78 40.55 943.54 40.55 944.02 45.65 963.78 45.65 963.78 40.55"/></g><g class="cls-17"><path class="cls-32" d="M953.22,111.64a32.67,32.67,0,0,0,14,3.13v-5.1a27.05,27.05,0,0,1-17.22-6A37.79,37.79,0,0,0,953.22,111.64Z"/></g><path class="cls-6" d="M1010.9,114.77c12.59,0,23.84-7,28.66-17.94l15.53-35.1A14.41,14.41,0,0,0,1054,47.85a16.37,16.37,0,0,0-13.84-7.3H1014.3v5.1h25.81a11.27,11.27,0,0,1,9.56,5,9.38,9.38,0,0,1,.76,9l-15.53,35.1c-4,9-13.43,14.9-24,14.9Z"/><g class="cls-17"><polygon class="cls-32" points="1014.3 40.55 1034.53 40.55 1034.06 45.65 1014.3 45.65 1014.3 40.55"/></g><g class="cls-17"><path class="cls-32" d="M1024.85,111.64a32.66,32.66,0,0,1-13.95,3.13v-5.1a27,27,0,0,0,17.21-6A37.27,37.27,0,0,1,1024.85,111.64Z"/></g><path class="cls-6" d="M989,131.44h0a37.84,37.84,0,0,1-37.72-34.81l-5.59-60.39-.17-1.92H1032l-5.22,62A37.85,37.85,0,0,1,989,131.44Z"/><path class="cls-33" d="M1027.72,34.32l-5.22,62a37.82,37.82,0,0,1-35.63,35c.71,0,1.42.1,2.13.1h0a37.85,37.85,0,0,0,37.75-35.09l5.22-62Z"/><path class="cls-34" d="M958.07,96.63l-5.58-60.39-.18-1.92h-6.79l.17,1.92,5.59,60.39A37.84,37.84,0,0,0,989,131.44h0c1.15,0,2.27-.06,3.39-.16A37.85,37.85,0,0,1,958.07,96.63Z"/><path class="cls-33" d="M994.67,131a37.72,37.72,0,0,0,14.27-5.23c.16-1.48.33-3,.4-4.5l4.43-85.45H998.63S996,97.9,994.67,131Z"/><rect class="cls-6" x="973.56" y="137.3" width="30.36" height="9.53" rx="4.04"/><rect class="cls-6" x="973.56" y="151.75" width="30.36" height="9.53" rx="3.73"/><path class="cls-6" d="M1015.21,169.11h0a7.83,7.83,0,0,0-7.81-7.81H970.08a7.83,7.83,0,0,0-7.81,7.81h52.94Z"/><path class="cls-35" d="M962.27,169.11h52.94a7.69,7.69,0,0,0-.52-2.72h-51.9A7.69,7.69,0,0,0,962.27,169.11Z"/><path class="cls-35" d="M973.56,142.07v.78a4,4,0,0,0,4,4h22.4a4,4,0,0,0,4-4v-.78Z"/><path class="cls-35" d="M973.56,156.51v.79a4,4,0,0,0,4,4h22.4a4,4,0,0,0,4-4v-.79Z"/><g class="cls-17"><polygon class="cls-32" points="945.7 36.24 946.24 42.14 1031.56 39.16 1031.97 34.31 945.52 34.31 945.7 36.24"/></g><rect class="cls-6" x="942.36" y="31.87" width="92.77" height="5.57"/><rect class="cls-36" x="997.13" y="31.87" width="18.46" height="5.57"/><rect class="cls-36" x="1022.38" y="31.87" width="3.13" height="5.57" transform="translate(2047.9 69.31) rotate(180)"/><rect class="cls-5" x="949.17" y="169.11" width="80.02" height="30.67" rx="1.25"/><path class="cls-22" d="M983.25,199.78l39.5-30.67H951a1.81,1.81,0,0,0-1.81,1.81V198a1.81,1.81,0,0,0,1.81,1.81Z"/><rect class="cls-19" x="969.27" y="173.24" width="38.92" height="22.42"/><text class="cls-37" transform="translate(982.83 189.79)">1</text><path class="cls-11" d="M1274.68,669.39l6.88,10.22,13.09,7.5a8.13,8.13,0,0,1,4.09,7v.21h-31.59l-19.28-4.57.7-24.95Z"/><path class="cls-16" d="M1308.73,459.09v6.72l2.84,2.78a6.55,6.55,0,0,1,2,4.7v10.36l-.44,1a4.61,4.61,0,0,1-4.21,2.73h-9.26a6,6,0,0,1-3.77-1.34l-1-.8a5.33,5.33,0,0,1-1.94-4.1v-5.79l-2.49-2.11v-6.6L1293,465l3.32-2.07.42-3.82Z"/><path class="cls-11" d="M1212.89,669.39,1206,679.61l-13.09,7.5a8.13,8.13,0,0,0-4.09,7v.21h31.6l19.28-4.57-.7-24.95Z"/><g class="cls-38"><path class="cls-39" d="M1202,687.11l13.09-7.5,6.89-10.22,17.07-3,0-1.57-26.12,4.54L1206,679.61l-13.09,7.5a8.13,8.13,0,0,0-4.09,7v.21h9.08v-.21A8.13,8.13,0,0,1,1202,687.11Z"/></g><g class="cls-38"><path class="cls-39" d="M1285.57,687.11l-13.09-7.5-6.88-10.22-17.08-3,0-1.57,26.11,4.54,6.88,10.22,13.09,7.5a8.13,8.13,0,0,1,4.09,7v.21h-9.08v-.21A8.13,8.13,0,0,0,1285.57,687.11Z"/></g><polygon class="cls-28" points="1275.54 444.6 1194.35 444.6 1194.35 325.92 1227.91 290.7 1275.54 300.2 1275.54 444.6"/><polygon class="cls-15" points="1194.35 423.41 1203.06 560.64 1212.89 669.39 1239.01 669.39 1234.94 562.67 1239.01 468.82 1251.89 568.15 1248.09 669.39 1274.68 669.39 1279.19 568.15 1281.59 423.41 1194.35 423.41"/><rect class="cls-11" x="1194.35" y="423.41" width="81.37" height="7.21"/><rect class="cls-40" x="1221.66" y="423.41" width="21.02" height="7.21"/><polygon class="cls-16" points="1256.79 297.13 1242.35 307.73 1227.91 297.13 1227.91 272.93 1256.79 272.93 1256.79 297.13"/><path class="cls-14" d="M1222.7,272.82a.53.53,0,0,1-.06-.1l-.26-.15Z"/><path class="cls-14" d="M1264.87,246c-.36-2.9-1.49-5.68-1.69-8.6a11.84,11.84,0,0,0-.47-3.72c-1.13-2.8-4.88-3.71-6.24-6.4a13.49,13.49,0,0,0-.86-1.8,4.18,4.18,0,0,0-1.85-1.32,8.52,8.52,0,0,0-6-.15,8.16,8.16,0,0,1-2.28.67c-1.9.08-3.35-1.77-5.22-2.11s-3.88,1-5.9,1.21c-2.42.2-5-1.36-7.17-.28s-3.47,3.29-5.5,4.51a7.33,7.33,0,0,0-3.65,4c-.87,2-2.69,3.77-2.7,6,0,2.52,1.75,4.76,1.34,7.33-.2,1.26-.93,2.38-1.17,3.63-.52,2.69,1.26,4.26,2.15,6.52.68,1.71.5,3.83.76,5.69a24.59,24.59,0,0,0,4.27,11.54c3.39,2,6.87,4,10.72,4.75a37,37,0,0,0,9.41.3c4-.22,8.32-.61,11.07-3.47a15.92,15.92,0,0,0,2.5-3.9l2.81-5.52a30.32,30.32,0,0,0,1.94-4.36,28.88,28.88,0,0,0,.89-3.81C1262.8,252.88,1265.4,250.16,1264.87,246Z"/><path class="cls-16" d="M1259.6,254.64s4.26-2.54,4.26-.27c0,1.31.55,3.54-.26,6.47a7.66,7.66,0,0,1-4.86,5.18h0l-2.7-6.93Z"/><path class="cls-16" d="M1218.1,254.64s-4.26-2.54-4.26-.27c0,1.31-.56,3.54.25,6.47A7.68,7.68,0,0,0,1219,266h0l2.7-6.93Z"/><g class="cls-17"><path class="cls-11" d="M1227.91,289.09a10.81,10.81,0,0,0,5.14,1.36h3.18a17.22,17.22,0,0,0,10.24-3.38l2.79-2.08a19.74,19.74,0,0,0,7.53-11.66v-.4h-28.88Z"/></g><path class="cls-16" d="M1219.54,252.51l.74,14.48a25.16,25.16,0,0,0,6,15.1h0a10.89,10.89,0,0,0,8.28,3.82h3.17a17.17,17.17,0,0,0,10.24-3.39l2.8-2.07a19.83,19.83,0,0,0,8-14.43l1-12.79a20,20,0,0,0-8.22-17.83,20.86,20.86,0,0,0-13.71-4.16C1227,232,1219,241.7,1219.54,252.51Z"/><path class="cls-19" d="M1230.15,270.54h17.21S1238.24,281.32,1230.15,270.54Z"/><path class="cls-14" d="M1217.71,245.75c0,3.85-.66,7.64-.48,11.5.11,2.31.53,4.81,2.23,6.36.64.59,1.76.95,2.31.28a1.69,1.69,0,0,0,.28-1.08,20.56,20.56,0,0,0-1-4.93c-.88-3.51-1.64-7.18.86-10.1,1.27-1.48,2.76-2.89,3.25-4.77a7,7,0,0,1,.57-1.88c.83-1.34,2.81-1.26,4.3-.74s3,1.29,4.55.82c1-.31,1.91-1.12,2.85-.74a3.23,3.23,0,0,1,1,.86,5.07,5.07,0,0,0,5.57,1c.68-.31,1.28-.77,2-1a5.14,5.14,0,0,1,4.87,1.28,9.06,9.06,0,0,1,3.16,7,5,5,0,0,0,.23,2.4c.79,1.54,3.27,1.48,4.16,3a3.45,3.45,0,0,1-.32,3.3c-.55,1-1.89,2.6-1.3,3.84.79,1.64,2.15.73,2.89-.53a8.94,8.94,0,0,0,.68-5.7c-.26-1.95-.76-3.81-.16-5.71s1.61-3.42,1.73-5.52c.24-4-2.46-7.67-5.78-9.9s-7.24-3.36-11-4.78c-2.15-.82-4.35-1.76-6.64-1.63a14.89,14.89,0,0,0-6,2.21l-5.58,3a10.5,10.5,0,0,0-2.67,1.84c-1.07,1.14-1.6,2.74-2.79,3.76-.69.6-1.56,1-2.22,1.59C1217.91,242,1217.71,244,1217.71,245.75Z"/><g class="cls-17"><path class="cls-11" d="M1194.35,325.92V444.6h1.35v.19l13.2-9.23a24.43,24.43,0,0,0,8.94-28.13c-8.63-24.87-13.8-66.17,11.1-113l-.16-3.56-.88-.18Z"/></g><path class="cls-22" d="M1227.91,290.7l-14.26,9.84-13.33,2.16a11.31,11.31,0,0,0-6.47,3.45l-36.54,39.28a8.93,8.93,0,0,1-10.79,1.76l-32-17.39-8.11,14.39,38,29.54a13.43,13.43,0,0,0,14.92,1l22.69-18.09,5.45,26.69-13,70.84,26.89-17a24.42,24.42,0,0,0,10.2-27.69c-7.48-25.24-10.76-66.73,16.25-112.37Z"/><path class="cls-16" d="M1107.2,342.82l-5.82-4.44h-22.2l-12.62-2.77-5.8-5.81h0a4.34,4.34,0,0,1,6.06-1l3.53,2.52,16.24,1.34a5,5,0,0,0,4.71-2.45l.24-.41-6-4.92a5,5,0,0,1,.25-7.89h0l21.46,12.06,5.59,3.86Z"/><g class="cls-17"><path class="cls-11" d="M1281.19,447.5l.4-24.09h-6V300.2l-16.1-3.21c-7.6,51.3-10.69,86.95-11.88,109.38a38.8,38.8,0,0,0,27.17,39.1Z"/></g><path class="cls-22" d="M1256.79,284.14l12.11,13,35.32,12.49-19.42,67.7,21.7,73.84-24.41-5.68a38.82,38.82,0,0,1-30-37C1251.53,384,1252,343.74,1256.79,284.14Z"/><polygon class="cls-9" points="1242.35 307.73 1231.19 319.08 1224.14 303.83 1227.91 297.13 1242.35 307.73"/><polygon class="cls-9" points="1242.35 307.73 1247.71 319.08 1254.69 313.41 1255.74 297.9 1242.35 307.73"/><polygon class="cls-6" points="1242.35 307.73 1233.25 316.99 1246.72 316.99 1242.35 307.73"/><path class="cls-6" d="M1235.73,317s-18.26,53.81-14.64,87.75l12,11.67,11.23-12.33s-15.36-42.65-.38-87.09Z"/><g class="cls-20"><path class="cls-11" d="M1262.16,566.59l-5.78-13a8.27,8.27,0,0,0,3.49.31,85.93,85.93,0,0,1-4.41-27.33c0-3.2-6.65-20.39-7.5-24.16-.14-.66-5.06-7.68-6-11.2l.58,4.5a8.74,8.74,0,0,1,.6,4.61l8.79,67.78-2.54,67.73a110.08,110.08,0,0,0,2.4,18.84l1.06-.14c5.13-10.36,4.58-23.73,3.59-36a3.83,3.83,0,0,1,3.93,1.24,145.82,145.82,0,0,1-6.6-27.07l5,3.54a108.85,108.85,0,0,1-2.51-22.72,8,8,0,0,1,6.23,4.54,47.56,47.56,0,0,1-4.06-12.72A6.37,6.37,0,0,1,1262.16,566.59Z"/></g><g class="cls-41"><path class="cls-11" d="M1236.26,519.75c-.19,1.58-.49,3.14-.81,4.69.26-8,.78-16,0-24C1236.26,506.87,1237,513.35,1236.26,519.75Zm-1.32,42.92.92-21.22a116.12,116.12,0,0,1-.41-17c-.79,3.69-1.83,7.33-2.58,11-2.24,11.09-1.71,22.54-1.17,33.85l-6.59-3q4.73,8,9.91,15.74l-9.77-3.56c.11,2.57,2.61,4.29,3.94,6.49a15.24,15.24,0,0,1,1.66,5.4l1.71,9.77a16.53,16.53,0,0,1,.37,4.48c-.37,3.62-3.08,6.73-3.22,10.36-.18,5,4.37,8.76,5.76,13.51.82,2.81.49,5.81.53,8.73a34.24,34.24,0,0,0,1.83,10.47l0-.23c.11-.11.19-.25.29-.37Z"/></g><g class="cls-42"><g class="cls-17"><path class="cls-11" d="M1288.48,363.6a13.66,13.66,0,0,0-3.29,12.36l3.4-11.86C1288.55,363.93,1288.52,363.77,1288.48,363.6Z"/></g><g class="cls-17"><path class="cls-11" d="M1288.14,392.43c1.22,3.22,1.53,6.7,2.33,10.05a15.93,15.93,0,0,0,4,7.86l-9.7-33,.28-1a56.75,56.75,0,0,1-14.42,2.24,37.23,37.23,0,0,1,14.49,4.55l-3.4.79A19.08,19.08,0,0,1,1288.14,392.43Z"/></g></g><g class="cls-42"><g class="cls-17"><path class="cls-11" d="M1189.65,376.89a12.28,12.28,0,0,1-4.72-6.29l2.61,12.78-.14.74,8.17-1.22c.4-1.47-.61-3-1.86-3.88S1191,377.69,1189.65,376.89Z"/></g><g class="cls-17"><path class="cls-11" d="M1186.65,393.33a1.63,1.63,0,0,1-.66-1.47L1183.4,406a82.69,82.69,0,0,1,5.67-13.41A1.72,1.72,0,0,1,1186.65,393.33Z"/></g><g class="cls-17"><path class="cls-11" d="M1186.39,390.8a3.55,3.55,0,0,1,1.12-.64l6.52-2.68a28,28,0,0,0-6.65-3.22l-1.29,7.06A1.51,1.51,0,0,1,1186.39,390.8Z"/></g></g><path class="cls-5" d="M1252.07,408.52c0,.84.09,1.66.16,2.48l.21,1.9c0,.17,0,.34.08.51L1270.66,317l-6.62-9.26,9.41-5.34-16.66-18.25C1252,343.74,1251.53,384,1252.07,408.52Z"/><path class="cls-5" d="M1205.33,311s-17.92,34.06,6.33,98.53c-7.48-25.24-10.76-66.73,16.25-112.37V290.7l-14.26,9.84,5.86,3.51Z"/><g class="cls-17"><g class="cls-17"><polygon class="cls-11" points="1292.79 404.52 1290.53 447.44 1306.5 451.16 1292.79 404.52"/></g></g><polygon class="cls-22" points="1304.22 309.62 1321.38 389.85 1311.04 460.15 1294.39 460.41 1298.17 388.59 1287.32 349.48 1304.22 309.62"/><g class="cls-7"><path class="cls-11" d="M1132.4,339.51a6.82,6.82,0,0,0-.58.49c1.43.47,2.86,1,4.28,1.52Z"/><path class="cls-11" d="M1157.31,345.43a8.93,8.93,0,0,1-10.79,1.76l-4.47-2.43c.23.18.49.32.71.51,1.17,1,2.19,2.2,3.34,3.25,2.74,2.52,6.13,4.18,9.48,5.81a9.19,9.19,0,0,0-.65-3.95,29.35,29.35,0,0,0,3.29,6c.11-2.66.21-5.33.32-8,.06,1.17.13,2.34.19,3.51a108.11,108.11,0,0,1,7.51-16.06Z"/></g><g class="cls-7"><path class="cls-11" d="M1302,389c1.3-.74,4.17-2,2.56-2.33-.44-.09-4.46.8-4.9.69.8-.78,4.41-3.22,3.29-4l-7.68-5.15,1.54,5.55.45.3-.33.13,1.22,4.39h0l.45.18c-.16.11-.32.26-.48.38l-.21,4c.23.05.45.07.67.12-.09.11-.19.21-.27.33a5.81,5.81,0,0,0-.47.89l-.56,10.57a1.48,1.48,0,0,0,1.92-.87c.94-2.07,1.16-4.25,1.9-6.32.9-2.5,3.05-3,4.88-4.64C1307.09,392.29,1303.37,389.23,1302,389Z"/></g><rect class="cls-11" y="691.2" width="1922" height="3.03"/><path class="cls-22" d="M1522.41,394.08h304.85a2.66,2.66,0,0,1,2.66,2.66V589a0,0,0,0,1,0,0H1519.75a0,0,0,0,1,0,0V396.74A2.66,2.66,0,0,1,1522.41,394.08Z"/><rect class="cls-43" x="1535.65" y="411.62" width="278.37" height="161.65"/><path class="cls-44" d="M1848,597.76H1501.67a52.68,52.68,0,0,0,37.15,15.32h272A52.67,52.67,0,0,0,1848,597.76Z"/><rect class="cls-19" x="1501.67" y="588.02" width="346.33" height="9.74"/><path class="cls-44" d="M1696.27,595.54H1653.4a2.66,2.66,0,0,1-2.65-2.65h0a2.66,2.66,0,0,1,2.65-2.65h42.87a2.65,2.65,0,0,1,2.65,2.65h0A2.65,2.65,0,0,1,1696.27,595.54Z"/><g class="cls-17"><polygon class="cls-32" points="1794.73 573.28 1554.94 573.28 1543.37 394.08 1806.31 394.08 1794.73 573.28"/></g><path class="cls-19" d="M1562.73,309.4h224.22a9.06,9.06,0,0,1,9.06,9.06V573.28a0,0,0,0,1,0,0H1553.66a0,0,0,0,1,0,0V318.46A9.06,9.06,0,0,1,1562.73,309.4Z"/><path class="cls-43" d="M1796,345.88V317.8a8.4,8.4,0,0,0-8.39-8.4H1562.06a8.4,8.4,0,0,0-8.4,8.4v28.08Z"/><rect class="cls-22" x="1572.42" y="391.47" width="118.4" height="76.43" rx="7.84"/><path class="cls-19" d="M1582.12,327.64a4.85,4.85,0,1,1-4.85-4.86A4.85,4.85,0,0,1,1582.12,327.64Z"/><path class="cls-19" d="M1598.3,327.64a4.86,4.86,0,1,1-4.86-4.86A4.86,4.86,0,0,1,1598.3,327.64Z"/><path class="cls-19" d="M1614.47,327.64a4.86,4.86,0,1,1-4.85-4.86A4.85,4.85,0,0,1,1614.47,327.64Z"/><g class="cls-7"><path class="cls-45" d="M1787.62,309.4h-10.73a8.4,8.4,0,0,1,8.39,8.4V573.28H1796V317.8A8.4,8.4,0,0,0,1787.62,309.4Z"/></g><path class="cls-46" d="M1771.7,404.46h-64.17a5.19,5.19,0,0,1-5.19-5.19h0a5.19,5.19,0,0,1,5.19-5.19h64.17a5.19,5.19,0,0,1,5.19,5.19h0A5.19,5.19,0,0,1,1771.7,404.46Z"/><path class="cls-46" d="M1771.7,424.87h-64.17a5.19,5.19,0,0,1-5.19-5.19h0a5.19,5.19,0,0,1,5.19-5.19h64.17a5.19,5.19,0,0,1,5.19,5.19h0A5.2,5.2,0,0,1,1771.7,424.87Z"/><path class="cls-46" d="M1771.7,445.28h-64.17a5.19,5.19,0,0,1-5.19-5.19h0a5.19,5.19,0,0,1,5.19-5.19h64.17a5.19,5.19,0,0,1,5.19,5.19h0A5.2,5.2,0,0,1,1771.7,445.28Z"/><path class="cls-46" d="M1742,465.69h-34.42a5.19,5.19,0,0,1-5.19-5.19h0a5.19,5.19,0,0,1,5.19-5.19H1742a5.18,5.18,0,0,1,5.18,5.19h0A5.19,5.19,0,0,1,1742,465.69Z"/><path class="cls-46" d="M1615.51,492h-34.42a5.19,5.19,0,0,1-5.19-5.19h0a5.19,5.19,0,0,1,5.19-5.19h34.42a5.19,5.19,0,0,1,5.18,5.19h0A5.18,5.18,0,0,1,1615.51,492Z"/><path class="cls-46" d="M1771.7,518.25H1581.09a5.19,5.19,0,0,1-5.19-5.19h0a5.19,5.19,0,0,1,5.19-5.19H1771.7a5.19,5.19,0,0,1,5.19,5.19h0A5.19,5.19,0,0,1,1771.7,518.25Z"/><path class="cls-46" d="M1771.7,540.54H1581.09a5.18,5.18,0,0,1-5.19-5.18h0a5.19,5.19,0,0,1,5.19-5.19H1771.7a5.19,5.19,0,0,1,5.19,5.19h0A5.19,5.19,0,0,1,1771.7,540.54Z"/><path class="cls-46" d="M1685.62,562.84H1581.09a5.19,5.19,0,0,1-5.19-5.19h0a5.19,5.19,0,0,1,5.19-5.19h104.53a5.19,5.19,0,0,1,5.19,5.19h0A5.19,5.19,0,0,1,1685.62,562.84Z"/><path class="cls-19" d="M1610,438.25v6.95a9.79,9.79,0,0,1,9.78,9.8h7A16.75,16.75,0,0,0,1610,438.25Z"/><path class="cls-19" d="M1643.36,421.75a16.81,16.81,0,0,0-33.11.48,30.2,30.2,0,0,1,7,.87,9.81,9.81,0,0,1,19.49,1.74v3.59h3.44a9.82,9.82,0,0,1,0,19.63h-3.05A28.19,28.19,0,0,0,1617,427.92a27.62,27.62,0,0,0-7-.9h0v7a21,21,0,0,1,21,21h9.18a16.8,16.8,0,0,0,3.21-33.25Z"/><path class="cls-22" d="M1723.91,604.18H1787a0,0,0,0,1,0,0V687a0,0,0,0,1,0,0h-63.06a4.51,4.51,0,0,1-4.51-4.51V608.69A4.51,4.51,0,0,1,1723.91,604.18Z"/><rect class="cls-43" x="1728.09" y="615.64" width="58.88" height="16.47"/><polygon class="cls-6" points="1719.39 634.99 1728.09 632.11 1728.09 615.64 1719.39 618.52 1719.39 634.99"/><g class="cls-17"><path class="cls-32" d="M1725.21,604.18a5.82,5.82,0,0,0-5.82,5.81v71.25a5.82,5.82,0,0,0,5.82,5.81h2.88V604.18Z"/></g><rect class="cls-19" x="1739.06" y="635.98" width="37.32" height="5.22"/><g class="cls-17"><path class="cls-11" d="M1728.09,604.18h-4.18a4.51,4.51,0,0,0-4.52,4.51V610h0v71.25h0v1.3a4.51,4.51,0,0,0,4.52,4.51h13.81a4.6,4.6,0,0,0,1.39-3.29V604.18Z"/></g><rect class="cls-15" x="1648.7" y="577.98" width="85.09" height="110.38" rx="4.59"/><rect class="cls-47" x="1659.02" y="591.37" width="64.45" height="81.2"/><path class="cls-11" d="M1700.51,586.52H1682a1.12,1.12,0,0,1-1.12-1.11h0a1.12,1.12,0,0,1,1.12-1.12h18.53a1.12,1.12,0,0,1,1.12,1.12h0A1.12,1.12,0,0,1,1700.51,586.52Z"/><g class="cls-17"><path class="cls-32" d="M1705.27,591.1h10.78a0,0,0,0,1,0,0v75.85a5.62,5.62,0,0,1-5.62,5.62h-5.16a0,0,0,0,1,0,0V591.1A0,0,0,0,1,1705.27,591.1Z"/></g><path class="cls-19" d="M1659,591.1h54.73a0,0,0,0,1,0,0v77.29a4.19,4.19,0,0,1-4.19,4.19H1659a0,0,0,0,1,0,0V591.1A0,0,0,0,1,1659,591.1Z"/><path class="cls-11" d="M1676.53,610.13h-7.81l-1.28,2.81h-3l6.7-14.93h3.07l6.7,14.93h-3.07Zm-3.91-9-2.77,6.35h5.55Z"/><path class="cls-48" d="M1707.2,623h-40.61a2.19,2.19,0,0,1-2.2-2.19h0a2.19,2.19,0,0,1,2.2-2.2h40.61a2.19,2.19,0,0,1,2.19,2.2h0A2.19,2.19,0,0,1,1707.2,623Z"/><path class="cls-48" d="M1707.2,613.51h-22.28a2.19,2.19,0,0,1-2.19-2.2h0a2.2,2.2,0,0,1,2.19-2.2h22.28a2.2,2.2,0,0,1,2.19,2.2h0A2.19,2.19,0,0,1,1707.2,613.51Z"/><path class="cls-48" d="M1707.2,604h-22.28a2.2,2.2,0,0,1-2.19-2.2h0a2.2,2.2,0,0,1,2.19-2.2h22.28a2.2,2.2,0,0,1,2.19,2.2h0A2.2,2.2,0,0,1,1707.2,604Z"/><path class="cls-48" d="M1707.2,632.58h-40.61a2.2,2.2,0,0,1-2.2-2.2h0a2.19,2.19,0,0,1,2.2-2.2h40.61a2.19,2.19,0,0,1,2.19,2.2h0A2.2,2.2,0,0,1,1707.2,632.58Z"/><path class="cls-48" d="M1707.2,642.11h-40.61a2.2,2.2,0,0,1-2.2-2.2h0a2.2,2.2,0,0,1,2.2-2.2h40.61a2.2,2.2,0,0,1,2.19,2.2h0A2.2,2.2,0,0,1,1707.2,642.11Z"/><path class="cls-48" d="M1707.2,651.64h-40.61a2.19,2.19,0,0,1-2.2-2.2h0a2.2,2.2,0,0,1,2.2-2.2h40.61a2.2,2.2,0,0,1,2.19,2.2h0A2.19,2.19,0,0,1,1707.2,651.64Z"/><path class="cls-48" d="M1707.2,661.17h-40.61a2.19,2.19,0,0,1-2.2-2.19h0a2.19,2.19,0,0,1,2.2-2.2h40.61a2.19,2.19,0,0,1,2.19,2.2h0A2.19,2.19,0,0,1,1707.2,661.17Z"/><path class="cls-43" d="M1713.75,668.19a4.71,4.71,0,0,0-4.54-5h-2V586h1.88a4.61,4.61,0,0,1,4.61,4.61Z"/><g class="cls-17"><path class="cls-11" d="M1667,633.7h-.42v-1.38a7.51,7.51,0,0,0-8.25-7.46,7.73,7.73,0,0,0-6.74,7.8v1h-2.9v50.06a4.58,4.58,0,0,0,3.09,4.32H1667a8,8,0,0,0,8-8V641.68A8,8,0,0,0,1667,633.7Zm-4.84,0H1656v-1.38a3.07,3.07,0,0,1,3.39-3.05,3.2,3.2,0,0,1,2.76,3.23Z"/></g><rect class="cls-19" x="1616.35" y="633.7" width="54.38" height="54.38" rx="10.72"/><path class="cls-43" d="M1662.75,633.7h-38.43a8,8,0,0,0-8,8V650h54.38v-8.34A8,8,0,0,0,1662.75,633.7Z"/><path class="cls-49" d="M1628.75,641.37a4.14,4.14,0,1,1-4.14-4.13A4.14,4.14,0,0,1,1628.75,641.37Z"/><path class="cls-50" d="M1627.44,641.37a2.83,2.83,0,1,1-2.83-2.82A2.83,2.83,0,0,1,1627.44,641.37Z"/><path class="cls-49" d="M1653.82,641.37a4.14,4.14,0,1,1-4.14-4.13A4.14,4.14,0,0,1,1653.82,641.37Z"/><path class="cls-50" d="M1652.51,641.37a2.83,2.83,0,1,1-2.83-2.82A2.83,2.83,0,0,1,1652.51,641.37Z"/><path class="cls-11" d="M1649.55,642.37h0a2.21,2.21,0,0,1-2.21-2.21v-7.5a7.73,7.73,0,0,1,6.75-7.8,7.51,7.51,0,0,1,8.24,7.46v1.38h-4.42v-1.2a3.2,3.2,0,0,0-2.75-3.23,3.07,3.07,0,0,0-3.4,3.05v7.84A2.21,2.21,0,0,1,1649.55,642.37Z"/><path class="cls-11" d="M1624.48,642.37h0a2.21,2.21,0,0,1-2.21-2.21v-7.5a7.73,7.73,0,0,1,6.75-7.8,7.51,7.51,0,0,1,8.24,7.46v1.38h-4.42v-1.2a3.2,3.2,0,0,0-2.75-3.23,3.07,3.07,0,0,0-3.4,3.05v7.84A2.21,2.21,0,0,1,1624.48,642.37Z"/><g class="cls-17"><path class="cls-51" d="M1662.75,633.7h-4a8,8,0,0,1,8,8V680.1a8,8,0,0,1-8,8h4a8,8,0,0,0,8-8V641.68A8,8,0,0,0,1662.75,633.7Z"/></g><circle class="cls-5" cx="1642.63" cy="667.84" r="19.84"/><path class="cls-15" d="M1659.4,667.84a16.77,16.77,0,1,1-16.77-16.77A16.77,16.77,0,0,1,1659.4,667.84Z"/><path class="cls-19" d="M1656,667.84a13.37,13.37,0,1,1-13.37-13.36A13.38,13.38,0,0,1,1656,667.84Z"/><path class="cls-51" d="M1642.63,667.84h0a.8.8,0,0,1-.8-.8V657.8a.8.8,0,0,1,.8-.8h0a.8.8,0,0,1,.8.8V667A.8.8,0,0,1,1642.63,667.84Z"/><path class="cls-51" d="M1650.58,667h0a.8.8,0,0,0-.81-.8h-7.14a.8.8,0,0,0-.8.8h0a.8.8,0,0,0,.8.8h7.14A.8.8,0,0,0,1650.58,667Z"/><path class="cls-6" d="M343.57,631.89l-.68.33c-7.05,3.37-10.8,2.81-17.68-.37a71.9,71.9,0,0,1-17.71-11c-6.64-5.87-11.8-13.8-12.87-22.59-.24-2-.23-4.14.95-5.75,1.61-2.2,4.9-2.53,7.45-1.54s4.55,3,6.58,4.79a7.37,7.37,0,0,0,2.9,1.86,2.7,2.7,0,0,0,3.06-1c.92-1.61-.65-3.47-2.07-4.65-3.3-2.75-6.39-4.34-9.85-6.78-4.35-3-8.37-6.79-10.75-11.53S290,563,292.46,558.29a9.4,9.4,0,0,1,3.16-3.6c2.42-1.53,5.53-1.45,8.33-.85s5.51,1.66,8.36,2c6.73.7,9.38-4,9.25-10.24-.09-4.15-1.44-8.19-1.68-12.34-.42-7.31,3.19-15.09,9.8-18.22s15.86-.13,18.23,6.8c2.57,7.52-3.3,16,.59,23.16a22,22,0,0,0,6.37,7c3.69,2.28,9-.4,13.31-.2a3.88,3.88,0,0,1,2.67.85,3.79,3.79,0,0,1,.83,1.92A15.94,15.94,0,0,1,366.86,569c-4.45,4-12.17,6.12-14.07,12.46-1.17,3.94-.66,13.77,5.61,12.77,2.35-.37,3.93-2.7,6.18-3.46,2.79-.95,6,.9,7.24,3.57s.88,5.86-.21,8.6c-1.71,4.32-5,7.79-8.25,11.14C356.71,621,352.34,627.56,343.57,631.89Z"/><rect class="cls-11" x="332.81" y="540.29" width="2.86" height="152.71"/><polygon class="cls-11" points="334.24 586.6 315.48 567.83 317.5 565.81 334.24 582.56 350.99 565.81 353.01 567.83 334.24 586.6"/><polygon class="cls-11" points="334.24 622.26 315.48 603.5 317.5 601.48 334.24 618.22 350.99 601.48 353.01 603.5 334.24 622.26"/><path class="cls-8" d="M374.83,508.67l-.75.37c-7.87,3.76-12.05,3.13-19.72-.41a80.17,80.17,0,0,1-19.77-12.3c-7.41-6.54-13.16-15.39-14.35-25.2-.27-2.21-.26-4.62,1.05-6.41,1.8-2.46,5.48-2.82,8.32-1.73s5.07,3.32,7.34,5.36a8.37,8.37,0,0,0,3.23,2.07,3,3,0,0,0,3.42-1.14c1-1.8-.73-3.87-2.32-5.19-3.67-3.07-7.13-4.84-11-7.56-4.85-3.41-9.33-7.58-12-12.87s-3.26-11.86-.49-17.1a10.44,10.44,0,0,1,3.52-4c2.7-1.7,6.17-1.62,9.3-1s6.14,1.86,9.32,2.19c7.51.78,10.46-4.5,10.32-11.42-.11-4.64-1.6-9.14-1.87-13.77-.47-8.15,3.55-16.84,10.93-20.32s17.7-.15,20.34,7.57c2.87,8.4-3.68,17.83.65,25.85a24.48,24.48,0,0,0,7.11,7.76c4.12,2.55,10.06-.45,14.86-.23a4.36,4.36,0,0,1,3,1,4.13,4.13,0,0,1,.92,2.14,17.78,17.78,0,0,1-5.37,16.2c-5,4.52-13.58,6.82-15.69,13.9-1.31,4.4-.75,15.36,6.25,14.25,2.63-.42,4.38-3,6.9-3.87,3.11-1.05,6.68,1,8.08,4s1,6.53-.24,9.59c-1.91,4.83-5.6,8.69-9.21,12.43C389.49,496.51,384.62,503.84,374.83,508.67Z"/><rect class="cls-11" x="363" y="406.48" width="2.86" height="285.7"/><polygon class="cls-11" points="364.43 457.91 343.61 437.09 345.63 435.07 364.43 453.87 383.23 435.07 385.25 437.09 364.43 457.91"/><polygon class="cls-11" points="364.43 497.7 343.61 476.88 345.63 474.86 364.43 493.65 383.23 474.86 385.25 476.88 364.43 497.7"/><g class="cls-17"><path class="cls-11" d="M406.36,466.79c-1.4-3-5-5-8.08-4-2.52.86-4.27,3.45-6.9,3.87-7,1.11-7.56-9.85-6.25-14.25,2.11-7.08,10.72-9.38,15.69-13.9a16.45,16.45,0,0,0,2.23-2.56H386.59a2.91,2.91,0,0,0-2.91,2.91v5.26h0v58.55c4.69-4.09,8.44-8.9,13.23-13.88,3.61-3.74,7.3-7.6,9.21-12.43C407.33,473.32,407.75,469.77,406.36,466.79Z"/></g><rect class="cls-6" x="390.83" y="435.96" width="43.43" height="254.56" rx="2.9" transform="translate(825.09 1126.48) rotate(180)"/><path class="cls-52" d="M399,436h15.11V690.52H399a8.18,8.18,0,0,1-8.18-8.18V444.14A8.18,8.18,0,0,1,399,436Z"/><rect class="cls-11" x="390.83" y="673.42" width="5.44" height="2.8" transform="translate(787.09 1349.63) rotate(180)"/><rect class="cls-11" x="390.83" y="662.11" width="5.44" height="2.8" transform="translate(787.09 1327.02) rotate(180)"/><rect class="cls-11" x="390.83" y="650.8" width="5.44" height="2.8" transform="translate(787.09 1304.4) rotate(180)"/><rect class="cls-11" x="390.83" y="639.49" width="5.44" height="2.8" transform="translate(787.09 1281.79) rotate(180)"/><rect class="cls-11" x="390.83" y="628.19" width="10.88" height="2.8" transform="translate(792.53 1259.17) rotate(180)"/><rect class="cls-11" x="390.83" y="616.88" width="5.44" height="2.8" transform="translate(787.09 1236.56) rotate(180)"/><rect class="cls-11" x="390.83" y="605.57" width="5.44" height="2.8" transform="translate(787.09 1213.94) rotate(180)"/><rect class="cls-11" x="390.83" y="594.26" width="5.44" height="2.8" transform="translate(787.09 1191.33) rotate(180)"/><rect class="cls-11" x="390.83" y="582.96" width="5.44" height="2.8" transform="translate(787.09 1168.71) rotate(180)"/><rect class="cls-11" x="390.83" y="571.65" width="10.88" height="2.8" transform="translate(792.53 1146.1) rotate(180)"/><rect class="cls-11" x="390.83" y="560.34" width="5.44" height="2.8" transform="translate(787.09 1123.48) rotate(180)"/><rect class="cls-11" x="390.83" y="549.03" width="5.44" height="2.8" transform="translate(787.09 1100.87) rotate(180)"/><rect class="cls-11" x="390.83" y="537.73" width="5.44" height="2.8" transform="translate(787.09 1078.25) rotate(180)"/><rect class="cls-11" x="390.83" y="526.42" width="5.44" height="2.8" transform="translate(787.09 1055.64) rotate(180)"/><rect class="cls-11" x="390.83" y="515.11" width="10.88" height="2.8" transform="translate(792.53 1033.02) rotate(180)"/><rect class="cls-11" x="390.83" y="503.8" width="5.44" height="2.8" transform="translate(787.09 1010.41) rotate(180)"/><rect class="cls-11" x="390.83" y="492.5" width="5.44" height="2.8" transform="translate(787.09 987.79) rotate(180)"/><rect class="cls-11" x="390.83" y="481.19" width="5.44" height="2.8" transform="translate(787.09 965.18) rotate(180)"/><rect class="cls-11" x="390.83" y="469.88" width="5.44" height="2.8" transform="translate(787.09 942.56) rotate(180)"/><rect class="cls-11" x="390.83" y="458.57" width="10.88" height="2.8" transform="translate(792.53 919.95) rotate(180)"/><rect class="cls-11" x="390.83" y="447.27" width="5.44" height="2.8" transform="translate(787.09 897.33) rotate(180)"/><rect class="cls-53" x="148.47" y="624.9" width="84.26" height="21.85" rx="1.49"/><path class="cls-49" d="M231.45,643.54h-81.7a3.43,3.43,0,0,1-1.28-.25v2.62a.85.85,0,0,0,.84.84h82.58a.85.85,0,0,0,.84-.84v-2.62A3.43,3.43,0,0,1,231.45,643.54Z"/><g class="cls-3"><rect class="cls-19" x="192.61" y="624.9" width="20.06" height="21.85"/></g><g class="cls-3"><rect class="cls-19" x="216.2" y="624.9" width="5.28" height="21.85" transform="translate(437.67 1271.65) rotate(180)"/></g><rect class="cls-54" x="148.29" y="646.35" width="84.26" height="21.85" rx="1.49"/><path class="cls-49" d="M231.26,665H149.57a3.44,3.44,0,0,1-1.28-.26v2.62a.84.84,0,0,0,.84.84h82.58a.84.84,0,0,0,.84-.84v-2.62A3.45,3.45,0,0,1,231.26,665Z"/><g class="cls-3"><rect class="cls-19" x="192.43" y="646.35" width="20.06" height="21.85"/></g><g class="cls-3"><rect class="cls-19" x="216.01" y="646.35" width="5.28" height="21.85" transform="translate(437.31 1314.56) rotate(180)"/></g><rect class="cls-55" x="144.27" y="667.81" width="84.26" height="21.85" rx="1.49"/><path class="cls-49" d="M227.25,686.45H145.56a3.27,3.27,0,0,1-1.29-.26v2.63a.85.85,0,0,0,.84.84h82.58a.85.85,0,0,0,.84-.84v-2.63A3.22,3.22,0,0,1,227.25,686.45Z"/><g class="cls-3"><rect class="cls-19" x="188.41" y="667.81" width="20.06" height="21.85"/></g><g class="cls-3"><rect class="cls-19" x="212" y="667.81" width="5.28" height="21.85" transform="translate(429.28 1357.46) rotate(180)"/></g><rect class="cls-56" x="235.05" y="624.68" width="84.26" height="21.85" rx="1.49"/><path class="cls-49" d="M318,643.32h-81.7a3.25,3.25,0,0,1-1.28-.26v2.63a.85.85,0,0,0,.84.84h82.58a.85.85,0,0,0,.84-.84v-2.63A3.25,3.25,0,0,1,318,643.32Z"/><g class="cls-3"><rect class="cls-19" x="279.19" y="624.68" width="20.06" height="21.85"/></g><g class="cls-3"><rect class="cls-19" x="302.78" y="624.68" width="5.28" height="21.85" transform="translate(610.84 1271.2) rotate(180)"/></g><rect class="cls-57" x="236.74" y="604.29" width="84.26" height="21.85" rx="1.49"/><path class="cls-49" d="M319.72,622.93H238a3.27,3.27,0,0,1-1.29-.26v2.63a.85.85,0,0,0,.84.84h82.58a.85.85,0,0,0,.84-.84v-2.63A3.22,3.22,0,0,1,319.72,622.93Z"/><g class="cls-3"><rect class="cls-19" x="280.88" y="604.29" width="20.06" height="21.85"/></g><g class="cls-3"><rect class="cls-19" x="304.47" y="604.29" width="5.28" height="21.85" transform="translate(614.22 1230.42) rotate(180)"/></g><rect class="cls-58" x="234.74" y="583.19" width="84.26" height="21.85" rx="1.49"/><path class="cls-49" d="M317.71,601.84H236a3.22,3.22,0,0,1-1.28-.26v2.62a.84.84,0,0,0,.84.84h82.58a.84.84,0,0,0,.84-.84v-2.62A3.27,3.27,0,0,1,317.71,601.84Z"/><g class="cls-3"><rect class="cls-19" x="278.88" y="583.19" width="20.06" height="21.85"/></g><g class="cls-3"><rect class="cls-19" x="302.46" y="583.19" width="5.28" height="21.85" transform="translate(610.21 1188.24) rotate(180)"/></g><rect class="cls-59" x="236.74" y="646.13" width="84.26" height="21.85" rx="1.49"/><path class="cls-49" d="M319.72,664.77H238a3.45,3.45,0,0,1-1.29-.25v2.62a.85.85,0,0,0,.84.84h82.58a.85.85,0,0,0,.84-.84v-2.62A3.39,3.39,0,0,1,319.72,664.77Z"/><g class="cls-3"><rect class="cls-19" x="280.88" y="646.13" width="20.06" height="21.85"/></g><g class="cls-3"><rect class="cls-19" x="304.47" y="646.13" width="5.28" height="21.85" transform="translate(614.22 1314.11) rotate(180)"/></g><rect class="cls-60" x="232.73" y="667.58" width="84.26" height="21.85" rx="1.49"/><path class="cls-49" d="M315.7,686.23H234a3.22,3.22,0,0,1-1.28-.26v2.62a.83.83,0,0,0,.84.84h82.57a.83.83,0,0,0,.84-.84V686A3.18,3.18,0,0,1,315.7,686.23Z"/><g class="cls-3"><rect class="cls-19" x="276.87" y="667.58" width="20.06" height="21.85"/></g><g class="cls-3"><rect class="cls-19" x="300.45" y="667.58" width="5.28" height="21.85" transform="translate(606.19 1357.02) rotate(180)"/></g></g></g></svg>
