<svg xmlns="http://www.w3.org/2000/svg" xmlns:xlink="http://www.w3.org/1999/xlink" viewBox="0 0 1932.6 619.83"><defs><style>.cls-1{fill:none;}.cls-2{isolation:isolate;}.cls-3{opacity:0.47;}.cls-4{fill:#e0e4f0;}.cls-5{opacity:0.5;}.cls-6{fill:#fff;}.cls-7{fill:url(#linear-gradient);}.cls-8{fill:#566cd3;}.cls-9{fill:#b9b8f1;}.cls-10{fill:#6e8adb;}.cls-11{fill:#4563cc;}.cls-12{fill:#d2dbff;}.cls-13{fill:#ffd7cf;}.cls-14{fill:#bcbec0;}.cls-15{fill:#33435a;}.cls-16{fill:#999;}.cls-17{fill:#5c6568;}.cls-18{fill:#ff65a7;}.cls-19{fill:#273140;}.cls-20{fill:#2e4661;}.cls-21{fill:#677b91;}.cls-22{fill:#3a3029;}.cls-23{fill:#6d8299;}.cls-24{fill:#d8458c;}.cls-25{fill:url(#linear-gradient-2);}.cls-26{fill:#121f55;}.cls-27{fill:#e5e9ff;}.cls-28{fill:#41446b;}.cls-29,.cls-46{opacity:0.1;}.cls-30{fill:#f6f6f6;}.cls-31{fill:url(#linear-gradient-3);}.cls-32{fill:#b4d8e7;}.cls-33{opacity:0.6;}.cls-33,.cls-36,.cls-40,.cls-41,.cls-44,.cls-50,.cls-51,.cls-72,.cls-77,.cls-80,.cls-82{mix-blend-mode:multiply;}.cls-34{fill:#c4c4e8;}.cls-35{fill:url(#linear-gradient-4);}.cls-37{fill:#e7e7e7;}.cls-38{fill:#e4edeb;}.cls-39{fill:#f9f9f9;}.cls-40{fill:url(#linear-gradient-5);}.cls-41{fill:url(#linear-gradient-6);}.cls-42{fill:#c9dad8;}.cls-43{clip-path:url(#clip-path);}.cls-44{fill:url(#linear-gradient-7);}.cls-45{fill:#4d5068;}.cls-46{fill:#ff4500;}.cls-46,.cls-76{mix-blend-mode:color-burn;}.cls-47{fill:#f4f8f7;}.cls-48{fill:#445972;}.cls-49{fill:#acbbb9;}.cls-50{fill:url(#linear-gradient-8);}.cls-51{fill:url(#linear-gradient-9);}.cls-52{fill:url(#linear-gradient-10);}.cls-53{fill:#5b424c;}.cls-54{fill:#806167;}.cls-55{fill:#9a8692;}.cls-56{mix-blend-mode:exclusion;fill:url(#linear-gradient-11);}.cls-57{fill:url(#linear-gradient-12);}.cls-58{fill:url(#linear-gradient-13);}.cls-59{fill:url(#linear-gradient-14);}.cls-60,.cls-61{mix-blend-mode:screen;}.cls-60{fill:url(#linear-gradient-15);}.cls-61{fill:url(#linear-gradient-16);}.cls-62{fill:url(#linear-gradient-17);}.cls-63{fill:url(#linear-gradient-18);}.cls-64{fill:#464f58;}.cls-65{fill:#304556;}.cls-66{fill:#375560;}.cls-67{fill:#0e2d38;}.cls-68{fill:#415b66;}.cls-69{fill:#113240;}.cls-70{fill:url(#linear-gradient-19);}.cls-71{fill:#f2cd91;}.cls-72{fill:url(#linear-gradient-20);}.cls-73{fill:#e5559a;}.cls-74{fill:#596273;}.cls-75{fill:#7e908d;}.cls-76{fill:#b8c4a6;}.cls-77{fill:url(#linear-gradient-21);}.cls-78{fill:#ffa47c;}.cls-79{mix-blend-mode:soft-light;fill:url(#linear-gradient-22);}.cls-80{fill:url(#linear-gradient-23);}.cls-81{fill:#ffbd95;}.cls-82{fill:#e5d3ea;}.cls-83{fill:#f99ab6;}.cls-84{fill:#f7b75d;}.cls-85{fill:#fffeff;}.cls-86{fill:url(#linear-gradient-24);}.cls-87{fill:#2143af;}.cls-88{fill:url(#linear-gradient-25);}</style><linearGradient id="linear-gradient" x1="491.95" y1="310.25" x2="622.99" y2="310.25" gradientUnits="userSpaceOnUse"><stop offset="0" stop-color="#fec55e"/><stop offset="1" stop-color="#ffa000"/></linearGradient><linearGradient id="linear-gradient-2" x1="1289.03" y1="120.48" x2="1410.35" y2="120.48" xlink:href="#linear-gradient"/><linearGradient id="linear-gradient-3" x1="1035.79" y1="157.19" x2="1098.5" y2="157.19" xlink:href="#linear-gradient"/><linearGradient id="linear-gradient-4" x1="61.42" y1="585.01" x2="146.07" y2="585.01" gradientTransform="translate(172.17 -5.17) rotate(16.67)" xlink:href="#linear-gradient"/><linearGradient id="linear-gradient-5" x1="1275.74" y1="566.46" x2="1478.01" y2="499.68" gradientUnits="userSpaceOnUse"><stop offset="0" stop-color="#fff"/><stop offset="0.27" stop-color="#fdfdfd"/><stop offset="0.43" stop-color="#f5f4f6"/><stop offset="0.55" stop-color="#e7e6e9"/><stop offset="0.66" stop-color="#d3d3d7"/><stop offset="0.76" stop-color="#bab9c0"/><stop offset="0.86" stop-color="#9b99a4"/><stop offset="0.94" stop-color="#777483"/><stop offset="1" stop-color="#595668"/></linearGradient><linearGradient id="linear-gradient-6" x1="1142.96" y1="479.67" x2="1298.49" y2="484.35" xlink:href="#linear-gradient-5"/><clipPath id="clip-path"><path class="cls-1" d="M1321.26,363.14c-3.94-6.31-17.52-17.26-32.33-17.25-14.14,0-29.49,9.89-33.45,20.31-4.22,11-2.42,29.21-2.42,29.21l3.87,4.22a60.84,60.84,0,0,0,15.68,33c-3.07,18.77-9.26,22.69-9.26,22.69S1260.89,519,1289.83,520c27.53,1,25.35-64.68,25.35-64.68s-5.58-2.44-6.85-24.75a62.84,62.84,0,0,0,14.51-33.21c0-.34,0-.69,0-1l2.59-3.72S1326.76,371.93,1321.26,363.14Z"/></clipPath><linearGradient id="linear-gradient-7" x1="1303.16" y1="376.22" x2="1294.47" y2="400.62" gradientUnits="userSpaceOnUse"><stop offset="0" stop-color="#eac2c7"/><stop offset="0.22" stop-color="#f2d9dc"/><stop offset="0.49" stop-color="#f9eeef"/><stop offset="0.75" stop-color="#fefbfb"/><stop offset="1" stop-color="#fff"/></linearGradient><linearGradient id="linear-gradient-8" x1="1318.63" y1="455.85" x2="1298.32" y2="484.22" gradientUnits="userSpaceOnUse"><stop offset="0" stop-color="#b5bfbf"/><stop offset="1" stop-color="#fff"/></linearGradient><linearGradient id="linear-gradient-9" x1="1273.6" y1="467.85" x2="1268.2" y2="475.4" xlink:href="#linear-gradient-8"/><linearGradient id="linear-gradient-10" x1="1289.04" y1="427.91" x2="1290.48" y2="424.05" gradientUnits="userSpaceOnUse"><stop offset="0" stop-color="#fff"/><stop offset="1" stop-color="#dbaeae"/></linearGradient><linearGradient id="linear-gradient-11" x1="1251.13" y1="397.08" x2="1257.22" y2="397.08" gradientUnits="userSpaceOnUse"><stop offset="0"/><stop offset="0.21" stop-color="#050405"/><stop offset="0.46" stop-color="#130f14"/><stop offset="0.74" stop-color="#2b202c"/><stop offset="1" stop-color="#47364a"/></linearGradient><linearGradient id="linear-gradient-12" x1="1326.71" y1="396.51" x2="1332.99" y2="396.51" xlink:href="#linear-gradient-11"/><linearGradient id="linear-gradient-13" x1="1335.54" y1="395.62" x2="1336.22" y2="395.62" gradientUnits="userSpaceOnUse"><stop offset="0" stop-color="#9a8692"/><stop offset="0.19" stop-color="#9d8a95"/><stop offset="0.37" stop-color="#a795a0"/><stop offset="0.55" stop-color="#b7a8b1"/><stop offset="0.72" stop-color="#cdc3c9"/><stop offset="0.89" stop-color="#eae6e8"/><stop offset="1" stop-color="#fff"/></linearGradient><linearGradient id="linear-gradient-14" x1="1242.72" y1="397.08" x2="1243.59" y2="397.08" gradientUnits="userSpaceOnUse"><stop offset="0" stop-color="#e0c4c7"/><stop offset="0.1" stop-color="#c5a8ac"/><stop offset="0.22" stop-color="#ac8e93"/><stop offset="0.35" stop-color="#987a7f"/><stop offset="0.5" stop-color="#8a6c71"/><stop offset="0.69" stop-color="#826369"/><stop offset="1" stop-color="#806167"/></linearGradient><linearGradient id="linear-gradient-15" x1="1306.75" y1="474.82" x2="1303.69" y2="486.89" gradientUnits="userSpaceOnUse"><stop offset="0" stop-color="#241f1a"/><stop offset="1" stop-color="#fff"/></linearGradient><linearGradient id="linear-gradient-16" x1="1266.78" y1="472.55" x2="1265.2" y2="478.78" xlink:href="#linear-gradient-15"/><linearGradient id="linear-gradient-17" x1="699.91" y1="207.23" x2="743.21" y2="207.23" xlink:href="#linear-gradient"/><linearGradient id="linear-gradient-18" x1="728.33" y1="235.79" x2="753.3" y2="235.79" xlink:href="#linear-gradient"/><linearGradient id="linear-gradient-19" x1="709.39" y1="242.48" x2="730.6" y2="242.48" xlink:href="#linear-gradient"/><linearGradient id="linear-gradient-20" x1="1541.56" y1="174.96" x2="1589.69" y2="120.23" gradientUnits="userSpaceOnUse"><stop offset="0" stop-color="#fff"/><stop offset="0.28" stop-color="#fdfdfd"/><stop offset="0.44" stop-color="#f4f6f5"/><stop offset="0.57" stop-color="#e6eae8"/><stop offset="0.68" stop-color="#d3dad6"/><stop offset="0.78" stop-color="#b9c4bf"/><stop offset="0.88" stop-color="#99aaa2"/><stop offset="0.97" stop-color="#748b80"/><stop offset="1" stop-color="#657e72"/></linearGradient><linearGradient id="linear-gradient-21" x1="348.99" y1="187.54" x2="458.2" y2="132.98" xlink:href="#linear-gradient-5"/><linearGradient id="linear-gradient-22" x1="407.03" y1="125.72" x2="468.62" y2="125.72" gradientUnits="userSpaceOnUse"><stop offset="0" stop-color="#c2bdc7"/><stop offset="0.25" stop-color="#dcdadf"/><stop offset="0.51" stop-color="#f0eef1"/><stop offset="0.76" stop-color="#fbfbfb"/><stop offset="1" stop-color="#fff"/></linearGradient><linearGradient id="linear-gradient-23" x1="422.9" y1="157.21" x2="431.55" y2="144.78" gradientUnits="userSpaceOnUse"><stop offset="0.33" stop-color="#fff"/><stop offset="0.46" stop-color="#fdfbfb"/><stop offset="0.59" stop-color="#f6eeee"/><stop offset="0.73" stop-color="#ebd9da"/><stop offset="0.87" stop-color="#dbbcbd"/><stop offset="1" stop-color="#c99a9c"/></linearGradient><linearGradient id="linear-gradient-24" x1="830.88" y1="349.28" x2="867.62" y2="349.28" xlink:href="#linear-gradient"/><linearGradient id="linear-gradient-25" x1="850.12" y1="351.38" x2="881.76" y2="351.38" xlink:href="#linear-gradient"/></defs><title>BlueSky FAQ</title><g class="cls-2"><g id="Layer_2" data-name="Layer 2"><g id="Layer_1-2" data-name="Layer 1"><g class="cls-3"><path class="cls-4" d="M1081.6,617.83a520.74,520.74,0,0,0-45-212.35A164.79,164.79,0,0,0,839.28,176.7,520.1,520.1,0,0,0,559,95.25q-19.28,0-38.19,1.38a134.6,134.6,0,0,0-206.69,59.49,523.66,523.66,0,0,0-109,77.23,149.17,149.17,0,0,0-148.46,240A522.73,522.73,0,0,0,36.46,617.83Z"/></g><g class="cls-3"><path class="cls-4" d="M1932.6,617.83a520.74,520.74,0,0,0-45-212.35A164.79,164.79,0,0,0,1690.28,176.7,520.1,520.1,0,0,0,1410,95.25q-19.27,0-38.19,1.38a134.6,134.6,0,0,0-206.69,59.49,523.66,523.66,0,0,0-109,77.23,149.17,149.17,0,0,0-148.46,240,522.73,522.73,0,0,0-20.23,144.44Z"/></g><g class="cls-3"><path class="cls-4" d="M481,619.83C481,487,373.28,379.35,240.47,379.35S0,487,0,619.83Z"/></g><g class="cls-3"><path class="cls-4" d="M963,619.83C963,487,855.3,379.35,722.49,379.35S482,487,482,619.83Z"/></g><g class="cls-3"><path class="cls-4" d="M1441.78,619.83c0-132.81-107.66-240.48-240.47-240.48S960.83,487,960.83,619.83Z"/></g><g class="cls-3"><path class="cls-4" d="M1920.6,619.83c0-132.81-107.66-240.48-240.47-240.48S1439.66,487,1439.66,619.83Z"/></g><g class="cls-5"><circle class="cls-4" cx="731.36" cy="81.75" r="15.82" transform="translate(484.49 775.02) rotate(-76.78)"/></g><g class="cls-5"><circle class="cls-4" cx="1371.36" cy="30.75" r="15.82" transform="translate(1027.75 1358.72) rotate(-76.78)"/></g><g class="cls-5"><path class="cls-4" d="M464.83,20.48A20.49,20.49,0,1,1,444.35,0,20.48,20.48,0,0,1,464.83,20.48Z"/></g><g class="cls-5"><path class="cls-4" d="M1523.83,35.48A20.49,20.49,0,1,1,1503.35,15,20.48,20.48,0,0,1,1523.83,35.48Z"/></g><g class="cls-5"><path class="cls-4" d="M1158.83,105.48A20.49,20.49,0,1,1,1138.35,85,20.48,20.48,0,0,1,1158.83,105.48Z"/></g><g class="cls-5"><path class="cls-4" d="M227.17,154.62a10.44,10.44,0,1,1-10.44-10.43A10.44,10.44,0,0,1,227.17,154.62Z"/></g><g class="cls-5"><circle class="cls-4" cx="321.36" cy="77.92" r="10.44"/></g><g class="cls-5"><circle class="cls-4" cx="1762.36" cy="105.92" r="10.44"/></g><g class="cls-5"><path class="cls-4" d="M827.49,103.51a9.32,9.32,0,1,1-9.32-9.31A9.32,9.32,0,0,1,827.49,103.51Z"/></g><g class="cls-5"><path class="cls-4" d="M528.83,28.89a3.22,3.22,0,1,1-3.22-3.22A3.22,3.22,0,0,1,528.83,28.89Z"/></g><g class="cls-5"><circle class="cls-4" cx="257.92" cy="112.92" r="4.19"/></g><g class="cls-5"><path class="cls-4" d="M112.12,204.08a5.57,5.57,0,1,1-5.57-5.57A5.56,5.56,0,0,1,112.12,204.08Z"/></g><g class="cls-5"><path class="cls-4" d="M570.49,42.9a5.57,5.57,0,1,1-5.56-5.57A5.56,5.56,0,0,1,570.49,42.9Z"/></g><g class="cls-5"><path class="cls-4" d="M1233.49,33.9a5.57,5.57,0,1,1-5.56-5.57A5.56,5.56,0,0,1,1233.49,33.9Z"/></g><g class="cls-5"><circle class="cls-4" cx="162.03" cy="186.62" r="23.62" transform="translate(-48.14 316.66) rotate(-80.78)"/></g><g class="cls-5"><circle class="cls-4" cx="1035.03" cy="160.62" r="23.62" transform="translate(710.68 1156.55) rotate(-80.78)"/></g><g class="cls-5"><path class="cls-4" d="M37,462.26a5.57,5.57,0,1,1-5.57-5.57A5.58,5.58,0,0,1,37,462.26Z"/></g><g class="cls-5"><circle class="cls-4" cx="645.25" cy="66.51" r="22.89"/></g><g class="cls-5"><circle class="cls-4" cx="1639.25" cy="67.51" r="22.89"/></g><g class="cls-5"><circle class="cls-4" cx="910.25" cy="123.51" r="22.89"/></g><g class="cls-5"><circle class="cls-4" cx="29.04" cy="264.13" r="18.12" transform="translate(-98.87 31.22) rotate(-22.5)"/></g><g class="cls-5"><path class="cls-4" d="M1870.17,169.62a10.44,10.44,0,1,1-10.44-10.43A10.44,10.44,0,0,1,1870.17,169.62Z"/></g><path class="cls-6" d="M560.55,438.18a59.46,59.46,0,1,1-59.46-59.45A59.46,59.46,0,0,1,560.55,438.18Z"/><circle class="cls-6" cx="568.82" cy="438.18" r="61.42"/><circle class="cls-6" cx="632.32" cy="438.18" r="45.54"/><circle class="cls-6" cx="668.6" cy="406.43" r="20.98"/><path class="cls-6" d="M432.64,412.09a22.36,22.36,0,1,0,17-26.62A22.35,22.35,0,0,0,432.64,412.09Z"/><path class="cls-6" d="M627,444.45a33.22,33.22,0,1,1-33.22-33.22A33.22,33.22,0,0,1,627,444.45Z"/><circle class="cls-6" cx="512.13" cy="442.99" r="43.1"/><path class="cls-6" d="M631.71,376.51h-2.94a13.73,13.73,0,0,1-13.72-13.73h0a13.73,13.73,0,0,1,13.72-13.73h2.94a13.73,13.73,0,0,1,13.73,13.73h0A13.73,13.73,0,0,1,631.71,376.51Z"/><path class="cls-7" d="M609.89,330.16c7.07-10.88,13.09-22,13.1-34.22a65.52,65.52,0,0,0-131-.07c0,12.24,5.67,23.65,11.5,33.45h-.25C530.06,371,525,390.07,525,390.07l32.42,0h32.43S587.84,364.11,609.89,330.16Z"/><polygon class="cls-8" points="525.02 384.01 525.01 403.51 536.94 425 578.28 425.03 590.24 403.54 590.25 384.05 525.02 384.01"/><path class="cls-9" d="M543.48,300a8.33,8.33,0,0,0,7.31-4.83,8,8,0,0,0,6.64,3.78h46.09c4.37,0,7.93-4.06,7.93-9s-3.56-9-7.93-9h-.33a15,15,0,0,0-2.92-13.75,12.22,12.22,0,0,0-1.87-1.74,9.64,9.64,0,0,0-3.21-1.69,10.54,10.54,0,0,0-2.94-.55,19.22,19.22,0,0,0-3.72-6.56,15.38,15.38,0,0,0-10.31-5.37,14.66,14.66,0,0,0-9.81,2.78,16,16,0,0,0-2.41-2,9.81,9.81,0,0,0-3.85-1.84,14.47,14.47,0,0,0-4.31-.65,15.29,15.29,0,0,0-11.71,5.69,9.51,9.51,0,0,0-4.17-1.35,14.73,14.73,0,0,0-2.39-.2c-6.8,0-12.77,4.73-15.17,11.9-6.15.19-11.15,5.74-11.55,12.69a2,2,0,0,0-.05.26,10.2,10.2,0,0,0-.09,1.35c0,.34,0,.67,0,1h-1.21c-4.37,0-7.93,4-7.93,9s3.56,9,7.93,9h28.09A7.61,7.61,0,0,0,543.48,300Z"/><path class="cls-6" d="M560.53,258.77a1.54,1.54,0,0,0-1.39,1.64v.18c0,6.57-4.61,12-10.38,12.11,0-.15-.09-.3-.14-.44a14.56,14.56,0,0,0-7.16-8.44,1.35,1.35,0,0,0-1.86.84,1.76,1.76,0,0,0-.11.64,1.63,1.63,0,0,0,.85,1.48,11.44,11.44,0,0,1,5.65,6.66,13.55,13.55,0,0,1-.13,9.27,1.7,1.7,0,0,0,.74,2.12,1.34,1.34,0,0,0,1.85-.84,17.1,17.1,0,0,0,1-8.1c7-.55,12.52-7.22,12.52-15.3v-.23A1.53,1.53,0,0,0,560.53,258.77Z"/><path class="cls-6" d="M603.52,280.91h-.33a15,15,0,0,0-2.92-13.75,12.22,12.22,0,0,0-1.87-1.74,9.64,9.64,0,0,0-3.21-1.69,10.54,10.54,0,0,0-2.94-.55,19.22,19.22,0,0,0-3.72-6.56,15.38,15.38,0,0,0-10.31-5.37,14.66,14.66,0,0,0-9.81,2.78,16,16,0,0,0-2.41-2,9.81,9.81,0,0,0-3.85-1.84,14.47,14.47,0,0,0-4.31-.65,15.29,15.29,0,0,0-11.71,5.69,9.51,9.51,0,0,0-4.17-1.35,14.73,14.73,0,0,0-2.39-.2c-6.8,0-12.77,4.73-15.17,11.9-6.15.19-11.15,5.74-11.55,12.69a2,2,0,0,0-.05.26,10.2,10.2,0,0,0-.09,1.35c0,.34,0,.67,0,1h-1.21c-4.37,0-7.93,4-7.93,9s3.56,9,7.93,9h28.09a7.61,7.61,0,0,0,3.84,1.06,8.33,8.33,0,0,0,7.31-4.83,8,8,0,0,0,6.64,3.78h46.09c4.37,0,7.93-4.06,7.93-9S607.89,280.91,603.52,280.91Zm0,14.85H557.43c-3,0-5.5-2.81-5.5-6.27s2.47-6.26,5.5-6.26h4.43a9.08,9.08,0,0,0,6.4,7.51,1.41,1.41,0,0,0,1.68-1.22,1.62,1.62,0,0,0-1.07-1.92c-3-.76-4.87-4.14-4.21-7.53a1.63,1.63,0,0,0,0-.54c.76-4.49,4.23-7.9,8.39-7.9,4.43,0,8.08,3.87,8.5,8.8l-.46,0c-4.24,0-7.68,3.93-7.68,8.76a1.42,1.42,0,1,0,2.82,0c0-3.05,2.18-5.54,4.86-5.54s4.85,2.49,4.85,5.54a1.43,1.43,0,1,0,2.83,0,9,9,0,0,0-4.36-7.9c0-7.1-5.12-12.86-11.36-12.86-5.86,0-10.7,5.09-11.3,11.6h-4.34c-4.59,0-8.32,4.25-8.32,9.48,0,.19,0,.39,0,.57a2.09,2.09,0,0,0,0,.35c0,3.52-2.51,6.4-5.61,6.4s-5.61-2.88-5.61-6.4a1.42,1.42,0,1,0-2.82,0,10.57,10.57,0,0,0,1.42,5.35h-3.23c-3,0-5.49-2.81-5.49-6.27a6.9,6.9,0,0,1,.72-3.1,1.67,1.67,0,0,0,.25-.43v0a5.32,5.32,0,0,1,4.51-2.7h6a1.62,1.62,0,0,0,0-3.22h-6a7.46,7.46,0,0,0-3.9,1.11,10.14,10.14,0,0,0-.52-2.37,8.9,8.9,0,0,0-4.4-5.18,1.34,1.34,0,0,0-1.85.84,1.72,1.72,0,0,0-.12.63,1.63,1.63,0,0,0,.85,1.48,5.87,5.87,0,0,1,2.89,3.41,6.9,6.9,0,0,1,0,4.51,10.43,10.43,0,0,0-1.28,5.05,10.29,10.29,0,0,0,2.08,6.27H511.55c-2.81,0-5.1-2.61-5.1-5.82s2.29-5.81,5.1-5.81h2a8.46,8.46,0,0,0,6.2,5.1,1.46,1.46,0,0,0,1.6-1.37,1.59,1.59,0,0,0-1.2-1.82,5.58,5.58,0,0,1-4.13-3.49,2,2,0,0,0,0-.48,11.66,11.66,0,0,1-.36-2.88c0-5.08,3.22-9.32,7.45-10.2a1.19,1.19,0,0,0,.77,0,8.45,8.45,0,0,1,.84-.19h0l.57,0a1.24,1.24,0,0,0,.6-.11c3.34.06,6.38,2.64,7.26,6.5a1.41,1.41,0,0,0,1.73,1.15,1.64,1.64,0,0,0,1-2c-1.08-4.71-4.5-8-8.46-8.76,2.19-5.3,6.85-8.73,12.12-8.73.34,0,.68,0,1,.05a1.41,1.41,0,0,0,.58.13h.51a11.74,11.74,0,0,1,3.46,1.19,9,9,0,0,1,3.77,7.36,1.42,1.42,0,1,0,2.82-.05,12.73,12.73,0,0,0-3.26-8.46,12.58,12.58,0,0,1,9.38-4.37,12,12,0,0,1,2.68.3,1.16,1.16,0,0,0,.51.18l.4.07a12.42,12.42,0,0,1,3.1,1.48,9.25,9.25,0,0,1,3.16,8.12,1.57,1.57,0,0,0,1.23,1.79,1.46,1.46,0,0,0,1.57-1.4,13.19,13.19,0,0,0-.87-6.36,12.29,12.29,0,0,1,16.92,1.93,15.53,15.53,0,0,1,2.89,4.94,10.41,10.41,0,0,0-4.85,3.6,1.76,1.76,0,0,0-.34,1.06,1.69,1.69,0,0,0,.49,1.22,1.3,1.3,0,0,0,2-.17,7,7,0,0,1,8-2.62,8.31,8.31,0,0,1,2,1.09,7.48,7.48,0,0,1,.74.65,1.57,1.57,0,0,0,.26.19c.18.18.37.37.54.57a11.53,11.53,0,0,1,1.91,11.48h-4.41a1.62,1.62,0,0,0,0,3.22h7.75c2.81,0,5.1,2.6,5.1,5.81S606.33,295.76,603.52,295.76Z"/><rect class="cls-10" x="440.12" y="440.17" width="177.94" height="168.66"/><rect class="cls-11" x="618.06" y="440.17" width="64.18" height="168.66"/><polygon class="cls-12" points="587.81 509.24 404.61 509.24 439.99 440.17 617.64 440.17 587.81 509.24"/><polygon class="cls-10" points="709.73 502.81 645.07 502.81 618.27 440.17 682.93 440.17 709.73 502.81"/><polygon class="cls-13" points="967.97 282.77 960.97 269.97 967.86 256.77 975.04 260.58 974.17 271.42 977.96 275.12 976.49 284.42 967.97 282.77"/><polygon class="cls-14" points="1075.62 403.74 1076.57 486.09 1067.79 592.11 1055.86 592.11 1041.58 494.3 1025.25 396.32 1075.62 403.74"/><polygon class="cls-15" points="1055.93 597.14 1068.83 603.59 1075.28 597.14 1068.83 590.69 1055.93 590.69 1055.93 597.14"/><polygon class="cls-14" points="993.8 403.74 993.56 451.38 1001.61 592.11 1013.55 592.11 1033.51 498.72 1044.16 396.32 993.8 403.74"/><polygon class="cls-15" points="1013.48 597.14 1000.57 603.59 994.12 597.14 1000.57 590.69 1013.48 590.69 1013.48 597.14"/><path class="cls-15" d="M981.39,432.43c-.26,7.56-.09,17.67,3.09,18a3.06,3.06,0,0,0,1.69-.44c5.54-2.69,9.48-6.49,14.94-9.09,5.72-2.72,12.22-4.15,18.57-5.13a194.18,194.18,0,0,1,28.63-2.51c8.2-.07,16.72,3.67,24.46,5.72,3,.79,5.41,3,7.89,4.67,3.66,2.52,5.26,3.52,4.76-1.63-.81-8.39-1.66-16.78-2.69-25.15-2.06-16.69-4.86-33.34-9.61-49.5-1.81-6.17-3.9-12.25-6-18.34l-7.63-22.23c-3.16-9.2-8.5-15.69-17.84-18.91-8.08-2.79-18.11-3.55-26,.35-8.73,4.33-12.88,19.09-17.12,27-3.72,6.91-8.41,25.76-9.8,33.21-1.67,9-3.22,17.89-4.44,26.8a272.67,272.67,0,0,0-2.57,29.46C981.73,425.8,981.51,428.82,981.39,432.43Z"/><path class="cls-6" d="M1024.52,309.58l16.13.15s17.3,60.48,17.94,70.9c.62,10.23,5,51.72,5,51.72s-17.86.42-38.44,2.93c-20.12,4.3-21.81,1.76-21.81,1.76s10.86-43.61,11.22-56.13c.37-12.82,2-55.14,2-55.14Z"/><path class="cls-13" d="M1028.58,309.42a1.81,1.81,0,0,0,.66.38,3.46,3.46,0,0,0,1.57,0l6.4-.75c-.7-6.54,3.12-8,6.84-12.22s2.61-10,2.4-15.21a11.32,11.32,0,0,0-.75-4.26c-1.08-2.32-3.58-3.59-6-4.35-6.21-1.93-13.32-1.45-18.79,2.07a9.8,9.8,0,0,0-3.6,3.66c-1.22,2.37-.91,5.21-.57,7.86a26.44,26.44,0,0,0,4,11.5c2.14,3.19,6.23,4.72,6.7,8.56A4.34,4.34,0,0,0,1028.58,309.42Z"/><path class="cls-15" d="M1016.9,281.91c.36,1.64,1.13,3.3.73,4.93-2.61-.88-4.31-3.55-5.24-6.26a9.66,9.66,0,0,1-.62-3.83,4.54,4.54,0,0,1,1.7-3.34c1.43-1,4-.63,4.41,1.23S1016.35,279.44,1016.9,281.91Z"/><path class="cls-15" d="M1003.05,267.49a5.9,5.9,0,0,1,2.57-4.92c1.52-1,3.27-1.87,4.19-3.5.71-1.26.82-2.82,1.52-4.09,1.29-2.29,4.07-3,6.49-3.74,6-2,9.31-4.19,15.73-1.7,4.56,1.77,10.45,2,14.68,4.59a14.78,14.78,0,0,1,4.51,4.74c4.27,6.68,5.3,16.08,2.52,23.05a28.63,28.63,0,0,1-2.27,4.37c-1.69,2.75-3.5,6.13-6.5,7.48-.19-1.3-1.15-2-1.45-3.28a9.86,9.86,0,0,1-.1-2.82c.18-3.67,1.31-9.47-2.35-11.28-4.63-2.3-13.32-.23-17.78,1.72-3.94,1.72-10.6,4-14.81,2.12C1006.1,278.51,1002.92,271.69,1003.05,267.49Z"/><polygon class="cls-15" points="1015.69 308.28 987.23 332.19 980.59 283.31 965.5 280.39 962.86 346.81 979 361.98 1008.37 347.48 1015.69 308.28"/><path class="cls-16" d="M1038.85,299.42a12,12,0,0,0,11.94-11.94h2.37a14.31,14.31,0,0,1-14.31,14.31Z"/><rect class="cls-17" x="1030.35" y="298.46" width="8.92" height="4.79" rx="2.22" transform="translate(2069.61 601.71) rotate(180)"/><path class="cls-16" d="M1050.64,278.71v-9.82a19.22,19.22,0,0,0-38.43,0v9.82H1008v-9.89a23.44,23.44,0,1,1,46.87,0v9.89Z"/><path class="cls-16" d="M1002.38,277a4.22,4.22,0,0,0-.72,2.76v3.59a4.24,4.24,0,0,0,.72,2.76l1.19,1.39V275.59Z"/><rect class="cls-17" x="1003.57" y="272.72" width="10.49" height="17.63" rx="4.11"/><path class="cls-16" d="M1060.81,277a4.22,4.22,0,0,1,.72,2.76v3.59a4.24,4.24,0,0,1-.72,2.76l-1.19,1.39V275.59Z"/><rect class="cls-17" x="1049.14" y="272.72" width="10.49" height="17.63" rx="4.11" transform="translate(2108.76 563.07) rotate(180)"/><polygon class="cls-13" points="1083.18 240.28 1079.81 226.66 1068.22 221.76 1066.02 229.6 1072.24 237.43 1073.1 244.37 1083.18 240.28"/><polygon class="cls-15" points="1044.16 309.24 1080.43 294.65 1069.06 237.5 1082.14 235.94 1104.06 295.59 1099.55 313.66 1058.51 341.31 1044.16 309.24"/><path class="cls-18" d="M1166.7,73.06l-196.56.84a18.57,18.57,0,0,0-18.43,18.6l.42,97.56a18.57,18.57,0,0,0,18.59,18.43l136.19-.59,32.36,43.67,5.66-43.83,22.35-.1a18.56,18.56,0,0,0,18.43-18.59l-.42-97.56A18.56,18.56,0,0,0,1166.7,73.06Z"/><path class="cls-19" d="M263.43,589.52l-10.3,6.61-3.57,5.24a38.38,38.38,0,0,0,5.72,2.35c2,.51,18.37-1.23,18.37-1.23l.45-9.56Z"/><path class="cls-19" d="M314.89,596.73l-5.09,5.71s-4.14,7.73-2.06,7.62,13.35.48,14.11-.81,6.75-5.8,7.54-6.68,0-8.14,0-8.14Z"/><path class="cls-20" d="M285.79,444.92l12.79,77.76,16.31,74.05,14.53-.83-2.8-78.16s10.48-71.84,10.51-93.09Z"/><polygon class="cls-20" points="253.7 448.76 259.55 592.26 274.51 592.95 282.46 520.04 294.05 455.69 263.13 415.88 253.7 448.76"/><polygon class="cls-1" points="329.58 325.13 329.58 325.13 329.58 325.13 329.58 325.13"/><path class="cls-21" d="M261.54,373.2c7.85-38.16-2.11-56.56,15-67.17,0,0,28-7.68,45.78,5.1l.74.54,6.47,13.46,4.91,60.37s13.74,79.25,6.45,79.89c-8.26.72-46.2-17-53.41-16.54s-29.24,4.37-50-2.71C219.65,440.07,253.7,411.37,261.54,373.2Z"/><polygon class="cls-6" points="296.32 304.86 301.76 305.06 302.31 310.53 282.33 366.42 277.85 342.2 282.74 307.03 296.32 304.86"/><path class="cls-20" d="M278.67,346.63c0-2.21.15-4.18.33-5.79,1.25-11.09,9.17-25.57,9.17-25.57a57.22,57.22,0,0,0,.65-5.91l6.58-1.07-.42,6.87-2.84,3s-6.9,26.4-7,37c0,1.11,0,2.26,0,3.41l-2.82,7.89Z"/><polygon class="cls-6" points="279.89 387.89 287.6 448.74 271.36 451.03 260.13 450.16 274.33 397.37 279.89 387.89"/><path class="cls-13" d="M289,307.28l11.18.46a56.37,56.37,0,0,0,.65-8.9c3.21-.64,7-1.76,8-4.89a9,9,0,0,0,.24-3.07c-.13-4.27,1.07-8.6-.39-12.81-.49-1.4-.11-3-.72-4.34-1.07-2.36-3.6-3.69-6.07-4.48-6.3-2-13.53-1.63-19.13,1.9a10,10,0,0,0-3.7,3.68c-1.26,2.4-1,5.29-.66,8l.87,7.47c.34,2.86.95,6.14,3.46,7.55,1.33.75,3,.83,4.19,1.82C288.89,301.4,288.11,304.71,289,307.28Z"/><path class="cls-22" d="M272.92,251.81a11,11,0,0,0,2.58-.48c2.79-1,4.87-3.14,7.82-4A26.24,26.24,0,0,1,302,249.41c5.24,2.74,12.58,4.25,17.18,7.73a14.93,14.93,0,0,1,4.34,5.69,22.4,22.4,0,0,1-3.24,23.48,32.39,32.39,0,0,1-4.07,3.87c-3,2.46-6.6,5.5-10.33,6,.36-3.21,4.7-12.9,2.61-15.87-2.77-3.94-8.83-4.36-13.2-4.32-5.2.05-9.32-2-14.49-2.15-2.64-.09-5.65.18-7.52-1.68-2.16-2.15-6.55-8.77-7.49-11.59a6.9,6.9,0,0,1,2.05-7.09C269.5,252,271.17,252,272.92,251.81Z"/><path class="cls-23" d="M237.86,335.86l33.88-30.69,8.14,6.87-28,46.83-12.65,1.21s-3.65-13-4.4-14.42Z"/><path class="cls-18" d="M397.87,563.47a24.12,24.12,0,1,1,14.48,46,25.12,25.12,0,0,1-7.5,1.19,24.15,24.15,0,0,1-7-47.21Z"/><path class="cls-24" d="M383.66,575.3a23.41,23.41,0,0,1,14.21-11.83,25.27,25.27,0,0,1,6.11-1.15,24.24,24.24,0,0,0,.89,42.39,23.46,23.46,0,0,0,10.92,2.75c.46,0,.92,0,1.39,0a26.51,26.51,0,0,1-4.83,2.07,25.12,25.12,0,0,1-7.5,1.19,24.28,24.28,0,0,1-21.19-35.38Z"/><path class="cls-18" d="M263.66,406.15c10-17.4,26.71-29.9,49.78-37.16s44.06-6.64,62.4,1.84c16,7.37,27.65,19.88,34.75,37.16a11.29,11.29,0,0,1-7,15.06l-13.73,4.32a11.29,11.29,0,0,1-13.71-6.21c-4.13-9.34-10-15.68-17.91-19.37-9.59-4.48-21.16-4.63-34.39-.47s-22.46,11-27.55,20.45-5.57,20.71-1.5,33.64c5.61,17.82,14.49,28.22,26.41,30.91,12.54,2.83,30.16.6,52.4-6.64l5.94-1.87a11.28,11.28,0,0,1,14.14,7.37l16.29,51.76a11.27,11.27,0,0,1-7.37,14.15l-13.93,4.38a11.29,11.29,0,0,1-14.15-7.37l-10.55-33.52a.81.81,0,0,0-1-.54c-26.18,7.47-47.93,8-64.66,1.52-17.8-6.88-30.68-22.62-38.28-46.78S253.66,423.64,263.66,406.15Z"/><path class="cls-24" d="M263.66,406.15c10-17.4,26.71-29.9,49.78-37.16,14.28-4.49,27.76-6,40.32-4.42A108.89,108.89,0,0,0,333.39,369c-23.07,7.26-39.81,19.76-49.78,37.16s-11.23,38.56-3.66,62.63,20.48,39.9,38.28,46.78a67.12,67.12,0,0,0,16.82,4c-14.09,1.35-26.4,0-36.77-4-17.8-6.88-30.68-22.62-38.28-46.78S253.66,423.64,263.66,406.15Z"/><polygon class="cls-23" points="316.43 307.74 332.49 312.69 370.89 378.15 368.27 390.81 318.52 415.68 311.54 402.15 342.96 378.15 323.76 351.96 316.34 310.07 316.43 307.74"/><polygon class="cls-13" points="272.4 305.73 280.55 296.97 288.41 299.16 290.59 307.01 283.61 308.32 277.05 309.64 272.4 305.73"/><polygon class="cls-13" points="312.23 403.49 304.39 405.1 305.64 409.72 298.86 417.67 308.16 421.05 317.28 413.28 312.23 403.49"/><path class="cls-12" d="M244.33,217A24.27,24.27,0,0,0,214,193.46a29.41,29.41,0,0,0-54.57-9.78,16.71,16.71,0,0,0-28.85,11.42c0,.18,0,.36,0,.54a25,25,0,0,0-5.08-.56,24.25,24.25,0,0,0-7.15,47.45,30,30,0,0,0-.68,6.19,29.41,29.41,0,0,0,52.17,18.74,24.25,24.25,0,0,0,43.85-5.33,16.71,16.71,0,0,0,20.65-25.58A24.21,24.21,0,0,0,244.33,217Zm-36.42,20.87,0,0-.1-.11Z"/><path class="cls-12" d="M217.2,285.77a10.24,10.24,0,0,0,14.92,10.67,8,8,0,0,0,15.66-.94,8.11,8.11,0,0,0,.07-1.9A7.36,7.36,0,0,0,249.74,279a7.27,7.27,0,0,0-2.42,0,10.25,10.25,0,0,0-19.57-1.87A10.24,10.24,0,0,0,217.2,285.77Z"/><path class="cls-25" d="M1349.69,181.14a60.66,60.66,0,1,1,60.66-60.66A60.73,60.73,0,0,1,1349.69,181.14Zm0-114.31a53.66,53.66,0,1,0,53.66,53.65A53.72,53.72,0,0,0,1349.69,66.83Z"/><path class="cls-6" d="M1349.69,66.83a53.66,53.66,0,1,0,53.66,53.65A53.72,53.72,0,0,0,1349.69,66.83Z"/><rect class="cls-26" x="1347.49" y="72.86" width="4.64" height="18.17"/><rect class="cls-26" x="1315.67" y="84.52" width="4.67" height="8.17" transform="translate(323.25 957.77) rotate(-44.99)"/><rect class="cls-26" x="1301.06" y="116.78" width="23.72" height="4.64"/><rect class="cls-10" x="1313.92" y="149.8" width="8.17" height="4.67" transform="translate(278.93 977.12) rotate(-45.03)"/><rect class="cls-10" x="1347.49" y="149.46" width="4.64" height="20.91"/><rect class="cls-10" x="1379.2" y="148.05" width="4.67" height="8.17" transform="translate(296.57 1020.83) rotate(-44.97)"/><rect class="cls-26" x="1376.99" y="116.78" width="21.56" height="4.64"/><rect class="cls-26" x="1377.45" y="86.27" width="8.17" height="4.67" transform="translate(342.13 1003) rotate(-45.01)"/><polygon class="cls-27" points="1347.08 119.54 1379.94 82.06 1349.74 121.72 1347.08 119.54"/><path class="cls-10" d="M1352.84,114.26c3,2.54,3.53,6.58.73,9.37l-.25.25c-2.8,2.8-6.83,2.31-9.37-.72-5.67-6.76-15.65-21.11-20.22-27.38a1.24,1.24,0,0,1,1.73-1.74C1332.75,99.45,1346.09,108.59,1352.84,114.26Z"/><path class="cls-6" d="M1352.72,119.36a3.92,3.92,0,1,1-3.91-3.92A3.91,3.91,0,0,1,1352.72,119.36Z"/><circle class="cls-27" cx="1348.78" cy="119.32" r="1.89"/><path class="cls-15" d="M1732.64,606.64l8.29-7.66a16.53,16.53,0,0,1,7-2,3.83,3.83,0,0,1,3.86,5.33,4.85,4.85,0,0,1-.72,1.17h0c-.25.31-.52.6-.79.89s-.36.39-.56.59c-1.72,1.86-4.59,4.89-5.73,5.58-1.68,1-5.36,3.68-9.71.67l0,0A4.19,4.19,0,0,1,1732.64,606.64Z"/><path class="cls-13" d="M1739.15,539.93l.67,9.61,3.28,46.8-3.28,5.45s-.67,4.35,4.35,4c1.5-.1,6.79-6.83,6.79-6.83l-.77-3.09,3.73-35.13,0-10.21,1.79-11.33Z"/><path class="cls-15" d="M1791.72,594.76a4.3,4.3,0,0,1,4.14.5,4.38,4.38,0,0,1,1.63,3.67,7.92,7.92,0,0,1-.86,2.62c-2,4.34-7.62,14.16-14.06,12.36a4.84,4.84,0,0,1-3.19-6C1780.21,604.27,1786.56,596.38,1791.72,594.76Z"/><path class="cls-13" d="M1759.24,534.32l1.12,13.84,27.17,48.92s-3.91,6.83-1.43,7.42,9.74-1.48,9.76-9.18c-2.86-9.33-14.09-41-14.09-41l-5.26-8.17.08-15.37Z"/><path class="cls-11" d="M1789.94,488c.21-4.08-1.09-14.72-2.44-18.54-4.88-13.91-5.83-20.76-5.83-32.09s-2.18-46.7-2.18-46.7l-10.24-11-20.92.58-11.62,3.84s-2.46,45.16-3.16,59.72c-.5,10.39-1.22,19.38-2.17,31.42a273.59,273.59,0,0,0,1.45,56.89s.92,9.77,1.33,10.62l.09.45h46.69V526.41q2.31-8.07,4.42-16.21C1787.16,503.31,1789.54,495.56,1789.94,488Z"/><path class="cls-28" d="M1780.1,382.82l4,4.74s-2.07,42.58-2.4,49.79,9,36,9,36l-38.51,5s-5.67-30.79-7.3-46.08,21.67-52.59,21.67-52.59Z"/><path class="cls-28" d="M1741.49,382.1l-7.86,3.73s1.1,46-.91,57.63c-1.23,7.12-6,30.16-6,30.16l12.44,4.26s7.66-28.83,9.18-44.12-.14-53.34-.14-53.34Z"/><path class="cls-15" d="M1743,365.26c-1,3.95,1.32,7.85,3.37,11.18.84,1.36,2.14,3.25,1.06,4.81-1.21,1.74-4.22,1.39-5.54.09a8.19,8.19,0,0,1-1.79-3.38c-1.78-5.44-4.27-13.06-3.79-18.77.39-4.59,6-12.73,11.81-9.82a6.1,6.1,0,0,1,2.3,2.5,4.72,4.72,0,0,1,.74,1.86c.28,2.66-2.28,3.34-4,4.77A13.37,13.37,0,0,0,1743,365.26Z"/><path class="cls-13" d="M1752.67,379.44a12.06,12.06,0,0,1-8.83-6.45,21.63,21.63,0,0,1-2.07-10.65c.22-12.15,16.34-12.83,22.61-4.09C1769.84,365.86,1763.92,380.87,1752.67,379.44Z"/><path class="cls-15" d="M1763.68,364c.13,1.48.88,3,1.08,4.55.38,2.78-.24,6.39.78,8.94a17.19,17.19,0,0,0,8.36-4.1c2.13-2,1.75-4.92,2.23-7.84a38,38,0,0,0,.85-8.14c-.85-14.95-15.76-23.12-28.9-16.38-5,2.55-7.15,9-3.49,13.29,3.93,4.59,11.92,2.6,16.63,6A8.06,8.06,0,0,1,1763.68,364Z"/><path class="cls-13" d="M1752.35,378.19c.2.9.39,1.81.59,2.71.09.42.06,1.61.41,1.89a1,1,0,0,0,.71.1c.7-.09,7-.88,6.88-1.28a20.6,20.6,0,0,0-.72-3.13c-.26-.82-.37-2.37-.86-3A11.16,11.16,0,0,1,1756,377c-1.21.35-2.43.67-3.64,1Z"/><polygon class="cls-13" points="1727.33 324.97 1731.16 313.67 1741.33 310.35 1742.63 317.15 1736.8 323.34 1735.58 329.16 1727.33 324.97"/><polygon class="cls-28" points="1748.03 392.34 1726.46 372.46 1739.49 323.62 1728.52 321.37 1705.69 370.35 1708.22 385.99 1741.02 412.34 1748.03 392.34"/><path class="cls-16" d="M1750.24,378.87a9.39,9.39,0,0,1-9.39-9.39H1739a11.26,11.26,0,0,0,11.25,11.26Z"/><rect class="cls-17" x="1749.92" y="378.12" width="7.01" height="3.77" rx="1.75"/><path class="cls-16" d="M1741,362.59v-7.72a15.11,15.11,0,0,1,30.22,0v7.72h3.32v-7.78a18.43,18.43,0,0,0-36.86,0v7.78Z"/><path class="cls-16" d="M1778.92,361.22a3.34,3.34,0,0,1,.57,2.18v2.82a3.31,3.31,0,0,1-.57,2.17l-.93,1.09v-9.35Z"/><rect class="cls-17" x="1769.74" y="357.88" width="8.25" height="13.87" rx="3.23" transform="translate(3547.73 729.62) rotate(180)"/><path class="cls-16" d="M1733,361.22a3.34,3.34,0,0,0-.57,2.18v2.82a3.31,3.31,0,0,0,.57,2.17l.94,1.09v-9.35Z"/><rect class="cls-17" x="1733.9" y="357.88" width="8.25" height="13.87" rx="3.23"/><path class="cls-11" d="M1697,348.28a17.57,17.57,0,1,0-8.23,34.16,18.25,18.25,0,0,0,5.5.49,17.59,17.59,0,0,0,2.73-34.65Z"/><g class="cls-29"><path d="M1707.92,356.16a17,17,0,0,0-10.91-7.88,18.56,18.56,0,0,0-4.51-.53,17.65,17.65,0,0,1,1.47,30.84,17.09,17.09,0,0,1-7.8,2.55c-.33,0-.67,0-1,0a18.87,18.87,0,0,0,3.62,1.27,18.25,18.25,0,0,0,5.5.49,17.69,17.69,0,0,0,13.64-26.77Z"/></g><path class="cls-11" d="M1786.68,227.29c-8.11-12.14-20.9-20.39-38-24.52s-32.34-2.63-45.25,4.45c-11.22,6.15-19.09,15.81-23.4,28.73a8.24,8.24,0,0,0,5.88,10.59l10.19,2.45a8.21,8.21,0,0,0,9.65-5.19c2.53-7,6.48-11.89,12-15,6.74-3.73,15.14-4.42,25-2.05s16.87,6.89,21,13.48,5.07,14.77,2.76,24.37c-3.19,13.23-9.12,21.23-17.64,23.77-9,2.69-21.89,1.94-38.41-2.21l-4.41-1.07a8.23,8.23,0,0,0-9.91,6.06l-9.25,38.43a8.2,8.2,0,0,0,6.06,9.91l10.34,2.49a8.39,8.39,0,0,0,2.48.21,8.23,8.23,0,0,0,7.43-6.27l6-24.89a.61.61,0,0,1,.7-.44c19.39,4.13,35.22,3.42,47.06-2.11,12.59-5.89,21.16-18,25.48-35.9S1794.82,239.5,1786.68,227.29Z"/><g class="cls-29"><path d="M1786.68,227.29c-8.11-12.14-20.9-20.39-38-24.52-10.6-2.55-20.47-3-29.52-1.2a79.45,79.45,0,0,1,15,2.2c17.12,4.12,29.92,12.37,38,24.52s10.09,27.45,5.78,45.32-12.89,30-25.48,35.89a48.68,48.68,0,0,1-12,3.73c10.3.28,19.18-1.29,26.52-4.72,12.59-5.89,21.16-18,25.48-35.9S1794.82,239.5,1786.68,227.29Z"/></g><rect class="cls-10" x="1669.97" y="427.22" width="117.77" height="70.06" rx="1" transform="translate(1210.77 2175.2) rotate(-88.14)"/><rect class="cls-30" x="1699.18" y="409.49" width="59.67" height="95.42" transform="translate(15.74 -55.84) rotate(1.86)"/><rect class="cls-30" x="1719.34" y="511.35" width="15.68" height="4.99" rx="0.63" transform="translate(17.57 -55.75) rotate(1.86)"/><polygon class="cls-13" points="1775.78 456.58 1770.92 467.48 1760.49 469.85 1759.82 462.96 1766.19 457.33 1767.95 451.65 1775.78 456.58"/><polygon class="cls-28" points="1770.99 389.9 1785.51 421.46 1767.95 451.65 1775.15 458.32 1799.86 427.31 1803.59 416.66 1784.07 387.56 1770.99 389.9"/><path class="cls-4" d="M1861.05,617.67H82.66c-6.24,0-11.3-2.2-11.3-4.9s5.06-4.91,11.3-4.91H1861.05c6.25,0,11.31,2.2,11.31,4.91S1867.3,617.67,1861.05,617.67Z"/><path class="cls-6" d="M1053.33,135.85V121.69a14.06,14.06,0,0,1,1.72-6.81,13.56,13.56,0,0,1,23.49,0,14.07,14.07,0,0,1,1.73,6.81v14.16h7.48V123.1a24.91,24.91,0,0,0-.17-3.46,24.25,24.25,0,0,0-.44-2.55c-.13-.56-.27-1.11-.44-1.66a24.49,24.49,0,0,0-1.27-3.2,22,22,0,0,0-1.28-2.27,20.89,20.89,0,0,0-34.68,0,21.84,21.84,0,0,0-1.26,2.27,23.16,23.16,0,0,0-1.27,3.2c-.17.55-.33,1.1-.46,1.66a24.25,24.25,0,0,0-.44,2.55,26.56,26.56,0,0,0-.2,3.46v12.75Z"/><rect class="cls-31" x="1035.79" y="131.55" width="62.71" height="51.28" rx="9.08"/><path class="cls-6" d="M1071.6,158.38v11.68a4.31,4.31,0,1,1-8.62,0V158.38a9.68,9.68,0,1,1,13.89-8.69A10.24,10.24,0,0,1,1071.6,158.38Z"/><rect class="cls-11" x="128.61" y="568.2" width="30.4" height="9.7" transform="translate(-158.47 65.41) rotate(-16.68)"/><path class="cls-32" d="M231.23,517.16l-.87-.56Z"/><path class="cls-32" d="M230.18,516.49l-.8-.47Z"/><path class="cls-32" d="M229.14,515.88c-.33-.2-.68-.39-1-.57C228.46,515.49,228.81,515.68,229.14,515.88Z"/><path class="cls-8" d="M261,537.68A55.56,55.56,0,0,0,234,504.46c-1.35-.74-2.74-1.38-4.13-2a56,56,0,0,0-71.58,24.8,55.07,55.07,0,0,0-5.85,35.59,56.75,56.75,0,0,0,1.59,6.86,62,62,0,0,0,2.54,6.86,56.77,56.77,0,0,0,7.26,12A55.71,55.71,0,0,0,181.09,603c1.32.7,2.7,1.38,4.09,2a56.13,56.13,0,0,0,71.55-24.81A55.3,55.3,0,0,0,261,537.68Zm-12.78,37.89A46.43,46.43,0,0,1,189,596.08c-1.15-.47-2.26-1-3.38-1.62A46.48,46.48,0,0,1,163.55,568l-.34-1.08A46.28,46.28,0,0,1,226,511.29c1.15.51,2.3,1.08,3.41,1.65a46.3,46.3,0,0,1,18.86,62.63Z"/><g class="cls-33"><path class="cls-34" d="M251.79,540.45a46,46,0,0,0-22.41-27.51c-1.11-.57-2.26-1.14-3.41-1.65a46.17,46.17,0,0,0-31.8-1.83,46.16,46.16,0,0,0-31,57.49l.34,1.08a46.48,46.48,0,0,0,22.1,26.43c1.12.58,2.23,1.15,3.38,1.62a46.22,46.22,0,0,0,62.76-55.63Zm-23.32-.85c0,7-2.95,13.3-7.62,18.39s-11.66,7.32-18.39,7.62a19.62,19.62,0,0,1-10-2.24,19.41,19.41,0,0,1-8.37-5.38,26.82,26.82,0,0,1-7.62-18.39v-.28c0-7.05,3-13.31,7.62-18.4s11.66-7.32,18.39-7.61a19.42,19.42,0,0,1,10,2.24,19.39,19.39,0,0,1,8.37,5.37,26.85,26.85,0,0,1,7.62,18.4Z"/></g><rect class="cls-35" x="63.42" y="572.13" width="80.65" height="25.75" transform="translate(-163.45 54.34) rotate(-16.67)"/><path class="cls-11" d="M1393.13,244A179.63,179.63,0,1,0,1572.76,423.6,179.62,179.62,0,0,0,1393.13,244Z"/><g class="cls-36"><path class="cls-37" d="M1482,367.46l-5.85,4.45a94.76,94.76,0,0,1,13.19,46.21l-33.49.37a60.45,60.45,0,0,0-.56-6.65,62.29,62.29,0,0,0-70.24-53,61.66,61.66,0,0,0-25.42,9.62l-19.51-27.32a95.51,95.51,0,0,1,25.18-12.08l-1-7.38a103.26,103.26,0,0,0-73.54,103.91l-33.16,4.65a136.68,136.68,0,0,1,100.7-141.55l-1-7.33c-69.56,18.17-116.21,86.12-106,159,11,78.55,83.81,133.5,162.36,122.52,1.56-.22,3.09-.51,4.63-.78l-2-7.1c-1.22.19-2.41.42-3.63.59-74.53,10.42-143.64-41.72-154.06-116.24-.09-.61-.13-1.22-.21-1.83l33.08-4.62c.08.6.12,1.22.2,1.82A103.2,103.2,0,0,0,1408,522.54c1-.14,1.89-.31,2.84-.48l-2.11-7.12c-.6.09-1.16.23-1.75.32-1.67.23-3.33.42-5,.57l-1.14-33.6c.49-.07,1-.07,1.49-.14a62.29,62.29,0,0,0,53.34-56.24l33.62-.36a94.93,94.93,0,0,1-8.7,34.89l6.15,4.26a102.42,102.42,0,0,0-4.69-97.18Zm-80.73,107.35A54.93,54.93,0,0,1,1340.82,435l-7.78-.64a62.29,62.29,0,0,0,60.43,48.24l1.14,33.53a95.67,95.67,0,0,1-60.39-170.65l19.53,27.33a62.62,62.62,0,0,0-21.37,37.06l7.37.61a54.87,54.87,0,1,1,61.54,64.31Z"/><path class="cls-37" d="M1383.09,277.06l1,7.3a135.23,135.23,0,0,1,43.33,3.9l-7.71,32.48a102.88,102.88,0,0,0-29.6-3.29l1,7.33a95.69,95.69,0,0,1,68.93,26.83l5.88-4.47a103.76,103.76,0,0,0-39.18-24.26l7.74-32.62a136.43,136.43,0,0,1,34.08,244.23l-16.94-28.85a103.29,103.29,0,0,0,18.23-16l-6.1-4.21a95.75,95.75,0,0,1-30.89,22.27l2.12,7.12a105,105,0,0,0,10.43-5.28l16.9,28.79a136.61,136.61,0,0,1-12.81,6.57l2,7.14c57.4-25.27,93.64-86.43,84.52-151.53C1525.57,325.13,1458,271.49,1383.09,277.06Z"/></g><path class="cls-38" d="M1484.8,365.24l-5.85,4.45a95.18,95.18,0,0,1,13.19,46.21l-33.49.37a65.78,65.78,0,0,0-.56-6.65,62.1,62.1,0,0,0-95.67-43.39l-19.5-27.32a95.51,95.51,0,0,1,25.18-12.08l-1-7.38a103.26,103.26,0,0,0-73.54,103.91L1260.36,428a136.7,136.7,0,0,1,100.7-141.55l-1-7.33c-69.56,18.17-116.21,86.12-106,159,11,78.55,83.82,133.5,162.37,122.52,1.55-.22,3.09-.5,4.63-.78l-2-7.1c-1.22.19-2.41.42-3.63.59-74.53,10.42-143.64-41.72-154.07-116.24-.08-.61-.12-1.22-.2-1.83l33.08-4.62c.08.6.12,1.22.2,1.82a103.19,103.19,0,0,0,116.38,87.8c1-.14,1.89-.31,2.83-.48l-2.11-7.12c-.59.09-1.15.23-1.74.32-1.68.23-3.33.42-5,.57l-1.14-33.6c.49-.07,1-.07,1.49-.14a62.28,62.28,0,0,0,53.33-56.24l33.63-.36a94.93,94.93,0,0,1-8.7,34.89l6.15,4.26a102.42,102.42,0,0,0-4.69-97.18Zm-80.73,107.35a54.94,54.94,0,0,1-60.48-39.79l-7.77-.64a62.28,62.28,0,0,0,60.43,48.24l1.14,33.54A95.67,95.67,0,0,1,1337,343.28l19.53,27.33a62.62,62.62,0,0,0-21.37,37.06l7.37.61a54.86,54.86,0,1,1,61.54,64.31Z"/><path class="cls-38" d="M1385.87,274.84l1,7.3a135.25,135.25,0,0,1,43.33,3.9l-7.71,32.48a102.91,102.91,0,0,0-29.61-3.29l1,7.33a95.71,95.71,0,0,1,68.93,26.83l5.88-4.47a103.83,103.83,0,0,0-39.18-24.26l7.74-32.62a136.43,136.43,0,0,1,34.08,244.23l-16.94-28.85a102.87,102.87,0,0,0,18.22-16l-6.09-4.21a95.86,95.86,0,0,1-30.89,22.27l2.11,7.12a104,104,0,0,0,10.43-5.28l16.91,28.79a137.85,137.85,0,0,1-12.81,6.57l2,7.14c57.4-25.27,93.64-86.43,84.52-151.53C1528.35,322.91,1460.78,269.27,1385.87,274.84Z"/><path class="cls-18" d="M1370.18,255.51a7.31,7.31,0,1,0,8.25,6.21A7.3,7.3,0,0,0,1370.18,255.51Z"/><path class="cls-18" d="M1441.31,565.15a7.31,7.31,0,1,0,8.26,6.23A7.31,7.31,0,0,0,1441.31,565.15Z"/><path class="cls-39" d="M1437.9,557.25a1.21,1.21,0,1,0,1.51.81A1.21,1.21,0,0,0,1437.9,557.25Z"/><path class="cls-39" d="M1435.83,550.28a1.21,1.21,0,1,0,1.51.81A1.21,1.21,0,0,0,1435.83,550.28Z"/><path class="cls-39" d="M1433.76,543.31a1.21,1.21,0,1,0,.69,2.32,1.19,1.19,0,0,0,.82-1.5A1.21,1.21,0,0,0,1433.76,543.31Z"/><path class="cls-39" d="M1431.7,536.34a1.22,1.22,0,1,0,1.51.82A1.22,1.22,0,0,0,1431.7,536.34Z"/><path class="cls-39" d="M1429.63,529.37a1.22,1.22,0,1,0,1.51.82A1.22,1.22,0,0,0,1429.63,529.37Z"/><path class="cls-39" d="M1427.56,522.41a1.21,1.21,0,1,0,.69,2.32,1.21,1.21,0,1,0-.69-2.32Z"/><path class="cls-39" d="M1425.5,515.44a1.21,1.21,0,1,0,1.51.81A1.21,1.21,0,0,0,1425.5,515.44Z"/><path class="cls-39" d="M1423.43,508.47a1.21,1.21,0,1,0,1.51.81A1.22,1.22,0,0,0,1423.43,508.47Z"/><path class="cls-39" d="M1421.55,501.46a1.21,1.21,0,1,0,.5,2.36,1.21,1.21,0,0,0-.5-2.36Z"/><path class="cls-39" d="M1422.1,495a1.17,1.17,0,0,0,.39,1.72,1.21,1.21,0,0,0,1.37-2A1.18,1.18,0,0,0,1422.1,495Z"/><path class="cls-39" d="M1428.38,490.47a1.27,1.27,0,0,0-.54,1.64,1.17,1.17,0,0,0,1.63.53,1.21,1.21,0,0,0-1.09-2.17Z"/><path class="cls-39" d="M1434.58,486.91a1.2,1.2,0,0,0-.4,1.65,1.23,1.23,0,0,0,1.69.41,1.19,1.19,0,0,0,.37-1.68A1.23,1.23,0,0,0,1434.58,486.91Z"/><path class="cls-39" d="M1440.54,482.88a1.19,1.19,0,0,0-.3,1.67,1.23,1.23,0,0,0,1.71.3,1.17,1.17,0,0,0,.29-1.67A1.24,1.24,0,0,0,1440.54,482.88Z"/><path class="cls-39" d="M1446.22,478.49a1.18,1.18,0,0,0-.17,1.69,1.22,1.22,0,0,0,1.72.18,1.16,1.16,0,0,0,.18-1.68A1.28,1.28,0,0,0,1446.22,478.49Z"/><path class="cls-39" d="M1451.53,473.73a1.16,1.16,0,0,0,0,1.67,1.26,1.26,0,0,0,1.76,0,1.23,1.23,0,0,0-.06-1.75A1.19,1.19,0,0,0,1451.53,473.73Z"/><path class="cls-39" d="M1456.58,468.23a1.18,1.18,0,0,0-.24,1.76,1.28,1.28,0,0,0,1.65.22,1.27,1.27,0,0,0,.33-1.6A1.17,1.17,0,0,0,1456.58,468.23Z"/><path class="cls-39" d="M1464.46,466.64a1.14,1.14,0,0,0-1.46,1,1.2,1.2,0,0,0,2.35.51A1.12,1.12,0,0,0,1464.46,466.64Z"/><path class="cls-39" d="M1471.26,470a1.21,1.21,0,1,0,.44,1.66A1.21,1.21,0,0,0,1471.26,470Z"/><path class="cls-39" d="M1477.55,473.69a1.21,1.21,0,1,0,.44,1.66A1.23,1.23,0,0,0,1477.55,473.69Z"/><path class="cls-39" d="M1483.83,477.34a1.21,1.21,0,0,0-1.22,2.1,1.22,1.22,0,0,0,1.66-.45A1.2,1.2,0,0,0,1483.83,477.34Z"/><path class="cls-39" d="M1490.11,481a1.23,1.23,0,0,0-1.65.46,1.21,1.21,0,1,0,2.16,1.1A1.24,1.24,0,0,0,1490.11,481Z"/><path class="cls-39" d="M1496.11,481.38a1.34,1.34,0,0,0-.73,1.5,1.13,1.13,0,0,0,1.58.78,1.14,1.14,0,0,0,.67-1.64A1.33,1.33,0,0,0,1496.11,481.38Z"/><path class="cls-39" d="M1502.21,476.54a1.21,1.21,0,0,0-1.2,2.11,1.21,1.21,0,1,0,1.2-2.11Z"/><path class="cls-39" d="M1505.43,470a1.19,1.19,0,0,0-1.59.59,1.21,1.21,0,0,0,.57,1.61,1.21,1.21,0,1,0,1-2.2Z"/><path class="cls-39" d="M1508.23,463.32a1.24,1.24,0,0,0-1.57.69,1.2,1.2,0,0,0,.67,1.56,1.22,1.22,0,0,0,1.59-.67A1.2,1.2,0,0,0,1508.23,463.32Z"/><path class="cls-39" d="M1510.59,456.45a1.21,1.21,0,0,0-1.52.78,1.23,1.23,0,0,0,.79,1.53,1.19,1.19,0,0,0,1.52-.78A1.22,1.22,0,0,0,1510.59,456.45Z"/><path class="cls-39" d="M1512.57,449.46a1.24,1.24,0,0,0-1.49.86,1.21,1.21,0,1,0,2.35.61A1.18,1.18,0,0,0,1512.57,449.46Z"/><path class="cls-39" d="M1514.09,442.35a1.21,1.21,0,0,0-.47,2.38,1.21,1.21,0,1,0,.47-2.38Z"/><path class="cls-39" d="M1515.16,435.17a1.19,1.19,0,0,0-1.34,1,1.25,1.25,0,0,0,1.06,1.36,1.17,1.17,0,0,0,1.35-1A1.22,1.22,0,0,0,1515.16,435.17Z"/><path class="cls-39" d="M1515.77,427.93a1.19,1.19,0,0,0-1.27,1.13,1.25,1.25,0,0,0,1.15,1.29,1.18,1.18,0,0,0,1.27-1.13A1.21,1.21,0,0,0,1515.77,427.93Z"/><path class="cls-39" d="M1515.91,420.66a1.22,1.22,0,0,0-1.2,1.22,1.25,1.25,0,0,0,1.23,1.21,1.19,1.19,0,0,0,1.2-1.22A1.22,1.22,0,0,0,1515.91,420.66Z"/><path class="cls-39" d="M1515.56,413.41a1.21,1.21,0,0,0-1.12,1.29,1.25,1.25,0,0,0,1.31,1.12,1.18,1.18,0,0,0,1.12-1.29A1.22,1.22,0,0,0,1515.56,413.41Z"/><path class="cls-39" d="M1514.68,406.2a1.17,1.17,0,0,0-1,1.36,1.26,1.26,0,0,0,1.39,1,1.17,1.17,0,0,0,1-1.36A1.25,1.25,0,0,0,1514.68,406.2Z"/><path class="cls-39" d="M1513.51,399a1.24,1.24,0,0,0-1,1.41,1.2,1.2,0,0,0,1.39,1,1.24,1.24,0,0,0,1-1.41A1.18,1.18,0,0,0,1513.51,399Z"/><path class="cls-39" d="M1512,391.93a1.17,1.17,0,0,0-.88,1.44,1.24,1.24,0,0,0,1.48.9,1.17,1.17,0,0,0,.89-1.44A1.24,1.24,0,0,0,1512,391.93Z"/><path class="cls-39" d="M1510.18,384.88a1.26,1.26,0,0,0-.86,1.51,1.17,1.17,0,0,0,1.46.84,1.24,1.24,0,0,0,.87-1.51A1.16,1.16,0,0,0,1510.18,384.88Z"/><path class="cls-39" d="M1507.86,378a1.21,1.21,0,1,0,1.55.74A1.2,1.2,0,0,0,1507.86,378Z"/><path class="cls-39" d="M1505.23,371.23a1.2,1.2,0,0,0-.63,1.58,1.27,1.27,0,0,0,1.62.64,1.17,1.17,0,0,0,.62-1.58A1.23,1.23,0,0,0,1505.23,371.23Z"/><path class="cls-39" d="M1502.17,364.64a1.19,1.19,0,0,0-.51,1.61,1.2,1.2,0,0,0,1.6.55,1.23,1.23,0,0,0,.58-1.64A1.26,1.26,0,0,0,1502.17,364.64Z"/><path class="cls-39" d="M1498.61,358.31a1.2,1.2,0,0,0-.39,1.65,1.23,1.23,0,0,0,1.65.42,1.2,1.2,0,0,0,.43-1.67A1.22,1.22,0,0,0,1498.61,358.31Z"/><path class="cls-39" d="M1494.47,352.34a1.27,1.27,0,0,0-.22,1.7,1.2,1.2,0,0,0,1.68.24,1.23,1.23,0,0,0,.24-1.72A1.17,1.17,0,0,0,1494.47,352.34Z"/><path class="cls-39" d="M1489.67,348.05a1.14,1.14,0,0,0-1.44,1,1.21,1.21,0,0,0,2.36.51A1.14,1.14,0,0,0,1489.67,348.05Z"/><path class="cls-39" d="M1481.8,349.72a1.2,1.2,0,0,0-.23,1.71,1.21,1.21,0,0,0,2-1.38A1.2,1.2,0,0,0,1481.8,349.72Z"/><path class="cls-39" d="M1476,354.17a1.22,1.22,0,1,0,1.7.22A1.21,1.21,0,0,0,1476,354.17Z"/><path class="cls-39" d="M1470.28,358.62a1.22,1.22,0,1,0,1.71.22A1.22,1.22,0,0,0,1470.28,358.62Z"/><path class="cls-39" d="M1464.54,363.07a1.21,1.21,0,1,0,1.7.22A1.21,1.21,0,0,0,1464.54,363.07Z"/><path class="cls-39" d="M1458.87,366.7a1.24,1.24,0,0,0-.88,1.4,1.21,1.21,0,1,0,2.33-.64A1.25,1.25,0,0,0,1458.87,366.7Z"/><path class="cls-39" d="M1452.78,365.87a1.34,1.34,0,0,0-1.61.37,1.21,1.21,0,1,0,2.07,1.23A1.33,1.33,0,0,0,1452.78,365.87Z"/><path class="cls-39" d="M1445.77,361.37a1.22,1.22,0,1,0,1.83,1.6,1.22,1.22,0,1,0-1.83-1.6Z"/><path class="cls-39" d="M1440,356.94a1.21,1.21,0,0,0,.26,1.68,1.25,1.25,0,0,0,1.71-.27,1.18,1.18,0,0,0-.26-1.68A1.22,1.22,0,0,0,1440,356.94Z"/><path class="cls-39" d="M1435.6,352.56a1.19,1.19,0,0,0-1.66.4,1.25,1.25,0,0,0,.4,1.68,1.22,1.22,0,0,0,1.26-2.08Z"/><path class="cls-39" d="M1429.13,349a1.18,1.18,0,0,0-1.62.58,1.25,1.25,0,0,0,.57,1.61,1.19,1.19,0,0,0,1.6-.53A1.26,1.26,0,0,0,1429.13,349Z"/><path class="cls-39" d="M1422.25,346.23a1.29,1.29,0,0,0-1.55.83,1.16,1.16,0,0,0,.79,1.48,1.23,1.23,0,0,0,1.52-.75A1.19,1.19,0,0,0,1422.25,346.23Z"/><path class="cls-39" d="M1415.16,344.28a1.18,1.18,0,0,0-1.47.86,1.25,1.25,0,0,0,.87,1.5,1.2,1.2,0,0,0,1.47-.86A1.23,1.23,0,0,0,1415.16,344.28Z"/><path class="cls-39" d="M1408,342.67a1.22,1.22,0,0,0-.44,2.39,1.25,1.25,0,0,0,1.41-1A1.18,1.18,0,0,0,1408,342.67Z"/><path class="cls-39" d="M1400.74,341.51a1.23,1.23,0,0,0-1.34,1.1,1.2,1.2,0,0,0,1.07,1.32,1.26,1.26,0,0,0,1.34-1.09A1.18,1.18,0,0,0,1400.74,341.51Z"/><path class="cls-39" d="M1393.38,340.93a1.19,1.19,0,0,0-1.23,1.1,1.25,1.25,0,0,0,1.19,1.33,1.22,1.22,0,0,0,0-2.43Z"/><path class="cls-39" d="M1385.91,338.65a1.21,1.21,0,1,0,1.8,1.61,1.21,1.21,0,0,0-1.8-1.61Z"/><path class="cls-39" d="M1383.33,332a1.23,1.23,0,0,0-1,1.41,1.22,1.22,0,1,0,1-1.41Z"/><path class="cls-39" d="M1382,324.83a1.21,1.21,0,1,0,1.41,1A1.21,1.21,0,0,0,1382,324.83Z"/><path class="cls-39" d="M1380.76,317.67a1.21,1.21,0,1,0,1.41,1A1.21,1.21,0,0,0,1380.76,317.67Z"/><path class="cls-39" d="M1379.47,310.52a1.22,1.22,0,0,0-1,1.41,1.21,1.21,0,1,0,1-1.41Z"/><path class="cls-39" d="M1378.19,303.37a1.2,1.2,0,0,0-1,1.4,1.21,1.21,0,1,0,1-1.4Z"/><path class="cls-39" d="M1376.91,296.21a1.21,1.21,0,1,0,1.41,1A1.21,1.21,0,0,0,1376.91,296.21Z"/><path class="cls-39" d="M1375.62,289.06a1.21,1.21,0,1,0,1.41,1A1.21,1.21,0,0,0,1375.62,289.06Z"/><path class="cls-39" d="M1374.34,281.9a1.21,1.21,0,1,0,1.41,1A1.21,1.21,0,0,0,1374.34,281.9Z"/><path class="cls-39" d="M1373.05,274.75a1.23,1.23,0,0,0-1,1.41,1.21,1.21,0,1,0,1-1.41Z"/><path class="cls-38" d="M1379.38,424.84a15.36,15.36,0,0,0,5.34.72l.18,4.23a19.56,19.56,0,0,0,6.7-1.47c-.4-1-.79-1.93-1.2-2.9-.52-1.27-.46-.93.82-1.59a15.24,15.24,0,0,0,3.31-2.31c.18,0,.64.7.75.81l2.12,2.32a19.8,19.8,0,0,0,4.19-5.43c-.63-.33-3.59-1.37-3.76-2,1.07-1,1.44-3.79,1.63-5.14l4.21.57a20,20,0,0,0-.28-6.86l-3.08.67c-1.66.37-1.29-.88-1.86-2.29-.41-.92-1.66-2.2-.71-2.81l3-1.91a19.92,19.92,0,0,0-4.62-5.07c-.54.7-1.07,1.4-1.61,2.09l-.93,1.2s-2.33-1.39-2.6-1.54c-1.45-.71-2.4-.34-1.89-1.94.32-1,.64-2,1-3a19.82,19.82,0,0,0-6.8-.91c0,.88.07,1.76.11,2.64.09,2.13-.3,1.47-2.37,1.89-1.62.33-2.56,1.5-3.24-.16l-1.2-2.9a19.75,19.75,0,0,0-5.79,3.67l2.11,2.32c1.15,1.25-.11,1.56-1.05,2.75-.6.82-1.08,2.55-2.09,2l-3.17-1.66a19.6,19.6,0,0,0-2.07,6.54l3.11.42c1.68.23.91,1.27,1,2.78,0,1,.83,2.64-.31,2.89l-3.49.77a19.68,19.68,0,0,0,2.61,6.34l2.66-1.68c1.61-1,1.56.5,2.8,1.81s2.14,1.09,1.09,2.46L1372,425.7a19.54,19.54,0,0,0,6.08,3.18C1378.53,427.54,1379,426.19,1379.38,424.84Zm-5.27-8.47a11.8,11.8,0,1,1,17.14,3.07,11.91,11.91,0,0,1-17.14-3.07Z"/><path class="cls-38" d="M1400.09,450.35a11.06,11.06,0,0,0,3.63-1.06L1405,452a13.61,13.61,0,0,0,3.88-2.85l-2.06-2s1.88-2.95,2-3.24l2.73,1.2a13.75,13.75,0,0,0,1.15-4.68l-3-.19a11.16,11.16,0,0,0-.42-3.77l2.86-.83a13.88,13.88,0,0,0-2.13-4.33l-2,1.49c-.68.5-1.13-.7-1.66-1.18s-1.69-.8-1.19-1.55l1.39-2.09a14.16,14.16,0,0,0-4.41-1.94l-.48,2c-.34,1.38-.71.72-2.09.63s-1.86.53-2-.9c-.07-.67-.14-1.35-.22-2a14.18,14.18,0,0,0-4.63,1.35l.9,1.83c.64,1.28-.1,1-1.22,1.84s-1.07,1.57-2.09.59l-1.48-1.41a14.05,14.05,0,0,0-2.67,4l1.86.82c1.26.55.57.94.27,2.13-.18.7.06,1.95-.77,1.9l-2.51-.17a13.67,13.67,0,0,0,.53,4.8l2-.58c1.33-.38,1,.36,1.58,1.47.33.63,1.28,1.46.63,1.94l-2,1.49a13.82,13.82,0,0,0,3.49,3.33c.37-.57.75-1.13,1.13-1.7.79-1.18.92-.43,2.18.13s1.92.15,1.58,1.53l-.48,2a13.66,13.66,0,0,0,4.81.31C1400.3,452.33,1400.19,451.33,1400.09,450.35Zm-5.8-3.94c-8.91-6,.32-19.69,9.21-13.79s-.34,19.71-9.21,13.79Z"/><path class="cls-38" d="M1414.2,409.15a8,8,0,0,0,2.51-1.12l1.21,1.79a10,10,0,0,0,2.51-2.44l-1.68-1.21s1.06-2.31,1.13-2.53l2.08.59a10,10,0,0,0,.36-3.48l-2.16.16a7.89,7.89,0,0,0-.67-2.66l2-.89a10,10,0,0,0-2-2.9l-1.31,1.27c-.44.43-.88-.39-1.31-.69s-1.3-.4-1-1,.53-1.09.79-1.64a10,10,0,0,0-3.36-1l-.15,1.47c-.11,1-.44.58-1.44.66s-1.28.56-1.54-.45l-.36-1.43a10.08,10.08,0,0,0-3.19,1.43c.27.41.55.82.83,1.22.58.86,0,.75-.7,1.45s-.61,1.24-1.45.63l-1.2-.87a10.43,10.43,0,0,0-1.52,3.15l1.42.41c1,.27.5.62.4,1.5-.05.52.24,1.4-.36,1.44l-1.82.14a10,10,0,0,0,.85,3.39l1.35-.61c.92-.41.79.16,1.28.9.3.42,1.07.92.64,1.33L1405,408.5a10.21,10.21,0,0,0,2.84,2c.22-.44.43-.88.65-1.33.45-.93.62-.4,1.58-.12s1.4-.09,1.29.94l-.15,1.47a10,10,0,0,0,3.49-.25C1414.55,410.55,1414.37,409.84,1414.2,409.15Zm-4.56-2.26c-7-3.39-1.72-14.18,5.26-10.83s1.71,14.21-5.26,10.83Z"/><polygon class="cls-40" points="1396.57 438.77 1269.37 614.76 1396.97 614.23 1390.12 472.74 1396.57 438.77"/><polygon class="cls-41" points="1241.16 375.99 1139.65 527.92 1139.65 611.09 1289.07 612.05 1292.7 451.9 1256.96 351.58 1241.16 375.99"/><rect class="cls-42" x="1260.42" y="447.33" width="57.65" height="15.73"/><path class="cls-13" d="M1242.56,475.8c-19.51-12.25-26.18,1.66-42.5,43.78s-34.71,85.73-15.5,92.32,27.67-43.61,39.07-67.22S1258.31,485.68,1242.56,475.8Z"/><path class="cls-13" d="M1340.28,475.59c-15.65,9.83,7.58,45,18.85,68.51S1378.85,617.52,1398,611s.81-50-15.41-91.83S1359.71,463.41,1340.28,475.59Z"/><path class="cls-38" d="M1228.55,465.26c-18.54,0-50.57,102.43-50.57,102.43l39.63,8.14,15.11-38.1S1243.35,465.28,1228.55,465.26Z"/><g class="cls-43"><path class="cls-13" d="M1308.07,420.14c.2-8.08-34.19-9-34.33-.91-.48,30-10.39,36.07-10.39,36.07S1260.89,519,1289.83,520c27.53,1,25.35-64.68,25.35-64.68S1307.33,452.28,1308.07,420.14Z"/><polygon class="cls-13" points="1244.45 460.78 1270.47 479.41 1308.37 430.99 1276.42 430.99 1244.45 460.78"/><path class="cls-13" d="M1289.68,354.25c-18.32,0-35.6,19.43-33.17,43.09,2.58,25,20.72,44.76,33.17,44.76,12.14,0,30.41-20.15,33.16-44.76C1325.46,373.69,1308,354.25,1289.68,354.25Z"/><path class="cls-44" d="M1276.41,371.41s11.16,5.26,18,7c5.89,1.51,12.25,2.81,17.26,5.31,8.78,4.34,8.19,25.51,8.19,25.51s4.48-24.12-1.8-31.7S1276.41,371.41,1276.41,371.41Z"/><path class="cls-45" d="M1288.93,345.89c-14.14,0-29.49,9.89-33.45,20.31-4.22,11-2.42,29.21-2.42,29.21l4.7,5.13s3-20.74,7.86-23.56c1.53-.89,10.79-5.57,10.79-5.57s34,6.62,37.42,10c4.59,4.6,6.61,18.36,6.61,18.36l5-7.2s1.33-20.64-4.17-29.43C1317.32,356.83,1303.74,345.88,1288.93,345.89Z"/><rect class="cls-46" x="1225.66" y="318.9" width="64.03" height="201.09"/></g><path class="cls-38" d="M1263.35,455.3l-38.72,11.61s9.86,88.91,12.93,109.14c1.22,8.13,1.18,21.42.69,34.43h52.47l-1.46-139S1274.08,466.8,1263.35,455.3Z"/><path class="cls-47" d="M1289.26,471.52l1.46,139h52.77c-.33-13-.23-26.33,1-34.43C1347.56,555.82,1355,465.9,1355,465.9l-39.85-10.6C1309.63,465.71,1289.26,471.52,1289.26,471.52Z"/><polygon class="cls-15" points="1275.8 595.61 1289.26 601.73 1289.26 485.99 1285.41 485.99 1275.8 595.61"/><polygon class="cls-48" points="1289.26 485.99 1289.26 601.73 1302.08 594.46 1293.1 485.99 1289.26 485.99"/><path class="cls-13" d="M1188.62,585.19c-18.18,6.88-11.8,23.79-5.94,26.38,7.8,3.45,24.79,2.46,50,2.61S1296,614,1296,614l.91-12.7s-32.42-9.11-53.84-13.6C1219.93,582.85,1200.91,580.54,1188.62,585.19Z"/><path class="cls-13" d="M1316.15,596.09c-11.41-3.71-18.74-2.17-25.34,1.93s-3.48,12,3.74,15.54c8.12,4,13.5-.69,28.56.11,10.3.54,22.66,3.07,24.78-.61S1327.59,599.8,1316.15,596.09Z"/><polygon class="cls-49" points="1284.62 465.89 1279.4 468.18 1289.26 471.52 1287.03 466.8 1284.62 465.89"/><polygon class="cls-50" points="1289.15 478.8 1289.15 492.95 1329.38 459.08 1316.79 456.49 1289.15 478.8"/><path class="cls-47" d="M1353.16,464.71c-14.8,0-4.17,72.46-4.17,72.46l15.11,38.11,39.62-8.15S1371.71,464.7,1353.16,464.71Z"/><polygon class="cls-48" points="1289.26 485.99 1293.1 485.99 1299.11 468.71 1289.26 471.52 1289.26 485.99"/><polygon class="cls-51" points="1247.86 459.95 1287.03 492.95 1287.03 478.8 1259.39 456.49 1247.86 459.95"/><path class="cls-13" d="M1404.3,493l-12.66.07s-2.87,37.81-4.34,62.83-3.61,41.81-.69,49.77c2.2,6,18.55,13.42,26.56-4.14,5.45-11.92,4.4-31,1.09-54.19C1411.21,525.74,1404.3,493,1404.3,493Z"/><polygon class="cls-15" points="1285.41 485.99 1289.26 485.99 1289.26 471.52 1279.4 468.71 1285.41 485.99"/><polygon class="cls-38" points="1251.44 458.88 1279.39 478.8 1287.03 466.8 1260.42 447.33 1251.44 458.88"/><polygon class="cls-42" points="1291.49 466.8 1289.26 471.52 1299.11 468.18 1293.71 465.89 1291.49 466.8"/><polygon class="cls-47" points="1291.49 466.8 1299.12 478.8 1327.07 458.88 1318.09 447.33 1291.49 466.8"/><path class="cls-6" d="M1289.88,431.81a11.66,11.66,0,0,0,10.77-6.15h-21.54A11.68,11.68,0,0,0,1289.88,431.81Z"/><path class="cls-52" d="M1299.6,426.42c.17,1.25-3.95,4.09-3.95,4.09s1.1-.61,1.5-.89c2.93-2.08,3.5-4,3.5-4h-21.54S1299.53,426,1299.6,426.42Z"/><path class="cls-53" d="M1253.39,418.91V401h-3.9v17.91c0,10.95,9.43,19.86,21,19.86h19.08v-3.9h-19.08C1261.07,434.87,1253.39,427.7,1253.39,418.91Z"/><path class="cls-53" d="M1257,351.58c-4.31,6.18-6,16.3-6,22.59,0,13.42.13,21.15.13,21.15l5.65.3a161.56,161.56,0,0,1-.35-20.15c.54-10.39,2.31-14.67,4.7-19.11,5.7-10.62,20.59-12.89,28.41-13v-5.84S1268.11,335.6,1257,351.58Z"/><path class="cls-54" d="M1289.46,337.56v5.84c7.84.07,22.71,2.34,28.42,13,2.39,4.44,4.15,8.72,4.69,19.11a163.86,163.86,0,0,1-.33,20.15l5.63-.3s.14-7.73.14-21.15c0-6.29-1.74-16.41-6-22.59C1310.82,335.6,1289.46,337.56,1289.46,337.56Z"/><path class="cls-54" d="M1244.22,384.44a2.05,2.05,0,0,0-1.78,2.25v20.78a1.83,1.83,0,1,0,3.57,0V386.69A2.05,2.05,0,0,0,1244.22,384.44Z"/><path class="cls-55" d="M1333.75,383a2.08,2.08,0,0,0-1.84,2.26V406a2.08,2.08,0,0,0,1.84,2.26c1,0,1.85-1,3-2.26V385.24C1335.6,384,1334.77,383,1333.75,383Z"/><path d="M1251.81,375.25c-4.19,0-7.59,3.79-7.59,8.47v26.72c0,4.68,3.4,8.46,7.59,8.46s7.58-3.78,7.58-8.46V383.72C1259.39,379,1256,375.25,1251.81,375.25Z"/><path d="M1327.09,375.25c-4.32,0-7.83,3.79-7.83,8.47v26.72c0,4.68,3.51,8.46,7.83,8.46s7.82-3.78,7.82-8.46V383.72C1334.91,379,1331.42,375.25,1327.09,375.25Z"/><path class="cls-56" d="M1254.17,378.89c-1.67,0-3,1.73-3,3.86v28.67c0,2.12,1.37,3.84,3,3.84s3-1.72,3-3.84V382.75C1257.22,380.62,1255.86,378.89,1254.17,378.89Z"/><path class="cls-57" d="M1329.85,378.32c-1.74,0-3.14,1.72-3.14,3.86v28.66c0,2.13,1.4,3.85,3.14,3.85s3.14-1.72,3.14-3.85V382.18C1333,380,1331.59,378.32,1329.85,378.32Z"/><path d="M1292.75,433.06h-6.3a3.79,3.79,0,0,0,0,7.5h6.3a3.79,3.79,0,0,0,0-7.5Z"/><path class="cls-58" d="M1335.88,385.53c-.19,0-.34.08-.34.19v19.81c0,.11.15.18.34.18s.34-.07.34-.18V385.72C1336.22,385.61,1336.06,385.53,1335.88,385.53Z"/><path class="cls-59" d="M1243.15,386.15c-.24,0-.43.09-.43.19v21.47c0,.11.19.2.43.2s.44-.09.44-.2V386.34C1243.59,386.24,1243.4,386.15,1243.15,386.15Z"/><path class="cls-60" d="M1292.2,467.93l6.92,10.87,28-19.92s-23.68,15.19-26.42,14.23S1292.2,467.93,1292.2,467.93Z"/><path class="cls-61" d="M1278.55,475.82c-1.27.23-27.11-16.94-27.11-16.94l28,19.92,7.64-12S1279.82,475.58,1278.55,475.82Z"/><path class="cls-13" d="M1396.57,438.77c-4.15-1.21-10.31,23.65-11.26,35.9s2.28,19.16,7.91,24.77,12.79.58,14.6-7.43c2-9.05-8.6-11.22-11.4-26.33C1394.5,455.28,1400.74,440,1396.57,438.77Z"/><path class="cls-13" d="M1397.73,467.55c-6.63.4-11.43,8-10.71,16.59s6.7,15.11,13.32,14.56,9.3-8.07,10.72-16.58C1412.51,473.21,1407.81,466.9,1397.73,467.55Z"/><path class="cls-62" d="M730,187.92l-13.39-1.45a14.82,14.82,0,0,0-16.33,13.14L700,202a14.84,14.84,0,0,0,11.76,16.12l2.72,10,3.14-9.08c1,.09,2.12.15,3.38.16l5.53.6a14.84,14.84,0,0,0,16.34-13.15l.25-2.35A14.82,14.82,0,0,0,730,187.92Z"/><path class="cls-63" d="M737.92,242.71l-9.59-1,.21-2,9.59,1a10.59,10.59,0,0,0,9.5-4.95l.35-.64c1.88-3.42,3.08-5.7,3.34-6.22l0-.08h0l0,0,1.9.2,0,.23c0,.21,0,.42-3.56,6.82l-.35.64A12.6,12.6,0,0,1,737.92,242.71Z"/><path class="cls-64" d="M723.13,158.16A33.57,33.57,0,0,0,686.26,188l-.61,5.62,4.84.53.61-5.63A28.69,28.69,0,0,1,722.61,163l2.9.32.53-4.86Z"/><path class="cls-65" d="M728.94,158.78l-2.9-.31-.53,4.86,2.91.31a28.71,28.71,0,0,1,25.32,31.66l-.61,5.63,4.84.52.6-5.62A33.58,33.58,0,0,0,728.94,158.78Z"/><path class="cls-66" d="M765.81,202.91a10.24,10.24,0,0,0-6.27-4.12,8.05,8.05,0,0,0-4.11-.45l-3.95,36.5a8,8,0,0,0,4.11.45,10.22,10.22,0,0,0,7-2.69C765.43,229.75,768,206.3,765.81,202.91Z"/><path class="cls-67" d="M749.66,205l-2.4,22.18c-.4,3.67,1.35,6.56,4.22,7.7l3.95-36.5C752.38,198.84,750.05,201.29,749.66,205Z"/><path class="cls-68" d="M684.68,190.68a10.26,10.26,0,0,0-7,2.68c-2.83,2.86-5.37,26.31-3.21,29.7a10.21,10.21,0,0,0,6.27,4.12,8,8,0,0,0,4.1.44l3.95-36.49A8,8,0,0,0,684.68,190.68Z"/><path class="cls-69" d="M688.78,191.13l-3.95,36.49c3-.49,5.39-3,5.78-6.61L693,198.82C693.41,195.16,691.66,192.27,688.78,191.13Z"/><path class="cls-6" d="M733.92,200.54,710.66,198a1,1,0,0,1,.22-2l23.25,2.52a1,1,0,0,1,.89,1.09A1,1,0,0,1,733.92,200.54Z"/><path class="cls-6" d="M733.34,205.93l-23.26-2.52a1,1,0,0,1,.22-2L733.55,204a1,1,0,0,1-.21,2Z"/><path class="cls-6" d="M732.75,211.31l-23.25-2.52a1,1,0,0,1,.21-2L733,209.33a1,1,0,1,1-.22,2Z"/><path class="cls-70" d="M715.8,246l3.44.37,3.45.37a7.17,7.17,0,0,0,7.91-6.36l-21.17-2.3A7.19,7.19,0,0,0,715.8,246Z"/><path class="cls-71" d="M724.23,232.5l-3.44-.37-3.44-.38a7.2,7.2,0,0,0-7.92,6.37l21.17,2.3A7.18,7.18,0,0,0,724.23,232.5Z"/><polygon class="cls-72" points="1554.66 111.13 1545.18 99.52 1535.8 93.83 1491.34 147.77 1576 223.48 1612.79 179.24 1616.87 169.41 1601.48 158.51 1554.66 111.13"/><path class="cls-10" d="M1611.32,160.17c-3.63-2.14-5.66-1.55-7.57-2.28-1.52-.57-5-4.2-5-4.2l-42.07-42.06s-2.86-2.78-3.29-4c-1.13-3.09.51-8.17-4.3-12.12-3.57-2.93-13.1-2.94-13.33-1.7-.11.64,6.42,4.56,7.44,5.58s1.24,3.52.19,5.4c-.79,1.41-2.56,4.49-4.79,4.25s-7.87-5.58-8.58-4.86,3.36,8.49,6.06,10.09c4,2.34,6.5,1.25,8.7,2,1.25.41,4.18,3.36,4.18,3.36l41.92,41.93s3.73,3.54,4.3,5.07c1,2.77-.2,7.11,4.2,10.72,3.27,2.68,12,2.69,12.2,1.56.11-.59-5.88-4.18-6.8-5.1s-1.14-3.24-.18-5c.72-1.29,2.35-4.11,4.39-3.9s7.2,5.11,7.85,4.46S1613.8,161.63,1611.32,160.17Z"/><path class="cls-12" d="M1554.73,113.33a3.21,3.21,0,1,0-4.54,4.54l43.52,43.53a3.21,3.21,0,1,0,4.54-4.55Z"/><path class="cls-12" d="M1552.45,108.7a14.23,14.23,0,0,1-.79-3.83,8.12,8.12,0,0,1-.91,3.54c-.6.93-1.52,2.2-1.52,2.2a4.66,4.66,0,0,1,2.75-.75,11.14,11.14,0,0,1,2.68,1.27A16,16,0,0,1,1552.45,108.7Z"/><path class="cls-12" d="M1547.75,112.1s-1.28.91-2.21,1.52a11.11,11.11,0,0,1-3.44,1.24s2.83-.08,3.73.46a16.38,16.38,0,0,1,2.44,2.2,10.57,10.57,0,0,1-1.27-2.68A4.62,4.62,0,0,1,1547.75,112.1Z"/><path class="cls-12" d="M1600.45,156.59a11.44,11.44,0,0,1,1.32,2.77,4.85,4.85,0,0,1-.78,2.83s1.32-.95,2.28-1.57a8.3,8.3,0,0,1,3.65-.94,14.68,14.68,0,0,1-4-.82A16.78,16.78,0,0,1,1600.45,156.59Z"/><path class="cls-12" d="M1593.88,163.18a16.65,16.65,0,0,1,2.26,2.5c.56.94.48,3.87.48,3.87a11.66,11.66,0,0,1,1.27-3.57c.63-.95,1.57-2.26,1.57-2.26a4.76,4.76,0,0,1-2.83.77A11.48,11.48,0,0,1,1593.88,163.18Z"/><path class="cls-10" d="M1554.22,114.1a2.38,2.38,0,0,0-3.26,3.27l43.82,43.81a2.38,2.38,0,0,0,3.26-3.26Z"/><path class="cls-73" d="M1534.69,175.7c4.14,4.14,8,4.13,9.58,2.58l28.48-28.49c1.43-1.43,2.44-6.37,4.68-7.5s3.49-.66,3.49-.66l2.07-2.07-6.08-6.08Z"/><path class="cls-18" d="M1568.75,129.47s.46,1.23-.66,3.48-6.08,3.25-7.5,4.68l-28.49,28.48c-1.55,1.56-1.56,5.45,2.59,9.59l42.22-42.22-6.09-6.09Z"/><polygon class="cls-74" points="1576.91 133.48 1578.24 134.82 1616.49 96.57 1615.15 95.23 1576.91 133.48"/><polygon class="cls-75" points="1575.57 132.14 1576.9 133.48 1615.15 95.23 1613.81 93.89 1575.57 132.14"/><polygon class="cls-74" points="1607.34 103.04 1613.26 102.6 1619.84 93.75 1618.24 92.14 1607.34 103.04"/><polygon class="cls-75" points="1607.78 97.12 1607.34 103.04 1618.24 92.14 1616.63 90.53 1607.78 97.12"/><path class="cls-76" d="M1567.82,148.2l-26.25,26.26a1.47,1.47,0,0,0,2.09,2.08l26.25-26.25a1.47,1.47,0,0,0,0-2.09A1.49,1.49,0,0,0,1567.82,148.2Z"/><path class="cls-76" d="M1564,144.34l-26.25,26.25a1.49,1.49,0,0,0,0,2.09,1.47,1.47,0,0,0,2.09,0l26.26-26.25a1.48,1.48,0,1,0-2.1-2.09Z"/><path class="cls-76" d="M1560,140.37l-26.25,26.26a1.47,1.47,0,0,0,0,2.09,1.49,1.49,0,0,0,2.09,0l26.25-26.26a1.48,1.48,0,0,0-2.09-2.09Z"/><polygon class="cls-77" points="335.33 179.28 359.54 241.52 428.61 215.19 432.4 140.63 398.42 95.42 335.33 179.28"/><path class="cls-78" d="M425.19,126.75c-3.23,1.67-9.76,16-9.19,21.73s17.8,21.17,23.63,20.74c0,0,.76-5.1,5.28-14.43s5.19-21.32,3.59-23S428.41,125.08,425.19,126.75Z"/><path class="cls-15" d="M449.65,140.23a60.88,60.88,0,0,1-17.41-6.87,63.84,63.84,0,0,1-14.49-11.2c-5.06-5.25-.77-9.52-.77-9.52l-18.24-12.16s-4.91,15,7.87,28.34a76.27,76.27,0,0,0,19.27,14.85,75.37,75.37,0,0,0,22.43,8.69,30.54,30.54,0,0,0,28.74-7.84l-20-9.16S454.76,141.29,449.65,140.23Z"/><path class="cls-79" d="M449.65,140.23a60.88,60.88,0,0,1-17.41-6.87,63.84,63.84,0,0,1-14.49-11.2c-5.06-5.25-.77-9.52-.77-9.52L407,106a27.63,27.63,0,0,0,6.13,18.84,53,53,0,0,0,16.23,13.46,52.11,52.11,0,0,0,19.7,6.8,28.2,28.2,0,0,0,19.52-4.47l-11.55-5.29S454.76,141.29,449.65,140.23Z"/><path class="cls-15" d="M480,137.51,459.35,130c-1.66-.6-3.66.48-4.48,2.42s-.13,4,1.53,4.58l20.65,7.48c1.65.59,3.66-.49,4.47-2.42S481.65,138.11,480,137.51Z"/><path class="cls-15" d="M403.13,94.27c-1.39-1.08-3.5-.57-4.71,1.15s-1.07,4,.32,5.06l17.33,13.43c1.39,1.08,3.5.56,4.72-1.15s1.07-4-.32-5.06Z"/><path class="cls-11" d="M472.06,186.47a205.5,205.5,0,0,0-88,0c-7.55,1.64-12,8.61-10.08,14.95a13,13,0,0,0,15.21,8.52,181.78,181.78,0,0,1,77.7,0c6.51,1.41,13.27-2.17,15.2-8.52S479.6,188.11,472.06,186.47Z"/><path class="cls-80" d="M413.15,144.57c-.44,4.83,3.09,18.08,15.45,18.9s17.57-11.62,17.57-11.62l-28.34-14.57A10.14,10.14,0,0,0,413.15,144.57Z"/><path class="cls-78" d="M440,167.15c1.44-3.72-1.21-12.36-7-16-5-3.07-12-4.39-14.49-13.17-1.13-4,5-11.36-1.58-17.11-4-3.53-2.43,4.23-2.77,6.7-.4,2.91-4.37,12.68-5,18.34-.54,4.74,5.14,13.49,6.67,16s.72,46.24.72,46.24l24.89,1.26S438.43,171.11,440,167.15Z"/><path class="cls-81" d="M425.75,122.14c-1.91-.69-3.75,0-4.11,1.41l-3.75,15c-.37,1.46.88,3.19,2.78,3.87s3.76,0,4.13-1.41l3.74-15C428.91,124.55,427.66,122.82,425.75,122.14Z"/><path class="cls-81" d="M433,123.21a3.12,3.12,0,0,0-4.26,2l-4.57,18.25a3.93,3.93,0,0,0,2.65,4.45,3.12,3.12,0,0,0,4.26-2l4.57-18.26A3.94,3.94,0,0,0,433,123.21Z"/><path class="cls-81" d="M439.91,125.67a3.12,3.12,0,0,0-4.26,2l-4.57,18.26a3.93,3.93,0,0,0,2.64,4.45,3.12,3.12,0,0,0,4.26-2l4.57-18.25A3.94,3.94,0,0,0,439.91,125.67Z"/><path class="cls-81" d="M446.07,129c-1.64-.58-3.24.05-3.58,1.41l-3.51,14a3.24,3.24,0,0,0,2.33,3.53c1.64.58,3.24-.05,3.59-1.42l3.5-14A3.24,3.24,0,0,0,446.07,129Z"/><path class="cls-10" d="M466.92,187a181.78,181.78,0,0,1-77.7,0A13,13,0,0,0,374,195.5c-1.93,6.35,2.53,13.31,10.08,14.95a205.5,205.5,0,0,0,88,0c7.54-1.64,12-8.6,10.06-14.95S473.43,185.57,466.92,187Z"/><path class="cls-38" d="M457.92,186.3c-1.64.88-2,3-1.18,4.93a23.6,23.6,0,0,1,0,19.43c-.83,1.89-.46,4.05,1.18,4.93s4.23-.25,5.3-2.67a29.16,29.16,0,0,0,0-23.95C462.15,186.55,459.56,185.41,457.92,186.3Z"/><path class="cls-38" d="M396,186.3c-1.64-.89-4.22.25-5.29,2.67a29.2,29.2,0,0,0,0,23.95c1.08,2.42,3.66,3.55,5.3,2.67s2-3,1.18-4.93a23.68,23.68,0,0,1,0-19.43C398,189.34,397.63,187.18,396,186.3Z"/><path class="cls-82" d="M416.66,182a206.33,206.33,0,0,0-32.57,4.44c-6.38,1.39-10.53,6.59-10.5,12s4.12,10.61,10.5,12c2,.45,4.08.86,6.12,1.24.16.41.29.82.47,1.23,1.08,2.42,3.66,3.55,5.3,2.67a3.13,3.13,0,0,0,1.6-2.67,206.78,206.78,0,0,0,31,2.27v-24l-11.87-.25C416.66,189.18,416.66,182,416.66,182Z"/><circle class="cls-6" cx="838.37" cy="509.98" r="80.45" transform="translate(-115.05 742.19) rotate(-45)"/><path class="cls-8" d="M787.42,518.76a55.33,55.33,0,0,0,5.64-5.73,23.71,23.71,0,0,0,3.45-5.75,15.66,15.66,0,0,0,1.08-5.78,11.76,11.76,0,0,0-3.79-8.92c-2.54-2.39-6-3.6-10.46-3.6a16.25,16.25,0,0,0-10.13,3.1q-4,3.12-4.81,10.22l8.58.86q.25-3.78,1.85-5.4a5.74,5.74,0,0,1,4.29-1.63,5.81,5.81,0,0,1,4.28,1.55,6,6,0,0,1,1.55,4.43,9.54,9.54,0,0,1-1.78,5.28,60.89,60.89,0,0,1-7.15,7.35c-4.82,4.48-8,7.57-9.68,10.27a19.36,19.36,0,0,0-3,8.1h28.9v-8.63H780.48c.45,0,1-.75,1.77-1.57S784.7,521.25,787.42,518.76Z"/><path class="cls-8" d="M827.94,487.06h-6.51l-7.65,10.15-14.62,20.33v6.94h20.15v8.63h8.63v-8.63h5.76v-8.64h-5.76Zm-8.63,28.78H810l4.66-6.85,4.66-6.85Z"/><path class="cls-8" d="M859.13,500.2a6.47,6.47,0,0,0-1.11-2.32,5.48,5.48,0,0,0-2.24-1.71,10.81,10.81,0,0,0-3.89-.68c-2.35,0-3.8,1-6.68,3v-11.4h-5.75V513h5.75v-7.13a7.17,7.17,0,0,1,.72-3.78,7.1,7.1,0,0,1,2.15-1.92,4.89,4.89,0,0,1,2.48-.63,3.48,3.48,0,0,1,2,.5c1.36.95,1.31,3.2,1.31,5.28V513h5.76v-8.83A17.61,17.61,0,0,0,859.13,500.2Z"/><path class="cls-9" d="M784.45,560.11a59.61,59.61,0,0,0-9.39,5.42,28.93,28.93,0,0,0-8.94,9.58,14.55,14.55,0,0,0-.06,14.31,21.61,21.61,0,0,0,5.14,6.19,94.12,94.12,0,0,0,30.6,17.27,112.37,112.37,0,0,0,36.57,6,109,109,0,1,0-96-57.62,6.15,6.15,0,1,0,10.85-5.79,96.56,96.56,0,1,1,85.18,51.05,100.33,100.33,0,0,1-32.56-5.26,81.84,81.84,0,0,1-26.6-15,9.72,9.72,0,0,1-2.29-2.61,2.88,2.88,0,0,1,.11-2.84,17.23,17.23,0,0,1,5.21-5.28,47.15,47.15,0,0,1,6-3.56Z"/><path class="cls-8" d="M788.2,572a24.15,24.15,0,0,0,1.65,3.3c2.89,4.66,3.78,8.09,20.63,9.64,17.85,1.63,50.51-17.69,70.29-38.64s28.4-40.27,32.35-53.53S911,463.4,905.9,461.3s-15.81-5.39-20.71-6.75c-6-1.67-11.64,7.45-16.06,18.63s-2.56,21.64.23,22.57,6.6,2.21,8.5,5.94c2.19,4.28-9.12,25.24-16.1,31.52s-23.35,15.84-29.17,15.61-6.29-4.19-8.15-8.15-13.27-4.19-25.37,1.17-17,10.7-15.36,15.82c.24.76.49,1.59.74,2.45Z"/><path class="cls-15" d="M834.33,297.14c-5.78,0-10.45-7.51-10.42-16.73s4.75-16.69,10.54-16.66,10.45,7.51,10.42,16.73S840.12,297.16,834.33,297.14Z"/><path class="cls-15" d="M885.25,305c-6.75-3.88-14.21-13.57-11.36-22.11,6.66-20-8.9-27.09-16.6-28.57s-14.5.49-18.78,3.92c-7,5.58-4.88,15.19-1,22.93-4.21,2.43-6.24,7.65-3.82,11.53,5.28,8.47.74,19.87-2.41,26.64-5.06,10.9,2,24.43,14.27,30.6s28.28,5.51,40.61,0c6.12-2.75,11.64-6.75,14.43-12.07C906.61,326.4,897.91,312.29,885.25,305Z"/><path class="cls-83" d="M800.68,381.36a81.09,81.09,0,0,1-9.23.76,4.28,4.28,0,1,1-.23-8.55c15-.41,26.22-4.83,33.35-13.14,10.88-12.68,8.81-30.31,8.79-30.49a4.28,4.28,0,0,1,8.49-1.06c.1.87,2.53,21.6-10.79,37.12C823.91,374.34,813.71,379.49,800.68,381.36Z"/><path class="cls-84" d="M836.59,322.07a7.47,7.47,0,0,0-6.34,8.25c0,.17,1.82,16.56-8.06,28.07-4.82,5.62-11.85,9.3-20.87,11a16.66,16.66,0,0,1,1,14.88c13.23-2.13,23.72-7.55,31.15-16.21,14.22-16.57,11.63-38.62,11.51-39.55A7.43,7.43,0,0,0,836.59,322.07Z"/><path class="cls-13" d="M837.77,329.34a4.71,4.71,0,0,1-1.34-7.48A15,15,0,0,1,847.26,317l1.11,0a11.88,11.88,0,0,1,9.49,4.18C856.05,326.8,843.71,331.62,837.77,329.34Z"/><path class="cls-13" d="M845,308.45l-.1,4.83-.18,9.07,7,.13.21-11.6.1-4.49A11.63,11.63,0,0,1,845,308.45Z"/><g class="cls-36"><path class="cls-83" d="M845,309.6l-.1,4.83c2.47-.37,5.46-1.47,7-3.29l.08-3.6A11.5,11.5,0,0,1,845,309.6Z"/></g><path class="cls-13" d="M846.74,312.1h0a20.23,20.23,0,0,0,20-20.42l-.08-7.95a20.22,20.22,0,0,0-20.42-20h0a20.17,20.17,0,0,0-20,20.42l.08,7.94a20.2,20.2,0,0,0,20.42,20Z"/><path class="cls-26" d="M831.36,377.85a19.19,19.19,0,1,0,23-14.45A19.2,19.2,0,0,0,831.36,377.85Z"/><path class="cls-85" d="M845.4,301.58a5.4,5.4,0,0,1-10.62.11Z"/><path class="cls-84" d="M827.58,332.56c-1.31,3.61,2.34,7.26,6.17,7.68a7,7,0,0,0,7.68-6.17c.42-3.82-5.28-12.2-7.43-9S828.71,329.46,827.58,332.56Z"/><path class="cls-86" d="M857.86,321.18a11.81,11.81,0,0,1,2.84,7.15s-1.72,31.51,6.92,46l-36.74,3.07,1-43.62a16,16,0,0,1,4.57-11.95C836.6,328.89,851.06,320.43,857.86,321.18Z"/><path class="cls-87" d="M833.12,461.9c-3.38.17-5.06,3.35-5.35,4.25-1.58,4.94-1,10.12-4.18,18.51-2.16,5.72-4.32,6.89-5.85,11.54-1.32,4,2.36,5.3,6,3.89,1.42-.55,10.36-2.9,10.52-10,.12-5.22-.49-9.21,1.16-13.7s3.08-2,3.61-.58c.38,1,1.58,3.78,2,4.65a.66.66,0,0,0,.84.34h0a.65.65,0,0,0,.35-.9,31.65,31.65,0,0,1-1.77-9C840,465.3,836.2,461.75,833.12,461.9Z"/><path class="cls-13" d="M829.57,486.55c1.86-4.18,4.08-17,3-19.85-1.3-3.33-8.24-3.58-8.66-.58-.74,5.14,1.39,14.11-2.85,23.73C821.57,492.37,827.4,491.41,829.57,486.55Z"/><path class="cls-26" d="M856.05,399.75l-45.2,21,4.28-10.2,16.75,54.29A6.24,6.24,0,0,1,820.1,469L799.51,416a8,8,0,0,1,4-10.05l.33-.15,45-21.52a8.55,8.55,0,1,1,7.38,15.43Z"/><path class="cls-87" d="M802.75,444.83c-3.07-1.43-6,.6-6.71,1.26-3.71,3.65-5.63,8.49-12.34,14.43-4.58,4.05-7,4.08-10.56,7.48-3,2.92-.39,5.79,3.48,6.23,1.51.17,10.51,2.27,14-4,2.54-4.56,3.86-8.37,7.41-11.57s3.64-.29,3.47,1.17c-.12,1-.37,4.08-.42,5a.65.65,0,0,0,.58.69h0a.66.66,0,0,0,.74-.63,31.71,31.71,0,0,1,2.65-8.83C807.25,451.05,805.54,446.13,802.75,444.83Z"/><path class="cls-13" d="M788.11,465c3.6-2.83,11.54-13.15,11.89-16.17.41-3.54-5.61-7-7.39-4.55-3,4.2-5.35,13.13-13.59,19.66C778.31,466.4,783.92,468.27,788.11,465Z"/><path class="cls-26" d="M852.89,401.12l-49.79-2.5,8.55-7-10.51,55.84a6.24,6.24,0,0,1-12.34-1.87l6.48-56.45a8,8,0,0,1,8.19-7l.36,0L853.65,384a8.55,8.55,0,1,1-.67,17.09Z"/><path class="cls-13" d="M856.45,382.11a67.82,67.82,0,0,1-7,.79,4.27,4.27,0,1,1-.54-8.53c7.92-.52,17.9-2.46,20.45-8.84,4-10.06-9.86-28.39-15.05-34a4.28,4.28,0,1,1,6.29-5.8c2.42,2.62,23.45,26.14,16.7,43C874.47,375.76,867.47,380.25,856.45,382.11Z"/><path class="cls-88" d="M862.89,323.6a7.4,7.4,0,0,0-11,.16,7.65,7.65,0,0,0,.35,10.09c5.9,6.5,17.36,22.75,14.25,30.51a7.17,7.17,0,0,1-3.07,3.31,7.4,7.4,0,0,0-3.52,7.69l0,.15a7.27,7.27,0,0,0,10.63,5.13,21.5,21.5,0,0,0,9.68-10.77C887.51,351.62,867.06,328.12,862.89,323.6Z"/><path class="cls-13" d="M831.21,378a10.18,10.18,0,0,0,3,6.42l15.63-1.28a10.28,10.28,0,1,0-18.6-5.14Z"/><path class="cls-83" d="M778,379.92a10.29,10.29,0,0,0,2.71,6.55l15.67-.63A10.28,10.28,0,1,0,778,379.92Z"/><path class="cls-15" d="M870.12,279.69c-2.26,6.46-12.44,8.77-22.73,5.16s-16.79-11.77-14.53-18.23,12.45-8.76,22.74-5.16S872.39,273.24,870.12,279.69Z"/><path class="cls-26" d="M859.31,383.89a2.57,2.57,0,0,0-2.57-2.57H763.58c-2,0-3.55,1.15-3.55,2.57s1.59,2.58,3.55,2.58h93.16a2.58,2.58,0,0,0,2.57-2.58Z"/><path class="cls-12" d="M863,383.89a2.69,2.69,0,0,1-2.78,2.58H824.82a2.58,2.58,0,1,1,0-5.15h35.37A2.68,2.68,0,0,1,863,383.89Z"/><path class="cls-12" d="M760.17,333.11v47a3.79,3.79,0,0,0,3.79,3.79h62a3.79,3.79,0,0,0,3.79-3.79v-47a3.79,3.79,0,0,0-3.79-3.79H764A3.79,3.79,0,0,0,760.17,333.11Z"/><path class="cls-8" d="M757.28,333.11v47a3.79,3.79,0,0,0,3.79,3.79h62a3.79,3.79,0,0,0,3.79-3.79v-47a3.79,3.79,0,0,0-3.79-3.79h-62A3.79,3.79,0,0,0,757.28,333.11Z"/><path class="cls-6" d="M802.28,356.6h0a4,4,0,0,0-4-4H785.83a4,4,0,0,0-4,4h0a4,4,0,0,0,4,4h12.46A4,4,0,0,0,802.28,356.6Z"/></g></g></g></svg>
