<svg xmlns="http://www.w3.org/2000/svg" xmlns:xlink="http://www.w3.org/1999/xlink" viewBox="0 0 1932.6 733.06"><defs><style>.cls-1,.cls-41,.cls-51,.cls-71{fill:none;}.cls-2{isolation:isolate;}.cls-3{opacity:0.47;}.cls-4{fill:#e0e4f0;}.cls-5{opacity:0.5;}.cls-6{clip-path:url(#clip-path);}.cls-7{opacity:0.75;fill:url(#linear-gradient);}.cls-8{fill:url(#linear-gradient-2);}.cls-9{fill:url(#linear-gradient-3);}.cls-10{fill:#ffd7cf;}.cls-11{fill:#b2b8fa;}.cls-12{fill:#191c3c;}.cls-13{fill:#81b7fb;}.cls-14{fill:#4d8bd7;}.cls-15{fill:#f1f2ff;}.cls-16{fill:#7790b7;}.cls-17{fill:#d1ddff;}.cls-18,.cls-54,.cls-58,.cls-59,.cls-70{fill:#fff;}.cls-19{fill:#d7ddfb;}.cls-20{fill:#8ec2fe;}.cls-21{fill:#8592c8;}.cls-22{fill:#41446b;}.cls-23,.cls-39{fill:#c8c8c8;}.cls-23{opacity:0.44;}.cls-23,.cls-35,.cls-39{mix-blend-mode:multiply;}.cls-24{fill:#1f2e3b;}.cls-25{fill:#c6cbe9;}.cls-26,.cls-69{fill:#6e8adb;}.cls-27{fill:#ebb28b;}.cls-28{fill:#ff65a7;}.cls-29{fill:#f2f7ff;}.cls-30{fill:#f0bc99;}.cls-31{fill:#21283a;}.cls-32{fill:#f0af74;}.cls-33{fill:#4f5977;}.cls-34{fill:#4568af;}.cls-35{fill:#b8b8b8;opacity:0.12;}.cls-36{fill:#fec55e;}.cls-37{fill:#92a6dd;}.cls-38{fill:#4563cc;}.cls-39{opacity:0.23;}.cls-40{fill:#ebedfd;}.cls-41,.cls-71{stroke:#fff;}.cls-41,.cls-51{stroke-linecap:round;stroke-linejoin:round;}.cls-41{stroke-width:2.21px;}.cls-42{fill:#83b9fd;}.cls-43{fill:#c8cdeb;}.cls-44{fill:url(#linear-gradient-4);}.cls-45{fill:#fed65c;}.cls-46{fill:#6285bc;}.cls-47{fill:#feb834;}.cls-48{fill:#c7cdf9;}.cls-49{fill:#264463;}.cls-50,.cls-73{fill:#f066a4;}.cls-51{stroke:#f066a4;stroke-width:1.5px;}.cls-52{fill:#d38e20;}.cls-53{fill:url(#linear-gradient-5);}.cls-54{font-size:36.02px;}.cls-54,.cls-58,.cls-59,.cls-75{font-family:Montserrat-SemiBold, Montserrat SemiBold;font-weight:600;}.cls-55{letter-spacing:-0.01em;}.cls-56{letter-spacing:0em;}.cls-57{fill:#e298bb;}.cls-58{font-size:37.91px;}.cls-59{font-size:20.47px;}.cls-60,.cls-69,.cls-70,.cls-73,.cls-74{fill-rule:evenodd;}.cls-60{fill:url(#linear-gradient-6);}.cls-61{fill:#e9f0ff;}.cls-62{fill:#ccccd1;}.cls-63{fill:url(#linear-gradient-7);}.cls-64{fill:#a2e4fe;}.cls-65{fill:#e2e2e7;}.cls-66{fill:#6f8bd8;}.cls-67{fill:#a1a9d6;}.cls-68{fill:#dd5093;}.cls-71{stroke-miterlimit:10;stroke-width:0.7px;}.cls-72{fill:#e1e3ef;}.cls-74{fill:url(#linear-gradient-8);}.cls-75{font-size:15.63px;fill:#fafeff;}.cls-76{letter-spacing:-0.01em;}.cls-77{letter-spacing:0.01em;}</style><clipPath id="clip-path" transform="translate(0 -87.69)"><rect class="cls-1" x="34.54" width="1055.21" height="821.15"/></clipPath><linearGradient id="linear-gradient" x1="826.98" y1="742.35" x2="826.98" y2="509.25" gradientUnits="userSpaceOnUse"><stop offset="0" stop-color="#fff"/><stop offset="0.29" stop-color="#eff1f7"/><stop offset="0.63" stop-color="#e4e6f1"/><stop offset="1" stop-color="#e0e3ef"/></linearGradient><linearGradient id="linear-gradient-2" x1="216.72" y1="398.37" x2="212.41" y2="407.29" gradientUnits="userSpaceOnUse"><stop offset="0" stop-color="#fff"/><stop offset="0.15" stop-color="#f1f6fb"/><stop offset="0.42" stop-color="#deeaf7"/><stop offset="0.7" stop-color="#d3e3f4"/><stop offset="1" stop-color="#cfe1f3"/></linearGradient><linearGradient id="linear-gradient-3" x1="314.72" y1="402.75" x2="308.2" y2="416.25" xlink:href="#linear-gradient-2"/><linearGradient id="linear-gradient-4" x1="1803.92" y1="359.57" x2="1883.66" y2="359.57" gradientUnits="userSpaceOnUse"><stop offset="0" stop-color="#fec55e"/><stop offset="1" stop-color="#ffa000"/></linearGradient><linearGradient id="linear-gradient-5" x1="885.78" y1="244.21" x2="1002.73" y2="244.21" xlink:href="#linear-gradient-4"/><linearGradient id="linear-gradient-6" x1="492.09" y1="535.38" x2="531" y2="535.38" xlink:href="#linear-gradient-4"/><linearGradient id="linear-gradient-7" x1="715.59" y1="659.24" x2="728.64" y2="659.24" gradientUnits="userSpaceOnUse"><stop offset="0" stop-color="#7f41db"/><stop offset="1" stop-color="#03f3f8"/></linearGradient><linearGradient id="linear-gradient-8" x1="309.35" y1="490.01" x2="343.32" y2="490.01" xlink:href="#linear-gradient-4"/></defs><title>BlueSky Perth</title><g class="cls-2"><g id="Layer_2" data-name="Layer 2"><g id="Layer_1-2" data-name="Layer 1"><g class="cls-3"><path class="cls-4" d="M1081.6,741.75c0-65-16.08-126.75-45-182.53a124.82,124.82,0,0,0,16.29-61.45c0-78.18-73.73-141.55-164.69-141.55a189.73,189.73,0,0,0-49,6.35c-81-44.32-177.12-70-280.25-70q-19.28,0-38.19,1.18c-22.53-14.6-50.56-23.27-81-23.27-57.41,0-106.39,30.9-125.74,74.4a531.09,531.09,0,0,0-109,66.39,172.47,172.47,0,0,0-33.09-3.21c-82.4,0-149.19,57.41-149.19,128.24,0,30.86,12.69,59.17,33.82,81.3A390.78,390.78,0,0,0,36.46,741.75Z" transform="translate(0 -87.69)"/></g><g class="cls-3"><path class="cls-4" d="M1932.6,743.75c0-65.27-16.08-127.29-45-183.3a125.8,125.8,0,0,0,16.29-61.71c0-78.51-73.73-142.16-164.69-142.16a188.87,188.87,0,0,0-49,6.39c-81-44.51-177.12-70.31-280.25-70.31q-19.27,0-38.19,1.19c-22.53-14.67-50.56-23.37-80.95-23.37-57.41,0-106.39,31-125.74,74.72a530.77,530.77,0,0,0-109,66.66,172.47,172.47,0,0,0-33.09-3.22c-82.4,0-149.19,57.66-149.19,128.79,0,31,12.69,59.42,33.82,81.64a394,394,0,0,0-20.23,124.68Z" transform="translate(0 -87.69)"/></g><g class="cls-3"><path class="cls-4" d="M481,741.75c0-89.18-107.67-161.48-240.48-161.48S0,652.57,0,741.75Z" transform="translate(0 -87.69)"/></g><g class="cls-3"><path class="cls-4" d="M963,739.75c0-88.08-107.66-159.48-240.47-159.48S482,651.67,482,739.75Z" transform="translate(0 -87.69)"/></g><g class="cls-3"><path class="cls-4" d="M1441.78,743.75c0-90.29-107.66-163.48-240.47-163.48S960.83,653.46,960.83,743.75Z" transform="translate(0 -87.69)"/></g><g class="cls-3"><path class="cls-4" d="M1920.6,743.75c0-90.29-107.66-163.48-240.47-163.48s-240.47,73.19-240.47,163.48Z" transform="translate(0 -87.69)"/></g><g class="cls-5"><circle class="cls-4" cx="731.36" cy="282.67" r="15.82" transform="translate(288.89 842.3) rotate(-76.78)"/></g><g class="cls-5"><circle class="cls-4" cx="1371.36" cy="231.67" r="15.82" transform="translate(832.16 1426) rotate(-76.78)"/></g><g class="cls-5"><path class="cls-4" d="M464.83,221.41a20.49,20.49,0,1,1-20.48-20.49A20.48,20.48,0,0,1,464.83,221.41Z" transform="translate(0 -87.69)"/></g><g class="cls-5"><path class="cls-4" d="M1523.83,236.41a20.49,20.49,0,1,1-20.48-20.49A20.48,20.48,0,0,1,1523.83,236.41Z" transform="translate(0 -87.69)"/></g><g class="cls-5"><path class="cls-4" d="M1158.83,306.41a20.49,20.49,0,1,1-20.48-20.49A20.48,20.48,0,0,1,1158.83,306.41Z" transform="translate(0 -87.69)"/></g><g class="cls-5"><path class="cls-4" d="M227.17,355.55a10.44,10.44,0,1,1-10.44-10.44A10.44,10.44,0,0,1,227.17,355.55Z" transform="translate(0 -87.69)"/></g><g class="cls-5"><circle class="cls-4" cx="321.36" cy="191.15" r="10.44"/></g><g class="cls-5"><circle class="cls-4" cx="1762.36" cy="219.15" r="10.44"/></g><g class="cls-5"><path class="cls-4" d="M827.49,304.44a9.32,9.32,0,1,1-9.32-9.32A9.31,9.31,0,0,1,827.49,304.44Z" transform="translate(0 -87.69)"/></g><g class="cls-5"><path class="cls-4" d="M528.83,229.81a3.22,3.22,0,1,1-3.22-3.22A3.22,3.22,0,0,1,528.83,229.81Z" transform="translate(0 -87.69)"/></g><g class="cls-5"><circle class="cls-4" cx="257.92" cy="226.15" r="4.19"/></g><g class="cls-5"><path class="cls-4" d="M112.12,405a5.57,5.57,0,1,1-5.57-5.57A5.57,5.57,0,0,1,112.12,405Z" transform="translate(0 -87.69)"/></g><g class="cls-5"><path class="cls-4" d="M570.49,243.82a5.57,5.57,0,1,1-5.56-5.57A5.57,5.57,0,0,1,570.49,243.82Z" transform="translate(0 -87.69)"/></g><g class="cls-5"><path class="cls-4" d="M1233.49,234.82a5.57,5.57,0,1,1-5.56-5.57A5.57,5.57,0,0,1,1233.49,234.82Z" transform="translate(0 -87.69)"/></g><g class="cls-5"><circle class="cls-4" cx="162.03" cy="387.54" r="23.62" transform="translate(-246.47 397.71) rotate(-80.78)"/></g><g class="cls-5"><circle class="cls-4" cx="1035.03" cy="361.54" r="23.62" transform="translate(512.36 1237.6) rotate(-80.78)"/></g><g class="cls-5"><path class="cls-4" d="M37,663.18a5.57,5.57,0,1,1-5.57-5.57A5.57,5.57,0,0,1,37,663.18Z" transform="translate(0 -87.69)"/></g><g class="cls-5"><circle class="cls-4" cx="645.25" cy="179.74" r="22.89"/></g><g class="cls-5"><circle class="cls-4" cx="1639.25" cy="180.74" r="22.89"/></g><g class="cls-5"><circle class="cls-4" cx="910.25" cy="236.74" r="22.89"/></g><g class="cls-5"><circle class="cls-4" cx="29.04" cy="465.05" r="18.12" transform="translate(-175.76 -41.18) rotate(-22.5)"/></g><g class="cls-5"><path class="cls-4" d="M1870.17,370.55a10.44,10.44,0,1,1-10.44-10.44A10.44,10.44,0,0,1,1870.17,370.55Z" transform="translate(0 -87.69)"/></g><g class="cls-6"><path class="cls-7" d="M1094.69,616.26v9.88h-12.31V446.52l-25.91,5.9v100h-5.34v9.91h-10V672h-5.34V552.18l-78.16,3.88V566.9h-2.75V623h-7.12V579.36h-4.3V551.07H917.75v28.29H913V537.28h-.91v42.08h-8.2V577h-1.74l-1-14.59h-.76l-1,14.59h-1.74v39.23h-8.93l-7.1-47.35-4.55-42.79-23.58-.21V502.76H845v23l-5.94-.13L835.77,571h-1.69v4.25l-1.66,4.14v85.7H823V616.91h-3.55V599.25h-2.28l-1.25-15.44h-1l-1.25,15.44h-2.28v17.66h-1.84V606.7h-6.86v-38H791.23V546.87h-4v-12h-3.63v-1.24h-1.48v-2.23h-2.71v-16.7h-6.17v16.7h-2.71v2.23H769.1v1.24h-3.63v12H761V535.12h-6.33v11.75h-11.9v13.31h-6.33V470.51H724v27H699.61l-2.16,133.1-29.36,10v-113H656.53V510h-5.4v17.56H629.37v64.31l-3.4,3.51v-5.92H611.19V565.84h-2.72L607,533.6h-1.19l-1.49,32.24h-2.72v23.62h-3.73v-2.71h-8.62L576.41,688V617.34L546.77,617V820.75H1107.2V616.26Zm-488.94-26.8h-1.29V568.85h1.29Zm2.56,0H607V568.85h1.28Zm45.16-61.9h-.72v-1.77h.72Zm1.44,0h-.72v-1.77h.72ZM776,530.81h-.82v-15H776Zm1.65,0h-.82v-15h.82Zm37.24,85.45h-1.08V600.43h1.08Zm2.14,0h-1.07V600.43H817ZM848.7,525.8l-1.15,0V520.1h1.15Zm2.29.05-1.15,0V520.1H851Zm49.4,53.51h-.82v-1.21h.82Zm1.64,0h-.82v-1.21H902Z" transform="translate(0 -87.69)"/><path class="cls-8" d="M201.31,403.73s2-4.11,2.2-4.72,3.51-.51,9.76,0,12.47,7.38,12.47,7.38l-8.81,5.43Z" transform="translate(0 -87.69)"/><path class="cls-9" d="M306.76,405.45l5.89-1.48A11.77,11.77,0,0,1,315,414.2c-1.4,6.19-1.4,3.76-1.4,3.76l-5.71,1.7Z" transform="translate(0 -87.69)"/><path class="cls-10" d="M315.33,420.86c2.73,1.78,6.68,3.35,8.31,3.35s3.86-2.44,4.47-3.35-.71-1.52-1.52-1.63-.71-2.38-2.14-2.26-.94-1.06-2.65-1-1-.82-2.63-.92-2.6,1.52-3.84,2.64S314,420,315.33,420.86Z" transform="translate(0 -87.69)"/></g><path class="cls-11" d="M569.55,720.11c-.51,0-13.39-1.51-14-13.49s7.63-14.94,5.47-28.28-7.83-17.17,4.87-26.9c0,0,5.66-3.92,5.93-9.41.31-6.58,11.67-14.22,19.29-9.83s5.83,11.17-.69,22.14-.24,12.89,1,16.44,4.17,7.27-2.49,15.75,1.27,18.83-4.4,27C584.56,713.48,579.59,719.5,569.55,720.11Z" transform="translate(0 -87.69)"/><path class="cls-12" d="M571.56,738.47a.53.53,0,0,0,.4-.62c-6.92-36.57,7.19-86.43,7.33-86.93a.54.54,0,1,0-1-.29c-.15.5-14.32,50.61-7.36,87.42a.55.55,0,0,0,.64.43Z" transform="translate(0 -87.69)"/><path class="cls-12" d="M574.45,670.5l.09,0a.53.53,0,0,0,.27-.71,74.42,74.42,0,0,1-4.08-12,.54.54,0,0,0-1.06.23,74.11,74.11,0,0,0,4.15,12.26A.55.55,0,0,0,574.45,670.5Z" transform="translate(0 -87.69)"/><path class="cls-12" d="M572.59,681.56a.53.53,0,0,0,.21-.11c2.74-2.26,9.62-6.52,9.69-6.56a.55.55,0,0,0,.17-.75.54.54,0,0,0-.75-.18c-.28.18-7,4.34-9.8,6.65a.55.55,0,0,0,.48.95Z" transform="translate(0 -87.69)"/><path class="cls-12" d="M571.05,692.33l.11-.05a.54.54,0,0,0,.24-.73L567.57,684a.55.55,0,0,0-.74-.24.54.54,0,0,0-.23.73l3.83,7.58A.55.55,0,0,0,571.05,692.33Z" transform="translate(0 -87.69)"/><path class="cls-11" d="M601.69,728.33c-.26,0-6.66-.76-7-6.72s3.79-7.43,2.71-14.06-3.89-8.54,2.43-13.39c0,0,2.81-1.95,3-4.68.15-3.27,5.8-7.07,9.59-4.89s2.9,5.56-.34,11-.12,6.41.5,8.18,2.07,3.61-1.24,7.83S612,721,609.16,725A10.92,10.92,0,0,1,601.69,728.33Z" transform="translate(0 -87.69)"/><path class="cls-12" d="M602.69,737.46a.28.28,0,0,0,.2-.31c-3.44-18.19,3.57-43,3.64-43.24a.27.27,0,1,0-.52-.15c-.07.25-7.12,25.17-3.65,43.49a.26.26,0,0,0,.31.21Z" transform="translate(0 -87.69)"/><path class="cls-12" d="M604.13,703.64h0a.27.27,0,0,0,.14-.36,35.79,35.79,0,0,1-2-6,.27.27,0,1,0-.52.11,36.71,36.71,0,0,0,2.06,6.1A.28.28,0,0,0,604.13,703.64Z" transform="translate(0 -87.69)"/><path class="cls-12" d="M603.2,709.15a.3.3,0,0,0,.11-.06c1.36-1.12,4.78-3.24,4.81-3.26a.27.27,0,1,0-.28-.46c-.14.09-3.49,2.16-4.88,3.3a.29.29,0,0,0,0,.39A.3.3,0,0,0,603.2,709.15Z" transform="translate(0 -87.69)"/><path class="cls-12" d="M602.43,714.5l.06,0a.28.28,0,0,0,.12-.36l-1.91-3.77a.27.27,0,1,0-.48.25l1.9,3.76A.27.27,0,0,0,602.43,714.5Z" transform="translate(0 -87.69)"/><path class="cls-13" d="M1499.55,720.11c-.51,0-13.39-1.51-14-13.49s7.63-14.94,5.47-28.28-7.83-17.17,4.87-26.9c0,0,5.66-3.92,5.93-9.41.31-6.58,11.67-14.22,19.29-9.83s5.83,11.17-.69,22.14-.24,12.89,1,16.44,4.17,7.27-2.49,15.75,1.27,18.83-4.4,27C1514.56,713.48,1509.59,719.5,1499.55,720.11Z" transform="translate(0 -87.69)"/><path class="cls-14" d="M1501.56,738.47a.53.53,0,0,0,.4-.62c-6.92-36.57,7.19-86.43,7.33-86.93a.54.54,0,1,0-1-.29c-.15.5-14.32,50.61-7.36,87.42a.55.55,0,0,0,.64.43Z" transform="translate(0 -87.69)"/><path class="cls-14" d="M1504.45,670.5l.09,0a.53.53,0,0,0,.27-.71,74.42,74.42,0,0,1-4.08-12,.54.54,0,0,0-1.06.23,74.11,74.11,0,0,0,4.15,12.26A.55.55,0,0,0,1504.45,670.5Z" transform="translate(0 -87.69)"/><path class="cls-14" d="M1502.59,681.56a.53.53,0,0,0,.21-.11c2.74-2.26,9.62-6.52,9.69-6.56a.55.55,0,0,0,.17-.75.54.54,0,0,0-.75-.18c-.28.18-7,4.34-9.8,6.65a.55.55,0,0,0,.48.95Z" transform="translate(0 -87.69)"/><path class="cls-14" d="M1501.05,692.33l.11-.05a.54.54,0,0,0,.24-.73l-3.83-7.57a.55.55,0,0,0-.74-.24.54.54,0,0,0-.23.73l3.83,7.58A.55.55,0,0,0,1501.05,692.33Z" transform="translate(0 -87.69)"/><path class="cls-13" d="M1531.69,728.33c-.26,0-6.66-.76-7-6.72s3.79-7.43,2.71-14.06-3.89-8.54,2.43-13.39c0,0,2.81-1.95,2.95-4.68.15-3.27,5.8-7.07,9.59-4.89s2.9,5.56-.34,11-.12,6.41.5,8.18,2.07,3.61-1.24,7.83.63,9.37-2.18,13.41A10.92,10.92,0,0,1,1531.69,728.33Z" transform="translate(0 -87.69)"/><path class="cls-14" d="M1532.69,737.46a.28.28,0,0,0,.2-.31c-3.44-18.19,3.57-43,3.64-43.24a.27.27,0,1,0-.52-.15c-.07.25-7.12,25.17-3.65,43.49a.26.26,0,0,0,.31.21Z" transform="translate(0 -87.69)"/><path class="cls-14" d="M1534.13,703.64h0a.27.27,0,0,0,.14-.36,35.79,35.79,0,0,1-2-6,.27.27,0,1,0-.52.11,36.71,36.71,0,0,0,2.06,6.1A.28.28,0,0,0,1534.13,703.64Z" transform="translate(0 -87.69)"/><path class="cls-14" d="M1533.2,709.15a.3.3,0,0,0,.11-.06c1.36-1.12,4.78-3.24,4.81-3.26a.27.27,0,0,0-.28-.46c-.14.09-3.49,2.16-4.88,3.3a.29.29,0,0,0,0,.39A.3.3,0,0,0,1533.2,709.15Z" transform="translate(0 -87.69)"/><path class="cls-14" d="M1532.43,714.5l.06,0a.28.28,0,0,0,.12-.36l-1.91-3.77a.27.27,0,1,0-.48.25l1.9,3.76A.27.27,0,0,0,1532.43,714.5Z" transform="translate(0 -87.69)"/><path class="cls-15" d="M1571.28,289.12l160.89.67A37.1,37.1,0,0,1,1769,329.5L1742.9,700.07a36.53,36.53,0,0,1-36.43,34H1542.91a36.52,36.52,0,0,1-36.42-39.24l27.64-371.32A37.1,37.1,0,0,1,1571.28,289.12Z" transform="translate(0 -87.69)"/><path class="cls-16" d="M1571.28,289.12l160.89.67A37.1,37.1,0,0,1,1769,329.5L1742.9,700.07a36.53,36.53,0,0,1-36.43,34H1542.91a36.52,36.52,0,0,1-36.42-39.24l27.64-371.32A37.1,37.1,0,0,1,1571.28,289.12Z" transform="translate(0 -87.69)"/><path class="cls-17" d="M1553.2,289.12l160.89.67a37.1,37.1,0,0,1,36.85,39.71l-26.11,370.57a36.53,36.53,0,0,1-36.44,34H1524.83a36.52,36.52,0,0,1-36.42-39.24l27.64-371.32A37.1,37.1,0,0,1,1553.2,289.12Z" transform="translate(0 -87.69)"/><polygon class="cls-18" points="1541.04 235.38 1725.03 235.38 1702.89 588.84 1518.21 590.22 1541.04 235.38"/><path class="cls-16" d="M1602.38,722.27A18.28,18.28,0,1,1,1620.65,704,18.29,18.29,0,0,1,1602.38,722.27Zm0-34a15.7,15.7,0,1,0,15.7,15.69A15.71,15.71,0,0,0,1602.38,688.3Z" transform="translate(0 -87.69)"/><path class="cls-16" d="M1649.91,310h-30.86a3.13,3.13,0,0,1-3.13-3.13h0a3.13,3.13,0,0,1,3.13-3.13h30.86a3.14,3.14,0,0,1,3.13,3.13h0A3.13,3.13,0,0,1,1649.91,310Z" transform="translate(0 -87.69)"/><path class="cls-19" d="M1702.47,414.17H1553.12a6.8,6.8,0,0,1-6.79-7.13l2-40.51a6.8,6.8,0,0,1,6.8-6.46h149.34a6.8,6.8,0,0,1,6.8,7.13l-2,40.51A6.79,6.79,0,0,1,1702.47,414.17Z" transform="translate(0 -87.69)"/><path class="cls-20" d="M1661.26,414.3h41.22a6.76,6.76,0,0,0,6.75-6.42l2-40.71a6.75,6.75,0,0,0-6.75-7.1H1663.3a6.76,6.76,0,0,0-6.76,6.42l-2,40.71A6.77,6.77,0,0,0,1661.26,414.3Z" transform="translate(0 -87.69)"/><path class="cls-21" d="M1647.35,373.83H1562.4a1,1,0,1,1,0-2h84.95a1,1,0,1,1,0,2Z" transform="translate(0 -87.69)"/><path class="cls-21" d="M1646.68,387.38h-85a1,1,0,1,1,0-2h85a1,1,0,1,1,0,2Z" transform="translate(0 -87.69)"/><path class="cls-21" d="M1603,400.94h-42a1,1,0,1,1,0-2h42a1,1,0,0,1,0,2Z" transform="translate(0 -87.69)"/><path class="cls-19" d="M1697.19,490.75H1547.84a6.79,6.79,0,0,1-6.79-7.14l2-40.5a6.8,6.8,0,0,1,6.79-6.47h149.35a6.8,6.8,0,0,1,6.79,7.14l-2,40.51A6.8,6.8,0,0,1,1697.19,490.75Z" transform="translate(0 -87.69)"/><path class="cls-20" d="M1656,490.88h41.21a6.77,6.77,0,0,0,6.76-6.43l2-40.71a6.77,6.77,0,0,0-6.76-7.1H1658a6.76,6.76,0,0,0-6.75,6.43l-2,40.71A6.77,6.77,0,0,0,1656,490.88Z" transform="translate(0 -87.69)"/><path class="cls-21" d="M1642.07,450.41h-85a1,1,0,1,1,0-2h85a1,1,0,0,1,0,2Z" transform="translate(0 -87.69)"/><path class="cls-21" d="M1641.4,464h-85a1,1,0,1,1,0-2h85a1,1,0,0,1,0,2Z" transform="translate(0 -87.69)"/><path class="cls-21" d="M1597.74,477.52h-42a1,1,0,0,1,0-2h42a1,1,0,0,1,0,2Z" transform="translate(0 -87.69)"/><polygon class="cls-16" points="1541.04 235.38 1518.21 590.22 1514.48 590.22 1537.37 235.38 1541.04 235.38"/><path class="cls-18" d="M1697.51,388.55a16.91,16.91,0,1,1-15.71-18A16.9,16.9,0,0,1,1697.51,388.55Z" transform="translate(0 -87.69)"/><path class="cls-20" d="M1677.61,393.89a1.51,1.51,0,0,1-1-.43l-5.68-5.58a1.52,1.52,0,1,1,2.13-2.17l4.72,4.64,10.83-8.73a1.52,1.52,0,0,1,1.9,2.37l-11.88,9.57A1.49,1.49,0,0,1,1677.61,393.89Z" transform="translate(0 -87.69)"/><path class="cls-18" d="M1693.54,465.13a16.92,16.92,0,1,1-15.71-18A16.91,16.91,0,0,1,1693.54,465.13Z" transform="translate(0 -87.69)"/><path class="cls-20" d="M1673.64,470.47a1.54,1.54,0,0,1-1-.43l-5.68-5.59a1.52,1.52,0,1,1,2.13-2.16l4.71,4.63,10.83-8.72a1.52,1.52,0,0,1,1.91,2.37l-11.89,9.57A1.55,1.55,0,0,1,1673.64,470.47Z" transform="translate(0 -87.69)"/><path class="cls-11" d="M1345,602.22s-2.17-3.37-7.77-25.93-20.23-44.08-43.06-36.08-16.26,34.59-5,77.53c8,30.65-24.75,54.44,18.44,78.26,26.16,14.43,71.62-5,62.69-48.61A59,59,0,0,0,1359.23,623,164.54,164.54,0,0,1,1345,602.22Z" transform="translate(0 -87.69)"/><path class="cls-12" d="M1327,736.78a1,1,0,0,1-.75-1.11c10.38-66.42-18-155.62-18.26-156.52a1,1,0,0,1,.64-1.23,1,1,0,0,1,1.23.63c.29.9,28.78,90.55,18.33,157.42a1,1,0,0,1-1.12.82Z" transform="translate(0 -87.69)"/><path class="cls-12" d="M1317.81,614.21l-.16-.05a1,1,0,0,1-.54-1.28c.05-.12,4.87-12,6.68-22a1,1,0,1,1,1.94.35c-1.85,10.23-6.75,22.25-6.8,22.37A1,1,0,0,1,1317.81,614.21Z" transform="translate(0 -87.69)"/><path class="cls-12" d="M1321.81,634.07a1,1,0,0,1-.39-.18c-5.07-3.92-17.73-11.21-17.86-11.29a1,1,0,0,1,1-1.7c.53.3,12.91,7.43,18.08,11.44a1,1,0,0,1,.18,1.37A1,1,0,0,1,1321.81,634.07Z" transform="translate(0 -87.69)"/><path class="cls-12" d="M1325.22,653.43l-.2-.07a1,1,0,0,1-.48-1.31l6.48-13.89a1,1,0,0,1,1.79.83l-6.49,13.89A1,1,0,0,1,1325.22,653.43Z" transform="translate(0 -87.69)"/><polygon class="cls-22" points="1787.4 493.46 1781.72 516.05 1849.96 519.71 1847.65 491.39 1787.4 493.46"/><polygon class="cls-22" points="1815.43 508.17 1795.58 575.22 1795.98 676.51 1771.75 677.02 1767.06 573.68 1783.28 509.96 1815.43 508.17"/><polygon class="cls-23" points="1812.61 517.71 1796.87 516.21 1808.43 531.83 1812.61 517.71"/><polygon class="cls-22" points="1849.8 515.1 1854.39 578.02 1873.55 681.85 1849.59 686.78 1826.43 580.86 1818.43 508.29 1849.8 515.1"/><path class="cls-24" d="M1778.66,764.4l13.2-.09.34,18.9-37.51.25h0a6.68,6.68,0,0,1,5.16-6l18.57-4.54Z" transform="translate(0 -87.69)"/><rect class="cls-25" x="1754.69" y="783.34" width="37.51" height="2.92" transform="translate(-5.13 -76) rotate(-0.38)"/><path class="cls-18" d="M1787.87,772.22a2.88,2.88,0,1,1-2.89-2.86A2.86,2.86,0,0,1,1787.87,772.22Z" transform="translate(0 -87.69)"/><path class="cls-24" d="M1856.53,771.84l13.08-1.73,2.7,18.71-37.19,4.93h0a6.67,6.67,0,0,1,4.37-6.61l17.86-6.83Z" transform="translate(0 -87.69)"/><rect class="cls-25" x="1835.15" y="791.27" width="37.51" height="2.92" transform="translate(-88.06 162.7) rotate(-7.55)"/><path class="cls-18" d="M1866.64,778.45a2.88,2.88,0,1,1-3.23-2.48A2.87,2.87,0,0,1,1866.64,778.45Z" transform="translate(0 -87.69)"/><path class="cls-26" d="M1759.82,546.35c-.26,0-.53-.05-.79-.09l-61.61-9.15,3-20.14,55.19,8.2c11-16.67,27.76-36.17,27.76-36.17-.12.25.62.88,0,0l19.42,2c.87,4.91-3.41,4.94-33.77,50.8A10.18,10.18,0,0,1,1759.82,546.35Z" transform="translate(0 -87.69)"/><path class="cls-26" d="M1817.81,483.74l2,.33a22.26,22.26,0,0,1,18,16.68l14.1,80.31c-30,16.34-67.92.18-67.92.18l-7.29-74.91a19.56,19.56,0,0,1,10.74-19.94h0Z" transform="translate(0 -87.69)"/><polygon class="cls-27" points="1811.04 403.19 1794.16 401.79 1796.91 363.47 1813.79 364.87 1811.04 403.19"/><path class="cls-27" d="M1790,486.16l25.79-2.26s-.19,15.07-15.74,14.85C1785.85,498.55,1790,486.16,1790,486.16Z" transform="translate(0 -87.69)"/><path class="cls-18" d="M1698.4,527a10.94,10.94,0,1,1-9-12.62A11,11,0,0,1,1698.4,527Z" transform="translate(0 -87.69)"/><path class="cls-18" d="M1704.41,533.56l-11.22-1.9a5.43,5.43,0,0,1-4.43-6.24h0A5.43,5.43,0,0,1,1695,521l11.22,1.9a5.44,5.44,0,0,1,4.43,6.24h0A5.43,5.43,0,0,1,1704.41,533.56Z" transform="translate(0 -87.69)"/><circle class="cls-28" cx="1698.42" cy="534.26" r="31.47" transform="translate(473.7 1738.9) rotate(-64)"/><path class="cls-29" d="M1692.78,546.37a2.78,2.78,0,0,1-1.78-.8l-10.57-10.39a2.83,2.83,0,1,1,4-4l8.78,8.62,20.15-16.23a2.83,2.83,0,0,1,3.54,4.41l-22.11,17.8A2.82,2.82,0,0,1,1692.78,546.37Z" transform="translate(0 -87.69)"/><path class="cls-30" d="M1791.1,477h0a20.83,20.83,0,0,1-19.33-22.21l1.79-25.81,41.53,2.87-1.78,25.82A20.83,20.83,0,0,1,1791.1,477Z" transform="translate(0 -87.69)"/><path class="cls-31" d="M1813.57,450.77l-5.93-.3a2.57,2.57,0,0,1-2.36-3.18c1-4.23,2.38-11.52-.35-12.57-3.88-1.5-25.38,2.77-32.28-3.16-9.7-8.34-1.64-20.28,7.56-20.26s7.21,10.56,17.91,11,27.17-2.72,18.49,25.19Z" transform="translate(0 -87.69)"/><path class="cls-30" d="M1820.82,452.39a6.55,6.55,0,1,1-6.08-7A6.55,6.55,0,0,1,1820.82,452.39Z" transform="translate(0 -87.69)"/><path class="cls-32" d="M1739.66,553.91a10.95,10.95,0,1,1-10.16-11.67A10.93,10.93,0,0,1,1739.66,553.91Z" transform="translate(0 -87.69)"/><path class="cls-32" d="M1746.29,559.85l-11.35-.78a5.43,5.43,0,0,1-5-5.77h0a5.42,5.42,0,0,1,5.77-5l11.36.78a5.43,5.43,0,0,1,5,5.77h0A5.42,5.42,0,0,1,1746.29,559.85Z" transform="translate(0 -87.69)"/><path class="cls-26" d="M1740.09,564l0-20.36,56.11.08,19.29-45.75a10.17,10.17,0,0,1,13.48-5h0a10.18,10.18,0,0,1,5,13.49l-22,51.72a10.18,10.18,0,0,1-9.28,5.95Z" transform="translate(0 -87.69)"/><rect class="cls-33" x="1768.62" y="666.43" width="30.37" height="10.59"/><rect class="cls-33" x="1845.73" y="762.24" width="30.37" height="10.59" transform="translate(-112.92 284.76) rotate(-11.09)"/><path class="cls-18" d="M1775.82,458.55l17.92.85s-1,6.86-10.7,5.81C1775.42,464.38,1775.82,458.55,1775.82,458.55Z" transform="translate(0 -87.69)"/><path class="cls-34" d="M1782.32,564l18.11,0a13.93,13.93,0,0,0,11.74-8l20.14-45.59c-7.81,26.59-18.07,53.67-18.07,53.67a8.47,8.47,0,0,1-8.27,5.57l-23.19-.93Z" transform="translate(0 -87.69)"/><path class="cls-35" d="M1670.7,598.18l-133.92,17.75a6.66,6.66,0,0,1-7.47-5.72l-4.72-35.65a6.64,6.64,0,0,1,5.72-7.47l133.92-17.75a6.66,6.66,0,0,1,7.47,5.72l4.72,35.65A6.66,6.66,0,0,1,1670.7,598.18Z" transform="translate(0 -87.69)"/><path class="cls-19" d="M1661.13,582,1527.22,599.8a6.65,6.65,0,0,1-7.47-5.73L1515,558.43a6.65,6.65,0,0,1,5.72-7.47l133.92-17.76a6.66,6.66,0,0,1,7.47,5.72l4.73,35.65A6.65,6.65,0,0,1,1661.13,582Z" transform="translate(0 -87.69)"/><path class="cls-21" d="M1528.65,562.54a.92.92,0,0,1-.13-1.84l76.69-10.17a.88.88,0,0,1,1,.8.91.91,0,0,1-.79,1l-76.69,10.17Z" transform="translate(0 -87.69)"/><path class="cls-21" d="M1530.27,574.78a.92.92,0,0,1-.13-1.84l76.7-10.17a.88.88,0,0,1,1,.79.92.92,0,0,1-.79,1l-76.69,10.17Z" transform="translate(0 -87.69)"/><path class="cls-21" d="M1531.89,587a.92.92,0,0,1-.12-1.84l37.94-5.08a.9.9,0,0,1,1,.79.92.92,0,0,1-.79,1L1532,587Z" transform="translate(0 -87.69)"/><path class="cls-24" d="M1476.68,752.25l-12-.91-1.76,19.73,34.22,2.71.2-2.66a6.1,6.1,0,0,0-4.32-5.8L1476.36,760Z" transform="translate(0 -87.69)"/><path class="cls-24" d="M1321.05,745l-1.19-12-19.74,1.7,3.28,34.16,2.65-.26a6.11,6.11,0,0,0,5-5.27l2.33-17.31Z" transform="translate(0 -87.69)"/><path class="cls-34" d="M1370.61,655.66l21.78,70.22-76,4.52,2.26,18.08,92.64-3.12c8.23-.27,14.46-6.54,12.78-16.12l-5.19-52.18,49-.75-8.47,77.45,21.1.75,20.69-87a17.25,17.25,0,0,0-16.36-21.23L1435,645Z" transform="translate(0 -87.69)"/><polygon class="cls-27" points="1401.88 486.04 1420.6 490.01 1428.55 450.29 1410 446.4 1401.88 486.04"/><path class="cls-30" d="M1416.58,558.72h0a19.4,19.4,0,0,0,23-15l4.94-23.59-38-8-4.94,23.59A19.4,19.4,0,0,0,1416.58,558.72Z" transform="translate(0 -87.69)"/><path class="cls-31" d="M1430.59,530.32,1427,547.66c-1.45,6.92-7.93,11.43-14.47,10.06l-3.42-.72c-11.44-2.4-18.66-14.15-16.12-26.26l3.28-15.67,35.67,7.47Z" transform="translate(0 -87.69)"/><path class="cls-31" d="M1429.36,527.75s8.9,2.36,14.51,2.44c7.32.11,11.86-8.28,7.29-14-.2-.25-.41-.5-.65-.76-5.58-6.07-15.32-3-15.27-2.44S1429.36,527.75,1429.36,527.75Z" transform="translate(0 -87.69)"/><path class="cls-31" d="M1440.85,517.71s-10.9-16-29.76-11.29c0,0-7.24-.38-14.86,8.65l31.72,15.1Z" transform="translate(0 -87.69)"/><path class="cls-30" d="M1422.82,538a5.68,5.68,0,1,0,6.72-4.39A5.67,5.67,0,0,0,1422.82,538Z" transform="translate(0 -87.69)"/><path class="cls-31" d="M1414.54,504.08a18.33,18.33,0,1,1-14.19-21.71A18.33,18.33,0,0,1,1414.54,504.08Z" transform="translate(0 -87.69)"/><path class="cls-28" d="M1435.53,644.39c-7-11.37-3.66-37.63-.79-53.37a19.2,19.2,0,0,0-8.78-19.71h0l-21.69-6.43c-5.37-1.85-12.41,4.4-16.24,8.6-34.21,37.6-21,85.49-21,85.49,11.67,2.85,26,2.72,33.83,1.75h0l.3,0,.42-.06A59.2,59.2,0,0,0,1435.53,644.39Z" transform="translate(0 -87.69)"/><path class="cls-30" d="M1517.05,582.9a11.72,11.72,0,1,0,2.62-16.37A11.72,11.72,0,0,0,1517.05,582.9Z" transform="translate(0 -87.69)"/><path class="cls-30" d="M1514.39,592.05l9.87-7.15a5.8,5.8,0,0,0,1.3-8.08h0a5.81,5.81,0,0,0-8.09-1.3l-9.87,7.15a5.8,5.8,0,0,0-1.3,8.08h0A5.81,5.81,0,0,0,1514.39,592.05Z" transform="translate(0 -87.69)"/><path class="cls-28" d="M1522.34,592.26l-11.55-18.49-51,31.86-32-32.56a10.9,10.9,0,0,0-15.11,3.06h0a10.91,10.91,0,0,0,3.06,15.11l37.84,36.44a10.87,10.87,0,0,0,11.8.16Z" transform="translate(0 -87.69)"/><polygon class="cls-23" points="1418.91 589.38 1439.45 577.85 1438.34 583.18 1467.89 588.62 1418.91 589.38"/><path class="cls-36" d="M1817.78,157.52l-1.7-4.87-1.7,4.87a17,17,0,0,1-9.44,9.61h0a17,17,0,0,1,9.44,9.61l1.7,4.87,1.7-4.87a17,17,0,0,1,9.44-9.61h0A17,17,0,0,1,1817.78,157.52Z" transform="translate(0 -87.69)"/><polygon class="cls-37" points="1524.28 688 1528.43 696 1576.06 697.21 1585.76 670.67 1581.74 662.94 1524.28 688"/><path class="cls-37" d="M1534.86,786.87l41.6,1.58c3.63.14,6.68-1.47,6.92-3.66l2.76-24.75c.26-2.35-2.79-4.44-6.69-4.59l-41.6-1.58c-3.64-.14-6.68,1.47-6.93,3.66l-2.76,24.75C1527.9,784.62,1531,786.72,1534.86,786.87Z" transform="translate(0 -87.69)"/><path class="cls-38" d="M1530.83,779.12l41.6,1.58c3.64.14,6.69-1.47,6.93-3.66l2.76-24.75c.26-2.35-2.79-4.44-6.7-4.59l-41.59-1.58c-3.64-.14-6.69,1.47-6.93,3.66l-2.76,24.75C1523.88,776.88,1526.93,779,1530.83,779.12Z" transform="translate(0 -87.69)"/><rect class="cls-17" x="1011.36" y="600.95" width="62.21" height="39.04"/><path class="cls-17" d="M1085.57,727.62h-91.2a14.81,14.81,0,0,0-14.81,14.81h120.82A14.81,14.81,0,0,0,1085.57,727.62Z" transform="translate(0 -87.69)"/><rect class="cls-16" x="870.5" y="356.97" width="352.25" height="246.59" rx="22.7"/><rect class="cls-17" x="857.6" y="356.97" width="352.25" height="246.59" rx="22.7"/><rect class="cls-18" x="882.64" y="380.54" width="303.14" height="191.88"/><rect class="cls-16" x="882.64" y="380.54" width="3.69" height="191.88"/><path class="cls-16" d="M1039,685.47a10.34,10.34,0,1,1,10.34-10.34A10.35,10.35,0,0,1,1039,685.47Zm0-18.79a8.45,8.45,0,1,0,8.45,8.45A8.46,8.46,0,0,0,1039,666.68Z" transform="translate(0 -87.69)"/><polygon class="cls-39" points="1011.37 603.56 1073.58 639.99 1073.58 603.56 1011.37 603.56"/><path class="cls-40" d="M906.7,402h122.51a4.54,4.54,0,0,1,4.54,4.54v36.8a4.54,4.54,0,0,1-4.54,4.54H906.7a4.55,4.55,0,0,1-4.55-4.55v-36.8A4.54,4.54,0,0,1,906.7,402Z"/><path class="cls-40" d="M991.34,558.59H905.88a3.72,3.72,0,0,1-3.72-3.72h0a3.71,3.71,0,0,1,3.72-3.72h85.46a3.72,3.72,0,0,1,3.72,3.72h0A3.73,3.73,0,0,1,991.34,558.59Z" transform="translate(0 -87.69)"/><path class="cls-40" d="M962.09,575.19H905.88a3.71,3.71,0,0,1-3.72-3.72h0a3.72,3.72,0,0,1,3.72-3.72h56.21a3.73,3.73,0,0,1,3.72,3.72h0A3.72,3.72,0,0,1,962.09,575.19Z" transform="translate(0 -87.69)"/><path class="cls-40" d="M962.09,592.6H905.88a3.71,3.71,0,0,1-3.72-3.72h0a3.72,3.72,0,0,1,3.72-3.72h56.21a3.73,3.73,0,0,1,3.72,3.72h0A3.72,3.72,0,0,1,962.09,592.6Z" transform="translate(0 -87.69)"/><rect class="cls-40" x="1052.13" y="401.96" width="115.51" height="148.24" rx="5.34"/><circle class="cls-13" cx="925.64" cy="425.27" r="14.13"/><path class="cls-21" d="M1015.4,508.47H955.19a.87.87,0,0,1,0-1.73h60.21a.87.87,0,0,1,0,1.73Z" transform="translate(0 -87.69)"/><path class="cls-21" d="M1015.4,519.17H955.19a.86.86,0,0,1,0-1.72h60.21a.86.86,0,0,1,0,1.72Z" transform="translate(0 -87.69)"/><line class="cls-41" x1="1070.74" y1="504.66" x2="1116.42" y2="504.66"/><line class="cls-41" x1="1070.74" y1="522.06" x2="1146.88" y2="522.06"/><path class="cls-42" d="M1067.58,515.87V565a6.78,6.78,0,0,0,6.79,6.78h68.75a6.78,6.78,0,0,0,6.79-6.78V515.87a6.78,6.78,0,0,0-6.79-6.77h-68.75A6.78,6.78,0,0,0,1067.58,515.87Z" transform="translate(0 -87.69)"/><path class="cls-34" d="M1076.7,533.38a15.57,15.57,0,1,0,15.57-15.57A15.57,15.57,0,0,0,1076.7,533.38Z" transform="translate(0 -87.69)"/><path class="cls-18" d="M1067.58,560.07V565a6.78,6.78,0,0,0,6.79,6.78h68.75a6.78,6.78,0,0,0,6.79-6.78v-4.91l-24.52-24.52-16.65,16.65-16.65-16.65Z" transform="translate(0 -87.69)"/><path class="cls-38" d="M1049.49,362.44l-1.46-4.18-1.46,4.18a14.63,14.63,0,0,1-8.13,8.28h0a14.64,14.64,0,0,1,8.13,8.27l1.46,4.19,1.46-4.19a14.61,14.61,0,0,1,8.13-8.27h0A14.59,14.59,0,0,1,1049.49,362.44Z" transform="translate(0 -87.69)"/><path class="cls-38" d="M1858.49,466.44l-1.46-4.18-1.46,4.18a14.63,14.63,0,0,1-8.13,8.28h0a14.64,14.64,0,0,1,8.13,8.27l1.46,4.19,1.46-4.19a14.61,14.61,0,0,1,8.13-8.27h0A14.59,14.59,0,0,1,1858.49,466.44Z" transform="translate(0 -87.69)"/><path class="cls-43" d="M1141.88,638.67h29.89a1.47,1.47,0,0,1,1.47,1.47v32a1.19,1.19,0,0,1-1.19,1.19H1141.6a1.19,1.19,0,0,1-1.19-1.19v-32A1.47,1.47,0,0,1,1141.88,638.67Z"/><path class="cls-34" d="M1164.34,646.69h8.91a0,0,0,0,1,0,0V666a0,0,0,0,1,0,0h-8.91a9.31,9.31,0,0,1-9.31-9.31V656a9.31,9.31,0,0,1,9.31-9.31Z"/><path class="cls-34" d="M1140.41,754.92a.83.83,0,0,1-.47-.16c-2.84-2.12-4.28-4.69-4.29-7.64,0-7.68,9.75-15.12,10.16-15.44a.79.79,0,0,1,1.09.15.78.78,0,0,1-.15,1.09c-.1.07-9.56,7.3-9.54,14.19,0,2.44,1.24,4.6,3.66,6.41a.76.76,0,0,1,.16,1.08A.77.77,0,0,1,1140.41,754.92Z" transform="translate(0 -87.69)"/><path class="cls-11" d="M1202.16,702.15c1.28,1.09,14.21-19.86,18.32-47.12,0,0,2-13.4-11.11-7.16,0,0,16.09-58.25-19.34-55.57-6.11.46-9.63,1.64-13.32,5.31-5,5-8,13.21-3,25.53,10,24.63,19.35,34.46,13.93,47S1183.66,686.37,1202.16,702.15Z" transform="translate(0 -87.69)"/><path class="cls-12" d="M1196.85,740.31a1.3,1.3,0,0,1-.93-1.58c10-39.18,1.63-106.43.29-109.42a1.26,1.26,0,0,1,.4-1.76,1.32,1.32,0,0,1,1.81.42c2.25,3.47,9.76,73.39,0,111.4A1.29,1.29,0,0,1,1196.85,740.31Z" transform="translate(0 -87.69)"/><path class="cls-44" d="M1810.75,375.93a29.5,29.5,0,0,1,22.71-48.38h20.66a29.54,29.54,0,1,1,0,59.08h-20.66a29.25,29.25,0,0,1-13.18-3.16l-14.8,8.12Z" transform="translate(0 -87.69)"/><path class="cls-18" d="M1826.92,354.25v3.81a1.61,1.61,0,0,0,1.61,1.61h3.22a12.38,12.38,0,0,0,1,2.52l-2.27,2.27a1.6,1.6,0,0,0,0,2.27l2.69,2.7a1.6,1.6,0,0,0,2.27,0l2.28-2.27a12.88,12.88,0,0,0,2.51,1v3.21a1.61,1.61,0,0,0,1.61,1.61h3.82a1.61,1.61,0,0,0,1.6-1.61V368.2a13,13,0,0,0,2.52-1l2.27,2.27a1.6,1.6,0,0,0,2.27,0l2.7-2.7a1.6,1.6,0,0,0,0-2.27l-2.27-2.27a13,13,0,0,0,1-2.52H1859a1.61,1.61,0,0,0,1.61-1.61v-3.81a1.61,1.61,0,0,0-1.61-1.61h-3.21a13.24,13.24,0,0,0-1-2.52l2.27-2.27a1.6,1.6,0,0,0,0-2.27l-2.7-2.7a1.62,1.62,0,0,0-2.27,0l-2.27,2.28a11.84,11.84,0,0,0-2.52-1V340.9a1.61,1.61,0,0,0-1.6-1.61h-3.82a1.61,1.61,0,0,0-1.61,1.61v3.22a11.76,11.76,0,0,0-2.51,1l-2.28-2.28a1.62,1.62,0,0,0-2.27,0l-2.69,2.7a1.6,1.6,0,0,0,0,2.27l2.27,2.27a12.62,12.62,0,0,0-1,2.52h-3.22A1.61,1.61,0,0,0,1826.92,354.25Zm10.14,1.91a6.73,6.73,0,1,1,6.73,6.72A6.73,6.73,0,0,1,1837.06,356.16Z" transform="translate(0 -87.69)"/><path class="cls-45" d="M1778.16,164.2l.66.35,1.82,1c1.58.87,3.85,2.16,6.69,3.89a227.56,227.56,0,0,1,22.53,15.67c4.47,3.51,9.17,7.5,13.92,12A173.76,173.76,0,0,1,1837.92,212c2.28,2.76,4.55,5.6,6.68,8.61,1.1,1.47,2.11,3,3.17,4.57.5.79,1,1.58,1.51,2.37l.75,1.19.72,1.22c2,3.22,3.69,6.61,5.35,10.05.78,1.75,1.59,3.48,2.28,5.27.35.89.74,1.77,1,2.68l1,2.71a91.4,91.4,0,0,1,3,11.1c.43,1.86.68,3.75,1,5.63.15.93.22,1.88.33,2.82s.23,1.88.26,2.82a89.55,89.55,0,0,1-1.15,22,102.08,102.08,0,0,1-5.67,19.56,122.09,122.09,0,0,1-8,16.23c-.72,1.2-1.41,2.39-2.11,3.52s-1.44,2.22-2.13,3.28l-1,1.58-1.06,1.49c-.7,1-1.37,1.94-2,2.86-2.69,3.64-5.11,6.74-7.21,9.21s-3.77,4.38-4.91,5.68l-1.77,2,1.69-2.06c1.09-1.35,2.75-3.27,4.68-5.87s4.28-5.74,6.8-9.47l1.9-2.91q.49-.75,1-1.53c.32-.53.64-1.06,1-1.61.64-1.08,1.31-2.19,2-3.33s1.28-2.36,1.94-3.57a118.47,118.47,0,0,0,7.26-16.3,98.86,98.86,0,0,0,4.77-19.26,85.49,85.49,0,0,0,.28-21.11c-.06-.9-.23-1.79-.35-2.68s-.24-1.79-.42-2.68c-.36-1.77-.67-3.56-1.15-5.32a86.7,86.7,0,0,0-3.26-10.42l-1-2.54c-.32-.85-.73-1.67-1.09-2.51-.72-1.67-1.56-3.29-2.36-4.92-1.71-3.2-3.48-6.36-5.47-9.35l-.73-1.13-.76-1.11-1.52-2.2c-1.07-1.43-2.09-2.87-3.19-4.24-2.15-2.79-4.43-5.42-6.71-8A166.79,166.79,0,0,0,1819,202.52c-4.73-4.13-9.41-7.78-13.84-11a217.27,217.27,0,0,0-22.25-14.2c-2.77-1.54-5-2.68-6.48-3.43l-1.7-.84-.57-.26Z" transform="translate(0 -87.69)"/><path class="cls-34" d="M1741.44,172.67a2,2,0,0,0,2.36-1.45l4.15-17.29a2,2,0,0,0-1.45-2.36h0a2,2,0,0,0-2.36,1.45L1740,170.31a2,2,0,0,0,1.45,2.36Z" transform="translate(0 -87.69)"/><path class="cls-28" d="M1730.3,170.86c5,5.84,10.87,13.9,19.42,17.42l-.92,3.88-27.53-1.6c-6.5-.39-7.88-3.05-7.88-3.05l-14.49-17.95S1725.18,164.9,1730.3,170.86Z" transform="translate(0 -87.69)"/><path class="cls-28" d="M1727.88,126.64s2.44-1.75,8.41.83l25.3,11-.92,3.88c-9.23-.72-18.08,3.84-25.19,6.79-7.26,3-28.62-13-28.62-13Z" transform="translate(0 -87.69)"/><path class="cls-46" d="M1631.92,135.59l0-.12.13,0a64.89,64.89,0,0,1,22.84-13.37c23.61-7.4,91.21,26.49,91.21,26.49L1742.85,162l-3.17,13.39s-75.61-.21-93.36-17.46A64.72,64.72,0,0,1,1632,135.7l-.13,0A.6.6,0,0,1,1631.92,135.59Z" transform="translate(0 -87.69)"/><path class="cls-28" d="M1644.42,155.88a56.35,56.35,0,0,1-12.54-20.38A56.46,56.46,0,0,1,1652.3,123c1-.34,2-.65,3-.93a53.31,53.31,0,0,1-8.53,36.08C1646,157.43,1645.17,156.66,1644.42,155.88Z" transform="translate(0 -87.69)"/><path class="cls-45" d="M1789.47,173.24s-50.68,16.66-44.14-10.55S1789.47,173.24,1789.47,173.24Z" transform="translate(0 -87.69)"/><path class="cls-28" d="M1741.47,158.05a16.58,16.58,0,0,1,4.1,1.11c.49.26,7.13,3.44,10.84,5.21l-.44,1.84c-4.11-.09-11.47-.25-12-.23a16.35,16.35,0,0,1-4.16-.87,37.1,37.1,0,0,1-3.4-2.76l.8-3.36A38.93,38.93,0,0,1,1741.47,158.05Z" transform="translate(0 -87.69)"/><path class="cls-18" d="M1716.42,157.59a6.25,6.25,0,1,1-4.62-7.52,6.22,6.22,0,0,1,4.62,7.52Z" transform="translate(0 -87.69)"/><path class="cls-18" d="M1687.47,150.68a6.35,6.35,0,0,0,12.35,3h0a6.35,6.35,0,0,0-4.7-7.64,6.35,6.35,0,0,0-7.65,4.69Z" transform="translate(0 -87.69)"/><path class="cls-18" d="M1675.47,154.32a6.34,6.34,0,0,0,7.62-4.67h0a6.32,6.32,0,0,0-4.68-7.6,6.32,6.32,0,0,0-7.61,4.67A6.33,6.33,0,0,0,1675.47,154.32Z" transform="translate(0 -87.69)"/><path class="cls-45" d="M1349.52,325.93a31.16,31.16,0,0,0-33.35-31c-16.16,1.11-28.61,15.2-28.41,31.4a30.15,30.15,0,0,0,16,26.65,10.94,10.94,0,0,1,5.74,9.59V363h18.68v-.44a11.78,11.78,0,0,1,5.72-9.88C1342.77,347.3,1349.52,337.33,1349.52,325.93Z" transform="translate(0 -87.69)"/><path class="cls-47" d="M1316.17,294.94A29.76,29.76,0,0,0,1310,296q.72-.06,1.47-.06A22.48,22.48,0,1,1,1289,318.45c0-.43,0-.87,0-1.3a30.89,30.89,0,0,0-1.29,9.19,30.15,30.15,0,0,0,16,26.65,10.94,10.94,0,0,1,5.74,9.59V363h18.68v-.44a11.78,11.78,0,0,1,5.72-9.88c8.86-5.4,15.48-15.37,15.48-26.77A31,31,0,0,0,1316.17,294.94Z" transform="translate(0 -87.69)"/><path class="cls-26" d="M1318.85,365.21a2.54,2.54,0,0,1-2.54-2.56v-26a2.55,2.55,0,1,1,5.09,0v26A2.54,2.54,0,0,1,1318.85,365.21Z" transform="translate(0 -87.69)"/><path class="cls-18" d="M1297.75,334.86a3.43,3.43,0,0,1-3.29-2.47,19.17,19.17,0,0,1-.73-4.14,3.42,3.42,0,1,1,6.82-.45,12.73,12.73,0,0,0,.49,2.7,3.43,3.43,0,0,1-2.35,4.23A3.38,3.38,0,0,1,1297.75,334.86Z" transform="translate(0 -87.69)"/><path class="cls-18" d="M1298.28,321.66a3.52,3.52,0,0,1-1.26-.24,3.43,3.43,0,0,1-1.92-4.44,22.87,22.87,0,0,1,7.33-9.72,3.42,3.42,0,0,1,3.93,5.59,16.29,16.29,0,0,0-4.9,6.64A3.42,3.42,0,0,1,1298.28,321.66Z" transform="translate(0 -87.69)"/><rect class="cls-48" x="1302.72" y="273.63" width="32.26" height="18.68" rx="3.39"/><path class="cls-28" d="M1377,443.28l-2.44-2.44,4-4c.81-.81,1.49-2.07.78-2.79l-3.58-3.58-2.76,2.76c-.81.82-1.43.55-2.14-.16l-3.87-3.87c-.71-.71-1-1.4-.24-2.21l2.76-2.76-3.07-3.08a2.69,2.69,0,0,0-3.29.28l-4,4.05-1.94-1.94a1.92,1.92,0,0,0-2.74-.05l-4.4,4.4a1.92,1.92,0,0,0,.06,2.73l1.94,1.94-3.57,3.56a2.18,2.18,0,0,0,.07,2.94l3.08,3.07,1.92-1.92c.81-.81,2.34-1.31,3-.6l3.87,3.87c.71.71.14,2.17-.67,3l-1.93,1.92,3.58,3.58c.71.71,1.63.38,2.44-.43l3.56-3.57,2.44,2.44a1.81,1.81,0,0,0,2.64,0l4.41-4.41A1.83,1.83,0,0,0,1377,443.28Z" transform="translate(0 -87.69)"/><path class="cls-26" d="M1348.19,445.49l-2.47,2.47-4.15-4.14c-.81-.82-2.26-1.76-3-1l-3.77,3.76,3,3c.81.81.55,1.05-.16,1.76l-3.87,3.87c-.72.72-1.31,1.33-2.12.52l-3-3-3,3c-.71.71-.08,2.47.73,3.28l4.15,4.15-2.17,2.16c-.71.71-1.19,2.05-.38,2.86l4.41,4.41a2.35,2.35,0,0,0,3.07-.17l2.16-2.16,3.45,3.44a1.72,1.72,0,0,0,2.56,0l3-3-1.77-1.78c-.81-.81-1.4-2.62-.69-3.33l3.87-3.87c.71-.71,2.16.24,3,1.05l1.78,1.78,3.76-3.77c.72-.71.5-1.44-.32-2.25l-3.44-3.45,2.47-2.47a2,2,0,0,0-.14-2.76l-4.41-4.41A1.71,1.71,0,0,0,1348.19,445.49Z" transform="translate(0 -87.69)"/><path class="cls-49" d="M1361,439.06l5.07,0a1.06,1.06,0,0,1,.77.31,1,1,0,0,1,.3.77l-.08,5-2.15,0,.07-3.92-4,0Z" transform="translate(0 -87.69)"/><rect class="cls-49" x="1346.69" y="447.04" width="22.67" height="2.14" transform="translate(80.9 1003.83) rotate(-45)"/><path class="cls-49" d="M1338.8,452.8v0l.33-5,2.26,0v3.91l4,0,0,2.14-5.06,0a1.74,1.74,0,0,1-1-.31C1339.15,453.35,1338.8,453.08,1338.8,452.8Z" transform="translate(0 -87.69)"/><rect class="cls-49" x="1337.04" y="443.72" width="22.67" height="2.14" transform="translate(80.39 995.97) rotate(-45)"/><path class="cls-38" d="M781.58,438.54h219.78a13.24,13.24,0,0,1,13.24,13.24v9.75a0,0,0,0,1,0,0H767.84a0,0,0,0,1,0,0v-9.25A13.74,13.74,0,0,1,781.58,438.54Z"/><circle class="cls-18" cx="791.32" cy="450.59" r="3.08"/><circle class="cls-18" cx="802.22" cy="450.59" r="3.08"/><circle class="cls-18" cx="813.12" cy="450.59" r="3.08"/><rect class="cls-43" x="767.84" y="461.53" width="246.76" height="152.78"/><rect class="cls-18" x="776.95" y="468.73" width="227.83" height="137.33"/><rect class="cls-40" x="791.04" y="485.02" width="88.9" height="104.17" rx="3.36"/><rect class="cls-40" x="896.78" y="483.44" width="80.33" height="57.08" rx="2.37"/><rect class="cls-40" x="894.46" y="557.14" width="91.93" height="28.79" rx="1.8"/><rect class="cls-35" x="905.53" y="499.83" width="71.57" height="23.43" rx="1.43"/><rect class="cls-50" x="913.95" y="493.28" width="68.67" height="23.43" rx="1.4"/><path class="cls-42" d="M820.89,596.92H807.3a6.07,6.07,0,0,1-6.07-6.07h0a6.06,6.06,0,0,1,6.07-6.06h13.59a6.06,6.06,0,0,1,6.07,6.06h0A6.07,6.07,0,0,1,820.89,596.92Z" transform="translate(0 -87.69)"/><path class="cls-21" d="M868.84,588H834a.55.55,0,0,1,0-1.09h34.82a.55.55,0,0,1,0,1.09Z" transform="translate(0 -87.69)"/><path class="cls-21" d="M850.11,594.8H834a.55.55,0,0,1,0-1.09h16.09a.55.55,0,0,1,0,1.09Z" transform="translate(0 -87.69)"/><rect class="cls-18" x="864.75" y="522.89" width="0.76" height="37.81"/><rect class="cls-18" x="853.33" y="522.89" width="0.76" height="37.81"/><rect class="cls-18" x="841.93" y="522.89" width="0.76" height="37.81"/><rect class="cls-18" x="830.52" y="522.89" width="0.76" height="37.81"/><rect class="cls-18" x="819.11" y="522.89" width="0.76" height="37.81"/><rect class="cls-18" x="807.7" y="522.89" width="0.76" height="37.81"/><rect class="cls-18" x="798.66" y="565.05" width="74.94" height="0.76"/><rect class="cls-18" x="909.87" y="575.56" width="60.64" height="3.73"/><rect class="cls-42" x="930.65" y="575.56" width="39.86" height="3.73"/><rect class="cls-18" x="909.87" y="564.86" width="60.64" height="3.73"/><rect class="cls-42" x="951.35" y="564.86" width="19.16" height="3.73"/><path class="cls-51" d="M800.73,644.83c2.35-4.05,5.43-11.88,11.45-11.88,4.59,0,5.47,10.95,12.48,12.67s5.33-27.3,11.07-27S839.8,638,846.52,639s6.45-4.67,11.78-4.18,4.9,8.36,14.57,7.38" transform="translate(0 -87.69)"/><path class="cls-18" d="M971.44,589.67H923a.76.76,0,0,1,0-1.52h48.47a.76.76,0,0,1,0,1.52Z" transform="translate(0 -87.69)"/><path class="cls-18" d="M945.37,597.22H923a.76.76,0,0,1,0-1.52h22.4a.76.76,0,0,1,0,1.52Z" transform="translate(0 -87.69)"/><path class="cls-52" d="M995.73,211.86,979.2,293.93a9.2,9.2,0,0,1-10.81,7.2L886.33,284.6a8.65,8.65,0,0,1-2.58-.94h0a9.21,9.21,0,0,1-4.59-9.87l16.53-82.08a9.17,9.17,0,0,1,10.81-7.17l82,16.53A9.16,9.16,0,0,1,995.73,211.86Z" transform="translate(0 -87.69)"/><path class="cls-53" d="M1002.55,213.24,986,295.31a9.19,9.19,0,0,1-10.82,7.19l-82-16.52a8.73,8.73,0,0,1-2.58-.94h0a9.2,9.2,0,0,1-4.59-9.87l16.53-82.07a9.17,9.17,0,0,1,10.81-7.17l82.05,16.52A9.17,9.17,0,0,1,1002.55,213.24Z" transform="translate(0 -87.69)"/><text class="cls-54" transform="translate(910.74 159.98) rotate(11.38)">J<tspan class="cls-55" x="13.33" y="0">a</tspan><tspan class="cls-56" x="30.4" y="0">v</tspan><tspan x="47.58" y="0">a</tspan></text><path class="cls-57" d="M1037.38,119.12l5,70.07a7.72,7.72,0,0,1-7.14,8.24l-70,5a7.29,7.29,0,0,1-2.3-.18h0a7.71,7.71,0,0,1-5.92-7l-5-70.07A7.7,7.7,0,0,1,959.1,117l70-5A7.7,7.7,0,0,1,1037.38,119.12Z" transform="translate(0 -87.69)"/><path class="cls-28" d="M1043.21,118.7l5,70.07a7.71,7.71,0,0,1-7.13,8.24l-70,5a7.62,7.62,0,0,1-2.3-.19h0a7.71,7.71,0,0,1-5.92-6.95l-5-70.07a7.71,7.71,0,0,1,7.14-8.22l70.05-5A7.7,7.7,0,0,1,1043.21,118.7Z" transform="translate(0 -87.69)"/><text class="cls-58" transform="translate(970.55 82.45) rotate(-4.1)">C++</text><path class="cls-37" d="M939.55,100.18l-6.7,45.68a5.08,5.08,0,0,1-5.76,4.28l-45.67-6.7A4.85,4.85,0,0,1,880,143h0a5.07,5.07,0,0,1-2.81-5.3L883.85,92a5.07,5.07,0,0,1,5.75-4.26l45.67,6.7A5.07,5.07,0,0,1,939.55,100.18Z" transform="translate(0 -87.69)"/><path class="cls-38" d="M943.35,100.74l-6.71,45.68a5.07,5.07,0,0,1-5.75,4.28L885.22,144a4.85,4.85,0,0,1-1.44-.45h0a5.07,5.07,0,0,1-2.81-5.3l6.7-45.69a5,5,0,0,1,5.74-4.26L939.07,95A5.07,5.07,0,0,1,943.35,100.74Z" transform="translate(0 -87.69)"/><text class="cls-59" transform="matrix(0.99, 0.15, -0.15, 0.99, 894.04, 36.41)">PHP</text><path class="cls-38" d="M1195,234.15l-.93-2.69-.94,2.69a9.39,9.39,0,0,1-5.21,5.3h0a9.38,9.38,0,0,1,5.21,5.31l.94,2.68.93-2.68a9.41,9.41,0,0,1,5.21-5.31h0A9.42,9.42,0,0,1,1195,234.15Z" transform="translate(0 -87.69)"/><path class="cls-60" d="M511.5,507c-9.29,0-19.41,7.19-19.41,19.19,0,18.26,19.46,37.56,19.46,37.56S531,544.14,531,526.19C531,514.19,520.27,507,511.5,507Zm4.82,27.42a9.19,9.19,0,0,1-4.77,1.3,8.88,8.88,0,0,1-6.2-2.4c-5.45-5.05-3.37-16.73,6.24-16.73C522,516.59,523.57,530.27,516.32,534.42Z" transform="translate(0 -87.69)"/><path class="cls-11" d="M445.39,459.81a2.47,2.47,0,0,1-.07-4.93l1.16,0a2.46,2.46,0,1,1,.27,4.91l-1.28.06Zm-8.53-.57a2.56,2.56,0,0,1-.39,0L435.2,459a2.46,2.46,0,1,1,.91-4.84l1.14.2a2.46,2.46,0,0,1-.39,4.89Zm18.21-.75a2.46,2.46,0,0,1-.59-4.85c.37-.1.74-.19,1.11-.3a2.47,2.47,0,0,1,1.33,4.75l-1.25.33A2.46,2.46,0,0,1,455.07,458.49Zm-27.63-1.84a2.46,2.46,0,0,1-.91-.18l-1.19-.49a2.46,2.46,0,0,1,1.94-4.53l1.07.44a2.47,2.47,0,0,1-.91,4.76Zm36.8-1.54a2.46,2.46,0,0,1-1.09-4.67l1-.52a2.46,2.46,0,1,1,2.31,4.35c-.38.2-.76.4-1.15.59A2.48,2.48,0,0,1,464.24,455.11Zm-45.44-3a2.45,2.45,0,0,1-1.38-.42l-1.06-.74a2.46,2.46,0,0,1,2.88-4l.95.66a2.46,2.46,0,0,1,.65,3.42A2.43,2.43,0,0,1,418.8,452.07Zm53.66-2.23a2.46,2.46,0,0,1-1.54-4.38l.89-.74a2.46,2.46,0,1,1,3.19,3.75l-1,.83A2.52,2.52,0,0,1,472.46,449.84Zm-61.11-4.09a2.43,2.43,0,0,1-1.78-.76l-.88-.95a2.46,2.46,0,0,1,3.66-3.3c.26.29.52.58.79.85a2.46,2.46,0,0,1-1.79,4.16Zm68-2.82a2.46,2.46,0,0,1-1.91-4c.24-.3.48-.6.71-.91a2.46,2.46,0,1,1,3.92,3c-.26.35-.52.68-.79,1A2.48,2.48,0,0,1,479.36,442.93ZM405.43,438a2.44,2.44,0,0,1-2.11-1.19c-.23-.37-.44-.74-.66-1.11a2.47,2.47,0,0,1,4.29-2.43c.19.33.38.66.58,1a2.47,2.47,0,0,1-2.1,3.74Zm79.2-3.29a2.36,2.36,0,0,1-1.09-.26,2.46,2.46,0,0,1-1.11-3.3c.17-.35.34-.69.5-1a2.46,2.46,0,1,1,4.47,2.07c-.18.39-.37.78-.56,1.16A2.46,2.46,0,0,1,484.63,434.7Zm-83.33-5.56a2.47,2.47,0,0,1-2.33-1.68c-.14-.41-.27-.81-.4-1.22a2.47,2.47,0,0,1,4.71-1.46c.11.37.23.74.36,1.1a2.46,2.46,0,0,1-1.55,3.12A2.44,2.44,0,0,1,401.3,429.14Zm86.7-3.61a2.49,2.49,0,0,1-2.39-3.06c.09-.37.18-.75.26-1.12a2.47,2.47,0,0,1,4.82,1c-.1.42-.19.84-.3,1.25A2.46,2.46,0,0,1,488,425.53Zm-88.81-5.93a2.46,2.46,0,0,1-2.44-2.2c-.05-.42-.09-.85-.13-1.28a2.46,2.46,0,1,1,4.91-.4c0,.38.07.76.11,1.14a2.46,2.46,0,0,1-2.18,2.72Zm90.12-3.75h-.07a2.45,2.45,0,0,1-2.39-2.52c0-.39,0-.77,0-1.16V412a2.47,2.47,0,0,1,4.93,0v.2c0,.41,0,.84,0,1.27A2.46,2.46,0,0,1,489.31,415.85Zm-90.13-6h-.26a2.47,2.47,0,0,1-2.19-2.71q.06-.64.15-1.29a2.46,2.46,0,1,1,4.88.66c-.05.38-.1.76-.14,1.14A2.46,2.46,0,0,1,399.18,409.83Zm89.31-3.9a2.47,2.47,0,0,1-2.42-2c-.07-.38-.15-.76-.23-1.14a2.46,2.46,0,0,1,4.8-1.07c.1.42.19.84.27,1.27a2.46,2.46,0,0,1-2,2.88A1.93,1.93,0,0,1,488.49,405.93Zm-87.24-5.65a2.32,2.32,0,0,1-.78-.13,2.46,2.46,0,0,1-1.56-3.11c.14-.41.28-.82.43-1.22A2.46,2.46,0,1,1,404,397.5c-.14.37-.27.73-.39,1.1A2.45,2.45,0,0,1,401.25,400.28Zm84.34-3.68a2.47,2.47,0,0,1-2.26-1.48c-.15-.35-.31-.7-.47-1.05a2.46,2.46,0,0,1,4.46-2.09c.18.39.36.78.53,1.18a2.47,2.47,0,0,1-1.27,3.24A2.5,2.5,0,0,1,485.59,396.6Zm-80.26-5.2a2.4,2.4,0,0,1-1.26-.35,2.45,2.45,0,0,1-.84-3.38l.67-1.1a2.47,2.47,0,0,1,4.16,2.65c-.21.33-.42.66-.61,1A2.47,2.47,0,0,1,405.33,391.4Zm75.42-3.28a2.45,2.45,0,0,1-2-1c-.23-.31-.46-.63-.7-.93a2.46,2.46,0,1,1,3.91-3c.26.34.52.68.77,1a2.46,2.46,0,0,1-2,3.91Zm-69.51-4.51a2.43,2.43,0,0,1-1.69-.67,2.46,2.46,0,0,1-.11-3.48l.91-.93a2.46,2.46,0,1,1,3.48,3.48c-.27.28-.54.55-.8.83A2.48,2.48,0,0,1,411.24,383.61Zm63-2.74a2.44,2.44,0,0,1-1.64-.62l-.88-.76a2.46,2.46,0,1,1,3.18-3.76c.33.28.66.56,1,.85a2.45,2.45,0,0,1,.19,3.47A2.42,2.42,0,0,1,474.2,380.87Zm-55.53-3.6a2.47,2.47,0,0,1-1.4-4.5l1.07-.71A2.47,2.47,0,1,1,421,376.2l-1,.64A2.42,2.42,0,0,1,418.67,377.27Zm47.57-2.07a2.4,2.4,0,0,1-1.2-.32l-1-.56a2.46,2.46,0,1,1,2.3-4.35l1.13.62a2.46,2.46,0,0,1,.95,3.35A2.49,2.49,0,0,1,466.24,375.2Zm-39-2.53a2.46,2.46,0,0,1-.92-4.75l1.2-.47a2.46,2.46,0,1,1,1.72,4.62l-1.09.42A2.46,2.46,0,0,1,427.28,372.67Zm30-1.31a2.15,2.15,0,0,1-.71-.11l-1.12-.32a2.46,2.46,0,1,1,1.31-4.75l1.23.36a2.46,2.46,0,0,1-.71,4.82ZM436.68,370a2.46,2.46,0,0,1-.4-4.89c.43-.07.85-.14,1.27-.19a2.46,2.46,0,0,1,.69,4.87l-1.16.18A2.69,2.69,0,0,1,436.68,370Zm11-.47h-.19l-1.16-.07a2.47,2.47,0,0,1-2.33-2.59,2.43,2.43,0,0,1,2.58-2.33l1.29.08a2.46,2.46,0,0,1-.19,4.92Z" transform="translate(0 -87.69)"/><path class="cls-11" d="M444.13,475.12a63,63,0,1,1,63-63A63,63,0,0,1,444.13,475.12Zm0-121a58,58,0,1,0,58,58A58.1,58.1,0,0,0,444.13,354.12Z" transform="translate(0 -87.69)"/><path class="cls-11" d="M404.43,504.85a100.84,100.84,0,0,1,73.41-187.72l-1.65,4.64a95.91,95.91,0,0,0-69.82,178.55Z" transform="translate(0 -87.69)"/><path class="cls-11" d="M505,492.54l-3-3.92A96,96,0,0,0,534.48,380l4.63-1.66A100.93,100.93,0,0,1,505,492.54Z" transform="translate(0 -87.69)"/><path class="cls-22" d="M517.62,716.39l-71.1-303.51a2.46,2.46,0,0,0-4.79,0l-71.1,303.51a2.46,2.46,0,0,0,2.4,3H515.22a2.46,2.46,0,0,0,2.4-3Zm-29-67.41-44.7,25.19L399,649Zm-92.13-4.92L444,605.56l47.12,38.5Zm51.4-41.67,31.92-25.87,15.05,64.25Zm26.47-27.8L444,599.21l-30.12-24.62Zm-61.91-4.92L444.13,534l31.68,35.63Zm35-39.33,17.07-19.19,12.2,52.09Zm12.89-21.91-16.18,18.2-16.19-18.2Zm-32.65-4.92,16.47-20.07,16.46,20.07Zm19.65-23.95,7.6-9.27L461,496.23Zm-3.18-3.88-6.85-8.34H451Zm-3.19,3.88-13.68,16.67,6.08-25.93Zm-17.17,31.59,17.06,19.19-29.26,32.9Zm-15.32,65.38,31.63,25.84-46.51,37.71Zm-17.27,73.74L438.89,677l-62.19,35Zm52.74,29.55,61.87,34.67H382.41Zm5-2.83L497,649.91l14.56,62.16Zm-4.81-252.75,8.94,38.18H435.18Z" transform="translate(0 -87.69)"/><path class="cls-11" d="M444.13,430.7a17.26,17.26,0,1,1,17.25-17.26A17.28,17.28,0,0,1,444.13,430.7Zm0-29.59a12.33,12.33,0,1,0,12.33,12.33A12.35,12.35,0,0,0,444.13,401.11Z" transform="translate(0 -87.69)"/><rect class="cls-16" x="67.6" y="409.69" width="322.11" height="223.42" rx="15.52"/><rect class="cls-61" x="80.25" y="409.69" width="322.11" height="223.42" rx="15.52"/><rect class="cls-18" x="94.66" y="427.47" width="291.32" height="187.85"/><path class="cls-17" d="M526.44,731.33a10.53,10.53,0,0,0-10.53-10.53H233.15c-8,0-14.54,4.73-14.54,10.52s6.54,10.54,14.54,10.54H515.91a10.53,10.53,0,0,0,10.53-10.53Z" transform="translate(0 -87.69)"/><path class="cls-38" d="M418.19,721.19v.89a6,6,0,0,1-6,5.95h-89a6,6,0,0,1-6-5.95v-.89Z" transform="translate(0 -87.69)"/><rect class="cls-43" x="479.63" y="490.98" width="254.28" height="161.14" rx="18.49"/><rect class="cls-18" x="497.32" y="504.25" width="213.12" height="136.49"/><path class="cls-62" d="M727.41,659.24a5.3,5.3,0,1,1-5.3-5.29A5.29,5.29,0,0,1,727.41,659.24Z" transform="translate(0 -87.69)"/><path class="cls-63" d="M722.11,665.76a6.52,6.52,0,1,1,6.53-6.52A6.53,6.53,0,0,1,722.11,665.76Zm0-10.58a4.06,4.06,0,1,0,4.07,4.06A4.06,4.06,0,0,0,722.11,655.18Z" transform="translate(0 -87.69)"/><rect class="cls-62" x="592.28" y="508.65" width="27.78" height="219.78" transform="translate(1212.33 1149.4) rotate(180)"/><rect class="cls-64" x="620.05" y="557.44" width="10.45" height="5.19"/><rect class="cls-64" x="676.22" y="595.07" width="8.56" height="5.19"/><rect class="cls-38" x="597.91" y="655.89" width="22.14" height="5.19" transform="translate(1217.96 1229.28) rotate(180)"/><rect class="cls-38" x="592.3" y="685.35" width="22.14" height="5.19" transform="translate(1206.75 1288.2) rotate(180)"/><rect class="cls-38" x="592.3" y="630.98" width="22.14" height="5.19" transform="translate(1206.75 1179.47) rotate(180)"/><rect class="cls-38" x="605.13" y="568.71" width="12.19" height="5.19" transform="translate(1222.45 1054.92) rotate(180)"/><rect class="cls-38" x="597.91" y="543.95" width="22.14" height="5.19" transform="translate(1217.96 1005.41) rotate(180)"/><rect class="cls-38" x="597.91" y="593.62" width="22.14" height="5.19" transform="translate(1217.96 1104.74) rotate(180)"/><rect class="cls-38" x="610.47" y="707.02" width="9.58" height="5.19" transform="translate(1230.53 1331.54) rotate(180)"/><rect class="cls-64" x="681.18" y="504.22" width="3.61" height="5.19"/><rect class="cls-64" x="680.73" y="518.71" width="4.06" height="5.19"/><rect class="cls-64" x="674.9" y="645.13" width="9.88" height="5.19" transform="translate(1359.69 1207.76) rotate(180)"/><rect class="cls-64" x="620.05" y="469.97" width="9.55" height="5.19"/><rect class="cls-64" x="677.8" y="456.26" width="6.99" height="5.19"/><polygon class="cls-65" points="627.44 420.97 684.61 421.06 684.79 441.57 684.79 640.74 620.05 640.74 620.05 420.97 627.44 420.97"/><rect class="cls-66" x="620.05" y="495" width="19.24" height="5.19"/><rect class="cls-67" x="620.05" y="598.75" width="27.15" height="5.19" transform="translate(1267.26 1115.01) rotate(180)"/><rect class="cls-66" x="620.05" y="630.88" width="27.15" height="5.19" transform="translate(1267.26 1179.26) rotate(180)"/><rect class="cls-67" x="654.6" y="557.44" width="18.29" height="5.19"/><rect class="cls-66" x="620.05" y="659.74" width="27.15" height="5.19" transform="translate(1267.26 1236.98) rotate(180)"/><rect class="cls-66" x="661.98" y="595.07" width="10.64" height="5.19"/><rect class="cls-67" x="642.67" y="595.07" width="15.76" height="5.19"/><rect class="cls-66" x="620.05" y="595.07" width="16.08" height="5.19"/><rect class="cls-66" x="620.05" y="606.97" width="21.32" height="5.19"/><rect class="cls-66" x="657.31" y="619.33" width="13.74" height="5.19"/><rect class="cls-66" x="673.75" y="619.33" width="11.04" height="5.19"/><rect class="cls-66" x="620.05" y="619.33" width="27.79" height="5.19"/><rect class="cls-66" x="657.63" y="487.76" width="11.38" height="5.19"/><rect class="cls-66" x="673.75" y="487.76" width="11.04" height="5.19"/><rect class="cls-66" x="649.08" y="518.71" width="24.9" height="5.19"/><rect class="cls-66" x="657.63" y="630.88" width="27.15" height="5.19" transform="translate(1342.42 1179.26) rotate(180)"/><rect class="cls-66" x="620.05" y="543.95" width="27.15" height="5.19" transform="translate(1267.26 1005.41) rotate(180)"/><rect class="cls-66" x="652.8" y="469.97" width="20.09" height="5.19"/><rect class="cls-66" x="633.21" y="469.97" width="15.32" height="5.19"/><rect class="cls-66" x="657.63" y="659.74" width="27.15" height="5.19" transform="translate(1342.42 1236.98) rotate(180)"/><path class="cls-62" d="M537.54,567.79a13.92,13.92,0,0,1,13.92-13.92l24.68,0s-10.76,6.47-10.76,13.9H580V728.43H523V567.79Z" transform="translate(0 -87.69)"/><path class="cls-65" d="M562.22,567.79a13.93,13.93,0,0,1,27.85,0h14.57V728.43h-57V567.79Z" transform="translate(0 -87.69)"/><path class="cls-38" d="M583.13,567.79a7,7,0,1,0-14,0Z" transform="translate(0 -87.69)"/><rect class="cls-66" x="563.02" y="512.23" width="8.54" height="4.73"/><rect class="cls-66" x="547.65" y="512.23" width="10.41" height="4.73"/><rect class="cls-67" x="557.16" y="534.96" width="14.39" height="4.73"/><rect class="cls-66" x="547.65" y="534.96" width="6.81" height="4.73"/><rect class="cls-66" x="547.65" y="645.38" width="23.9" height="4.73" transform="translate(1119.2 1207.81) rotate(180)"/><rect class="cls-66" x="547.65" y="569.06" width="25.28" height="4.73"/><rect class="cls-67" x="547.65" y="580.43" width="9.51" height="4.73"/><rect class="cls-66" x="587.23" y="699.84" width="17.41" height="4.73" transform="translate(1191.87 1316.73) rotate(180)"/><rect class="cls-66" x="547.65" y="699.84" width="37.2" height="4.73" transform="translate(1132.5 1316.73) rotate(180)"/><rect class="cls-66" x="547.65" y="623.47" width="12.21" height="4.74"/><rect class="cls-67" x="547.65" y="679.48" width="23.9" height="4.74" transform="translate(1119.2 1276) rotate(180)"/><rect class="cls-38" x="527.95" y="679.48" width="19.7" height="4.74" transform="translate(1075.6 1276) rotate(180)"/><rect class="cls-38" x="522.96" y="656.75" width="19.7" height="4.73" transform="translate(1065.63 1230.54) rotate(180)"/><rect class="cls-38" x="534.38" y="645.33" width="10.84" height="4.74" transform="translate(1079.6 1207.72) rotate(180)"/><rect class="cls-38" x="534.38" y="599.92" width="10.84" height="4.73" transform="translate(1079.6 1116.88) rotate(180)"/><rect class="cls-38" x="527.95" y="577.32" width="19.7" height="4.74" transform="translate(1075.6 1071.69) rotate(180)"/><rect class="cls-38" x="527.95" y="622.65" width="19.7" height="4.73" transform="translate(1075.6 1162.35) rotate(180)"/><rect class="cls-38" x="539.22" y="711.16" width="8.43" height="4.74" transform="translate(1086.87 1339.37) rotate(180)"/><rect class="cls-66" x="596.12" y="512.23" width="8.52" height="4.73"/><rect class="cls-67" x="580.74" y="512.23" width="11.78" height="4.73"/><rect class="cls-66" x="573.2" y="534.96" width="13.69" height="4.73"/><rect class="cls-66" x="593.19" y="534.96" width="11.45" height="4.73"/><rect class="cls-67" x="580.74" y="645.38" width="23.9" height="4.73" transform="translate(1185.38 1207.81) rotate(180)"/><rect class="cls-66" x="595.94" y="656.75" width="8.7" height="4.74" transform="translate(1200.58 1230.54) rotate(180)"/><rect class="cls-67" x="556.48" y="489.63" width="15.07" height="4.74"/><rect class="cls-66" x="547.65" y="489.63" width="5.46" height="4.74"/><rect class="cls-66" x="595.67" y="489.63" width="8.97" height="4.74"/><rect class="cls-66" x="580.74" y="489.63" width="12.23" height="4.74"/><rect class="cls-66" x="580.74" y="679.48" width="23.9" height="4.74" transform="translate(1185.38 1276) rotate(180)"/><path class="cls-11" d="M669.68,493.83h-.19a2.7,2.7,0,0,1-2.62-2l-8.49-12.22a2.73,2.73,0,0,1,.68-3.78,2.77,2.77,0,0,1,3.77.68l6.76,9.72,6.75-9.72a2.79,2.79,0,0,1,3.77-.69,2.74,2.74,0,0,1,.69,3.79l-8.5,12.21a2.69,2.69,0,0,1-1.07,1.53A2.66,2.66,0,0,1,669.68,493.83Zm0-2.46,0,1.23v-1.23a.23.23,0,0,0,.25-.2l0-.3,8.81-12.67a.25.25,0,0,0-.06-.35c-.07-.05-.19-.16-.34.06l-8.78,12.63-8.78-12.63c-.16-.22-.28-.11-.35-.06a.27.27,0,0,0-.06.36l8.81,12.66,0,.29a.22.22,0,0,0,.1.17.2.2,0,0,0,.14,0Z" transform="translate(0 -87.69)"/><path class="cls-11" d="M669.69,480.54h-.21a2.7,2.7,0,0,1-1.54-.48,2.77,2.77,0,0,1-1.07-1.53l-8.49-12.22a2.71,2.71,0,0,1,.68-3.77,2.78,2.78,0,0,1,3.77.67l6.76,9.73,6.75-9.73a2.79,2.79,0,0,1,3.78-.67,2.71,2.71,0,0,1,.68,3.77l-8.5,12.22a2.75,2.75,0,0,1-1.06,1.53A2.78,2.78,0,0,1,669.69,480.54Zm0-2.47,0,1.24v-1.23a.23.23,0,0,0,.14-.05.26.26,0,0,0,.1-.16l0-.29,8.81-12.67a.24.24,0,0,0,0-.19.21.21,0,0,0-.1-.16c-.08-.06-.2-.16-.34.06l-8.78,12.64-8.78-12.64c-.15-.22-.27-.11-.34-.06a.25.25,0,0,0-.07.35l8.81,12.66,0,.3a.21.21,0,0,0,.1.17.19.19,0,0,0,.13,0Z" transform="translate(0 -87.69)"/><path class="cls-11" d="M669.13,467.25h-.22a2.67,2.67,0,0,1-1.55-.49,2.71,2.71,0,0,1-1.06-1.52L657.81,453a2.74,2.74,0,0,1,.68-3.79,2.79,2.79,0,0,1,3.77.68l6.76,9.73,6.75-9.73a2.8,2.8,0,0,1,3.78-.68,2.73,2.73,0,0,1,.68,3.78l-8.5,12.22a2.69,2.69,0,0,1-2.6,2Zm0-2.47,0,1.23v-1.23a.31.31,0,0,0,.13,0,.26.26,0,0,0,.1-.18l0-.29,8.8-12.66a.24.24,0,0,0-.06-.35c-.07,0-.19-.16-.35.06L669,464l-8.78-12.63c-.15-.22-.27-.11-.35-.06a.25.25,0,0,0,0,.36l8.8,12.65,0,.29a.28.28,0,0,0,.1.17.23.23,0,0,0,.14,0Z" transform="translate(0 -87.69)"/><path class="cls-11" d="M669.13,454h-.22a2.68,2.68,0,0,1-1.53-.47A2.74,2.74,0,0,1,666.3,452l-8.49-12.22a2.73,2.73,0,0,1,.68-3.78,2.79,2.79,0,0,1,3.77.68l6.76,9.72,6.75-9.72a2.79,2.79,0,0,1,3.78-.68,2.75,2.75,0,0,1,1.12,1.75,2.68,2.68,0,0,1-.45,2L671.73,452a2.68,2.68,0,0,1-2.6,2Zm0-2.46,0,1.23v-1.23a.19.19,0,0,0,.14-.05.21.21,0,0,0,.09-.16l0-.29,8.8-12.67a.28.28,0,0,0-.06-.35c-.07-.05-.19-.15-.34.06L669,450.67,660.24,438c-.15-.23-.27-.12-.35-.07a.27.27,0,0,0-.06.36L668.64,451l0,.29a.3.3,0,0,0,.11.18.23.23,0,0,0,.13,0Z" transform="translate(0 -87.69)"/><rect class="cls-62" x="290.77" y="441.22" width="22.74" height="173.92"/><rect class="cls-38" x="305.15" y="653.39" width="7.46" height="3.42" transform="translate(617.75 1222.52) rotate(180)"/><rect class="cls-38" x="300.87" y="558.03" width="9.59" height="3.42" transform="translate(611.32 1031.79) rotate(180)"/><rect class="cls-38" x="295.18" y="577.1" width="17.42" height="3.42" transform="translate(607.79 1069.93) rotate(180)"/><rect class="cls-38" x="295.18" y="682" width="17.42" height="3.42" transform="translate(607.79 1279.73) rotate(180)"/><rect class="cls-38" x="290.77" y="605.71" width="17.42" height="3.42" transform="translate(598.97 1127.15) rotate(180)"/><rect class="cls-38" x="290.77" y="691.54" width="17.42" height="3.42" transform="translate(598.97 1298.81) rotate(180)"/><rect class="cls-38" x="295.18" y="538.95" width="17.42" height="3.42" transform="translate(607.79 993.64) rotate(180)"/><rect class="cls-38" x="295.18" y="662.93" width="17.42" height="3.42" transform="translate(607.79 1241.59) rotate(180)"/><rect class="cls-38" x="295.18" y="624.78" width="17.42" height="3.42" transform="translate(607.79 1165.3) rotate(180)"/><rect class="cls-65" x="312.64" y="441.22" width="50.37" height="173.92"/><rect class="cls-66" x="322.74" y="556.17" width="22.77" height="3.42"/><rect class="cls-66" x="351.88" y="546.63" width="11.13" height="3.42"/><rect class="cls-66" x="332.2" y="546.63" width="16.84" height="3.42"/><rect class="cls-66" x="353.39" y="565.7" width="9.62" height="3.42"/><rect class="cls-67" x="339.77" y="565.7" width="10.03" height="3.42"/><rect class="cls-66" x="312.61" y="565.7" width="13.35" height="3.42"/><rect class="cls-66" x="312.61" y="558.03" width="21.14" height="3.42" transform="translate(646.35 1031.79) rotate(180)"/><rect class="cls-66" x="341.87" y="558.03" width="21.14" height="3.42" transform="translate(704.88 1031.79) rotate(180)"/><rect class="cls-66" x="312.61" y="567.56" width="25.96" height="3.42" transform="translate(651.18 1050.86) rotate(180)"/><rect class="cls-66" x="312.61" y="489.41" width="9.71" height="3.42"/><rect class="cls-66" x="336.55" y="489.41" width="12.87" height="3.42"/><rect class="cls-66" x="354.25" y="489.41" width="8.77" height="3.42"/><rect class="cls-66" x="322.55" y="594.31" width="6.72" height="3.42"/><rect class="cls-66" x="312.61" y="594.31" width="6.35" height="3.42"/><rect class="cls-66" x="353.58" y="594.31" width="9.43" height="3.42"/><rect class="cls-67" x="324.25" y="498.95" width="15.74" height="3.42"/><rect class="cls-66" x="312.61" y="498.95" width="8.43" height="3.42"/><rect class="cls-66" x="341.87" y="596.19" width="21.14" height="3.42" transform="translate(704.88 1108.11) rotate(180)"/><rect class="cls-66" x="312.61" y="518.02" width="8.81" height="3.42"/><rect class="cls-66" x="355.31" y="605.71" width="7.7" height="3.42" transform="translate(718.33 1127.15) rotate(180)"/><rect class="cls-66" x="328.61" y="603.85" width="25.14" height="3.42"/><rect class="cls-66" x="312.61" y="603.85" width="9.95" height="3.42"/><rect class="cls-66" x="355.31" y="691.54" width="7.7" height="3.42" transform="translate(718.33 1298.81) rotate(180)"/><rect class="cls-66" x="312.61" y="538.95" width="21.14" height="3.42" transform="translate(646.35 993.64) rotate(180)"/><rect class="cls-66" x="356.42" y="451.27" width="6.59" height="3.42"/><rect class="cls-66" x="341.87" y="451.27" width="7.93" height="3.42"/><rect class="cls-66" x="329.36" y="460.8" width="9.41" height="3.42"/><rect class="cls-66" x="312.61" y="662.93" width="21.14" height="3.42" transform="translate(646.35 1241.59) rotate(180)"/><rect class="cls-66" x="334.85" y="584.78" width="18.9" height="3.42"/><rect class="cls-66" x="355.31" y="672.46" width="7.7" height="3.42" transform="translate(718.33 1260.66) rotate(180)"/><rect class="cls-66" x="312.61" y="615.24" width="21.14" height="3.42" transform="translate(646.35 1146.22) rotate(180)"/><rect class="cls-66" x="341.87" y="615.24" width="21.14" height="3.42" transform="translate(704.88 1146.22) rotate(180)"/><rect class="cls-66" x="312.61" y="624.78" width="21.14" height="3.42" transform="translate(646.35 1165.3) rotate(180)"/><polygon class="cls-62" points="206.95 393.08 206.95 368.41 261.37 368.41 261.37 615.14 206.95 615.14 189.1 615.14 189.1 393.08 206.95 393.08"/><rect class="cls-68" x="203.55" y="514.08" width="13.73" height="4.51" transform="translate(420.84 944.99) rotate(180)"/><rect class="cls-68" x="195.42" y="539.21" width="24.94" height="4.51" transform="translate(415.78 995.25) rotate(180)"/><rect class="cls-68" x="195.42" y="677.43" width="24.94" height="4.51" transform="translate(415.78 1271.68) rotate(180)"/><rect class="cls-68" x="203.55" y="564.32" width="13.73" height="4.51" transform="translate(420.84 1045.47) rotate(180)"/><rect class="cls-68" x="189.11" y="689.99" width="24.94" height="4.51" transform="translate(403.15 1296.81) rotate(180)"/><rect class="cls-68" x="195.42" y="488.95" width="24.94" height="4.51" transform="translate(415.78 894.73) rotate(180)"/><rect class="cls-68" x="195.42" y="652.3" width="24.94" height="4.51" transform="translate(415.78 1221.42) rotate(180)"/><rect class="cls-68" x="195.42" y="602.04" width="24.94" height="4.51" transform="translate(415.78 1120.9) rotate(180)"/><polygon class="cls-65" points="238.09 393.08 238.09 368.41 292.51 368.41 292.51 615.14 238.09 615.14 220.25 615.14 220.25 393.08 238.09 393.08"/><rect class="cls-50" x="273.36" y="539.48" width="19.16" height="4.51"/><rect class="cls-50" x="258.03" y="539.48" width="9.43" height="4.51"/><rect class="cls-50" x="283.01" y="526.92" width="9.51" height="4.51"/><rect class="cls-50" x="242.99" y="526.92" width="31.79" height="4.51"/><rect class="cls-50" x="220.36" y="526.92" width="12.69" height="4.51"/><rect class="cls-50" x="287.36" y="552.04" width="5.16" height="4.51"/><rect class="cls-67" x="239.3" y="552.04" width="39.55" height="4.51"/><rect class="cls-50" x="220.36" y="552.04" width="11.56" height="4.51"/><rect class="cls-50" x="235.04" y="426.4" width="15.58" height="4.51"/><rect class="cls-50" x="220.36" y="426.4" width="8.72" height="4.51"/><rect class="cls-50" x="286.13" y="426.4" width="6.39" height="4.51"/><rect class="cls-67" x="241.57" y="438.96" width="15.96" height="4.51"/><rect class="cls-50" x="262.25" y="438.96" width="5.15" height="4.51"/><rect class="cls-50" x="244.41" y="451.53" width="6.22" height="4.51"/><rect class="cls-50" x="220.36" y="451.53" width="18.94" height="4.51"/><rect class="cls-50" x="287.55" y="451.53" width="4.97" height="4.51"/><rect class="cls-50" x="254.62" y="589.74" width="37.89" height="4.51"/><rect class="cls-50" x="250.62" y="464.09" width="7.81" height="4.51"/><rect class="cls-50" x="265.6" y="464.09" width="26.91" height="4.51"/><rect class="cls-50" x="262.25" y="564.37" width="30.26" height="4.51" transform="translate(554.76 1045.56) rotate(180)"/><rect class="cls-67" x="248.57" y="489.22" width="11.92" height="4.51"/><rect class="cls-50" x="220.36" y="489.22" width="19.13" height="4.51"/><rect class="cls-50" x="281.5" y="576.91" width="11.02" height="4.51" transform="translate(574.01 1070.64) rotate(180)"/><rect class="cls-50" x="234" y="602.3" width="29.14" height="4.51"/><rect class="cls-50" x="220.36" y="602.3" width="6.83" height="4.51"/><rect class="cls-50" x="284.14" y="602.3" width="8.37" height="4.51"/><rect class="cls-50" x="220.36" y="488.95" width="30.26" height="4.51" transform="translate(470.98 894.73) rotate(180)"/><rect class="cls-50" x="262.25" y="488.95" width="30.26" height="4.51" transform="translate(554.76 894.73) rotate(180)"/><rect class="cls-50" x="266.54" y="413.83" width="12.71" height="4.51"/><rect class="cls-50" x="281.5" y="501.52" width="11.02" height="4.51" transform="translate(574.01 919.86) rotate(180)"/><rect class="cls-50" x="220.36" y="652.3" width="30.26" height="4.51" transform="translate(470.98 1221.42) rotate(180)"/><rect class="cls-50" x="236.46" y="577.17" width="39.17" height="4.51"/><rect class="cls-50" x="281.5" y="664.86" width="11.02" height="4.51" transform="translate(574.01 1246.55) rotate(180)"/><rect class="cls-50" x="240.24" y="501.79" width="10.38" height="4.51"/><rect class="cls-50" x="262.25" y="589.47" width="30.26" height="4.51" transform="translate(554.76 1095.77) rotate(180)"/><rect class="cls-50" x="220.36" y="602.04" width="30.26" height="4.51" transform="translate(470.98 1120.9) rotate(180)"/><polygon class="cls-62" points="128.65 459.9 128.65 442.65 167.13 442.65 167.13 459.9 179.75 459.9 179.75 615.24 116.03 615.24 116.03 459.9 128.65 459.9"/><rect class="cls-38" x="121.48" y="650.41" width="21.52" height="4.31" transform="translate(264.48 1217.45) rotate(180)"/><rect class="cls-38" x="116.03" y="674.87" width="21.52" height="4.31" transform="translate(253.58 1266.35) rotate(180)"/><rect class="cls-38" x="116.03" y="629.74" width="21.52" height="4.31" transform="translate(253.58 1176.1) rotate(180)"/><rect class="cls-38" x="121.48" y="601.57" width="21.52" height="4.31" transform="translate(264.48 1119.77) rotate(180)"/><rect class="cls-38" x="133.69" y="692.85" width="9.31" height="4.31" transform="translate(276.69 1302.33) rotate(180)"/><rect class="cls-38" x="128.5" y="581.25" width="11.85" height="4.31" transform="translate(268.84 1079.12) rotate(180)"/><rect class="cls-38" x="121.48" y="560.62" width="21.52" height="4.31" transform="translate(264.48 1037.85) rotate(180)"/><polygon class="cls-65" points="155.46 459.9 155.46 442.65 193.46 442.65 193.46 459.9 205.93 459.9 205.93 615.24 143 615.24 143 459.9 155.46 459.9"/><rect class="cls-66" x="143" y="601.57" width="26.39" height="4.31" transform="translate(312.39 1119.76) rotate(180)"/><rect class="cls-67" x="143" y="619.25" width="34.19" height="4.31" transform="translate(320.19 1155.11) rotate(180)"/><rect class="cls-66" x="180.97" y="619.25" width="19.05" height="4.31" transform="translate(380.99 1155.11) rotate(180)"/><rect class="cls-66" x="143" y="641.48" width="48.97" height="4.31" transform="translate(334.97 1199.58) rotate(180)"/><rect class="cls-66" x="143" y="653.61" width="26.39" height="4.31" transform="translate(312.39 1223.83) rotate(180)"/><rect class="cls-66" x="143" y="672.71" width="62.92" height="4.31" transform="translate(348.92 1262.05) rotate(180)"/><rect class="cls-66" x="143" y="692.85" width="62.92" height="4.31" transform="translate(348.92 1302.33) rotate(180)"/><rect class="cls-67" x="143" y="663.65" width="26.39" height="4.31" transform="translate(312.39 1243.91) rotate(180)"/><rect class="cls-66" x="179.53" y="583.64" width="26.39" height="4.31" transform="translate(385.46 1083.9) rotate(180)"/><rect class="cls-66" x="148.07" y="583.64" width="26.39" height="4.31" transform="translate(322.53 1083.9) rotate(180)"/><rect class="cls-66" x="179.53" y="596.45" width="26.39" height="4.31" transform="translate(385.46 1109.52) rotate(180)"/><rect class="cls-66" x="159.14" y="477.19" width="10.25" height="4.31"/><rect class="cls-66" x="143" y="477.19" width="11.6" height="4.31"/><rect class="cls-66" x="196.8" y="471.51" width="9.13" height="4.31"/><rect class="cls-66" x="184.31" y="485.69" width="8.46" height="4.31"/><rect class="cls-66" x="173.99" y="629.66" width="13.95" height="4.31" transform="translate(361.94 1175.93) rotate(180)"/><rect class="cls-66" x="196.32" y="641.48" width="9.61" height="4.31" transform="translate(402.24 1199.58) rotate(180)"/><path class="cls-69" d="M141.12,432.9A22.11,22.11,0,1,1,119,455,22.11,22.11,0,0,1,141.12,432.9Z" transform="translate(0 -87.69)"/><path class="cls-70" d="M139.12,458.86a2.84,2.84,0,1,1,0,4,2.84,2.84,0,0,1,0-4Zm10.51,1.58h-1.2a1.45,1.45,0,0,0-1.44,1.45v1.47h-.19a.53.53,0,0,0-.53.53v4.46a.53.53,0,0,0,.53.53h4.46a.53.53,0,0,0,.53-.53v-4.46a.53.53,0,0,0-.53-.53h-.19v-1.47a1.45,1.45,0,0,0-1.44-1.45Zm-1.87,2.92v-1.47a.68.68,0,0,1,.67-.68h1.2a.68.68,0,0,1,.67.68v1.47h-2.54Zm1.27,1.43a.75.75,0,0,1,.27,1.46v.88a.27.27,0,1,1-.53,0v-.88a.75.75,0,0,1,.26-1.46ZM131.16,450.9a14.11,14.11,0,0,1,19.94,0c.3.3.58.61.85.93l.14.16h0a1.41,1.41,0,0,1-2,1.95l0,0h0l0,0c-.17-.2-.79-.89-.87-1a11.3,11.3,0,0,0-16,0c-.25.26-.5.53-.73.81l-.09.11h0a.74.74,0,0,1-.12.13,1.4,1.4,0,0,1-2.08-1.88h0l.12-.13c.28-.35.59-.69.91-1Zm5.21,6.91a9.09,9.09,0,0,1,.77-.94,5.64,5.64,0,0,1,8,0,6,6,0,0,1,.69.83,1.12,1.12,0,0,0,.19.24,1.41,1.41,0,0,0,2.18-1.76h0a.41.41,0,0,0-.05-.09c-.07-.09-.17-.24-.2-.27a7.9,7.9,0,0,0-.81-.94,8.47,8.47,0,0,0-12,0,8,8,0,0,0-1.09,1.35h0a1.43,1.43,0,0,0,.21,1.72,1.41,1.41,0,0,0,2,0l.11-.12h0Zm-9.18-10.89c-.33.33-.65.67-1,1l0,0a1.41,1.41,0,0,0,2,2l.1-.11v0c.27-.31.55-.61.85-.91a16.91,16.91,0,0,1,23.91,0c.33.33.62.7.94,1a1.41,1.41,0,0,0,2-2h0c-.3-.35-.62-.69-1-1A19.72,19.72,0,0,0,127.19,446.92Z" transform="translate(0 -87.69)"/><circle class="cls-38" cx="595.34" cy="466.61" r="19.24" transform="translate(-155.57 469.95) rotate(-45)"/><path class="cls-71" d="M597.52,469.37a3.65,3.65,0,1,0-3.53-.22" transform="translate(0 -87.69)"/><path class="cls-71" d="M597.48,478A12.05,12.05,0,1,0,594,478" transform="translate(0 -87.69)"/><path class="cls-71" d="M597.52,476.44a10.49,10.49,0,1,0-3.53-.07" transform="translate(0 -87.69)"/><path class="cls-71" d="M597.52,474.65a8.71,8.71,0,1,0-3.53-.08" transform="translate(0 -87.69)"/><path class="cls-71" d="M597.52,472.84a6.95,6.95,0,1,0-3.53-.1" transform="translate(0 -87.69)"/><path class="cls-71" d="M597.52,471.14A5.3,5.3,0,1,0,594,471" transform="translate(0 -87.69)"/><line class="cls-71" x1="593.93" y1="390.44" x2="593.93" y2="381.26"/><line class="cls-71" x1="597.46" y1="390.5" x2="597.46" y2="381.43"/><circle class="cls-18" cx="595.99" cy="378.13" r="1.88"/><path class="cls-72" d="M627.45,379.49a27.76,27.76,0,1,1,27.76,27.76A27.76,27.76,0,0,1,627.45,379.49Z" transform="translate(0 -87.69)"/><path class="cls-38" d="M655.21,408.48a29,29,0,1,1,29-29A29,29,0,0,1,655.21,408.48Zm0-55.51a26.53,26.53,0,1,0,26.53,26.52A26.56,26.56,0,0,0,655.21,353Z" transform="translate(0 -87.69)"/><path class="cls-38" d="M683,380.81v-2.63h-8.31a36.72,36.72,0,0,0-2.76-13,28.22,28.22,0,0,0,4.47-3.86l-1.92-1.8a27,27,0,0,1-3.7,3.25c-3.56-6.72-9.21-11.07-15.56-11.07s-12,4.35-15.56,11.07a27.69,27.69,0,0,1-3.7-3.25l-1.92,1.8a28.67,28.67,0,0,0,4.47,3.86,36.77,36.77,0,0,0-2.76,13h-8.29v2.63h8.29a36.53,36.53,0,0,0,2.73,12.88,29.08,29.08,0,0,0-4.49,3.89l1.92,1.8a27.23,27.23,0,0,1,3.71-3.27c3.56,6.76,9.23,11.14,15.6,11.14s12-4.38,15.6-11.14a27.23,27.23,0,0,1,3.71,3.27l1.92-1.8a29.08,29.08,0,0,0-4.49-3.89,36.53,36.53,0,0,0,2.73-12.88Zm-11-2.63h-7.8a86.25,86.25,0,0,0-.58-8.95,29.64,29.64,0,0,0,6-2.61A34.75,34.75,0,0,1,672,378.18Zm-16.82,26.56c-1.84,0-4.25-4.89-5.53-13.15a26.65,26.65,0,0,1,11.06,0C659.46,399.85,657.05,404.74,655.21,404.74Zm0-16.36a28.81,28.81,0,0,0-5.87.61,80.42,80.42,0,0,1-.51-8.18h12.76a80.42,80.42,0,0,1-.51,8.18A28.81,28.81,0,0,0,655.21,388.38Zm-6.38-10.2a82.17,82.17,0,0,1,.52-8.29,28.45,28.45,0,0,0,11.72,0,82.17,82.17,0,0,1,.52,8.29Zm6.38-23.94c1.83,0,4.23,4.85,5.51,13.05a26.46,26.46,0,0,1-11,0C651,359.09,653.38,354.24,655.21,354.24Zm13.4,10a26.21,26.21,0,0,1-5.32,2.4c-.74-4.65-1.89-8.7-3.46-11.39C663.37,356.75,666.43,360,668.61,364.22Zm-18-9c-1.57,2.69-2.72,6.74-3.46,11.39a26.21,26.21,0,0,1-5.32-2.4C644,360,647.05,356.75,650.59,355.23Zm-9.86,11.39a29.64,29.64,0,0,0,6,2.61,86.25,86.25,0,0,0-.58,8.95h-7.8A34.75,34.75,0,0,1,640.73,366.62Zm-2.34,14.19h7.8a84.16,84.16,0,0,0,.57,8.84,29.63,29.63,0,0,0-6.06,2.63A34.82,34.82,0,0,1,638.39,380.81Zm3.38,13.87a26.28,26.28,0,0,1,5.35-2.42c.73,4.7,1.89,8.78,3.47,11.49C647,402.23,644,399,641.77,394.68Zm18.06,9.07c1.58-2.71,2.74-6.79,3.47-11.49a26.28,26.28,0,0,1,5.35,2.42C666.47,399,663.39,402.23,659.83,403.75Zm9.89-11.47a29.63,29.63,0,0,0-6.06-2.63,84.16,84.16,0,0,0,.57-8.84H672A34.56,34.56,0,0,1,669.72,392.28Z" transform="translate(0 -87.69)"/><path class="cls-67" d="M595.34,448.3a2.47,2.47,0,0,1-2.46-2.47v-.61a2.47,2.47,0,1,1,4.93,0v.61A2.48,2.48,0,0,1,595.34,448.3Z" transform="translate(0 -87.69)"/><path class="cls-11" d="M595.34,438.77a2.46,2.46,0,0,1-2.46-2.46V435a2.47,2.47,0,0,1,4.93,0v1.27A2.47,2.47,0,0,1,595.34,438.77Zm0-10.17a2.47,2.47,0,0,1-2.46-2.47v-1.27a2.47,2.47,0,0,1,4.93,0v1.27A2.48,2.48,0,0,1,595.34,428.6Zm-.13-10.18a2.47,2.47,0,0,1-2.44-2.14,9,9,0,0,0-.18-1,2.46,2.46,0,1,1,4.81-1.06c.11.48.19,1,.26,1.46a2.47,2.47,0,0,1-2.13,2.76A1.67,1.67,0,0,1,595.21,418.42Zm-4.54-8.88a2.47,2.47,0,0,1-1.69-.67,10.54,10.54,0,0,0-.8-.7,2.46,2.46,0,1,1,3.07-3.85c.39.31.76.63,1.12,1a2.46,2.46,0,0,1-1.7,4.25Zm-9.11-4.06h-.2c-.31,0-.61,0-1,0l-.11-2.46v-2.47c.55,0,1,0,1.46.06a2.46,2.46,0,0,1-.19,4.91Zm-10.18,0h-1.27a2.47,2.47,0,0,1,0-4.93h1.27a2.47,2.47,0,0,1,0,4.93Zm-10.18,0h-1.27a2.47,2.47,0,0,1,0-4.93h1.27a2.47,2.47,0,1,1,0,4.93Zm-10.18,0h-1.27a2.47,2.47,0,0,1,0-4.93H551a2.47,2.47,0,1,1,0,4.93Zm-10.17,0h-1.28a2.47,2.47,0,0,1,0-4.93h1.28a2.47,2.47,0,0,1,0,4.93Zm-10.18,0H529.4a2.47,2.47,0,1,1,0-4.93h1.27a2.47,2.47,0,0,1,0,4.93Zm-10.18,0h-1.27a2.47,2.47,0,0,1,0-4.93h1.27a2.47,2.47,0,0,1,0,4.93Zm-10.18,0H509a2.47,2.47,0,0,1,0-4.93h1.27a2.47,2.47,0,1,1,0,4.93Zm-10.17,0h-1.28a2.47,2.47,0,0,1,0-4.93h1.28a2.47,2.47,0,0,1,0,4.93Z" transform="translate(0 -87.69)"/><path class="cls-67" d="M489.94,405.44h-.61a2.47,2.47,0,1,1,0-4.93h.61a2.47,2.47,0,0,1,0,4.93Z" transform="translate(0 -87.69)"/><path class="cls-11" d="M141.12,433.52a2.46,2.46,0,0,1-2.46-2.46v-.2a2.47,2.47,0,0,1,4.93,0v.2A2.47,2.47,0,0,1,141.12,433.52Zm0-8.81a2.46,2.46,0,0,1-2.46-2.46V421a2.47,2.47,0,0,1,4.93,0v1.24A2.47,2.47,0,0,1,141.12,424.71Zm0-9.85a2.46,2.46,0,0,1-2.46-2.46v-1.24a2.47,2.47,0,0,1,4.93,0v1.24A2.47,2.47,0,0,1,141.12,414.86Zm0-9.85a2.46,2.46,0,0,1-2.46-2.46v-1.24a2.47,2.47,0,0,1,4.93,0v1.24A2.47,2.47,0,0,1,141.12,405Zm.63-9.8a2.15,2.15,0,0,1-.62-.08,2.46,2.46,0,0,1-1.77-3c.12-.45.25-.9.4-1.34a2.46,2.46,0,0,1,4.67,1.55c-.11.34-.21.68-.3,1A2.46,2.46,0,0,1,141.75,395.21Zm4.77-8.48a2.47,2.47,0,0,1-1.76-4.18q.48-.49,1-1a2.46,2.46,0,1,1,3.32,3.64q-.4.36-.78.75A2.44,2.44,0,0,1,146.52,386.73Zm8.33-5.06a2.46,2.46,0,0,1-.69-4.82c.44-.13.88-.25,1.34-.35a2.46,2.46,0,0,1,1.09,4.8c-.35.08-.7.17-1,.27A2.47,2.47,0,0,1,154.85,381.67Zm257.25-.78h-1.23a2.47,2.47,0,0,1,0-4.93h1.23a2.47,2.47,0,1,1,0,4.93Zm-9.85,0H401a2.47,2.47,0,0,1,0-4.93h1.23a2.47,2.47,0,1,1,0,4.93Zm-9.85,0h-1.23a2.47,2.47,0,0,1,0-4.93h1.23a2.47,2.47,0,1,1,0,4.93Zm-9.85,0h-1.23a2.47,2.47,0,0,1,0-4.93h1.23a2.47,2.47,0,1,1,0,4.93Zm-9.85,0h-1.23a2.47,2.47,0,0,1,0-4.93h1.23a2.47,2.47,0,1,1,0,4.93Zm-9.85,0h-1.23a2.47,2.47,0,0,1,0-4.93h1.23a2.47,2.47,0,1,1,0,4.93Zm-9.85,0h-1.23a2.47,2.47,0,0,1,0-4.93H353a2.47,2.47,0,1,1,0,4.93Zm-9.85,0h-1.23a2.47,2.47,0,0,1,0-4.93h1.23a2.47,2.47,0,1,1,0,4.93Zm-9.85,0h-1.23a2.47,2.47,0,0,1,0-4.93h1.23a2.47,2.47,0,1,1,0,4.93Zm-9.85,0h-1.23a2.47,2.47,0,0,1,0-4.93h1.23a2.47,2.47,0,1,1,0,4.93Zm-9.85,0h-1.23a2.47,2.47,0,0,1,0-4.93h1.23a2.47,2.47,0,1,1,0,4.93Zm-9.85,0h-1.23a2.47,2.47,0,0,1,0-4.93h1.23a2.47,2.47,0,1,1,0,4.93Zm-9.85,0h-1.23a2.47,2.47,0,0,1,0-4.93h1.23a2.47,2.47,0,1,1,0,4.93Zm-9.85,0h-1.23a2.47,2.47,0,0,1,0-4.93h1.23a2.47,2.47,0,1,1,0,4.93Zm-9.85,0H273a2.47,2.47,0,0,1,0-4.93h1.23a2.47,2.47,0,1,1,0,4.93Zm-9.85,0h-1.23a2.47,2.47,0,0,1,0-4.93h1.23a2.47,2.47,0,1,1,0,4.93Zm-9.85,0h-1.23a2.47,2.47,0,0,1,0-4.93h1.23a2.47,2.47,0,1,1,0,4.93Zm-9.85,0h-1.23a2.47,2.47,0,0,1,0-4.93h1.23a2.47,2.47,0,1,1,0,4.93Zm-9.85,0h-1.23a2.47,2.47,0,0,1,0-4.93h1.23a2.47,2.47,0,1,1,0,4.93Zm-9.85,0h-1.23a2.47,2.47,0,0,1,0-4.93H225a2.47,2.47,0,1,1,0,4.93Zm-9.85,0h-1.23a2.47,2.47,0,0,1,0-4.93h1.23a2.47,2.47,0,1,1,0,4.93Zm-9.85,0H204a2.47,2.47,0,0,1,0-4.93h1.23a2.47,2.47,0,1,1,0,4.93Zm-9.85,0h-1.23a2.47,2.47,0,0,1,0-4.93h1.23a2.47,2.47,0,1,1,0,4.93Zm-9.84,0h-1.24a2.47,2.47,0,0,1,0-4.93h1.24a2.47,2.47,0,0,1,0,4.93Zm-9.86,0h-1.23a2.47,2.47,0,0,1,0-4.93h1.23a2.47,2.47,0,1,1,0,4.93Zm-9.85,0h-1.23a2.47,2.47,0,0,1,0-4.93h1.23a2.47,2.47,0,1,1,0,4.93Z" transform="translate(0 -87.69)"/><path class="cls-73" d="M252.71,349a30.2,30.2,0,1,1-30.21,30.2A30.2,30.2,0,0,1,252.71,349Z" transform="translate(0 -87.69)"/><path class="cls-70" d="M263.27,383.67a15,15,0,0,1-4.68,3.18l-.75-1.91a12.71,12.71,0,0,0,4-2.72,12.87,12.87,0,1,0-14.24,2.72l-.75,1.91a14.95,14.95,0,1,1,16.44-3.18Zm-5.77-5.77a6.77,6.77,0,1,0-9.58,0,6.67,6.67,0,0,0,1.84,1.31V376.8h0l0,0h0l-.06-.05h0l-.06-.05h0a.46.46,0,0,0-.07-.07h0a.6.6,0,0,1-.08-.08,4.72,4.72,0,0,1,6.68-6.68l.09.08.08.09.08.09.07.09.08.1.07.09a.86.86,0,0,0,.07.1l.06.1.07.09.06.11.06.1a.31.31,0,0,1,.05.1l.06.1a.54.54,0,0,0,.05.11l0,.1h0l0,.11s0,.07,0,.11l0,.1a.36.36,0,0,0,0,.11l0,.11,0,.11,0,.11a.52.52,0,0,1,0,.11l0,.12h0a.52.52,0,0,0,0,.11.52.52,0,0,0,0,.11s0,.07,0,.11h0s0,.08,0,.11a.49.49,0,0,1,0,.12s0,.07,0,.11V373h0v.34s0,.08,0,.12a.41.41,0,0,1,0,.11s0,.08,0,.11h0s0,.08,0,.12a.36.36,0,0,0,0,.11.43.43,0,0,0,0,.11h0l0,.11a.36.36,0,0,1,0,.11l0,.11,0,.11h0l0,.11a.76.76,0,0,0,0,.11s0,.07,0,.11a1,1,0,0,1,0,.1h0a1.17,1.17,0,0,1,0,.11s0,.07,0,.11l-.05.1-.06.11-.05.1-.06.1-.06.1h0a.61.61,0,0,1-.07.1h0l-.06.1-.07.09h0l-.07.1-.08.09-.07.09-.08.09-.08.09h0l-.09.09-.08.08h0l-.08.08h0l-.07.06h0l-.07.05h0l0,0v2.41a6.82,6.82,0,0,0,1.84-1.31Zm2.87,2.88a10.84,10.84,0,1,0-15.33,0,11,11,0,0,0,3.28,2.25l.75-1.92a8.62,8.62,0,0,1-2.58-1.79,8.79,8.79,0,1,1,9.86,1.79l.74,1.92A10.91,10.91,0,0,0,260.37,380.78Z" transform="translate(0 -87.69)"/><path class="cls-70" d="M254.6,375a2.66,2.66,0,1,0-2.79.63v4.1l-3.54,9.06-4.44,11.36,8.88-6,8.87,6-4.43-11.36-3.54-9.06v-4.1A2.69,2.69,0,0,0,254.6,375Z" transform="translate(0 -87.69)"/><path class="cls-11" d="M323.18,480.62a2.47,2.47,0,0,1-2.47-2.46v-1.24a2.47,2.47,0,0,1,4.93,0v1.24A2.46,2.46,0,0,1,323.18,480.62Zm0-9.85a2.47,2.47,0,0,1-2.47-2.46v-1.24a2.47,2.47,0,0,1,4.93,0v1.24A2.46,2.46,0,0,1,323.18,470.77Zm0-9.85a2.47,2.47,0,0,1-2.47-2.47v-1.23a2.47,2.47,0,0,1,4.93,0v1.23A2.46,2.46,0,0,1,323.18,460.92Zm0-9.85a2.47,2.47,0,0,1-2.47-2.46v-1.24a2.47,2.47,0,0,1,4.93,0v1.24A2.46,2.46,0,0,1,323.18,451.07Zm0-9.85a2.47,2.47,0,0,1-2.47-2.46v-1.24a2.47,2.47,0,0,1,4.93,0v1.24A2.46,2.46,0,0,1,323.18,441.22Zm0-9.85a2.47,2.47,0,0,1-2.47-2.46v-1.24a2.47,2.47,0,0,1,4.93,0v1.24A2.46,2.46,0,0,1,323.18,431.37Zm0-9.85a2.47,2.47,0,0,1-2.47-2.46v-1.24a2.47,2.47,0,0,1,4.93,0v1.24A2.46,2.46,0,0,1,323.18,421.52Zm0-9.85a2.47,2.47,0,0,1-2.47-2.46V408a2.47,2.47,0,0,1,4.93,0v1.24A2.46,2.46,0,0,1,323.18,411.67Zm0-9.85a2.47,2.47,0,0,1-2.47-2.46v-1.24a2.47,2.47,0,0,1,4.93,0v1.24A2.46,2.46,0,0,1,323.18,401.82Zm0-9.85a2.47,2.47,0,0,1-2.47-2.46v-1.24a2.47,2.47,0,0,1,4.93,0v1.24A2.46,2.46,0,0,1,323.18,392Zm0-9.85a2.47,2.47,0,0,1-2.47-2.46v-1.24a2.47,2.47,0,0,1,4.93,0v1.24A2.46,2.46,0,0,1,323.18,382.12Z" transform="translate(0 -87.69)"/><path class="cls-74" d="M326.34,473a17,17,0,1,1-17,17A17,17,0,0,1,326.34,473Z" transform="translate(0 -87.69)"/><path class="cls-70" d="M327.92,491.59a2.23,2.23,0,1,0-3.16,0,2.24,2.24,0,0,0,3.16,0Zm5.12,5.12a9.48,9.48,0,0,0,0-13.4,6.53,6.53,0,0,0-.62-.57l-.11-.1h0A.95.95,0,0,0,331,484l0,0h0l0,0,.65.58a7.59,7.59,0,0,1,0,10.73,6.39,6.39,0,0,1-.54.5l-.08.06h0L331,496a1,1,0,0,0,0,1.34.94.94,0,0,0,1.26.07h0l.1-.08c.23-.19.46-.4.68-.62Zm-4.65-3.5a7.52,7.52,0,0,0,.64-.51,3.81,3.81,0,0,0,0-5.38,3.9,3.9,0,0,0-.56-.46l-.16-.13a.94.94,0,0,1,1.18-1.46h0l.05,0,.19.13a6.14,6.14,0,0,1,.62.54,5.69,5.69,0,0,1,0,8.06,5.32,5.32,0,0,1-.9.73h0a.95.95,0,0,1-1.16-1.48l.09-.07Zm7.33,6.18q-.35.33-.69.63l0,0a.95.95,0,0,1-1.33-1.35l.08-.06h0c.21-.18.42-.37.62-.57a11.37,11.37,0,0,0,0-16.08c-.22-.22-.47-.42-.69-.63A.95.95,0,0,1,335,480h0c.24.2.47.42.7.64a13.28,13.28,0,0,1,0,18.76Zm-16.09-2.68a9.48,9.48,0,0,1,0-13.4,5.59,5.59,0,0,1,.63-.57l.1-.1h0a.95.95,0,0,1,1.31,1.37l0,0h0l0,0-.65.58a7.59,7.59,0,0,0,0,10.73c.17.18.36.34.54.5l.08.06h0l.09.07a1,1,0,0,1-1.27,1.41h0l-.1-.08c-.23-.19-.46-.4-.68-.62Zm4.65-3.5h0l.08.07a.94.94,0,0,1-1.15,1.48h0a5.39,5.39,0,0,1-.91-.73,5.69,5.69,0,0,1,0-8.06,5.3,5.3,0,0,1,.63-.54l.18-.13.06,0h0a.94.94,0,0,1,1.18,1.46l-.15.13a3,3,0,0,0-.56.46,3.8,3.8,0,0,0,0,5.38,6.11,6.11,0,0,0,.63.51ZM317,499.39c.22.22.45.43.68.63l0,0a.95.95,0,0,0,1.33-1.35l-.07-.06h0a8.22,8.22,0,0,1-.61-.57,11.35,11.35,0,0,1,0-16.08c.22-.22.47-.42.68-.63a.95.95,0,0,0-1.33-1.35h0c-.24.2-.47.42-.69.64A13.27,13.27,0,0,0,317,499.39Z" transform="translate(0 -87.69)"/><path class="cls-16" d="M223.83,720.8H84.28a3.46,3.46,0,0,0-4.68-1.7V706.62a4.87,4.87,0,0,0-4.87-4.87H72.48a4.88,4.88,0,0,0-4.88,4.87v30.25a4.88,4.88,0,0,0,4.88,4.88H77.4a13.32,13.32,0,0,0,1.56.11H223.83c6.25,0,11.36-4.73,11.36-10.54S230.08,720.8,223.83,720.8Z" transform="translate(0 -87.69)"/><text class="cls-75" transform="matrix(0.98, 0.21, -0.21, 0.98, 896.79, 179.3)">with <tspan class="cls-76" x="32.33" y="0">r</tspan><tspan x="37.29" y="0">ea</tspan><tspan class="cls-77" x="52.65" y="0">c</tspan><tspan x="59.86" y="0">t</tspan></text></g></g></g></svg>
