<svg xmlns="http://www.w3.org/2000/svg" xmlns:xlink="http://www.w3.org/1999/xlink" viewBox="0 0 1921.69 765.81"><defs><style>.cls-1,.cls-40,.cls-43,.cls-52{fill:none;}.cls-2{isolation:isolate;}.cls-3{opacity:0.47;}.cls-4{fill:#e0e4f0;}.cls-5{opacity:0.5;}.cls-6{clip-path:url(#clip-path);}.cls-7,.cls-8{opacity:0.75;}.cls-7{fill:url(#linear-gradient);}.cls-8{fill:url(#linear-gradient-2);}.cls-9{fill:url(#linear-gradient-3);}.cls-10{fill:url(#linear-gradient-4);}.cls-11{fill:#ffd7cf;}.cls-12{fill:#b2b8fa;}.cls-13{fill:#191c3c;}.cls-14{fill:#81b7fb;}.cls-15{fill:#4d8bd7;}.cls-16{fill:#f1f2ff;}.cls-17{fill:#7790b7;}.cls-18{fill:#d1ddff;}.cls-19,.cls-55,.cls-59,.cls-62,.cls-66,.cls-67{fill:#fff;}.cls-20{fill:#d7ddfb;}.cls-21{fill:#8ec2fe;}.cls-22{fill:#8592c8;}.cls-23{fill:#41446b;}.cls-24,.cls-41{fill:#c8c8c8;}.cls-24{opacity:0.44;}.cls-24,.cls-36,.cls-41{mix-blend-mode:multiply;}.cls-25{fill:#1f2e3b;}.cls-26{fill:#c6cbe9;}.cls-27{fill:#6e8adb;}.cls-28{fill:#ebb28b;}.cls-29{fill:#ff65a7;}.cls-30{fill:#f2f7ff;}.cls-31{fill:#f0bc99;}.cls-32{fill:#21283a;}.cls-33{fill:#f0af74;}.cls-34{fill:#4f5977;}.cls-35{fill:#4568af;}.cls-36{fill:#b8b8b8;opacity:0.12;}.cls-37{fill:#fec55e;}.cls-38{fill:#92a6dd;}.cls-39{fill:#4563cc;}.cls-40,.cls-43{stroke:#fff;}.cls-40{stroke-miterlimit:10;}.cls-41{opacity:0.23;}.cls-42{fill:#ebedfd;}.cls-43,.cls-52{stroke-linecap:round;stroke-linejoin:round;}.cls-43{stroke-width:2.21px;}.cls-44{fill:#83b9fd;}.cls-45{fill:#c8cdeb;}.cls-46{fill:url(#linear-gradient-5);}.cls-47{fill:#fed65c;}.cls-48{fill:#6285bc;}.cls-49{fill:#feb834;}.cls-50{fill:#c7cdf9;}.cls-51{fill:#264463;}.cls-52{stroke:#f066a4;stroke-width:1.5px;}.cls-53{fill:#d38e20;}.cls-54{fill:url(#linear-gradient-6);}.cls-55{font-size:36.02px;}.cls-55,.cls-59,.cls-62{font-family:Montserrat-SemiBold, Montserrat;font-weight:600;}.cls-56{letter-spacing:-0.01em;}.cls-57{letter-spacing:-0.02em;}.cls-58{fill:#e298bb;}.cls-59{font-size:37.91px;letter-spacing:0em;}.cls-60{letter-spacing:0em;}.cls-61{letter-spacing:0em;}.cls-62{font-size:20.47px;}.cls-63{letter-spacing:-0.01em;}.cls-64{fill:url(#linear-gradient-7);}.cls-65{fill:url(#linear-gradient-8);}.cls-66{font-size:43.91px;font-family:Roboto-Bold, Roboto;font-weight:700;}.cls-67{font-size:9.41px;font-family:Montserrat-Medium, Montserrat;font-weight:500;letter-spacing:0.2em;}.cls-68{letter-spacing:0.17em;}.cls-69{letter-spacing:0.16em;}.cls-70{fill:url(#linear-gradient-9);}.cls-71{fill:url(#linear-gradient-10);}.cls-72{fill:url(#linear-gradient-11);}</style><clipPath id="clip-path" transform="translate(0 -87.69)"><rect class="cls-1" x="50.22" width="1055.21" height="820.75"/></clipPath><linearGradient id="linear-gradient" x1="285.24" y1="778.53" x2="285.24" y2="555.65" gradientUnits="userSpaceOnUse"><stop offset="0" stop-color="#fff"/><stop offset="0.29" stop-color="#eff1f7"/><stop offset="0.63" stop-color="#e4e6f1"/><stop offset="1" stop-color="#e0e3ef"/></linearGradient><linearGradient id="linear-gradient-2" x1="842.67" y1="768.19" x2="842.67" y2="514.56" xlink:href="#linear-gradient"/><linearGradient id="linear-gradient-3" x1="232.4" y1="398.17" x2="228.09" y2="407.09" gradientUnits="userSpaceOnUse"><stop offset="0" stop-color="#fff"/><stop offset="0.15" stop-color="#f1f6fb"/><stop offset="0.42" stop-color="#deeaf7"/><stop offset="0.7" stop-color="#d3e3f4"/><stop offset="1" stop-color="#cfe1f3"/></linearGradient><linearGradient id="linear-gradient-4" x1="330.4" y1="402.56" x2="323.89" y2="416.05" xlink:href="#linear-gradient-3"/><linearGradient id="linear-gradient-5" x1="1819.6" y1="359.57" x2="1899.34" y2="359.57" gradientUnits="userSpaceOnUse"><stop offset="0" stop-color="#fec55e"/><stop offset="1" stop-color="#ffa000"/></linearGradient><linearGradient id="linear-gradient-6" x1="901.46" y1="244.21" x2="1018.41" y2="244.21" xlink:href="#linear-gradient-5"/><linearGradient id="linear-gradient-7" x1="127.93" y1="460.89" x2="545.29" y2="460.89" gradientUnits="userSpaceOnUse"><stop offset="0" stop-color="#a3afd3"/><stop offset="0.19" stop-color="#8294d1"/><stop offset="0.38" stop-color="#677fcf"/><stop offset="0.58" stop-color="#546fcd"/><stop offset="0.78" stop-color="#4966cc"/><stop offset="1" stop-color="#4563cc"/></linearGradient><linearGradient id="linear-gradient-8" x1="364.7" y1="289.16" x2="490.29" y2="289.16" xlink:href="#linear-gradient-7"/><linearGradient id="linear-gradient-9" x1="343.79" y1="446.14" x2="343.79" y2="736.81" gradientUnits="userSpaceOnUse"><stop offset="0" stop-color="#eef4fb"/><stop offset="1" stop-color="#e0e4f0"/></linearGradient><linearGradient id="linear-gradient-10" x1="456.72" y1="607.57" x2="554.9" y2="607.57" xlink:href="#linear-gradient-9"/><linearGradient id="linear-gradient-11" x1="186.42" y1="560.82" x2="186.42" y2="733.62" xlink:href="#linear-gradient-9"/></defs><title>BlueSky</title><g class="cls-2"><g id="Layer_2" data-name="Layer 2"><g id="Layer_1-2" data-name="Layer 1"><g class="cls-3"><path class="cls-4" d="M1073.69,820.75a520.62,520.62,0,0,0-45-212.35A164.78,164.78,0,0,0,831.37,379.62a520.12,520.12,0,0,0-280.25-81.45q-19.27,0-38.2,1.38A134.6,134.6,0,0,0,306.23,359a523.86,523.86,0,0,0-109,77.23,149.18,149.18,0,0,0-148.47,240A523.11,523.11,0,0,0,28.54,820.75Z" transform="translate(0 -87.69)"/></g><g class="cls-3"><path class="cls-4" d="M1921.69,820.75a520.62,520.62,0,0,0-45-212.35,164.78,164.78,0,0,0-197.34-228.78,520.12,520.12,0,0,0-280.25-81.45q-19.27,0-38.2,1.38A134.6,134.6,0,0,0,1154.23,359a523.86,523.86,0,0,0-109,77.23,149.18,149.18,0,0,0-148.47,240,523.11,523.11,0,0,0-20.23,144.44Z" transform="translate(0 -87.69)"/></g><g class="cls-3"><path class="cls-4" d="M508,820.75c0-132.81-107.67-240.48-240.48-240.48S27.09,687.94,27.09,820.75Z" transform="translate(0 -87.69)"/></g><g class="cls-3"><path class="cls-4" d="M952.05,820.75c0-132.81-107.67-240.48-240.48-240.48S471.1,687.94,471.1,820.75Z" transform="translate(0 -87.69)"/></g><g class="cls-3"><path class="cls-4" d="M1440.87,820.75c0-132.81-107.66-240.48-240.48-240.48S959.92,687.94,959.92,820.75Z" transform="translate(0 -87.69)"/></g><g class="cls-3"><path class="cls-4" d="M1921.69,820.75c0-132.81-107.66-240.48-240.47-240.48s-240.48,107.67-240.48,240.48Z" transform="translate(0 -87.69)"/></g><g class="cls-5"><circle class="cls-4" cx="720.44" cy="284.67" r="15.82" transform="translate(278.53 833.22) rotate(-76.78)"/></g><g class="cls-5"><circle class="cls-4" cx="1360.44" cy="233.67" r="15.82" transform="translate(821.79 1416.91) rotate(-76.78)"/></g><g class="cls-5"><path class="cls-4" d="M453.92,223.41a20.49,20.49,0,1,1-20.49-20.49A20.49,20.49,0,0,1,453.92,223.41Z" transform="translate(0 -87.69)"/></g><g class="cls-5"><path class="cls-4" d="M1512.92,238.41a20.49,20.49,0,1,1-20.49-20.49A20.49,20.49,0,0,1,1512.92,238.41Z" transform="translate(0 -87.69)"/></g><g class="cls-5"><path class="cls-4" d="M1147.92,308.41a20.49,20.49,0,1,1-20.49-20.49A20.49,20.49,0,0,1,1147.92,308.41Z" transform="translate(0 -87.69)"/></g><g class="cls-5"><path class="cls-4" d="M216.25,357.55a10.44,10.44,0,1,1-10.44-10.44A10.43,10.43,0,0,1,216.25,357.55Z" transform="translate(0 -87.69)"/></g><g class="cls-5"><circle class="cls-4" cx="310.45" cy="193.15" r="10.44"/></g><g class="cls-5"><circle class="cls-4" cx="1751.45" cy="221.15" r="10.44"/></g><g class="cls-5"><path class="cls-4" d="M816.57,306.44a9.31,9.31,0,1,1-9.31-9.32A9.31,9.31,0,0,1,816.57,306.44Z" transform="translate(0 -87.69)"/></g><g class="cls-5"><path class="cls-4" d="M517.91,231.81a3.22,3.22,0,1,1-3.21-3.22A3.22,3.22,0,0,1,517.91,231.81Z" transform="translate(0 -87.69)"/></g><g class="cls-5"><circle class="cls-4" cx="247" cy="228.15" r="4.19"/></g><g class="cls-5"><path class="cls-4" d="M101.2,407a5.57,5.57,0,1,1-5.56-5.57A5.57,5.57,0,0,1,101.2,407Z" transform="translate(0 -87.69)"/></g><g class="cls-5"><path class="cls-4" d="M559.58,245.82a5.57,5.57,0,1,1-5.57-5.57A5.57,5.57,0,0,1,559.58,245.82Z" transform="translate(0 -87.69)"/></g><g class="cls-5"><path class="cls-4" d="M1222.58,236.82a5.57,5.57,0,1,1-5.57-5.57A5.57,5.57,0,0,1,1222.58,236.82Z" transform="translate(0 -87.69)"/></g><g class="cls-5"><circle class="cls-4" cx="151.11" cy="389.54" r="23.62" transform="translate(-257.61 388.62) rotate(-80.78)"/></g><g class="cls-5"><circle class="cls-4" cx="1024.11" cy="363.54" r="23.62" transform="translate(501.22 1228.51) rotate(-80.78)"/></g><g class="cls-5"><path class="cls-4" d="M26.12,665.18a5.57,5.57,0,1,1-5.57-5.57A5.57,5.57,0,0,1,26.12,665.18Z" transform="translate(0 -87.69)"/></g><g class="cls-5"><circle class="cls-4" cx="634.33" cy="181.74" r="22.89"/></g><g class="cls-5"><circle class="cls-4" cx="1628.33" cy="182.74" r="22.89"/></g><g class="cls-5"><circle class="cls-4" cx="899.33" cy="238.74" r="22.89"/></g><g class="cls-5"><circle class="cls-4" cx="18.12" cy="467.05" r="18.12" transform="translate(-177.35 -45.2) rotate(-22.5)"/></g><g class="cls-5"><path class="cls-4" d="M1859.25,372.55a10.44,10.44,0,1,1-10.44-10.44A10.43,10.43,0,0,1,1859.25,372.55Z" transform="translate(0 -87.69)"/></g><g class="cls-6"><path class="cls-7" d="M1.29,575.94V853.5h567.9V562.88H567.1V542h-4.76v-1.57H560.4v-2.83h-3.55V526.39h-2.27l-1.26-25.07h-1l-1.26,25.07h-2.28v11.22h-.73v-6.56l-25.93,87.1-24.77.4v81.58L486.8,583.23h-7.1v3.13h-3.07V559.07h-2.24l-1.22-37.24h-1L471,559.07h-2.24v27.29H456.55v6.84l-2.8-4.06V514.86H435.83V494.58h-4.44v20.28h-9.52V645.41L397.7,633.89l-1.78-153.75H375.8V449H365.61V552.53H360.4V537.16h-9.81V523.59h-5.21v13.57H341.7V523.32h-3v-1.43h-1.22v-2.57h-2.24V500h-5.07v19.29H328v2.57h-1.22v1.43h-3v13.84h-3.25v25.25h-9.4v43.86h-5.65v11.79h-1.52v-20.4H302l-1-17.83h-.82l-1,17.83h-1.88v20.4h-2.91v55.61h-7.79v-99l-1.37-4.79V565h-1.4l-2.68-52.43-4.89.15V486.21h-7.07V513l-7.34.24-3.74,49.43-7,54.69h-7.34V572h-1.44l-.79-16.86h-.63L240.08,572h-1.44v2.69h-6.75V526.08h-.75v48.61h-3.92V542H206.09v32.68h-3.54v50.37h-5.87V560.29h-2.26V547.77l-15-4.47V681.63H175V555h-8.27V543.54h-4.4V555H150.5V686.63H140.37V550.12H130v-24.7h-1.25L128,504.51h-.56l-.69,20.91h-1.25v24.7h-21v94.66H89.76V514.29H75.65v-33l-40.4,10.87.16,56.95H18.19v26.83ZM553.35,527.8h1.08v9h-1.08Zm-2.15,0h1.08v9H551.2Zm-78,34.74h1.06v23.82H473.2Zm-2.11,0h1.06v23.82h-1.06Zm-37.18-49.73h.59v2.05h-.59Zm-1.19,0h.59v2.05h-.59Zm-99.66-11.49h.67v17.29h-.67Zm-1.36,0h.68v17.29h-.68ZM301,599h.89v18.29H301Zm-1.76,0h.88v18.29h-.88Zm-26.11-92.78h.95v6.55l-.95,0Zm-1.88,0h.94v6.61l-.94,0Zm-29.77,67h.67v1.4h-.67Zm-1.36,0h.68v1.4h-.68ZM128.05,543.65h.59v6.47h-.59Zm-1.19,0h.59v6.47h-.59Z" transform="translate(0 -87.69)"/><path class="cls-8" d="M1110.37,631v10.76h-12.3V446.3l-25.92,6.43V561.5h-5.34v10.78h-10V691.59h-5.34V561.28l-78.15,4.21v11.79h-2.76v61H963.4V590.85h-4.3V560.06H933.44v30.79h-4.77V545.06h-.91v45.79h-8.2v-2.54h-1.74l-1-15.88h-.76l-1,15.88H913.4V631h-8.93l-7.1-51.52-4.54-46.56-23.59-.22V507.5h-8.58v25l-5.94-.15-3.26,49.4h-1.7v4.62l-1.66,4.51v93.24h-9.46V631.71H835.1V612.49h-2.28l-1.25-16.8h-1l-1.26,16.8H827v19.22h-1.85V620.6h-6.86V579.28H806.91V555.49H803v-13h-3.64v-1.35h-1.48v-2.42h-2.71V520.51H789v18.18h-2.71v2.42h-1.48v1.35h-3.64v13h-4.47V542.7h-6.33v12.79H758.44V570h-6.33V472.4H739.73v29.38H715.3l-2.17,144.83-29.36,10.86v-123H672.21V515.38h-5.39v19.11H645.06v70l-3.41,3.82v-6.44H626.87V576.13h-2.71l-1.49-35.08h-1.2L620,576.13h-2.71v25.71h-3.74v-3h-8.62L592.1,709V632.17l-29.65-.38V853.5h560.43V631ZM621.43,601.84h-1.28V579.41h1.28Zm2.56,0h-1.28V579.41H624Zm45.17-67.35h-.72v-1.94h.72Zm1.43,0h-.71v-1.94h.71ZM791.65,538h-.82V521.73h.82Zm1.64,0h-.82V521.73h.82Zm37.24,93h-1.08V613.77h1.08Zm2.15,0H831.6V613.77h1.08Zm31.7-98.42-1.14,0v-6.18h1.14Zm2.29,0-1.15,0v-6.24h1.15Zm49.4,58.23h-.82v-1.32h.82Zm1.64,0h-.82v-1.32h.82Z" transform="translate(0 -87.69)"/><path class="cls-9" d="M217,403.53s2-4.11,2.2-4.72,3.52-.5,9.76,0,12.47,7.39,12.47,7.39l-8.81,5.41Z" transform="translate(0 -87.69)"/><path class="cls-10" d="M322.45,405.25l5.88-1.47A11.75,11.75,0,0,1,330.7,414c-1.41,6.2-1.41,3.76-1.41,3.76l-5.71,1.7Z" transform="translate(0 -87.69)"/><path class="cls-11" d="M331,420.65c2.73,1.78,6.69,3.36,8.31,3.36s3.87-2.45,4.48-3.36-.72-1.52-1.53-1.62-.71-2.39-2.13-2.26-.95-1.07-2.66-1-1-.82-2.63-.93-2.6,1.53-3.84,2.65S329.69,419.79,331,420.65Z" transform="translate(0 -87.69)"/></g><path class="cls-12" d="M1347.92,789.53c-.9.06-23.39-2.65-24.41-23.56s13.31-26.1,9.54-49.39-13.67-30,8.51-47c0,0,9.89-6.85,10.35-16.45.55-11.49,20.39-24.82,33.69-17.16s10.18,19.51-1.21,38.68-.42,22.51,1.77,28.7,7.27,12.7-4.36,27.51,2.23,32.88-7.67,47.06C1374.13,778,1365.44,788.45,1347.92,789.53Z" transform="translate(0 -87.69)"/><path class="cls-13" d="M1351.43,821.59a1,1,0,0,0,.7-1.09c-12.09-63.85,12.54-150.92,12.79-151.79a.95.95,0,1,0-1.82-.53c-.25.88-25,88.38-12.84,152.67a1,1,0,0,0,1.11.76Z" transform="translate(0 -87.69)"/><path class="cls-13" d="M1356.47,702.88l.16,0a1,1,0,0,0,.48-1.26c0-.11-5.07-11.39-7.13-21a1,1,0,1,0-1.86.4c2.1,9.83,7.2,21.29,7.25,21.41A1,1,0,0,0,1356.47,702.88Z" transform="translate(0 -87.69)"/><path class="cls-13" d="M1353.22,722.2a.87.87,0,0,0,.37-.19c4.78-4,16.79-11.38,16.91-11.46a.95.95,0,1,0-1-1.61c-.5.3-12.24,7.57-17.12,11.61a.94.94,0,0,0-.12,1.33A.92.92,0,0,0,1353.22,722.2Z" transform="translate(0 -87.69)"/><path class="cls-13" d="M1350.53,741l.19-.08a.94.94,0,0,0,.42-1.27l-6.69-13.23a1,1,0,1,0-1.7.86l6.7,13.22A1,1,0,0,0,1350.53,741Z" transform="translate(0 -87.69)"/><path class="cls-12" d="M1375,803.87c-.45,0-11.64-1.31-12.15-11.72s6.63-13,4.75-24.57-6.8-14.91,4.23-23.36c0,0,4.92-3.41,5.15-8.18.28-5.72,10.14-12.36,16.76-8.54s5.07,9.7-.6,19.24-.21,11.19.88,14.28,3.62,6.31-2.17,13.68,1.11,16.36-3.81,23.41C1388.08,798.11,1383.75,803.33,1375,803.87Z" transform="translate(0 -87.69)"/><path class="cls-13" d="M1376.78,819.82a.47.47,0,0,0,.35-.54c-6-31.77,6.24-75.08,6.37-75.51a.48.48,0,0,0-.33-.59.47.47,0,0,0-.58.33c-.13.43-12.44,44-6.39,75.94a.47.47,0,0,0,.55.38Z" transform="translate(0 -87.69)"/><path class="cls-13" d="M1379.29,760.77l.08,0a.48.48,0,0,0,.24-.62,62.53,62.53,0,0,1-3.55-10.46.48.48,0,0,0-.56-.37.47.47,0,0,0-.36.56,64.57,64.57,0,0,0,3.6,10.65A.48.48,0,0,0,1379.29,760.77Z" transform="translate(0 -87.69)"/><path class="cls-13" d="M1377.68,770.38a.54.54,0,0,0,.18-.1c2.38-2,8.35-5.66,8.41-5.7a.47.47,0,0,0-.5-.8c-.24.15-6.09,3.77-8.51,5.77a.48.48,0,0,0-.06.67A.47.47,0,0,0,1377.68,770.38Z" transform="translate(0 -87.69)"/><path class="cls-13" d="M1376.33,779.73l.1,0a.48.48,0,0,0,.21-.64l-3.33-6.58a.48.48,0,0,0-.63-.21.47.47,0,0,0-.21.64l3.33,6.58A.45.45,0,0,0,1376.33,779.73Z" transform="translate(0 -87.69)"/><path class="cls-14" d="M1515.23,720.11c-.51,0-13.39-1.51-14-13.49s7.62-14.94,5.46-28.28-7.83-17.17,4.87-26.9c0,0,5.67-3.92,5.93-9.41.32-6.58,11.68-14.22,19.3-9.83s5.82,11.17-.7,22.14-.24,12.89,1,16.44,4.16,7.27-2.5,15.75,1.27,18.83-4.39,27C1530.25,713.48,1525.27,719.5,1515.23,720.11Z" transform="translate(0 -87.69)"/><path class="cls-15" d="M1517.25,738.47a.55.55,0,0,0,.4-.62c-6.92-36.57,7.18-86.43,7.33-86.93a.54.54,0,0,0-1-.29c-.14.5-14.32,50.61-7.35,87.42a.54.54,0,0,0,.63.43Z" transform="translate(0 -87.69)"/><path class="cls-15" d="M1520.14,670.5l.08,0a.53.53,0,0,0,.28-.71,73,73,0,0,1-4.09-12,.53.53,0,0,0-.64-.41.54.54,0,0,0-.42.64,73.7,73.7,0,0,0,4.16,12.26A.54.54,0,0,0,1520.14,670.5Z" transform="translate(0 -87.69)"/><path class="cls-15" d="M1518.27,681.56a.65.65,0,0,0,.22-.11c2.73-2.26,9.61-6.52,9.68-6.56a.55.55,0,0,0,.17-.75.53.53,0,0,0-.74-.18c-.29.18-7,4.34-9.81,6.65a.55.55,0,0,0-.07.77A.56.56,0,0,0,1518.27,681.56Z" transform="translate(0 -87.69)"/><path class="cls-15" d="M1516.73,692.33l.11-.05a.54.54,0,0,0,.24-.73l-3.83-7.57a.54.54,0,1,0-1,.49l3.83,7.58A.55.55,0,0,0,1516.73,692.33Z" transform="translate(0 -87.69)"/><path class="cls-14" d="M1547.37,728.33c-.25,0-6.66-.76-6.95-6.72s3.79-7.43,2.72-14.06-3.9-8.54,2.42-13.39c0,0,2.82-1.95,3-4.68.16-3.27,5.81-7.07,9.6-4.89s2.9,5.56-.35,11-.12,6.41.51,8.18,2.07,3.61-1.25,7.83.64,9.37-2.18,13.41A10.92,10.92,0,0,1,1547.37,728.33Z" transform="translate(0 -87.69)"/><path class="cls-15" d="M1548.37,737.46a.27.27,0,0,0,.2-.31c-3.44-18.19,3.58-43,3.65-43.24a.28.28,0,0,0-.19-.34.27.27,0,0,0-.33.19c-.08.25-7.13,25.17-3.66,43.49a.27.27,0,0,0,.32.21Z" transform="translate(0 -87.69)"/><path class="cls-15" d="M1549.81,703.64h0a.27.27,0,0,0,.14-.36,36.19,36.19,0,0,1-2-6,.27.27,0,0,0-.53.11,36.31,36.31,0,0,0,2.07,6.1A.26.26,0,0,0,1549.81,703.64Z" transform="translate(0 -87.69)"/><path class="cls-15" d="M1548.88,709.15a.24.24,0,0,0,.11-.06c1.36-1.12,4.78-3.24,4.82-3.26a.27.27,0,0,0,.08-.37.26.26,0,0,0-.37-.09c-.14.09-3.49,2.16-4.88,3.3a.28.28,0,0,0,0,.39A.29.29,0,0,0,1548.88,709.15Z" transform="translate(0 -87.69)"/><path class="cls-15" d="M1548.12,714.5l.05,0a.27.27,0,0,0,.12-.36l-1.91-3.77a.27.27,0,0,0-.36-.12.28.28,0,0,0-.12.37l1.91,3.76A.27.27,0,0,0,1548.12,714.5Z" transform="translate(0 -87.69)"/><path class="cls-16" d="M1592,312.12l160.89.67a37.11,37.11,0,0,1,36.86,39.71l-26.12,370.57a36.53,36.53,0,0,1-36.44,34H1563.6a36.53,36.53,0,0,1-36.43-39.24l27.64-371.32A37.1,37.1,0,0,1,1592,312.12Z" transform="translate(0 -87.69)"/><path class="cls-17" d="M1592,312.12l160.89.67a37.11,37.11,0,0,1,36.86,39.71l-26.12,370.57a36.53,36.53,0,0,1-36.44,34H1563.6a36.53,36.53,0,0,1-36.43-39.24l27.64-371.32A37.1,37.1,0,0,1,1592,312.12Z" transform="translate(0 -87.69)"/><path class="cls-18" d="M1573.89,312.12l160.89.67a37.1,37.1,0,0,1,36.85,39.71l-26.12,370.57a36.53,36.53,0,0,1-36.44,34H1545.52a36.54,36.54,0,0,1-36.43-39.24l27.64-371.32A37.11,37.11,0,0,1,1573.89,312.12Z" transform="translate(0 -87.69)"/><polygon class="cls-19" points="1561.72 258.38 1745.71 258.38 1723.58 611.84 1538.89 613.22 1561.72 258.38"/><path class="cls-17" d="M1623.06,745.27A18.28,18.28,0,1,1,1641.33,727,18.3,18.3,0,0,1,1623.06,745.27Zm0-34a15.7,15.7,0,1,0,15.7,15.69A15.72,15.72,0,0,0,1623.06,711.3Z" transform="translate(0 -87.69)"/><path class="cls-17" d="M1670.59,333h-30.86a3.13,3.13,0,0,1-3.12-3.13h0a3.13,3.13,0,0,1,3.12-3.13h30.86a3.13,3.13,0,0,1,3.13,3.13h0A3.13,3.13,0,0,1,1670.59,333Z" transform="translate(0 -87.69)"/><path class="cls-20" d="M1723.16,437.17H1573.81A6.8,6.8,0,0,1,1567,430l2-40.51a6.79,6.79,0,0,1,6.79-6.46h149.35a6.8,6.8,0,0,1,6.79,7.13l-2,40.51A6.8,6.8,0,0,1,1723.16,437.17Z" transform="translate(0 -87.69)"/><path class="cls-21" d="M1682,437.3h41.21a6.76,6.76,0,0,0,6.76-6.42l2-40.71a6.76,6.76,0,0,0-6.76-7.1H1684a6.77,6.77,0,0,0-6.76,6.42l-2,40.71A6.77,6.77,0,0,0,1682,437.3Z" transform="translate(0 -87.69)"/><path class="cls-22" d="M1668,396.83h-85a1,1,0,1,1,0-2h85a1,1,0,0,1,0,2Z" transform="translate(0 -87.69)"/><path class="cls-22" d="M1667.37,410.38h-85a1,1,0,1,1,0-2h85a1,1,0,0,1,0,2Z" transform="translate(0 -87.69)"/><path class="cls-22" d="M1623.71,423.94h-42a1,1,0,1,1,0-2h42a1,1,0,1,1,0,2Z" transform="translate(0 -87.69)"/><path class="cls-20" d="M1717.87,513.75H1568.52a6.8,6.8,0,0,1-6.79-7.14l2-40.5a6.81,6.81,0,0,1,6.79-6.47h149.35a6.8,6.8,0,0,1,6.79,7.14l-2,40.51A6.8,6.8,0,0,1,1717.87,513.75Z" transform="translate(0 -87.69)"/><path class="cls-21" d="M1676.66,513.88h41.22a6.77,6.77,0,0,0,6.75-6.43l2-40.71a6.77,6.77,0,0,0-6.75-7.1h-41.22a6.77,6.77,0,0,0-6.75,6.43l-2,40.71A6.75,6.75,0,0,0,1676.66,513.88Z" transform="translate(0 -87.69)"/><path class="cls-22" d="M1662.75,473.41h-85a1,1,0,0,1,0-2h85a1,1,0,1,1,0,2Z" transform="translate(0 -87.69)"/><path class="cls-22" d="M1662.08,487h-85a1,1,0,0,1,0-2h85a1,1,0,1,1,0,2Z" transform="translate(0 -87.69)"/><path class="cls-22" d="M1618.43,500.52h-42a1,1,0,0,1,0-2h42a1,1,0,0,1,0,2Z" transform="translate(0 -87.69)"/><polygon class="cls-17" points="1561.72 258.38 1538.89 613.22 1535.17 613.22 1558.05 258.38 1561.72 258.38"/><path class="cls-19" d="M1718.19,411.55a16.91,16.91,0,1,1-15.7-18A16.9,16.9,0,0,1,1718.19,411.55Z" transform="translate(0 -87.69)"/><path class="cls-21" d="M1698.29,416.89a1.51,1.51,0,0,1-1-.43l-5.68-5.58a1.53,1.53,0,0,1,0-2.15,1.51,1.51,0,0,1,2.14,0l4.72,4.64,10.83-8.73a1.52,1.52,0,0,1,1.9,2.37l-11.88,9.57A1.49,1.49,0,0,1,1698.29,416.89Z" transform="translate(0 -87.69)"/><path class="cls-19" d="M1714.22,488.13a16.91,16.91,0,1,1-15.71-18A16.91,16.91,0,0,1,1714.22,488.13Z" transform="translate(0 -87.69)"/><path class="cls-21" d="M1694.32,493.47a1.57,1.57,0,0,1-1-.43l-5.68-5.59a1.52,1.52,0,1,1,2.13-2.16l4.71,4.63,10.83-8.72a1.52,1.52,0,1,1,1.91,2.37l-11.88,9.57A1.59,1.59,0,0,1,1694.32,493.47Z" transform="translate(0 -87.69)"/><polygon class="cls-23" points="1808.08 516.46 1802.41 539.05 1870.64 542.71 1868.33 514.39 1808.08 516.46"/><polygon class="cls-23" points="1836.12 531.16 1816.27 598.22 1816.66 699.51 1792.44 700.02 1787.74 596.68 1803.96 532.96 1836.12 531.16"/><polygon class="cls-24" points="1833.29 540.71 1817.55 539.21 1829.11 554.83 1833.29 540.71"/><polygon class="cls-23" points="1870.48 538.1 1875.07 601.02 1894.24 704.85 1870.28 709.78 1847.11 603.86 1839.11 531.29 1870.48 538.1"/><path class="cls-25" d="M1799.34,787.4l13.2-.09.34,18.9-37.51.25h0a6.69,6.69,0,0,1,5.16-6l18.58-4.54Z" transform="translate(0 -87.69)"/><rect class="cls-26" x="1775.38" y="806.34" width="37.51" height="2.92" transform="translate(-5.28 -75.86) rotate(-0.38)"/><path class="cls-19" d="M1808.56,795.22a2.88,2.88,0,1,1-2.9-2.86A2.87,2.87,0,0,1,1808.56,795.22Z" transform="translate(0 -87.69)"/><path class="cls-25" d="M1877.21,794.84l13.08-1.73,2.7,18.71-37.19,4.93h0a6.7,6.7,0,0,1,4.37-6.61l17.87-6.83Z" transform="translate(0 -87.69)"/><rect class="cls-26" x="1855.83" y="814.27" width="37.51" height="2.92" transform="translate(-90.91 165.61) rotate(-7.55)"/><path class="cls-19" d="M1887.33,801.45a2.88,2.88,0,1,1-3.23-2.48A2.87,2.87,0,0,1,1887.33,801.45Z" transform="translate(0 -87.69)"/><path class="cls-27" d="M1780.51,569.35c-.27,0-.53-.05-.8-.09l-61.61-9.15,3-20.14,55.2,8.2C1787.26,531.5,1804,512,1804,512c-.12.25.63.88,0,0l19.42,2c.87,4.91-3.41,4.94-33.76,50.8A10.2,10.2,0,0,1,1780.51,569.35Z" transform="translate(0 -87.69)"/><path class="cls-27" d="M1838.49,506.74l2,.33a22.25,22.25,0,0,1,18,16.68l14.1,80.31c-30,16.34-67.92.18-67.92.18l-7.29-74.91a19.57,19.57,0,0,1,10.75-19.94h0Z" transform="translate(0 -87.69)"/><polygon class="cls-28" points="1831.72 426.19 1814.84 424.79 1817.59 386.47 1834.48 387.87 1831.72 426.19"/><path class="cls-28" d="M1810.7,509.16l25.79-2.26s-.18,15.07-15.74,14.85C1806.53,521.55,1810.7,509.16,1810.7,509.16Z" transform="translate(0 -87.69)"/><path class="cls-19" d="M1719.09,550a10.95,10.95,0,1,1-9-12.62A11,11,0,0,1,1719.09,550Z" transform="translate(0 -87.69)"/><path class="cls-19" d="M1725.1,556.56l-11.23-1.9a5.44,5.44,0,0,1-4.43-6.24h0a5.44,5.44,0,0,1,6.24-4.43l11.22,1.9a5.42,5.42,0,0,1,4.43,6.24h0A5.42,5.42,0,0,1,1725.1,556.56Z" transform="translate(0 -87.69)"/><circle class="cls-29" cx="1719.1" cy="557.26" r="31.47" transform="translate(464.64 1770.41) rotate(-64)"/><path class="cls-30" d="M1713.47,569.37a2.8,2.8,0,0,1-1.79-.8l-10.57-10.39a2.83,2.83,0,0,1,4-4l8.77,8.62L1734,546.54a2.83,2.83,0,0,1,3.55,4.41l-22.11,17.8A2.83,2.83,0,0,1,1713.47,569.37Z" transform="translate(0 -87.69)"/><path class="cls-31" d="M1811.79,500h0a20.82,20.82,0,0,1-19.33-22.21l1.78-25.81,41.53,2.87L1834,480.64A20.82,20.82,0,0,1,1811.79,500Z" transform="translate(0 -87.69)"/><path class="cls-32" d="M1834.25,473.77l-5.93-.3a2.57,2.57,0,0,1-2.36-3.18c1-4.23,2.38-11.52-.35-12.57-3.88-1.5-25.38,2.77-32.27-3.16-9.71-8.34-1.64-20.28,7.55-20.26s7.22,10.56,17.92,11,27.16-2.72,18.49,25.19Z" transform="translate(0 -87.69)"/><path class="cls-31" d="M1841.5,475.39a6.54,6.54,0,1,1-6.08-7A6.54,6.54,0,0,1,1841.5,475.39Z" transform="translate(0 -87.69)"/><path class="cls-33" d="M1760.35,576.91a10.95,10.95,0,1,1-10.17-11.67A10.95,10.95,0,0,1,1760.35,576.91Z" transform="translate(0 -87.69)"/><path class="cls-33" d="M1767,582.85l-11.36-.78a5.42,5.42,0,0,1-5-5.77h0a5.41,5.41,0,0,1,5.76-5l11.36.78a5.42,5.42,0,0,1,5,5.77h0A5.41,5.41,0,0,1,1767,582.85Z" transform="translate(0 -87.69)"/><path class="cls-27" d="M1760.77,587l0-20.36,56.11.08,19.29-45.75a10.17,10.17,0,0,1,13.48-5h0a10.18,10.18,0,0,1,5,13.49l-22,51.72a10.17,10.17,0,0,1-9.27,5.95Z" transform="translate(0 -87.69)"/><rect class="cls-34" x="1789.3" y="689.43" width="30.37" height="10.59"/><rect class="cls-34" x="1866.41" y="785.24" width="30.37" height="10.59" transform="translate(-116.96 289.17) rotate(-11.09)"/><path class="cls-19" d="M1796.51,481.55l17.92.85s-1.06,6.86-10.71,5.81C1796.11,487.38,1796.51,481.55,1796.51,481.55Z" transform="translate(0 -87.69)"/><path class="cls-35" d="M1803,587l18.11,0a13.93,13.93,0,0,0,11.74-8L1853,533.43c-7.8,26.59-18.07,53.67-18.07,53.67a8.47,8.47,0,0,1-8.27,5.57l-23.19-.93Z" transform="translate(0 -87.69)"/><path class="cls-36" d="M1691.38,621.18l-133.92,17.75a6.66,6.66,0,0,1-7.47-5.72l-4.72-35.65a6.66,6.66,0,0,1,5.72-7.47l133.92-17.75a6.66,6.66,0,0,1,7.47,5.72l4.72,35.65A6.64,6.64,0,0,1,1691.38,621.18Z" transform="translate(0 -87.69)"/><path class="cls-20" d="M1681.82,605,1547.9,622.8a6.66,6.66,0,0,1-7.47-5.73l-4.73-35.64a6.65,6.65,0,0,1,5.73-7.47l133.91-17.76a6.65,6.65,0,0,1,7.47,5.72l4.73,35.65A6.65,6.65,0,0,1,1681.82,605Z" transform="translate(0 -87.69)"/><path class="cls-22" d="M1549.33,585.54a.92.92,0,0,1-.12-1.84l76.69-10.17a.89.89,0,0,1,1,.8.92.92,0,0,1-.8,1l-76.69,10.17Z" transform="translate(0 -87.69)"/><path class="cls-22" d="M1551,597.78a.92.92,0,0,1-.12-1.84l76.69-10.17a.89.89,0,0,1,1,.79.92.92,0,0,1-.79,1l-76.7,10.17Z" transform="translate(0 -87.69)"/><path class="cls-22" d="M1552.57,610a.92.92,0,0,1-.12-1.84l37.94-5.08a.89.89,0,0,1,1,.79.91.91,0,0,1-.79,1L1552.7,610Z" transform="translate(0 -87.69)"/><path class="cls-25" d="M1491.54,800.79l-13.15-1-1.93,21.6,37.45,3,.22-2.91a6.68,6.68,0,0,0-4.73-6.35l-18.21-5.81Z" transform="translate(0 -87.69)"/><path class="cls-25" d="M1321.2,792.89l-1.3-13.12-21.61,1.86,3.59,37.39,2.91-.29a6.69,6.69,0,0,0,5.43-5.76l2.55-18.94Z" transform="translate(0 -87.69)"/><path class="cls-35" d="M1375.45,695.08l23.84,76.85-83.16,5,2.47,19.8,101.4-3.42c9-.3,15.83-7.17,14-17.65l-5.69-57.11,53.61-.82-9.27,84.77,23.09.82L1518.39,708a18.87,18.87,0,0,0-17.9-23.23L1446,683.42Z" transform="translate(0 -87.69)"/><polygon class="cls-28" points="1409.67 517.72 1430.17 522.06 1438.86 478.58 1418.56 474.33 1409.67 517.72"/><path class="cls-31" d="M1425.77,589h0a21.22,21.22,0,0,0,25.12-16.42l5.41-25.82-41.55-8.7-5.4,25.82A21.21,21.21,0,0,0,1425.77,589Z" transform="translate(0 -87.69)"/><path class="cls-32" d="M1441.1,557.89l-4,19c-1.58,7.58-8.67,12.5-15.83,11l-3.75-.79c-12.52-2.62-20.42-15.49-17.64-28.74l3.59-17.16,39,8.18Z" transform="translate(0 -87.69)"/><path class="cls-32" d="M1439.75,555.08s9.74,2.58,15.88,2.67c8,.12,13-9.07,8-15.33a10.78,10.78,0,0,0-.71-.83c-6.11-6.65-16.77-3.34-16.72-2.68S1439.75,555.08,1439.75,555.08Z" transform="translate(0 -87.69)"/><path class="cls-32" d="M1452.33,544.09s-11.94-17.52-32.58-12.36c0,0-7.92-.42-16.26,9.46l34.72,16.54Z" transform="translate(0 -87.69)"/><path class="cls-31" d="M1432.59,566.28a6.21,6.21,0,1,0,7.35-4.81A6.22,6.22,0,0,0,1432.59,566.28Z" transform="translate(0 -87.69)"/><path class="cls-32" d="M1423.53,529.17A20.07,20.07,0,1,1,1408,505.41,20.06,20.06,0,0,1,1423.53,529.17Z" transform="translate(0 -87.69)"/><path class="cls-29" d="M1446.5,682.74c-7.64-12.44-4-41.18-.86-58.42a21,21,0,0,0-9.61-21.57h0l-23.74-7c-5.89-2-13.58,4.81-17.77,9.41-37.45,41.16-23,93.57-23,93.57,12.78,3.12,28.48,3,37,1.91h0l.33,0,.46-.06C1432.16,698,1446.5,682.74,1446.5,682.74Z" transform="translate(0 -87.69)"/><path class="cls-31" d="M1535.72,615.44a12.83,12.83,0,1,0,2.88-17.92A12.84,12.84,0,0,0,1535.72,615.44Z" transform="translate(0 -87.69)"/><path class="cls-31" d="M1532.81,625.46l10.81-7.83a6.34,6.34,0,0,0,1.42-8.85h0a6.36,6.36,0,0,0-8.85-1.42l-10.81,7.82A6.38,6.38,0,0,0,1524,624h0A6.36,6.36,0,0,0,1532.81,625.46Z" transform="translate(0 -87.69)"/><path class="cls-29" d="M1541.52,625.69l-12.65-20.24-55.77,34.87-35-35.64a11.94,11.94,0,0,0-16.54,3.35h0a11.94,11.94,0,0,0,3.35,16.54l41.41,39.89a12,12,0,0,0,12.92.17Z" transform="translate(0 -87.69)"/><polygon class="cls-24" points="1428.31 630.82 1450.8 618.2 1449.58 624.03 1481.92 629.99 1428.31 630.82"/><path class="cls-37" d="M1838.47,180.52l-1.7-4.87-1.7,4.87a17.05,17.05,0,0,1-9.44,9.61h0a17.05,17.05,0,0,1,9.44,9.61l1.7,4.87,1.7-4.87a17,17,0,0,1,9.44-9.61h0A17,17,0,0,1,1838.47,180.52Z" transform="translate(0 -87.69)"/><polygon class="cls-38" points="1544.96 711 1549.12 719 1596.74 720.21 1606.44 693.67 1602.42 685.94 1544.96 711"/><path class="cls-38" d="M1555.54,809.87l41.6,1.58c3.64.14,6.68-1.47,6.93-3.66l2.75-24.75c.27-2.35-2.79-4.44-6.69-4.59l-41.6-1.58c-3.63-.14-6.68,1.47-6.93,3.66l-2.75,24.75C1548.59,807.62,1551.64,809.72,1555.54,809.87Z" transform="translate(0 -87.69)"/><path class="cls-39" d="M1551.52,802.12l41.6,1.58c3.63.14,6.68-1.47,6.92-3.66l2.76-24.75c.26-2.35-2.79-4.44-6.69-4.59l-41.6-1.58c-3.64-.14-6.68,1.47-6.93,3.66l-2.76,24.75C1544.56,799.88,1547.62,802,1551.52,802.12Z" transform="translate(0 -87.69)"/><path class="cls-39" d="M1335,338.51a29.33,29.33,0,0,1-6.84-18.84,29.63,29.63,0,0,1,29.54-29.54h20.66a29.54,29.54,0,0,1,0,59.08h-20.66a29.2,29.2,0,0,1-13.17-3.15l-14.8,8.11Z" transform="translate(0 -87.69)"/><path class="cls-40" d="M1370.48,325.1a6.63,6.63,0,1,0-6.41-.4" transform="translate(0 -87.69)"/><path class="cls-40" d="M1370.41,340.81a21.87,21.87,0,1,0-6.41-.13" transform="translate(0 -87.69)"/><path class="cls-40" d="M1370.48,337.92a19,19,0,1,0-6.41-.12" transform="translate(0 -87.69)"/><path class="cls-40" d="M1370.48,334.67a15.82,15.82,0,1,0-6.41-.15" transform="translate(0 -87.69)"/><path class="cls-40" d="M1370.48,331.4a12.61,12.61,0,1,0-6.41-.19" transform="translate(0 -87.69)"/><path class="cls-40" d="M1370.48,328.3a9.61,9.61,0,1,0-6.41-.25" transform="translate(0 -87.69)"/><line class="cls-40" x1="1363.97" y1="253.3" x2="1363.97" y2="236.63"/><line class="cls-40" x1="1370.38" y1="253.4" x2="1370.38" y2="236.95"/><circle class="cls-19" cx="1367.71" cy="230.97" r="3.42"/><rect class="cls-18" x="1040.47" y="665.09" width="78.57" height="49.31"/><path class="cls-18" d="M1134.19,802H1019a18.7,18.7,0,0,0-18.7,18.7h152.58A18.7,18.7,0,0,0,1134.19,802Z" transform="translate(0 -87.69)"/><rect class="cls-17" x="862.58" y="356.97" width="444.86" height="311.42" rx="28.67"/><rect class="cls-18" x="846.29" y="356.97" width="444.86" height="311.42" rx="28.67"/><rect class="cls-19" x="877.9" y="386.74" width="382.84" height="242.33"/><rect class="cls-17" x="877.9" y="386.74" width="4.66" height="242.33"/><path class="cls-17" d="M1075.36,748.78a13.06,13.06,0,1,1,13.05-13.06A13.07,13.07,0,0,1,1075.36,748.78Zm0-23.73A10.68,10.68,0,1,0,1086,735.72,10.69,10.69,0,0,0,1075.36,725.05Z" transform="translate(0 -87.69)"/><polygon class="cls-41" points="1040.47 668.38 1119.04 714.39 1119.04 668.38 1040.47 668.38"/><rect class="cls-42" x="902.56" y="413.79" width="166.19" height="57.96" rx="5.74"/><path class="cls-42" d="M1015.19,588.54H907.25a4.69,4.69,0,0,1-4.69-4.7h0a4.69,4.69,0,0,1,4.69-4.69h107.94a4.69,4.69,0,0,1,4.69,4.69h0A4.69,4.69,0,0,1,1015.19,588.54Z" transform="translate(0 -87.69)"/><path class="cls-42" d="M978.24,609.51h-71a4.69,4.69,0,0,1-4.69-4.7h0a4.69,4.69,0,0,1,4.69-4.69h71a4.7,4.7,0,0,1,4.7,4.69h0A4.7,4.7,0,0,1,978.24,609.51Z" transform="translate(0 -87.69)"/><path class="cls-42" d="M978.24,631.5h-71a4.7,4.7,0,0,1-4.69-4.7h0a4.7,4.7,0,0,1,4.69-4.7h71a4.71,4.71,0,0,1,4.7,4.7h0A4.71,4.71,0,0,1,978.24,631.5Z" transform="translate(0 -87.69)"/><rect class="cls-42" x="1091.96" y="413.79" width="145.87" height="187.21" rx="6.75"/><circle class="cls-14" cx="932.21" cy="443.23" r="17.85"/><path class="cls-22" d="M1045.57,525.24h-76a1.09,1.09,0,1,1,0-2.17h76a1.09,1.09,0,0,1,0,2.17Z" transform="translate(0 -87.69)"/><path class="cls-22" d="M1045.57,538.77h-76a1.09,1.09,0,1,1,0-2.18h76a1.09,1.09,0,0,1,0,2.18Z" transform="translate(0 -87.69)"/><line class="cls-43" x1="1115.46" y1="543.49" x2="1173.14" y2="543.49"/><line class="cls-43" x1="1115.46" y1="565.47" x2="1211.62" y2="565.47"/><path class="cls-44" d="M1111.47,534.6v62a8.57,8.57,0,0,0,8.57,8.56h86.83a8.57,8.57,0,0,0,8.57-8.56v-62a8.57,8.57,0,0,0-8.57-8.56H1120A8.57,8.57,0,0,0,1111.47,534.6Z" transform="translate(0 -87.69)"/><path class="cls-35" d="M1123,556.71A19.67,19.67,0,1,0,1142.65,537,19.67,19.67,0,0,0,1123,556.71Z" transform="translate(0 -87.69)"/><path class="cls-19" d="M1111.47,590.41v6.21a8.57,8.57,0,0,0,8.57,8.56h86.83a8.57,8.57,0,0,0,8.57-8.56v-6.21l-31-31-21,21-21-21Z" transform="translate(0 -87.69)"/><path class="cls-39" d="M611.1,434.87l-.88-2.5-.87,2.5a8.72,8.72,0,0,1-4.84,4.93h0a8.72,8.72,0,0,1,4.84,4.93l.87,2.5.88-2.5a8.72,8.72,0,0,1,4.84-4.93h0A8.72,8.72,0,0,1,611.1,434.87Z" transform="translate(0 -87.69)"/><path class="cls-39" d="M1065.18,362.44l-1.47-4.18-1.46,4.18a14.61,14.61,0,0,1-8.12,8.28h0a14.62,14.62,0,0,1,8.12,8.27l1.46,4.19,1.47-4.19a14.62,14.62,0,0,1,8.12-8.27h0A14.61,14.61,0,0,1,1065.18,362.44Z" transform="translate(0 -87.69)"/><path class="cls-39" d="M281.18,330.44l-1.47-4.18-1.46,4.18a14.61,14.61,0,0,1-8.12,8.28h0a14.62,14.62,0,0,1,8.12,8.27l1.46,4.19,1.47-4.19a14.62,14.62,0,0,1,8.12-8.27h0A14.61,14.61,0,0,1,281.18,330.44Z" transform="translate(0 -87.69)"/><path class="cls-39" d="M1874.18,466.44l-1.47-4.18-1.46,4.18a14.61,14.61,0,0,1-8.12,8.28h0a14.62,14.62,0,0,1,8.12,8.27l1.46,4.19,1.47-4.19a14.62,14.62,0,0,1,8.12-8.27h0A14.61,14.61,0,0,1,1874.18,466.44Z" transform="translate(0 -87.69)"/><path class="cls-45" d="M1190.51,682h44.24a2.18,2.18,0,0,1,2.18,2.18v47.42a1.77,1.77,0,0,1-1.77,1.77h-45.07a1.77,1.77,0,0,1-1.77-1.77V684.19A2.18,2.18,0,0,1,1190.51,682Z"/><path class="cls-35" d="M1223.75,693.88h13.18a0,0,0,0,1,0,0v28.53a0,0,0,0,1,0,0h-13.18A13.78,13.78,0,0,1,1210,708.63v-1A13.78,13.78,0,0,1,1223.75,693.88Z"/><path class="cls-35" d="M1188.33,812a1.18,1.18,0,0,1-.69-.22c-4.21-3.14-6.34-7-6.35-11.32,0-11.36,14.42-22.38,15-22.84a1.15,1.15,0,0,1,1.38,1.83c-.14.11-14.15,10.8-14.12,21,0,3.61,1.83,6.79,5.42,9.47a1.15,1.15,0,0,1,.24,1.61A1.13,1.13,0,0,1,1188.33,812Z" transform="translate(0 -87.69)"/><path class="cls-46" d="M1826.44,375.93a29.49,29.49,0,0,1,22.7-48.38h20.66a29.54,29.54,0,0,1,0,59.08h-20.66a29.2,29.2,0,0,1-13.17-3.16l-14.8,8.12Z" transform="translate(0 -87.69)"/><path class="cls-19" d="M1842.61,354.25v3.81a1.61,1.61,0,0,0,1.6,1.61h3.22a13,13,0,0,0,1,2.52l-2.27,2.27a1.6,1.6,0,0,0,0,2.27l2.7,2.7a1.6,1.6,0,0,0,2.27,0l2.27-2.27a12.72,12.72,0,0,0,2.52,1v3.21a1.61,1.61,0,0,0,1.6,1.61h3.82a1.6,1.6,0,0,0,1.6-1.61V368.2a12.72,12.72,0,0,0,2.52-1l2.27,2.27a1.61,1.61,0,0,0,2.28,0l2.69-2.7a1.6,1.6,0,0,0,0-2.27l-2.27-2.27a12.38,12.38,0,0,0,1-2.52h3.22a1.6,1.6,0,0,0,1.6-1.61v-3.81a1.6,1.6,0,0,0-1.6-1.61h-3.22a12.62,12.62,0,0,0-1-2.52l2.27-2.27a1.6,1.6,0,0,0,0-2.27l-2.69-2.7a1.63,1.63,0,0,0-2.28,0l-2.27,2.28a11.63,11.63,0,0,0-2.52-1V340.9a1.6,1.6,0,0,0-1.6-1.61h-3.82a1.61,1.61,0,0,0-1.6,1.61v3.22a11.63,11.63,0,0,0-2.52,1l-2.27-2.28a1.62,1.62,0,0,0-2.27,0l-2.7,2.7a1.6,1.6,0,0,0,0,2.27l2.27,2.27a13.24,13.24,0,0,0-1,2.52h-3.22A1.61,1.61,0,0,0,1842.61,354.25Zm10.13,1.91a6.73,6.73,0,1,1,6.73,6.72A6.73,6.73,0,0,1,1852.74,356.16Z" transform="translate(0 -87.69)"/><path class="cls-47" d="M207.54,179.2l-.66.35-1.82,1c-1.58.87-3.85,2.16-6.69,3.89a228.75,228.75,0,0,0-22.53,15.67c-4.46,3.51-9.17,7.5-13.92,12A175.32,175.32,0,0,0,147.78,227c-2.28,2.76-4.55,5.6-6.68,8.61-1.1,1.47-2.11,3-3.17,4.57l-1.5,2.37-.75,1.19L135,245c-2,3.22-3.7,6.61-5.36,10.05-.77,1.75-1.59,3.48-2.28,5.27-.34.89-.74,1.77-1,2.68l-1,2.71a93.26,93.26,0,0,0-3,11.1c-.43,1.86-.68,3.75-1,5.63-.15.93-.22,1.88-.34,2.82s-.23,1.88-.26,2.82a90,90,0,0,0,1.15,22,102.08,102.08,0,0,0,5.68,19.56,119.7,119.7,0,0,0,8,16.23c.71,1.2,1.4,2.39,2.1,3.52l2.13,3.28,1,1.58c.35.51.71,1,1,1.49l2,2.86c2.68,3.64,5.11,6.74,7.2,9.21s3.77,4.38,4.92,5.68l1.76,2-1.69-2.06c-1.08-1.35-2.74-3.27-4.67-5.87s-4.29-5.74-6.81-9.47l-1.9-2.91-1-1.53c-.31-.53-.64-1.06-1-1.61l-2-3.33c-.65-1.16-1.28-2.36-1.94-3.57a119.69,119.69,0,0,1-7.26-16.3,99.58,99.58,0,0,1-4.77-19.26,86.47,86.47,0,0,1-.28-21.11c.06-.9.23-1.79.35-2.68s.25-1.79.42-2.68c.37-1.77.67-3.56,1.15-5.32a86.7,86.7,0,0,1,3.26-10.42l1-2.54c.32-.85.73-1.67,1.09-2.51.72-1.67,1.57-3.29,2.37-4.92,1.7-3.2,3.47-6.36,5.46-9.35l.73-1.13.76-1.11,1.53-2.2c1.06-1.43,2.08-2.87,3.19-4.24,2.14-2.79,4.43-5.42,6.7-8a166.79,166.79,0,0,1,14.13-13.77c4.73-4.13,9.41-7.78,13.84-11a219.48,219.48,0,0,1,22.25-14.2c2.78-1.54,5-2.68,6.48-3.43l1.71-.84.56-.26Z" transform="translate(0 -87.69)"/><path class="cls-35" d="M244.27,187.67a2,2,0,0,1-2.37-1.45l-4.15-17.29a2,2,0,0,1,1.45-2.36h0a2,2,0,0,1,2.37,1.45l4.14,17.29a2,2,0,0,1-1.44,2.36Z" transform="translate(0 -87.69)"/><path class="cls-29" d="M255.4,185.86c-5,5.84-10.86,13.9-19.42,17.42l.92,3.88,27.54-1.6c6.49-.39,7.88-3.05,7.88-3.05l14.48-17.95S260.52,179.9,255.4,185.86Z" transform="translate(0 -87.69)"/><path class="cls-29" d="M257.82,141.64s-2.44-1.75-8.41.83l-25.3,11,.93,3.88c9.22-.72,18.07,3.84,25.18,6.79,7.26,3,28.62-13,28.62-13Z" transform="translate(0 -87.69)"/><path class="cls-48" d="M353.78,150.59l0-.12-.13,0a64.91,64.91,0,0,0-22.83-13.37c-23.62-7.4-91.22,26.49-91.22,26.49L242.86,177,246,190.39s75.62-.21,93.36-17.46a64.8,64.8,0,0,0,14.36-22.23l.12,0Z" transform="translate(0 -87.69)"/><path class="cls-29" d="M341.29,170.88a56.41,56.41,0,0,0,12.53-20.38A56.46,56.46,0,0,0,333.4,138c-1-.34-2-.65-3-.93a53.23,53.23,0,0,0,8.52,36.08C339.74,172.43,340.54,171.66,341.29,170.88Z" transform="translate(0 -87.69)"/><path class="cls-47" d="M196.23,188.24s50.68,16.66,44.15-10.55S196.23,188.24,196.23,188.24Z" transform="translate(0 -87.69)"/><path class="cls-29" d="M244.23,173.05a16.58,16.58,0,0,0-4.1,1.11c-.49.26-7.13,3.44-10.83,5.21l.43,1.84c4.11-.09,11.47-.25,12-.23a16.43,16.43,0,0,0,4.17-.87,35.89,35.89,0,0,0,3.39-2.76l-.8-3.36A38,38,0,0,0,244.23,173.05Z" transform="translate(0 -87.69)"/><path class="cls-19" d="M269.28,172.58a6.23,6.23,0,1,1,2.81,3.88,6.25,6.25,0,0,1-2.81-3.88Z" transform="translate(0 -87.69)"/><path class="cls-19" d="M295.38,161.75a6.28,6.28,0,0,0-4.8-.76,6.35,6.35,0,0,0-4.7,7.64h0a6.35,6.35,0,1,0,9.5-6.89Z" transform="translate(0 -87.69)"/><path class="cls-19" d="M314.91,161.71a6.32,6.32,0,0,0-12.3,2.93h0a6.32,6.32,0,0,0,7.62,4.67A6.34,6.34,0,0,0,314.91,161.71Z" transform="translate(0 -87.69)"/><path class="cls-47" d="M716.2,435.93a31.16,31.16,0,0,0-33.35-31c-16.16,1.11-28.6,15.2-28.41,31.4a30.15,30.15,0,0,0,16,26.65,10.94,10.94,0,0,1,5.75,9.59V473h18.68v-.44a11.78,11.78,0,0,1,5.72-9.88C709.45,457.3,716.2,447.33,716.2,435.93Z" transform="translate(0 -87.69)"/><path class="cls-49" d="M682.85,404.94a29.76,29.76,0,0,0-6.16,1.1q.73-.06,1.47-.06a22.48,22.48,0,1,1-22.47,22.47c0-.43,0-.87,0-1.3a31.22,31.22,0,0,0-1.29,9.19,30.15,30.15,0,0,0,16,26.65,10.94,10.94,0,0,1,5.75,9.59V473h18.68v-.44a11.78,11.78,0,0,1,5.72-9.88c8.85-5.4,15.48-15.37,15.48-26.77A31.05,31.05,0,0,0,682.85,404.94Z" transform="translate(0 -87.69)"/><path class="cls-27" d="M685.54,475.21a2.54,2.54,0,0,1-2.55-2.56v-26a2.55,2.55,0,1,1,5.09,0v26A2.54,2.54,0,0,1,685.54,475.21Z" transform="translate(0 -87.69)"/><path class="cls-19" d="M664.43,444.86a3.43,3.43,0,0,1-3.29-2.47,20.47,20.47,0,0,1-.73-4.14,3.42,3.42,0,1,1,6.82-.45,12.73,12.73,0,0,0,.49,2.7,3.42,3.42,0,0,1-2.35,4.23A3.38,3.38,0,0,1,664.43,444.86Z" transform="translate(0 -87.69)"/><path class="cls-19" d="M665,431.66a3.43,3.43,0,0,1-3.18-4.68,23,23,0,0,1,7.33-9.72,3.42,3.42,0,0,1,3.94,5.59,16.36,16.36,0,0,0-4.91,6.64A3.41,3.41,0,0,1,665,431.66Z" transform="translate(0 -87.69)"/><rect class="cls-50" x="669.41" y="383.63" width="32.26" height="18.68" rx="3.39"/><path class="cls-29" d="M1392.64,443.28l-2.44-2.44,4-4c.81-.81,1.49-2.07.78-2.79l-3.58-3.58-2.76,2.76c-.81.82-1.42.55-2.14-.16l-3.87-3.87c-.71-.71-1-1.4-.23-2.21l2.76-2.76-3.08-3.08a2.68,2.68,0,0,0-3.28.28l-4,4.05-1.94-1.94a1.91,1.91,0,0,0-2.73-.05l-4.41,4.4a1.92,1.92,0,0,0,.06,2.73l1.94,1.94-3.57,3.56a2.17,2.17,0,0,0,.08,2.94l3.07,3.07,1.92-1.92c.82-.81,2.34-1.31,3-.6l3.87,3.87c.72.71.14,2.17-.67,3l-1.92,1.92,3.58,3.58c.71.71,1.62.38,2.43-.43l3.57-3.57,2.43,2.44a1.82,1.82,0,0,0,2.65,0l4.4-4.41A1.83,1.83,0,0,0,1392.64,443.28Z" transform="translate(0 -87.69)"/><path class="cls-27" d="M1363.88,445.49,1361.4,448l-4.15-4.14c-.81-.82-2.25-1.76-3-1l-3.76,3.76,3,3c.81.81.55,1.05-.16,1.76l-3.87,3.87c-.71.72-1.31,1.33-2.12.52l-3-3-3,3c-.71.71-.08,2.47.73,3.28l4.15,4.15-2.16,2.16c-.72.71-1.2,2.05-.39,2.86l4.41,4.41a2.35,2.35,0,0,0,3.07-.17l2.17-2.16,3.44,3.44a1.73,1.73,0,0,0,2.57,0l3-3-1.78-1.78c-.81-.81-1.4-2.62-.69-3.33l3.87-3.87c.71-.71,2.16.24,3,1.05l1.77,1.78,3.77-3.77c.71-.71.49-1.44-.32-2.25l-3.45-3.45,2.47-2.47a2,2,0,0,0-.13-2.76l-4.41-4.41A1.71,1.71,0,0,0,1363.88,445.49Z" transform="translate(0 -87.69)"/><path class="cls-51" d="M1376.64,439.06l5.07,0a1,1,0,0,1,.77.31,1.06,1.06,0,0,1,.31.77l-.09,5-2.14,0,.07-3.92-4,0Z" transform="translate(0 -87.69)"/><rect class="cls-51" x="1362.37" y="447.04" width="22.67" height="2.14" transform="translate(85.49 1014.92) rotate(-45)"/><path class="cls-51" d="M1354.49,452.8v0l.33-5,2.26,0v3.91l4,0,0,2.14-5.06,0a1.77,1.77,0,0,1-1-.31C1354.83,453.35,1354.49,453.08,1354.49,452.8Z" transform="translate(0 -87.69)"/><rect class="cls-51" x="1352.72" y="443.72" width="22.67" height="2.14" transform="translate(84.98 1007.06) rotate(-45)"/><path class="cls-39" d="M638.38,501.81H927.84a17.43,17.43,0,0,1,17.43,17.43v12.84a0,0,0,0,1,0,0h-325a0,0,0,0,1,0,0V519.91A18.09,18.09,0,0,1,638.38,501.81Z"/><circle class="cls-19" cx="651.22" cy="517.68" r="4.06"/><circle class="cls-19" cx="665.57" cy="517.68" r="4.06"/><circle class="cls-19" cx="679.93" cy="517.68" r="4.06"/><rect class="cls-45" x="620.29" y="532.09" width="324.99" height="201.22"/><rect class="cls-19" x="632.29" y="541.57" width="300.06" height="180.87"/><rect class="cls-42" x="650.85" y="563.02" width="117.08" height="137.2" rx="4.43"/><rect class="cls-42" x="790.11" y="560.94" width="105.79" height="75.18" rx="3.12"/><rect class="cls-42" x="787.06" y="658.01" width="121.07" height="37.91" rx="2.37"/><rect class="cls-36" x="801.64" y="582.53" width="94.27" height="30.86" rx="1.88"/><rect class="cls-29" x="812.72" y="573.91" width="90.44" height="30.86" rx="1.85"/><path class="cls-44" d="M690.16,682.6h-17.9a8,8,0,0,1-8-8h0a8,8,0,0,1,8-8h17.9a8,8,0,0,1,8,8h0A8,8,0,0,1,690.16,682.6Z" transform="translate(0 -87.69)"/><path class="cls-22" d="M753.31,670.86H707.46a.72.72,0,0,1,0-1.44h45.85a.72.72,0,0,1,0,1.44Z" transform="translate(0 -87.69)"/><path class="cls-22" d="M728.64,679.81H707.46a.72.72,0,1,1,0-1.44h21.18a.72.72,0,1,1,0,1.44Z" transform="translate(0 -87.69)"/><rect class="cls-19" x="747.92" y="612.91" width="0.99" height="49.79"/><rect class="cls-19" x="732.89" y="612.91" width="0.99" height="49.79"/><rect class="cls-19" x="717.86" y="612.91" width="0.99" height="49.79"/><rect class="cls-19" x="702.84" y="612.91" width="0.99" height="49.79"/><rect class="cls-19" x="687.81" y="612.91" width="0.99" height="49.79"/><rect class="cls-19" x="672.78" y="612.91" width="0.99" height="49.79"/><rect class="cls-19" x="660.88" y="668.43" width="98.7" height="0.99"/><rect class="cls-19" x="807.34" y="682.28" width="79.87" height="4.91"/><rect class="cls-44" x="834.72" y="682.28" width="52.5" height="4.91"/><rect class="cls-19" x="807.34" y="668.19" width="79.87" height="4.91"/><rect class="cls-44" x="861.98" y="668.19" width="25.24" height="4.91"/><path class="cls-52" d="M663.6,745.7c3.11-5.34,7.16-15.64,15.09-15.64,6,0,7.21,14.42,16.43,16.69s7-36,14.59-35.64,5.35,25.59,14.21,26.89,8.49-6.15,15.51-5.51,6.46,11,19.19,9.72" transform="translate(0 -87.69)"/><path class="cls-19" d="M888.44,673.06H824.61a1,1,0,1,1,0-2h63.83a1,1,0,0,1,0,2Z" transform="translate(0 -87.69)"/><path class="cls-19" d="M854.1,683H824.61a1,1,0,1,1,0-2H854.1a1,1,0,0,1,0,2Z" transform="translate(0 -87.69)"/><path class="cls-53" d="M1011.41,211.86l-16.52,82.07a9.21,9.21,0,0,1-10.82,7.2L902,284.6a8.7,8.7,0,0,1-2.57-.94h0a9.19,9.19,0,0,1-4.58-9.87l16.52-82.08a9.18,9.18,0,0,1,10.81-7.17l82.05,16.53A9.16,9.16,0,0,1,1011.41,211.86Z" transform="translate(0 -87.69)"/><path class="cls-54" d="M1018.23,213.24l-16.52,82.07a9.2,9.2,0,0,1-10.82,7.19l-82-16.52a8.94,8.94,0,0,1-2.58-.94h0a9.17,9.17,0,0,1-4.59-9.87l16.52-82.07A9.18,9.18,0,0,1,929,185.92l82,16.52A9.17,9.17,0,0,1,1018.23,213.24Z" transform="translate(0 -87.69)"/><text class="cls-55" transform="translate(917.79 158.24) rotate(11.38)">J<tspan class="cls-56" x="18.98" y="0">a</tspan><tspan class="cls-57" x="40.48" y="0">v</tspan><tspan x="60.69" y="0">a</tspan></text><path class="cls-58" d="M1053.06,119.12l5,70.07a7.71,7.71,0,0,1-7.13,8.24l-70.05,5a7.32,7.32,0,0,1-2.3-.18h0a7.72,7.72,0,0,1-5.92-7l-5-70.07a7.71,7.71,0,0,1,7.14-8.22l70-5A7.7,7.7,0,0,1,1053.06,119.12Z" transform="translate(0 -87.69)"/><path class="cls-29" d="M1058.89,118.7l5,70.07a7.72,7.72,0,0,1-7.14,8.24l-70,5a7.62,7.62,0,0,1-2.3-.19h0a7.71,7.71,0,0,1-5.93-6.95l-5-70.07a7.71,7.71,0,0,1,7.14-8.22l70.05-5A7.69,7.69,0,0,1,1058.89,118.7Z" transform="translate(0 -87.69)"/><text class="cls-59" transform="translate(983.68 82.64) rotate(-4.1)">C<tspan class="cls-60" x="27.37" y="0">+</tspan><tspan class="cls-61" x="49.93" y="0">+</tspan></text><path class="cls-38" d="M955.23,100.18l-6.7,45.68a5.07,5.07,0,0,1-5.75,4.28l-45.67-6.7a5,5,0,0,1-1.45-.45h0a5.06,5.06,0,0,1-2.82-5.3L899.54,92a5.06,5.06,0,0,1,5.74-4.26L951,94.44A5.06,5.06,0,0,1,955.23,100.18Z" transform="translate(0 -87.69)"/><path class="cls-39" d="M959,100.74l-6.71,45.68a5.07,5.07,0,0,1-5.74,4.28L900.91,144a5,5,0,0,1-1.45-.45h0a5.06,5.06,0,0,1-2.82-5.3l6.7-45.69a5.06,5.06,0,0,1,5.75-4.26L954.75,95A5.07,5.07,0,0,1,959,100.74Z" transform="translate(0 -87.69)"/><text class="cls-62" transform="matrix(0.99, 0.15, -0.15, 0.99, 904.29, 35.61)"><tspan class="cls-63">P</tspan><tspan x="14.66" y="0">HP</tspan></text><path class="cls-39" d="M1210.73,234.15l-.94-2.69-.94,2.69a9.39,9.39,0,0,1-5.21,5.3h0a9.38,9.38,0,0,1,5.21,5.31l.94,2.68.94-2.68a9.38,9.38,0,0,1,5.21-5.31h0A9.39,9.39,0,0,1,1210.73,234.15Z" transform="translate(0 -87.69)"/><polygon class="cls-64" points="127.93 555.61 211.38 484.82 229.12 512.83 319.28 450.84 344.44 484.67 422.46 421.37 447.7 448.22 516.81 398.98 528.79 412.08 545.29 366.17 495.28 370.21 506.42 386.24 446 432.5 419.46 399.09 346.41 470.2 315.64 427.26 230.9 504.75 208.89 469.19 127.93 555.61"/><circle class="cls-65" cx="427.49" cy="289.16" r="62.8"/><text class="cls-66" transform="translate(386.61 296.37)">SEO</text><text class="cls-67" transform="translate(382.14 309.88)">O<tspan class="cls-68" x="9.79" y="0">P</tspan><tspan x="18.17" y="0">TIMIZ</tspan><tspan class="cls-69" x="54.12" y="0">A</tspan><tspan x="62.56" y="0">TION </tspan></text><rect class="cls-50" x="261.72" y="550.85" width="98.18" height="182.21"/><rect class="cls-70" x="294.7" y="550.85" width="98.18" height="182.21"/><rect class="cls-50" x="423.74" y="482.08" width="98.18" height="250.98"/><rect class="cls-71" x="456.72" y="482.08" width="98.18" height="250.98"/><rect class="cls-50" x="104.35" y="624.74" width="98.18" height="108.32"/><rect class="cls-72" x="137.33" y="624.74" width="98.18" height="108.32"/></g></g></g></svg>
