<svg xmlns="http://www.w3.org/2000/svg" xmlns:xlink="http://www.w3.org/1999/xlink" viewBox="0 0 1921.69 682.21"><defs><style>.cls-1{fill:#3454ad;}.cls-2,.cls-82{fill:none;}.cls-3{opacity:0.47;}.cls-4{fill:#e0e4f0;}.cls-5{opacity:0.5;}.cls-6{fill:#dfe2ec;}.cls-67,.cls-7,.cls-79,.cls-81{fill:#fff;}.cls-8{opacity:0.3;}.cls-9{fill:#231f20;}.cls-10{fill:#fec55e;}.cls-11{fill:#ff65a7;}.cls-12{fill:url(#linear-gradient);}.cls-13{fill:#8184c4;}.cls-14{opacity:0.2;}.cls-15{fill:#191c3c;}.cls-16{opacity:0.08;}.cls-17{fill:#f5f7f9;}.cls-18{fill:#4563cc;}.cls-19,.cls-74,.cls-79{opacity:0.1;}.cls-20{fill:#414042;}.cls-21{fill:#f2f3f7;}.cls-22,.cls-64{opacity:0.75;}.cls-23{fill:#6371c5;}.cls-24{fill:#3a3c4e;}.cls-25{fill:#4d5068;}.cls-26{fill:#ffcebd;}.cls-27{fill:#474963;}.cls-28{fill:#fcd991;}.cls-29{fill:#536dfe;}.cls-30{fill:url(#linear-gradient-2);}.cls-31{fill:#bf9838;}.cls-32{fill:url(#linear-gradient-3);}.cls-33{fill:url(#linear-gradient-4);}.cls-34{fill:url(#linear-gradient-5);}.cls-35{fill:url(#linear-gradient-6);}.cls-36{fill:url(#linear-gradient-7);}.cls-37{fill:#ffd78f;}.cls-38{fill:url(#linear-gradient-8);}.cls-39{fill:#dd9912;}.cls-40{fill:#f2ead7;}.cls-41{fill:#efbb48;}.cls-42{fill:#8ca0f4;}.cls-43{clip-path:url(#clip-path);}.cls-44,.cls-53{fill:#30568b;}.cls-44,.cls-47{opacity:0.14;}.cls-45{fill:#aec7eb;}.cls-46{clip-path:url(#clip-path-2);}.cls-47{fill:#f9f9f9;}.cls-48{clip-path:url(#clip-path-3);}.cls-49{clip-path:url(#clip-path-4);}.cls-50{fill:#30496c;}.cls-51{clip-path:url(#clip-path-5);}.cls-52{fill:#5a79a6;}.cls-54{fill:url(#linear-gradient-9);}.cls-55{fill:#bcbec0;}.cls-56{opacity:0.12;}.cls-57{fill:url(#linear-gradient-10);}.cls-58{fill:#8ca0e0;}.cls-59,.cls-75{fill:#627fd1;}.cls-60{fill:url(#linear-gradient-11);}.cls-61{fill:url(#linear-gradient-12);}.cls-62{fill:#e9edf2;}.cls-63{fill:url(#linear-gradient-13);}.cls-64{fill:url(#linear-gradient-14);}.cls-65{opacity:0.35;}.cls-66{fill:#e6e7e8;}.cls-67,.cls-75{fill-rule:evenodd;}.cls-68{fill:#8fa7db;}.cls-69{fill:url(#linear-gradient-15);}.cls-70{fill:url(#linear-gradient-16);}.cls-71{fill:#a6badd;}.cls-72{fill:#ccc;}.cls-73{fill:#f9c5de;}.cls-76{fill:#b3cde2;}.cls-77{fill:url(#linear-gradient-17);}.cls-78{fill:url(#linear-gradient-18);}.cls-80{fill:#a6dae9;}.cls-81{opacity:0.6;}.cls-82{stroke:#fff;stroke-miterlimit:10;}</style><linearGradient id="linear-gradient" x1="199.05" y1="390.26" x2="238.89" y2="390.26" gradientUnits="userSpaceOnUse"><stop offset="0" stop-color="#fec55e"/><stop offset="1" stop-color="#ffa000"/></linearGradient><linearGradient id="linear-gradient-2" x1="675.95" y1="418.65" x2="719.63" y2="418.65" xlink:href="#linear-gradient"/><linearGradient id="linear-gradient-3" x1="1259.99" y1="549.18" x2="1305.08" y2="549.18" gradientTransform="translate(196.63 1425.14) rotate(-62.07)" xlink:href="#linear-gradient"/><linearGradient id="linear-gradient-4" x1="1272.59" y1="563.63" x2="1311.77" y2="563.63" gradientTransform="translate(188.99 1441.34) rotate(-62.07)" xlink:href="#linear-gradient"/><linearGradient id="linear-gradient-5" x1="1265.68" y1="571.67" x2="1347.94" y2="571.67" gradientTransform="translate(189.66 1458.54) rotate(-62.07)" xlink:href="#linear-gradient"/><linearGradient id="linear-gradient-6" x1="1317.36" y1="650.11" x2="1375.47" y2="650.11" xlink:href="#linear-gradient"/><linearGradient id="linear-gradient-7" x1="1242.74" y1="529.26" x2="1293.97" y2="529.26" gradientTransform="translate(206.69 1402.02) rotate(-62.07)" xlink:href="#linear-gradient"/><linearGradient id="linear-gradient-8" x1="1025.98" y1="368.94" x2="1306.61" y2="368.94" xlink:href="#linear-gradient"/><clipPath id="clip-path"><rect class="cls-1" x="1183.01" y="540.24" width="13.23" height="16.96" rx="1.27"/></clipPath><clipPath id="clip-path-2"><rect class="cls-2" x="1185.34" y="540.24" width="13.23" height="16.96" rx="1.27"/></clipPath><clipPath id="clip-path-3"><rect class="cls-2" x="1212.23" y="540.24" width="13.23" height="16.96" rx="1.27"/></clipPath><clipPath id="clip-path-4"><rect class="cls-2" x="1127.23" y="540.72" width="38.11" height="16.82" rx="2.77"/></clipPath><clipPath id="clip-path-5"><rect class="cls-2" x="1137.46" y="617.81" width="25.43" height="20.27" rx="1.9"/></clipPath><linearGradient id="linear-gradient-9" x1="665.96" y1="176.32" x2="734.68" y2="176.32" xlink:href="#linear-gradient"/><linearGradient id="linear-gradient-10" x1="588.27" y1="86.01" x2="656.99" y2="86.01" xlink:href="#linear-gradient"/><linearGradient id="linear-gradient-11" x1="566.55" y1="180.03" x2="628.46" y2="180.03" xlink:href="#linear-gradient"/><linearGradient id="linear-gradient-12" x1="585.71" y1="175.96" x2="620.38" y2="175.96" xlink:href="#linear-gradient"/><linearGradient id="linear-gradient-13" x1="1456.65" y1="452.23" x2="1578.39" y2="452.23" xlink:href="#linear-gradient"/><linearGradient id="linear-gradient-14" x1="1574.89" y1="659.62" x2="1574.89" y2="625.79" gradientUnits="userSpaceOnUse"><stop offset="0" stop-color="#fff"/><stop offset="0.29" stop-color="#eff1f7"/><stop offset="0.63" stop-color="#e4e6f1"/><stop offset="1" stop-color="#e0e3ef"/></linearGradient><linearGradient id="linear-gradient-15" x1="1362.45" y1="90.93" x2="1390.54" y2="90.93" xlink:href="#linear-gradient"/><linearGradient id="linear-gradient-16" x1="1314.1" y1="37.83" x2="1328.48" y2="37.83" xlink:href="#linear-gradient"/><linearGradient id="linear-gradient-17" x1="1403.5" y1="35.64" x2="1493.26" y2="35.64" xlink:href="#linear-gradient"/><linearGradient id="linear-gradient-18" x1="1482.27" y1="23.27" x2="1493.57" y2="23.27" xlink:href="#linear-gradient"/></defs><title>Services</title><g id="Layer_2" data-name="Layer 2"><g id="Layer_1-2" data-name="Layer 1"><g class="cls-3"><path class="cls-4" d="M1073.69,679a520.62,520.62,0,0,0-45-212.35A164.8,164.8,0,0,0,831.37,237.87a520.12,520.12,0,0,0-280.25-81.45q-19.27,0-38.2,1.38a134.6,134.6,0,0,0-206.69,59.49,524.23,524.23,0,0,0-109,77.23,149.18,149.18,0,0,0-148.47,240A523.11,523.11,0,0,0,28.54,679Z"/></g><g class="cls-3"><path class="cls-4" d="M1921.69,679a520.62,520.62,0,0,0-45-212.35,164.8,164.8,0,0,0-197.34-228.78,520.12,520.12,0,0,0-280.25-81.45q-19.27,0-38.2,1.38a134.6,134.6,0,0,0-206.69,59.49,524.23,524.23,0,0,0-109,77.23,149.18,149.18,0,0,0-148.47,240A523.11,523.11,0,0,0,876.54,679Z"/></g><g class="cls-3"><path class="cls-4" d="M508,679c0-132.81-107.67-240.47-240.48-240.47S27.09,546.19,27.09,679Z"/></g><g class="cls-3"><path class="cls-4" d="M952.05,679c0-132.81-107.67-240.47-240.48-240.47S471.1,546.19,471.1,679Z"/></g><g class="cls-3"><path class="cls-4" d="M1440.87,679c0-132.81-107.66-240.47-240.48-240.47S959.92,546.19,959.92,679Z"/></g><g class="cls-3"><path class="cls-4" d="M1921.69,679c0-132.81-107.66-240.47-240.47-240.47S1440.74,546.19,1440.74,679Z"/></g><g class="cls-5"><circle class="cls-4" cx="720.44" cy="142.92" r="15.82" transform="translate(416.52 811.58) rotate(-76.78)"/></g><g class="cls-5"><circle class="cls-4" cx="1360.44" cy="91.92" r="15.82" transform="translate(959.78 1395.28) rotate(-76.78)"/></g><g class="cls-5"><path class="cls-4" d="M453.92,81.66a20.49,20.49,0,1,1-20.49-20.49A20.49,20.49,0,0,1,453.92,81.66Z"/></g><g class="cls-5"><path class="cls-4" d="M1512.92,96.66a20.49,20.49,0,1,1-20.49-20.49A20.49,20.49,0,0,1,1512.92,96.66Z"/></g><g class="cls-5"><path class="cls-4" d="M1147.92,166.66a20.49,20.49,0,1,1-20.49-20.49A20.49,20.49,0,0,1,1147.92,166.66Z"/></g><g class="cls-5"><path class="cls-4" d="M216.25,215.8a10.44,10.44,0,1,1-10.44-10.44A10.44,10.44,0,0,1,216.25,215.8Z"/></g><g class="cls-5"><circle class="cls-4" cx="310.45" cy="139.09" r="10.44"/></g><g class="cls-5"><circle class="cls-4" cx="1751.45" cy="167.09" r="10.44"/></g><g class="cls-5"><path class="cls-4" d="M816.57,164.69a9.31,9.31,0,1,1-9.31-9.32A9.31,9.31,0,0,1,816.57,164.69Z"/></g><g class="cls-5"><path class="cls-4" d="M517.91,90.06a3.22,3.22,0,1,1-3.21-3.22A3.22,3.22,0,0,1,517.91,90.06Z"/></g><g class="cls-5"><circle class="cls-4" cx="247" cy="174.09" r="4.19"/></g><g class="cls-5"><path class="cls-4" d="M101.2,265.25a5.57,5.57,0,1,1-5.56-5.57A5.57,5.57,0,0,1,101.2,265.25Z"/></g><g class="cls-5"><path class="cls-4" d="M559.58,104.07A5.57,5.57,0,1,1,554,98.5,5.57,5.57,0,0,1,559.58,104.07Z"/></g><g class="cls-5"><path class="cls-4" d="M1222.58,95.07A5.57,5.57,0,1,1,1217,89.5,5.57,5.57,0,0,1,1222.58,95.07Z"/></g><g class="cls-5"><circle class="cls-4" cx="151.11" cy="247.79" r="23.62" transform="translate(-117.69 357.26) rotate(-80.78)"/></g><g class="cls-5"><circle class="cls-4" cx="1024.11" cy="221.79" r="23.62" transform="translate(641.14 1197.15) rotate(-80.78)"/></g><g class="cls-5"><path class="cls-4" d="M26.12,523.43a5.57,5.57,0,1,1-5.57-5.57A5.57,5.57,0,0,1,26.12,523.43Z"/></g><g class="cls-5"><circle class="cls-4" cx="634.33" cy="127.68" r="22.89"/></g><g class="cls-5"><circle class="cls-4" cx="1628.33" cy="128.68" r="22.89"/></g><g class="cls-5"><circle class="cls-4" cx="899.33" cy="184.68" r="22.89"/></g><g class="cls-5"><circle class="cls-4" cx="18.12" cy="325.3" r="18.12" transform="translate(-123.11 31.7) rotate(-22.5)"/></g><g class="cls-5"><path class="cls-4" d="M1859.25,230.8a10.44,10.44,0,1,1-10.44-10.44A10.44,10.44,0,0,1,1859.25,230.8Z"/></g><path class="cls-6" d="M309.74,406.29a16.63,16.63,0,1,1,2.06-23.43A16.63,16.63,0,0,1,309.74,406.29Z"/><path class="cls-7" d="M295.85,382.9l.72.86-4.43,3.71c-1.75,1.47-3,1.06-4-.08a3.8,3.8,0,0,1-.61-1l.81-.46a2.61,2.61,0,0,0,.47.82c.64.77,1.36.93,2.66-.15Z"/><path class="cls-7" d="M294.13,390.05l-2.66,1.06-.74-.89,8.5-3.29.86,1-4.72,7.8-.76-.92,1.48-2.45Zm2.48,1.61,1.36-2.24c.31-.51.62-.94.92-1.36l0,0c-.47.23-1,.46-1.47.67l-2.46,1Z"/><path class="cls-7" d="M297,397.66l4.8-7.7.77.92-2.39,3.76c-.65,1-1.25,2-1.88,2.78l0,0c.92-.45,2-.88,3.09-1.31l4.21-1.62.76.91-8.59,3.18Z"/><path class="cls-7" d="M302.85,400.45l-2.65,1.06-.74-.88,8.49-3.3.86,1-4.71,7.8-.77-.91,1.49-2.45Zm2.49,1.61,1.36-2.24a15.3,15.3,0,0,1,.92-1.36l0,0c-.48.23-1,.46-1.48.67l-2.45,1Z"/><g class="cls-8"><path class="cls-9" d="M296.93,394.06a18.19,18.19,0,0,0-6.27-13.75,17.39,17.39,0,0,0-2.29,1.59,15.39,15.39,0,0,0-2.06,22.33,17,17,0,0,0,4.27,3.61A18.17,18.17,0,0,0,296.93,394.06Z"/></g><path class="cls-10" d="M294,391.93a18.25,18.25,0,1,1-18.24-18.24A18.25,18.25,0,0,1,294,391.93Z"/><path class="cls-7" d="M265.11,388.65v3.14h3.63v-3.14h1v7.51h-1v-3.52h-3.63v3.52h-1v-7.51Z"/><path class="cls-7" d="M272.83,389.48h-2.28v-.83h5.55v.83h-2.29v6.68h-1Z"/><path class="cls-7" d="M283.26,392.86c-.05-1.05-.12-2.3-.11-3.24h0c-.26.88-.57,1.82-.95,2.85l-1.32,3.64h-.74l-1.21-3.57c-.36-1.06-.66-2-.87-2.92h0c0,.94-.08,2.19-.14,3.32l-.21,3.22h-.92l.52-7.51h1.24l1.28,3.63c.31.93.57,1.75.76,2.53h0c.19-.76.46-1.58.79-2.53l1.34-3.63h1.23l.47,7.51h-.95Z"/><path class="cls-7" d="M285.9,388.65h1v6.69h3.2v.82H285.9Z"/><g class="cls-8"><path class="cls-9" d="M268.77,377.2a16.62,16.62,0,0,0-2.23,30.48,20.11,20.11,0,0,0,2.23-30.48Z"/></g><path class="cls-11" d="M269.85,381.47a20.15,20.15,0,1,1-26.8-9.7A20.15,20.15,0,0,1,269.85,381.47Z"/><path class="cls-7" d="M248.74,397.15a7.19,7.19,0,0,1-2.45,1.74c-2.87,1.34-5.87.54-7.43-2.79a5.58,5.58,0,0,1,2.81-7.82,6,6,0,0,1,2.62-.67l.18,1.22a5.26,5.26,0,0,0-2.24.53c-2.38,1.12-3.25,3.38-2,6.05,1.16,2.48,3.34,3.41,5.81,2.25a5.68,5.68,0,0,0,1.94-1.42Z"/><path class="cls-7" d="M250.62,386.9l1.66,3.54,3.4-1.59.43.9-3.41,1.6,1.67,3.57-1,.45-1.67-3.57-3.41,1.6-.42-.91,3.4-1.59-1.66-3.54Z"/><path class="cls-7" d="M259.6,382.7l1.66,3.54,3.41-1.6.42.91-3.4,1.59,1.67,3.57-1,.45-1.67-3.57-3.4,1.6-.43-.91,3.41-1.59-1.66-3.54Z"/><g class="cls-8"><path class="cls-9" d="M233.35,398.57a20.05,20.05,0,0,0,5.4,6.95,19.79,19.79,0,0,0-2.63-26.93,20.22,20.22,0,0,0-4.64,12.48A20,20,0,0,0,233.35,398.57Z"/></g><path class="cls-12" d="M237.75,396.87a19.91,19.91,0,1,1-12.16-25.4A19.91,19.91,0,0,1,237.75,396.87Z"/><path class="cls-7" d="M206.91,379.62a19.66,19.66,0,0,1,3,.81,5.14,5.14,0,0,1,3,2.15,3.37,3.37,0,0,1,.17,2.85,3.72,3.72,0,0,1-1.81,2.21,5.22,5.22,0,0,1-4.08,0,5.74,5.74,0,0,1-1.19-.54l-1.67,4.75-1.53-.54Zm-.48,6.25a5.18,5.18,0,0,0,1.22.57c1.85.65,3.29.15,3.86-1.48s-.29-2.71-2-3.31a6.91,6.91,0,0,0-1.49-.38Z"/><path class="cls-7" d="M217.85,383.32l-1.75,4.95,5.73,2,1.75-5,1.54.54L221,397.73l-1.55-.55,2-5.55-5.73-2-2,5.55-1.53-.54,4.18-11.84Z"/><path class="cls-7" d="M227.73,387a18.57,18.57,0,0,1,3,.81,5.14,5.14,0,0,1,3,2.15,3.35,3.35,0,0,1,.17,2.84,3.66,3.66,0,0,1-1.81,2.21,5.22,5.22,0,0,1-4.08,0,5.74,5.74,0,0,1-1.19-.54l-1.67,4.74-1.53-.54Zm-.48,6.25a5.18,5.18,0,0,0,1.22.57c1.85.65,3.29.15,3.86-1.49s-.29-2.71-2-3.3a6.35,6.35,0,0,0-1.49-.38Z"/><path class="cls-13" d="M104.92,679.19H105S103.51,679.9,104.92,679.19Zm12.75-12.42c-13.15-13.6-29-25.09-47.22-30.3S31.6,632.91,16,643.59a116.33,116.33,0,0,0,88.94,35.6c4.81.31,18.72.52,22.61-1.74,1.11-.64-2.13-4.14-4.91-7C121.74,669.52,118.55,667.68,117.67,666.77Z"/><g class="cls-14"><path class="cls-15" d="M122.62,670.43c-.88-.91-4.07-2.75-5-3.66-13.15-13.6-29-25.09-47.22-30.3A72.41,72.41,0,0,0,43.37,634a72,72,0,0,1,30.17,7.84C90,650.17,103.16,664,113.39,679.37c5.53-.07,11.74-.52,14.14-1.92C128.64,676.81,125.4,673.31,122.62,670.43Z"/></g><path class="cls-13" d="M133.34,638.19c2.61,7.6,6.2,18.89,3,26.25-2.54,5.8-7,14.16-12.78,13-4.89-6.38-14.78-19.33-21.06-24.36-5.26-4.21-13.42-8.62-18.42-13.14-12.69-11.49-17.6-26.84-24.63-42.45a214.24,214.24,0,0,1,38,7.21c8.11,2.31,16.31,5.23,22.59,10.85C126.6,621.47,130.47,629.81,133.34,638.19Z"/><g class="cls-16"><path class="cls-17" d="M105.84,653.55C101.4,648.48,94.15,642.7,90,637.37c-8.7-11.24-11.66-24.16-14.8-37.72q-7.86-1.36-15.79-2.15c7,15.61,11.94,31,24.63,42.45,5,4.52,13.16,8.93,18.42,13.14a87.06,87.06,0,0,1,10.6,11.14A74.8,74.8,0,0,0,105.84,653.55Z"/></g><path class="cls-13" d="M139.73,597.69c4.31,11.77,4.26,24.63,4.15,37.16,0,4.77,1.16,12.63,0,17.27-.94,3.84-3.5,7.57-5.79,10.79-2,2.84-4.48-.55-6.25-3.32-1.65-2.6-4.6-7.13-3.14-6.1-2.1-7.27-3.29-11.86-5.33-19.16a120.31,120.31,0,0,1-4.73-17.12c-2.47-14.39.37-29.1,3.2-43.43A52.57,52.57,0,0,1,139.73,597.69Z"/><path class="cls-15" d="M25.26,646.12c16.39-.59,32.38-.08,48.26,4.45a124.58,124.58,0,0,1,41,20.66c.65.49,1.27-.6.63-1.09a123.92,123.92,0,0,0-41.3-20.62c-16-4.52-32-4.82-48.55-3.8a.2.2,0,0,0,0,.4Z"/><path class="cls-15" d="M64.76,602.29A130.72,130.72,0,0,1,100.48,627c11.21,11,18.73,24.25,27.24,37.28a.36.36,0,0,0,.62-.35c-14.41-27-34.8-49.79-63.41-61.88-.2-.08-.38.2-.17.29Z"/><path class="cls-15" d="M122.63,579.41c8.58,25.58,18.61,50.06,12.8,77.58-.12.58.76.82.88.25,5.42-26.15-2.44-54.19-13.47-77.91a.11.11,0,0,0-.21.08Z"/><path class="cls-15" d="M37,655.3a55.73,55.73,0,0,1,5.48-5.16,68,68,0,0,1,6.42-3.92c.16-.09.07-.38-.12-.31A25,25,0,0,0,36.9,655.2c0,.08.07.17.13.1Z"/><path class="cls-15" d="M50.22,661.77C54.81,653.45,61.44,651,70.49,650a.49.49,0,1,0-.11-1c-8.57,1.13-17.12,3.69-20.31,12.63,0,.09.11.15.15.07Z"/><path class="cls-15" d="M66.61,662.87c5.2-4.11,10.61-10.32,18-8.4a.31.31,0,0,0,.16-.59c-7.41-2-13.4,4.16-18.34,8.78-.14.13.07.33.22.21Z"/><path class="cls-15" d="M82.7,671.47c4.9-6.16,12-11.84,20.11-7.59.46.25.88-.46.41-.71-8.08-4.28-16.44,1.1-20.71,8.15-.06.12.11.26.19.15Z"/><path class="cls-15" d="M45.19,635.73c1.07,5.23,5.62,8.43,9.81,11.21.3.2.59-.29.28-.49-4.27-2.73-8.37-5.67-9.78-10.8a.16.16,0,0,0-.31.08Z"/><path class="cls-15" d="M62.48,636.89A34.78,34.78,0,0,0,71.66,650c.33.3.82-.19.49-.49a43.66,43.66,0,0,1-9.51-12.69c0-.08-.2,0-.16.07Z"/><path class="cls-15" d="M77.12,642.66a23,23,0,0,0,3.75,6.71c1.19,1.49,3,4.4,4.82,5.11a.44.44,0,0,0,.45-.12l.18-.19a.47.47,0,0,0-.09-.73L86,653.3a.41.41,0,0,0-.49.07l-.16.17a.29.29,0,0,0,.13.47c.61.09-2-2.81-1.89-2.75-.75-.8-1.49-1.6-2.19-2.45a31.77,31.77,0,0,1-4.08-6.24c-.06-.12-.27,0-.22.09Z"/><path class="cls-15" d="M89.34,648.85c3.23,5.5,8.18,10.36,13.19,14.24.6.46,1.44-.37.84-.84-5.22-4.11-9.32-8.71-13.67-13.68-.17-.2-.5,0-.36.28Z"/><path class="cls-15" d="M72.36,619.53c9.21-.6,17-.1,25,4.92.54.34,1-.5.49-.84-7.09-4.62-17.3-7.36-25.59-4.54-.23.08-.23.48.06.46Z"/><path class="cls-15" d="M86.67,634.78c4.42,0,8.56-.12,12.92.9A90.77,90.77,0,0,1,111,639.44c.5.19.71-.6.22-.79-7.65-2.85-16.28-6.13-24.55-4.08a.11.11,0,0,0,0,.21Z"/><path class="cls-15" d="M103.61,648.09a80.43,80.43,0,0,1,9.16,1c3.54.66,5.74,2.38,8.07,5,.36.42,1-.19.61-.62-2.17-2.48-4.24-4.3-7.53-5a38.73,38.73,0,0,0-10.3-.75.17.17,0,0,0,0,.34Z"/><path class="cls-15" d="M91.11,609c.24,3.28,1.92,6.6,3.24,9.6.82,1.86,1.63,5.26,4,5.61.2,0,.43-.23.23-.4-4.21-3.58-4.42-10.35-7.17-14.88-.07-.11-.29-.08-.28.07Z"/><path class="cls-15" d="M104.83,613.13c.83,9.07,3.65,18.09,6.85,26.58.16.41.83.24.67-.17-3.28-8.68-5.15-17.44-7.18-26.45,0-.18-.36-.15-.34,0Z"/><path class="cls-15" d="M119.51,632.2c0,7.7,1.94,15.57,3.12,23.15.1.58,1,.36.9-.23-1.33-7.65-2.54-15.28-3.62-23,0-.23-.39-.18-.4.05Z"/><path class="cls-15" d="M119.87,593.91a88,88,0,0,1,13.44,20.2c.29.61,1.2.09.91-.52a68.92,68.92,0,0,0-13.89-20.14c-.3-.29-.73.15-.46.46Z"/><path class="cls-15" d="M137.56,595.24c-2.6,5.88-3.09,13.29-3.44,19.64,0,.57.86.58.89,0a96.59,96.59,0,0,1,1.2-10.84c.49-2.91,1.39-5.78,1.72-8.71,0-.19-.29-.28-.37-.1Z"/><path class="cls-15" d="M127.56,617.36c4,6.4,6.6,12.69,9.46,19.64.08.19.35,0,.32-.14-1-7-5-14.42-9.49-19.72-.14-.16-.4.05-.29.22Z"/><path class="cls-15" d="M137.77,637.36c1.77-4.49,3.21-8.89,5.73-13.05A.3.3,0,0,0,143,624c-2.4,4-4.75,8.67-5.38,13.33,0,.11.14.11.17,0Z"/><path class="cls-6" d="M485.79,679.36H296.16a24.68,24.68,0,0,1-24.68-24.68v-411A24.68,24.68,0,0,1,296.16,219H485.79a24.68,24.68,0,0,1,24.68,24.68v411A24.68,24.68,0,0,1,485.79,679.36Z"/><rect class="cls-18" x="271.48" y="272.07" width="238.18" height="343.7"/><path class="cls-18" d="M408.4,645.56A17.43,17.43,0,1,1,391,628.14,17.42,17.42,0,0,1,408.4,645.56Z"/><g class="cls-19"><path class="cls-20" d="M488.8,219H468.7a21.68,21.68,0,0,1,21.68,21.68v417a21.68,21.68,0,0,1-21.68,21.68h20.1a21.67,21.67,0,0,0,21.67-21.68v-417A21.68,21.68,0,0,0,488.8,219Z"/></g><g class="cls-19"><path class="cls-7" d="M293.16,219h20.09a21.68,21.68,0,0,0-21.68,21.68v417a21.68,21.68,0,0,0,21.68,21.68H293.16a21.67,21.67,0,0,1-21.68-21.68v-417A21.68,21.68,0,0,1,293.16,219Z"/></g><rect class="cls-18" x="357.77" y="245.17" width="66.41" height="2.89"/><g class="cls-8"><path class="cls-15" d="M352.52,411.3H111.87a9,9,0,0,0-9,9v259.1H361.48V420.26A9,9,0,0,0,352.52,411.3Z"/></g><path class="cls-7" d="M106.3,410.1H346.06a9.4,9.4,0,0,1,9.4,9.4V679.36a0,0,0,0,1,0,0H96.89a0,0,0,0,1,0,0V419.5A9.4,9.4,0,0,1,106.3,410.1Z"/><path class="cls-18" d="M355.46,449v-30a9,9,0,0,0-9-9H105.85a9,9,0,0,0-9,9v30Z"/><rect class="cls-18" x="134.16" y="456.24" width="185.54" height="78.65"/><path class="cls-21" d="M312,550.35H141.88a7.72,7.72,0,0,0-7.72,7.72h0a7.73,7.73,0,0,0,7.72,7.73H312a7.73,7.73,0,0,0,7.72-7.73h0A7.72,7.72,0,0,0,312,550.35Z"/><path class="cls-21" d="M312.56,583.48H142.48a7.73,7.73,0,0,0-7.73,7.73h0a7.73,7.73,0,0,0,7.73,7.73H312.56a7.73,7.73,0,0,0,7.73-7.73h0A7.73,7.73,0,0,0,312.56,583.48Z"/><path class="cls-21" d="M313.15,616.62H143.07a7.73,7.73,0,0,0-7.73,7.73h0a7.73,7.73,0,0,0,7.73,7.73H313.15a7.73,7.73,0,0,0,7.73-7.73h0A7.73,7.73,0,0,0,313.15,616.62Z"/><path class="cls-21" d="M313.74,649.76H143.66a7.73,7.73,0,0,0-7.73,7.73h0a7.73,7.73,0,0,0,7.73,7.72H313.74a7.73,7.73,0,0,0,7.73-7.72h0A7.73,7.73,0,0,0,313.74,649.76Z"/><path class="cls-7" d="M127.26,429.56a5.18,5.18,0,1,1-5.18-5.18A5.17,5.17,0,0,1,127.26,429.56Z"/><path class="cls-7" d="M144.51,429.56a5.18,5.18,0,1,1-5.18-5.18A5.17,5.17,0,0,1,144.51,429.56Z"/><path class="cls-7" d="M161.77,429.56a5.18,5.18,0,1,1-5.18-5.18A5.17,5.17,0,0,1,161.77,429.56Z"/><g class="cls-14"><path class="cls-20" d="M346.5,410.1H335.05a9,9,0,0,1,9,9v260.3h11.45V419.06A9,9,0,0,0,346.5,410.1Z"/></g><path class="cls-13" d="M833.06,677.68h.13S831.22,678.6,833.06,677.68Zm16.62-16.21c-17.16-17.73-37.87-32.72-61.59-39.52s-50.68-4.64-71.05,9.29c29.58,31.17,73.1,48.58,116,46.44,6.26.41,24.4.68,29.49-2.27,1.44-.84-2.79-5.4-6.41-9.16C855,665.06,850.83,662.66,849.68,661.47Z"/><g class="cls-14"><path class="cls-15" d="M856.14,666.25c-1.15-1.19-5.31-3.59-6.46-4.78-17.16-17.73-37.87-32.72-61.59-39.52a94.74,94.74,0,0,0-35.33-3.26,93.78,93.78,0,0,1,39.36,10.23c21.46,10.9,38.63,28.92,52,49,7.22-.09,15.31-.68,18.45-2.5C864,674.57,859.76,670,856.14,666.25Z"/></g><g class="cls-5"><path class="cls-13" d="M870.13,624.2c3.4,9.9,8.07,24.63,3.88,34.23-3.31,7.57-9.1,18.48-16.68,17-6.37-8.33-19.27-25.22-27.46-31.78-6.87-5.49-17.5-11.24-24-17.14-16.56-15-23-35-32.14-55.37a279.29,279.29,0,0,1,49.55,9.4c10.57,3,21.27,6.83,29.46,14.16C861.33,602.39,866.38,613.27,870.13,624.2Z"/></g><g class="cls-16"><path class="cls-17" d="M834.25,644.23c-5.79-6.62-15.25-14.15-20.64-21.1-11.35-14.66-15.2-31.52-19.3-49.21-6.83-1.18-13.7-2.13-20.6-2.8,9.17,20.36,15.58,40.38,32.14,55.37,6.52,5.9,17.15,11.65,24,17.14,3.93,3.15,9,8.7,13.82,14.53A98.55,98.55,0,0,0,834.25,644.23Z"/></g><g class="cls-22"><path class="cls-13" d="M878.45,571.37c5.63,15.35,5.56,32.12,5.41,48.47-.05,6.23,1.52,16.48,0,22.53-1.21,5-4.55,9.87-7.54,14.07-2.64,3.7-5.85-.72-8.16-4.33-2.15-3.39-6-9.3-4.09-8-2.74-9.48-4.3-15.46-7-25-2.43-7.34-4.86-14.71-6.17-22.33-3.23-18.77.48-38,4.17-56.64A68.51,68.51,0,0,1,878.45,571.37Z"/></g><path class="cls-15" d="M729.14,634.54c21.38-.76,42.24-.11,63,5.8a162.4,162.4,0,0,1,53.43,27c.84.64,1.66-.79.82-1.43A161.58,161.58,0,0,0,792.47,639c-20.91-5.9-41.77-6.29-63.32-5-.33,0-.34.53,0,.52Z"/><path class="cls-15" d="M780.66,577.38a170,170,0,0,1,46.59,32.16c14.63,14.38,24.44,31.63,35.54,48.63a.47.47,0,0,0,.81-.46c-18.8-35.26-45.39-65-82.72-80.72-.25-.11-.48.26-.22.39Z"/><path class="cls-15" d="M856.15,547.53c11.19,33.37,24.27,65.3,16.7,101.19-.16.75,1,1.07,1.14.32,7.07-34.11-3.18-70.68-17.57-101.62-.07-.15-.33,0-.27.11Z"/><path class="cls-15" d="M744.5,646.52a72.12,72.12,0,0,1,7.14-6.73,87.68,87.68,0,0,1,8.38-5.12c.21-.12.09-.49-.16-.41a32.62,32.62,0,0,0-15.53,12.13c-.07.1.08.21.17.13Z"/><path class="cls-15" d="M761.71,655c6-10.85,14.62-14,26.44-15.31a.63.63,0,1,0-.15-1.25c-11.18,1.47-22.34,4.81-26.49,16.48,0,.11.14.18.2.08Z"/><path class="cls-15" d="M783.08,656.39c6.79-5.36,13.84-13.47,23.43-11a.4.4,0,0,0,.21-.77c-9.67-2.63-17.49,5.43-23.92,11.45-.2.18.08.43.28.28Z"/><path class="cls-15" d="M804.07,667.6c6.39-8,15.64-15.44,26.22-9.89.61.32,1.15-.6.54-.93-10.53-5.58-21.44,1.43-27,10.64-.09.14.14.33.25.18Z"/><path class="cls-15" d="M755.14,621c1.4,6.82,7.32,11,12.79,14.62.4.26.78-.38.37-.64-5.56-3.57-10.92-7.39-12.76-14.08a.21.21,0,0,0-.4.1Z"/><path class="cls-15" d="M777.69,622.5c2.43,6.6,6.88,12.34,12,17.1.42.39,1.06-.25.63-.63-5.35-4.75-9.06-10.29-12.4-16.56-.06-.11-.26,0-.21.09Z"/><path class="cls-15" d="M796.78,630a29.91,29.91,0,0,0,4.9,8.75c1.55,2,4,5.75,6.29,6.68a.62.62,0,0,0,.59-.16l.23-.24a.62.62,0,0,0-.12-1l-.27-.18a.54.54,0,0,0-.64.08l-.21.23c-.16.19-.13.57.17.61.8.12-2.54-3.66-2.47-3.58-1-1-1.94-2.1-2.85-3.2a40.92,40.92,0,0,1-5.33-8.14c-.07-.16-.35,0-.29.11Z"/><path class="cls-15" d="M812.72,638.1c4.22,7.18,10.68,13.51,17.21,18.58.78.6,1.89-.48,1.1-1.1-6.81-5.36-12.16-11.36-17.83-17.85-.23-.26-.65.07-.48.37Z"/><path class="cls-15" d="M790.58,599.86c12-.79,22.13-.14,32.67,6.42.69.43,1.32-.65.63-1.1-9.25-6-22.57-9.61-33.38-5.92-.3.11-.29.63.08.6Z"/><path class="cls-15" d="M809.24,619.75c5.77,0,11.17-.16,16.86,1.18a117.68,117.68,0,0,1,14.84,4.9c.65.25.93-.79.29-1-10-3.72-21.24-8-32-5.32-.15,0-.13.28,0,.27Z"/><path class="cls-15" d="M831.34,637.11a106.24,106.24,0,0,1,11.95,1.32c4.62.86,7.49,3.1,10.52,6.57.48.55,1.28-.25.8-.8-2.83-3.25-5.53-5.61-9.82-6.55a50.56,50.56,0,0,0-13.44-1,.23.23,0,0,0,0,.45Z"/><path class="cls-15" d="M815,586.07c.31,4.28,2.51,8.61,4.23,12.52,1.06,2.43,2.12,6.87,5.18,7.31.27,0,.56-.28.3-.51-5.49-4.67-5.76-13.51-9.35-19.41-.1-.15-.37-.11-.36.09Z"/><path class="cls-15" d="M832.93,591.51c1.09,11.83,4.76,23.6,8.94,34.66.2.55,1.08.33.88-.22-4.29-11.31-6.73-22.73-9.38-34.49,0-.24-.46-.21-.44,0Z"/><path class="cls-15" d="M852.09,616.38c0,10,2.52,20.31,4.07,30.2.11.76,1.29.46,1.16-.3-1.73-10-3.31-19.93-4.71-30-.05-.3-.52-.23-.52.06Z"/><path class="cls-15" d="M852.55,566.44a115,115,0,0,1,17.53,26.35c.38.8,1.56.11,1.19-.68a89.54,89.54,0,0,0-18.12-26.26c-.39-.39-.95.18-.6.59Z"/><path class="cls-15" d="M875.62,568.17c-3.39,7.67-4,17.34-4.48,25.62,0,.75,1.11.76,1.15,0a129.26,129.26,0,0,1,1.57-14.14c.64-3.8,1.81-7.54,2.25-11.36a.27.27,0,0,0-.49-.14Z"/><path class="cls-15" d="M862.58,597c5.25,8.34,8.62,16.54,12.34,25.61.11.26.46.06.42-.17-1.27-9.07-6.52-18.82-12.38-25.73-.18-.2-.52.06-.38.29Z"/><path class="cls-15" d="M875.9,623.11c2.31-5.85,4.19-11.59,7.47-17a.39.39,0,0,0-.68-.4c-3.13,5.21-6.19,11.3-7,17.39,0,.14.19.14.23,0Z"/><g class="cls-22"><path class="cls-13" d="M924.44,677.69h.12C926.33,678.58,924.44,677.69,924.44,677.69Zm-22-11c-3.48,3.6-7.54,8-6.15,8.79,4.87,2.83,22.29,2.57,28.3,2.18a145.71,145.71,0,0,0,111.37-44.58c-19.55-13.37-45.44-15.46-68.21-8.92s-42.65,20.92-59.11,37.94C907.5,663.28,903.51,665.59,902.41,666.73Z"/></g><g class="cls-19"><path class="cls-15" d="M902.41,666.73c1.1-1.14,5.09-3.45,6.2-4.59,16.46-17,36.35-31.41,59.11-37.94a90.8,90.8,0,0,1,33.92-3.13,90,90,0,0,0-37.78,9.82c-20.6,10.47-37.09,27.77-49.9,47-6.93-.09-14.7-.66-17.7-2.4C894.87,674.71,898.93,670.33,902.41,666.73Z"/></g><g class="cls-22"><path class="cls-13" d="M905.69,598c7.86-7,18.13-10.7,28.28-13.6a268.92,268.92,0,0,1,47.56-9c-8.81,19.54-14.95,38.76-30.85,53.14-6.26,5.67-16.47,11.19-23.06,16.47-7.86,6.29-20.24,22.5-26.36,30.5-7.27,1.44-12.83-9-16-16.3-4-9.21.47-23.35,3.73-32.86C892.58,615.87,897.43,605.42,905.69,598Z"/></g><g class="cls-16"><path class="cls-17" d="M923.41,645.59c5.57-6.35,14.65-13.58,19.82-20.26,10.89-14.07,14.59-30.25,18.53-47.23q9.82-1.71,19.77-2.69c-8.81,19.54-14.95,38.76-30.85,53.14-6.26,5.67-16.47,11.19-23.06,16.47-3.78,3-8.6,8.34-13.27,13.94A95.86,95.86,0,0,1,923.41,645.59Z"/></g><g class="cls-22"><path class="cls-13" d="M903.34,545.71c3.55,17.94,7.11,36.36,4,54.38-1.26,7.31-3.59,14.39-5.92,21.43-2.55,9.15-4,14.89-6.68,24,1.83-1.28-1.86,4.39-3.93,7.64-2.21,3.47-5.29,7.71-7.82,4.15-2.87-4-6.08-8.7-7.25-13.5-1.41-5.81.09-15.65,0-21.62-.14-15.7-.21-31.79,5.2-46.53A65.84,65.84,0,0,1,903.34,545.71Z"/></g><path class="cls-15" d="M1024.31,636.28c-20.52-.73-40.54-.1-60.43,5.57a156,156,0,0,0-51.28,25.88c-.81.61-1.59-.76-.79-1.37a155.34,155.34,0,0,1,51.71-25.82c20.08-5.66,40.1-6,60.79-4.75.31,0,.32.5,0,.49Z"/><path class="cls-15" d="M974.86,581.41a163.8,163.8,0,0,0-44.73,30.87c-14,13.81-23.46,30.37-34.11,46.69a.44.44,0,0,1-.77-.44c18-33.85,43.57-62.35,79.39-77.49.25-.1.47.25.22.37Z"/><path class="cls-15" d="M902.4,552.76c-10.75,32-23.3,62.68-16,97.14.15.72-1,1-1.1.3-6.79-32.73,3.06-67.84,16.87-97.54.06-.15.31,0,.26.1Z"/><path class="cls-15" d="M1009.57,647.78a68.76,68.76,0,0,0-6.86-6.46,84.63,84.63,0,0,0-8-4.91c-.2-.12-.08-.47.16-.39a31.35,31.35,0,0,1,14.9,11.64c.07.1-.08.21-.16.12Z"/><path class="cls-15" d="M993.05,655.88c-5.74-10.41-14-13.46-25.38-14.7a.61.61,0,1,1,.15-1.2c10.73,1.41,21.43,4.62,25.42,15.82,0,.11-.13.18-.19.08Z"/><path class="cls-15" d="M972.54,657.26c-6.52-5.14-13.29-12.93-22.49-10.52a.38.38,0,0,1-.2-.74c9.27-2.53,16.78,5.21,23,11,.18.17-.08.42-.27.27Z"/><path class="cls-15" d="M952.39,668c-6.13-7.72-15-14.83-25.18-9.5-.58.31-1.1-.58-.51-.89,10.11-5.37,20.58,1.37,25.92,10.2.09.14-.12.32-.23.19Z"/><path class="cls-15" d="M999.35,623.28c-1.34,6.55-7,10.55-12.27,14-.38.26-.75-.37-.36-.61,5.34-3.42,10.49-7.1,12.25-13.52a.2.2,0,0,1,.38.1Z"/><path class="cls-15" d="M977.71,624.73a43.67,43.67,0,0,1-11.5,16.41c-.4.38-1-.24-.61-.6,5.14-4.56,8.7-9.88,11.91-15.9,0-.1.24,0,.2.09Z"/><path class="cls-15" d="M959.38,632a28.49,28.49,0,0,1-4.7,8.4c-1.49,1.87-3.79,5.51-6,6.4a.55.55,0,0,1-.57-.15l-.23-.23a.6.6,0,0,1,.12-.92l.26-.17a.51.51,0,0,1,.62.08l.19.22c.16.18.13.54-.15.58-.77.12,2.44-3.51,2.36-3.44.94-1,1.87-2,2.74-3.06a39.12,39.12,0,0,0,5.11-7.82c.08-.15.34-.05.28.11Z"/><path class="cls-15" d="M944.08,639.7c-4,6.89-10.25,13-16.52,17.84-.74.57-1.81-.46-1-1.06,6.53-5.14,11.67-10.9,17.11-17.13.22-.25.63.07.46.35Z"/><path class="cls-15" d="M965.34,603c-11.53-.76-21.25-.14-31.36,6.16-.67.42-1.27-.63-.61-1.06,8.88-5.79,21.66-9.22,32-5.68.29.1.28.6-.07.58Z"/><path class="cls-15" d="M947.42,622.09c-5.54-.05-10.72-.16-16.18,1.13A112.12,112.12,0,0,0,917,627.93c-.62.23-.89-.76-.27-1,9.58-3.56,20.38-7.67,30.73-5.1a.13.13,0,0,1,0,.26Z"/><path class="cls-15" d="M926.21,638.75A102.37,102.37,0,0,0,914.74,640c-4.44.83-7.19,3-10.1,6.31-.46.53-1.23-.25-.77-.77,2.72-3.12,5.31-5.39,9.43-6.29a48.63,48.63,0,0,1,12.9-.95.22.22,0,0,1,0,.43Z"/><path class="cls-15" d="M941.86,589.76c-.3,4.11-2.41,8.26-4.06,12-1,2.33-2,6.59-5,7-.25,0-.54-.28-.29-.49,5.27-4.49,5.54-13,9-18.64.08-.14.35-.1.34.09Z"/><path class="cls-15" d="M924.68,595c-1,11.35-4.57,22.66-8.57,33.28-.2.51-1.05.3-.85-.22,4.12-10.86,6.46-21.82,9-33.11,0-.23.44-.19.42.05Z"/><path class="cls-15" d="M906.3,618.85c0,9.65-2.43,19.5-3.91,29-.11.73-1.25.45-1.12-.28,1.66-9.58,3.18-19.14,4.53-28.76,0-.29.5-.23.5.05Z"/><path class="cls-15" d="M905.85,570.92A110.34,110.34,0,0,0,889,596.21c-.36.76-1.5.11-1.14-.65a86.09,86.09,0,0,1,17.4-25.22c.37-.36.9.19.57.58Z"/><path class="cls-15" d="M883.7,572.58c3.26,7.36,3.87,16.64,4.31,24.59a.56.56,0,0,1-1.11,0,123.5,123.5,0,0,0-1.51-13.57c-.61-3.65-1.74-7.24-2.16-10.91a.25.25,0,0,1,.47-.13Z"/><path class="cls-15" d="M896.22,600.28c-5,8-8.27,15.88-11.84,24.58-.1.25-.44.06-.41-.16,1.22-8.71,6.27-18.06,11.89-24.7.17-.19.5.06.36.28Z"/><path class="cls-15" d="M883.44,625.31c-2.22-5.61-4-11.12-7.18-16.34-.25-.41.41-.8.66-.38,3,5,6,10.85,6.73,16.69,0,.14-.17.14-.21,0Z"/><rect class="cls-23" x="788.57" y="652.54" width="17.42" height="18.06"/><rect class="cls-23" x="829.39" y="652.54" width="17.42" height="18.06"/><polygon class="cls-24" points="831.54 466.95 829.98 577.66 827.43 659.29 848.87 659.29 853.27 577.07 868.84 493.97 868.84 466.95 831.54 466.95"/><g class="cls-8"><polygon class="cls-15" points="829.68 587.33 832.13 577.07 851.22 499.84 868.84 488.61 868.84 466.95 831.54 466.95 829.98 577.66 829.68 587.33"/></g><polygon class="cls-25" points="804.53 466.95 800.61 581.18 786.32 659.29 807.76 659.29 827.43 577.07 846.52 499.84 868.84 485.62 868.84 466.95 804.53 466.95"/><path class="cls-10" d="M826.36,662.77l-1.28,2.4v12.92h60.2l3.53-1.76-2.57-8.65a1.13,1.13,0,0,0-1.43-.69l-4.23,1.41-9.39-2.35-16.08-9.29a3.21,3.21,0,0,0-4.7.13l-6.24,7.1H830.66L829,662.37A1.69,1.69,0,0,0,826.36,662.77Z"/><polygon class="cls-15" points="885.28 675.74 825.08 675.74 825.08 678.09 885.28 678.09 888.81 676.33 888.1 674.33 885.28 675.74"/><rect class="cls-15" x="856.28" y="657.9" width="3.38" height="5.29" transform="translate(-160.58 1027.93) rotate(-57.43)"/><rect class="cls-15" x="862.56" y="661.77" width="3.38" height="5.29" transform="translate(-160.95 1035.01) rotate(-57.43)"/><path class="cls-15" d="M841.53,667.51a4.66,4.66,0,0,1-5.95,4.48l-10.5-3v-1.48Z"/><g class="cls-8"><path class="cls-15" d="M846.13,677.68l3.77-1.88-2.75-9.24a1.22,1.22,0,0,0-1.52-.75l-4.52,1.51-10.05-2.51-4.3-2.48a1.42,1.42,0,0,0-.4.44l-1.28,2.4v12.51Z"/></g><path class="cls-10" d="M785.25,662.77l-1.28,2.4v12.92h60.2l3.52-1.76-2.56-8.65a1.13,1.13,0,0,0-1.43-.69l-4.23,1.41-9.39-2.35L814,656.76a3.2,3.2,0,0,0-4.69.13l-6.24,7.1H789.55l-1.62-1.62A1.69,1.69,0,0,0,785.25,662.77Z"/><polygon class="cls-15" points="844.17 675.74 783.97 675.74 783.97 678.09 844.17 678.09 847.7 676.33 846.99 674.33 844.17 675.74"/><rect class="cls-15" x="815.17" y="657.9" width="3.38" height="5.29" transform="translate(-179.56 993.29) rotate(-57.43)"/><rect class="cls-15" x="821.45" y="661.77" width="3.38" height="5.29" transform="translate(-179.93 1000.36) rotate(-57.43)"/><path class="cls-15" d="M800.42,667.51a4.66,4.66,0,0,1-5.95,4.48L784,669v-1.48Z"/><g class="cls-8"><path class="cls-15" d="M829,474.33l-3,7.27a10.27,10.27,0,0,1-9.51,6.39H803.85v1.18h15a10.24,10.24,0,0,0,9.5-6.4l4.33-10.63Z"/></g><path class="cls-26" d="M885.58,352.12h17l-20.75-33.66-11.48-5.77a9.39,9.39,0,0,1-5.16-8.39v-20a.81.81,0,0,1,.81-.82h0a9.27,9.27,0,0,1,7.26,3.49L884.5,301l3.62,9.08,36.34,42.45a3.88,3.88,0,0,1-.61,5.62h0a40,40,0,0,1-14.1,6.82l-26,6.69Z"/><rect class="cls-26" x="816.74" y="317.29" width="27.72" height="42.78"/><path class="cls-15" d="M848.38,286.62c-1.46-2-3.84-1.62-5.74-2.75-2.28-1.36-2.62-2.46-5.44-2.95a18.76,18.76,0,0,0-7.61-.1c-3.71.88-7,3.57-10.78,3.64-1.22,0-2.45-.23-3.67-.1a3.22,3.22,0,0,0-2.85,2c-.33,1.14.2,2.66-.75,3.37a3.31,3.31,0,0,1-1.57.38c-3,.35-5.93,4.74-5.44,7.68a8.84,8.84,0,0,0,.77,2.18c1.67,3.79,3.58,7.8,4.35,11.89.7,3.71,2.62,7.25,2.8,11s1.49,7.08,3.35,10.54c.18.35.59.74.89.49a.66.66,0,0,0,.19-.37,34.9,34.9,0,0,0,.47-4.47,7.36,7.36,0,0,1,1.53-4.15,14.7,14.7,0,0,0,1.07-1.16c1-1.38.57-3.39,1.18-4.94.81-2.05,2.1-3.9,2.87-6a4.63,4.63,0,0,1,1-1.8,4.31,4.31,0,0,1,1.44-.8l6.75-2.64a22.44,22.44,0,0,1,4.37-1.39,9.72,9.72,0,0,0,2.47-.54c1.84-.84,2.55-3.05,3-5s.86-4.18,2.5-5.36c.77-.56,1.8-.88,2.22-1.74s.06-1.9.4-2.78c.18-.48.56-.87.76-1.34A2.85,2.85,0,0,0,848.38,286.62Z"/><g class="cls-8"><path class="cls-15" d="M816.74,323.5a6.42,6.42,0,0,0,2.89.91l4.28.27,1,1.56a12.85,12.85,0,0,0,8.11,5.55l11.43-2.32V317.29H816.74Z"/></g><path class="cls-26" d="M852.54,305.69l1.59,3.76a9.33,9.33,0,0,1,.68,4.49l-1,9.88a6.72,6.72,0,0,1-8.06,5.93L833,327.09a12.85,12.85,0,0,1-8.11-5.55l-1-1.56-4.28-.26a6.48,6.48,0,0,1-4.68-2.46h0a5.65,5.65,0,0,1-1.22-3.51v-1a4.15,4.15,0,0,1,1-2.71h0a3.47,3.47,0,0,1,3.35-1.13l1.84.39v-8.68a10.63,10.63,0,0,1,8.12-10.32l10.68-2.58,9.85,1.81Z"/><path class="cls-27" d="M816.74,308.86a.46.46,0,0,1-.66-.41v-6.09l-2.35,1.15v6.11a.46.46,0,0,0,.66.42Z"/><g class="cls-8"><polygon class="cls-15" points="889.1 352.12 885.58 352.12 883.72 371.66 887.34 370.74 889.1 352.12"/></g><polygon class="cls-10" points="844.46 343.32 867.76 348.02 885.97 348.02 883.42 374.84 867.76 383.85 844.46 348.02 844.46 343.32"/><polygon class="cls-10" points="816.74 337.06 798.26 360.06 801.79 473.12 870.5 473.12 867.76 383.85 844.46 342.93 835.54 360.06 816.74 337.06"/><path class="cls-15" d="M820,300.48c1.55-2,3.86-2.45,5.5-4.23.49-.53.93-1.88,1.46-2.24s2.44,0,3.12,0a7.4,7.4,0,0,0,4.35-1.68c2.38-1.94,2.21-2.6,5.54-2.67,4-.09,4-6.24,0-6.15-2.61,0-4.76-.2-6.91,1.45-.78.59-1.42,1.81-2.21,2.3-1.6,1-3.41.27-5.11.67-3,.71-3.24,2.82-5.51,4.57s-3.8,2.65-5.54,4.91c-2.42,3.13,2.92,6.2,5.31,3.1Z"/><path class="cls-27" d="M871.66,306.45l-18,1.64-1.77-1.57-6.65.75s-8.13,2.36-16.39-4.17l-1.82-6,21-10.78Z"/><path class="cls-27" d="M868.13,302.92l-25.82-7.18a1.86,1.86,0,0,1-1.37-1.8V283.33a1.87,1.87,0,0,1,2.37-1.8l25.82,7.19a1.86,1.86,0,0,1,1.37,1.79v10.62A1.86,1.86,0,0,1,868.13,302.92Z"/><path class="cls-15" d="M842.7,296.34l-33,16.12A.46.46,0,0,1,809,312v-6.11l33.67-16.44Z"/><path class="cls-27" d="M812,311.28a.46.46,0,0,1-.66-.41v-6.09L809,305.93V312a.46.46,0,0,0,.66.42Z"/><path class="cls-27" d="M816.74,308.86a.46.46,0,0,1-.66-.41v-6.09l-2.35,1.15v6.11a.46.46,0,0,0,.66.42Z"/><path class="cls-27" d="M821.44,306.7a.46.46,0,0,1-.66-.41V300.2l-2.35,1.15v6.11a.46.46,0,0,0,.66.42Z"/><path class="cls-27" d="M826.14,304.47a.46.46,0,0,1-.67-.41V298l-2.34,1.15v6.11a.46.46,0,0,0,.66.42Z"/><path class="cls-27" d="M830.84,302a.47.47,0,0,1-.67-.42v-6.08l-2.35,1.14v6.12a.46.46,0,0,0,.67.41Z"/><path class="cls-27" d="M835.54,299.86a.46.46,0,0,1-.67-.42v-6.08l-2.35,1.15v6.11a.46.46,0,0,0,.67.41Z"/><path class="cls-27" d="M840.23,297.5a.46.46,0,0,1-.66-.42V291l-2.35,1.14v6.12a.46.46,0,0,0,.67.41Z"/><path class="cls-15" d="M871.66,306.45l-25.83-7.19a1.86,1.86,0,0,1-1.37-1.79V283.33a1.87,1.87,0,0,1,2.37-1.8l25.83,7.19a1.86,1.86,0,0,1,1.37,1.79v14.14A1.87,1.87,0,0,1,871.66,306.45Z"/><ellipse class="cls-27" cx="860.62" cy="293.99" rx="1.37" ry="2.84"/><g class="cls-14"><path class="cls-24" d="M807.41,444.55c-.06,2.89-2.92,8-2.56,11.26a39.41,39.41,0,0,0,1.09,5.82c.88,3.64,6.5,2.1,5.62-1.55-1.31-5.41,0-12.91-3.71-17.48.17-.77.35-1.53.52-2.3a2.88,2.88,0,0,0-.75-2.84c-1.78-1.62-9.68-11.62-5.66-15.42a2.93,2.93,0,0,0,.45-3.53,27.4,27.4,0,0,1-2.18-3.38l5.11-2.34a2.92,2.92,0,0,0,1-4,21.08,21.08,0,0,1-4.19-12.58c.07-2,1.24-3.32,1.26-5.31,0-3.3-2-6-1.78-9.26a2.53,2.53,0,0,0-2.82-2.79l1.89,60.75a11.23,11.23,0,0,1,.85,3.78,2.6,2.6,0,0,0,0,1.33l.13.46C802.63,448.45,807,447.6,807.41,444.55Z"/></g><path class="cls-26" d="M807.48,488h-1.8l-2.94-7.64v-22.9l-20.87-30.8a8.18,8.18,0,0,1-1.42-4.62V393.9l17.79,4.75-1.58,26.9,16.21,29.8,8.37,10.43,3.38,16.66h0a4.07,4.07,0,0,1-3.82-2.94l-.88-3L819,488Z"/><g class="cls-8"><polygon class="cls-15" points="780.45 398.44 797.98 403.13 798.24 398.65 780.45 393.89 780.45 398.44"/></g><path class="cls-10" d="M816.74,337.06,792,349.33a23.44,23.44,0,0,0-13,19.25L777.12,394l22.71,6.07,4.89-23.1,12-29Z"/><path class="cls-13" d="M1811.93,632.28l-.52.26c-5.39,2.58-8.26,2.14-13.51-.28a55.33,55.33,0,0,1-13.55-8.43c-5.08-4.49-9-10.55-9.84-17.28a6.16,6.16,0,0,1,.73-4.39c1.23-1.68,3.75-1.93,5.7-1.18a17.22,17.22,0,0,1,5,3.67,5.78,5.78,0,0,0,2.22,1.42,2.09,2.09,0,0,0,2.35-.78c.7-1.24-.5-2.65-1.59-3.56-2.52-2.1-4.89-3.32-7.53-5.18a24.88,24.88,0,0,1-8.22-8.82c-1.82-3.63-2.23-8.13-.33-11.72a7,7,0,0,1,2.41-2.75c1.85-1.17,4.23-1.11,6.37-.65a64.35,64.35,0,0,0,6.39,1.5c5.15.53,7.17-3.09,7.07-7.83-.07-3.18-1.1-6.27-1.28-9.44-.32-5.59,2.44-11.54,7.5-13.93s12.12-.1,13.93,5.2c2,5.75-2.52,12.21.45,17.71a16.89,16.89,0,0,0,4.87,5.32c2.83,1.75,6.89-.31,10.18-.16a3,3,0,0,1,2,.66,2.79,2.79,0,0,1,.63,1.47,12.17,12.17,0,0,1-3.68,11.1c-3.4,3.09-9.31,4.68-10.75,9.53-.9,3-.51,10.52,4.28,9.76,1.8-.29,3-2.07,4.73-2.65,2.13-.72,4.58.69,5.53,2.73a8.41,8.41,0,0,1-.15,6.58c-1.32,3.3-3.85,6-6.32,8.52C1822,624,1818.64,629,1811.93,632.28Z"/><rect class="cls-15" x="1803.65" y="562.25" width="2.29" height="117.03"/><polygon class="cls-15" points="1804.8 597.73 1790.41 583.35 1792.03 581.72 1804.8 594.49 1817.57 581.72 1819.19 583.35 1804.8 597.73"/><polygon class="cls-15" points="1804.8 625 1790.41 610.61 1792.03 608.99 1804.8 621.76 1817.57 608.99 1819.19 610.61 1804.8 625"/><g class="cls-8"><path class="cls-15" d="M1832.79,571.64a3,3,0,0,0-2-.66c-3.29-.15-7.35,1.91-10.18.16a16.89,16.89,0,0,1-4.87-5.32c-2.15-4-.39-8.48,0-12.84a5.82,5.82,0,0,0-4.57,2.2c-1.25,1.72-1.27,4-1,6.14,1.15,9.4,6.66,17.88,13.76,24.15.6.53,1.21,1,1.83,1.54a26.68,26.68,0,0,0,4-2.8,12.17,12.17,0,0,0,3.68-11.1A2.79,2.79,0,0,0,1832.79,571.64Z"/></g><path class="cls-28" d="M1867.89,597.3l-.73.35c-7.54,3.61-11.55,3-18.9-.39a76.68,76.68,0,0,1-18.94-11.79c-7.1-6.27-12.61-14.75-13.76-24.15-.26-2.11-.24-4.42,1-6.14,1.72-2.36,5.25-2.71,8-1.66s4.87,3.18,7,5.13a8,8,0,0,0,3.1,2,2.91,2.91,0,0,0,3.28-1.09c1-1.73-.7-3.71-2.22-5-3.52-2.94-6.83-4.64-10.53-7.24-4.64-3.27-8.94-7.26-11.49-12.34s-3.12-11.37-.47-16.39a10.13,10.13,0,0,1,3.38-3.85c2.59-1.63,5.91-1.55,8.91-.9s5.88,1.78,8.93,2.09c7.2.75,10-4.31,9.89-10.94-.1-4.45-1.53-8.76-1.79-13.2-.45-7.81,3.41-16.14,10.48-19.48s17-.14,19.49,7.26c2.75,8.05-3.53,17.09.63,24.78a23.42,23.42,0,0,0,6.81,7.43c4,2.45,9.64-.42,14.24-.21a4.09,4.09,0,0,1,2.84.92,3.85,3.85,0,0,1,.89,2,17,17,0,0,1-5.15,15.52c-4.76,4.33-13,6.54-15,13.32-1.26,4.22-.71,14.72,6,13.66,2.51-.4,4.19-2.89,6.61-3.71,3-1,6.4,1,7.74,3.83s.94,6.26-.23,9.18c-1.83,4.63-5.37,8.34-8.82,11.92C1881.94,585.64,1877.27,592.68,1867.89,597.3Z"/><rect class="cls-15" x="1856.77" y="499.37" width="2.29" height="179.92"/><polygon class="cls-15" points="1857.91 548.34 1838.12 528.54 1839.74 526.92 1857.91 545.09 1876.09 526.92 1877.71 528.54 1857.91 548.34"/><polygon class="cls-15" points="1857.91 586.47 1838.12 566.67 1839.74 565.05 1857.91 583.23 1876.09 565.05 1877.71 566.67 1857.91 586.47"/><path class="cls-7" d="M1306.57,58l.06,0h0Z"/><path class="cls-7" d="M1312.17,59.82a1.68,1.68,0,0,0-.29-2,3.23,3.23,0,0,0-2.43-.6,4.63,4.63,0,0,0-2.82.75l2.53,2a3.43,3.43,0,0,0,1.17.67A1.69,1.69,0,0,0,1312.17,59.82Z"/><path class="cls-7" d="M1302.2,72.64a3.78,3.78,0,0,0-.69-1.91,1.32,1.32,0,0,0-1.82-.27l0-.25a5.64,5.64,0,0,0-.63,1.19,4.3,4.3,0,0,0-.27,3.25,2,2,0,0,0,2.72,1.07C1302.46,75.09,1302.38,73.74,1302.2,72.64Z"/><path class="cls-7" d="M568.23,440.34H852a12.56,12.56,0,0,1,12.56,12.56V678a0,0,0,0,1,0,0H555.67a0,0,0,0,1,0,0V452.9A12.56,12.56,0,0,1,568.23,440.34Z"/><path class="cls-11" d="M864.59,469V446.11a6.84,6.84,0,0,0-6.84-6.84H562.34a6.84,6.84,0,0,0-6.84,6.84V469Z"/><path class="cls-7" d="M578.67,455.19a3.95,3.95,0,1,1-3.95-3.95A3.95,3.95,0,0,1,578.67,455.19Z"/><path class="cls-7" d="M591.84,455.19a3.95,3.95,0,1,1-4-3.95A3.95,3.95,0,0,1,591.84,455.19Z"/><path class="cls-7" d="M605,455.19a4,4,0,1,1-4-3.95A3.95,3.95,0,0,1,605,455.19Z"/><g class="cls-14"><path class="cls-15" d="M857.75,440.34H849a6.84,6.84,0,0,1,6.84,6.84V678h8.74V447.18A6.84,6.84,0,0,0,857.75,440.34Z"/></g><path class="cls-6" d="M586.38,498.73h-4.89a5.49,5.49,0,0,1-5.49-5.49h0a5.49,5.49,0,0,1,5.49-5.5h4.89a5.5,5.5,0,0,1,5.5,5.5h0A5.49,5.49,0,0,1,586.38,498.73Z"/><path class="cls-6" d="M586.38,526.61h-4.89a5.49,5.49,0,0,1-5.49-5.49h0a5.49,5.49,0,0,1,5.49-5.5h4.89a5.5,5.5,0,0,1,5.5,5.5h0A5.49,5.49,0,0,1,586.38,526.61Z"/><path class="cls-6" d="M586.38,554.49h-4.89A5.49,5.49,0,0,1,576,549h0a5.49,5.49,0,0,1,5.49-5.5h4.89a5.5,5.5,0,0,1,5.5,5.5h0A5.49,5.49,0,0,1,586.38,554.49Z"/><path class="cls-6" d="M586.38,582.37h-4.89a5.49,5.49,0,0,1-5.49-5.49h0a5.49,5.49,0,0,1,5.49-5.5h4.89a5.5,5.5,0,0,1,5.5,5.5h0A5.49,5.49,0,0,1,586.38,582.37Z"/><path class="cls-6" d="M586.38,610.25h-4.89a5.49,5.49,0,0,1-5.49-5.5h0a5.49,5.49,0,0,1,5.49-5.49h4.89a5.49,5.49,0,0,1,5.5,5.49h0A5.5,5.5,0,0,1,586.38,610.25Z"/><path class="cls-6" d="M586.38,638.13h-4.89a5.49,5.49,0,0,1-5.49-5.5h0a5.49,5.49,0,0,1,5.49-5.49h4.89a5.49,5.49,0,0,1,5.5,5.49h0A5.5,5.5,0,0,1,586.38,638.13Z"/><path class="cls-6" d="M586.38,666h-4.89a5.49,5.49,0,0,1-5.49-5.5h0a5.49,5.49,0,0,1,5.49-5.49h4.89a5.49,5.49,0,0,1,5.5,5.49h0A5.5,5.5,0,0,1,586.38,666Z"/><path class="cls-6" d="M827.64,498.73h-4.89a5.49,5.49,0,0,1-5.49-5.49h0a5.49,5.49,0,0,1,5.49-5.5h4.89a5.5,5.5,0,0,1,5.5,5.5h0A5.49,5.49,0,0,1,827.64,498.73Z"/><path class="cls-29" d="M827.64,526.61h-4.89a5.49,5.49,0,0,1-5.49-5.49h0a5.49,5.49,0,0,1,5.49-5.5h4.89a5.5,5.5,0,0,1,5.5,5.5h0A5.49,5.49,0,0,1,827.64,526.61Z"/><path class="cls-28" d="M827.64,554.49h-4.89a5.49,5.49,0,0,1-5.49-5.49h0a5.49,5.49,0,0,1,5.49-5.5h4.89a5.5,5.5,0,0,1,5.5,5.5h0A5.49,5.49,0,0,1,827.64,554.49Z"/><path class="cls-29" d="M827.64,582.37h-4.89a5.49,5.49,0,0,1-5.49-5.49h0a5.49,5.49,0,0,1,5.49-5.5h4.89a5.5,5.5,0,0,1,5.5,5.5h0A5.49,5.49,0,0,1,827.64,582.37Z"/><path class="cls-28" d="M827.64,610.25h-4.89a5.49,5.49,0,0,1-5.49-5.5h0a5.49,5.49,0,0,1,5.49-5.49h4.89a5.49,5.49,0,0,1,5.5,5.49h0A5.5,5.5,0,0,1,827.64,610.25Z"/><path class="cls-29" d="M827.64,638.13h-4.89a5.49,5.49,0,0,1-5.49-5.5h0a5.49,5.49,0,0,1,5.49-5.49h4.89a5.49,5.49,0,0,1,5.5,5.49h0A5.5,5.5,0,0,1,827.64,638.13Z"/><path class="cls-6" d="M827.64,666h-4.89a5.49,5.49,0,0,1-5.49-5.5h0a5.49,5.49,0,0,1,5.49-5.49h4.89a5.49,5.49,0,0,1,5.5,5.49h0A5.5,5.5,0,0,1,827.64,666Z"/><path class="cls-6" d="M678.3,498.73H607.23a5.49,5.49,0,0,1-5.5-5.49h0a5.5,5.5,0,0,1,5.5-5.5H678.3a5.5,5.5,0,0,1,5.5,5.5h0A5.5,5.5,0,0,1,678.3,498.73Z"/><path class="cls-10" d="M695.72,498.73H710.2a5.49,5.49,0,0,0,5.49-5.49h0a5.49,5.49,0,0,0-5.49-5.5H695.72a5.49,5.49,0,0,0-5.49,5.5h0A5.49,5.49,0,0,0,695.72,498.73Z"/><path class="cls-10" d="M639.43,526.61h-32.2a5.49,5.49,0,0,1-5.5-5.49h0a5.5,5.5,0,0,1,5.5-5.5h32.2a5.5,5.5,0,0,1,5.5,5.5h0A5.49,5.49,0,0,1,639.43,526.61Z"/><path class="cls-29" d="M667.93,526.61h96.24a5.5,5.5,0,0,0,5.5-5.49h0a5.5,5.5,0,0,0-5.5-5.5H667.93a5.49,5.49,0,0,0-5.49,5.5h0A5.49,5.49,0,0,0,667.93,526.61Z"/><path class="cls-6" d="M742.64,554.49H607.23a5.49,5.49,0,0,1-5.5-5.49h0a5.5,5.5,0,0,1,5.5-5.5H742.64a5.49,5.49,0,0,1,5.49,5.5h0A5.49,5.49,0,0,1,742.64,554.49Z"/><path class="cls-6" d="M772.39,582.37H607.23a5.49,5.49,0,0,1-5.5-5.49h0a5.5,5.5,0,0,1,5.5-5.5H772.39a5.5,5.5,0,0,1,5.5,5.5h0A5.49,5.49,0,0,1,772.39,582.37Z"/><path class="cls-29" d="M742.64,610.25h-50a5.5,5.5,0,0,1-5.5-5.5h0a5.49,5.49,0,0,1,5.5-5.49h50a5.49,5.49,0,0,1,5.49,5.49h0A5.49,5.49,0,0,1,742.64,610.25Z"/><path class="cls-6" d="M672.31,610.25H607.23a5.5,5.5,0,0,1-5.5-5.5h0a5.49,5.49,0,0,1,5.5-5.49h65.08a5.49,5.49,0,0,1,5.5,5.49h0A5.5,5.5,0,0,1,672.31,610.25Z"/><path class="cls-6" d="M710.2,638.13h-103a5.5,5.5,0,0,1-5.5-5.5h0a5.49,5.49,0,0,1,5.5-5.49h103a5.49,5.49,0,0,1,5.49,5.49h0A5.49,5.49,0,0,1,710.2,638.13Z"/><path class="cls-10" d="M728.7,638.13h33a5.49,5.49,0,0,0,5.49-5.5h0a5.49,5.49,0,0,0-5.49-5.49h-33a5.49,5.49,0,0,0-5.5,5.49h0A5.5,5.5,0,0,0,728.7,638.13Z"/><path class="cls-6" d="M742.64,666H607.23a5.5,5.5,0,0,1-5.5-5.5h0a5.49,5.49,0,0,1,5.5-5.49H742.64a5.49,5.49,0,0,1,5.49,5.49h0A5.49,5.49,0,0,1,742.64,666Z"/><circle class="cls-18" cx="729.07" cy="418.69" r="21.39" transform="translate(224.29 1091.03) rotate(-82.97)"/><polygon class="cls-7" points="727.07 425.37 720.15 418.44 722.59 416 727.07 420.48 735.54 412.01 737.99 414.45 727.07 425.37"/><g class="cls-8"><path class="cls-9" d="M707.68,418.69a21.34,21.34,0,0,0,8.09,16.73,21.78,21.78,0,0,0,0-33.49A21.33,21.33,0,0,0,707.68,418.69Z"/></g><path class="cls-30" d="M717.45,428.16A21.83,21.83,0,1,1,707.3,399,21.85,21.85,0,0,1,717.45,428.16Z"/><path class="cls-7" d="M696.69,415.89,699,411.1l3.89,1.89-2.31,4.78,4.79,2.32-1.73,3.57-4.79-2.32-2.33,4.82-3.89-1.88,2.33-4.82-4.73-2.29,1.73-3.56Z"/><g class="cls-8"><path class="cls-9" d="M687.06,399.64a21.83,21.83,0,0,0-.68,37.62,22.22,22.22,0,0,0,.68-37.62Z"/></g><path class="cls-15" d="M694.11,418.25A22.25,22.25,0,1,1,671.87,396,22.24,22.24,0,0,1,694.11,418.25Z"/><path class="cls-7" d="M664.79,422.83V423l-2,2-5.89-5.84v-.38l5.89-5.84,2,2v.16l-4,3.89Z"/><path class="cls-7" d="M677.8,407.38l-8.55,21.73H666l8.53-21.73Z"/><path class="cls-7" d="M683,419l-4-3.89v-.16l2-2,5.89,5.84v.38L681,425l-2-2v-.15Z"/><path class="cls-31" d="M1330,660.46s-3.91-16.32,7.85-23.31c14.88-8.85,25.73,3.87,25.73,3.87l3.16-3.64s-15-14.1-20.79-12.18-21.51,14.59-21.51,14.59l-.78,20.05Z"/><rect class="cls-31" x="1272.15" y="525.03" width="18.15" height="43.34" transform="translate(1164.18 -841.36) rotate(62.07)"/><rect class="cls-32" x="1275.27" y="527.51" width="14.53" height="43.34" transform="translate(1167.07 -841.2) rotate(62.07)"/><rect class="cls-31" x="1285.5" y="541.24" width="10.73" height="39.84" transform="translate(1182.08 -842.2) rotate(62.07)"/><rect class="cls-33" x="1287.93" y="543.71" width="8.5" height="39.84" transform="translate(1184.97 -842.04) rotate(62.07)"/><rect class="cls-34" x="1240.18" y="560.44" width="133.25" height="22.46" transform="translate(1199.85 -850.69) rotate(62.07)"/><path class="cls-35" d="M1372.08,636.51A29.05,29.05,0,1,0,1360,675.78,29,29,0,0,0,1372.08,636.51Zm-42.82,22.7a19.42,19.42,0,1,1,26.25,8.06A19.4,19.4,0,0,1,1329.26,659.21Z"/><rect class="cls-31" x="1258.36" y="502.12" width="18.15" height="50.57" transform="translate(1139.81 -839.44) rotate(62.07)"/><rect class="cls-36" x="1261.36" y="503.98" width="14" height="50.57" transform="translate(1141.94 -839.26) rotate(62.07)"/><rect class="cls-37" x="1254.98" y="565.04" width="119.4" height="2.64" transform="translate(1199.34 -860.47) rotate(62.07)"/><path class="cls-37" d="M1353.08,631.9a19.4,19.4,0,1,0-15.54,35.47,19.4,19.4,0,0,1,15.54-35.47Z"/><path class="cls-37" d="M1372.08,636.51A28.89,28.89,0,0,0,1356.87,623a29,29,0,0,1-23.12,53.23,29,29,0,0,0,38.33-39.74Z"/><path class="cls-38" d="M1306.61,344.89c0,21.57-4.48,46.22-15.63,65-5.14,8.66-13.41,14.72-20.37,21.81-7.34,7.47-17.26,16.07-22.95,24.84-12.79,19.75-20.44,45.88-20.44,76.78H1105.36c0-1.92,0-3.84-.14-5.76-.31-6.64-.68-13.21-1.35-19.69-.39-3.57-.86-7.12-1.46-10.63a96.5,96.5,0,0,0-10-30.3c-4.94-9.05-15-17.21-22.09-25.64s-15.76-15.47-22.94-23.86C1030.77,398,1026,369.66,1026,344.89A140.31,140.31,0,0,1,1153,205.2q6.56-.63,13.27-.63A140.32,140.32,0,0,1,1306.61,344.89Z"/><path class="cls-39" d="M1133.92,505.54h-10.83V380.24c-23-7.74-31.31-20.48-34.18-27.25-4.77-11.24-2.76-23.79,5.13-32,4.54-4.7,9.41-6.83,14.46-6.34,5.82.56,11.22,4.63,16,12.08,6,9.33,9.38,21.4,9.38,34v11.3a152.38,152.38,0,0,0,35.76,3.83v10.83a165.65,165.65,0,0,1-35.76-3.49Zm-26.78-180.09c-1.54,0-3.32,1-5.31,3.1-4.94,5.12-6.08,12.86-2.95,20.22,3.6,8.49,12,15.28,24.21,19.94v-8c0-10.52-2.71-20.5-7.63-28.1-2.82-4.35-5.73-7-8-7.19Z"/><path class="cls-39" d="M1216.26,505.54h-10.82V383.22a165.72,165.72,0,0,1-35.76,3.49V375.88a152.5,152.5,0,0,0,35.76-3.83v-11.3c0-12.58,3.33-24.65,9.37-34,4.82-7.45,10.22-11.52,16-12.08,5.06-.49,9.92,1.64,14.46,6.34,7.89,8.17,9.91,20.72,5.13,32-2.87,6.77-11.16,19.51-34.18,27.25Zm16-180.09h-.32c-2.27.22-5.19,2.84-8,7.19-4.93,7.6-7.64,17.58-7.64,28.1v8c12.18-4.66,20.61-11.45,24.22-19.94,3.12-7.36,2-15.1-3-20.22C1235.54,326.49,1233.75,325.45,1232.22,325.45Z"/><path class="cls-40" d="M1162.92,222.92a146,146,0,0,1,43.35,6.51,140.44,140.44,0,0,1,20.79,8.28A114,114,0,0,1,1246.21,250l2.26,1.79,2.18,1.9c1.43,1.29,3,2.47,4.32,3.88s2.81,2.7,4.17,4.1l3.89,4.41a66,66,0,0,1,11.46,20.48c.36.91.59,1.87.86,2.81l.77,2.82.72,2.83c.24.94.37,1.91.52,2.87.3,1.92.61,3.82.84,5.73s.23,3.85.3,5.76a71,71,0,0,1-.56,11.4,43,43,0,0,1-1,5.6c-.42,1.86-.86,3.69-1.43,5.5h-1.68c-1.44-3.55-2.35-7-3.54-10.43s-2.13-6.74-3.47-10l-1.76-4.82c-.7-1.56-1.33-3.13-2-4.68-.34-.77-.58-1.57-1-2.32l-1.09-2.25c-.72-1.49-1.3-3-2.11-4.47s-1.53-2.9-2.24-4.37c-.35-.74-.75-1.44-1.16-2.14s-.79-1.43-1.18-2.14-.75-1.44-1.13-2.16l-1.25-2.1-1.21-2.12a23.49,23.49,0,0,0-1.24-2.12,76.67,76.67,0,0,0-12.19-15.69,100.52,100.52,0,0,0-15.87-12.75,129.85,129.85,0,0,0-18.17-10.1,164.35,164.35,0,0,0-40.45-12.7Z"/><path class="cls-41" d="M1102.15,450.42c15.06,29.67,9.91,50.39,9,58.43-.2,1.71,2.49,0-7.3-1-.39-3.57-.86-7.12-1.46-10.63a96.5,96.5,0,0,0-10-30.3c-4.94-9.05-15-17.21-22.09-25.64s-15.76-15.47-22.94-23.86C1030.77,398,1026,369.66,1026,344.89A140.31,140.31,0,0,1,1153,205.2s-84.2,15.93-101.64,120.56C1040,394.07,1083.39,413.43,1102.15,450.42Z"/><polygon class="cls-42" points="1115.77 677.71 1115.77 679.19 1234.3 679.19 1236.25 677.71 1115.77 677.71"/><polygon class="cls-29" points="1236.25 677.71 1115.77 677.71 1110.34 505.52 1239.42 505.52 1236.25 677.71"/><polygon class="cls-1" points="1238.89 532.56 1111.26 532.68 1123.12 520.65 1251.49 520.65 1238.89 532.56"/><rect class="cls-1" x="1183.01" y="540.24" width="13.23" height="16.96" rx="1.27"/><g class="cls-43"><polygon class="cls-1" points="1198.29 556.65 1176.63 546.45 1177.32 545.51 1198.98 555.71 1198.29 556.65"/><polygon class="cls-44" points="1203.05 553.57 1181.37 542.79 1182.06 541.87 1203.74 552.64 1203.05 553.57"/></g><rect class="cls-1" x="1209.78" y="540.54" width="13.77" height="17.05"/><rect class="cls-1" x="1124.5" y="540.72" width="38.6" height="17.22"/><rect class="cls-1" x="1134.78" y="617.69" width="26.37" height="22.55"/><rect class="cls-45" x="1123.12" y="511.01" width="128.37" height="9.64"/><rect class="cls-42" x="1184.21" y="540" width="13.77" height="18"/><g class="cls-46"><polygon class="cls-47" points="1200.62 556.65 1178.96 546.45 1179.65 545.51 1201.31 555.71 1200.62 556.65"/><polygon class="cls-47" points="1205.38 553.57 1183.7 542.79 1184.39 541.87 1206.07 552.64 1205.38 553.57"/></g><rect class="cls-42" x="1212.11" y="540.54" width="13.77" height="17.05"/><g class="cls-48"><polygon class="cls-47" points="1227.52 556.65 1205.86 546.45 1206.54 545.51 1228.21 555.71 1227.52 556.65"/><polygon class="cls-47" points="1232.28 553.57 1210.6 542.79 1211.29 541.87 1232.96 552.64 1232.28 553.57"/></g><rect class="cls-42" x="1126.83" y="540.72" width="38.6" height="17.22"/><g class="cls-49"><polygon class="cls-47" points="1169.49 556.67 1110.37 544.45 1112.6 543.59 1171.72 555.81 1169.49 556.67"/><polygon class="cls-47" points="1185.57 554.49 1123.8 543.36 1125.83 542.46 1187.61 553.59 1185.57 554.49"/></g><polygon class="cls-1" points="1251.49 568.62 1123.12 568.62 1112.21 564.74 1238.33 564.74 1251.49 568.62"/><rect class="cls-45" x="1123.12" y="568.62" width="128.37" height="6.6"/><rect class="cls-1" x="1128.39" y="579.52" width="102" height="23.43" rx="3.86"/><rect class="cls-42" x="1129.78" y="580.4" width="101.47" height="21.54" rx="3.96"/><path class="cls-42" d="M1219.84,632.18a20.83,20.83,0,0,1-9.68,17.59V677.7H1187.8V649.77A20.85,20.85,0,0,1,1199,611.32h.52A20.85,20.85,0,0,1,1219.84,632.18Z"/><polygon class="cls-50" points="1187.8 677.71 1189.32 679.19 1212.53 679.19 1210.16 677.71 1187.8 677.71"/><rect class="cls-45" x="1189.32" y="679.19" width="23.21" height="3.01"/><path class="cls-1" d="M1199.34,611.32H1199a20.85,20.85,0,0,0-11.18,38.45V677.7l3.76-29s-9-3.64-9.61-18.18a14.26,14.26,0,0,1,5.25-11.89,18.52,18.52,0,0,1,23.92,0,14.22,14.22,0,0,1,5.24,11.89c-.62,14.54-9.61,18.18-9.61,18.18l3.76,29V649.77a20.84,20.84,0,0,0-11.17-38.45Z"/><path class="cls-45" d="M1187.06,650.11v27.6h23.84v-27.6a22.22,22.22,0,0,0-11.36-41,5.15,5.15,0,0,0-.56,0,22.22,22.22,0,0,0-11.92,41ZM1199,611.32h.52a20.84,20.84,0,0,1,10.66,38.44V677.7H1187.8V649.77A20.85,20.85,0,0,1,1199,611.32Z"/><rect class="cls-42" x="1137.11" y="617.69" width="26.37" height="20.86"/><g class="cls-51"><polygon class="cls-47" points="1165.66 637.03 1126.21 622.3 1127.7 621.26 1167.15 635.99 1165.66 637.03"/><polygon class="cls-47" points="1176.39 634.4 1135.17 620.99 1136.53 619.9 1177.75 633.31 1176.39 634.4"/></g><polygon class="cls-52" points="1123.12 511.01 1110.94 522.28 1110.94 533.02 1123.12 520.65 1123.12 511.01"/><polygon class="cls-52" points="1115.77 677.71 1104.05 670.47 1098.16 518.09 1110.34 505.52 1115.77 677.71"/><polygon class="cls-52" points="1112.21 564.74 1112.48 573.27 1123.12 575.23 1123.12 568.62 1112.21 564.74"/><polygon class="cls-52" points="1187.8 677.71 1187.8 680.7 1189.32 682.21 1189.32 679.19 1187.8 677.71"/><polyline class="cls-53" points="1161.15 640.23 1163.48 638.54 1161.15 638.54 1161.15 640.23"/><polyline class="cls-42" points="1104.05 670.47 1104.05 671.87 1115.77 679.19 1115.77 677.71 1104.05 670.47"/><path class="cls-29" d="M679.67,185c-.51-.59.8-42.22.8-42.22l39.95-34.37-3.15,48.39Z"/><path class="cls-54" d="M691.87,169.12c8.37-6.45,29.85-21.83,42.81-22.86-3,12.66-21.37,31.6-29,38.91a50.29,50.29,0,0,1-8.44,6.55l-24,14.66h0c-3.9.21-8-4.56-7.22-8.39h0l18.08-21.51A49.46,49.46,0,0,1,691.87,169.12Z"/><path class="cls-55" d="M675.38,199.22a36.44,36.44,0,0,0,3.74,3.59l-5.77,3.53h0c-3.9.21-8-4.56-7.21-8.39h0l4.51-5.37A25.85,25.85,0,0,0,675.38,199.22Z"/><polygon class="cls-56" points="718.85 132.61 680.01 158.62 679.79 167.43 718.66 135.53 718.85 132.61"/><path class="cls-42" d="M610.46,104.55c.51.59,41.87,5.51,41.87,5.51L692.28,75.7,644,71.58Z"/><path class="cls-57" d="M628,94.86c7.63-7.31,26-26.25,29-38.92-13,1-34.44,16.41-42.81,22.86a49.94,49.94,0,0,0-7.73,7.36l-18.08,21.52h0c-.8,3.83,3.31,8.6,7.21,8.39h0l24-14.67A49.76,49.76,0,0,0,628,94.86Z"/><path class="cls-55" d="M595.77,106.67a36.58,36.58,0,0,1-3-4.24l-4.36,5.18h0c-.79,3.83,3.32,8.6,7.22,8.39h0l6-3.66A25.8,25.8,0,0,1,595.77,106.67Z"/><polygon class="cls-56" points="668.12 73.64 636.6 108.15 627.85 107.06 665.2 73.39 668.12 73.64"/><rect class="cls-58" x="619.63" y="143.79" width="34.63" height="8.4" transform="translate(940.15 727.36) rotate(-130.7)"/><polygon class="cls-55" points="614.5 140.2 641.6 171.7 646.33 164.32 622.51 136.62 614.5 140.2"/><path class="cls-59" d="M696.71,44.09a169.7,169.7,0,0,1,64.92-25.8c8.78-1.54,20.82-2,28.8-.25.52,8.15-1.72,20-4.55,28.44a169.52,169.52,0,0,1-35.21,60.33c-16.81,18.38-38.5,30.16-58.47,44.59l-29.44,21.27-22.15-25.74-22.14-25.74q12.71-13,25.43-25.94C661.15,77.65,676,58,696.71,44.09Z"/><rect class="cls-29" x="602.76" y="154.89" width="48.87" height="2.97" rx="0.87" transform="translate(917.68 733.83) rotate(-130.7)"/><polygon class="cls-29" points="650.87 158.85 628.29 132.6 624.04 136.25 649.68 159.88 650.87 158.85"/><polygon class="cls-55" points="662.92 172.86 618.63 121.38 631.19 108.51 676.76 162.35 662.92 172.86"/><path class="cls-60" d="M595.57,156.47a22.58,22.58,0,0,1,5.39-2.56c6-1.88,12.6-1.3,17.28,2.43l.27.19a24.87,24.87,0,0,1,8.67,11.72,14.42,14.42,0,0,1,.81,3,23.2,23.2,0,0,1,.45,5.49,16.12,16.12,0,0,1-1.28,6,19.88,19.88,0,0,1-3.59,5.18c-5,5.43-11.25,9.19-17.52,12.08-3.09,1.43-6.2,2.66-9.27,3.83-1.54.59-3.09,1.11-4.58,1.73-.57.24-3.47,1.2-3.58,1.62a71.38,71.38,0,0,0,1.41-8.65,121.6,121.6,0,0,1-19.08,7.2s4.94-9.8,9.54-17a79.93,79.93,0,0,0-13.94,4c.43-.16,1.08-1.64,1.33-2,3.76-5.57,7.75-11.28,12.06-17.1S588.82,160.79,595.57,156.47Z"/><path class="cls-61" d="M601.7,162.48a12.58,12.58,0,0,1,3.06-1.44,10.67,10.67,0,0,1,9.81,1.41l.15.1a14.19,14.19,0,0,1,4.92,6.66,8,8,0,0,1,.46,1.68,13.43,13.43,0,0,1,.27,3.12,8.94,8.94,0,0,1-.72,3.43,11.06,11.06,0,0,1-2,2.95,30.75,30.75,0,0,1-10,6.92c-1.77.82-3.55,1.53-5.31,2.21-.88.34-1.77.64-2.62,1-.32.14-2,.7-2,.94a41.13,41.13,0,0,0,.81-5,69.82,69.82,0,0,1-11,4.17s2.86-5.65,5.52-9.77a41.35,41.35,0,0,0-6.75,1.85.45.45,0,0,1-.51-.69h0c2.18-3.19,4.48-6.47,7-9.8S597.84,164.92,601.7,162.48Z"/><path class="cls-29" d="M679.12,202.81s-7.55-6.59-8.47-10.23l2.28-2.76s4.6,7.17,9.46,11Z"/><circle class="cls-58" cx="721.98" cy="75.14" r="24.86" transform="translate(607.03 791.86) rotate(-86.83)"/><path class="cls-29" d="M747,75.07a24.86,24.86,0,0,0-49.62,2.6Z"/><path class="cls-62" d="M704.68,55a26.53,26.53,0,1,1-2.81,37.42A26.55,26.55,0,0,1,704.68,55Zm2.19,2.54A23.18,23.18,0,1,0,739.55,60,23.2,23.2,0,0,0,706.87,57.57Z"/><path class="cls-29" d="M600.4,113.39s-7.55-6.6-8.47-10.24l2.27-2.76s4.61,7.17,9.46,11Z"/><path class="cls-7" d="M1433.9,309h292.75a7.1,7.1,0,0,1,7.1,7.1V678.68a0,0,0,0,1,0,0h-307a0,0,0,0,1,0,0V316.1A7.1,7.1,0,0,1,1433.9,309Z"/><path class="cls-11" d="M1733.75,355.2V319.64A10.63,10.63,0,0,0,1723.12,309H1437.44a10.64,10.64,0,0,0-10.64,10.64V355.2Z"/><rect class="cls-63" x="1456.65" y="391.43" width="121.73" height="121.59"/><rect class="cls-29" x="1456.65" y="537.83" width="236.76" height="132.49"/><path class="cls-7" d="M1462.85,332.1a6.15,6.15,0,1,1-6.15-6.15A6.15,6.15,0,0,1,1462.85,332.1Z"/><path class="cls-7" d="M1483.33,332.1a6.15,6.15,0,1,1-6.14-6.15A6.14,6.14,0,0,1,1483.33,332.1Z"/><path class="cls-7" d="M1503.82,332.1a6.15,6.15,0,1,1-6.15-6.15A6.15,6.15,0,0,1,1503.82,332.1Z"/><g class="cls-14"><path class="cls-20" d="M1723.12,309h-13.59a10.63,10.63,0,0,1,10.63,10.64v359h13.59v-359A10.63,10.63,0,0,0,1723.12,309Z"/></g><path class="cls-21" d="M1703.81,407.3H1595.87a5.72,5.72,0,0,1-5.72-5.72h0a5.72,5.72,0,0,1,5.72-5.72h107.94a5.72,5.72,0,0,1,5.72,5.72h0A5.72,5.72,0,0,1,1703.81,407.3Z"/><path class="cls-21" d="M1703.81,430.45H1595.87a5.72,5.72,0,0,1-5.72-5.72h0a5.72,5.72,0,0,1,5.72-5.72h107.94a5.72,5.72,0,0,1,5.72,5.72h0A5.72,5.72,0,0,1,1703.81,430.45Z"/><path class="cls-21" d="M1703.81,453.6H1595.87a5.72,5.72,0,0,1-5.72-5.72h0a5.72,5.72,0,0,1,5.72-5.71h107.94a5.72,5.72,0,0,1,5.72,5.71h0A5.72,5.72,0,0,1,1703.81,453.6Z"/><path class="cls-21" d="M1703.81,476.75H1595.87a5.72,5.72,0,0,1-5.72-5.71h0a5.72,5.72,0,0,1,5.72-5.72h107.94a5.72,5.72,0,0,1,5.72,5.72h0A5.72,5.72,0,0,1,1703.81,476.75Z"/><path class="cls-21" d="M1657,499.91h-61.1a5.72,5.72,0,0,1-5.72-5.72h0a5.72,5.72,0,0,1,5.72-5.72H1657a5.72,5.72,0,0,1,5.72,5.72h0A5.72,5.72,0,0,1,1657,499.91Z"/><polygon class="cls-7" points="1551.01 470.45 1567.52 486.97 1561.76 492.73 1545.25 476.22 1542.03 488.37 1526.73 451.93 1563.17 467.23 1551.01 470.45"/><path class="cls-7" d="M1526.73,437.08a3,3,0,0,1-3-3v-5.73a3,3,0,0,1,5.91,0v5.73A3,3,0,0,1,1526.73,437.08Z"/><path class="cls-7" d="M1535.65,439.47a2.89,2.89,0,0,1-1.47-.39,3,3,0,0,1-1.08-4l6.66-11.51a3,3,0,0,1,5.11,3L1538.21,438A3,3,0,0,1,1535.65,439.47Z"/><path class="cls-7" d="M1542.18,446a3,3,0,0,1-1.47-5.52l5.76-3.31a3,3,0,1,1,3,5.13l-5.77,3.31A2.89,2.89,0,0,1,1542.18,446Z"/><path class="cls-7" d="M1557.85,455h0l-13.3,0a3,3,0,0,1,0-5.92h0l13.3.05a3,3,0,0,1,0,5.91Z"/><path class="cls-7" d="M1526.53,479.35h0a3,3,0,0,1-2.92-3l.09-6.65a3,3,0,0,1,2.95-2.92h0a3,3,0,0,1,2.92,3l-.09,6.65A3,3,0,0,1,1526.53,479.35Z"/><path class="cls-7" d="M1511,481.72a3,3,0,0,1-1.5-.41,3,3,0,0,1-1-4.05l6.74-11.46a3,3,0,1,1,5.09,3l-6.74,11.46A2.91,2.91,0,0,1,1511,481.72Z"/><path class="cls-7" d="M1505.67,466.94a3,3,0,0,1-1.5-5.51l5.56-3.27a3,3,0,0,1,3,5.09l-5.55,3.28A3.06,3.06,0,0,1,1505.67,466.94Z"/><path class="cls-7" d="M1508.92,454.71h0l-13.3-.12a3,3,0,0,1,0-5.91h0l13.3.12a3,3,0,0,1,0,5.91Z"/><path class="cls-7" d="M1511.4,445.82a2.9,2.9,0,0,1-1.51-.42l-5.25-3.11a3,3,0,0,1,3-5.09l5.26,3.12a3,3,0,0,1-1.51,5.5Z"/><path class="cls-7" d="M1518,439.36a2.94,2.94,0,0,1-2.58-1.51l-6.51-11.6a3,3,0,0,1,5.15-2.9l6.51,11.6a3,3,0,0,1-2.57,4.41Z"/><path class="cls-64" d="M1693,626.89v-3.17h-1v-.24h-.41v-.43h-.74v-1.7h-.48l-.26-3.81h-.21l-.26,3.81h-.48v1.7H1689v-1l-5.43,13.22-5.18.06v12.38l-2.2-17.74h-1.49v.47H1674v-4.14h-.47l-.26-5.65h-.2l-.26,5.65h-.47v4.14h-2.54v1l-.59-.62V619.6h-3.75v-3.08h-.93v3.08h-2v19.82l-5-1.75-.38-23.34h-4.2V609.6h-2.14v15.72h-1.09V623h-2v-2.06h-1.09V623h-.77v-2.1h-.62v-.21h-.26v-.39h-.47v-2.93h-1.06v2.93h-.46v.39h-.26v.21H1642V623h-.68v3.84h-2v6.65h-1.18v1.79h-.32v-3.09h-.39l-.22-2.71h-.17l-.22,2.71h-.39v3.09h-.61v8.44h-1.63v-15L1634,628v-.74h-.29l-.56-8-1,0v-4h-1.48v4.06l-1.54,0-.78,7.5-1.47,8.3h-1.54v-6.88h-.3l-.16-2.56h-.13l-.17,2.56h-.3v.41h-1.41V621.3h-.16v7.38h-.82v-5h-4.42v5h-.74v7.65h-1.22v-9.84H1615v-1.9l-3.15-.67v21h-.92V625.69h-1.73V624h-.91v1.74h-2.48v20h-2.12V625h-2.17V621.2h-.26l-.15-3.17H1601l-.15,3.17h-.26V625h-4.39v14.37h-3.09V619.51h-2.95v-5l-8.46,1.65,0,8.65h-3.6v4.07h-2.93v-2h-.44v-3.17h-1v-.24h-.4v-.43h-.75v-1.7h-.47l-.27-3.81h-.2l-.27,3.81h-.47v1.7h-.16v-1l-5.42,13.22-5.18.06v12.38L1558,630h-1.48v.47h-.65v-4.14h-.47l-.25-5.65h-.21l-.25,5.65h-.47v4.14h-2.55v1l-.58-.62V619.6h-3.75v-3.08h-.93v3.08h-2v19.82l-5.06-1.75-.37-23.34h-4.21V609.6h-2.13v15.72h-1.09V623h-2v-2.06h-1.09V623h-.77v-2.1H1527v-.21h-.26v-.39h-.46v-2.93h-1.06v2.93h-.47v.39h-.26v.21h-.62V623h-.68v3.84h-2v6.65H1520v1.79h-.32v-3.09h-.39l-.22-2.71h-.17l-.21,2.71h-.4v3.09h-.61v8.44h-1.63v-15l-.28-.73v-.74h-.29l-.57-8-1,0v-4h-1.48v4.06l-1.53,0-.79,7.5-1.47,8.3h-1.53v-6.88h-.3l-.17-2.56h-.13l-.16,2.56h-.3v.41h-1.42V621.3h-.15v7.38h-.82v-5h-4.42v5h-.74v7.65h-1.23v-9.84h-.48v-1.9l-3.14-.67v21h-.92V625.69H1491V624h-.92v1.74h-2.47v20h-2.12V625h-2.18V621.2h-.26l-.14-3.17h-.12l-.14,3.17h-.27V625H1478v14.37h-3.09V619.51h-3v-5l-8.45,1.65,0,8.65h-3.6v4.07h-3.54V671h237V626.89ZM1482.79,625h-.13v-1h.13Zm.24,0h-.12v-1h.12Zm23.48,3.73h-.15v-.21h.15Zm.28,0h-.14v-.21h.14Zm6.28-9.39h-.19v-1h.19Zm.4,0h-.2v-1h.2Zm5.45,15.86h-.19v-2.78h.19Zm.37,0h-.19v-2.78h.19Zm6.37-15h-.15v-2.63h.15Zm.28,0h-.14v-2.63h.14Zm20.83-.57h-.12v-.31h.12Zm.25,0h-.13v-.31h.13Zm7.87,10.85h-.22v-3.61h.22Zm.45,0h-.22v-3.61h.22Zm16.32-7.52h-.23v-1.37h.23Zm.45,0h-.23v-1.37h.23Zm28.87,2h-.12v-1h.12Zm.25,0h-.12v-1h.12Zm23.47,3.73h-.14v-.21h.14Zm.29,0h-.15v-.21h.15Zm6.28-9.39h-.2v-1h.2Zm.39,0h-.19v-1h.19Zm5.45,15.86h-.18v-2.78h.18Zm.37,0h-.18v-2.78h.18Zm6.37-15h-.14v-2.63h.14Zm.29,0H1644v-2.63h.15Zm20.83-.57h-.13v-.31h.13Zm.25,0h-.13v-.31h.13Zm7.87,10.85h-.22v-3.61h.22Zm.44,0h-.22v-3.61h.22Zm16.32-7.52h-.22v-1.37h.22Zm.45,0h-.22v-1.37h.22Z"/><path class="cls-7" d="M1731.72,176.12l31.39,30.49V360.92A13.08,13.08,0,0,1,1750,374H1627.5a13.08,13.08,0,0,1-13.08-13.08V189.21a13.08,13.08,0,0,1,13.08-13.09Z"/><g class="cls-65"><polygon class="cls-9" points="1733.58 203.45 1763.11 237.22 1763.11 206.61 1733.58 203.45"/></g><path class="cls-29" d="M1731.72,176.12l31.39,30.49h-25a6.39,6.39,0,0,1-6.4-6.4Z"/><rect class="cls-66" x="1625.82" y="229.01" width="24.6" height="24.6"/><rect class="cls-66" x="1660.98" y="229.01" width="93.27" height="6.15" rx="1.76"/><rect class="cls-66" x="1660.98" y="244.31" width="37.41" height="6.15" rx="1.76"/><rect class="cls-66" x="1660.98" y="277.42" width="93.27" height="6.15" rx="1.76"/><rect class="cls-66" x="1660.98" y="292.72" width="37.41" height="6.15" rx="1.76"/><rect class="cls-66" x="1660.98" y="325.83" width="93.27" height="6.15" rx="1.76"/><rect class="cls-66" x="1660.98" y="341.13" width="37.41" height="6.15" rx="1.76"/><rect class="cls-66" x="1625.82" y="275.84" width="24.6" height="24.6"/><rect class="cls-66" x="1625.82" y="322.68" width="24.6" height="24.6"/><polygon class="cls-29" points="1638.75 250.94 1626.09 238.27 1630.46 233.9 1638.75 242.2 1660.64 220.31 1665.01 224.68 1638.75 250.94"/><polygon class="cls-29" points="1638.75 296.42 1626.09 283.75 1630.46 279.38 1638.75 287.67 1660.64 265.79 1665.01 270.16 1638.75 296.42"/><polygon class="cls-29" points="1638.75 341.89 1626.09 329.23 1630.46 324.85 1638.75 333.15 1660.64 311.26 1665.01 315.63 1638.75 341.89"/><g id="paper"><path class="cls-67" d="M1302.22,24.78l114.93.06-.09,162.55-114.93-.06Z"/><path class="cls-68" d="M1372.71,110.28a13.52,13.52,0,0,1-3,5.07l10,14a30.74,30.74,0,0,0,10.11-17.19Z"/><path class="cls-69" d="M1362.45,92.49a13.81,13.81,0,0,1,10.88,12.21l17.19,1.9c0-.2,0-.38,0-.58a30.9,30.9,0,0,0-28.09-30.76Z"/><path class="cls-11" d="M1349.47,96.76a13.59,13.59,0,0,1,7.37-4.27V75.26A30.82,30.82,0,0,0,1334.59,88Z"/><path class="cls-59" d="M1365.22,118.63a13.69,13.69,0,0,1-18.6-17l-14.88-8.77a30.84,30.84,0,0,0,43.5,39.82Z"/><rect class="cls-70" x="1314.1" y="35.74" width="14.38" height="4.19"/><rect class="cls-11" x="1314.1" y="45.28" width="14.38" height="4.18"/><rect class="cls-71" x="1314.1" y="54.81" width="14.38" height="4.18"/><rect class="cls-59" x="1314.1" y="64.35" width="14.38" height="4.18"/><rect class="cls-72" x="1338.22" y="35.95" width="66.96" height="4.71"/><rect class="cls-72" x="1338.22" y="50.02" width="66.96" height="4.71"/><rect class="cls-72" x="1338.22" y="64.09" width="66.96" height="4.7"/><rect class="cls-72" x="1338.22" y="57.06" width="66.96" height="4.7"/><rect class="cls-72" x="1338.22" y="42.99" width="66.96" height="4.7"/><rect class="cls-72" x="1314.1" y="141.21" width="3.04" height="32.34"/><rect class="cls-72" x="1314.1" y="173.54" width="91.08" height="3.04"/><rect class="cls-11" x="1325.14" y="159.16" width="8.15" height="14.38"/><rect class="cls-73" x="1325.14" y="151.98" width="8.15" height="7.19"/><rect class="cls-11" x="1340.34" y="152.94" width="8.15" height="20.61"/><rect class="cls-73" x="1340.34" y="148.82" width="8.15" height="4.12"/><rect class="cls-11" x="1355.55" y="163.08" width="8.15" height="10.46"/><rect class="cls-73" x="1355.55" y="155.57" width="8.15" height="7.51"/><rect class="cls-11" x="1370.75" y="167.55" width="8.15" height="5.99"/><rect class="cls-73" x="1370.75" y="161.56" width="8.15" height="5.99"/><rect class="cls-74" x="1384" y="24.84" width="33.11" height="141.67"/><path class="cls-67" d="M1389.6,0l113.86.06-.09,161L1389.51,161Z"/><polygon class="cls-75" points="1403.88 83.24 1413.72 83.25 1413.7 92.19 1403.87 92.19 1403.88 83.24"/><rect class="cls-68" x="1415.24" y="79.39" width="9.83" height="12.8"/><rect class="cls-71" x="1426.61" y="70.43" width="9.83" height="21.77"/><rect class="cls-76" x="1437.98" y="73.45" width="9.83" height="18.75"/><rect class="cls-76" x="1449.35" y="82.83" width="9.83" height="9.39"/><rect class="cls-59" x="1460.43" y="79.27" width="9.83" height="12.93"/><rect class="cls-68" x="1471.8" y="73.45" width="9.83" height="18.76"/><rect class="cls-71" x="1483.17" y="61.06" width="9.83" height="31.15"/><rect class="cls-72" x="1399.98" y="105.45" width="42.66" height="2.83"/><rect class="cls-72" x="1399.98" y="110.41" width="42.66" height="2.83"/><rect class="cls-72" x="1399.98" y="115.37" width="42.66" height="2.83"/><rect class="cls-72" x="1399.97" y="120.33" width="42.66" height="2.84"/><rect class="cls-72" x="1399.97" y="125.29" width="42.66" height="2.83"/><rect class="cls-72" x="1399.97" y="130.25" width="42.66" height="2.83"/><rect class="cls-72" x="1399.97" y="135.21" width="42.66" height="2.84"/><rect class="cls-72" x="1399.96" y="140.17" width="21.33" height="2.84"/><rect class="cls-72" x="1450.28" y="105.48" width="42.66" height="2.83"/><rect class="cls-72" x="1450.28" y="110.44" width="42.66" height="2.83"/><rect class="cls-72" x="1450.27" y="115.4" width="42.66" height="2.84"/><rect class="cls-72" x="1450.27" y="120.36" width="42.66" height="2.83"/><rect class="cls-72" x="1450.27" y="125.32" width="42.66" height="2.83"/><rect class="cls-72" x="1450.27" y="130.28" width="42.66" height="2.83"/><rect class="cls-72" x="1450.26" y="135.24" width="42.66" height="2.84"/><rect class="cls-72" x="1450.26" y="140.2" width="30.03" height="2.83"/><polygon class="cls-77" points="1406.12 53.71 1403.5 50.16 1435.97 26.22 1457.07 40.64 1490.77 17.57 1493.26 21.2 1457.07 45.98 1436.07 31.62 1406.12 53.71"/><polygon class="cls-78" points="1493.57 28.92 1490.04 28.92 1490.04 21.15 1482.27 21.15 1482.27 17.62 1493.57 17.62 1493.57 28.92"/><path class="cls-11" d="M1461.64,42.49a4.85,4.85,0,1,0-4.85,4.84A4.85,4.85,0,0,0,1461.64,42.49Z"/><path class="cls-11" d="M1440.94,28.92a4.85,4.85,0,1,0-4.85,4.84A4.85,4.85,0,0,0,1440.94,28.92Z"/></g><g id="magnifying_glass" data-name="magnifying glass"><path class="cls-79" d="M1453.79,106A24.21,24.21,0,1,0,1488,140.2h0A24.21,24.21,0,1,0,1453.79,106Z"/><path class="cls-80" d="M1486.42,141.68c.27-.22.53-.46.79-.69C1487,141.22,1486.69,141.46,1486.42,141.68Z"/><path class="cls-80" d="M1487.26,140.94c.27-.24.52-.49.78-.74Z"/><path class="cls-81" d="M1453.79,106a24.06,24.06,0,0,1,15.1-7,25.45,25.45,0,0,0-3.28.51,24.22,24.22,0,0,0,15.24,45.72,24.12,24.12,0,0,0,5.52-3.46A24.21,24.21,0,0,1,1453.79,106Z"/><path class="cls-80" d="M1468.93,99l.58,0Z"/><path class="cls-80" d="M1469.63,98.9l.51,0Z"/><path class="cls-80" d="M1470.3,98.88h0Z"/><path class="cls-1" d="M1500.71,153.15a4.16,4.16,0,0,1-5.88,0l-5.19-5.36a4.16,4.16,0,0,1,0-5.88h0a4.15,4.15,0,0,1,5.88,0l5.19,5.35a4.16,4.16,0,0,1,0,5.88Z"/><path class="cls-18" d="M1438.36,123a32.53,32.53,0,0,0,55.56,23h0a32.53,32.53,0,1,0-55.56-23Zm8.33,0a24.21,24.21,0,1,1,24.17,24.26A24,24,0,0,1,1446.69,123.05Z"/><rect class="cls-18" x="1507.73" y="142.25" width="16.74" height="52.43" transform="translate(324.93 1121.39) rotate(-45)"/><rect class="cls-1" x="1511.2" y="142.25" width="9.8" height="52.43" transform="translate(324.94 1121.39) rotate(-45)"/><rect class="cls-1" x="1523.42" y="180.14" width="16.74" height="8.04" transform="translate(318.43 1137.08) rotate(-45)"/><rect class="cls-1" x="1526.89" y="180.14" width="9.8" height="8.04" transform="translate(318.4 1137.04) rotate(-45)"/><path class="cls-81" d="M1481.9,105.89a24.11,24.11,0,0,0-24.29,1.65l1.78,4.74a24.17,24.17,0,0,1,25.46-2.49,24.67,24.67,0,0,1,7,5.26A24.11,24.11,0,0,0,1481.9,105.89Z"/></g><path class="cls-82" d="M1579.59,583.35a6.63,6.63,0,1,0-6.41-.4"/><path class="cls-82" d="M1579.52,599.06a21.88,21.88,0,1,0-6.41-.13"/><path class="cls-82" d="M1579.59,596.17a19,19,0,1,0-6.41-.12"/><path class="cls-82" d="M1579.59,592.92a15.82,15.82,0,1,0-6.41-.15"/><path class="cls-82" d="M1579.59,589.65a12.62,12.62,0,1,0-6.41-.19"/><path class="cls-82" d="M1579.59,586.55a9.62,9.62,0,1,0-6.41-.25"/><line class="cls-82" x1="1573.07" y1="599.23" x2="1573.07" y2="582.57"/><line class="cls-82" x1="1579.48" y1="599.34" x2="1579.48" y2="582.89"/><circle class="cls-7" cx="1576.81" cy="576.9" r="3.42"/></g></g></svg>
