<svg xmlns="http://www.w3.org/2000/svg" xmlns:xlink="http://www.w3.org/1999/xlink" viewBox="0 0 1932.6 737.52"><defs><style>.cls-1,.cls-102,.cls-106,.cls-80{fill:none;}.cls-2{isolation:isolate;}.cls-3{opacity:0.47;}.cls-4{fill:#e0e4f0;}.cls-48,.cls-5,.cls-59,.cls-61,.cls-65{opacity:0.5;}.cls-6{clip-path:url(#clip-path);}.cls-7,.cls-8{opacity:0.75;}.cls-7{fill:url(#linear-gradient);}.cls-8{fill:url(#linear-gradient-2);}.cls-9{fill:#b2b8fa;}.cls-10{fill:#191c3c;}.cls-11{fill:#81b7fb;}.cls-12{fill:#4d8bd7;}.cls-13{fill:#4563cc;}.cls-14{fill:url(#linear-gradient-3);}.cls-15,.cls-25,.cls-31,.cls-34,.cls-47,.cls-82{fill:#fff;}.cls-16{fill:#fed65c;}.cls-17{fill:#4568af;}.cls-18{fill:#ff65a7;}.cls-19{fill:#6285bc;}.cls-20{fill:#feb834;}.cls-21,.cls-79{fill:#6e8adb;}.cls-22{fill:#c7cdf9;}.cls-23{fill:#d38e20;}.cls-24{fill:url(#linear-gradient-4);}.cls-25{font-size:27.53px;}.cls-25,.cls-31,.cls-34{font-family:Montserrat-SemiBold, Montserrat;font-weight:600;}.cls-26{letter-spacing:-0.01em;}.cls-27{letter-spacing:0em;}.cls-28{letter-spacing:0.01em;}.cls-29{letter-spacing:0em;}.cls-30{fill:#e298bb;}.cls-31{font-size:28.94px;}.cls-32{letter-spacing:-0.01em;}.cls-33{fill:#92a6dd;}.cls-34{font-size:20.47px;}.cls-35{letter-spacing:-0.01em;}.cls-36{opacity:0.27;}.cls-37,.cls-45,.cls-59{fill:#6874e7;}.cls-38{fill:#e6e7e8;}.cls-39{fill:#bccae8;}.cls-40{fill:#e5e9ff;}.cls-41{fill:url(#linear-gradient-5);}.cls-42{fill:#4c5159;}.cls-43,.cls-50{fill:#414042;}.cls-43,.cls-56{opacity:0.3;}.cls-44{fill:#9e3667;}.cls-45,.cls-66{opacity:0.2;}.cls-46{fill:url(#linear-gradient-6);}.cls-47,.cls-58{opacity:0.09;}.cls-48{fill:#babfd3;}.cls-49{fill:url(#linear-gradient-7);}.cls-51{fill:url(#linear-gradient-8);}.cls-52{fill:url(#linear-gradient-9);}.cls-53{fill:#ffda6a;}.cls-54{fill:#ededed;}.cls-55{fill:#bcbec0;}.cls-57{fill:#7790b7;}.cls-60{fill:url(#linear-gradient-10);}.cls-61{fill:#8093ce;}.cls-62{fill:#d1d3d4;}.cls-63{fill:url(#linear-gradient-11);}.cls-64{fill:url(#linear-gradient-12);}.cls-65{fill:#9ca5d3;}.cls-67{opacity:0.31;}.cls-68{fill:#a1a9d6;}.cls-69{fill:#ffb936;}.cls-70{fill:url(#linear-gradient-13);}.cls-71{fill:url(#linear-gradient-14);}.cls-72{fill:url(#linear-gradient-15);}.cls-73{fill:url(#linear-gradient-16);}.cls-74{fill:#58595b;}.cls-75{fill:#4c6dbf;}.cls-76{fill:#ffc107;}.cls-77{fill:url(#linear-gradient-17);}.cls-78{fill:#41446b;}.cls-79,.cls-81,.cls-82,.cls-83{fill-rule:evenodd;}.cls-102,.cls-80{stroke:#fff;}.cls-80{stroke-miterlimit:10;stroke-width:0.7px;}.cls-105,.cls-81{fill:#f066a4;}.cls-83{fill:url(#linear-gradient-18);}.cls-84{fill:#f1f2ff;}.cls-85{fill:#d1ddff;}.cls-86{fill:#d7ddfb;}.cls-87{fill:#8ec2fe;}.cls-88{fill:#8592c8;}.cls-100,.cls-89{fill:#c8c8c8;}.cls-89{opacity:0.44;}.cls-100,.cls-89,.cls-98{mix-blend-mode:multiply;}.cls-90{fill:#1f2e3b;}.cls-91{fill:#c6cbe9;}.cls-92{fill:#ebb28b;}.cls-93{fill:#f2f7ff;}.cls-94{fill:#f0bc99;}.cls-95{fill:#21283a;}.cls-96{fill:#f0af74;}.cls-97{fill:#4f5977;}.cls-98{fill:#b8b8b8;opacity:0.12;}.cls-99{fill:#fec55e;}.cls-100{opacity:0.23;}.cls-101{fill:#ebedfd;}.cls-102,.cls-106{stroke-linecap:round;stroke-linejoin:round;}.cls-102{stroke-width:2.21px;}.cls-103{fill:#83b9fd;}.cls-104{fill:#c8cdeb;}.cls-106{stroke:#f066a4;stroke-width:1.5px;}</style><clipPath id="clip-path" transform="translate(0 -59.12)"><rect class="cls-1" x="34.54" width="1055.21" height="821.15"/></clipPath><linearGradient id="linear-gradient" x1="308.56" y1="698.12" x2="308.56" y2="529.77" gradientUnits="userSpaceOnUse"><stop offset="0" stop-color="#fff"/><stop offset="0.29" stop-color="#eff1f7"/><stop offset="0.63" stop-color="#e4e6f1"/><stop offset="1" stop-color="#e0e3ef"/></linearGradient><linearGradient id="linear-gradient-2" x1="826.98" y1="690.17" x2="826.98" y2="498.18" xlink:href="#linear-gradient"/><linearGradient id="linear-gradient-3" x1="1803.92" y1="359.57" x2="1883.66" y2="359.57" gradientUnits="userSpaceOnUse"><stop offset="0" stop-color="#fec55e"/><stop offset="1" stop-color="#ffa000"/></linearGradient><linearGradient id="linear-gradient-4" x1="885.78" y1="244.21" x2="1002.73" y2="244.21" xlink:href="#linear-gradient-3"/><linearGradient id="linear-gradient-5" x1="632.45" y1="558.36" x2="662.14" y2="558.36" gradientTransform="translate(88.94 1205.65) rotate(-90)" xlink:href="#linear-gradient-3"/><linearGradient id="linear-gradient-6" x1="334.06" y1="467.72" x2="610.95" y2="467.72" xlink:href="#linear-gradient-3"/><linearGradient id="linear-gradient-7" x1="309.81" y1="670.08" x2="333.68" y2="670.08" xlink:href="#linear-gradient-3"/><linearGradient id="linear-gradient-8" x1="100.41" y1="766.56" x2="179.69" y2="766.56" gradientTransform="translate(280.1 1533.11) rotate(-180)" xlink:href="#linear-gradient-3"/><linearGradient id="linear-gradient-9" x1="49.91" y1="738.41" x2="105.28" y2="738.41" xlink:href="#linear-gradient-3"/><linearGradient id="linear-gradient-10" x1="261.14" y1="684.7" x2="275.69" y2="684.7" xlink:href="#linear-gradient-3"/><linearGradient id="linear-gradient-11" x1="125.07" y1="662.46" x2="246.81" y2="662.46" xlink:href="#linear-gradient-3"/><linearGradient id="linear-gradient-12" x1="143.17" y1="655.02" x2="191.62" y2="655.02" xlink:href="#linear-gradient-3"/><linearGradient id="linear-gradient-13" x1="727.09" y1="662.94" x2="733.72" y2="662.94" xlink:href="#linear-gradient-3"/><linearGradient id="linear-gradient-14" x1="733.72" y1="697.17" x2="744.14" y2="697.17" xlink:href="#linear-gradient-3"/><linearGradient id="linear-gradient-15" x1="805.74" y1="753.01" x2="829.43" y2="753.01" xlink:href="#linear-gradient-3"/><linearGradient id="linear-gradient-16" x1="744.36" y1="675.38" x2="805.74" y2="675.38" xlink:href="#linear-gradient-3"/><linearGradient id="linear-gradient-17" x1="503.1" y1="322.55" x2="520.68" y2="322.55" gradientUnits="userSpaceOnUse"><stop offset="0" stop-color="#6874e7"/><stop offset="0.48" stop-color="#747ee9"/><stop offset="0.98" stop-color="#858eec"/></linearGradient><linearGradient id="linear-gradient-18" x1="1085.24" y1="337.69" x2="1119.21" y2="337.69" xlink:href="#linear-gradient-3"/></defs><title>BlueSky Perth</title><g class="cls-2"><g id="Layer_2" data-name="Layer 2"><g id="Layer_1-2" data-name="Layer 1"><g class="cls-3"><path class="cls-4" d="M1081.6,754.75a414.84,414.84,0,0,0-45-187.56A131,131,0,0,0,1052.92,504c0-80.33-73.73-145.46-164.69-145.46a185.1,185.1,0,0,0-49,6.53c-81-45.54-177.12-71.94-280.25-71.94q-19.28,0-38.19,1.22c-22.53-15-50.56-23.91-81-23.91-57.41,0-106.39,31.76-125.74,76.45a529.32,529.32,0,0,0-109,68.22,168.56,168.56,0,0,0-33.09-3.29c-82.4,0-149.19,59-149.19,131.77,0,31.71,12.69,60.8,33.82,83.54A411.69,411.69,0,0,0,36.46,754.75Z" transform="translate(0 -59.12)"/></g><g class="cls-3"><path class="cls-4" d="M1932.6,754.75a414.84,414.84,0,0,0-45-187.56A131,131,0,0,0,1903.92,504c0-80.33-73.73-145.46-164.69-145.46a185.1,185.1,0,0,0-49,6.53c-81-45.54-177.12-71.94-280.25-71.94q-19.27,0-38.19,1.22c-22.53-15-50.56-23.91-80.95-23.91-57.41,0-106.39,31.76-125.74,76.45a529.32,529.32,0,0,0-109,68.22,168.56,168.56,0,0,0-33.09-3.29c-82.4,0-149.19,59-149.19,131.77,0,31.71,12.69,60.8,33.82,83.54a411.69,411.69,0,0,0-20.23,127.58Z" transform="translate(0 -59.12)"/></g><g class="cls-3"><path class="cls-4" d="M481,754.75c0-96.36-107.67-174.48-240.48-174.48S0,658.39,0,754.75Z" transform="translate(0 -59.12)"/></g><g class="cls-3"><path class="cls-4" d="M963,754.75c0-96.36-107.66-174.48-240.47-174.48S482,658.39,482,754.75Z" transform="translate(0 -59.12)"/></g><g class="cls-3"><path class="cls-4" d="M1441.78,754.75c0-96.36-107.66-174.48-240.47-174.48S960.83,658.39,960.83,754.75Z" transform="translate(0 -59.12)"/></g><g class="cls-3"><path class="cls-4" d="M1920.6,754.75c0-96.36-107.66-174.48-240.47-174.48s-240.47,78.12-240.47,174.48Z" transform="translate(0 -59.12)"/></g><g class="cls-5"><circle class="cls-4" cx="731.36" cy="282.67" r="15.82" transform="translate(288.89 870.87) rotate(-76.78)"/></g><g class="cls-5"><circle class="cls-4" cx="1371.36" cy="231.67" r="15.82" transform="translate(832.16 1454.56) rotate(-76.78)"/></g><g class="cls-5"><path class="cls-4" d="M464.83,221.41a20.49,20.49,0,1,1-20.48-20.49A20.48,20.48,0,0,1,464.83,221.41Z" transform="translate(0 -59.12)"/></g><g class="cls-5"><path class="cls-4" d="M1523.83,236.41a20.49,20.49,0,1,1-20.48-20.49A20.48,20.48,0,0,1,1523.83,236.41Z" transform="translate(0 -59.12)"/></g><g class="cls-5"><path class="cls-4" d="M1158.83,306.41a20.49,20.49,0,1,1-20.48-20.49A20.48,20.48,0,0,1,1158.83,306.41Z" transform="translate(0 -59.12)"/></g><g class="cls-5"><path class="cls-4" d="M227.17,355.55a10.44,10.44,0,1,1-10.44-10.44A10.44,10.44,0,0,1,227.17,355.55Z" transform="translate(0 -59.12)"/></g><g class="cls-5"><circle class="cls-4" cx="321.36" cy="219.72" r="10.44"/></g><g class="cls-5"><circle class="cls-4" cx="1762.36" cy="247.72" r="10.44"/></g><g class="cls-5"><path class="cls-4" d="M827.49,304.44a9.32,9.32,0,1,1-9.32-9.32A9.31,9.31,0,0,1,827.49,304.44Z" transform="translate(0 -59.12)"/></g><g class="cls-5"><path class="cls-4" d="M528.83,229.81a3.22,3.22,0,1,1-3.22-3.22A3.22,3.22,0,0,1,528.83,229.81Z" transform="translate(0 -59.12)"/></g><g class="cls-5"><circle class="cls-4" cx="257.92" cy="254.72" r="4.19"/></g><g class="cls-5"><path class="cls-4" d="M112.12,405a5.57,5.57,0,1,1-5.57-5.57A5.57,5.57,0,0,1,112.12,405Z" transform="translate(0 -59.12)"/></g><g class="cls-5"><path class="cls-4" d="M570.49,243.82a5.57,5.57,0,1,1-5.56-5.57A5.57,5.57,0,0,1,570.49,243.82Z" transform="translate(0 -59.12)"/></g><g class="cls-5"><path class="cls-4" d="M1233.49,234.82a5.57,5.57,0,1,1-5.56-5.57A5.57,5.57,0,0,1,1233.49,234.82Z" transform="translate(0 -59.12)"/></g><g class="cls-5"><circle class="cls-4" cx="162.03" cy="387.54" r="23.62" transform="translate(-246.47 426.28) rotate(-80.78)"/></g><g class="cls-5"><circle class="cls-4" cx="1035.03" cy="361.54" r="23.62" transform="translate(512.36 1266.17) rotate(-80.78)"/></g><g class="cls-5"><path class="cls-4" d="M37,663.18a5.57,5.57,0,1,1-5.57-5.57A5.57,5.57,0,0,1,37,663.18Z" transform="translate(0 -59.12)"/></g><g class="cls-5"><circle class="cls-4" cx="645.25" cy="208.31" r="22.89"/></g><g class="cls-5"><circle class="cls-4" cx="1639.25" cy="209.31" r="22.89"/></g><g class="cls-5"><circle class="cls-4" cx="910.25" cy="265.31" r="22.89"/></g><g class="cls-5"><circle class="cls-4" cx="29.04" cy="465.05" r="18.12" transform="translate(-175.76 -12.61) rotate(-22.5)"/></g><g class="cls-5"><path class="cls-4" d="M1870.17,370.55a10.44,10.44,0,1,1-10.44-10.44A10.44,10.44,0,0,1,1870.17,370.55Z" transform="translate(0 -59.12)"/></g><g class="cls-6"><path class="cls-7" d="M63.6,545.09V754.75H553.51V535.23h-1.8V519.46H547.6v-1.18h-1.67v-2.14h-3.07v-8.47h-2l-1.09-18.94H539l-1.09,18.94h-2v8.47h-.63v-4.95L512.9,577l-21.37.31V638.9l-9.1-88.3h-6.12V553h-2.65V532.35h-1.93l-1.06-28.13h-.85l-1.06,28.13h-1.92V553h-10.5v5.17l-2.42-3.07V499H438.47V483.64h-3.84V499h-8.21v98.61l-20.85-8.71L404,472.73H386.68V449.18h-8.79v78.23h-4.5V515.8h-8.46V505.55h-4.49V515.8h-3.18V505.35h-2.58v-1.08h-1.05v-1.94H351.7V487.75h-4.37v14.58H345.4v1.94h-1v1.08h-2.58V515.8H339v19.07h-8.11V568H326v8.91h-1.31V561.5h-1.62L322.16,548h-.71l-.89,13.47H319v15.41h-2.52v42h-6.72V544.15l-1.18-3.62v-3.7h-1.2L305,497.22l-4.22.12v-20h-6.1v20.2l-6.33.18L285.13,535l-6.06,41.31h-6.33V542.12H271.5l-.68-12.74h-.54l-.68,12.74h-1.24v2h-5.83V507.43h-.64v36.72H258.5V519.47H240.28v24.68h-3.06V582.2h-5.06V533.27h-1.95v-9.45l-13-3.38V624.93h-3.79V529.26h-7.13v-8.64h-3.8v8.64H192.32v99.45h-8.73V525.59h-9V506.93h-1.08l-.59-15.79h-.48l-.6,15.79h-1.08v18.66H152.69v71.5H139.93V498.52H127.76V473.6L92.9,481.81l.14,43H78.19v20.26Zm476.25-36.36h.92v6.82h-.92Zm-1.86,0h.93v6.82H538ZM470.7,535h.91v18h-.91Zm-1.82,0h.91v18h-.91ZM436.8,497.41h.52V499h-.52Zm-1,0h.51V499h-.51Zm-86-8.68h.58v13.06h-.58Zm-1.17,0h.58v13.06h-.58Zm-26.45,73.8H323v13.81h-.76Zm-1.53,0h.77v13.81h-.77Zm-22.51-70.09H299v5l-.81,0Zm-1.63,0h.82v5l-.82,0Zm-25.68,50.65h.58v1.06h-.58Zm-1.17,0h.58v1.06h-.58ZM173,520.7h.51v4.89H173Zm-1,0h.51v4.89h-.51Z" transform="translate(0 -59.12)"/><path class="cls-8" d="M1094.69,586.32v8.14h-12.31V446.52l-25.91,4.86v82.34h-5.34v8.16h-10v90.31h-5.34V533.55l-78.16,3.19v8.93h-2.75v46.19h-7.12V555.93h-4.3v-23.3H917.75v23.3H913V521.27h-.91v34.66h-8.2V554h-1.74l-1-12h-.76l-1,12h-1.74v32.3h-8.93l-7.1-39-4.55-35.24-23.58-.17V492.84H845v18.91l-5.94-.12L835.77,549h-1.69v3.5l-1.66,3.41v70.59H823V586.86h-3.55V572.32h-2.28l-1.25-12.72h-1l-1.25,12.72h-2.28v14.54h-1.84v-8.41h-6.86V547.18H791.23v-18h-4V519.3h-3.63v-1h-1.48v-1.83h-2.71V502.69h-6.17v13.76h-2.71v1.83H769.1v1h-3.63v9.87H761v-9.68h-6.33v9.68h-11.9v11h-6.33V466.28H724v22.23H699.61l-2.16,109.64-29.36,8.22v-93.1H656.53V498.81h-5.4v14.46H629.37v53l-3.4,2.89v-4.88H611.19V544.79h-2.72L607,518.24h-1.19l-1.49,26.55h-2.72v19.46h-3.73V562h-8.62l-12.82,83.37V587.21l-29.64-.28V754.75H1107.2V586.32ZM605.75,564.25h-1.29v-17h1.29Zm2.56,0H607v-17h1.28Zm45.16-51h-.72v-1.46h.72Zm1.44,0h-.72v-1.46h.72ZM776,515.94h-.82V503.61H776Zm1.65,0h-.82V503.61h.82Zm37.24,70.38h-1.08v-13h1.08Zm2.14,0h-1.07v-13H817Zm31.71-74.5-1.15,0v-4.68h1.15Zm2.29,0-1.15,0v-4.72H851Zm49.4,44.07h-.82v-1h.82Zm1.64,0h-.82v-1H902Z" transform="translate(0 -59.12)"/></g><path class="cls-9" d="M569.55,720.11c-.51,0-13.39-1.51-14-13.49s7.63-14.94,5.47-28.28-7.83-17.17,4.87-26.9c0,0,5.66-3.92,5.93-9.41.31-6.58,11.67-14.22,19.29-9.83s5.83,11.17-.69,22.14-.24,12.89,1,16.44,4.17,7.27-2.49,15.75,1.27,18.83-4.4,27C584.56,713.48,579.59,719.5,569.55,720.11Z" transform="translate(0 -59.12)"/><path class="cls-10" d="M571.56,738.47a.53.53,0,0,0,.4-.62c-6.92-36.57,7.19-86.43,7.33-86.93a.54.54,0,1,0-1-.29c-.15.5-14.32,50.61-7.36,87.42a.55.55,0,0,0,.64.43Z" transform="translate(0 -59.12)"/><path class="cls-10" d="M574.45,670.5l.09,0a.53.53,0,0,0,.27-.71,74.42,74.42,0,0,1-4.08-12,.54.54,0,0,0-1.06.23,74.11,74.11,0,0,0,4.15,12.26A.55.55,0,0,0,574.45,670.5Z" transform="translate(0 -59.12)"/><path class="cls-10" d="M572.59,681.56a.53.53,0,0,0,.21-.11c2.74-2.26,9.62-6.52,9.69-6.56a.55.55,0,0,0,.17-.75.54.54,0,0,0-.75-.18c-.28.18-7,4.34-9.8,6.65a.55.55,0,0,0,.48.95Z" transform="translate(0 -59.12)"/><path class="cls-10" d="M571.05,692.33l.11-.05a.54.54,0,0,0,.24-.73L567.57,684a.55.55,0,0,0-.74-.24.54.54,0,0,0-.23.73l3.83,7.58A.55.55,0,0,0,571.05,692.33Z" transform="translate(0 -59.12)"/><path class="cls-9" d="M601.69,728.33c-.26,0-6.66-.76-7-6.72s3.79-7.43,2.71-14.06-3.89-8.54,2.43-13.39c0,0,2.81-1.95,3-4.68.15-3.27,5.8-7.07,9.59-4.89s2.9,5.56-.34,11-.12,6.41.5,8.18,2.07,3.61-1.24,7.83S612,721,609.16,725A10.92,10.92,0,0,1,601.69,728.33Z" transform="translate(0 -59.12)"/><path class="cls-10" d="M602.69,737.46a.28.28,0,0,0,.2-.31c-3.44-18.19,3.57-43,3.64-43.24a.27.27,0,1,0-.52-.15c-.07.25-7.12,25.17-3.65,43.49a.26.26,0,0,0,.31.21Z" transform="translate(0 -59.12)"/><path class="cls-10" d="M604.13,703.64h0a.27.27,0,0,0,.14-.36,35.79,35.79,0,0,1-2-6,.27.27,0,1,0-.52.11,36.71,36.71,0,0,0,2.06,6.1A.28.28,0,0,0,604.13,703.64Z" transform="translate(0 -59.12)"/><path class="cls-10" d="M603.2,709.15a.3.3,0,0,0,.11-.06c1.36-1.12,4.78-3.24,4.81-3.26a.27.27,0,1,0-.28-.46c-.14.09-3.49,2.16-4.88,3.3a.29.29,0,0,0,0,.39A.3.3,0,0,0,603.2,709.15Z" transform="translate(0 -59.12)"/><path class="cls-10" d="M602.43,714.5l.06,0a.28.28,0,0,0,.12-.36l-1.91-3.77a.27.27,0,1,0-.48.25l1.9,3.76A.27.27,0,0,0,602.43,714.5Z" transform="translate(0 -59.12)"/><path class="cls-11" d="M1499.55,720.11c-.51,0-13.39-1.51-14-13.49s7.63-14.94,5.47-28.28-7.83-17.17,4.87-26.9c0,0,5.66-3.92,5.93-9.41.31-6.58,11.67-14.22,19.29-9.83s5.83,11.17-.69,22.14-.24,12.89,1,16.44,4.17,7.27-2.49,15.75,1.27,18.83-4.4,27C1514.56,713.48,1509.59,719.5,1499.55,720.11Z" transform="translate(0 -59.12)"/><path class="cls-12" d="M1501.56,738.47a.53.53,0,0,0,.4-.62c-6.92-36.57,7.19-86.43,7.33-86.93a.54.54,0,1,0-1-.29c-.15.5-14.32,50.61-7.36,87.42a.55.55,0,0,0,.64.43Z" transform="translate(0 -59.12)"/><path class="cls-12" d="M1504.45,670.5l.09,0a.53.53,0,0,0,.27-.71,74.42,74.42,0,0,1-4.08-12,.54.54,0,0,0-1.06.23,74.11,74.11,0,0,0,4.15,12.26A.55.55,0,0,0,1504.45,670.5Z" transform="translate(0 -59.12)"/><path class="cls-12" d="M1502.59,681.56a.53.53,0,0,0,.21-.11c2.74-2.26,9.62-6.52,9.69-6.56a.55.55,0,0,0,.17-.75.54.54,0,0,0-.75-.18c-.28.18-7,4.34-9.8,6.65a.55.55,0,0,0,.48.95Z" transform="translate(0 -59.12)"/><path class="cls-12" d="M1501.05,692.33l.11-.05a.54.54,0,0,0,.24-.73l-3.83-7.57a.55.55,0,0,0-.74-.24.54.54,0,0,0-.23.73l3.83,7.58A.55.55,0,0,0,1501.05,692.33Z" transform="translate(0 -59.12)"/><path class="cls-11" d="M1531.69,728.33c-.26,0-6.66-.76-7-6.72s3.79-7.43,2.71-14.06-3.89-8.54,2.43-13.39c0,0,2.81-1.95,2.95-4.68.15-3.27,5.8-7.07,9.59-4.89s2.9,5.56-.34,11-.12,6.41.5,8.18,2.07,3.61-1.24,7.83.63,9.37-2.18,13.41A10.92,10.92,0,0,1,1531.69,728.33Z" transform="translate(0 -59.12)"/><path class="cls-12" d="M1532.69,737.46a.28.28,0,0,0,.2-.31c-3.44-18.19,3.57-43,3.64-43.24a.27.27,0,1,0-.52-.15c-.07.25-7.12,25.17-3.65,43.49a.26.26,0,0,0,.31.21Z" transform="translate(0 -59.12)"/><path class="cls-12" d="M1534.13,703.64h0a.27.27,0,0,0,.14-.36,35.79,35.79,0,0,1-2-6,.27.27,0,1,0-.52.11,36.71,36.71,0,0,0,2.06,6.1A.28.28,0,0,0,1534.13,703.64Z" transform="translate(0 -59.12)"/><path class="cls-12" d="M1533.2,709.15a.3.3,0,0,0,.11-.06c1.36-1.12,4.78-3.24,4.81-3.26a.27.27,0,0,0-.28-.46c-.14.09-3.49,2.16-4.88,3.3a.29.29,0,0,0,0,.39A.3.3,0,0,0,1533.2,709.15Z" transform="translate(0 -59.12)"/><path class="cls-12" d="M1532.43,714.5l.06,0a.28.28,0,0,0,.12-.36l-1.91-3.77a.27.27,0,1,0-.48.25l1.9,3.76A.27.27,0,0,0,1532.43,714.5Z" transform="translate(0 -59.12)"/><path class="cls-13" d="M831.49,259.44,830,255.26l-1.46,4.18a14.63,14.63,0,0,1-8.13,8.28h0a14.64,14.64,0,0,1,8.13,8.27l1.46,4.19,1.46-4.19a14.61,14.61,0,0,1,8.13-8.27h0A14.59,14.59,0,0,1,831.49,259.44Z" transform="translate(0 -59.12)"/><path class="cls-13" d="M1858.49,466.44l-1.46-4.18-1.46,4.18a14.63,14.63,0,0,1-8.13,8.28h0a14.64,14.64,0,0,1,8.13,8.27l1.46,4.19,1.46-4.19a14.61,14.61,0,0,1,8.13-8.27h0A14.59,14.59,0,0,1,1858.49,466.44Z" transform="translate(0 -59.12)"/><path class="cls-14" d="M1810.75,375.93a29.5,29.5,0,0,1,22.71-48.38h20.66a29.54,29.54,0,1,1,0,59.08h-20.66a29.25,29.25,0,0,1-13.18-3.16l-14.8,8.12Z" transform="translate(0 -59.12)"/><path class="cls-15" d="M1826.92,354.25v3.81a1.61,1.61,0,0,0,1.61,1.61h3.22a12.38,12.38,0,0,0,1,2.52l-2.27,2.27a1.6,1.6,0,0,0,0,2.27l2.69,2.7a1.6,1.6,0,0,0,2.27,0l2.28-2.27a12.88,12.88,0,0,0,2.51,1v3.21a1.61,1.61,0,0,0,1.61,1.61h3.82a1.61,1.61,0,0,0,1.6-1.61V368.2a13,13,0,0,0,2.52-1l2.27,2.27a1.6,1.6,0,0,0,2.27,0l2.7-2.7a1.6,1.6,0,0,0,0-2.27l-2.27-2.27a13,13,0,0,0,1-2.52H1859a1.61,1.61,0,0,0,1.61-1.61v-3.81a1.61,1.61,0,0,0-1.61-1.61h-3.21a13.24,13.24,0,0,0-1-2.52l2.27-2.27a1.6,1.6,0,0,0,0-2.27l-2.7-2.7a1.62,1.62,0,0,0-2.27,0l-2.27,2.28a11.84,11.84,0,0,0-2.52-1V340.9a1.61,1.61,0,0,0-1.6-1.61h-3.82a1.61,1.61,0,0,0-1.61,1.61v3.22a11.76,11.76,0,0,0-2.51,1l-2.28-2.28a1.62,1.62,0,0,0-2.27,0l-2.69,2.7a1.6,1.6,0,0,0,0,2.27l2.27,2.27a12.62,12.62,0,0,0-1,2.52h-3.22A1.61,1.61,0,0,0,1826.92,354.25Zm10.14,1.91a6.73,6.73,0,1,1,6.73,6.72A6.73,6.73,0,0,1,1837.06,356.16Z" transform="translate(0 -59.12)"/><path class="cls-16" d="M1778.16,164.2l.66.35,1.82,1c1.58.87,3.85,2.16,6.69,3.89a227.56,227.56,0,0,1,22.53,15.67c4.47,3.51,9.17,7.5,13.92,12A173.76,173.76,0,0,1,1837.92,212c2.28,2.76,4.55,5.6,6.68,8.61,1.1,1.47,2.11,3,3.17,4.57.5.79,1,1.58,1.51,2.37l.75,1.19.72,1.22c2,3.22,3.69,6.61,5.35,10.05.78,1.75,1.59,3.48,2.28,5.27.35.89.74,1.77,1,2.68l1,2.71a91.4,91.4,0,0,1,3,11.1c.43,1.86.68,3.75,1,5.63.15.93.22,1.88.33,2.82s.23,1.88.26,2.82a89.55,89.55,0,0,1-1.15,22,102.08,102.08,0,0,1-5.67,19.56,122.09,122.09,0,0,1-8,16.23c-.72,1.2-1.41,2.39-2.11,3.52s-1.44,2.22-2.13,3.28l-1,1.58-1.06,1.49c-.7,1-1.37,1.94-2,2.86-2.69,3.64-5.11,6.74-7.21,9.21s-3.77,4.38-4.91,5.68l-1.77,2,1.69-2.06c1.09-1.35,2.75-3.27,4.68-5.87s4.28-5.74,6.8-9.47l1.9-2.91q.49-.75,1-1.53c.32-.53.64-1.06,1-1.61.64-1.08,1.31-2.19,2-3.33s1.28-2.36,1.94-3.57a118.47,118.47,0,0,0,7.26-16.3,98.86,98.86,0,0,0,4.77-19.26,85.49,85.49,0,0,0,.28-21.11c-.06-.9-.23-1.79-.35-2.68s-.24-1.79-.42-2.68c-.36-1.77-.67-3.56-1.15-5.32a86.7,86.7,0,0,0-3.26-10.42l-1-2.54c-.32-.85-.73-1.67-1.09-2.51-.72-1.67-1.56-3.29-2.36-4.92-1.71-3.2-3.48-6.36-5.47-9.35l-.73-1.13-.76-1.11-1.52-2.2c-1.07-1.43-2.09-2.87-3.19-4.24-2.15-2.79-4.43-5.42-6.71-8A166.79,166.79,0,0,0,1819,202.52c-4.73-4.13-9.41-7.78-13.84-11a217.27,217.27,0,0,0-22.25-14.2c-2.77-1.54-5-2.68-6.48-3.43l-1.7-.84-.57-.26Z" transform="translate(0 -59.12)"/><path class="cls-17" d="M1741.44,172.67a2,2,0,0,0,2.36-1.45l4.15-17.29a2,2,0,0,0-1.45-2.36h0a2,2,0,0,0-2.36,1.45L1740,170.31a2,2,0,0,0,1.45,2.36Z" transform="translate(0 -59.12)"/><path class="cls-18" d="M1730.3,170.86c5,5.84,10.87,13.9,19.42,17.42l-.92,3.88-27.53-1.6c-6.5-.39-7.88-3.05-7.88-3.05l-14.49-17.95S1725.18,164.9,1730.3,170.86Z" transform="translate(0 -59.12)"/><path class="cls-18" d="M1727.88,126.64s2.44-1.75,8.41.83l25.3,11-.92,3.88c-9.23-.72-18.08,3.84-25.19,6.79-7.26,3-28.62-13-28.62-13Z" transform="translate(0 -59.12)"/><path class="cls-19" d="M1631.92,135.59l0-.12.13,0a64.89,64.89,0,0,1,22.84-13.37c23.61-7.4,91.21,26.49,91.21,26.49L1742.85,162l-3.17,13.39s-75.61-.21-93.36-17.46A64.72,64.72,0,0,1,1632,135.7l-.13,0A.6.6,0,0,1,1631.92,135.59Z" transform="translate(0 -59.12)"/><path class="cls-18" d="M1644.42,155.88a56.35,56.35,0,0,1-12.54-20.38A56.46,56.46,0,0,1,1652.3,123c1-.34,2-.65,3-.93a53.31,53.31,0,0,1-8.53,36.08C1646,157.43,1645.17,156.66,1644.42,155.88Z" transform="translate(0 -59.12)"/><path class="cls-16" d="M1789.47,173.24s-50.68,16.66-44.14-10.55S1789.47,173.24,1789.47,173.24Z" transform="translate(0 -59.12)"/><path class="cls-18" d="M1741.47,158.05a16.58,16.58,0,0,1,4.1,1.11c.49.26,7.13,3.44,10.84,5.21l-.44,1.84c-4.11-.09-11.47-.25-12-.23a16.35,16.35,0,0,1-4.16-.87,37.1,37.1,0,0,1-3.4-2.76l.8-3.36A38.93,38.93,0,0,1,1741.47,158.05Z" transform="translate(0 -59.12)"/><path class="cls-15" d="M1716.42,157.59a6.25,6.25,0,1,1-4.62-7.52,6.22,6.22,0,0,1,4.62,7.52Z" transform="translate(0 -59.12)"/><path class="cls-15" d="M1687.47,150.68a6.35,6.35,0,0,0,12.35,3h0a6.35,6.35,0,0,0-4.7-7.64,6.35,6.35,0,0,0-7.65,4.69Z" transform="translate(0 -59.12)"/><path class="cls-15" d="M1675.47,154.32a6.34,6.34,0,0,0,7.62-4.67h0a6.32,6.32,0,0,0-4.68-7.6,6.32,6.32,0,0,0-7.61,4.67A6.33,6.33,0,0,0,1675.47,154.32Z" transform="translate(0 -59.12)"/><path class="cls-16" d="M577.27,114.08a55.12,55.12,0,0,0-59-54.83c-28.6,2-50.61,26.9-50.27,55.56.25,20.24,10.89,37.83,28.33,47.14a19.38,19.38,0,0,1,10.17,17v.78h33v-.78a20.84,20.84,0,0,1,10.12-17.48C565.34,151.89,577.27,134.26,577.27,114.08Z" transform="translate(0 -59.12)"/><path class="cls-20" d="M518.27,59.25a52.26,52.26,0,0,0-10.9,1.94c.86-.06,1.73-.1,2.6-.1a39.76,39.76,0,1,1-39.76,39.76c0-.77,0-1.54.08-2.31A54.7,54.7,0,0,0,468,114.81c.25,20.24,10.89,37.83,28.33,47.14a19.38,19.38,0,0,1,10.17,17v.78h33v-.78a20.84,20.84,0,0,1,10.12-17.48c15.67-9.55,27.39-27.18,27.39-47.36A54.94,54.94,0,0,0,518.27,59.25Z" transform="translate(0 -59.12)"/><path class="cls-21" d="M523,183.59a4.51,4.51,0,0,1-4.5-4.54V133.12a4.51,4.51,0,1,1,9,0v45.93A4.51,4.51,0,0,1,523,183.59Z" transform="translate(0 -59.12)"/><path class="cls-15" d="M485.67,129.88a6.05,6.05,0,0,1-5.81-4.38,35.44,35.44,0,0,1-1.3-7.32,6.05,6.05,0,0,1,12.08-.79,23.25,23.25,0,0,0,.85,4.78,6,6,0,0,1-5.82,7.71Z" transform="translate(0 -59.12)"/><path class="cls-15" d="M486.62,106.52A6.07,6.07,0,0,1,481,98.24a40.49,40.49,0,0,1,13-17.19,6,6,0,0,1,7,9.89,28.77,28.77,0,0,0-8.67,11.75A6.05,6.05,0,0,1,486.62,106.52Z" transform="translate(0 -59.12)"/><rect class="cls-22" x="494.48" y="117.58" width="57.09" height="33.05" rx="6"/><path class="cls-23" d="M995.73,211.86,979.2,293.93a9.2,9.2,0,0,1-10.81,7.2L886.33,284.6a8.65,8.65,0,0,1-2.58-.94h0a9.21,9.21,0,0,1-4.59-9.87l16.53-82.08a9.17,9.17,0,0,1,10.81-7.17l82,16.53A9.16,9.16,0,0,1,995.73,211.86Z" transform="translate(0 -59.12)"/><path class="cls-24" d="M1002.55,213.24,986,295.31a9.19,9.19,0,0,1-10.82,7.19l-82-16.52a8.73,8.73,0,0,1-2.58-.94h0a9.2,9.2,0,0,1-4.59-9.87l16.53-82.07a9.17,9.17,0,0,1,10.81-7.17l82.05,16.52A9.17,9.17,0,0,1,1002.55,213.24Z" transform="translate(0 -59.12)"/><text class="cls-25" transform="translate(903.11 184.49) rotate(11.38)">R<tspan class="cls-26" x="20.12" y="0">e</tspan><tspan class="cls-27" x="36.83" y="0">a</tspan><tspan class="cls-28" x="53.68" y="0">c</tspan><tspan class="cls-29" x="69.87" y="0">t</tspan></text><path class="cls-30" d="M1037.38,119.12l5,70.07a7.72,7.72,0,0,1-7.14,8.24l-70,5a7.29,7.29,0,0,1-2.3-.18h0a7.71,7.71,0,0,1-5.92-7l-5-70.07A7.7,7.7,0,0,1,959.1,117l70-5A7.7,7.7,0,0,1,1037.38,119.12Z" transform="translate(0 -59.12)"/><path class="cls-18" d="M1043.21,118.7l5,70.07a7.71,7.71,0,0,1-7.13,8.24l-70,5a7.62,7.62,0,0,1-2.3-.19h0a7.71,7.71,0,0,1-5.92-6.95l-5-70.07a7.71,7.71,0,0,1,7.14-8.22l70.05-5A7.7,7.7,0,0,1,1043.21,118.7Z" transform="translate(0 -59.12)"/><text class="cls-31" transform="translate(966.08 108.73) rotate(-4.1)"><tspan class="cls-32">S</tspan><tspan x="17.92" y="0">wift</tspan></text><path class="cls-33" d="M939.55,100.18l-6.7,45.68a5.08,5.08,0,0,1-5.76,4.28l-45.67-6.7A4.85,4.85,0,0,1,880,143h0a5.07,5.07,0,0,1-2.81-5.3L883.85,92a5.07,5.07,0,0,1,5.75-4.26l45.67,6.7A5.07,5.07,0,0,1,939.55,100.18Z" transform="translate(0 -59.12)"/><path class="cls-13" d="M943.35,100.74l-6.71,45.68a5.07,5.07,0,0,1-5.75,4.28L885.22,144a4.85,4.85,0,0,1-1.44-.45h0a5.07,5.07,0,0,1-2.81-5.3l6.7-45.69a5,5,0,0,1,5.74-4.26L939.07,95A5.07,5.07,0,0,1,943.35,100.74Z" transform="translate(0 -59.12)"/><text class="cls-34" transform="matrix(0.99, 0.15, -0.15, 0.99, 888.61, 64.18)"><tspan class="cls-35">P</tspan><tspan x="14.66" y="0">HP</tspan></text><path class="cls-13" d="M1195,234.15l-.93-2.69-.94,2.69a9.39,9.39,0,0,1-5.21,5.3h0a9.38,9.38,0,0,1,5.21,5.31l.94,2.68.93-2.68a9.41,9.41,0,0,1,5.21-5.31h0A9.42,9.42,0,0,1,1195,234.15Z" transform="translate(0 -59.12)"/><g class="cls-36"><polygon class="cls-37" points="799.08 679.12 754.84 679.12 754.84 411.31 759.28 411.31 759.28 674.67 794.63 674.67 794.63 411.31 799.08 411.31 799.08 679.12"/><rect class="cls-37" x="757.06" y="634.72" width="39.79" height="4.44"/><rect class="cls-37" x="774.74" y="687.84" width="4.45" height="56.39" transform="translate(-278.83 697.9) rotate(-44.89)"/><rect class="cls-37" x="757.06" y="594.77" width="39.79" height="4.44"/><rect class="cls-37" x="774.74" y="647.89" width="4.45" height="56.39" transform="translate(-250.64 686.25) rotate(-44.89)"/><rect class="cls-37" x="757.06" y="554.82" width="39.79" height="4.44"/><rect class="cls-37" x="774.74" y="607.94" width="4.45" height="56.39" transform="translate(-222.44 674.61) rotate(-44.89)"/><rect class="cls-37" x="757.06" y="514.86" width="39.79" height="4.44"/><rect class="cls-37" x="774.74" y="567.99" width="4.44" height="56.39" transform="translate(-194.25 662.95) rotate(-44.89)"/><rect class="cls-37" x="757.06" y="474.91" width="39.79" height="4.44"/><rect class="cls-37" x="774.74" y="528.03" width="4.44" height="56.39" transform="translate(-166.06 651.31) rotate(-44.89)"/><rect class="cls-37" x="774.74" y="488.08" width="4.44" height="56.39" transform="translate(-137.86 639.67) rotate(-44.89)"/><rect class="cls-37" x="748.76" y="713.82" width="56.39" height="4.45" transform="translate(-278.66 702.16) rotate(-45.12)"/><rect class="cls-37" x="748.76" y="673.86" width="56.39" height="4.45" transform="translate(-250.35 690.4) rotate(-45.12)"/><rect class="cls-37" x="748.76" y="633.91" width="56.39" height="4.45" transform="translate(-222.04 678.64) rotate(-45.12)"/><rect class="cls-37" x="748.76" y="593.96" width="56.39" height="4.44" transform="translate(-193.73 666.88) rotate(-45.12)"/><rect class="cls-37" x="748.76" y="554.01" width="56.39" height="4.44" transform="translate(-165.37 655.45) rotate(-45.14)"/><rect class="cls-37" x="748.76" y="514.05" width="56.39" height="4.44" transform="translate(-137.05 643.68) rotate(-45.14)"/></g><g class="cls-36"><polygon class="cls-37" points="213.25 679.24 171.73 679.24 171.73 410.58 176.17 410.58 176.17 674.79 208.81 674.79 208.81 410.58 213.25 410.58 213.25 679.24"/><rect class="cls-37" x="173.95" y="637.56" width="37.08" height="4.44"/><rect class="cls-37" x="190.27" y="691.25" width="4.44" height="52.55" transform="translate(-450.24 285.86) rotate(-44.89)"/><rect class="cls-37" x="173.95" y="600.34" width="37.08" height="4.44"/><rect class="cls-37" x="190.27" y="654.02" width="4.44" height="52.54" transform="translate(-423.98 275.03) rotate(-44.89)"/><rect class="cls-37" x="173.95" y="563.11" width="37.08" height="4.44"/><rect class="cls-37" x="190.27" y="616.79" width="4.44" height="52.55" transform="translate(-397.7 264.16) rotate(-44.89)"/><rect class="cls-37" x="173.95" y="525.88" width="37.08" height="4.44"/><rect class="cls-37" x="190.27" y="579.56" width="4.44" height="52.55" transform="translate(-371.42 253.31) rotate(-44.89)"/><rect class="cls-37" x="173.95" y="488.65" width="37.08" height="4.44"/><rect class="cls-37" x="190.27" y="542.33" width="4.44" height="52.55" transform="translate(-345.15 242.45) rotate(-44.88)"/><rect class="cls-37" x="190.27" y="505.1" width="4.44" height="52.55" transform="translate(-318.88 231.6) rotate(-44.89)"/><rect class="cls-37" x="166.22" y="715.3" width="52.55" height="4.44" transform="translate(-451.61 288.24) rotate(-45.1)"/><rect class="cls-37" x="166.22" y="678.07" width="52.54" height="4.44" transform="translate(-425.26 277.31) rotate(-45.1)"/><rect class="cls-37" x="166.22" y="640.84" width="52.55" height="4.44" transform="translate(-398.89 266.36) rotate(-45.1)"/><rect class="cls-37" x="166.22" y="603.61" width="52.55" height="4.44" transform="translate(-372.51 255.41) rotate(-45.1)"/><rect class="cls-37" x="166.22" y="566.38" width="52.55" height="4.44" transform="translate(-346.18 244.54) rotate(-45.11)"/><rect class="cls-37" x="166.22" y="529.15" width="52.55" height="4.44" transform="translate(-319.86 233.69) rotate(-45.12)"/></g><g class="cls-36"><polygon class="cls-37" points="401.61 620.68 351.17 620.68 351.17 324 355.61 324 355.61 616.24 397.17 616.24 397.17 287.96 401.61 287.96 401.61 620.68"/><rect class="cls-37" x="353.39" y="570.05" width="46" height="4.44"/><rect class="cls-37" x="374.17" y="621.9" width="4.44" height="65.18" transform="translate(-352.16 397.27) rotate(-44.89)"/><rect class="cls-37" x="353.39" y="523.87" width="46" height="4.44"/><rect class="cls-37" x="374.17" y="575.71" width="4.44" height="65.18" transform="translate(-319.56 383.8) rotate(-44.88)"/><rect class="cls-37" x="353.39" y="477.69" width="46" height="4.44"/><rect class="cls-37" x="374.17" y="529.53" width="4.44" height="65.18" transform="translate(-286.98 370.35) rotate(-44.89)"/><rect class="cls-37" x="353.39" y="431.51" width="46" height="4.44"/><rect class="cls-37" x="374.17" y="483.35" width="4.44" height="65.18" transform="translate(-254.39 356.89) rotate(-44.89)"/><rect class="cls-37" x="353.39" y="385.33" width="46" height="4.44"/><rect class="cls-37" x="374.17" y="437.17" width="4.44" height="65.18" transform="translate(-221.8 343.42) rotate(-44.89)"/><rect class="cls-37" x="374.17" y="390.99" width="4.44" height="65.18" transform="translate(-189.21 329.97) rotate(-44.89)"/><rect class="cls-37" x="343.8" y="652.26" width="65.18" height="4.44" transform="translate(-352.89 399.99) rotate(-45.1)"/><rect class="cls-37" x="343.8" y="606.08" width="65.18" height="4.44" transform="translate(-320.18 386.4) rotate(-45.1)"/><rect class="cls-37" x="343.8" y="559.9" width="65.18" height="4.44" transform="translate(-287.51 373.06) rotate(-45.12)"/><rect class="cls-37" x="343.8" y="513.72" width="65.18" height="4.44" transform="translate(-254.79 359.46) rotate(-45.12)"/><rect class="cls-37" x="343.8" y="467.54" width="65.18" height="4.44" transform="translate(-222.06 345.85) rotate(-45.12)"/><rect class="cls-37" x="343.8" y="421.36" width="65.18" height="4.44" transform="translate(-189.34 332.27) rotate(-45.12)"/></g><g class="cls-36"><rect class="cls-37" x="127.26" y="414.09" width="292.86" height="4.44"/></g><g class="cls-36"><rect class="cls-37" x="449.8" y="459.94" width="292.86" height="4.44"/></g><rect class="cls-15" x="390.73" y="627.3" width="162.71" height="54.89"/><rect class="cls-38" x="390.73" y="627.3" width="162.71" height="21.55"/><rect class="cls-15" x="300.07" y="412.57" width="343.81" height="214.73" rx="11.23"/><path class="cls-19" d="M303.15,412.57H640.79a3.08,3.08,0,0,1,3.08,3.08V580.74a0,0,0,0,1,0,0H300.07a0,0,0,0,1,0,0V415.65A3.08,3.08,0,0,1,303.15,412.57Z"/><rect class="cls-39" x="388.51" y="627.3" width="4.44" height="54.9"/><rect class="cls-39" x="550.55" y="627.3" width="4.44" height="54.9"/><rect class="cls-40" x="317.94" y="428.28" width="307.67" height="152.47"/><path class="cls-19" d="M630.66,689.06H313.39a13.35,13.35,0,0,1-13.33-13.33v-38H644v38A13.35,13.35,0,0,1,630.66,689.06ZM304.51,642.18v33.55a8.89,8.89,0,0,0,8.88,8.89H630.66a8.89,8.89,0,0,0,8.88-8.89V642.17Z" transform="translate(0 -59.12)"/><rect class="cls-41" x="463.91" y="543.51" width="366.77" height="29.7" rx="0.42" transform="translate(1205.65 -148.06) rotate(90)"/><rect class="cls-42" x="632.45" y="537.57" width="12.18" height="4.44"/><rect class="cls-42" x="632.45" y="553.36" width="12.18" height="4.44"/><rect class="cls-42" x="632.45" y="521.79" width="12.18" height="4.44"/><rect class="cls-42" x="632.45" y="506" width="12.18" height="4.44"/><rect class="cls-42" x="632.45" y="490.22" width="12.18" height="4.44"/><rect class="cls-42" x="632.45" y="474.43" width="12.18" height="4.44"/><rect class="cls-42" x="632.45" y="458.65" width="12.18" height="4.44"/><rect class="cls-42" x="632.45" y="442.86" width="12.18" height="4.44"/><rect class="cls-42" x="632.45" y="427.08" width="12.18" height="4.44"/><rect class="cls-42" x="632.45" y="411.29" width="12.18" height="4.44"/><rect class="cls-42" x="632.45" y="395.51" width="12.18" height="4.44"/><rect class="cls-42" x="632.45" y="379.72" width="12.18" height="4.44"/><rect class="cls-42" x="632.45" y="363.94" width="12.18" height="4.44"/><rect class="cls-42" x="632.45" y="348.15" width="12.18" height="4.44"/><rect class="cls-42" x="632.45" y="332.37" width="12.18" height="4.44"/><rect class="cls-42" x="632.45" y="569.14" width="12.18" height="4.44"/><rect class="cls-42" x="632.45" y="584.92" width="12.18" height="4.44"/><rect class="cls-42" x="632.45" y="600.71" width="12.18" height="4.44"/><rect class="cls-42" x="632.45" y="616.5" width="12.18" height="4.44"/><rect class="cls-42" x="632.45" y="632.28" width="12.18" height="4.44"/><rect class="cls-42" x="632.45" y="648.07" width="12.18" height="4.44"/><rect class="cls-42" x="632.45" y="663.85" width="12.18" height="4.44"/><polygon class="cls-43" points="662.14 395.32 662.14 367.23 632.45 367.23 632.45 368.38 632.45 368.38 632.45 379.72 632.45 379.72 632.45 384.16 632.45 384.16 632.45 395.32 662.14 395.32"/><path class="cls-18" d="M728.41,422.54v24.6a1.75,1.75,0,0,1-1.75,1.75H418.82L398.5,435.83a1.35,1.35,0,0,1,0-2.46l20.32-12.58H726.66A1.75,1.75,0,0,1,728.41,422.54Z" transform="translate(0 -59.12)"/><path class="cls-43" d="M728.41,438.46a1.75,1.75,0,0,1-1.75,1.75H418.82l-15.39-9.89-4.93,3.05a1.35,1.35,0,0,0,0,2.46l20.32,13.06H726.66a1.75,1.75,0,0,0,1.75-1.75Z" transform="translate(0 -59.12)"/><path class="cls-15" d="M421.6,420.79v28.1h-2.77L398.5,435.83a1.35,1.35,0,0,1,0-2.46l20.32-12.58Z" transform="translate(0 -59.12)"/><path class="cls-42" d="M404.34,429.76l-5.84,3.61a1.35,1.35,0,0,0,0,2.46l5.84,3.75Z" transform="translate(0 -59.12)"/><rect class="cls-42" x="419.41" y="361.67" width="4.44" height="28.1"/><path class="cls-15" d="M726.66,420.79h-26v28.1h26a1.75,1.75,0,0,0,1.75-1.75v-24.6A1.75,1.75,0,0,0,726.66,420.79Z" transform="translate(0 -59.12)"/><rect class="cls-44" x="699.06" y="361.67" width="4.44" height="28.1"/><rect class="cls-42" x="436.38" y="502.05" width="4.58" height="4.44"/><rect class="cls-42" x="447.8" y="502.05" width="4.58" height="4.44"/><rect class="cls-42" x="459.22" y="502.05" width="4.58" height="4.44"/><rect class="cls-42" x="470.64" y="502.05" width="4.58" height="4.44"/><rect class="cls-42" x="482.07" y="502.05" width="4.58" height="4.44"/><rect class="cls-42" x="493.49" y="502.05" width="4.58" height="4.44"/><rect class="cls-42" x="504.91" y="502.05" width="4.58" height="4.44"/><rect class="cls-42" x="436.04" y="548.15" width="4.44" height="4.58"/><rect class="cls-42" x="436.04" y="536.72" width="4.44" height="4.58"/><rect class="cls-42" x="436.04" y="525.3" width="4.44" height="4.58"/><rect class="cls-42" x="436.04" y="513.88" width="4.44" height="4.58"/><rect class="cls-42" x="504.98" y="548.15" width="4.44" height="4.58"/><rect class="cls-42" x="504.98" y="536.72" width="4.44" height="4.58"/><rect class="cls-42" x="504.98" y="525.3" width="4.44" height="4.58"/><rect class="cls-42" x="504.98" y="513.88" width="4.44" height="4.58"/><rect class="cls-42" x="435.52" y="558.89" width="4.58" height="4.44"/><rect class="cls-42" x="446.94" y="558.89" width="4.58" height="4.44"/><rect class="cls-42" x="458.36" y="558.89" width="4.58" height="4.44"/><rect class="cls-42" x="469.79" y="558.89" width="4.58" height="4.44"/><rect class="cls-42" x="481.21" y="558.89" width="4.58" height="4.44"/><rect class="cls-42" x="492.63" y="558.89" width="4.58" height="4.44"/><rect class="cls-42" x="504.05" y="558.89" width="4.58" height="4.44"/><rect class="cls-45" x="334.06" y="504.27" width="78.08" height="62.15"/><rect class="cls-46" x="334.06" y="440.64" width="276.89" height="54.16"/><rect class="cls-45" x="532.88" y="504.27" width="78.08" height="62.15"/><path class="cls-13" d="M485.14,547.15l-66.07,18.79a.36.36,0,0,0-.24.43l14.95,52.53a1.88,1.88,0,0,0,2.32,1.29l63.12-18a1.88,1.88,0,0,0,1.29-2.32l-14.95-52.53A.33.33,0,0,0,485.14,547.15Z" transform="translate(0 -59.12)"/><path class="cls-47" d="M429.94,571.92a.34.34,0,0,1,.24-.42l57.58-16.39-2.2-7.73a.33.33,0,0,0-.42-.23l-66.07,18.79a.36.36,0,0,0-.24.43l14.95,52.53a1.88,1.88,0,0,0,2.32,1.29l7-2Z" transform="translate(0 -59.12)"/><polygon class="cls-42" points="487.22 489.2 483.47 486.82 483.7 486.46 483.7 361.67 488.14 361.67 488.14 487.75 487.22 489.2"/><polygon class="cls-42" points="419.73 506.64 419.21 504.51 419.21 374.2 423.66 374.2 423.66 504.2 424 505.42 419.73 506.64"/><path class="cls-48" d="M387.44,634.52h1.15V611.87a2.79,2.79,0,0,0-2.78-2.79H334.07v72.65h0v38A13.34,13.34,0,0,0,346.5,733h40.94Z" transform="translate(0 -59.12)"/><path class="cls-15" d="M380.78,733h-122V611.87a.56.56,0,0,1,.56-.56H380.22a.56.56,0,0,1,.56.56Z" transform="translate(0 -59.12)"/><rect class="cls-18" x="258.46" y="552.19" width="122.57" height="20.99" rx="0.45"/><rect class="cls-15" x="271.06" y="559.69" width="4.59" height="4.44"/><rect class="cls-15" x="280.54" y="559.69" width="4.59" height="4.44"/><rect class="cls-15" x="290.02" y="559.69" width="4.59" height="4.44"/><path class="cls-49" d="M333.36,670.63l-22.61,13a.62.62,0,0,1-.94-.54V657a.63.63,0,0,1,.94-.55l22.61,13.06a.63.63,0,0,1,0,1.09l-22.61,13a.62.62,0,0,1-.94-.54V657a.63.63,0,0,1,.94-.55l22.61,13.06A.63.63,0,0,1,333.36,670.63Z" transform="translate(0 -59.12)"/><path class="cls-39" d="M370.11,714.76H365.7v-4.44h4.41Zm-8.83,0h-4.41v-4.44h4.41Zm-8.82,0h-4.41v-4.44h4.41Zm-8.82,0h-4.41v-4.44h4.41Zm-8.82,0h-4.41v-4.44h4.41Zm-8.82,0h-4.42v-4.44H326Zm-8.83,0h-4.41v-4.44h4.41Z" transform="translate(0 -59.12)"/><rect class="cls-39" x="272.72" y="651.2" width="34.02" height="4.44"/><rect class="cls-39" x="303.14" y="647.3" width="4.44" height="12.24"/><path class="cls-42" d="M287.43,772.48H283v-3.26a17.72,17.72,0,0,1,17.7-17.7h69.08a17.72,17.72,0,0,1,17.7,17.7H383A13.27,13.27,0,0,0,369.76,756H300.68a13.26,13.26,0,0,0-13.25,13.25Z" transform="translate(0 -59.12)"/><rect class="cls-50" x="149.19" y="689.46" width="35.96" height="2.22"/><rect class="cls-42" x="261.72" y="688.35" width="120.4" height="4.44"/><rect class="cls-21" x="125.07" y="675.87" width="278.63" height="12.35"/><rect class="cls-51" x="100.41" y="760.42" width="79.28" height="12.28" transform="translate(280.1 1473.99) rotate(180)"/><path class="cls-52" d="M65.22,704.62a.91.91,0,0,1,.81-.5h38.36a.89.89,0,0,1,.89.89V772.7H50.65a.74.74,0,0,1-.74-.74V734.77Z" transform="translate(0 -59.12)"/><path class="cls-53" d="M104.39,704.12H98.83a.89.89,0,0,1,.89.89V772.7h5.56V705A.89.89,0,0,0,104.39,704.12Z" transform="translate(0 -59.12)"/><path class="cls-54" d="M140.72,772.7a11.86,11.86,0,1,0,11.86-11.86A11.86,11.86,0,0,0,140.72,772.7Z" transform="translate(0 -59.12)"/><path class="cls-55" d="M147.22,772.7a5.36,5.36,0,1,0,5.36-5.35A5.36,5.36,0,0,0,147.22,772.7Z" transform="translate(0 -59.12)"/><g class="cls-56"><path class="cls-50" d="M152.58,767.35a5.34,5.34,0,0,1,4.6,2.65,5.29,5.29,0,0,0-2.7-.75,5.34,5.34,0,0,0-5.35,5.35,5.29,5.29,0,0,0,.75,2.7,5.33,5.33,0,0,1,2.7-9.95Z" transform="translate(0 -59.12)"/></g><path class="cls-54" d="M67.77,772.7a11.86,11.86,0,1,0,11.85-11.86A11.85,11.85,0,0,0,67.77,772.7Z" transform="translate(0 -59.12)"/><path class="cls-57" d="M152.58,786.78a14.08,14.08,0,1,1,14.08-14.08A14.09,14.09,0,0,1,152.58,786.78Zm0-23.72a9.64,9.64,0,1,0,9.63,9.64A9.65,9.65,0,0,0,152.58,763.06Z" transform="translate(0 -59.12)"/><path class="cls-54" d="M170.84,772.32a11.86,11.86,0,1,0,11.86-11.86A11.86,11.86,0,0,0,170.84,772.32Z" transform="translate(0 -59.12)"/><path class="cls-55" d="M177.35,772.32A5.35,5.35,0,1,0,182.7,767,5.35,5.35,0,0,0,177.35,772.32Z" transform="translate(0 -59.12)"/><g class="cls-56"><path class="cls-50" d="M182.7,767a5.33,5.33,0,0,1,4.6,2.65,5.33,5.33,0,0,0-8.05,4.6,5.3,5.3,0,0,0,.76,2.7A5.33,5.33,0,0,1,182.7,767Z" transform="translate(0 -59.12)"/></g><path class="cls-57" d="M182.7,786.4a14.08,14.08,0,1,1,14.08-14.08A14.1,14.1,0,0,1,182.7,786.4Zm0-23.72a9.64,9.64,0,1,0,9.64,9.64A9.66,9.66,0,0,0,182.7,762.68Z" transform="translate(0 -59.12)"/><path class="cls-54" d="M294.26,772.48a11.86,11.86,0,1,0,11.86-11.86A11.86,11.86,0,0,0,294.26,772.48Z" transform="translate(0 -59.12)"/><path class="cls-55" d="M300.77,772.48a5.35,5.35,0,1,0,5.35-5.36A5.35,5.35,0,0,0,300.77,772.48Z" transform="translate(0 -59.12)"/><path class="cls-43" d="M306.12,767.12a5.34,5.34,0,0,0-2.7,10A5.33,5.33,0,0,1,308,769a5.29,5.29,0,0,1,2.7.75A5.34,5.34,0,0,0,306.12,767.12Z" transform="translate(0 -59.12)"/><path class="cls-57" d="M306.12,786.56a14.08,14.08,0,1,1,14.08-14.08A14.1,14.1,0,0,1,306.12,786.56Zm0-23.72a9.64,9.64,0,1,0,9.64,9.64A9.65,9.65,0,0,0,306.12,762.84Z" transform="translate(0 -59.12)"/><path class="cls-54" d="M324.74,773.21a11.86,11.86,0,1,0,11.86-11.86A11.86,11.86,0,0,0,324.74,773.21Z" transform="translate(0 -59.12)"/><path class="cls-55" d="M331.24,773.21a5.36,5.36,0,1,0,5.36-5.35A5.35,5.35,0,0,0,331.24,773.21Z" transform="translate(0 -59.12)"/><path class="cls-43" d="M336.6,767.86a5.33,5.33,0,0,0-2.7,9.95,5.32,5.32,0,0,1,7.29-7.3A5.32,5.32,0,0,0,336.6,767.86Z" transform="translate(0 -59.12)"/><path class="cls-57" d="M336.6,787.29a14.08,14.08,0,1,1,14.08-14.08A14.1,14.1,0,0,1,336.6,787.29Zm0-23.72a9.64,9.64,0,1,0,9.63,9.64A9.65,9.65,0,0,0,336.6,763.57Z" transform="translate(0 -59.12)"/><path class="cls-54" d="M354.62,773.21a11.86,11.86,0,1,0,11.86-11.86A11.86,11.86,0,0,0,354.62,773.21Z" transform="translate(0 -59.12)"/><path class="cls-55" d="M361.13,773.21a5.36,5.36,0,1,0,5.35-5.35A5.35,5.35,0,0,0,361.13,773.21Z" transform="translate(0 -59.12)"/><path class="cls-43" d="M366.48,767.86a5.33,5.33,0,0,0-2.69,9.95,5.3,5.3,0,0,1-.76-2.7,5.32,5.32,0,0,1,8.05-4.6A5.33,5.33,0,0,0,366.48,767.86Z" transform="translate(0 -59.12)"/><path class="cls-57" d="M366.48,787.29a14.08,14.08,0,1,1,14.08-14.08A14.1,14.1,0,0,1,366.48,787.29Zm0-23.72a9.64,9.64,0,1,0,9.64,9.64A9.65,9.65,0,0,0,366.48,763.57Z" transform="translate(0 -59.12)"/><path class="cls-57" d="M79.63,786.78A14.08,14.08,0,1,1,93.7,772.7,14.1,14.1,0,0,1,79.63,786.78Zm0-23.72a9.64,9.64,0,1,0,9.63,9.64A9.65,9.65,0,0,0,79.63,763.06Z" transform="translate(0 -59.12)"/><path class="cls-13" d="M65.22,704.62a.91.91,0,0,1,.81-.5H85.8l.11.08v29H50.69Z" transform="translate(0 -59.12)"/><g class="cls-58"><path class="cls-15" d="M72.7,704.12H66a.91.91,0,0,0-.81.5L50.69,733.23h6.66l14.54-28.61A.89.89,0,0,1,72.7,704.12Z" transform="translate(0 -59.12)"/></g><polygon class="cls-57" points="88.13 676.33 51.28 676.33 50.04 675.83 51.68 671.71 52.14 671.89 83.69 671.89 83.69 645.08 88.13 645.08 88.13 676.33"/><rect class="cls-42" x="82.01" y="684.13" width="7.36" height="4.44"/><rect class="cls-42" x="49.91" y="693.38" width="9.96" height="4.44"/><path class="cls-55" d="M74.27,772.7a5.36,5.36,0,1,0,5.35-5.36A5.36,5.36,0,0,0,74.27,772.7Z" transform="translate(0 -59.12)"/><g class="cls-56"><path class="cls-50" d="M79.62,767.34a5.34,5.34,0,0,1,4.6,2.66,5.25,5.25,0,0,0-2.69-.75,5.35,5.35,0,0,0-5.36,5.35,5.3,5.3,0,0,0,.76,2.7,5.34,5.34,0,0,1,2.69-10Z" transform="translate(0 -59.12)"/></g><rect class="cls-42" x="105.28" y="698.21" width="32.4" height="4.44"/><rect class="cls-42" x="97.71" y="711.36" width="37.79" height="4.44"/><path class="cls-42" d="M135.79,773.21h-4.44V770a17.72,17.72,0,0,1,17.7-17.7h35.7a17.72,17.72,0,0,1,17.7,17.7H198a13.28,13.28,0,0,0-13.26-13.26h-35.7A13.28,13.28,0,0,0,135.79,770Z" transform="translate(0 -59.12)"/><path class="cls-59" d="M294.08,666.52H216.39a2.61,2.61,0,0,0-2.61,2.61v62a4.13,4.13,0,0,0,4.13,4.13h74.65a4.14,4.14,0,0,0,4.13-4.13v-62A2.61,2.61,0,0,0,294.08,666.52Z" transform="translate(0 -59.12)"/><path class="cls-15" d="M289.64,668.74H212a.39.39,0,0,0-.39.39V730.9a2.12,2.12,0,0,0,2.12,2.12H287.9A2.12,2.12,0,0,0,290,730.9V669.13A.39.39,0,0,0,289.64,668.74Z" transform="translate(0 -59.12)"/><path class="cls-18" d="M289.64,668.74H212a.36.36,0,0,0-.39.32v49.62H290V669.06A.36.36,0,0,0,289.64,668.74Z" transform="translate(0 -59.12)"/><g class="cls-58"><path class="cls-15" d="M220.85,679.28a.36.36,0,0,1,.39-.32H290v-9.9a.36.36,0,0,0-.38-.32H212a.36.36,0,0,0-.39.32v49.62h9.29Z" transform="translate(0 -59.12)"/></g><path class="cls-15" d="M265.65,719A16.53,16.53,0,0,0,237,707.76,16.52,16.52,0,0,0,211.63,709l0,10.14h34.8Z" transform="translate(0 -59.12)"/><path class="cls-42" d="M243.6,719h-4.45a14.32,14.32,0,0,0-25.75-8.62l-3.55-2.68A18.77,18.77,0,0,1,243.6,719Z" transform="translate(0 -59.12)"/><path class="cls-42" d="M267.87,719h-4.44a14.32,14.32,0,0,0-24.84-9.72l-3.26-3A18.76,18.76,0,0,1,267.87,719Z" transform="translate(0 -59.12)"/><path class="cls-60" d="M275.69,684.7a7.28,7.28,0,1,1-7.27-7.27A7.28,7.28,0,0,1,275.69,684.7Z" transform="translate(0 -59.12)"/><rect class="cls-15" x="269.71" y="649.37" width="14.11" height="4.44"/><rect class="cls-42" x="211.65" y="657.82" width="78.37" height="4.44"/><path class="cls-61" d="M203.31,666.52H177.94a2.61,2.61,0,0,0-2.6,2.61v62a4.14,4.14,0,0,0,.49,1.91h42.11a.42.42,0,0,0,.42-.42V710.55a.42.42,0,0,0-.42-.42H203.31V666.52Z" transform="translate(0 -59.12)"/><path class="cls-15" d="M231.11,620.72H139.66a.66.66,0,0,0-.65.66v91.33h92.75V621.38A.66.66,0,0,0,231.11,620.72Z" transform="translate(0 -59.12)"/><path class="cls-62" d="M231.11,620.72h-7.74a.66.66,0,0,1,.65.66v91.33h7.74V621.38A.66.66,0,0,0,231.11,620.72Z" transform="translate(0 -59.12)"/><path class="cls-15" d="M184.64,650.35l-8.08-4.59a.37.37,0,0,0-.51.34v11.53l-8,3.75-8-3.75V646.1a.36.36,0,0,0-.5-.34l-8.08,4.59a.16.16,0,0,0-.09.15v14.66a.24.24,0,0,0,.12.21l10,5v41.5h13.66V669.93l9.34-4.56a.24.24,0,0,0,.12-.21V650.5A.19.19,0,0,0,184.64,650.35Z" transform="translate(0 -59.12)"/><polygon class="cls-15" points="213.14 585.65 203.74 585.65 202.95 598.01 204.39 598.01 204.39 633.54 212.51 633.55 212.51 598.01 213.97 598.01 213.14 585.65"/><rect class="cls-15" x="202.14" y="634.03" width="12.61" height="20.38"/><rect class="cls-38" x="209.72" y="634.03" width="5.04" height="20.38"/><polygon class="cls-42" points="216.97 647.56 212.53 647.56 212.53 636.25 204.37 636.25 204.37 647.56 199.92 647.56 199.92 631.81 216.97 631.81 216.97 647.56"/><rect class="cls-42" x="196.39" y="631.81" width="24.13" height="4.44"/><polygon class="cls-42" points="214.73 633.55 210.29 633.55 210.29 595.79 211.59 595.79 211.06 587.87 205.83 587.87 205.32 595.79 206.61 595.79 206.61 633.54 202.17 633.54 202.17 600.24 200.58 600.24 201.66 583.43 215.22 583.43 216.34 600.24 214.73 600.24 214.73 633.55"/><path class="cls-21" d="M231.11,620.72H139.66a.66.66,0,0,0-.65.66v13.93h92.75V621.38A.66.66,0,0,0,231.11,620.72Z" transform="translate(0 -59.12)"/><rect class="cls-15" x="149.16" y="566.12" width="3.1" height="4.44"/><rect class="cls-15" x="156.9" y="566.12" width="3.1" height="4.44"/><rect class="cls-15" x="164.64" y="566.12" width="3.1" height="4.44"/><g class="cls-56"><polygon class="cls-50" points="139.01 653.59 231.76 653.59 231.76 645.85 223.17 645.85 223.17 645.85 220.59 645.85 220.59 645.85 211.01 645.85 211.01 645.85 208.43 645.85 208.43 645.85 198.84 645.85 198.84 645.85 196.26 645.85 196.26 645.85 186.68 645.85 186.68 645.85 184.09 645.85 184.09 645.85 174.51 645.85 174.51 645.85 171.93 645.85 171.93 645.85 162.34 645.85 162.34 645.85 159.76 645.85 159.76 645.85 150.18 645.85 150.18 645.85 147.6 645.85 147.6 645.85 139.01 645.85 139.01 653.59"/></g><rect class="cls-63" x="125.07" y="651.01" width="121.74" height="22.89" rx="0.42"/><rect class="cls-42" x="134.5" y="651.01" width="4.44" height="9.39"/><rect class="cls-42" x="146.67" y="651.01" width="4.44" height="6.81"/><rect class="cls-42" x="158.83" y="651.01" width="4.44" height="9.39"/><rect class="cls-42" x="171" y="651.01" width="4.44" height="6.81"/><rect class="cls-42" x="183.16" y="651.01" width="4.44" height="9.39"/><rect class="cls-42" x="195.33" y="651.01" width="4.44" height="6.81"/><rect class="cls-42" x="207.5" y="651.01" width="4.44" height="9.39"/><rect class="cls-42" x="219.66" y="651.01" width="4.44" height="6.81"/><rect class="cls-42" x="231.83" y="651.01" width="4.44" height="9.39"/><path class="cls-21" d="M191.62,670.4l0,2.92-5.16,1.62a19.46,19.46,0,0,1-2.42,5.8l2.89,4.91L182.54,690l-4.9-2.91a19.05,19.05,0,0,1-5.75,2.38l-1.42,5.6h-6.16l-1.41-5.6a19.33,19.33,0,0,1-5.81-2.4l-5.08,3-4.35-4.36,3.08-5a19.46,19.46,0,0,1-2.41-5.81l-5.16-1.4V670.4Z" transform="translate(0 -59.12)"/><path class="cls-64" d="M191.61,667.35v-3.08l-5.16-1.4a19.59,19.59,0,0,0-2.4-5.81l3.07-5-4.35-4.36-5.08,3a19.61,19.61,0,0,0-5.81-2.41l-1.41-5.59h-6.16l-1.42,5.59a19.57,19.57,0,0,0-5.75,2.38l-4.9-2.9-4.37,4.34,2.89,4.91a19.46,19.46,0,0,0-2.42,5.8l-5.16,1.62,0,2.91Z" transform="translate(0 -59.12)"/><circle class="cls-54" cx="167.4" cy="609.76" r="13.85"/><rect class="cls-42" x="157.16" y="607.92" width="2.9" height="3.53"/><rect class="cls-42" x="163.13" y="607.92" width="2.9" height="3.53"/><rect class="cls-42" x="169.11" y="607.92" width="2.9" height="3.53"/><rect class="cls-42" x="175.09" y="607.92" width="2.9" height="3.53"/><path class="cls-42" d="M167.4,684.5A15.67,15.67,0,0,1,153,675l3.26-1.38a12.08,12.08,0,0,0,19.68,3.85,11.93,11.93,0,0,0,2.59-3.85l3.26,1.38a15.63,15.63,0,0,1-3.35,5,15.55,15.55,0,0,1-11,4.58Z" transform="translate(0 -59.12)"/><path class="cls-42" d="M178.53,664.17a11.89,11.89,0,0,0-2.59-3.84,12,12,0,0,0-3.84-2.59,12.19,12.19,0,0,0-9.41,0,12.14,12.14,0,0,0-6.43,6.43L153,662.8a15.63,15.63,0,0,1,28.79,0Z" transform="translate(0 -59.12)"/><path class="cls-65" d="M630.66,689.06A13.35,13.35,0,0,0,644,675.73v-38h-.11V567.45H590.75a3.34,3.34,0,0,0-3.41,3.26V593h.9v96.06Z" transform="translate(0 -59.12)"/><path class="cls-15" d="M749.09,569.59h-153a1.21,1.21,0,0,0-1.21,1.21V740.45H750.3V570.8A1.21,1.21,0,0,0,749.09,569.59Z" transform="translate(0 -59.12)"/><path class="cls-13" d="M749.09,569.59H596a1.14,1.14,0,0,0-1.21,1v20.27H750.3V570.64A1.14,1.14,0,0,0,749.09,569.59Z" transform="translate(0 -59.12)"/><g class="cls-66"><path class="cls-15" d="M599.75,575.61a1.14,1.14,0,0,1,1.21-1.05H750.3v-3.92a1.14,1.14,0,0,0-1.21-1H596a1.14,1.14,0,0,0-1.21,1v20.27h5Z" transform="translate(0 -59.12)"/></g><g class="cls-67"><rect class="cls-37" x="608.47" y="547.45" width="4.55" height="4.44"/></g><g class="cls-67"><rect class="cls-37" x="608.47" y="558.21" width="4.55" height="4.44"/></g><g class="cls-67"><rect class="cls-37" x="608.47" y="568.97" width="4.55" height="4.44"/></g><g class="cls-67"><rect class="cls-37" x="608.47" y="579.73" width="4.55" height="4.44"/></g><g class="cls-67"><rect class="cls-37" x="608.47" y="590.49" width="4.55" height="4.44"/></g><g class="cls-67"><rect class="cls-37" x="608.47" y="601.25" width="4.55" height="4.44"/></g><g class="cls-67"><rect class="cls-37" x="608.47" y="612.01" width="4.55" height="4.44"/></g><g class="cls-67"><rect class="cls-37" x="608.47" y="622.77" width="4.55" height="4.44"/></g><g class="cls-67"><rect class="cls-37" x="608.47" y="633.53" width="4.55" height="4.44"/></g><g class="cls-67"><rect class="cls-37" x="608.47" y="644.29" width="4.55" height="4.44"/></g><g class="cls-67"><rect class="cls-37" x="608.47" y="655.05" width="4.55" height="4.44"/></g><g class="cls-67"><rect class="cls-37" x="608.47" y="665.81" width="4.55" height="4.44"/></g><g class="cls-67"><rect class="cls-68" x="628.33" y="547.45" width="20.51" height="4.44"/></g><g class="cls-67"><rect class="cls-37" x="653.4" y="547.45" width="15.73" height="4.44"/></g><g class="cls-67"><rect class="cls-37" x="672.61" y="547.45" width="27.35" height="4.44"/></g><g class="cls-67"><rect class="cls-37" x="620.06" y="558.21" width="20.1" height="4.44"/></g><g class="cls-67"><rect class="cls-37" x="644.3" y="558.21" width="20.28" height="4.44"/></g><g class="cls-67"><rect class="cls-68" x="672.61" y="558.21" width="41.01" height="4.44"/></g><g class="cls-67"><rect class="cls-37" x="634.95" y="568.97" width="22.38" height="4.44"/></g><g class="cls-67"><rect class="cls-37" x="661.26" y="568.97" width="25.02" height="4.44"/></g><g class="cls-67"><rect class="cls-37" x="620.06" y="579.73" width="20.1" height="4.44"/></g><g class="cls-67"><rect class="cls-68" x="644.3" y="579.73" width="24.83" height="4.44"/></g><g class="cls-67"><rect class="cls-37" x="673.77" y="579.73" width="49.78" height="4.44"/></g><g class="cls-67"><rect class="cls-37" x="620.06" y="590.49" width="31.48" height="4.44"/></g><g class="cls-67"><rect class="cls-37" x="655.26" y="590.49" width="8.48" height="4.44"/></g><g class="cls-67"><rect class="cls-37" x="669.13" y="590.49" width="44.49" height="4.44"/></g><g class="cls-67"><rect class="cls-37" x="719.41" y="590.49" width="16.35" height="4.44"/></g><g class="cls-67"><rect class="cls-68" x="636.61" y="601.25" width="42.45" height="4.44"/></g><g class="cls-67"><rect class="cls-37" x="681.96" y="601.25" width="9.41" height="4.44"/></g><g class="cls-67"><rect class="cls-37" x="620.06" y="612.01" width="22.79" height="4.44"/></g><g class="cls-67"><rect class="cls-37" x="645.33" y="612.01" width="4.55" height="4.44"/></g><g class="cls-67"><rect class="cls-37" x="652.78" y="612.01" width="4.55" height="4.44"/></g><g class="cls-67"><rect class="cls-37" x="661.68" y="612.01" width="39.73" height="4.44"/></g><g class="cls-67"><rect class="cls-37" x="706.79" y="612.01" width="20.8" height="4.44"/></g><g class="cls-67"><rect class="cls-68" x="632.47" y="622.77" width="41.3" height="4.44"/></g><g class="cls-67"><rect class="cls-37" x="677.08" y="622.77" width="12.89" height="4.44"/></g><g class="cls-67"><rect class="cls-37" x="620.06" y="633.53" width="64.8" height="4.44"/></g><g class="cls-67"><rect class="cls-37" x="693.11" y="633.53" width="24.08" height="4.44"/></g><g class="cls-67"><rect class="cls-37" x="634.13" y="644.29" width="4.55" height="4.44"/></g><g class="cls-67"><rect class="cls-37" x="640.98" y="644.29" width="28.14" height="4.44"/></g><g class="cls-67"><rect class="cls-68" x="674.71" y="644.29" width="25.24" height="4.44"/></g><g class="cls-67"><rect class="cls-37" x="620.06" y="655.05" width="36.66" height="4.44"/></g><g class="cls-67"><rect class="cls-37" x="661.68" y="655.05" width="45.11" height="4.44"/></g><g class="cls-67"><rect class="cls-37" x="710.71" y="655.05" width="25.05" height="4.44"/></g><g class="cls-67"><rect class="cls-68" x="632.47" y="665.81" width="58.9" height="4.44"/></g><rect class="cls-15" x="608.62" y="518.91" width="4.24" height="4.44"/><rect class="cls-15" x="618.41" y="518.91" width="4.24" height="4.44"/><rect class="cls-15" x="628.46" y="518.91" width="4.24" height="4.44"/><path class="cls-13" d="M781.24,703.58a33.32,33.32,0,0,0-31,21l-6.12,15.44H733.72l1.44,18.24h70.58V703.58Z" transform="translate(0 -59.12)"/><g class="cls-58"><path class="cls-15" d="M740.59,746H751l6.11-15.43a33.32,33.32,0,0,1,31-21.06h17.63v-5.89h-24.5a33.32,33.32,0,0,0-31,21l-6.12,15.44H733.72l1.44,18.24h6.41Z" transform="translate(0 -59.12)"/></g><rect class="cls-69" x="753.62" y="706.57" width="44.3" height="5.6"/><rect class="cls-70" x="727.09" y="612.48" width="6.63" height="100.92"/><rect class="cls-71" x="733.72" y="680.95" width="10.42" height="32.46"/><path class="cls-72" d="M826.38,734.68H805.74v36.66h23.69V737.73A3,3,0,0,0,826.38,734.68Z" transform="translate(0 -59.12)"/><g class="cls-56"><rect class="cls-50" x="805.74" y="675.56" width="4.54" height="30.74"/></g><polygon class="cls-73" points="744.36 688.53 766.65 689.18 797.92 671.81 797.92 644.46 805.74 644.46 805.74 706.3 745.8 706.3 744.36 688.53"/><polygon class="cls-42" points="735.16 715.63 724.87 715.63 724.87 610.26 735.94 610.26 735.94 701.64 731.5 701.64 731.5 614.7 729.31 614.7 729.31 711.18 735.16 711.18 735.16 715.63"/><polygon class="cls-42" points="767.23 691.4 744.36 691.4 744.36 686.96 766.08 686.96 795.7 670.51 795.7 644.46 800.14 644.46 800.14 673.12 767.23 691.4"/><rect class="cls-42" x="741.92" y="680.95" width="4.44" height="12.32"/><path class="cls-42" d="M831.65,773.56H815.22v-4.44h12V737.73a.83.83,0,0,0-.83-.83H805.74v-4.44h20.64a5.27,5.27,0,0,1,5.27,5.27Z" transform="translate(0 -59.12)"/><rect class="cls-42" x="811.5" y="679.73" width="11.34" height="4.44"/><rect class="cls-42" x="811.5" y="686.96" width="11.34" height="4.44"/><rect class="cls-42" x="811.5" y="694.18" width="11.34" height="4.44"/><rect class="cls-42" x="758.83" y="704.08" width="37.43" height="4.44"/><rect class="cls-42" x="814.52" y="704.08" width="14.91" height="4.44"/><rect class="cls-42" x="682.55" y="654.55" width="43.35" height="4.44"/><rect class="cls-50" x="757.4" y="711.11" width="38.86" height="2.22"/><path class="cls-42" d="M819,734.68H814.6v-11.2a11.39,11.39,0,0,1,7.28-10.67l4.44-1.74,1.62,4.14L823.5,717a7,7,0,0,0-4.46,6.53Z" transform="translate(0 -59.12)"/><path class="cls-57" d="M758.83,765.42a13,13,0,1,1-13-13A13,13,0,0,1,758.83,765.42Z" transform="translate(0 -59.12)"/><path class="cls-57" d="M815.22,769a9.48,9.48,0,1,1-9.48-9.48A9.49,9.49,0,0,1,815.22,769Z" transform="translate(0 -59.12)"/><path class="cls-42" d="M745.8,780.67a15.26,15.26,0,1,1,15.25-15.25A15.27,15.27,0,0,1,745.8,780.67Zm0-26.06a10.81,10.81,0,1,0,10.81,10.81A10.82,10.82,0,0,0,745.8,754.61Z" transform="translate(0 -59.12)"/><path class="cls-74" d="M749.36,765.42a3.56,3.56,0,1,1-3.56-3.56A3.55,3.55,0,0,1,749.36,765.42Z" transform="translate(0 -59.12)"/><path class="cls-74" d="M808.11,769a2.37,2.37,0,1,1-2.37-2.37A2.37,2.37,0,0,1,808.11,769Z" transform="translate(0 -59.12)"/><path class="cls-42" d="M745.8,771.19a5.78,5.78,0,1,1,5.78-5.77A5.78,5.78,0,0,1,745.8,771.19Zm0-7.11a1.34,1.34,0,1,0,1.34,1.34A1.34,1.34,0,0,0,745.8,764.08Z" transform="translate(0 -59.12)"/><path class="cls-42" d="M805.74,780.67a11.7,11.7,0,1,1,11.7-11.7A11.72,11.72,0,0,1,805.74,780.67Zm0-19A7.26,7.26,0,1,0,813,769,7.26,7.26,0,0,0,805.74,761.71Z" transform="translate(0 -59.12)"/><path class="cls-42" d="M805.74,773.56a4.59,4.59,0,1,1,4.59-4.59A4.6,4.6,0,0,1,805.74,773.56Z" transform="translate(0 -59.12)"/><rect class="cls-15" x="683.15" y="612.83" width="36.19" height="36.19" rx="9.29"/><path class="cls-57" d="M713.4,710.36H689.09a8.16,8.16,0,0,1-8.16-8.16V677.89a8.16,8.16,0,0,1,8.16-8.16H713.4a8.16,8.16,0,0,1,8.16,8.16V702.2A8.16,8.16,0,0,1,713.4,710.36Zm-19.87-4.44H709a8.16,8.16,0,0,0,8.16-8.16V682.33a8.16,8.16,0,0,0-8.16-8.16H693.53a8.16,8.16,0,0,0-8.16,8.16v15.43A8.17,8.17,0,0,0,693.53,705.92Z" transform="translate(0 -59.12)"/><path class="cls-21" d="M228.7,522.91v-3.33L240.53,514v3.58l-7.81,3.6,7.81,3.7v3.61Z" transform="translate(0 -59.12)"/><path class="cls-21" d="M253.2,511.25h3.45l-10.22,22.33H243Z" transform="translate(0 -59.12)"/><path class="cls-21" d="M270.92,519.58v3.33l-11.83,5.58v-3.61l7.82-3.7-7.82-3.6V514Z" transform="translate(0 -59.12)"/><path class="cls-59" d="M631.89,677.39H570.15L563,689l-3.69,6.39,41.26,46.93a.31.31,0,0,0,.48,0l41.26-46.93Z" transform="translate(0 -59.12)"/><path class="cls-21" d="M678.46,494.61a3.8,3.8,0,0,0,2.55-1c.64-.75.88-1.76.88-4.85V478h2.35v11.69c0,2.51-.4,4.13-1.55,5.3a6,6,0,0,1-4,1.47Zm6-20.25A1.37,1.37,0,0,1,683,475.8a1.4,1.4,0,0,1-1.44-1.44,1.43,1.43,0,0,1,1.49-1.46A1.38,1.38,0,0,1,684.5,474.36Z" transform="translate(0 -59.12)"/><path class="cls-21" d="M687.76,488.48a6.07,6.07,0,0,0,3.09.94c1.7,0,2.5-.86,2.5-1.92s-.67-1.73-2.4-2.37c-2.31-.83-3.41-2.11-3.41-3.65,0-2.08,1.68-3.79,4.45-3.79a6.49,6.49,0,0,1,3.17.8l-.58,1.71a5,5,0,0,0-2.64-.75c-1.39,0-2.16.8-2.16,1.76s.77,1.55,2.45,2.19c2.24.85,3.39,2,3.39,3.88,0,2.27-1.76,3.87-4.83,3.87a7.39,7.39,0,0,1-3.62-.88Z" transform="translate(0 -59.12)"/><path class="cls-21" d="M623.56,677.89H565.11l-6.82,11-3.49,6,39.06,44.43a.29.29,0,0,0,.45,0l39.07-44.43Z" transform="translate(0 -59.12)"/><path class="cls-75" d="M594.09,741.65a2.51,2.51,0,0,1-1.9-.86l-40.11-45.62,4.29-7.43,3.84,2.22-2.69,4.67,36.57,41.59,36.57-41.59-8.39-14.52H575.09v-4.44h49.75l11.26,19.5L596,740.8A2.5,2.5,0,0,1,594.09,741.65Z" transform="translate(0 -59.12)"/><rect class="cls-75" x="554.8" y="633.56" width="78.58" height="4.44"/><rect class="cls-75" x="582.85" y="696.68" width="4.44" height="44.8" transform="translate(-239.88 237.07) rotate(-23.73)"/><rect class="cls-75" x="581" y="716.35" width="43.64" height="4.44" transform="translate(-297.03 924.02) rotate(-66.39)"/><rect class="cls-75" x="591.87" y="639.45" width="4.44" height="39.99"/><polygon class="cls-75" points="574.97 635.93 570.48 630.06 574.02 627.37 574.9 628.53 583.52 616.82 587.1 619.46 574.97 635.93"/><polygon class="cls-75" points="593.71 635.93 582.71 621.52 586.24 618.83 593.64 628.53 602.26 616.82 605.84 619.46 593.71 635.93"/><polygon class="cls-75" points="612.45 635.93 601.45 621.52 604.98 618.83 612.38 628.53 621 616.82 624.58 619.46 612.45 635.93"/><rect class="cls-75" x="562.13" y="607.8" width="4.44" height="5.13"/><rect class="cls-75" x="569.05" y="671.46" width="5.13" height="4.44" transform="translate(-260.62 317.97) rotate(-30.07)"/><rect class="cls-75" x="569.41" y="679.5" width="4.44" height="5.13" transform="matrix(0.5, -0.87, 0.87, 0.5, -304.4, 779.6)"/><rect class="cls-75" x="562.16" y="683.72" width="4.44" height="5.13" transform="translate(-2.91 -56.72) rotate(-0.24)"/><rect class="cls-75" x="554.53" y="679.91" width="5.13" height="4.44" transform="translate(-268.16 315.42) rotate(-30.32)"/><rect class="cls-75" x="554.82" y="671.17" width="4.44" height="5.13" transform="translate(-303.83 766.66) rotate(-60.43)"/><path class="cls-18" d="M576.56,356.34H490.47l-23.37,20a.28.28,0,0,1-.47-.22V285.58a10.13,10.13,0,0,1,10.13-10.14h99.8a10.14,10.14,0,0,1,10.14,10.14V346.2A10.14,10.14,0,0,1,576.56,356.34Z" transform="translate(0 -59.12)"/><path class="cls-76" d="M536.72,300.11a5.64,5.64,0,1,1-5.64-5.64A5.63,5.63,0,0,1,536.72,300.11Z" transform="translate(0 -59.12)"/><path class="cls-15" d="M533.77,313.15h-2.65s2.44-6.17,2.44-9.08c0-1.34.31-4-.51-5.31-.33-.52-2.71-.53-3,0,0,0-2.26,7-3.75,9-.85,1.16-4.1,5.38-4.1,5.38h-3v18.23h1.77a2.4,2.4,0,0,1,1.71.72l3,3a2.84,2.84,0,0,0,2,.85h12V313.15Z" transform="translate(0 -59.12)"/><path class="cls-15" d="M544.67,318.85h-6a2.86,2.86,0,0,1-2.86-2.85h0a2.85,2.85,0,0,1,2.86-2.85h6a2.85,2.85,0,0,1,2.86,2.85h0A2.86,2.86,0,0,1,544.67,318.85Z" transform="translate(0 -59.12)"/><path class="cls-38" d="M544.67,317.16h-6a2.84,2.84,0,0,1-2.71-2,2.66,2.66,0,0,0-.15.85,2.86,2.86,0,0,0,2.86,2.85h6a2.86,2.86,0,0,0,2.86-2.85,2.66,2.66,0,0,0-.15-.85A2.84,2.84,0,0,1,544.67,317.16Z" transform="translate(0 -59.12)"/><path class="cls-15" d="M544.67,330.26h-6a2.85,2.85,0,0,1-2.86-2.85h0a2.85,2.85,0,0,1,2.86-2.85h6a2.85,2.85,0,0,1,2.86,2.85h0A2.85,2.85,0,0,1,544.67,330.26Z" transform="translate(0 -59.12)"/><path class="cls-38" d="M544.67,328.57h-6a2.84,2.84,0,0,1-2.71-2,2.66,2.66,0,0,0-.15.85,2.85,2.85,0,0,0,2.86,2.85h6a2.85,2.85,0,0,0,2.86-2.85,2.66,2.66,0,0,0-.15-.85A2.84,2.84,0,0,1,544.67,328.57Z" transform="translate(0 -59.12)"/><path class="cls-15" d="M542.58,336h-4a2.86,2.86,0,0,1-2.86-2.85h0a2.86,2.86,0,0,1,2.86-2.86h4a2.86,2.86,0,0,1,2.85,2.86h0A2.86,2.86,0,0,1,542.58,336Z" transform="translate(0 -59.12)"/><path class="cls-38" d="M542.58,334.27h-4a2.83,2.83,0,0,1-2.71-2,2.66,2.66,0,0,0-.15.85,2.86,2.86,0,0,0,2.86,2.85h4a2.86,2.86,0,0,0,2.85-2.85,3,3,0,0,0-.14-.85A2.85,2.85,0,0,1,542.58,334.27Z" transform="translate(0 -59.12)"/><path class="cls-15" d="M546.4,324.56h-7.77a2.86,2.86,0,0,1-2.86-2.86h0a2.86,2.86,0,0,1,2.86-2.85h7.77a2.86,2.86,0,0,1,2.85,2.85h0A2.86,2.86,0,0,1,546.4,324.56Z" transform="translate(0 -59.12)"/><path class="cls-38" d="M546.4,322.86h-7.77a2.85,2.85,0,0,1-2.71-2,2.65,2.65,0,0,0-.15.84,2.86,2.86,0,0,0,2.86,2.86h7.77a2.86,2.86,0,0,0,2.85-2.86,3,3,0,0,0-.14-.84A2.85,2.85,0,0,1,546.4,322.86Z" transform="translate(0 -59.12)"/><path class="cls-42" d="M520.56,325.78v-1.36a5.16,5.16,0,0,0,5.15-5.15h1.36A6.52,6.52,0,0,1,520.56,325.78Z" transform="translate(0 -59.12)"/><path class="cls-77" d="M520.34,309.92H503.1v25.25h17.24a.33.33,0,0,0,.34-.32V310.24A.33.33,0,0,0,520.34,309.92Z" transform="translate(0 -59.12)"/><rect class="cls-15" x="529.4" y="230.71" width="2.71" height="2.83"/><rect class="cls-15" x="533.07" y="289.85" width="5.65" height="2.71" transform="matrix(0.5, -0.87, 0.87, 0.5, 15.71, 550.5)"/><rect class="cls-15" x="537.01" y="294.31" width="2.88" height="2.71" transform="translate(-75.7 249.16) rotate(-29.95)"/><rect class="cls-15" x="539.67" y="297.28" width="2.71" height="5.65" transform="translate(240.15 781.59) rotate(-89.92)"/><rect class="cls-15" x="537.06" y="303.12" width="2.71" height="2.83" transform="translate(4.8 558.29) rotate(-59.88)"/><rect class="cls-15" x="521.55" y="303.16" width="2.94" height="2.71" transform="translate(-82.17 240.72) rotate(-29.77)"/><rect class="cls-15" x="519.14" y="297.22" width="2.71" height="5.65" transform="translate(217.89 759.93) rotate(-89.72)"/><rect class="cls-15" x="521.68" y="294.19" width="2.71" height="2.93" transform="translate(17.13 560.62) rotate(-62.12)"/><rect class="cls-15" x="524.32" y="288.35" width="2.71" height="5.65" transform="translate(-75.21 239.24) rotate(-29.67)"/><path class="cls-9" d="M1294.13,337a3.79,3.79,0,0,1-.11-7.57c.6,0,1.2,0,1.79-.07a3.79,3.79,0,0,1,.4,7.56c-.65,0-1.31.06-2,.08Zm-13.11-.86a4.3,4.3,0,0,1-.61-.05l-2-.34a3.79,3.79,0,1,1,1.4-7.44c.59.11,1.17.21,1.76.3a3.79,3.79,0,0,1-.6,7.53Zm28-1.16a3.79,3.79,0,0,1-.91-7.46c.58-.14,1.15-.29,1.72-.45a3.78,3.78,0,0,1,2,7.29q-1,.27-1.92.51A4.2,4.2,0,0,1,1309,335Zm-42.47-2.83a3.83,3.83,0,0,1-1.4-.27l-1.84-.76a3.79,3.79,0,0,1,3-7l1.65.68a3.79,3.79,0,0,1-1.4,7.31Zm56.57-2.36a3.79,3.79,0,0,1-1.68-7.18c.52-.26,1-.53,1.57-.81a3.79,3.79,0,0,1,3.56,6.69q-.88.46-1.77.9A3.77,3.77,0,0,1,1323.11,329.76Zm-69.86-4.67a3.78,3.78,0,0,1-2.12-.66c-.54-.37-1.09-.75-1.62-1.13a3.79,3.79,0,0,1,4.41-6.16c.48.35,1,.69,1.46,1a3.79,3.79,0,0,1-2.13,6.92Zm82.5-3.44a3.78,3.78,0,0,1-2.38-6.73l1.37-1.13a3.78,3.78,0,1,1,4.91,5.76c-.5.43-1,.85-1.53,1.27A3.78,3.78,0,0,1,1335.75,321.65Zm-94-6.28a3.77,3.77,0,0,1-2.74-1.18c-.46-.48-.91-1-1.35-1.45a3.79,3.79,0,1,1,5.63-5.07c.39.44.8.88,1.21,1.31a3.79,3.79,0,0,1-2.75,6.39ZM1346.36,311a3.79,3.79,0,0,1-2.95-6.16c.37-.46.74-.93,1.1-1.4a3.78,3.78,0,1,1,6,4.58c-.4.53-.8,1.05-1.22,1.56A3.76,3.76,0,0,1,1346.36,311Zm-113.67-7.6a3.79,3.79,0,0,1-3.24-1.82c-.35-.57-.68-1.14-1-1.71a3.79,3.79,0,1,1,6.59-3.74c.29.51.59,1,.89,1.52a3.78,3.78,0,0,1-1.27,5.2A3.71,3.71,0,0,1,1232.69,303.43Zm121.77-5.06a3.77,3.77,0,0,1-3.39-5.47c.26-.53.52-1.06.77-1.6a3.79,3.79,0,1,1,6.87,3.18c-.28.6-.57,1.2-.86,1.8A3.79,3.79,0,0,1,1354.46,298.37Zm-128.11-8.55a3.77,3.77,0,0,1-3.58-2.57c-.21-.63-.42-1.26-.61-1.88a3.79,3.79,0,0,1,7.23-2.25c.17.57.36,1.14.55,1.7a3.78,3.78,0,0,1-2.38,4.8A3.65,3.65,0,0,1,1226.35,289.82Zm133.29-5.55a3.54,3.54,0,0,1-.91-.11,3.79,3.79,0,0,1-2.77-4.58c.15-.58.28-1.15.41-1.73a3.78,3.78,0,1,1,7.39,1.61c-.14.65-.29,1.29-.45,1.93A3.78,3.78,0,0,1,1359.64,284.27Zm-136.54-9.11a3.78,3.78,0,0,1-3.75-3.38c-.08-.65-.14-1.31-.19-2a3.78,3.78,0,0,1,7.54-.62c0,.59.11,1.18.17,1.77a3.77,3.77,0,0,1-3.35,4.17Zm138.55-5.77h-.1a3.8,3.8,0,0,1-3.69-3.88c0-.6,0-1.19,0-1.79v-.27a3.79,3.79,0,1,1,7.57,0v.31c0,.63,0,1.29,0,1.95A3.78,3.78,0,0,1,1361.65,269.39Zm-138.57-9.25-.4,0a3.79,3.79,0,0,1-3.37-4.16q.11-1,.24-2a3.78,3.78,0,1,1,7.5,1c-.07.58-.14,1.17-.2,1.76A3.8,3.8,0,0,1,1223.08,260.14Zm137.31-6a3.8,3.8,0,0,1-3.72-3.07q-.17-.87-.36-1.74a3.78,3.78,0,0,1,7.39-1.64c.14.64.28,1.29.41,1.94a3.79,3.79,0,0,1-3,4.44A4.39,4.39,0,0,1,1360.39,254.15Zm-134.13-8.69a3.9,3.9,0,0,1-1.2-.19,3.8,3.8,0,0,1-2.39-4.8c.21-.63.43-1.25.66-1.87a3.78,3.78,0,1,1,7.11,2.59c-.2.56-.4,1.12-.59,1.68A3.78,3.78,0,0,1,1226.26,245.46Zm129.67-5.65a3.78,3.78,0,0,1-3.47-2.28c-.24-.54-.48-1.08-.73-1.62a3.78,3.78,0,0,1,6.86-3.2q.42.89.81,1.8a3.77,3.77,0,0,1-2,5A3.66,3.66,0,0,1,1355.93,239.81Zm-123.38-8a3.73,3.73,0,0,1-2-.54,3.78,3.78,0,0,1-1.29-5.19c.34-.57.68-1.13,1-1.69a3.78,3.78,0,0,1,6.38,4.07c-.32.5-.63,1-.94,1.52A3.77,3.77,0,0,1,1232.55,231.81Zm115.94-5a3.77,3.77,0,0,1-3.06-1.56c-.35-.48-.71-1-1.07-1.43a3.78,3.78,0,1,1,6-4.6c.4.52.79,1,1.18,1.58a3.79,3.79,0,0,1-.83,5.29A3.87,3.87,0,0,1,1348.49,226.77Zm-106.87-6.93a3.78,3.78,0,0,1-2.75-6.38c.45-.49.91-1,1.38-1.43a3.79,3.79,0,1,1,5.36,5.35c-.42.42-.83.84-1.23,1.27A3.79,3.79,0,0,1,1241.62,219.84Zm96.8-4.21a3.79,3.79,0,0,1-2.53-1l-1.34-1.16a3.79,3.79,0,1,1,4.89-5.78c.5.42,1,.86,1.5,1.3a3.79,3.79,0,0,1-2.52,6.61ZM1253,210.08a3.78,3.78,0,0,1-2.13-6.91c.54-.37,1.09-.73,1.64-1.09a3.79,3.79,0,0,1,4.11,6.36c-.5.32-1,.65-1.48,1A3.77,3.77,0,0,1,1253,210.08Zm73.15-3.18a3.77,3.77,0,0,1-1.85-.49l-1.57-.85a3.79,3.79,0,1,1,3.54-6.7l1.74.95a3.79,3.79,0,0,1-1.86,7.09Zm-59.9-3.89a3.79,3.79,0,0,1-1.41-7.3c.61-.25,1.22-.48,1.83-.71a3.78,3.78,0,1,1,2.65,7.09l-1.67.64A3.68,3.68,0,0,1,1266.29,203Zm46.09-2a3.8,3.8,0,0,1-1.1-.16c-.57-.18-1.14-.34-1.71-.5a3.78,3.78,0,0,1,2-7.3l1.9.55a3.79,3.79,0,0,1-1.09,7.41Zm-31.64-2a3.79,3.79,0,0,1-.61-7.53l1.95-.29a3.79,3.79,0,0,1,1.05,7.5l-1.77.27A4.32,4.32,0,0,1,1280.74,199Zm16.88-.73h-.29c-.59-.05-1.19-.08-1.78-.12a3.78,3.78,0,0,1,.38-7.56c.66,0,1.32.08,2,.13a3.79,3.79,0,0,1-.29,7.56Z" transform="translate(0 -59.12)"/><path class="cls-9" d="M1292.18,360.52a96.8,96.8,0,1,1,96.8-96.8A96.9,96.9,0,0,1,1292.18,360.52Zm0-186a89.23,89.23,0,1,0,89.23,89.22A89.33,89.33,0,0,0,1292.18,174.5Z" transform="translate(0 -59.12)"/><path class="cls-9" d="M1231.15,406.22a154.89,154.89,0,0,1-93.94-142.5c0-85.45,69.52-155,155-155a154.58,154.58,0,0,1,51.83,8.88l-2.53,7.13a147.06,147.06,0,0,0-49.3-8.44c-81.27,0-147.4,66.13-147.4,147.4a147.33,147.33,0,0,0,89.36,135.54Z" transform="translate(0 -59.12)"/><path class="cls-9" d="M1385.72,387.3l-4.57-6a147.61,147.61,0,0,0,49.94-167l7.13-2.54a155.18,155.18,0,0,1-52.5,175.58Z" transform="translate(0 -59.12)"/><path class="cls-78" d="M1405.17,731.44l-109.3-466.61a3.79,3.79,0,0,0-7.37,0L1179.2,731.44a3.79,3.79,0,0,0,3.68,4.65h218.6a3.79,3.79,0,0,0,3.69-4.65Zm-44.6-103.64-68.71,38.73-69.11-38.73Zm-141.64-7.57L1292,561l72.43,59.19Zm79-64.06L1347,516.4l23.14,98.78Zm40.7-42.73L1292,551.28l-46.32-37.84Zm-95.18-7.57,48.71-54.77,48.72,54.77Zm53.78-60.46,26.23-29.5L1342.24,496Zm19.82-33.68-24.89,28-24.88-28Zm-50.2-7.57,25.31-30.85,25.32,30.85Zm30.21-36.82,11.69-14.24,9.34,39.86Zm-4.9-6-10.52-12.81h21Zm-4.89,6-21,25.62,9.34-39.86Zm-26.41,48.57,26.24,29.5-45,50.58Zm-23.54,100.51L1286,556.15l-71.5,58Zm-26.55,113.36,73.35,41.11-95.6,53.88Zm81.08,45.44,95.11,53.3H1197.31Zm7.72-4.36,73.86-41.63,22.39,95.57Zm-7.41-388.57L1305.93,341h-27.49Z" transform="translate(0 -59.12)"/><path class="cls-9" d="M1292.18,292.22a26.53,26.53,0,1,1,26.53-26.53A26.56,26.56,0,0,1,1292.18,292.22Zm0-45.48a19,19,0,1,0,19,18.95A19,19,0,0,0,1292.18,246.74Z" transform="translate(0 -59.12)"/><path class="cls-79" d="M935,449.57a22.11,22.11,0,1,1-22.1,22.11A22.11,22.11,0,0,1,935,449.57Z" transform="translate(0 -59.12)"/><path class="cls-80" d="M937.1,476.5a5.25,5.25,0,1,0-5.07-.32" transform="translate(0 -59.12)"/><path class="cls-80" d="M937,488.92a17.29,17.29,0,1,0-5.07-.1" transform="translate(0 -59.12)"/><path class="cls-80" d="M937.1,486.64a15.06,15.06,0,1,0-5.07-.1" transform="translate(0 -59.12)"/><path class="cls-80" d="M937.1,484.07A12.51,12.51,0,1,0,932,484" transform="translate(0 -59.12)"/><path class="cls-80" d="M937.1,481.48a10,10,0,1,0-5.07-.15" transform="translate(0 -59.12)"/><path class="cls-80" d="M937.1,479a7.61,7.61,0,1,0-5.07-.2" transform="translate(0 -59.12)"/><line class="cls-80" x1="931.94" y1="429.94" x2="931.94" y2="416.76"/><line class="cls-80" x1="937.01" y1="430.02" x2="937.01" y2="417.01"/><circle class="cls-15" cx="934.9" cy="412.28" r="2.7"/><path class="cls-9" d="M935,450.19a2.46,2.46,0,0,1-2.46-2.46v-.2a2.47,2.47,0,0,1,4.93,0v.2A2.47,2.47,0,0,1,935,450.19Zm0-8.81a2.46,2.46,0,0,1-2.46-2.46v-1.24a2.47,2.47,0,0,1,4.93,0v1.24A2.47,2.47,0,0,1,935,441.38Zm0-9.85a2.46,2.46,0,0,1-2.46-2.46v-1.24a2.47,2.47,0,0,1,4.93,0v1.24A2.47,2.47,0,0,1,935,431.53Zm0-9.85a2.46,2.46,0,0,1-2.46-2.46V418a2.47,2.47,0,0,1,4.93,0v1.24A2.47,2.47,0,0,1,935,421.68Zm.63-9.8a2.15,2.15,0,0,1-.62-.08,2.46,2.46,0,0,1-1.77-3c.12-.45.25-.89.4-1.34a2.46,2.46,0,0,1,4.67,1.55c-.11.34-.21.68-.3,1A2.46,2.46,0,0,1,935.64,411.88Zm4.77-8.48a2.47,2.47,0,0,1-1.76-4.18q.48-.5,1-1A2.46,2.46,0,1,1,943,401.9q-.4.36-.78.75A2.44,2.44,0,0,1,940.41,403.4Zm8.33-5.06a2.46,2.46,0,0,1-.69-4.82c.44-.13.88-.25,1.34-.35a2.46,2.46,0,0,1,1.09,4.8c-.35.08-.7.17-1,.27A2.47,2.47,0,0,1,948.74,398.34Zm257.25-.78h-1.23a2.47,2.47,0,0,1,0-4.93H1206a2.47,2.47,0,1,1,0,4.93Zm-9.85,0h-1.23a2.47,2.47,0,0,1,0-4.93h1.23a2.47,2.47,0,1,1,0,4.93Zm-9.85,0h-1.23a2.47,2.47,0,0,1,0-4.93h1.23a2.47,2.47,0,1,1,0,4.93Zm-9.85,0h-1.23a2.47,2.47,0,0,1,0-4.93h1.23a2.47,2.47,0,1,1,0,4.93Zm-9.85,0h-1.23a2.47,2.47,0,0,1,0-4.93h1.23a2.47,2.47,0,1,1,0,4.93Zm-9.85,0h-1.23a2.47,2.47,0,0,1,0-4.93h1.23a2.47,2.47,0,1,1,0,4.93Zm-9.85,0h-1.23a2.47,2.47,0,0,1,0-4.93h1.23a2.47,2.47,0,1,1,0,4.93Zm-9.85,0h-1.23a2.47,2.47,0,0,1,0-4.93H1137a2.47,2.47,0,1,1,0,4.93Zm-9.85,0H1126a2.47,2.47,0,0,1,0-4.93h1.23a2.47,2.47,0,1,1,0,4.93Zm-9.85,0h-1.23a2.47,2.47,0,0,1,0-4.93h1.23a2.47,2.47,0,1,1,0,4.93Zm-9.85,0h-1.23a2.47,2.47,0,0,1,0-4.93h1.23a2.47,2.47,0,1,1,0,4.93Zm-9.85,0h-1.23a2.47,2.47,0,0,1,0-4.93h1.23a2.47,2.47,0,1,1,0,4.93Zm-9.85,0h-1.23a2.47,2.47,0,0,1,0-4.93h1.23a2.47,2.47,0,1,1,0,4.93Zm-9.85,0h-1.23a2.47,2.47,0,0,1,0-4.93h1.23a2.47,2.47,0,1,1,0,4.93Zm-9.85,0h-1.23a2.47,2.47,0,0,1,0-4.93h1.23a2.47,2.47,0,1,1,0,4.93Zm-9.85,0H1057a2.47,2.47,0,0,1,0-4.93h1.23a2.47,2.47,0,1,1,0,4.93Zm-9.85,0h-1.23a2.47,2.47,0,0,1,0-4.93h1.23a2.47,2.47,0,1,1,0,4.93Zm-9.85,0h-1.23a2.47,2.47,0,0,1,0-4.93h1.23a2.47,2.47,0,1,1,0,4.93Zm-9.84,0h-1.24a2.47,2.47,0,0,1,0-4.93h1.24a2.47,2.47,0,0,1,0,4.93Zm-9.86,0h-1.23a2.47,2.47,0,0,1,0-4.93h1.23a2.47,2.47,0,1,1,0,4.93Zm-9.85,0h-1.23a2.47,2.47,0,0,1,0-4.93H1009a2.47,2.47,0,1,1,0,4.93Zm-9.85,0h-1.23a2.47,2.47,0,0,1,0-4.93h1.23a2.47,2.47,0,1,1,0,4.93Zm-9.85,0h-1.23a2.47,2.47,0,0,1,0-4.93h1.23a2.47,2.47,0,1,1,0,4.93Zm-9.84,0h-1.24a2.47,2.47,0,0,1,0-4.93h1.24a2.47,2.47,0,0,1,0,4.93Zm-9.86,0h-1.23a2.47,2.47,0,0,1,0-4.93h1.23a2.47,2.47,0,1,1,0,4.93Zm-9.85,0h-1.23a2.47,2.47,0,0,1,0-4.93h1.23a2.47,2.47,0,1,1,0,4.93Z" transform="translate(0 -59.12)"/><path class="cls-81" d="M1046.6,365.63a30.2,30.2,0,1,1-30.21,30.2A30.2,30.2,0,0,1,1046.6,365.63Z" transform="translate(0 -59.12)"/><path class="cls-82" d="M1057.16,400.34a15,15,0,0,1-4.68,3.18l-.75-1.91a12.91,12.91,0,1,0-10.26,0l-.75,1.91a14.95,14.95,0,1,1,16.44-3.18Zm-5.77-5.77a6.77,6.77,0,1,0-9.58,0,6.67,6.67,0,0,0,1.84,1.31v-2.41h0l0,0h0l-.06-.05h0l-.06-.06h0l-.07-.07h0l-.08-.08a4.72,4.72,0,1,1,6.68-6.68l.09.08.08.09.08.09a.86.86,0,0,1,.07.1l.08.09a.86.86,0,0,1,.07.1l.07.09.06.1.07.09.06.11.06.1a.31.31,0,0,1,0,.1l.06.1a.54.54,0,0,0,.05.11l0,.1h0l0,.11s0,.07,0,.11l0,.1a.36.36,0,0,0,0,.11l0,.11,0,.11,0,.11a.52.52,0,0,1,0,.11l0,.12h0a.52.52,0,0,0,0,.11.43.43,0,0,0,0,.11s0,.07,0,.11h0s0,.08,0,.11a.49.49,0,0,1,0,.12s0,.07,0,.11v.11h0V390s0,.08,0,.12a.41.41,0,0,1,0,.11s0,.08,0,.11h0s0,.08,0,.12a.36.36,0,0,0,0,.11.43.43,0,0,0,0,.11h0l0,.11a.36.36,0,0,1,0,.11l0,.11,0,.11h0l0,.11a.76.76,0,0,0,0,.11s0,.07,0,.11,0,.07,0,.11h0s0,.07,0,.1,0,.07,0,.11l-.05.1-.06.11,0,.1-.06.1-.06.1h0a.61.61,0,0,1-.07.1h0l-.06.1-.07.09h0l-.07.1-.08.09-.07.09-.08.09-.08.09h0l-.09.09-.08.08h0l-.08.08h0l-.07.06h0l-.07.05h0v2.41a6.82,6.82,0,0,0,1.84-1.31Zm2.87,2.88a10.84,10.84,0,1,0-15.33,0,11,11,0,0,0,3.28,2.25l.75-1.92a8.79,8.79,0,1,1,9.86-1.78,8.9,8.9,0,0,1-2.58,1.78l.74,1.92A10.91,10.91,0,0,0,1054.26,397.45Z" transform="translate(0 -59.12)"/><path class="cls-82" d="M1048.49,391.67a2.66,2.66,0,1,0-2.79.63v4.1l-3.54,9.06-4.44,11.36,8.88-6,8.87,6L1051,405.46l-3.54-9.06v-4.1A2.69,2.69,0,0,0,1048.49,391.67Z" transform="translate(0 -59.12)"/><path class="cls-83" d="M1102.23,320.7a17,17,0,1,1-17,17A17,17,0,0,1,1102.23,320.7Z" transform="translate(0 -59.12)"/><path class="cls-82" d="M1103.81,339.26a2.23,2.23,0,1,0-3.16,0,2.24,2.24,0,0,0,3.16,0Zm5.12,5.12a9.48,9.48,0,0,0,0-13.4,6.53,6.53,0,0,0-.62-.57l-.11-.1h0a.95.95,0,0,0-1.31,1.37l0,0h0l0,0,.65.58a7.59,7.59,0,0,1,0,10.73,6.39,6.39,0,0,1-.54.5l-.08.06h0a.3.3,0,0,0-.08.08.94.94,0,0,0,1.26,1.4h0l.1-.08c.23-.19.46-.4.68-.62Zm-4.65-3.5a7.52,7.52,0,0,0,.64-.51,3.81,3.81,0,0,0,0-5.38,3.9,3.9,0,0,0-.56-.46l-.16-.13a.94.94,0,0,1,1.18-1.46h0l0,0,.19.13a6.14,6.14,0,0,1,.62.54,5.69,5.69,0,0,1,0,8.06,5.32,5.32,0,0,1-.9.73h0a.95.95,0,0,1-1.16-1.48l.09-.07Zm7.33,6.18q-.34.33-.69.63l0,0a.95.95,0,0,1-1.33-1.35l.08-.06h0c.21-.18.42-.37.62-.57a11.37,11.37,0,0,0,0-16.08c-.22-.22-.47-.42-.69-.63a.95.95,0,0,1,1.33-1.35h0c.24.2.47.42.7.64a13.28,13.28,0,0,1,0,18.76Zm-16.09-2.68a9.48,9.48,0,0,1,0-13.4,5.59,5.59,0,0,1,.63-.57l.1-.1h0a.95.95,0,0,1,1.31,1.37l0,0h0l0,0-.65.58a7.59,7.59,0,0,0,0,10.73c.17.18.36.34.54.5l.08.06h0l.09.08a.94.94,0,0,1,0,1.33,1,1,0,0,1-1.27.07h0l-.1-.08c-.23-.19-.46-.4-.68-.62Zm4.65-3.5h0l.08.07a.94.94,0,0,1-1.15,1.48h0a5.39,5.39,0,0,1-.91-.73,5.69,5.69,0,0,1,0-8.06,5.3,5.3,0,0,1,.63-.54l.18-.13.06,0h0a.94.94,0,0,1,1.18,1.46l-.15.13a3,3,0,0,0-.56.46,3.8,3.8,0,0,0,0,5.38,6.11,6.11,0,0,0,.63.51Zm-7.32,6.18c.22.22.45.43.68.63l0,0a.95.95,0,0,0,1.33-1.35l-.07-.06h0a8.22,8.22,0,0,1-.61-.57,11.35,11.35,0,0,1,0-16.08c.22-.22.47-.42.68-.63a.95.95,0,0,0-1.33-1.35h0c-.24.2-.47.42-.69.64A13.27,13.27,0,0,0,1092.85,347.06Z" transform="translate(0 -59.12)"/><path class="cls-84" d="M1571.28,289.12l160.89.67A37.1,37.1,0,0,1,1769,329.5L1742.9,700.07a36.53,36.53,0,0,1-36.43,34H1542.91a36.52,36.52,0,0,1-36.42-39.24l27.64-371.32A37.1,37.1,0,0,1,1571.28,289.12Z" transform="translate(0 -59.12)"/><path class="cls-57" d="M1571.28,289.12l160.89.67A37.1,37.1,0,0,1,1769,329.5L1742.9,700.07a36.53,36.53,0,0,1-36.43,34H1542.91a36.52,36.52,0,0,1-36.42-39.24l27.64-371.32A37.1,37.1,0,0,1,1571.28,289.12Z" transform="translate(0 -59.12)"/><path class="cls-85" d="M1553.2,289.12l160.89.67a37.1,37.1,0,0,1,36.85,39.71l-26.11,370.57a36.53,36.53,0,0,1-36.44,34H1524.83a36.52,36.52,0,0,1-36.42-39.24l27.64-371.32A37.1,37.1,0,0,1,1553.2,289.12Z" transform="translate(0 -59.12)"/><polygon class="cls-15" points="1541.04 263.94 1725.03 263.94 1702.89 617.4 1518.21 618.79 1541.04 263.94"/><path class="cls-57" d="M1602.38,722.27A18.28,18.28,0,1,1,1620.65,704,18.29,18.29,0,0,1,1602.38,722.27Zm0-34a15.7,15.7,0,1,0,15.7,15.69A15.71,15.71,0,0,0,1602.38,688.3Z" transform="translate(0 -59.12)"/><path class="cls-57" d="M1649.91,310h-30.86a3.13,3.13,0,0,1-3.13-3.13h0a3.13,3.13,0,0,1,3.13-3.13h30.86a3.14,3.14,0,0,1,3.13,3.13h0A3.13,3.13,0,0,1,1649.91,310Z" transform="translate(0 -59.12)"/><path class="cls-86" d="M1702.47,414.17H1553.12a6.8,6.8,0,0,1-6.79-7.13l2-40.51a6.8,6.8,0,0,1,6.8-6.46h149.34a6.8,6.8,0,0,1,6.8,7.13l-2,40.51A6.79,6.79,0,0,1,1702.47,414.17Z" transform="translate(0 -59.12)"/><path class="cls-87" d="M1661.26,414.3h41.22a6.76,6.76,0,0,0,6.75-6.42l2-40.71a6.75,6.75,0,0,0-6.75-7.1H1663.3a6.76,6.76,0,0,0-6.76,6.42l-2,40.71A6.77,6.77,0,0,0,1661.26,414.3Z" transform="translate(0 -59.12)"/><path class="cls-88" d="M1647.35,373.83H1562.4a1,1,0,1,1,0-2h84.95a1,1,0,1,1,0,2Z" transform="translate(0 -59.12)"/><path class="cls-88" d="M1646.68,387.38h-85a1,1,0,1,1,0-2h85a1,1,0,1,1,0,2Z" transform="translate(0 -59.12)"/><path class="cls-88" d="M1603,400.94h-42a1,1,0,1,1,0-2h42a1,1,0,0,1,0,2Z" transform="translate(0 -59.12)"/><path class="cls-86" d="M1697.19,490.75H1547.84a6.79,6.79,0,0,1-6.79-7.14l2-40.5a6.8,6.8,0,0,1,6.79-6.47h149.35a6.8,6.8,0,0,1,6.79,7.14l-2,40.51A6.8,6.8,0,0,1,1697.19,490.75Z" transform="translate(0 -59.12)"/><path class="cls-87" d="M1656,490.88h41.21a6.77,6.77,0,0,0,6.76-6.43l2-40.71a6.77,6.77,0,0,0-6.76-7.1H1658a6.76,6.76,0,0,0-6.75,6.43l-2,40.71A6.77,6.77,0,0,0,1656,490.88Z" transform="translate(0 -59.12)"/><path class="cls-88" d="M1642.07,450.41h-85a1,1,0,1,1,0-2h85a1,1,0,0,1,0,2Z" transform="translate(0 -59.12)"/><path class="cls-88" d="M1641.4,464h-85a1,1,0,1,1,0-2h85a1,1,0,0,1,0,2Z" transform="translate(0 -59.12)"/><path class="cls-88" d="M1597.74,477.52h-42a1,1,0,0,1,0-2h42a1,1,0,0,1,0,2Z" transform="translate(0 -59.12)"/><polygon class="cls-57" points="1541.04 263.94 1518.21 618.79 1514.48 618.79 1537.37 263.94 1541.04 263.94"/><path class="cls-15" d="M1697.51,388.55a16.91,16.91,0,1,1-15.71-18A16.9,16.9,0,0,1,1697.51,388.55Z" transform="translate(0 -59.12)"/><path class="cls-87" d="M1677.61,393.89a1.51,1.51,0,0,1-1-.43l-5.68-5.58a1.52,1.52,0,1,1,2.13-2.17l4.72,4.64,10.83-8.73a1.52,1.52,0,0,1,1.9,2.37l-11.88,9.57A1.49,1.49,0,0,1,1677.61,393.89Z" transform="translate(0 -59.12)"/><path class="cls-15" d="M1693.54,465.13a16.92,16.92,0,1,1-15.71-18A16.91,16.91,0,0,1,1693.54,465.13Z" transform="translate(0 -59.12)"/><path class="cls-87" d="M1673.64,470.47a1.54,1.54,0,0,1-1-.43l-5.68-5.59a1.52,1.52,0,1,1,2.13-2.16l4.71,4.63,10.83-8.72a1.52,1.52,0,0,1,1.91,2.37l-11.89,9.57A1.55,1.55,0,0,1,1673.64,470.47Z" transform="translate(0 -59.12)"/><polygon class="cls-78" points="1787.4 522.02 1781.72 544.62 1849.96 548.28 1847.65 519.96 1787.4 522.02"/><polygon class="cls-78" points="1815.43 536.73 1795.58 603.78 1795.98 705.08 1771.75 705.59 1767.06 602.25 1783.28 538.53 1815.43 536.73"/><polygon class="cls-89" points="1812.61 546.27 1796.87 544.78 1808.43 560.4 1812.61 546.27"/><polygon class="cls-78" points="1849.8 543.67 1854.39 606.58 1873.55 710.42 1849.59 715.34 1826.43 609.42 1818.43 536.86 1849.8 543.67"/><path class="cls-90" d="M1778.66,764.4l13.2-.09.34,18.9-37.51.25h0a6.68,6.68,0,0,1,5.16-6l18.57-4.54Z" transform="translate(0 -59.12)"/><rect class="cls-91" x="1754.69" y="783.34" width="37.51" height="2.92" transform="translate(-5.13 -47.43) rotate(-0.38)"/><path class="cls-15" d="M1787.87,772.22a2.88,2.88,0,1,1-2.89-2.86A2.86,2.86,0,0,1,1787.87,772.22Z" transform="translate(0 -59.12)"/><path class="cls-90" d="M1856.53,771.84l13.08-1.73,2.7,18.71-37.19,4.93h0a6.67,6.67,0,0,1,4.37-6.61l17.86-6.83Z" transform="translate(0 -59.12)"/><rect class="cls-91" x="1835.15" y="791.27" width="37.51" height="2.92" transform="translate(-88.06 191.26) rotate(-7.55)"/><path class="cls-15" d="M1866.64,778.45a2.88,2.88,0,1,1-3.23-2.48A2.87,2.87,0,0,1,1866.64,778.45Z" transform="translate(0 -59.12)"/><path class="cls-21" d="M1759.82,546.35c-.26,0-.53-.05-.79-.09l-61.61-9.15,3-20.14,55.19,8.2c11-16.67,27.76-36.17,27.76-36.17-.12.25.62.88,0,0l19.42,2c.87,4.91-3.41,4.94-33.77,50.8A10.18,10.18,0,0,1,1759.82,546.35Z" transform="translate(0 -59.12)"/><path class="cls-21" d="M1817.81,483.74l2,.33a22.26,22.26,0,0,1,18,16.68l14.1,80.31c-30,16.34-67.92.18-67.92.18l-7.29-74.91a19.56,19.56,0,0,1,10.74-19.94h0Z" transform="translate(0 -59.12)"/><polygon class="cls-92" points="1811.04 431.76 1794.16 430.36 1796.91 392.04 1813.79 393.44 1811.04 431.76"/><path class="cls-92" d="M1790,486.16l25.79-2.26s-.19,15.07-15.74,14.85C1785.85,498.55,1790,486.16,1790,486.16Z" transform="translate(0 -59.12)"/><path class="cls-15" d="M1698.4,527a10.94,10.94,0,1,1-9-12.62A11,11,0,0,1,1698.4,527Z" transform="translate(0 -59.12)"/><path class="cls-15" d="M1704.41,533.56l-11.22-1.9a5.43,5.43,0,0,1-4.43-6.24h0A5.43,5.43,0,0,1,1695,521l11.22,1.9a5.44,5.44,0,0,1,4.43,6.24h0A5.43,5.43,0,0,1,1704.41,533.56Z" transform="translate(0 -59.12)"/><circle class="cls-18" cx="1698.42" cy="534.26" r="31.47" transform="translate(473.7 1767.47) rotate(-64)"/><path class="cls-93" d="M1692.78,546.37a2.78,2.78,0,0,1-1.78-.8l-10.57-10.39a2.83,2.83,0,1,1,4-4l8.78,8.62,20.15-16.23a2.83,2.83,0,0,1,3.54,4.41l-22.11,17.8A2.82,2.82,0,0,1,1692.78,546.37Z" transform="translate(0 -59.12)"/><path class="cls-94" d="M1791.1,477h0a20.83,20.83,0,0,1-19.33-22.21l1.79-25.81,41.53,2.87-1.78,25.82A20.83,20.83,0,0,1,1791.1,477Z" transform="translate(0 -59.12)"/><path class="cls-95" d="M1813.57,450.77l-5.93-.3a2.57,2.57,0,0,1-2.36-3.18c1-4.23,2.38-11.52-.35-12.57-3.88-1.5-25.38,2.77-32.28-3.16-9.7-8.34-1.64-20.28,7.56-20.26s7.21,10.56,17.91,11,27.17-2.72,18.49,25.19Z" transform="translate(0 -59.12)"/><path class="cls-94" d="M1820.82,452.39a6.55,6.55,0,1,1-6.08-7A6.55,6.55,0,0,1,1820.82,452.39Z" transform="translate(0 -59.12)"/><path class="cls-96" d="M1739.66,553.91a10.95,10.95,0,1,1-10.16-11.67A10.93,10.93,0,0,1,1739.66,553.91Z" transform="translate(0 -59.12)"/><path class="cls-96" d="M1746.29,559.85l-11.35-.78a5.43,5.43,0,0,1-5-5.77h0a5.42,5.42,0,0,1,5.77-5l11.36.78a5.43,5.43,0,0,1,5,5.77h0A5.42,5.42,0,0,1,1746.29,559.85Z" transform="translate(0 -59.12)"/><path class="cls-21" d="M1740.09,564l0-20.36,56.11.08,19.29-45.75a10.17,10.17,0,0,1,13.48-5h0a10.18,10.18,0,0,1,5,13.49l-22,51.72a10.18,10.18,0,0,1-9.28,5.95Z" transform="translate(0 -59.12)"/><rect class="cls-97" x="1768.62" y="695" width="30.37" height="10.59"/><rect class="cls-97" x="1845.73" y="762.24" width="30.37" height="10.59" transform="translate(-112.92 313.33) rotate(-11.09)"/><path class="cls-15" d="M1775.82,458.55l17.92.85s-1,6.86-10.7,5.81C1775.42,464.38,1775.82,458.55,1775.82,458.55Z" transform="translate(0 -59.12)"/><path class="cls-17" d="M1782.32,564l18.11,0a13.93,13.93,0,0,0,11.74-8l20.14-45.59c-7.81,26.59-18.07,53.67-18.07,53.67a8.47,8.47,0,0,1-8.27,5.57l-23.19-.93Z" transform="translate(0 -59.12)"/><path class="cls-98" d="M1670.7,598.18l-133.92,17.75a6.66,6.66,0,0,1-7.47-5.72l-4.72-35.65a6.64,6.64,0,0,1,5.72-7.47l133.92-17.75a6.66,6.66,0,0,1,7.47,5.72l4.72,35.65A6.66,6.66,0,0,1,1670.7,598.18Z" transform="translate(0 -59.12)"/><path class="cls-86" d="M1661.13,582,1527.22,599.8a6.65,6.65,0,0,1-7.47-5.73L1515,558.43a6.65,6.65,0,0,1,5.72-7.47l133.92-17.76a6.66,6.66,0,0,1,7.47,5.72l4.73,35.65A6.65,6.65,0,0,1,1661.13,582Z" transform="translate(0 -59.12)"/><path class="cls-88" d="M1528.65,562.54a.92.92,0,0,1-.13-1.84l76.69-10.17a.88.88,0,0,1,1,.8.91.91,0,0,1-.79,1l-76.69,10.17Z" transform="translate(0 -59.12)"/><path class="cls-88" d="M1530.27,574.78a.92.92,0,0,1-.13-1.84l76.7-10.17a.88.88,0,0,1,1,.79.92.92,0,0,1-.79,1l-76.69,10.17Z" transform="translate(0 -59.12)"/><path class="cls-88" d="M1531.89,587a.92.92,0,0,1-.12-1.84l37.94-5.08a.9.9,0,0,1,1,.79.92.92,0,0,1-.79,1L1532,587Z" transform="translate(0 -59.12)"/><path class="cls-90" d="M1476.68,752.25l-12-.91-1.76,19.73,34.22,2.71.2-2.66a6.1,6.1,0,0,0-4.32-5.8L1476.36,760Z" transform="translate(0 -59.12)"/><path class="cls-90" d="M1321.05,745l-1.19-12-19.74,1.7,3.28,34.16,2.65-.26a6.11,6.11,0,0,0,5-5.27l2.33-17.31Z" transform="translate(0 -59.12)"/><path class="cls-17" d="M1370.61,655.66l21.78,70.22-76,4.52,2.26,18.08,92.64-3.12c8.23-.27,14.46-6.54,12.78-16.12l-5.19-52.18,49-.75-8.47,77.45,21.1.75,20.69-87a17.25,17.25,0,0,0-16.36-21.23L1435,645Z" transform="translate(0 -59.12)"/><polygon class="cls-92" points="1401.88 514.61 1420.6 518.58 1428.55 478.86 1410 474.97 1401.88 514.61"/><path class="cls-94" d="M1416.58,558.72h0a19.4,19.4,0,0,0,23-15l4.94-23.59-38-8-4.94,23.59A19.4,19.4,0,0,0,1416.58,558.72Z" transform="translate(0 -59.12)"/><path class="cls-95" d="M1430.59,530.32,1427,547.66c-1.45,6.92-7.93,11.43-14.47,10.06l-3.42-.72c-11.44-2.4-18.66-14.15-16.12-26.26l3.28-15.67,35.67,7.47Z" transform="translate(0 -59.12)"/><path class="cls-95" d="M1429.36,527.75s8.9,2.36,14.51,2.44c7.32.11,11.86-8.28,7.29-14-.2-.25-.41-.5-.65-.76-5.58-6.07-15.32-3-15.27-2.44S1429.36,527.75,1429.36,527.75Z" transform="translate(0 -59.12)"/><path class="cls-95" d="M1440.85,517.71s-10.9-16-29.76-11.29c0,0-7.24-.38-14.86,8.65l31.72,15.1Z" transform="translate(0 -59.12)"/><path class="cls-94" d="M1422.82,538a5.68,5.68,0,1,0,6.72-4.39A5.67,5.67,0,0,0,1422.82,538Z" transform="translate(0 -59.12)"/><path class="cls-95" d="M1414.54,504.08a18.33,18.33,0,1,1-14.19-21.71A18.33,18.33,0,0,1,1414.54,504.08Z" transform="translate(0 -59.12)"/><path class="cls-18" d="M1435.53,644.39c-7-11.37-3.66-37.63-.79-53.37a19.2,19.2,0,0,0-8.78-19.71h0l-21.69-6.43c-5.37-1.85-12.41,4.4-16.24,8.6-34.21,37.6-21,85.49-21,85.49,11.67,2.85,26,2.72,33.83,1.75h0l.3,0,.42-.06A59.2,59.2,0,0,0,1435.53,644.39Z" transform="translate(0 -59.12)"/><path class="cls-94" d="M1517.05,582.9a11.72,11.72,0,1,0,2.62-16.37A11.72,11.72,0,0,0,1517.05,582.9Z" transform="translate(0 -59.12)"/><path class="cls-94" d="M1514.39,592.05l9.87-7.15a5.8,5.8,0,0,0,1.3-8.08h0a5.81,5.81,0,0,0-8.09-1.3l-9.87,7.15a5.8,5.8,0,0,0-1.3,8.08h0A5.81,5.81,0,0,0,1514.39,592.05Z" transform="translate(0 -59.12)"/><path class="cls-18" d="M1522.34,592.26l-11.55-18.49-51,31.86-32-32.56a10.9,10.9,0,0,0-15.11,3.06h0a10.91,10.91,0,0,0,3.06,15.11l37.84,36.44a10.87,10.87,0,0,0,11.8.16Z" transform="translate(0 -59.12)"/><polygon class="cls-89" points="1418.91 617.94 1439.45 606.42 1438.34 611.75 1467.89 617.19 1418.91 617.94"/><path class="cls-99" d="M1817.78,157.52l-1.7-4.87-1.7,4.87a17,17,0,0,1-9.44,9.61h0a17,17,0,0,1,9.44,9.61l1.7,4.87,1.7-4.87a17,17,0,0,1,9.44-9.61h0A17,17,0,0,1,1817.78,157.52Z" transform="translate(0 -59.12)"/><polygon class="cls-33" points="1524.28 716.56 1528.43 724.57 1576.06 725.78 1585.76 699.23 1581.74 691.51 1524.28 716.56"/><path class="cls-33" d="M1534.86,786.87l41.6,1.58c3.63.14,6.68-1.47,6.92-3.66l2.76-24.75c.26-2.35-2.79-4.44-6.69-4.59l-41.6-1.58c-3.64-.14-6.68,1.47-6.93,3.66l-2.76,24.75C1527.9,784.62,1531,786.72,1534.86,786.87Z" transform="translate(0 -59.12)"/><path class="cls-13" d="M1530.83,779.12l41.6,1.58c3.64.14,6.69-1.47,6.93-3.66l2.76-24.75c.26-2.35-2.79-4.44-6.7-4.59l-41.59-1.58c-3.64-.14-6.69,1.47-6.93,3.66l-2.76,24.75C1523.88,776.88,1526.93,779,1530.83,779.12Z" transform="translate(0 -59.12)"/><rect class="cls-85" x="1096.87" y="647.96" width="54.65" height="34.3"/><path class="cls-85" d="M1162.05,741.32h-80.12a13,13,0,0,0-13,13h106.13A13,13,0,0,0,1162.05,741.32Z" transform="translate(0 -59.12)"/><rect class="cls-57" x="973.12" y="433.63" width="309.44" height="216.62" rx="19.94"/><rect class="cls-85" x="961.79" y="433.63" width="309.44" height="216.62" rx="19.94"/><rect class="cls-15" x="983.78" y="454.34" width="266.3" height="168.56"/><rect class="cls-57" x="983.78" y="454.34" width="3.24" height="168.56"/><path class="cls-57" d="M1121.13,704.29a9.08,9.08,0,1,1,9.08-9.08A9.09,9.09,0,0,1,1121.13,704.29Zm0-16.5a7.43,7.43,0,1,0,7.43,7.42A7.43,7.43,0,0,0,1121.13,687.79Z" transform="translate(0 -59.12)"/><polygon class="cls-100" points="1096.87 650.25 1151.52 682.25 1151.52 650.25 1096.87 650.25"/><rect class="cls-101" x="1000.93" y="473.16" width="115.6" height="40.31" rx="3.99"/><path class="cls-101" d="M1079.28,592.83H1004.2a3.26,3.26,0,0,1-3.27-3.26h0a3.26,3.26,0,0,1,3.27-3.27h75.08a3.26,3.26,0,0,1,3.26,3.27h0A3.26,3.26,0,0,1,1079.28,592.83Z" transform="translate(0 -59.12)"/><path class="cls-101" d="M1053.58,607.42H1004.2a3.26,3.26,0,0,1-3.27-3.27h0a3.26,3.26,0,0,1,3.27-3.26h49.38a3.26,3.26,0,0,1,3.26,3.26h0A3.26,3.26,0,0,1,1053.58,607.42Z" transform="translate(0 -59.12)"/><path class="cls-101" d="M1053.58,622.71H1004.2a3.26,3.26,0,0,1-3.27-3.26h0a3.26,3.26,0,0,1,3.27-3.27h49.38a3.26,3.26,0,0,1,3.26,3.27h0A3.26,3.26,0,0,1,1053.58,622.71Z" transform="translate(0 -59.12)"/><rect class="cls-101" x="1132.68" y="473.16" width="101.47" height="130.22" rx="4.69"/><circle class="cls-11" cx="1021.56" cy="493.63" r="12.41"/><path class="cls-88" d="M1100.41,548.81h-52.89a.76.76,0,1,1,0-1.52h52.89a.76.76,0,0,1,0,1.52Z" transform="translate(0 -59.12)"/><path class="cls-88" d="M1100.41,558.21h-52.89a.75.75,0,0,1-.76-.75.76.76,0,0,1,.76-.76h52.89a.76.76,0,0,1,.76.76A.75.75,0,0,1,1100.41,558.21Z" transform="translate(0 -59.12)"/><line class="cls-102" x1="1149.03" y1="563.37" x2="1189.15" y2="563.37"/><line class="cls-102" x1="1149.03" y1="578.66" x2="1215.92" y2="578.66"/><path class="cls-103" d="M1146.25,555.31v43.15a6,6,0,0,0,6,5.95h60.4a6,6,0,0,0,6-5.95V555.31a6,6,0,0,0-6-5.95h-60.4A6,6,0,0,0,1146.25,555.31Z" transform="translate(0 -59.12)"/><path class="cls-17" d="M1154.26,570.69A13.68,13.68,0,1,0,1167.94,557,13.67,13.67,0,0,0,1154.26,570.69Z" transform="translate(0 -59.12)"/><path class="cls-15" d="M1146.25,594.14v4.32a6,6,0,0,0,6,5.95h60.4a6,6,0,0,0,6-5.95v-4.32L1197,572.6l-14.62,14.63-14.63-14.63Z" transform="translate(0 -59.12)"/><path class="cls-13" d="M854.58,448.11h219.78a13.24,13.24,0,0,1,13.24,13.24v9.75a0,0,0,0,1,0,0H840.84a0,0,0,0,1,0,0v-9.25A13.74,13.74,0,0,1,854.58,448.11Z"/><circle class="cls-15" cx="864.32" cy="460.16" r="3.08"/><circle class="cls-15" cx="875.22" cy="460.16" r="3.08"/><circle class="cls-15" cx="886.12" cy="460.16" r="3.08"/><rect class="cls-104" x="840.84" y="471.1" width="246.76" height="152.78"/><rect class="cls-15" x="849.95" y="478.3" width="227.83" height="137.33"/><rect class="cls-101" x="864.04" y="494.58" width="88.9" height="104.17" rx="3.36"/><rect class="cls-101" x="969.78" y="493" width="80.33" height="57.08" rx="2.37"/><rect class="cls-101" x="967.46" y="566.71" width="91.93" height="28.79" rx="1.8"/><rect class="cls-98" x="978.53" y="509.4" width="71.57" height="23.43" rx="1.43"/><rect class="cls-105" x="986.95" y="502.85" width="68.67" height="23.43" rx="1.4"/><path class="cls-103" d="M893.89,577.92H880.3a6.07,6.07,0,0,1-6.07-6.07h0a6.06,6.06,0,0,1,6.07-6.06h13.59a6.06,6.06,0,0,1,6.07,6.06h0A6.07,6.07,0,0,1,893.89,577.92Z" transform="translate(0 -59.12)"/><path class="cls-88" d="M941.84,569H907a.55.55,0,0,1,0-1.09h34.82a.55.55,0,0,1,0,1.09Z" transform="translate(0 -59.12)"/><path class="cls-88" d="M923.11,575.8H907a.55.55,0,0,1,0-1.09h16.09a.55.55,0,0,1,0,1.09Z" transform="translate(0 -59.12)"/><rect class="cls-15" x="937.75" y="532.46" width="0.76" height="37.81"/><rect class="cls-15" x="926.33" y="532.46" width="0.76" height="37.81"/><rect class="cls-15" x="914.93" y="532.46" width="0.76" height="37.81"/><rect class="cls-15" x="903.52" y="532.46" width="0.76" height="37.81"/><rect class="cls-15" x="892.11" y="532.46" width="0.76" height="37.81"/><rect class="cls-15" x="880.7" y="532.46" width="0.76" height="37.81"/><rect class="cls-15" x="871.66" y="574.62" width="74.94" height="0.76"/><rect class="cls-15" x="982.87" y="585.13" width="60.64" height="3.73"/><rect class="cls-103" x="1003.65" y="585.13" width="39.86" height="3.73"/><rect class="cls-15" x="982.87" y="574.43" width="60.64" height="3.73"/><rect class="cls-103" x="1024.35" y="574.43" width="19.16" height="3.73"/><path class="cls-106" d="M873.73,625.83c2.35-4.05,5.43-11.88,11.45-11.88,4.59,0,5.47,10.95,12.48,12.67s5.33-27.3,11.07-27S912.8,619,919.52,620s6.45-4.67,11.78-4.18,4.9,8.36,14.57,7.38" transform="translate(0 -59.12)"/><path class="cls-15" d="M1044.44,570.67H996a.76.76,0,0,1,0-1.52h48.47a.76.76,0,0,1,0,1.52Z" transform="translate(0 -59.12)"/><path class="cls-15" d="M1018.37,578.22H996a.76.76,0,0,1,0-1.52h22.4a.76.76,0,0,1,0,1.52Z" transform="translate(0 -59.12)"/></g></g></g></svg>
