<svg xmlns="http://www.w3.org/2000/svg" xmlns:xlink="http://www.w3.org/1999/xlink" viewBox="0 0 1932.6 695"><defs><style>.cls-1{opacity:0.47;}.cls-2,.cls-4{fill:#e0e4f0;}.cls-3,.cls-4{opacity:0.5;}.cls-37,.cls-5{fill:#3454ad;}.cls-6{fill:#fec55e;}.cls-7{opacity:0.2;}.cls-8{fill:#b2b8fa;}.cls-9{fill:#575a8f;}.cls-10{opacity:0.44;}.cls-11{fill:#191c3c;}.cls-12{opacity:0.22;}.cls-13{fill:#8184c4;}.cls-14{fill:#4d5068;}.cls-15{fill:#536dfe;}.cls-16{fill:#ffcebd;}.cls-17{opacity:0.3;}.cls-18{opacity:0.17;}.cls-19{fill:#fff;}.cls-20{opacity:0.11;}.cls-21{opacity:0.18;}.cls-22{fill:#4563cc;}.cls-23{fill:#3a3c4e;}.cls-24{opacity:0.21;}.cls-25{fill:#6371c5;}.cls-26{fill:#6e6fda;}.cls-27{fill:#98aee5;}.cls-28{fill:#41446b;}.cls-29{fill:#dfe2ec;}.cls-30{opacity:0.23;}.cls-31{opacity:0.08;}.cls-32{fill:#231f20;}.cls-33{fill:#ffeac6;}.cls-34{fill:#fbbd1c;}.cls-35{fill:#fed58d;}.cls-36{fill:#ffe8bf;}.cls-37{font-size:16.99px;font-family:CenturyGothic-Bold, Century Gothic;font-weight:700;}.cls-38{opacity:0.1;}.cls-39{fill:#f7f9fa;}.cls-40{fill:#f5f7f9;}.cls-41{opacity:0.15;}.cls-42{opacity:0.4;}.cls-43{fill:#ff65a7;}.cls-44{fill:#e5e4e3;}.cls-45{fill:#bebcba;}.cls-46{fill:#f3f4f9;}.cls-47{fill:#e8eaed;}.cls-48{fill:#ececec;}.cls-49{fill:#bf9447;}.cls-50{fill:#403118;}.cls-51{fill:#212121;}.cls-52{fill:#fed17e;}.cls-53{fill:url(#linear-gradient);}.cls-54{fill:url(#linear-gradient-2);}.cls-55{fill:url(#linear-gradient-3);}.cls-56{fill:url(#linear-gradient-4);}.cls-57{fill:url(#linear-gradient-5);}.cls-58{fill:url(#linear-gradient-6);}.cls-59{fill:url(#linear-gradient-7);}.cls-60{fill:url(#linear-gradient-8);}</style><linearGradient id="linear-gradient" x1="148.08" y1="635.82" x2="232.33" y2="635.82" gradientUnits="userSpaceOnUse"><stop offset="0" stop-color="#fec55e"/><stop offset="1" stop-color="#ffa000"/></linearGradient><linearGradient id="linear-gradient-2" x1="147.9" y1="657.28" x2="232.15" y2="657.28" xlink:href="#linear-gradient"/><linearGradient id="linear-gradient-3" x1="143.88" y1="678.73" x2="228.14" y2="678.73" xlink:href="#linear-gradient"/><linearGradient id="linear-gradient-4" x1="234.66" y1="635.6" x2="318.91" y2="635.6" xlink:href="#linear-gradient"/><linearGradient id="linear-gradient-5" x1="236.35" y1="615.21" x2="320.6" y2="615.21" xlink:href="#linear-gradient"/><linearGradient id="linear-gradient-6" x1="234.34" y1="594.12" x2="318.6" y2="594.12" xlink:href="#linear-gradient"/><linearGradient id="linear-gradient-7" x1="236.35" y1="657.06" x2="320.6" y2="657.06" xlink:href="#linear-gradient"/><linearGradient id="linear-gradient-8" x1="232.33" y1="678.51" x2="316.59" y2="678.51" xlink:href="#linear-gradient"/></defs><title>BlueSky Our Principles</title><g id="Layer_2" data-name="Layer 2"><g id="Layer_1-2" data-name="Layer 1"><g class="cls-1"><path class="cls-2" d="M1084.6,693a520.78,520.78,0,0,0-45-212.35A164.81,164.81,0,0,0,842.28,251.87,520.1,520.1,0,0,0,562,170.42q-19.28,0-38.19,1.38a134.6,134.6,0,0,0-206.69,59.49,524,524,0,0,0-109,77.23,149.17,149.17,0,0,0-148.46,240A522.73,522.73,0,0,0,39.46,693Z"/></g><g class="cls-1"><path class="cls-2" d="M1932.6,693a520.78,520.78,0,0,0-45-212.35,164.81,164.81,0,0,0-197.35-228.78A520.1,520.1,0,0,0,1410,170.42q-19.27,0-38.19,1.38a134.6,134.6,0,0,0-206.69,59.49,524,524,0,0,0-109,77.23,149.17,149.17,0,0,0-148.46,240A522.73,522.73,0,0,0,887.46,693Z"/></g><g class="cls-1"><path class="cls-2" d="M481,695c0-132.81-107.67-240.47-240.48-240.47S0,562.19,0,695Z"/></g><g class="cls-1"><path class="cls-2" d="M963,695c0-132.81-107.66-240.47-240.47-240.47S482,562.19,482,695Z"/></g><g class="cls-1"><path class="cls-2" d="M1441.78,695c0-132.81-107.66-240.47-240.47-240.47S960.83,562.19,960.83,695Z"/></g><g class="cls-1"><path class="cls-2" d="M1920.6,695c0-132.81-107.66-240.47-240.47-240.47S1439.66,562.19,1439.66,695Z"/></g><g class="cls-3"><circle class="cls-2" cx="731.36" cy="156.92" r="15.82" transform="translate(411.31 833) rotate(-76.78)"/></g><g class="cls-3"><circle class="cls-2" cx="1371.36" cy="105.92" r="15.82" transform="translate(954.57 1416.7) rotate(-76.78)"/></g><g class="cls-3"><path class="cls-2" d="M464.83,95.66a20.49,20.49,0,1,1-20.48-20.49A20.48,20.48,0,0,1,464.83,95.66Z"/></g><g class="cls-3"><path class="cls-2" d="M1523.83,110.66a20.49,20.49,0,1,1-20.48-20.49A20.48,20.48,0,0,1,1523.83,110.66Z"/></g><g class="cls-3"><path class="cls-2" d="M1158.83,180.66a20.49,20.49,0,1,1-20.48-20.49A20.48,20.48,0,0,1,1158.83,180.66Z"/></g><g class="cls-3"><path class="cls-2" d="M227.17,229.8a10.44,10.44,0,1,1-10.44-10.44A10.45,10.45,0,0,1,227.17,229.8Z"/></g><g class="cls-3"><circle class="cls-2" cx="321.36" cy="153.09" r="10.44"/></g><g class="cls-3"><circle class="cls-2" cx="1762.36" cy="181.09" r="10.44"/></g><g class="cls-3"><path class="cls-2" d="M827.49,178.69a9.32,9.32,0,1,1-9.32-9.32A9.31,9.31,0,0,1,827.49,178.69Z"/></g><g class="cls-3"><path class="cls-2" d="M528.83,104.06a3.22,3.22,0,1,1-3.22-3.22A3.22,3.22,0,0,1,528.83,104.06Z"/></g><g class="cls-3"><circle class="cls-2" cx="257.92" cy="188.09" r="4.19"/></g><g class="cls-3"><path class="cls-2" d="M112.12,279.25a5.57,5.57,0,1,1-5.57-5.57A5.57,5.57,0,0,1,112.12,279.25Z"/></g><g class="cls-3"><path class="cls-2" d="M570.49,118.07a5.57,5.57,0,1,1-5.56-5.57A5.57,5.57,0,0,1,570.49,118.07Z"/></g><g class="cls-3"><path class="cls-2" d="M1233.49,109.07a5.57,5.57,0,1,1-5.56-5.57A5.57,5.57,0,0,1,1233.49,109.07Z"/></g><g class="cls-3"><circle class="cls-2" cx="162.03" cy="261.79" r="23.62" transform="matrix(0.16, -0.99, 0.99, 0.16, -122.34, 379.79)"/></g><g class="cls-3"><circle class="cls-2" cx="1035.03" cy="235.79" r="23.62" transform="translate(636.48 1219.68) rotate(-80.78)"/></g><g class="cls-3"><path class="cls-2" d="M37,537.43a5.57,5.57,0,1,1-5.57-5.57A5.57,5.57,0,0,1,37,537.43Z"/></g><g class="cls-3"><circle class="cls-2" cx="645.25" cy="141.68" r="22.89"/></g><g class="cls-3"><circle class="cls-2" cx="1639.25" cy="142.68" r="22.89"/></g><g class="cls-3"><circle class="cls-2" cx="910.25" cy="198.68" r="22.89"/></g><g class="cls-3"><circle class="cls-2" cx="29.04" cy="339.3" r="18.12" transform="translate(-127.64 36.94) rotate(-22.5)"/></g><g class="cls-3"><path class="cls-2" d="M1870.17,244.8a10.44,10.44,0,1,1-10.44-10.44A10.45,10.45,0,0,1,1870.17,244.8Z"/></g><path class="cls-4" d="M1304.1,71.11a6.43,6.43,0,1,1-6.42-6.42A6.42,6.42,0,0,1,1304.1,71.11Z"/><path class="cls-5" d="M1109.4,58.05a7.38,7.38,0,1,1,7.37-7.38A7.39,7.39,0,0,1,1109.4,58.05Zm0-10.83a3.46,3.46,0,1,0,3.45,3.45A3.46,3.46,0,0,0,1109.4,47.22Z"/><path class="cls-5" d="M1233.38,127.06a4.93,4.93,0,1,1,4.93-4.93A4.93,4.93,0,0,1,1233.38,127.06Zm0-7.24a2.31,2.31,0,1,0,2.31,2.31A2.32,2.32,0,0,0,1233.38,119.82Z"/><path class="cls-5" d="M775.7,97.75a4.93,4.93,0,1,1,4.93-4.93A4.93,4.93,0,0,1,775.7,97.75Zm0-7.24A2.31,2.31,0,1,0,778,92.82,2.32,2.32,0,0,0,775.7,90.51Z"/><path class="cls-5" d="M900.28,77.53a6.42,6.42,0,1,1,6.41-6.42A6.43,6.43,0,0,1,900.28,77.53Zm0-9.42a3,3,0,1,0,3,3A3,3,0,0,0,900.28,68.11Z"/><path class="cls-5" d="M1076.89,105.52h-3.17v-3.17a1.79,1.79,0,1,0-3.58,0v3.17H1067a1.79,1.79,0,1,0,0,3.57h3.17v3.17a1.79,1.79,0,0,0,3.58,0v-3.17h3.17a1.79,1.79,0,1,0,0-3.57Z"/><path class="cls-5" d="M1006.4,11h-4.29V6.69a2.43,2.43,0,0,0-4.85,0V11H993a2.43,2.43,0,0,0,0,4.85h4.29v4.29a2.43,2.43,0,0,0,4.85,0V15.83h4.29a2.43,2.43,0,0,0,0-4.85Z"/><path class="cls-5" d="M841.49,59.93h-2.42V57.5a1.37,1.37,0,0,0-2.74,0v2.43h-2.42a1.37,1.37,0,0,0,0,2.74h2.42v2.42a1.37,1.37,0,1,0,2.74,0V62.67h2.42a1.37,1.37,0,1,0,0-2.74Z"/><path class="cls-5" d="M1199.06,84.33h-2.42V81.9a1.37,1.37,0,0,0-2.74,0v2.43h-2.43a1.37,1.37,0,0,0,0,2.74h2.43v2.42a1.37,1.37,0,0,0,2.74,0V87.07h2.42a1.37,1.37,0,1,0,0-2.74Z"/><path class="cls-5" d="M751.21,134H749v-2.22a1.26,1.26,0,0,0-2.51,0V134h-2.22a1.26,1.26,0,1,0,0,2.51h2.22v2.22a1.26,1.26,0,1,0,2.51,0v-2.22h2.22a1.26,1.26,0,0,0,0-2.51Z"/><path class="cls-5" d="M1157.23,150.49H1155v-2.22a1.26,1.26,0,0,0-2.51,0v2.22h-2.22a1.26,1.26,0,1,0,0,2.51h2.22v2.22a1.26,1.26,0,1,0,2.51,0V153h2.22a1.26,1.26,0,0,0,0-2.51Z"/><path class="cls-5" d="M1112.57,213.58l-1.91,1.91-1.92-1.91a1.53,1.53,0,1,0-2.16,2.16l1.91,1.92-1.91,1.91a1.53,1.53,0,1,0,2.16,2.17l1.92-1.92,1.91,1.92a1.53,1.53,0,1,0,2.17-2.17l-1.92-1.91,1.92-1.92a1.53,1.53,0,0,0-2.17-2.16Z"/><path class="cls-5" d="M711.36,220.27l-1.12,1.12-1.12-1.12a.9.9,0,0,0-1.27,1.27l1.12,1.12-1.12,1.12a.9.9,0,1,0,1.27,1.27l1.12-1.12,1.12,1.12a.9.9,0,1,0,1.27-1.27l-1.12-1.12,1.12-1.12a.9.9,0,0,0-1.27-1.27Z"/><path class="cls-5" d="M902.75,19.15l-1.92,1.92-1.91-1.92a1.53,1.53,0,0,0-2.17,2.16l1.92,1.92-1.92,1.91a1.55,1.55,0,0,0,0,2.17,1.53,1.53,0,0,0,2.17,0l1.91-1.92,1.92,1.92a1.53,1.53,0,0,0,2.16-2.17L903,23.23l1.91-1.92a1.53,1.53,0,0,0-2.16-2.16Z"/><path class="cls-5" d="M794.56,179.65l-1.91,1.92-1.92-1.92a1.53,1.53,0,0,0-2.16,2.16l1.91,1.92-1.91,1.92a1.53,1.53,0,0,0,2.16,2.16l1.92-1.92,1.91,1.92a1.53,1.53,0,1,0,2.17-2.16l-1.92-1.92,1.92-1.92a1.53,1.53,0,0,0-2.17-2.16Z"/><path class="cls-5" d="M1225.81,178.62l-1.1,1.09-1.09-1.09a.88.88,0,0,0-1.24,0,.87.87,0,0,0,0,1.23l1.1,1.1-1.1,1.09a.88.88,0,0,0,1.24,1.24l1.09-1.09,1.1,1.09a.88.88,0,0,0,1.24-1.24L1226,181l1.1-1.1a.87.87,0,0,0,0-1.23A.88.88,0,0,0,1225.81,178.62Z"/><path class="cls-5" d="M1077.43.45l-1.92,1.91L1073.6.45a1.53,1.53,0,1,0-2.17,2.16l1.92,1.92-1.92,1.91a1.55,1.55,0,0,0,0,2.17,1.53,1.53,0,0,0,2.17,0l1.91-1.92,1.92,1.92a1.53,1.53,0,1,0,2.16-2.17l-1.91-1.91,1.91-1.92a1.53,1.53,0,0,0-2.16-2.16Z"/><path class="cls-5" d="M891.81,147.67l-1.91,1.91L888,147.67a1.53,1.53,0,0,0-2.16,2.16l1.91,1.92-1.91,1.91a1.53,1.53,0,0,0,2.16,2.17l1.92-1.92,1.91,1.92a1.53,1.53,0,1,0,2.17-2.17l-1.92-1.91,1.92-1.92a1.53,1.53,0,1,0-2.17-2.16Z"/><path class="cls-6" d="M837.7,133.33a2,2,0,1,1-2-2A2,2,0,0,1,837.7,133.33Z"/><path class="cls-6" d="M887,214.49a1.55,1.55,0,1,1-1.55-1.55A1.55,1.55,0,0,1,887,214.49Z"/><path class="cls-6" d="M1141.08,250a1.55,1.55,0,1,1-1.55-1.55A1.56,1.56,0,0,1,1141.08,250Z"/><path class="cls-6" d="M685.36,173.24a2,2,0,1,1-2-2A2,2,0,0,1,685.36,173.24Z"/><path class="cls-6" d="M1145.72,106.55a2,2,0,1,1-2-2A2,2,0,0,1,1145.72,106.55Z"/><path class="cls-6" d="M953.8,2.38a2,2,0,1,1-2-2A2,2,0,0,1,953.8,2.38Z"/><path class="cls-6" d="M924.83,119.59a2.41,2.41,0,1,1-2.4-2.4A2.4,2.4,0,0,1,924.83,119.59Z"/><path class="cls-6" d="M1058.37,156.27a2.41,2.41,0,1,1-2.41-2.4A2.41,2.41,0,0,1,1058.37,156.27Z"/><g class="cls-7"><path class="cls-8" d="M855.84,692.71c-4.45-38-10.35-66.28-38.18-93.57-13-12.8-30.29-21.76-40.59-36.71-12.53-18.2-13.53-43.57-30.75-57.76-18.48-15.24-48.13-11.06-67.16-25.66-13.57-10.41-18.55-27.88-28.3-41.71-15.8-22.43-45.76-34.69-73.47-30.07,27.74,6.51,47.31,36,41.83,63-3.5,17.28-15.7,33.07-14.2,50.62,3,34.86,55.72,49.78,59.79,84.53,1.11,9.47-1.77,18.92-2.16,28.44-1.23,29.56,25.46,57.56,56.11,58.87Z"/><path class="cls-9" d="M648.49,494a489.16,489.16,0,0,1,72.83,85.72c20.07,30,34.21,61.94,50.49,93.84,1.47,2.87,6.28.86,5.34-2.17C755.78,603,702.87,540.83,648.59,493.92c-.06-.05-.16,0-.1.09Z"/><path class="cls-9" d="M650.86,529.32a54.8,54.8,0,0,1,22.6,1.84c7.68,2.35,12.9,7.19,19.93,10.41.78.36,1.88-.42,1.3-1.25-8.62-12.27-30.23-14.48-44-12.29a.66.66,0,0,0,.18,1.29Z"/><path class="cls-9" d="M667.88,567.57a67.92,67.92,0,0,1,31.79-.39c9.61,2.29,17.06,7.48,25.58,11.91a1.4,1.4,0,0,0,1.73-2.17c-14.23-14.82-40.66-16-59.28-10a.33.33,0,0,0,.18.63Z"/><path class="cls-9" d="M686.7,618.28c29.22-3.43,48.57,2.23,70.64,21.15,1.31,1.13,3.63-.33,2.55-1.9-14.34-20.95-49.77-31-73.56-20.59a.72.72,0,0,0,.37,1.34Z"/><path class="cls-9" d="M705.39,512.14c-11.76,12.44-7.45,37.1,3.91,48.4.43.42,1.19-.13.86-.64-5.07-7.62-8.73-14.95-9-24.22-.26-8.52,3.18-14.89,5.71-22.71a.89.89,0,0,0-1.48-.83Z"/><path class="cls-9" d="M727.35,540.08c-6,16.06-5.36,37.41,4.37,52.07.48.73,1.77.28,1.49-.6-5.66-17.9-8.18-32.35-4.29-51.06a.81.81,0,0,0-1.57-.41Z"/><path class="cls-9" d="M761.28,570.8c-10.48,22.55-9,47.54.8,70.05.89,2,4.42,1.18,3.53-1-9.48-22.59-9-45.06-2.22-68.25.35-1.17-1.56-2-2.11-.85Z"/></g><g class="cls-10"><path class="cls-11" d="M1151.07,479.26a.06.06,0,1,0,0-.12c-.07,0-.07.12,0,.12Z"/></g><g class="cls-12"><path class="cls-8" d="M977.58,544.13c-16.64-25.07-33.44-50.34-54.85-71.48-7.05-7-17.18-13.87-26.09-9.55-8.17,4-9.72,14.9-9.06,24,3.09,42.61,30.23,79.65,60.36,109.94a480.42,480.42,0,0,0,114.83,85.16l7.31,1.3Z"/><path class="cls-9" d="M1055.68,673.13C990,628.35,937.76,559.67,906.3,487.28c-1.12-2.58-4.94-.35-3.8,2.23a446.57,446.57,0,0,0,63.51,103c26.1,31.66,56.51,56.83,89.55,80.82.12.09.24-.12.12-.21Z"/><path class="cls-9" d="M898.22,522.45A64.09,64.09,0,0,0,928,537.78a1.36,1.36,0,0,0,.69-2.63A67.6,67.6,0,0,1,900,520.64c-1.22-1.06-3,.72-1.76,1.81Z"/><path class="cls-9" d="M920.85,556.57c8.18,8.34,20.09,18.52,31.67,21.32a.65.65,0,0,0,.48-1.2c-4.78-3.43-10.54-5.57-15.56-8.7a164.41,164.41,0,0,1-16.2-11.82c-.28-.22-.65.14-.39.4Z"/><path class="cls-9" d="M955.27,597.83c6.54,5.66,14.71,9.3,23,11.72,1.16.34,1.64-1.5.47-1.82-8.33-2.25-15.59-6.13-22.92-10.57a.42.42,0,0,0-.5.67Z"/><path class="cls-9" d="M931.5,509.44c2.06,13.24,4.13,24.88,2.85,38.36-.23,2.42,3.48,2.35,3.75,0,1.42-12.54.77-27.57-4.55-39.21-.57-1.25-2.23-.29-2,.85Z"/><path class="cls-9" d="M953.13,539.56c5.83,12.74,9.21,26,9,40a1.5,1.5,0,0,0,3,0C965,565.14,961.67,551.35,954,539a.52.52,0,0,0-.89.52Z"/><path class="cls-9" d="M982.42,574.33c7.19,15.38,13,28.74,14.41,45.9.23,2.81,4.63,2.82,4.4,0C999.89,604,994.8,585.71,984.1,573c-.84-1-2.16.29-1.68,1.31Z"/><path class="cls-8" d="M1041.37,671.24,926.54,609.73c-13.51-7.23-27.2-14.54-42.11-18.1s-31.4-3-44.56,4.85a14.79,14.79,0,0,0-4.87,4.18c-3.73,5.58-.06,13,4,18.39,32.16,42.33,87.52,59.08,139.84,68.49,31.21,5.62,64.57,9.28,93.65-3.36C1072.49,684.18,1053.69,677.84,1041.37,671.24Z"/><path class="cls-9" d="M849,609.72c27.51,17.83,58,29.7,88.83,40.51,34.15,12,68.4,23.66,102.42,36,2.67,1,4.32-3.19,1.63-4.09-33-11-65.73-22.57-98.56-34-32-11.12-64-22.36-92.81-40.46-1.36-.86-2.88,1.13-1.51,2Z"/><path class="cls-9" d="M859.79,632.64c11.15,1.57,22.45,3.4,33.71,3.83,2.67.1,3.26-3.91.52-4.19-11.27-1.13-22.77-.86-34.08-.85a.61.61,0,0,0-.15,1.21Z"/><path class="cls-9" d="M904.87,656.55l22-1c7.21-.33,14.82,0,21.83-1.88,1.36-.36,1.58-2.4,0-2.6-6.9-.88-14,.27-20.92.87l-23.2,2c-1.7.14-1.31,2.67.35,2.6Z"/><path class="cls-9" d="M961.46,676.89c6.13-1.8,12.1-3.83,18.47-4.62,5.24-.65,10.85.56,15.86-.84,1.37-.38.94-2.17,0-2.69-4.93-2.65-13-1.28-18.31-.2-6,1.24-11.84,3.29-16.8,7-.76.57,0,1.6.8,1.36Z"/><path class="cls-9" d="M879.91,604.39a144.73,144.73,0,0,1,10.38,18.3c2.27,4.88,3.62,10.41,6.81,14.73a.71.71,0,0,0,1.25-.53c-.48-6.15-4.24-12.1-7.06-17.49a185.2,185.2,0,0,0-9.69-16.34c-.76-1.16-2.45.17-1.69,1.33Z"/><path class="cls-9" d="M917.65,623.57c6.44,7.53,12.52,16.62,20.07,23,.51.43,1.11-.3.78-.8-5.47-8.21-13.77-15.26-20.48-22.5-.2-.22-.57.05-.37.28Z"/><path class="cls-9" d="M956.26,638.06c3.49,4.52,7.21,9,10.51,13.63,2.89,4.08,5.19,8.87,9.5,11.6a.9.9,0,0,0,1.35-1c-1.59-4.84-5.72-8.23-8.93-12-3.69-4.38-7.11-9-10.66-13.52a1.13,1.13,0,0,0-1.77,1.39Z"/><path class="cls-13" d="M1029.25,478.93c-5.76-5.2-15.14-7.2-21.28-2.47-5.6,4.32-6.6,12.27-6.75,19.34-1.29,63.78,34,130.56,64.51,186.56l6.5,1.65c-5.56-62.49-11.28-125.7-31.75-185C1038,491.68,1035,484.13,1029.25,478.93Z"/><path class="cls-9" d="M1063.17,662.48c-17.48-53.57-29.72-108.35-42-163.29-.41-1.83-3.33-1.41-2.88.38,13.6,54.52,24.75,110.37,44,163.27.21.57,1,.21.87-.36Z"/><path class="cls-9" d="M1010,518.81l8.35,11c2.44,3.19,4.6,6.82,7.9,9.15a1,1,0,0,0,1.57-1.22c-1.45-3.75-4.47-6.77-6.95-9.89L1012.33,517a1.45,1.45,0,0,0-2.29,1.79Z"/><path class="cls-9" d="M1017.05,549.82c4.94,7.77,9.63,17.32,16.12,23.86a.66.66,0,0,0,1.12-.65c-2.5-8.91-10-17.45-16.13-24.07a.7.7,0,0,0-1.11.86Z"/><path class="cls-9" d="M1027.8,587.7c1.36,4.89,4.72,9.49,7.22,13.92,2.23,4,4.14,8.26,7,11.77a.66.66,0,0,0,1.12-.66c-1.51-4.89-4.51-9.5-6.87-14.06-2.1-4-3.82-8.52-6.82-11.95a1,1,0,0,0-1.69,1Z"/><path class="cls-9" d="M1042.3,534.21a58.56,58.56,0,0,0-6.69,16.36c-1.08,4.4-2.89,10.89-1,15.21a1,1,0,0,0,1.82,0c1.94-4.09,1.35-9.91,2.24-14.42a100.39,100.39,0,0,1,4.89-16.46c.28-.72-.79-1.39-1.21-.68Z"/><path class="cls-9" d="M1053.56,577.82c-.9,5.76-1.48,11.48-2,17.29-.43,5.14-1.55,10.65-.76,15.77.15,1,1.83,1.41,2.15.27,1.52-5.28,1.11-11.21,1.36-16.68s.38-11.07.24-16.65c0-.61-.93-.55-1,0Z"/></g><g class="cls-12"><path class="cls-8" d="M546.64,544.13c-16.64-25.07-33.44-50.34-54.85-71.48-7.05-7-17.18-13.87-26.09-9.55-8.17,4-9.72,14.9-9.06,24C459.73,529.68,486.87,566.72,517,597a480.42,480.42,0,0,0,114.83,85.16l7.31,1.3Z"/><path class="cls-9" d="M624.74,673.13c-65.68-44.78-117.92-113.46-149.38-185.85-1.12-2.58-4.94-.35-3.8,2.23a446.57,446.57,0,0,0,63.51,103c26.11,31.66,56.51,56.83,89.55,80.82.12.09.24-.12.12-.21Z"/><path class="cls-9" d="M467.28,522.45a64.09,64.09,0,0,0,29.77,15.33,1.36,1.36,0,0,0,.69-2.63A67.6,67.6,0,0,1,469,520.64c-1.22-1.06-3,.72-1.76,1.81Z"/><path class="cls-9" d="M489.91,556.57c8.18,8.34,20.09,18.52,31.67,21.32a.65.65,0,0,0,.48-1.2c-4.78-3.43-10.54-5.57-15.56-8.7a164.41,164.41,0,0,1-16.2-11.82c-.27-.22-.65.14-.39.4Z"/><path class="cls-9" d="M524.33,597.83c6.54,5.66,14.71,9.3,22.95,11.72,1.16.34,1.64-1.5.47-1.82-8.33-2.25-15.59-6.13-22.92-10.57a.42.42,0,0,0-.5.67Z"/><path class="cls-9" d="M500.56,509.44c2.06,13.24,4.13,24.88,2.85,38.36-.23,2.42,3.48,2.35,3.75,0,1.42-12.54.77-27.57-4.55-39.21-.57-1.25-2.23-.29-2.05.85Z"/><path class="cls-9" d="M522.19,539.56c5.83,12.74,9.21,26,9,40a1.5,1.5,0,0,0,3,0c-.12-14.44-3.46-28.23-11.11-40.54a.52.52,0,0,0-.89.52Z"/><path class="cls-9" d="M551.48,574.33c7.19,15.38,13,28.74,14.41,45.9.23,2.81,4.63,2.82,4.4,0C569,604,563.86,585.71,553.16,573c-.84-1-2.16.29-1.68,1.31Z"/><path class="cls-8" d="M610.43,671.24,495.6,609.73c-13.51-7.23-27.2-14.54-42.11-18.1s-31.4-3-44.56,4.85a14.79,14.79,0,0,0-4.87,4.18c-3.73,5.58-.06,13,4,18.39,32.16,42.33,87.52,59.08,139.84,68.49,31.21,5.62,64.57,9.28,93.65-3.36C641.55,684.18,622.75,677.84,610.43,671.24Z"/><path class="cls-9" d="M418.08,609.72c27.51,17.83,58,29.7,88.83,40.51,34.15,12,68.4,23.66,102.42,36,2.67,1,4.32-3.19,1.64-4.09-33-11-65.74-22.57-98.57-34-32-11.12-64-22.36-92.81-40.46-1.36-.86-2.88,1.13-1.51,2Z"/><path class="cls-9" d="M428.85,632.64c11.15,1.57,22.45,3.4,33.71,3.83,2.67.1,3.26-3.91.52-4.19-11.27-1.13-22.77-.86-34.08-.85a.61.61,0,0,0-.15,1.21Z"/><path class="cls-9" d="M473.93,656.55l21.95-1c7.21-.33,14.82,0,21.83-1.88,1.36-.36,1.58-2.4,0-2.6-6.9-.88-14,.27-20.92.87l-23.2,2c-1.7.14-1.31,2.67.35,2.6Z"/><path class="cls-9" d="M530.52,676.89c6.13-1.8,12.1-3.83,18.47-4.62,5.24-.65,10.85.56,15.86-.84,1.37-.38.94-2.17,0-2.69-4.93-2.65-13-1.28-18.31-.2-6,1.24-11.84,3.29-16.8,7-.76.57,0,1.6.8,1.36Z"/><path class="cls-9" d="M449,604.39a144.73,144.73,0,0,1,10.38,18.3c2.27,4.88,3.62,10.41,6.81,14.73a.71.71,0,0,0,1.25-.53c-.48-6.15-4.24-12.1-7.06-17.49a187.58,187.58,0,0,0-9.68-16.34c-.77-1.16-2.46.17-1.7,1.33Z"/><path class="cls-9" d="M486.71,623.57c6.44,7.53,12.52,16.62,20.07,23,.51.43,1.11-.3.78-.8-5.47-8.21-13.77-15.26-20.48-22.5-.2-.22-.57.05-.37.28Z"/><path class="cls-9" d="M525.32,638.06c3.49,4.52,7.21,9,10.51,13.63,2.89,4.08,5.19,8.87,9.5,11.6a.9.9,0,0,0,1.35-1c-1.59-4.84-5.72-8.23-8.93-12-3.69-4.38-7.11-9-10.66-13.52a1.13,1.13,0,0,0-1.77,1.39Z"/><path class="cls-13" d="M598.31,478.93c-5.76-5.2-15.14-7.2-21.28-2.47-5.6,4.32-6.6,12.27-6.75,19.34-1.29,63.78,34,130.56,64.51,186.56l6.5,1.65c-5.56-62.49-11.28-125.7-31.75-185C607,491.68,604.07,484.13,598.31,478.93Z"/><path class="cls-9" d="M632.23,662.48c-17.48-53.57-29.72-108.35-42-163.29-.41-1.83-3.33-1.41-2.88.38,13.6,54.52,24.75,110.37,44,163.27.21.57,1,.21.87-.36Z"/><path class="cls-9" d="M579.1,518.81l8.35,11c2.44,3.19,4.6,6.82,7.9,9.15a1,1,0,0,0,1.57-1.22c-1.45-3.75-4.47-6.77-6.95-9.89L581.39,517a1.45,1.45,0,0,0-2.29,1.79Z"/><path class="cls-9" d="M586.11,549.82c4.94,7.77,9.63,17.32,16.12,23.86a.66.66,0,0,0,1.12-.65c-2.5-8.91-10-17.45-16.13-24.07a.7.7,0,0,0-1.11.86Z"/><path class="cls-9" d="M596.86,587.7c1.36,4.89,4.72,9.49,7.22,13.92,2.23,4,4.14,8.26,7,11.77a.66.66,0,0,0,1.12-.66c-1.51-4.89-4.51-9.5-6.87-14.06-2.1-4-3.82-8.52-6.82-11.95a1,1,0,0,0-1.69,1Z"/><path class="cls-9" d="M611.36,534.21a58.56,58.56,0,0,0-6.69,16.36c-1.08,4.4-2.89,10.89-1,15.21a1,1,0,0,0,1.82,0c1.94-4.09,1.35-9.91,2.24-14.42a100.39,100.39,0,0,1,4.89-16.46c.28-.72-.79-1.39-1.21-.68Z"/><path class="cls-9" d="M622.62,577.82c-.9,5.76-1.48,11.48-2,17.29-.43,5.14-1.55,10.65-.76,15.77.15,1,1.83,1.41,2.15.27,1.52-5.28,1.11-11.21,1.36-16.68s.38-11.07.24-16.65c0-.61-.93-.55-1,0Z"/></g><g class="cls-7"><path class="cls-8" d="M1307,692.71c4.45-38,10.35-66.28,38.18-93.57,13-12.8,30.29-21.76,40.59-36.71,12.53-18.2,13.53-43.57,30.75-57.76,18.48-15.24,48.13-11.06,67.16-25.66,13.57-10.41,18.55-27.88,28.3-41.71,15.8-22.43,45.76-34.69,73.47-30.07-27.74,6.51-47.31,36-41.83,63,3.5,17.28,15.7,33.07,14.19,50.62-3,34.86-55.71,49.78-59.78,84.53-1.11,9.47,1.77,18.92,2.16,28.44,1.23,29.56-25.46,57.56-56.11,58.87Z"/><path class="cls-9" d="M1514.31,494a489.53,489.53,0,0,0-72.82,85.72c-20.07,30-34.21,61.94-50.49,93.84-1.47,2.87-6.28.86-5.34-2.17C1407,603,1459.94,540.83,1514.22,493.92c.06-.05.16,0,.09.09Z"/><path class="cls-9" d="M1512,529.32a54.8,54.8,0,0,0-22.6,1.84c-7.68,2.35-12.9,7.19-19.93,10.41-.78.36-1.88-.42-1.3-1.25,8.62-12.27,30.23-14.48,44-12.29a.66.66,0,0,1-.18,1.29Z"/><path class="cls-9" d="M1494.93,567.57a67.92,67.92,0,0,0-31.79-.39c-9.61,2.29-17.06,7.48-25.58,11.91a1.4,1.4,0,0,1-1.73-2.17c14.23-14.82,40.66-16,59.28-10a.33.33,0,0,1-.18.63Z"/><path class="cls-9" d="M1476.11,618.28c-29.22-3.43-48.57,2.23-70.64,21.15-1.31,1.13-3.63-.33-2.56-1.9,14.35-20.95,49.78-31,73.57-20.59a.72.72,0,0,1-.37,1.34Z"/><path class="cls-9" d="M1457.42,512.14c11.76,12.44,7.45,37.1-3.91,48.4-.43.42-1.19-.13-.86-.64,5.07-7.62,8.73-14.95,9-24.22.26-8.52-3.18-14.89-5.71-22.71a.89.89,0,0,1,1.48-.83Z"/><path class="cls-9" d="M1435.46,540.08c6,16.06,5.36,37.41-4.37,52.07-.48.73-1.77.28-1.49-.6,5.66-17.9,8.18-32.35,4.29-51.06a.81.81,0,0,1,1.57-.41Z"/><path class="cls-9" d="M1401.53,570.8c10.48,22.55,9,47.54-.8,70.05-.89,2-4.42,1.18-3.53-1,9.48-22.59,9-45.06,2.22-68.25-.35-1.17,1.56-2,2.11-.85Z"/></g><g class="cls-7"><path class="cls-8" d="M1286.42,692.71c-4.16-35.49-9.66-61.84-35.63-87.31-12.18-11.93-28.26-20.3-37.87-34.24-11.69-17-12.62-40.65-28.69-53.89-17.24-14.22-44.9-10.32-62.66-23.95-12.66-9.71-17.31-26-26.4-38.91-14.74-20.92-42.7-32.37-68.55-28.06,25.88,6.08,44.14,33.59,39,58.8-3.27,16.13-14.65,30.86-13.25,47.23,2.78,32.52,52,46.44,55.78,78.87,1,8.83-1.65,17.65-2,26.53-1.14,27.59,23.76,53.71,52.36,54.93Z"/><path class="cls-9" d="M1093,507.33a457,457,0,0,1,68,80c18.72,28,31.91,57.79,47.1,87.55,1.37,2.68,5.87.8,5-2C1193.06,609,1143.69,551,1093.05,507.24c-.06-.05-.15,0-.09.09Z"/><path class="cls-9" d="M1095.17,540.27a51,51,0,0,1,21.09,1.71c7.15,2.2,12,6.71,18.59,9.72.73.34,1.75-.4,1.21-1.17-8-11.45-28.2-13.51-41.06-11.46a.61.61,0,0,0,.17,1.2Z"/><path class="cls-9" d="M1111.05,576a63.41,63.41,0,0,1,29.66-.36c9,2.14,15.92,7,23.87,11.11a1.31,1.31,0,0,0,1.61-2c-13.28-13.83-37.94-14.95-55.31-9.32a.31.31,0,1,0,.17.59Z"/><path class="cls-9" d="M1128.61,623.26c27.26-3.2,45.31,2.08,65.9,19.74,1.22,1,3.39-.31,2.39-1.77-13.39-19.55-46.44-29-68.64-19.22a.67.67,0,0,0,.35,1.25Z"/><path class="cls-9" d="M1146,524.24c-11,11.61-6.94,34.61,3.65,45.15.4.4,1.12-.12.8-.59-4.73-7.11-8.14-13.95-8.39-22.6-.24-8,3-13.89,5.32-21.19a.83.83,0,0,0-1.38-.77Z"/><path class="cls-9" d="M1166.53,550.3c-5.61,15-5,34.91,4.08,48.59.45.68,1.65.26,1.39-.56-5.28-16.7-7.63-30.19-4-47.64a.76.76,0,0,0-1.47-.39Z"/><path class="cls-9" d="M1198.19,579c-9.78,21-8.42,44.36.74,65.36.84,1.92,4.13,1.1,3.3-.88-8.85-21.08-8.37-42-2.07-63.68.32-1.09-1.46-1.9-2-.8Z"/></g><g class="cls-7"><path class="cls-8" d="M1304.71,651.17l-.59.3c-6.18,3-9.48,2.56-15.56-.17a63.23,63.23,0,0,1-15.69-9.54c-5.9-5.11-10.5-12-11.52-19.77-.23-1.74-.24-3.64.78-5.06,1.39-2,4.29-2.27,6.54-1.43s4,2.57,5.83,4.16a6.53,6.53,0,0,0,2.57,1.61,2.39,2.39,0,0,0,2.69-.92c.79-1.43-.6-3.05-1.87-4.08-2.92-2.39-5.66-3.76-8.72-5.87-3.85-2.66-7.42-5.91-9.56-10.06s-2.66-9.33-.52-13.49a8.22,8.22,0,0,1,2.74-3.19c2.12-1.37,4.86-1.33,7.33-.83s4.86,1.42,7.37,1.66c5.93.55,8.22-3.64,8-9.09-.12-3.66-1.34-7.2-1.58-10.85-.44-6.43,2.67-13.31,8.46-16.12s14-.25,16.1,5.82c2.33,6.6-2.76,14.09.72,20.38a19.38,19.38,0,0,0,5.67,6.07c3.27,2,7.93-.43,11.72-.3a3.44,3.44,0,0,1,2.35.73,3.27,3.27,0,0,1,.75,1.68,14,14,0,0,1-4.12,12.82c-3.88,3.61-10.65,5.49-12.26,11.09-1,3.48-.47,12.12,5,11.19,2.07-.35,3.43-2.41,5.41-3.1,2.45-.86,5.28.74,6.4,3.08a9.67,9.67,0,0,1-.1,7.57c-1.48,3.82-4.36,6.9-7.17,9.87C1316.18,641.46,1312.39,647.29,1304.71,651.17Z"/><rect class="cls-14" x="1294.99" y="570.65" width="2.64" height="122.05" transform="matrix(1, -0.01, 0.01, 1, -6.24, 12.97)"/><polygon class="cls-14" points="1296.11 611.49 1279.38 595.09 1281.23 593.21 1296.07 607.75 1310.61 592.91 1312.5 594.76 1296.11 611.49"/><polygon class="cls-14" points="1296.42 642.87 1279.69 626.48 1281.54 624.59 1296.38 639.14 1310.93 624.3 1312.81 626.15 1296.42 642.87"/></g><g class="cls-7"><path class="cls-8" d="M1558,690.33l-.6.29c-6.18,3-9.48,2.57-15.56-.16a63.75,63.75,0,0,1-15.69-9.55c-5.89-5.1-10.5-12-11.52-19.77a7.11,7.11,0,0,1,.78-5.06c1.4-2,4.3-2.27,6.55-1.42s4,2.57,5.83,4.16a6.69,6.69,0,0,0,2.57,1.61,2.4,2.4,0,0,0,2.69-.93c.79-1.42-.61-3-1.87-4.08-2.93-2.38-5.66-3.76-8.73-5.87-3.85-2.65-7.42-5.9-9.56-10.06s-2.66-9.33-.52-13.48a8.21,8.21,0,0,1,2.75-3.2c2.12-1.36,4.85-1.32,7.32-.82s4.86,1.42,7.37,1.65c5.94.56,8.22-3.63,8-9.09-.11-3.65-1.33-7.2-1.58-10.85-.43-6.42,2.67-13.3,8.47-16.11s14-.26,16.1,5.81c2.33,6.6-2.77,14.09.72,20.39a19.22,19.22,0,0,0,5.67,6.06c3.27,2,7.92-.43,11.71-.29a3.38,3.38,0,0,1,2.35.73A3.19,3.19,0,0,1,1582,622a14,14,0,0,1-4.11,12.82c-3.88,3.6-10.66,5.49-12.27,11.09-1,3.48-.46,12.12,5.05,11.19,2.06-.35,3.43-2.42,5.41-3.11,2.45-.85,5.28.75,6.4,3.09a9.69,9.69,0,0,1-.11,7.56c-1.47,3.82-4.35,6.9-7.16,9.88C1569.41,680.62,1565.63,686.44,1558,690.33Z"/><rect class="cls-14" x="1548.02" y="609.8" width="2.64" height="80.9" transform="translate(-6.41 15.49) rotate(-0.57)"/><polygon class="cls-14" points="1549.34 650.64 1532.62 634.25 1534.46 632.36 1549.3 646.91 1563.85 632.07 1565.73 633.92 1549.34 650.64"/><polygon class="cls-14" points="1549.65 682.03 1532.93 665.63 1534.78 663.75 1549.62 678.29 1564.16 663.45 1566.05 665.3 1549.65 682.03"/></g><g class="cls-7"><path class="cls-13" d="M1611.06,549.06l-.63.31c-6.5,3.19-10,2.7-16.38-.18a66.5,66.5,0,0,1-16.51-10c-6.21-5.38-11-12.68-12.13-20.81-.24-1.83-.25-3.83.82-5.33,1.48-2.06,4.53-2.39,6.9-1.5s4.24,2.7,6.13,4.38a7,7,0,0,0,2.71,1.69,2.52,2.52,0,0,0,2.83-1c.83-1.5-.64-3.21-2-4.29-3.08-2.52-6-4-9.19-6.18-4.05-2.8-7.81-6.22-10.06-10.59s-2.8-9.83-.55-14.2a8.66,8.66,0,0,1,2.9-3.36c2.23-1.44,5.11-1.4,7.71-.87s5.11,1.49,7.75,1.74c6.25.59,8.66-3.83,8.48-9.57-.13-3.84-1.41-7.57-1.67-11.42-.46-6.76,2.81-14,8.91-17s14.69-.27,17,6.12c2.45,7-2.91,14.83.76,21.46a20.24,20.24,0,0,0,6,6.38c3.44,2.09,8.34-.45,12.33-.31a3.6,3.6,0,0,1,2.47.77,3.33,3.33,0,0,1,.79,1.77,14.73,14.73,0,0,1-4.33,13.49c-4.08,3.8-11.22,5.78-12.91,11.68-1.06,3.66-.49,12.76,5.31,11.77,2.17-.36,3.61-2.53,5.69-3.26,2.58-.9,5.56.78,6.74,3.24a10.17,10.17,0,0,1-.11,8c-1.55,4-4.58,7.26-7.54,10.4C1623.13,538.84,1619.14,545,1611.06,549.06Z"/><rect class="cls-14" x="1601.72" y="464.29" width="1.99" height="228.41" transform="translate(-5.74 16.14) rotate(-0.58)"/><polygon class="cls-14" points="1601.99 506.72 1584.67 489.75 1586.06 488.33 1601.97 503.91 1617.55 488.01 1618.97 489.4 1601.99 506.72"/><polygon class="cls-14" points="1602.33 539.76 1585 522.78 1586.39 521.36 1602.3 536.95 1617.88 521.05 1619.3 522.44 1602.33 539.76"/></g><polygon class="cls-15" points="523.32 442.55 504.85 572.7 504.39 678.78 532.49 678.78 538.28 586.15 564.2 492.5 588.01 588.28 602.64 678.78 631.78 678.78 603.45 442.55 523.32 442.55"/><path class="cls-11" d="M502.83,677.66l-4.3,4.67-22.71,2.61c-5.21,1.79-6.11,2.86-7.71,8.12l-.4,1.31h46.86l3.33-4.16v4.16h15.37V677.66H502.83Z"/><path class="cls-11" d="M632.3,677.66l4.31,4.67,22.7,2.61c5.21,1.79,6.12,2.86,7.72,8.12l.39,1.31H620.56l-3.33-4.16v4.16H601.86V677.66H632.3Z"/><path class="cls-14" d="M552.79,292.76l-31.54,17.53L524,384.63l-2.34,48.71a8.78,8.78,0,0,0,8.77,9.2H595.6a8.77,8.77,0,0,0,8.75-9.48l-4-50.43,15.79-70.29-35.23-19.58Z"/><polygon class="cls-16" points="580.88 293.63 566.83 319.32 552.79 293.63 552.79 275.39 580.88 275.39 580.88 293.63"/><path class="cls-14" d="M593,237.52a15.07,15.07,0,0,0-1.41-3.4l-3.45-6.73c-2-4-4.13-3.47-7.89-4.66-3.38-1.08-6.39-3.37-10-3.53a13,13,0,0,0-6.48,1.76,12.24,12.24,0,0,1-2.56,1.15c-1.54.39-3.15,0-4.73.06a8.94,8.94,0,0,0-8.16,6.54,6,6,0,0,1-.58,1.78,5.74,5.74,0,0,1-1.09,1.17c-4.81,4.61-2,12.33-1.2,18,.43,3.16.06,6.46,2.67,8.84l-1.29-.32a22.56,22.56,0,0,0,11.85,5.75,66.69,66.69,0,0,0,13.33.74l16.09-.17a4.7,4.7,0,0,0,2.92-.68,4.63,4.63,0,0,0,1.31-3.13c.85-6.12.29-12.21.81-18.42A15.37,15.37,0,0,0,593,237.52Z"/><g class="cls-17"><path class="cls-11" d="M552.79,285.87l3.94,6.84a14.45,14.45,0,0,0,24.15,1.37V275.39H552.79Z"/></g><path class="cls-16" d="M550.52,247.23v21.4a27.48,27.48,0,0,0,3.68,13.73l4.13,7.15a14.47,14.47,0,0,0,12.54,7.25h0a14.45,14.45,0,0,0,12.37-7l.84-1.37a27.51,27.51,0,0,0,4-14.27V234.71h-37Z"/><path class="cls-16" d="M550.81,271.79l-4.3-2.26s-4.53-6.63-2.44-11.16c0,0,1.57-3.83,4.54-2.09l4.18,4.18Z"/><path class="cls-16" d="M587,271.79l4.3-2.26s4.53-6.63,2.44-11.16c0,0-1.57-3.83-4.53-2.09l-4.19,4.18Z"/><path class="cls-14" d="M549.33,250.68a70.7,70.7,0,0,1,.81,10.06c0,1.33-.59,5.2,2.25,4.19a2.34,2.34,0,0,0,1.23-2.18c.21-3.25-2.48-6-.94-9,1.13-2.19,3.77-3.55,4.24-6.07.34-1.8-.61-3.57-.83-5.38a5.26,5.26,0,0,1,1-4,3.56,3.56,0,0,1,3.77-1.2c1.29.44,2.1,1.69,3.08,2.64a8.39,8.39,0,0,0,8.77,1.76,31.24,31.24,0,0,0,4.9-3c1.63-1,3.62-1.8,5.47-1.25,2.66.8,3.85,3.87,4.41,6.59s1.27,6.22,1,9.13c-.26,2.36-1.63,4.55-2.19,6.92a5.89,5.89,0,0,0-.22,1.72,6.46,6.46,0,0,0,1.18,2.89.65.65,0,0,0,.29.3.62.62,0,0,0,.62-.22c1.59-1.41,2.06-3.66,2.44-5.75.5-2.75,1.44-4.6.72-7.42-1.07-5.69.29-11.62-.65-17.33a3.68,3.68,0,0,0-.59-1.65,3.75,3.75,0,0,0-1.76-1c-8.1-2.79-16.9-2.48-25.46-2.13-3,.12-6.19.28-8.76,1.86-3,1.86-4.7,5.42-5.19,8.95S548.92,247.14,549.33,250.68Z"/><path class="cls-16" d="M475.36,356.24l-1.26-3.58-37.81-24.22h0a6.64,6.64,0,0,1,8.2-.94l7.51,4.67,2.7-.59a8.5,8.5,0,0,1,6.37,1.15l3.71,2.37,12.51,3.77a11.33,11.33,0,0,1,7.32,6.81l2.67,7Z"/><path class="cls-16" d="M658.31,356.24l1.26-3.58,37.81-24.22h0a6.65,6.65,0,0,0-8.21-.94l-7.5,4.67-2.7-.59a8.52,8.52,0,0,0-6.38,1.15l-3.7,2.37-12.51,3.77a11.31,11.31,0,0,0-7.32,6.81l-2.67,7Z"/><path class="cls-14" d="M552.79,292.76l-37.25,20.7a22.43,22.43,0,0,0-11.47,17.9L501,371.85l-12-19.71-16,4.79,22.67,50.26a9,9,0,0,0,12.11,4.45,15.25,15.25,0,0,0,7.29-7.31l12-59.64,25.7-38.15Z"/><path class="cls-14" d="M580.88,292.76l37.25,20.7a22.42,22.42,0,0,1,11.46,17.9l3.08,40.49,12-19.71,16,4.79L638,407.19a9,9,0,0,1-12.11,4.45,15.21,15.21,0,0,1-7.29-7.31l-12-59.64-25.7-38.15Z"/><rect class="cls-11" x="522.91" y="438.23" width="81.14" height="12.35"/><rect class="cls-6" x="555.78" y="438.23" width="13.97" height="12.35"/><g class="cls-18"><path class="cls-11" d="M600.32,382.63l7.35-32.72a91.38,91.38,0,0,0-6.46,11.87,3.16,3.16,0,0,0,1.24,4.06c-1.44,3.51-7.7,9.94-10.24,12.39-2,2.13,3.71,2.4,6,1.82l.22-.05a82.65,82.65,0,0,1-5.38,8.31c-1.25,1.7-4.31,4-2.51,3.7,1.53-.28,7.15.62,8.63.21-.69,2-1.42,3.88-2.24,5.84s.43,4.28,1.94,4.32c-1.16,0,.46,11.52.69,12.62a24.25,24.25,0,0,0,3.23,8.5L601.22,395l.06-.4Z"/></g><g class="cls-18"><path class="cls-11" d="M531,389.85q-9.57-4.8-5.7-9.73c2.58.74,6.13.14,8.71.88,1.61.46.72-1.59-4.37-2.14.86.09-5.72-8.05-3.37-8.19A1.8,1.8,0,0,0,527.8,368c-2.85-4.85-3.18-12-5.06-17.78l.93,24.8,1.83,1.47-1.79-.52.32,8.67-.14,3a12.75,12.75,0,0,0,.7,1.1l-.76,0L522,426.28a1.56,1.56,0,0,0,.68-1.36c0-7.58,2.43-14.28,3.3-21.66.28-2.35-1.79-11.62,3.61-10.16A1.79,1.79,0,0,0,531,389.85Z"/></g><polygon class="cls-19" points="552.79 292.76 544.52 297.36 554.25 332.05 566.83 319.32 552.79 292.76"/><polygon class="cls-19" points="580.88 292.76 589.15 297.36 579.41 332.05 566.83 319.32 580.88 292.76"/><circle class="cls-11" cx="566.83" cy="331.45" r="1.43"/><path class="cls-11" d="M567.59,350.15a1.44,1.44,0,1,1-1.44-1.44A1.44,1.44,0,0,1,567.59,350.15Z"/><path class="cls-11" d="M566.9,368.84a1.44,1.44,0,1,1-1.43-1.43A1.43,1.43,0,0,1,566.9,368.84Z"/><circle class="cls-11" cx="564.79" cy="387.53" r="1.43"/><circle class="cls-11" cx="564.1" cy="406.23" r="1.43"/><path class="cls-11" d="M564.86,424.92a1.44,1.44,0,1,1-1.44-1.44A1.44,1.44,0,0,1,564.86,424.92Z"/><g class="cls-20"><path class="cls-11" d="M538.28,586.15l-3,47.54a12.72,12.72,0,0,1-1.18.71,187.77,187.77,0,0,0-6.88-43.61,11.47,11.47,0,0,0,6.42-4.44l-5-.57a7.18,7.18,0,0,0,3.05-3.21l-11-.13c10.08-2.28,17.83-12.28,17.55-22.61a5.86,5.86,0,0,1-4.05-.74l11.15-17.44c.64-1,1.32-2.22.88-3.34a15.13,15.13,0,0,1-6.69,3.2c2.79-3.39,5.62-6.87,7-11,1.66-4.88,1.18-10.2,2-15.3A31.21,31.21,0,0,1,564.05,493Zm26.6-90.92c0-.7,0-1.39-.07-2.08l-.4-.34-.11.08Z"/></g><g class="cls-20"><path class="cls-11" d="M631,671.85,604,447.07l-1-.16-.43,1.08a180.08,180.08,0,0,0,1.12,44c1.28,8.53,3.17,17.25,1.39,25.69-.61,2.85-1.82,5.1-2.89,7.7-1.33,3.25-1.56,7.41-2.19,10.85A87.22,87.22,0,0,0,598.58,547c-.23,3.85-1.37,7.56-1.38,11.48,0,.45,14.41-2.94,16-4.4a104.25,104.25,0,0,1-6.2,19.72,27.3,27.3,0,0,1,6.64-8.84,48,48,0,0,0-4.54,14.64l8.86-1-7.62,16.67,9.38-4.93q-1.15,20.76-2.3,41.51c-.3,5.3-.56,10.8,1.47,15.7,1.5,3.63,4.15,6.64,6.16,10a31.73,31.73,0,0,1,4.27,19.3C629.88,675.19,630.38,673.51,631,671.85Z"/></g><path class="cls-14" d="M561,277.27c-.52,1-.7,2.22-1.24,3.24a2.63,2.63,0,0,1-2.8,1.56c-1.27-.38-1.64-1.95-1.82-3.26-.52-3.68.49-7.13-.8-10.83a13.87,13.87,0,0,1-.84-2.8c-.11-.89,0-1.8-.15-2.68s-.86-1.76-1.75-1.76a1.85,1.85,0,0,0-1.62,1.52,5.82,5.82,0,0,0,.14,2.38,41.32,41.32,0,0,1,.86,11.65c-.34,3.91,1.16,7.65,2.4,11.29a17.86,17.86,0,0,0,1.63,3.69,13.74,13.74,0,0,0,8.32,5.61,41.14,41.14,0,0,0,10.22.91,16.5,16.5,0,0,0,6.6-.88c6-2.57,7.93-13.9,8.57-19.48.3-2.57-.24-4.59-.43-7-.22-2.83.72-6.08,1.09-8.89a1.2,1.2,0,0,0-.21-1.08c-.34-.29-1-.26-1.07-.7a6.55,6.55,0,0,0-2.26,3.31,7.37,7.37,0,0,0-.12,1.82,24.44,24.44,0,0,1-.5,7.15,68.55,68.55,0,0,0-1.93,8.22c-.2,1.31-.59,2.91-1.88,3.22A2.3,2.3,0,0,1,579,281.9a8.31,8.31,0,0,1-.35-3.11,4.73,4.73,0,0,0-.81-3c-.9-1.1-2.48-1.29-3.9-1.4C569.54,274.08,563.57,272.13,561,277.27Z"/><path class="cls-19" d="M561.64,280.15H577S569.82,293.22,561.64,280.15Z"/><path class="cls-14" d="M1388,416.61l-3.1,14a17,17,0,0,0-.36,5l7.91,101.7h61.41l12-75.31a69,69,0,0,0,1.57-33.7L1464.54,414Z"/><polygon class="cls-16" points="1395.31 537.31 1397.66 549.33 1398.71 564.22 1419.61 649.13 1412.29 678.91 1416.73 683.35 1430.58 680.48 1435.81 646.78 1432.67 641.03 1425.09 567.88 1426.66 537.31 1395.31 537.31"/><g class="cls-17"><polygon class="cls-11" points="1417.52 564.22 1429.94 614.7 1425.09 567.88 1426.66 537.31 1414.12 537.31 1416.47 549.33 1417.52 564.22"/></g><polygon class="cls-16" points="1418.82 537.31 1421.17 549.33 1422.22 564.22 1443.12 649.13 1435.81 678.91 1440.25 683.35 1454.09 680.48 1459.32 646.78 1456.18 641.03 1448.61 567.88 1450.18 537.31 1418.82 537.31"/><g class="cls-21"><path class="cls-11" d="M1385.43,447.15l-.56-7.24c2.55,2.06,5.05,4.17,7.46,6.38A18.14,18.14,0,0,1,1385.43,447.15Zm5.81,74.82c1.21-7.65,0-15.79-1.83-23.63Zm-3.64-47,.54,7c1.53-2.08,4.25-3.48,4.58-6Zm-.67-16.33c-.34-1.56,1.56-2.7,3.16-2.77s3.32.34,4.72-.43a57.57,57.57,0,0,0-9.31-7.44l2,26.11,14.59-6.37a30.34,30.34,0,0,1-14.12-7.55A3.21,3.21,0,0,1,1386.93,458.68Z"/></g><g class="cls-7"><path class="cls-11" d="M1463.13,416.28a35.93,35.93,0,0,1-.72,17.39,11.35,11.35,0,0,1-2.88,12l3.71-.07a19.84,19.84,0,0,1-2.87,9.28c1.1-.21,2.07,1,2.07,2.1a5.5,5.5,0,0,1-1.31,3,60.47,60.47,0,0,1-12.87,13.08l11.79-2.16a48.46,48.46,0,0,1-10.3,13.81l3.67.64-3.09,28.08L1465.89,462a69,69,0,0,0,1.57-33.7l-2.21-10.83c-.51-.69-1-1.38-1.62-2.05Z"/></g><path class="cls-16" d="M1315.93,257.73l-3.6-8.53,5.47-10.93a6.23,6.23,0,0,0,.26-5l-1.72-4.55a5.78,5.78,0,0,0-5.69-3.74l-1.79.08-7.65,2.76a6.17,6.17,0,0,0-4,4.81l-1,6.36.41,8.87,7.34,15.55Z"/><rect class="cls-19" x="1381.72" y="311.06" width="72.12" height="105.55"/><path class="cls-11" d="M1448.88,243.32a9.84,9.84,0,0,0-1.94-3.09,19.34,19.34,0,0,0-2.56-1.81c-3.14-2.14-4.21-4.9-8-5.86l-6.43-1.62a30.75,30.75,0,0,0-8.75-1.34c-5.64.23-10.68,3.5-15.16,7a14.58,14.58,0,0,0-4,4.16,18.88,18.88,0,0,0-1.61,5.58,41.58,41.58,0,0,1-2.56,8.14l-.43.36c6.09,10.42,5.06,23.86,11.24,34.23a17.66,17.66,0,0,0,3.86,4.69c5.15,4.25,12.73,4,19.07,1.87,8.77-2.88,18.09-9.72,18.79-19.49.41-5.64,2.38-10.81,2.19-16.61A43.12,43.12,0,0,0,1448.88,243.32Z"/><g class="cls-17"><path class="cls-11" d="M1386.27,367.65l-.14,1.42.68,3-2,11.68-3,32.84H1388l-2.4,10.79c5.23.2,12.31-1.69,19.16-10.54l9.77-83.79-7-20.54-.09-1.47h-25.77Z"/></g><path class="cls-14" d="M1375.51,330.49l6.57,40.11-12.37,52.54s13.56,9.4,27.68-6.8L1412,333.26l-5.75-20.9V295.9l-23.76,2.64a26.8,26.8,0,0,0-9.17,2.74l-3.56,1.81a10.22,10.22,0,0,1-5.81,1l-24.89-3-22.47-45.68-15.68,6.18,21.84,54.59a8.27,8.27,0,0,0,6.11,5.07Z"/><path class="cls-11" d="M1413.14,675.46l-3.85,6.37a6.39,6.39,0,0,0-.92,3.3h0a9,9,0,0,0,7.52,8.88l1.29.22a10.53,10.53,0,0,0,7-1.28l6.65-3.85,3.14-13.64h3.13v-8.31l2.77-6a9.73,9.73,0,0,0-.55-9.2l-5.92-9.61-2.22,29.84A8.52,8.52,0,0,1,1421,680C1417.92,679.35,1414.82,678,1413.14,675.46Z"/><path class="cls-11" d="M1436.65,675.46l-3.84,6.37a6.39,6.39,0,0,0-.92,3.3h0a9,9,0,0,0,7.52,8.88l1.28.22a10.51,10.51,0,0,0,7-1.28l6.66-3.85,3.13-13.64h3.14v-8.31l2.76-6a9.75,9.75,0,0,0-.54-9.2l-5.93-9.61-2.21,29.84a8.53,8.53,0,0,1-10.16,7.79C1441.43,679.35,1438.34,678,1436.65,675.46Z"/><path class="cls-11" d="M1487.32,284.87c-7.24-11.81-14.57-24.32-15.36-38.15-.22-4,.1-8-.58-11.87s-2.57-7.86-6-9.76a6.71,6.71,0,0,0-5.11-.72c-2.55.79-4.06,3.35-5.25,5.74a115.92,115.92,0,0,0-5,11.45l2.29,8.61a29,29,0,0,0,4-6.88c-.16,6.36-.31,12.75.68,19s3.19,12.5,7.27,17.37a19.85,19.85,0,0,1-4.17-12.64,33,33,0,0,0,18.54,19.71,36.4,36.4,0,0,1-6.7-13.39A89.48,89.48,0,0,1,1487.32,284.87Z"/><path class="cls-22" d="M1449.95,239.83h.17a2.36,2.36,0,0,1,2.36,2.36V251a2.36,2.36,0,0,1-2.36,2.36h-.17a2.37,2.37,0,0,1-2.37-2.37V242.2a2.37,2.37,0,0,1,2.37-2.37Z" transform="translate(-3.31 472.85) rotate(-18.5)"/><path class="cls-16" d="M1406.28,280.49h25.34a0,0,0,0,1,0,0v29a12.24,12.24,0,0,1-12.24,12.24h-.87a12.24,12.24,0,0,1-12.24-12.24v-29A0,0,0,0,1,1406.28,280.49Z"/><g class="cls-17"><path class="cls-11" d="M1406.28,300.76a30,30,0,0,0,16.26-3.58l7.14-3.4a6.31,6.31,0,0,0,2-1.52V280.49h-25.35Z"/></g><path class="cls-16" d="M1405,242.08l-7.58,13.59-2.45,3.42a15.23,15.23,0,0,0-2.74,11l2.8,20.78a7.82,7.82,0,0,0,7,6.74h0a30.08,30.08,0,0,0,17.42-3.54l7.13-3.4a6.39,6.39,0,0,0,3.65-6h0s6.14,4.18,9.27,0c0,0,6.53-6.53,4.71-9.14,0,0-3.92-3.14-7.58-.27l7.9-15.4S1434.76,229,1405,242.08Z"/><path class="cls-11" d="M1448.35,254a12,12,0,0,0-.74-4.74,10.22,10.22,0,0,0-2.54-3.17c-7.13-6.44-16.92-9.11-26.48-10a20.81,20.81,0,0,0-7.09.22c-5.73,1.46-9.44,6.91-12.18,12.15l.17.81c7.61.57,13.62-2.28,19.89-6.14,2,7.31,1.35,14.56,5.82,21.26a23.68,23.68,0,0,0,11.69,9c2.14.76,4.81.67,6.79,1.69s3.11,3.06,5.15,4C1449.42,270.81,1448.53,262.21,1448.35,254Z"/><path class="cls-19" d="M1397.39,280.23s3.15,5.75,13.6,5.48C1411,285.71,1397.38,299.82,1397.39,280.23Z"/><path class="cls-16" d="M1552.64,257.73l3.6-8.53-5.47-10.93a6.27,6.27,0,0,1-.26-5l1.72-4.55a5.79,5.79,0,0,1,5.69-3.74l1.8.08,7.65,2.76a6.2,6.2,0,0,1,4,4.81l1,6.36-.41,8.87-7.34,15.55Z"/><g class="cls-17"><path class="cls-11" d="M1453.85,414.36V311.06h-21.6l-2.89,5.55-11.47,18.9s0,55.39,10.71,74.46,37.05,11.75,37.05,11.75l-1.11-7.73Z"/></g><path class="cls-14" d="M1431.63,292.77l20.93-.26,64,9.4,35-46.46,14.9,7.87-27.91,50.57A28.15,28.15,0,0,1,1512,328.38l-43.27-2.95-6.06,50.9,6.06,42.37s-26.34,7.31-37-11.76-10.72-74.46-10.72-74.46l10.72-20.12Z"/><polygon class="cls-23" points="1406.28 299.04 1397.39 320.01 1404.19 323.34 1396.19 332.56 1398.55 409.79 1412.03 333.26 1406.28 299.04"/><path class="cls-23" d="M1420.91,332.48a385.46,385.46,0,0,0,3,45.52l2.74,15h0l14.21-71.23-7.84-5.48,6.66-6.86-8.06-15.17v18.1Z"/><g class="cls-7"><path class="cls-11" d="M1478.75,326.12l6.36.43,5.49.37a17.37,17.37,0,0,1-1.09-4.31A17.54,17.54,0,0,1,1478.75,326.12Z"/></g><g class="cls-7"><path class="cls-11" d="M1463.75,318.86q-.29,2.85-.58,5.69a9,9,0,0,0-6-2.34,40.28,40.28,0,0,1,7.86,18.44l-2.65-.71a72.25,72.25,0,0,0,2.59,16.71l3.72-31.22,7.12.48A18,18,0,0,1,1463.75,318.86Z"/></g><g class="cls-24"><path class="cls-11" d="M1388.8,371.05A37.29,37.29,0,0,1,1385,369a1.72,1.72,0,0,0,.45-1.76,116.73,116.73,0,0,0-4.7-12.41,1.45,1.45,0,0,0-1.39-.94l2.74,16.76-.66,2.8c0,.06,0,.13.09.19h-.13l-1,4.31c.45.21.33.83-.23,1l-1.11,4.72c3-.67,6.12-1.54,8.29-3.34a1.85,1.85,0,0,0,.48-1.83,4,4,0,0,0-1.45-1.95c.61-.16,1.23-.32,1.85-.52,1.14-.37-3.55-1.71-3.83-2.61C1384.83,372.5,1389.8,371.55,1388.8,371.05Z"/></g><g class="cls-24"><path class="cls-11" d="M1464.2,363.09c-1.79,1.2-3.6,2.35-5.48,3.43a1.91,1.91,0,0,0-.25,3.06,22.89,22.89,0,0,0-5.89,2.25c-1.14.68,4.24,1.66,5.55,2.29s-3.18,2-2,2.51c-.49.83,2.54.28,3.36.89.47.35-1.84,2.52-1.4,2.88l-1.71-.48c-2-.56-3.34,2.39-1.45,3.43,2.11,1.17,8.72,3.62,9.4,6.27a2,2,0,0,0,.25.51l-1.44-10.08-.14-1-.39-2.74.15-1.24.35-3Z"/></g><path class="cls-6" d="M829.69,298.49c-.55-.94-1.44-1.64-2-2.58-2.41-4.16,3.25-9.35,1.64-13.88-1.1-3.12-5.15-4.37-6.36-7.45-1.44-3.65,1.74-8.37-.65-11.48-.64-.82-1.57-1.37-2.22-2.17-1.72-2.12-1-5.21-1.17-7.93-.37-5.5-4.73-10-5.46-15.5a10,10,0,0,0-.65-3.27,6.13,6.13,0,0,0-1.93-2,21.84,21.84,0,0,0-8.64-3.79c-1.24-.25-2.62-.45-3.43-1.42s-.82-2.22-1.74-2.88a3.6,3.6,0,0,0-1.89-.49l-8.93-.66-1.32-.1c-2.66-.75-5.77.78-8.27,2.32-3.71,2.3-7.52,4.67-10.16,8.16-2.52,3.33-3.38,7.71-5.9,11-2.28,2.93-5.43,4.21-5.06,8.72a15.41,15.41,0,0,1,.31,3.87,31,31,0,0,0-.83,3c-.1,1.4.73,2.71.78,4.1.08,2-1.43,3.71-2.41,5.48a11.47,11.47,0,0,0-1.23,7.64,29.14,29.14,0,0,1,.9,4.48,10.78,10.78,0,0,1-.82,3.95c-1.46,4-4,7.11-5.92,10.82s1.67,6.66,2.52,10.06c.79,3.16-.72,6.44-.56,9.69a19,19,0,0,0,2.18,6.9,2.68,2.68,0,0,0,1.29,1.54c1.31.48,2.32-1.12,3.33-2.1,2.44-2.38,6.48-1.31,9.78-2.16,2.74-.71,5.11-2.82,7.94-2.82s5.23,2.11,8,2.56c4.38.7,8.2-2.71,12.27-4.44,9.33-4,21.09.68,29.72-4.64a20.07,20.07,0,0,0,4.81-4.34C829.56,304.34,831.19,301.07,829.69,298.49Z"/><rect class="cls-16" x="775.7" y="275.84" width="22.43" height="30.04"/><polygon class="cls-16" points="803.72 305.88 772.72 305.88 772.72 290.12 803.72 292.9 803.72 305.88"/><path class="cls-16" d="M916.35,326.5a8,8,0,0,0-4.67-.18c-7.55,1.22-18.18,4-25.72,2.66a7.13,7.13,0,0,1-2.7-1c-1.52-1-2.31-2.78-3-4.45s-1.54-3.43-3.08-4.41c-6.7-4.23-3.65,6.8-3.23,9.06,1,5.09-1.66,7.31-2.79,11.6a3.21,3.21,0,0,0-1.28,3.33,7.88,7.88,0,0,0,2.64,3.78c7.18,6.62,10.44-2.84,14.69-7.11,6.37-6.41,18.27-8.76,26.93-8.45,1.29,0,2.79.06,3.59-1C918.69,329.16,917.78,327.18,916.35,326.5Z"/><path class="cls-19" d="M808.58,386.84H756.17v-97.4l16.32,3.46,5.18,5.85a14.88,14.88,0,0,0,23.94-2.29l2.11-3.56h0l13.76,45.24Z"/><path class="cls-25" d="M743.31,542.58s-9.42,33.36-11.37,111.25L727,680.49v7.27a5.62,5.62,0,0,0,5.62,5.62H735a13.5,13.5,0,0,0,13.44-12.27l1.65-13-3.26-24.2c-.49,2.54,7.78-34.74,20.27-82.4l5.44-18.83Z"/><path class="cls-16" d="M743.31,542.58s-9.42,33.36-11.37,111.25L727,680.49v7.27a5.62,5.62,0,0,0,5.62,5.62H735a13.5,13.5,0,0,0,13.44-12.27l1.65-13-3.26-24.2c-.49,2.54,7.78-34.74,20.27-82.4l5.44-18.83Z"/><path class="cls-11" d="M748.39,667.76c-.64,7-6.46,9.3-13.44,9.3h-2.33c-2.17,0-2.83-4.79-3.76-6.59l-1.86,10v7.27a5.62,5.62,0,0,0,5.62,5.62H735c7,0,12.8,2.09,13.44-4.85L750,668.14l-.87-6.49Z"/><path class="cls-16" d="M812.86,542.58s1,35.6-14.17,105.81l3.17,35.41a13.59,13.59,0,0,1-1.64,7.78h0a5.37,5.37,0,0,1-4.71,2.79h-6.72a5.38,5.38,0,0,1-5.36-4.92l-2.31-26.52,5.64-22.45s-3.31-69.29-1.49-80.43l-2.9-17.34Z"/><path class="cls-11" d="M801.17,668.63a13.68,13.68,0,0,1-.95,2.19c-.94,1.72-2.75,4.27-4.71,4.27h-6.72c-2.79,0-5.12-3.62-5.36-6.4L782,659.5l-.87,3.43,2.31,26.52a5.38,5.38,0,0,0,5.36,4.92h6.72a5.37,5.37,0,0,0,4.71-2.79,13.59,13.59,0,0,0,1.64-7.78Z"/><g class="cls-17"><path class="cls-11" d="M741.61,550h28.77l2.11-7.29-29.18-.13S742.63,545,741.61,550Z"/></g><g class="cls-17"><path class="cls-11" d="M782.37,542.71l1.22,7.29h29.16c.17-4.92.11-7.42.11-7.42Z"/></g><path class="cls-26" d="M828.85,423.43s16.31,12.36,4.45,63.78c0,0-11.87,37.08-14.34,56.86H738.87s2.37-47,0-61.42c0,0-1-59.72,19.77-64.17Z"/><g class="cls-17"><path class="cls-11" d="M828.85,423.43l-70.21-4.95c-5.86,1.26-10,6.92-12.9,14.4,7,4.39,15.6,11,24.81,11.44A18.51,18.51,0,0,0,786.91,436l4.77-7.19.7,1.47a18.47,18.47,0,0,0,20.15,10.26c8.88-1.72,16.44-7.16,21.38-9.31C831.52,425.45,828.85,423.43,828.85,423.43Z"/></g><path class="cls-27" d="M803.72,292.9s23.65,3.53,26.61,12.64L820,359.15s-1.89,17.76.54,22.48,19.56,47.67,19.56,47.67a266.82,266.82,0,0,1-27.52,6.82,18.47,18.47,0,0,1-20.15-10.26l-.7-1.47-4.77,7.19a18.51,18.51,0,0,1-16.36,8.29c-10.31-.53-19.91-2.55-27.24-7,0,0,9.89-45.27,9.89-48.64L745.79,339,756,290.38c.11-.52-.32-1.05.2-.94l16.32.68,21.26,84.36,14.33-30.16Z"/><path class="cls-27" d="M803.72,292.9s23.65,3.53,26.61,12.64l15.33,59.55,24.72-28.19,15,7.42s-22.5,35.8-33.38,47.06a7.72,7.72,0,0,1-5.15,2.32c-4.08.23-11-.81-15-9.43L820,359.15Z"/><g class="cls-17"><path class="cls-11" d="M750.27,451.91a3.9,3.9,0,0,0,1.67-2.63c1-4.49-2.07-10.11-2.48-14.59a148.47,148.47,0,0,1-.24-15.94c.07-3.67-1.08-8.26-.34-11.86-2.87,13.9-5.57,45.49-5.57,45.49C746,452.38,748.58,453,750.27,451.91Z"/></g><g class="cls-17"><path class="cls-11" d="M750.78,315.2l-5,23.81c-.3,1.42.63,3.88.86,5.28l1.86,11.32.9,5.52c.11.68.17,3.76.73,4.16,1.37,1,.46-6.46.38-7.22a31,31,0,0,1,.1-9.13,16,16,0,0,0,.61-3.87,17.65,17.65,0,0,0-.86-3.62c-1.32-4.84-.19-10.95,0-16Q750.58,320.33,750.78,315.2Z"/></g><polygon class="cls-28" points="803.72 292.9 815.5 328.87 810.1 333.95 815 343.31 793.75 374.48 808.08 344.32 803.72 292.9"/><polygon class="cls-28" points="772.49 290.12 763.59 316.63 772.49 319.6 768.04 325.29 793.75 374.48 772.49 290.12"/><path class="cls-23" d="M793.58,388.94c-.23,11.62,1.07,24.63-2.69,35.76-.23.66.81.94,1,.29,3.64-11,2.46-24.68,1.8-36.05a.07.07,0,1,0-.14,0Z"/><g class="cls-17"><path class="cls-11" d="M741,478.33a3.64,3.64,0,0,0,3.26-.35,6.74,6.74,0,0,0,2.28-2.49c1.52-2.59,1.62-5.12,1.58-8,0-2.51-.93-5.12-.93-7.66h.08V445h-5A185.92,185.92,0,0,0,738.91,477C739.61,477.39,740.24,478,741,478.33Z"/></g><path class="cls-16" d="M731.06,453.7c-.69,0-4.15,2.79-4.63,3.29s-1,1-1.5,1.57a6.22,6.22,0,0,0-1.69,5.11,17,17,0,0,1,.16,5c-.38,2.36-1.61,4.48-1.08,7a2.56,2.56,0,0,0,2.42,2.16c1.39-.1,2.44-1.71,3.83-1.51,1,.14,1.64,1.17,2.61,1.37,1.3.26,2.47-1.06,3.8-1,1.16.07,2,1.18,3,1.64a3.65,3.65,0,0,0,3.27-.35,6.8,6.8,0,0,0,2.27-2.49c1.52-2.59,1.62-5.12,1.58-8,0-2.68-1.09-5.47-1-8.18a4.44,4.44,0,0,0-3.51-4.22c-1.56-.4-.6-.37-2.2-.54Z"/><rect class="cls-16" x="730.32" y="444.95" width="13.97" height="14.86"/><path class="cls-27" d="M747.52,338.63l8.65-49.19-13.9,8a28.38,28.38,0,0,0-12,13.7l-5.07,12.19c-3,9.63-2.73,26.13-2.57,29.29l4.91,99.77h20.77l-2-73Z"/><g class="cls-7"><path class="cls-11" d="M820.49,381.63c-2.43-4.72-.54-22.48-.54-22.48s.84-4.33.77-4.37l-.07.65a13.17,13.17,0,0,0-3.61,4.69c-2.25,5,.83,14.13-3.16,17.53a15.71,15.71,0,0,1-4.63,2.41,4.94,4.94,0,0,0-2.26,1.42,1.75,1.75,0,0,0,.17,2.41,2.86,2.86,0,0,0,1.51.32,12.08,12.08,0,0,1,10.73,8.19c1.58,5,3.79,8.3,6,12.9.44.93.67,1.95,1.19,2.84,1.5,2.56,5,3.42,7.13,5.33C828.55,400.71,821.93,384.43,820.49,381.63Z"/></g><g class="cls-7"><path class="cls-11" d="M820,359.16c.21.43,11.87,25.11,11.87,25.11a18.55,18.55,0,0,0,3,4.69c-.49-3.74-2.39-7.47-3.76-11.09-1.24-3.27-1.68-6.95-3.17-10.05-2-4.22-2.62-8.21-5.77-11.82-.2-.23-.46-.49-.77-.46s-.56.38-.72.69C820.2,357.16,819.45,358.08,820,359.16Z"/></g><g class="cls-17"><path class="cls-11" d="M798.13,275.84H775.7v6.32l4,3.55a7.3,7.3,0,0,0,4.82,1.81H788A7.29,7.29,0,0,0,793,285.6l5.18-4.74Z"/></g><path class="cls-16" d="M770,248.77V270a9.27,9.27,0,0,0,3.15,7l6.65,5.83a7.31,7.31,0,0,0,4.82,1.82H788a7.34,7.34,0,0,0,4.94-1.92l8.67-7.94a9.26,9.26,0,0,0,3-6.82V248.77s1.86-10.38-6.12-14.83c0,0-10.93-4.26-21.32,0C777.18,233.94,770,236,770,248.77Z"/><path class="cls-6" d="M764.55,284.69c-.38-.74-1.41-.19-1.27.54.26,1.4-5.92,2.41-6.91,3.66-2.14,2.66.84,7.4-1.62,9.81a6.88,6.88,0,0,0-1.91-1.19c-1.27-.51-2.47.76-2.52,1.91l-.12,2.82a2.11,2.11,0,0,0,.87,1.78c-.76,1.18-1.58,2.34-1.69,2.47a13.17,13.17,0,0,0-1.9,3,12.88,12.88,0,0,0-1.24,6.95c.19,2.21,3.78,3.1,4.19.57a20.54,20.54,0,0,1,3.58-9.27c1-1.39,2.17-2.8,2.39-4.57,2.45-1.71,3.07-4.51,3.49-8l1.22-4.88a16.55,16.55,0,0,0,1.83-.65c.42-.55,1.29-.66,1.68-1.27C765.67,286.7,765.33,286.23,764.55,284.69Z"/><path class="cls-6" d="M826.86,310.16c-2.28-3.66-1.29-6.47-1.9-10.31a9,9,0,0,0-1.45-3.16c-2.27-4.2-1.38-5.86-2.18-14.63-15.79,5.77-8.31,10.33-7.08,7.24q3-3.06,4.54.75-.45,1.38-1,2.73a7.28,7.28,0,0,0-.29,3.21,10.14,10.14,0,0,0,1.09,2.34,10.49,10.49,0,0,1,1.31,5.65c-.22,5.07,2.2,13,8.24,13.23a1.29,1.29,0,0,0,1.28-1.27C829.59,313.09,828.38,312.61,826.86,310.16Z"/><path class="cls-6" d="M824.93,318.64c-6.74-3.65-3.1-9.49-6-14.34a8.21,8.21,0,0,0,.41-3.7,7.62,7.62,0,0,0-2-4.31c-1.18-1.22-3.19-1.26-4.21-2.24-2.17-2.08,0-4.32-2.05-6.7a3.6,3.6,0,0,0-5.06-.65c-2,1.33-.79,5.07,1.74,4.13-2.19.81-2.94,3.85-1.6,6a6.08,6.08,0,0,0,2,1.73c3.42,1.74,2.77-.94,5.55,2.55a3.5,3.5,0,0,0-.95.2c-4.48,1.6-2.13,7.41,1.93,6.9a21.93,21.93,0,0,0,1.69,9.72,10.7,10.7,0,0,0,6.49,5.66C825.76,324.61,827.63,320.1,824.93,318.64Z"/><path class="cls-6" d="M768.35,278.39a.71.71,0,0,0-.49-1.19c-12,.34-1.37,9.88-4.14,15.88-1.76,3.81-4.24,5.05-5.06,9.46a13.38,13.38,0,0,1-1.94,7.93q-1.79,1.44-3.45,3a6.17,6.17,0,0,0-.93,3.21c-.23,2.6,3.53,3.35,4.74,1.29,1.66-2.86,5.14-3.94,6.55-7.37a19.68,19.68,0,0,0,.91-3.53c.91-4.33.83-6.53,3.49-10.22,1.86-2.59,3.27-4.73,3-8C770.74,285.14,765.85,281.29,768.35,278.39Z"/><path class="cls-6" d="M776.1,232.73a.7.7,0,0,0-.17-1.27c-11.69-2.72-3.84,9.2-8,14.3-2.67,3.24-5.37,3.81-7.29,7.87a13.39,13.39,0,0,1-3.89,7.17q-2.09.94-4.11,2.06a6.31,6.31,0,0,0-1.72,2.87c-.87,2.46,2.58,4.13,4.26,2.45,2.34-2.35,6-2.51,8.21-5.47a19.86,19.86,0,0,0,1.78-3.18c2-4,2.46-6.11,6-9,2.45-2,4.36-3.75,4.94-7C776.7,239.86,772.94,234.9,776.1,232.73Z"/><path class="cls-6" d="M795.85,229.9a.71.71,0,0,0-1.13-.62c-9.14,7.77,5.11,8.57,6.71,15,1,4.07-.14,6.58,2,10.54a13.37,13.37,0,0,1,3.44,7.4c-.32,1.49-.58,3-.79,4.52a6.32,6.32,0,0,0,1.28,3.09c1.45,2.17,4.86.4,4.5-2-.48-3.28,1.55-6.3.5-9.86a19.76,19.76,0,0,0-1.5-3.32c-2-3.94-3.43-5.61-3.67-10.15-.17-3.18-.42-5.73-2.68-8.14C801.93,233.67,795.71,233.73,795.85,229.9Z"/><path class="cls-6" d="M794.81,225.12c-2.15,0-4.76-.23-6.5,1.29-2,1.77-1.66,4.75-4.78,5.55-5.65,1.45-9.1-6.49-15-3.2-3.87,2.16-.4,8.12,3.48,6,0,0,5,3.06,6,3.43a11.41,11.41,0,0,0,13.1-3.22c.62-.71,1-1.63,1.52-2.35a2.88,2.88,0,0,0,.6-1c0,.09.12.46,1.55.44C799.24,231.93,799.25,225,794.81,225.12Z"/><path class="cls-19" d="M777.52,271.21h18.61S787.28,282.06,777.52,271.21Z"/><g class="cls-7"><path class="cls-11" d="M758.26,383.94c-.69-1.23-.26-2.75-.34-4.15a10.5,10.5,0,0,0-2.25-5.19c-1.59-2.3-3.33-4.5-5.14-6.63l2.67,16.3c0,1.28-1.42,8.58-3.18,17.15a14.67,14.67,0,0,0,2.12-2.79l4.41-7.2a7.1,7.1,0,0,1,2.62-2.88c2.17-1.05,4.93.3,7.1-.74-.14-.29-.28-.57-.41-.85C763.69,385.17,759.64,386.39,758.26,383.94Z"/></g><path class="cls-11" d="M795.72,381.63a2,2,0,1,1-2-2A2,2,0,0,1,795.72,381.63Z"/><rect class="cls-16" x="974.42" y="300.44" width="27.27" height="42.5"/><path class="cls-16" d="M934.32,222.29l8.44-12-3.14-9.89a5.47,5.47,0,0,1-.18-2.51l6-26.78,3,4.36a4.77,4.77,0,0,1,.74,3.61L947.94,197l2.94,4.75h12.57l-11,12.79L948.25,227Z"/><path class="cls-16" d="M1041.83,222.29l-8.44-12,3.14-9.89a5.47,5.47,0,0,0,.17-2.51l-6-26.78-3,4.36a4.77,4.77,0,0,0-.74,3.61l1.28,17.91-2.94,4.75H1012.7l11,12.79L1027.9,227Z"/><path class="cls-19" d="M1001.61,311.72l32.82-5.46L1055.17,282,1025,225.63l18.08-7.4,36,58.71a18.85,18.85,0,0,1-.78,20.89c-8.63,11.95-23.46,31.7-36.23,44.86l-13.16,105.74H951L934.76,342.69A547.28,547.28,0,0,1,897,293.46a18.83,18.83,0,0,1-.08-20.75l39.25-60.17,15.18,11.13-30.27,57.8,18.21,24.79,27.32,6.07L987,322Z"/><polygon class="cls-14" points="950.95 448.43 927.54 574.98 908.45 678.13 935.77 678.13 956.91 588.07 990.7 497 1023.21 590.13 1040.5 678.13 1068.83 678.13 1028.87 448.43 950.95 448.43"/><rect class="cls-11" x="949.62" y="445.88" width="80.49" height="9.31"/><rect class="cls-6" x="980.87" y="445.88" width="18" height="9.31"/><polygon class="cls-22" points="977.26 331.19 980.39 337.93 994.03 337.95 997.36 331.69 987.05 322.33 977.26 331.19"/><g class="cls-17"><path class="cls-11" d="M1034.53,404.59c-18.69.22-55.84,1.78-42.53-66.66l-7.56,0s-20.42,79.34,47.17,88.42Z"/></g><path class="cls-11" d="M936,220.53a1.67,1.67,0,1,1-1.67-1.67A1.66,1.66,0,0,1,936,220.53Z"/><path class="cls-11" d="M1045.08,226.84a1.67,1.67,0,1,1-1.67-1.67A1.67,1.67,0,0,1,1045.08,226.84Z"/><path class="cls-11" d="M989.55,437.58a1.67,1.67,0,1,1-1.67-1.67A1.67,1.67,0,0,1,989.55,437.58Z"/><path class="cls-11" d="M989.55,416.24a1.67,1.67,0,1,1-1.67-1.67A1.67,1.67,0,0,1,989.55,416.24Z"/><path class="cls-11" d="M989.55,394.9a1.67,1.67,0,1,1-1.67-1.67A1.67,1.67,0,0,1,989.55,394.9Z"/><path class="cls-11" d="M906.93,678.13l-4.18,4.53-22.08,2.54c-5.06,1.75-5.95,2.78-7.5,7.9l-.39,1.27h45.57l3.24-4v4h14.94V678.13h-29.6Z"/><path class="cls-11" d="M1069.34,678.13l4.19,4.53,22.07,2.54c5.07,1.75,6,2.78,7.5,7.9l.39,1.27h-45.56l-3.24-4v4h-15V678.13h29.6Z"/><g class="cls-17"><polygon class="cls-11" points="961.9 311.84 973.72 337.93 985.53 323.56 974.99 313.88 961.9 311.84"/></g><g class="cls-17"><polygon class="cls-11" points="1012.6 311.84 1000.12 337.95 987.71 322.04 1001.61 311.72 1012.6 311.84"/></g><polygon class="cls-29" points="961.45 311.07 974.71 333.58 987.04 322.04 974.94 312.36 961.45 311.07"/><polygon class="cls-29" points="1013.85 309.79 999.38 333.58 987.04 322.04 1001.61 311.72 1013.85 309.79"/><path class="cls-11" d="M1011.53,248.72a18.78,18.78,0,0,0-1.39-4.32,28.88,28.88,0,0,0-2.14-3.74,16.84,16.84,0,0,0-3-3.55,20.47,20.47,0,0,0-6.52-3.3c-5.75-2.08-11.63-4.19-17.75-4.32a5.46,5.46,0,0,0-2.13.26,12.93,12.93,0,0,0-1.87,1.16,11.15,11.15,0,0,1-3.27,1.09c-4.49,1-9.17,2.67-12,6.32-3,4-3.21,9.33-3.16,14.3a49.78,49.78,0,0,0,.82,10.13c.59,2.72,1.62,6.36,3.74,8.3l-1.36-.34A23.92,23.92,0,0,0,974,276.76a71.28,71.28,0,0,0,14,.78l16.93-.19a5,5,0,0,0,3.07-.71,4.88,4.88,0,0,0,1.39-3.29,25.7,25.7,0,0,0,.42-5.1c-.07-1-.51-1.88-.54-2.88-.1-3.13,1.66-6.32,2.25-9.37A19.17,19.17,0,0,0,1011.53,248.72Z"/><g class="cls-17"><path class="cls-11" d="M974.42,308.39A15.83,15.83,0,0,0,1000.5,307l.91-1.5c.11-.18.18-.37.28-.55v-3H974.42Z"/></g><path class="cls-16" d="M965.5,259.19V281.7a28.83,28.83,0,0,0,3.87,14.45l4.34,7.52a15.22,15.22,0,0,0,13.19,7.62h0a15.22,15.22,0,0,0,13-7.32l.88-1.45a29,29,0,0,0,4.2-15V246H966.06Z"/><path class="cls-16" d="M965.8,285l-.44-.23a13.25,13.25,0,0,1-7.1-9.47,7.77,7.77,0,0,1,.45-4.41s1.65-4,4.77-2.2l4.4,4.4Z"/><path class="cls-16" d="M1003.91,285l.45-.23a13.26,13.26,0,0,0,7.09-9.47,7.6,7.6,0,0,0-.45-4.41s-1.65-4-4.77-2.2l-4.4,4.4Z"/><path class="cls-11" d="M964.25,262.83a75.08,75.08,0,0,1,.85,10.58c0,1.4-.63,5.47,2.37,4.4a2.46,2.46,0,0,0,1.28-2.29c.16-2.43-1.3-4.52-1.46-6.89s1.19-4,2.73-5.61a13.28,13.28,0,0,0,2.62-13.79c.43,1,2.77,2.26,3.67,2.9a45.66,45.66,0,0,0,4.42,2.73,45.29,45.29,0,0,0,19.38,5.38c1.14.05,3.73-.5,4.7.11,1.16.73.72,3.66.59,4.84-.28,2.48-1.72,4.79-2.31,7.28a6.16,6.16,0,0,0-.23,1.81,6.84,6.84,0,0,0,1.24,3,.74.74,0,0,0,.31.32c.22.09.47-.07.65-.23,1.67-1.49,2.16-3.85,2.57-6.05.53-2.9,1.52-4.84.76-7.81-1.13-6,.3-12.22-.69-18.23a3.76,3.76,0,0,0-.62-1.73,3.81,3.81,0,0,0-1.86-1.09c-8.52-2.94-17.77-2.61-26.78-2.25-3.17.13-6.5.3-9.21,2-3.2,2-5,5.7-5.46,9.41S963.82,259.1,964.25,262.83Z"/><path class="cls-19" d="M975.64,292.63l21-.92S987.93,314.09,975.64,292.63Z"/><g class="cls-30"><path class="cls-11" d="M971.24,549.44,958,585.12a18.52,18.52,0,0,1-5-5.84c-.55-1-.94-2.44-.09-3.22.62-.57,1.59-.49,2.37-.79,1.5-.58,2-2.38,2.46-3.94a75.52,75.52,0,0,1,12.64-26.22C970.65,546.55,971,548,971.24,549.44ZM957.3,587l-10.89-.61a13,13,0,0,0,8.28,4.65,36.89,36.89,0,0,1-12.43,7.62l5.72.25a2.32,2.32,0,0,1,1.67.53,2.35,2.35,0,0,1,.37,1.73l-.66,11.91c-.16,3-.38,6.07-2,8.55s-5.17,4-7.64,2.33q1.77,6.59,3.55,13.18a7.93,7.93,0,0,1-4.76-3q.68,12.42,1.34,24.84l.36.24,16.7-71.17Z"/></g><g class="cls-30"><path class="cls-11" d="M1031.87,613.85c.68-1.67,1.66-3.51.94-5.17-.55-1.24-1.87-1.89-3-2.71a9.29,9.29,0,0,1,4.25-16.61c-3.52-1.44-7.14-2.93-9.94-5.51s-4.67-6.53-3.73-10.23c.5-2,1.76-3.77,1.87-5.82.25-4.8-5.48-7.49-7.84-11.68-1.28-2.3-1.51-5-1.9-7.62A56.35,56.35,0,0,0,1000,520.59c0,1.09,0,2.19.08,3.28l23.13,66.27,13.24,67.39c2-6.35.07-13.7-2.16-20.21C1031.68,629.7,1028.81,621.3,1031.87,613.85Z"/></g><g class="cls-31"><path class="cls-11" d="M1034.53,345.12a5,5,0,0,0-2.91,1.16C1032.61,345.94,1033.58,345.54,1034.53,345.12Z"/></g><g class="cls-31"><path class="cls-11" d="M1034.81,400.62l7.21-57.93c3-3.09,6.12-6.56,9.24-10.2a9.67,9.67,0,0,0-2,1.45,39.77,39.77,0,0,0-3.89,4.7c-.41-.28-.85,0-1.17.3a37.25,37.25,0,0,1-9.71,6.18,5,5,0,0,1,2.79.54,56.56,56.56,0,0,1-12.4,7.66l9.4-.9a2.56,2.56,0,0,1,1.4.12c1,.5.92,1.94.68,3q-1.38,6.46-2.77,12.93a6.67,6.67,0,0,0,2.22-4.8c2.45,6.24-1.26,13-2.22,19.65-.52,3.59-.28,7.47-2.19,10.55-1.11,1.78-2.91,3.25-3.18,5.33l4.8-3.65a36.07,36.07,0,0,1-4.79,9.47A39.21,39.21,0,0,0,1034.81,400.62Z"/></g><g class="cls-31"><path class="cls-11" d="M949.55,360.51c.52,1.45-1.75,2.05-3,2.88-1.89,1.19-2,3.87-1.83,6.1,1.06,14.49,4.62,29.27.91,43.31l-.12-.21-10.7-69.9s-8.27-9.43-18.93-23.25l9.26,7.94c5.1,4.38,10.72,9,17.43,9.4a19.54,19.54,0,0,0-8.59,3.89,64.17,64.17,0,0,0,10.46,2l-5.76,5.56a25.07,25.07,0,0,0,9.8,11.2A2.33,2.33,0,0,1,949.55,360.51Z"/></g><path class="cls-22" d="M982.2,338s-11.77,91.94,70.44,82.58l7.59-11.64-8.6-11.89S987.31,420.7,992,337.93Z"/><path class="cls-6" d="M966.78,114.77c-12.59,0-23.84-7-28.66-17.94l-15.53-35.1a14.39,14.39,0,0,1,1.15-13.88,16.34,16.34,0,0,1,13.83-7.3h25.81v5.1H937.57a11.27,11.27,0,0,0-9.56,5,9.35,9.35,0,0,0-.75,9l15.52,35.1c4,9,13.43,14.9,24,14.9Z"/><rect class="cls-6" x="976.7" y="118.49" width="23.29" height="47.16"/><g class="cls-17"><polygon class="cls-32" points="999.99 131.89 976.7 135.29 976.7 118.49 999.99 118.49 999.99 131.89"/></g><g class="cls-17"><polygon class="cls-32" points="963.38 40.55 943.15 40.55 943.62 45.65 963.38 45.65 963.38 40.55"/></g><g class="cls-17"><path class="cls-32" d="M952.83,111.64a32.66,32.66,0,0,0,13.95,3.13v-5.1a27,27,0,0,1-17.21-6A37.27,37.27,0,0,0,952.83,111.64Z"/></g><path class="cls-6" d="M1010.5,114.77c12.59,0,23.85-7,28.66-17.94l15.53-35.1a14.39,14.39,0,0,0-1.14-13.88,16.35,16.35,0,0,0-13.83-7.3H1013.9v5.1h25.82a11.28,11.28,0,0,1,9.56,5,9.35,9.35,0,0,1,.75,9l-15.53,35.1c-4,9-13.42,14.9-24,14.9Z"/><g class="cls-17"><polygon class="cls-32" points="1013.9 40.55 1034.14 40.55 1033.66 45.65 1013.9 45.65 1013.9 40.55"/></g><g class="cls-17"><path class="cls-32" d="M1024.46,111.64a32.67,32.67,0,0,1-14,3.13v-5.1a27.05,27.05,0,0,0,17.22-6A37.27,37.27,0,0,1,1024.46,111.64Z"/></g><path class="cls-6" d="M988.61,131.44h0a37.85,37.85,0,0,1-37.73-34.81L945.3,36.24l-.18-1.92h86.45l-5.21,62A37.86,37.86,0,0,1,988.61,131.44Z"/><path class="cls-33" d="M1027.33,34.32l-5.22,62a37.82,37.82,0,0,1-35.63,35c.71,0,1.41.1,2.13.1h0a37.86,37.86,0,0,0,37.75-35.09l5.21-62Z"/><path class="cls-34" d="M957.68,96.63l-5.59-60.39-.17-1.92h-6.8l.18,1.92,5.58,60.39a37.85,37.85,0,0,0,37.73,34.81h0c1.14,0,2.27-.06,3.39-.16A37.85,37.85,0,0,1,957.68,96.63Z"/><path class="cls-33" d="M994.27,131a37.77,37.77,0,0,0,14.28-5.23c.16-1.48.33-3,.39-4.5l4.43-85.45H998.24S995.61,97.9,994.27,131Z"/><rect class="cls-6" x="973.17" y="137.3" width="30.36" height="9.53" rx="4.04"/><rect class="cls-6" x="973.17" y="151.75" width="30.36" height="9.53" rx="3.73"/><path class="cls-6" d="M1014.82,169.11h0a7.83,7.83,0,0,0-7.81-7.81H969.69a7.83,7.83,0,0,0-7.81,7.81h52.94Z"/><path class="cls-35" d="M961.88,169.11h52.94a7.69,7.69,0,0,0-.52-2.72H962.39A7.92,7.92,0,0,0,961.88,169.11Z"/><path class="cls-35" d="M973.17,142.07v.78a4,4,0,0,0,4,4h22.4a4,4,0,0,0,4-4v-.78Z"/><path class="cls-35" d="M973.17,156.51v.79a4,4,0,0,0,4,4h22.4a4,4,0,0,0,4-4v-.79Z"/><g class="cls-17"><polygon class="cls-32" points="945.3 36.24 945.85 42.14 1031.16 39.16 1031.57 34.31 945.12 34.31 945.3 36.24"/></g><rect class="cls-6" x="941.96" y="31.87" width="92.77" height="5.57"/><rect class="cls-36" x="996.73" y="31.87" width="18.46" height="5.57"/><rect class="cls-36" x="1021.99" y="31.87" width="3.13" height="5.57" transform="translate(2047.11 69.31) rotate(180)"/><rect class="cls-5" x="948.77" y="169.11" width="80.02" height="30.67" rx="1.25"/><path class="cls-22" d="M982.85,199.78l39.51-30.67H950.59a1.81,1.81,0,0,0-1.82,1.81V198a1.81,1.81,0,0,0,1.82,1.81Z"/><rect class="cls-19" x="968.88" y="173.24" width="38.92" height="22.42"/><text class="cls-37" transform="translate(982.44 189.79)">1</text><path class="cls-11" d="M1274.29,669.39l6.88,10.22,13.09,7.5a8.13,8.13,0,0,1,4.09,7v.21h-31.6l-19.28-4.57.7-24.95Z"/><path class="cls-16" d="M1308.33,459.09v6.72l2.85,2.78a6.54,6.54,0,0,1,2,4.7v10.36l-.44,1a4.61,4.61,0,0,1-4.21,2.73h-9.25a5.93,5.93,0,0,1-3.77-1.34l-1-.8a5.3,5.3,0,0,1-1.94-4.1v-5.79l-2.49-2.11v-6.6l2.49-1.66,3.32-2.07.41-3.82Z"/><path class="cls-11" d="M1212.5,669.39l-6.88,10.22-13.09,7.5a8.13,8.13,0,0,0-4.09,7v.21H1220l19.27-4.57-.7-24.95Z"/><g class="cls-38"><path class="cls-39" d="M1201.61,687.11l13.09-7.5,6.88-10.22,17.08-3-.05-1.57-26.11,4.54-6.88,10.22-13.09,7.5a8.13,8.13,0,0,0-4.09,7v.21h9.08v-.21A8.13,8.13,0,0,1,1201.61,687.11Z"/></g><g class="cls-38"><path class="cls-39" d="M1285.18,687.11l-13.09-7.5-6.89-10.22-17.07-3,0-1.57,26.12,4.54,6.88,10.22,13.09,7.5a8.13,8.13,0,0,1,4.09,7v.21h-9.08v-.21A8.13,8.13,0,0,0,1285.18,687.11Z"/></g><polygon class="cls-28" points="1275.14 444.6 1193.96 444.6 1193.96 325.92 1227.51 290.7 1275.14 300.2 1275.14 444.6"/><polygon class="cls-15" points="1193.96 423.41 1202.66 560.64 1212.5 669.39 1238.61 669.39 1234.55 562.67 1238.61 468.82 1251.5 568.15 1247.69 669.39 1274.29 669.39 1278.8 568.15 1281.2 423.41 1193.96 423.41"/><rect class="cls-11" x="1193.96" y="423.41" width="81.37" height="7.21"/><rect class="cls-40" x="1221.26" y="423.41" width="21.02" height="7.21"/><polygon class="cls-16" points="1256.4 297.13 1241.95 307.73 1227.51 297.13 1227.51 272.93 1256.4 272.93 1256.4 297.13"/><path class="cls-14" d="M1222.3,272.82l-.06-.1-.25-.15Z"/><path class="cls-14" d="M1264.48,246c-.37-2.9-1.49-5.68-1.69-8.6a12.15,12.15,0,0,0-.48-3.72c-1.13-2.8-4.88-3.71-6.24-6.4a13.49,13.49,0,0,0-.86-1.8,4.1,4.1,0,0,0-1.84-1.32,8.52,8.52,0,0,0-6-.15,8.22,8.22,0,0,1-2.29.67c-1.9.08-3.35-1.77-5.22-2.11s-3.87,1-5.89,1.21c-2.42.2-5-1.36-7.17-.28s-3.48,3.29-5.51,4.51a7.36,7.36,0,0,0-3.65,4c-.87,2-2.68,3.77-2.7,6,0,2.52,1.76,4.76,1.35,7.33-.21,1.26-.94,2.38-1.18,3.63-.51,2.69,1.26,4.26,2.16,6.52.68,1.71.5,3.83.75,5.69a24.7,24.7,0,0,0,4.27,11.54c3.4,2,6.87,4,10.72,4.75a37,37,0,0,0,9.41.3c4-.22,8.33-.61,11.08-3.47a15.88,15.88,0,0,0,2.49-3.9l2.82-5.52a22.69,22.69,0,0,0,2.82-8.17C1262.4,252.88,1265,250.16,1264.48,246Z"/><path class="cls-16" d="M1259.2,254.64s4.26-2.54,4.26-.27c0,1.31.56,3.54-.26,6.47a7.64,7.64,0,0,1-4.86,5.18h0l-2.7-6.93Z"/><path class="cls-16" d="M1217.7,254.64s-4.26-2.54-4.26-.27c0,1.31-.55,3.54.26,6.47a7.66,7.66,0,0,0,4.86,5.18h0l2.7-6.93Z"/><g class="cls-17"><path class="cls-11" d="M1227.51,289.09a10.81,10.81,0,0,0,5.15,1.36h3.17a17.28,17.28,0,0,0,10.25-3.38l2.79-2.08a19.74,19.74,0,0,0,7.53-11.66v-.4h-28.89Z"/></g><path class="cls-16" d="M1219.14,252.51l.74,14.48a25.29,25.29,0,0,0,6,15.1h0a10.91,10.91,0,0,0,8.28,3.82h3.18a17.17,17.17,0,0,0,10.24-3.39l2.79-2.07a19.8,19.8,0,0,0,8-14.43l1-12.79a20,20,0,0,0-8.22-17.83,20.84,20.84,0,0,0-13.71-4.16C1226.58,232,1218.59,241.7,1219.14,252.51Z"/><path class="cls-19" d="M1229.75,270.54H1247S1237.84,281.32,1229.75,270.54Z"/><path class="cls-14" d="M1217.32,245.75c0,3.85-.66,7.64-.48,11.5.11,2.31.52,4.81,2.22,6.36.65.59,1.76.95,2.31.28a1.7,1.7,0,0,0,.29-1.08,20.56,20.56,0,0,0-1.05-4.93c-.88-3.51-1.65-7.18.86-10.1,1.26-1.48,2.75-2.89,3.25-4.77a6.62,6.62,0,0,1,.57-1.88c.83-1.34,2.81-1.26,4.29-.74s3.06,1.29,4.56.82c1-.31,1.91-1.12,2.84-.74a3.38,3.38,0,0,1,1,.86,5.06,5.06,0,0,0,5.57,1c.67-.31,1.27-.77,2-1a5.14,5.14,0,0,1,4.87,1.28,9,9,0,0,1,3.15,7,5,5,0,0,0,.23,2.4c.8,1.54,3.27,1.48,4.16,3a3.45,3.45,0,0,1-.32,3.3c-.55,1-1.89,2.6-1.29,3.84.79,1.64,2.15.73,2.88-.53a9,9,0,0,0,.69-5.7c-.26-1.95-.76-3.81-.17-5.71s1.62-3.42,1.74-5.52c.23-4-2.47-7.67-5.79-9.9s-7.24-3.36-11-4.78c-2.14-.82-4.34-1.76-6.63-1.63a14.83,14.83,0,0,0-6,2.21l-5.59,3a10.27,10.27,0,0,0-2.66,1.84c-1.08,1.14-1.61,2.74-2.79,3.76-.69.6-1.57,1-2.22,1.59C1217.51,242,1217.31,244,1217.32,245.75Z"/><g class="cls-17"><path class="cls-11" d="M1194,325.92V444.6h1.34v.19l13.21-9.23a24.43,24.43,0,0,0,8.93-28.13c-8.63-24.87-13.79-66.17,11.11-113l-.17-3.56-.88-.18Z"/></g><path class="cls-22" d="M1227.51,290.7l-14.25,9.84-13.33,2.16a11.28,11.28,0,0,0-6.47,3.45l-36.55,39.28a8.93,8.93,0,0,1-10.79,1.76l-32-17.39L1106,344.19l38,29.54a13.45,13.45,0,0,0,14.93,1l22.68-18.09,5.45,26.69-13,70.84,26.89-17a24.41,24.41,0,0,0,10.21-27.69c-7.49-25.24-10.77-66.73,16.24-112.37Z"/><path class="cls-16" d="M1106.8,342.82l-5.81-4.44h-22.21l-12.61-2.77-5.8-5.81h0a4.33,4.33,0,0,1,6.05-1l3.53,2.52,16.25,1.34a5,5,0,0,0,4.71-2.45l.24-.41-6.05-4.92a5,5,0,0,1,.24-7.89h0l21.46,12.06,5.59,3.86Z"/><g class="cls-17"><path class="cls-11" d="M1280.8,447.5l.4-24.09h-6.06V300.2L1259.05,297c-7.61,51.3-10.69,86.95-11.88,109.38a38.8,38.8,0,0,0,27.17,39.1Z"/></g><path class="cls-22" d="M1256.4,284.14l12.11,13,35.32,12.49-19.43,67.7,21.7,73.84-24.4-5.68a38.83,38.83,0,0,1-30-37C1251.13,384,1251.64,343.74,1256.4,284.14Z"/><polygon class="cls-9" points="1241.95 307.73 1230.79 319.08 1223.75 303.83 1227.51 297.13 1241.95 307.73"/><polygon class="cls-9" points="1241.95 307.73 1247.32 319.08 1254.29 313.41 1255.35 297.9 1241.95 307.73"/><polygon class="cls-6" points="1241.95 307.73 1232.85 316.99 1246.33 316.99 1241.95 307.73"/><path class="cls-6" d="M1235.33,317s-18.25,53.81-14.63,87.75l12,11.67,11.23-12.33s-15.35-42.65-.38-87.09Z"/><g class="cls-20"><path class="cls-11" d="M1261.77,566.59q-2.89-6.47-5.78-13a8.23,8.23,0,0,0,3.48.31,85.93,85.93,0,0,1-4.41-27.33c0-3.2-6.65-20.39-7.49-24.16-.15-.66-5.07-7.68-6-11.2l.59,4.5a8.84,8.84,0,0,1,.6,4.61l8.79,67.78L1249,635.88a111.09,111.09,0,0,0,2.41,18.84l1.05-.14c5.14-10.36,4.59-23.73,3.6-36a3.81,3.81,0,0,1,3.92,1.24,145.82,145.82,0,0,1-6.6-27.07l5,3.54a108.85,108.85,0,0,1-2.51-22.72,8.05,8.05,0,0,1,6.24,4.54,46.86,46.86,0,0,1-4.06-12.72A6.42,6.42,0,0,1,1261.77,566.59Z"/></g><g class="cls-41"><path class="cls-11" d="M1235.86,519.75c-.19,1.58-.48,3.14-.81,4.69.26-8,.79-16,.06-24C1235.87,506.87,1236.63,513.35,1235.86,519.75Zm-1.31,42.92.92-21.22a116.12,116.12,0,0,1-.42-17c-.78,3.69-1.82,7.33-2.57,11-2.25,11.09-1.72,22.54-1.18,33.85l-6.59-3q4.72,8,9.92,15.74l-9.77-3.56c.1,2.57,2.61,4.29,3.94,6.49a15.22,15.22,0,0,1,1.65,5.4c.57,3.25,1.15,6.51,1.72,9.77a16.53,16.53,0,0,1,.37,4.48c-.37,3.62-3.09,6.73-3.22,10.36-.18,5,4.36,8.76,5.75,13.51.82,2.81.5,5.81.54,8.73a33.93,33.93,0,0,0,1.82,10.47l0-.23c.11-.11.18-.25.29-.37Z"/></g><g class="cls-42"><g class="cls-17"><path class="cls-11" d="M1288.09,363.6A13.61,13.61,0,0,0,1284.8,376l3.4-11.86C1288.16,363.93,1288.13,363.77,1288.09,363.6Z"/></g><g class="cls-17"><path class="cls-11" d="M1287.75,392.43c1.21,3.22,1.53,6.7,2.32,10.05a16,16,0,0,0,4,7.86l-9.71-33,.29-1a56.89,56.89,0,0,1-14.42,2.24,37.18,37.18,0,0,1,14.48,4.55l-3.4.79A19.17,19.17,0,0,1,1287.75,392.43Z"/></g></g><g class="cls-42"><g class="cls-17"><path class="cls-11" d="M1189.26,376.89a12.3,12.3,0,0,1-4.73-6.29l2.61,12.78-.13.74,8.17-1.22c.4-1.47-.61-3-1.87-3.88S1190.56,377.69,1189.26,376.89Z"/></g><g class="cls-17"><path class="cls-11" d="M1186.25,393.33a1.65,1.65,0,0,1-.66-1.47L1183,406a83.59,83.59,0,0,1,5.67-13.41A1.72,1.72,0,0,1,1186.25,393.33Z"/></g><g class="cls-17"><path class="cls-11" d="M1186,390.8a3.4,3.4,0,0,1,1.11-.64l6.53-2.68a27.87,27.87,0,0,0-6.66-3.22l-1.29,7.06A1.39,1.39,0,0,1,1186,390.8Z"/></g></g><path class="cls-5" d="M1251.67,408.52c0,.84.09,1.66.16,2.48l.22,1.9c0,.17,0,.34.07.51L1270.27,317l-6.62-9.26,9.4-5.34-16.65-18.25C1251.64,343.74,1251.13,384,1251.67,408.52Z"/><path class="cls-5" d="M1204.93,311S1187,345,1211.27,409.5c-7.49-25.24-10.77-66.73,16.24-112.37V290.7l-14.25,9.84,5.86,3.51Z"/><g class="cls-17"><g class="cls-17"><polygon class="cls-11" points="1292.39 404.52 1290.13 447.44 1306.1 451.16 1292.39 404.52"/></g></g><polygon class="cls-22" points="1303.83 309.62 1320.99 389.85 1310.64 460.15 1293.99 460.41 1297.78 388.59 1286.93 349.48 1303.83 309.62"/><g class="cls-7"><path class="cls-11" d="M1132,339.51c-.19.16-.4.31-.58.49,1.43.47,2.87,1,4.28,1.52Z"/><path class="cls-11" d="M1156.91,345.43a8.93,8.93,0,0,1-10.79,1.76l-4.47-2.43c.23.18.49.32.71.51,1.18,1,2.2,2.2,3.35,3.25,2.74,2.52,6.13,4.18,9.47,5.81a9,9,0,0,0-.65-3.95,29.39,29.39,0,0,0,3.3,6c.1-2.66.21-5.33.31-8,.07,1.17.13,2.34.2,3.51a106.13,106.13,0,0,1,7.51-16.06Z"/></g><g class="cls-7"><path class="cls-11" d="M1301.62,389c1.3-.74,4.18-2,2.57-2.33-.45-.09-4.46.8-4.9.69.79-.78,4.41-3.22,3.28-4l-7.67-5.15,1.54,5.55.45.3-.33.13,1.21,4.39h0l.46.18c-.17.11-.32.26-.49.38l-.21,4,.68.12c-.09.11-.19.21-.28.33a6.85,6.85,0,0,0-.47.89l-.55,10.57a1.48,1.48,0,0,0,1.92-.87c.93-2.07,1.15-4.25,1.9-6.32.9-2.5,3-3,4.88-4.64C1306.7,392.29,1303,389.23,1301.62,389Z"/></g><path class="cls-22" d="M1522,394.08h304.85a2.66,2.66,0,0,1,2.66,2.66V589a0,0,0,0,1,0,0H1519.36a0,0,0,0,1,0,0V396.74A2.66,2.66,0,0,1,1522,394.08Z"/><rect class="cls-43" x="1535.26" y="411.62" width="278.37" height="161.65"/><path class="cls-44" d="M1847.6,597.76H1501.28a52.67,52.67,0,0,0,37.15,15.32h272a52.64,52.64,0,0,0,37.14-15.32Z"/><rect class="cls-19" x="1501.28" y="588.02" width="346.33" height="9.74"/><path class="cls-44" d="M1695.88,595.54H1653a2.65,2.65,0,0,1-2.65-2.65h0a2.65,2.65,0,0,1,2.65-2.65h42.87a2.66,2.66,0,0,1,2.65,2.65h0A2.66,2.66,0,0,1,1695.88,595.54Z"/><g class="cls-17"><polygon class="cls-32" points="1794.34 573.28 1554.55 573.28 1542.97 394.08 1805.91 394.08 1794.34 573.28"/></g><path class="cls-19" d="M1562.33,309.4h224.22a9.06,9.06,0,0,1,9.06,9.06V573.28a0,0,0,0,1,0,0H1553.27a0,0,0,0,1,0,0V318.46A9.06,9.06,0,0,1,1562.33,309.4Z"/><path class="cls-43" d="M1795.62,345.88V317.8a8.4,8.4,0,0,0-8.4-8.4H1561.66a8.4,8.4,0,0,0-8.39,8.4v28.08Z"/><rect class="cls-22" x="1572.02" y="391.47" width="118.4" height="76.43" rx="7.84"/><path class="cls-19" d="M1581.73,327.64a4.86,4.86,0,1,1-4.86-4.86A4.85,4.85,0,0,1,1581.73,327.64Z"/><path class="cls-19" d="M1597.9,327.64a4.86,4.86,0,1,1-4.85-4.86A4.85,4.85,0,0,1,1597.9,327.64Z"/><path class="cls-19" d="M1614.07,327.64a4.85,4.85,0,1,1-4.85-4.86A4.85,4.85,0,0,1,1614.07,327.64Z"/><g class="cls-7"><path class="cls-45" d="M1787.22,309.4h-10.73a8.4,8.4,0,0,1,8.4,8.4V573.28h10.73V317.8A8.4,8.4,0,0,0,1787.22,309.4Z"/></g><path class="cls-46" d="M1771.3,404.46h-64.17a5.19,5.19,0,0,1-5.19-5.19h0a5.19,5.19,0,0,1,5.19-5.19h64.17a5.19,5.19,0,0,1,5.19,5.19h0A5.19,5.19,0,0,1,1771.3,404.46Z"/><path class="cls-46" d="M1771.3,424.87h-64.17a5.2,5.2,0,0,1-5.19-5.19h0a5.19,5.19,0,0,1,5.19-5.19h64.17a5.19,5.19,0,0,1,5.19,5.19h0A5.19,5.19,0,0,1,1771.3,424.87Z"/><path class="cls-46" d="M1771.3,445.28h-64.17a5.2,5.2,0,0,1-5.19-5.19h0a5.19,5.19,0,0,1,5.19-5.19h64.17a5.19,5.19,0,0,1,5.19,5.19h0A5.19,5.19,0,0,1,1771.3,445.28Z"/><path class="cls-46" d="M1741.55,465.69h-34.42a5.2,5.2,0,0,1-5.19-5.19h0a5.19,5.19,0,0,1,5.19-5.19h34.42a5.19,5.19,0,0,1,5.19,5.19h0A5.19,5.19,0,0,1,1741.55,465.69Z"/><path class="cls-46" d="M1615.11,492h-34.42a5.19,5.19,0,0,1-5.19-5.19h0a5.2,5.2,0,0,1,5.19-5.19h34.42a5.19,5.19,0,0,1,5.19,5.19h0A5.19,5.19,0,0,1,1615.11,492Z"/><path class="cls-46" d="M1771.3,518.25H1580.69a5.19,5.19,0,0,1-5.19-5.19h0a5.19,5.19,0,0,1,5.19-5.19H1771.3a5.19,5.19,0,0,1,5.19,5.19h0A5.19,5.19,0,0,1,1771.3,518.25Z"/><path class="cls-46" d="M1771.3,540.54H1580.69a5.19,5.19,0,0,1-5.19-5.18h0a5.19,5.19,0,0,1,5.19-5.19H1771.3a5.19,5.19,0,0,1,5.19,5.19h0A5.18,5.18,0,0,1,1771.3,540.54Z"/><path class="cls-46" d="M1685.23,562.84H1580.69a5.19,5.19,0,0,1-5.19-5.19h0a5.2,5.2,0,0,1,5.19-5.19h104.54a5.2,5.2,0,0,1,5.19,5.19h0A5.19,5.19,0,0,1,1685.23,562.84Z"/><path class="cls-19" d="M1609.61,438.25v6.95a9.78,9.78,0,0,1,9.78,9.8h6.95A16.75,16.75,0,0,0,1609.61,438.25Z"/><path class="cls-19" d="M1643,421.75a16.81,16.81,0,0,0-33.12.48,30.07,30.07,0,0,1,7,.87,9.81,9.81,0,0,1,19.49,1.74v3.59h3.44a9.82,9.82,0,1,1,0,19.63h-3a28.14,28.14,0,0,0-20-20.14,27.7,27.7,0,0,0-7-.9h0v7a21,21,0,0,1,21,21h9.17a16.8,16.8,0,0,0,3.21-33.25Z"/><path class="cls-22" d="M1723.51,604.18h63.06a0,0,0,0,1,0,0V687a0,0,0,0,1,0,0h-63.06a4.51,4.51,0,0,1-4.51-4.51V608.69A4.51,4.51,0,0,1,1723.51,604.18Z"/><rect class="cls-43" x="1727.69" y="615.64" width="58.88" height="16.47"/><polygon class="cls-6" points="1719 634.99 1727.69 632.11 1727.69 615.64 1719 618.52 1719 634.99"/><g class="cls-17"><path class="cls-32" d="M1724.81,604.18A5.81,5.81,0,0,0,1719,610v71.25a5.81,5.81,0,0,0,5.81,5.81h2.88V604.18Z"/></g><rect class="cls-19" x="1738.66" y="635.98" width="37.32" height="5.22"/><g class="cls-17"><path class="cls-11" d="M1727.69,604.18h-4.18a4.51,4.51,0,0,0-4.51,4.51V610h0v71.25h0v1.3a4.51,4.51,0,0,0,4.51,4.51h13.81a4.57,4.57,0,0,0,1.4-3.29V604.18Z"/></g><rect class="cls-15" x="1648.3" y="577.98" width="85.09" height="110.38" rx="4.59"/><rect class="cls-47" x="1658.63" y="591.37" width="64.45" height="81.2"/><path class="cls-11" d="M1700.11,586.52h-18.53a1.11,1.11,0,0,1-1.11-1.11h0a1.12,1.12,0,0,1,1.11-1.12h18.53a1.12,1.12,0,0,1,1.12,1.12h0A1.12,1.12,0,0,1,1700.11,586.52Z"/><g class="cls-17"><path class="cls-32" d="M1704.88,591.1h10.78a0,0,0,0,1,0,0v75.85a5.62,5.62,0,0,1-5.62,5.62h-5.16a0,0,0,0,1,0,0V591.1A0,0,0,0,1,1704.88,591.1Z"/></g><path class="cls-19" d="M1658.63,591.1h54.73a0,0,0,0,1,0,0v77.29a4.19,4.19,0,0,1-4.19,4.19h-50.54a0,0,0,0,1,0,0V591.1A0,0,0,0,1,1658.63,591.1Z"/><path class="cls-11" d="M1676.13,610.13h-7.81l-1.27,2.81H1664l6.7-14.93h3.08l6.7,14.93h-3.08Zm-3.9-9-2.77,6.35H1675Z"/><path class="cls-48" d="M1706.8,623h-40.61a2.2,2.2,0,0,1-2.2-2.19h0a2.2,2.2,0,0,1,2.2-2.2h40.61a2.19,2.19,0,0,1,2.2,2.2h0A2.19,2.19,0,0,1,1706.8,623Z"/><path class="cls-48" d="M1706.8,613.51h-22.27a2.2,2.2,0,0,1-2.2-2.2h0a2.21,2.21,0,0,1,2.2-2.2h22.27a2.2,2.2,0,0,1,2.2,2.2h0A2.19,2.19,0,0,1,1706.8,613.51Z"/><path class="cls-48" d="M1706.8,604h-22.27a2.21,2.21,0,0,1-2.2-2.2h0a2.21,2.21,0,0,1,2.2-2.2h22.27a2.2,2.2,0,0,1,2.2,2.2h0A2.2,2.2,0,0,1,1706.8,604Z"/><path class="cls-48" d="M1706.8,632.58h-40.61a2.21,2.21,0,0,1-2.2-2.2h0a2.2,2.2,0,0,1,2.2-2.2h40.61a2.19,2.19,0,0,1,2.2,2.2h0A2.2,2.2,0,0,1,1706.8,632.58Z"/><path class="cls-48" d="M1706.8,642.11h-40.61a2.21,2.21,0,0,1-2.2-2.2h0a2.21,2.21,0,0,1,2.2-2.2h40.61a2.2,2.2,0,0,1,2.2,2.2h0A2.2,2.2,0,0,1,1706.8,642.11Z"/><path class="cls-48" d="M1706.8,651.64h-40.61a2.2,2.2,0,0,1-2.2-2.2h0a2.21,2.21,0,0,1,2.2-2.2h40.61a2.2,2.2,0,0,1,2.2,2.2h0A2.19,2.19,0,0,1,1706.8,651.64Z"/><path class="cls-48" d="M1706.8,661.17h-40.61A2.2,2.2,0,0,1,1664,659h0a2.2,2.2,0,0,1,2.2-2.2h40.61a2.19,2.19,0,0,1,2.2,2.2h0A2.19,2.19,0,0,1,1706.8,661.17Z"/><path class="cls-43" d="M1713.35,668.19a4.71,4.71,0,0,0-4.54-5h-1.94V586h1.88a4.61,4.61,0,0,1,4.6,4.61Z"/><g class="cls-17"><path class="cls-11" d="M1666.61,633.7h-.42v-1.38a7.5,7.5,0,0,0-8.24-7.46,7.73,7.73,0,0,0-6.75,7.8v1h-2.9v50.06a4.57,4.57,0,0,0,3.1,4.32h15.21a8,8,0,0,0,8-8V641.68A8,8,0,0,0,1666.61,633.7Zm-4.84,0h-6.14v-1.38a3.07,3.07,0,0,1,3.39-3.05,3.19,3.19,0,0,1,2.75,3.23Z"/></g><rect class="cls-19" x="1615.95" y="633.7" width="54.38" height="54.38" rx="10.72"/><path class="cls-43" d="M1662.35,633.7h-38.42a8,8,0,0,0-8,8V650h54.38v-8.34A8,8,0,0,0,1662.35,633.7Z"/><path class="cls-49" d="M1628.35,641.37a4.14,4.14,0,1,1-4.13-4.13A4.13,4.13,0,0,1,1628.35,641.37Z"/><path class="cls-50" d="M1627,641.37a2.83,2.83,0,1,1-2.82-2.82A2.82,2.82,0,0,1,1627,641.37Z"/><path class="cls-49" d="M1653.42,641.37a4.14,4.14,0,1,1-4.13-4.13A4.13,4.13,0,0,1,1653.42,641.37Z"/><path class="cls-50" d="M1652.11,641.37a2.83,2.83,0,1,1-2.82-2.82A2.82,2.82,0,0,1,1652.11,641.37Z"/><path class="cls-11" d="M1649.16,642.37h0a2.21,2.21,0,0,1-2.22-2.21v-7.5a7.74,7.74,0,0,1,6.75-7.8,7.51,7.51,0,0,1,8.25,7.46v1.38h-4.43v-1.2a3.19,3.19,0,0,0-2.75-3.23,3.07,3.07,0,0,0-3.39,3.05v7.84A2.21,2.21,0,0,1,1649.16,642.37Z"/><path class="cls-11" d="M1624.08,642.37h0a2.21,2.21,0,0,1-2.21-2.21v-7.5a7.74,7.74,0,0,1,6.75-7.8,7.51,7.51,0,0,1,8.25,7.46v1.38h-4.43v-1.2a3.19,3.19,0,0,0-2.75-3.23,3.07,3.07,0,0,0-3.39,3.05v7.84A2.21,2.21,0,0,1,1624.08,642.37Z"/><g class="cls-17"><path class="cls-51" d="M1662.35,633.7h-4a8,8,0,0,1,8,8V680.1a8,8,0,0,1-8,8h4a8,8,0,0,0,8-8V641.68A8,8,0,0,0,1662.35,633.7Z"/></g><circle class="cls-5" cx="1642.24" cy="667.84" r="19.84"/><path class="cls-15" d="M1659,667.84a16.78,16.78,0,1,1-16.77-16.77A16.77,16.77,0,0,1,1659,667.84Z"/><path class="cls-19" d="M1655.6,667.84a13.37,13.37,0,1,1-13.36-13.36A13.37,13.37,0,0,1,1655.6,667.84Z"/><path class="cls-51" d="M1642.24,667.84h0a.8.8,0,0,1-.81-.8V657.8a.8.8,0,0,1,.81-.8h0a.8.8,0,0,1,.8.8V667A.8.8,0,0,1,1642.24,667.84Z"/><path class="cls-51" d="M1650.18,667h0a.8.8,0,0,0-.8-.8h-7.14a.8.8,0,0,0-.81.8h0a.8.8,0,0,0,.81.8h7.14A.8.8,0,0,0,1650.18,667Z"/><path class="cls-6" d="M343.17,631.89l-.67.33c-7.06,3.37-10.81,2.81-17.68-.37a72.15,72.15,0,0,1-17.72-11c-6.64-5.87-11.79-13.8-12.86-22.59-.24-2-.23-4.14.94-5.75,1.61-2.2,4.91-2.53,7.46-1.54s4.54,3,6.57,4.79a7.37,7.37,0,0,0,2.9,1.86,2.72,2.72,0,0,0,3.07-1c.91-1.61-.66-3.47-2.08-4.65-3.3-2.75-6.39-4.34-9.85-6.78-4.34-3-8.36-6.79-10.74-11.53s-2.92-10.64-.44-15.33a9.24,9.24,0,0,1,3.16-3.6c2.42-1.53,5.53-1.45,8.33-.85s5.5,1.66,8.35,2c6.74.7,9.38-4,9.25-10.24-.09-4.15-1.43-8.19-1.67-12.34-.42-7.31,3.18-15.09,9.8-18.22s15.86-.13,18.23,6.8c2.57,7.52-3.3,16,.58,23.16a22,22,0,0,0,6.37,7c3.7,2.28,9-.4,13.32-.2a3.87,3.87,0,0,1,2.66.85,3.63,3.63,0,0,1,.83,1.92A15.91,15.91,0,0,1,366.47,569c-4.46,4-12.18,6.12-14.07,12.46-1.18,3.94-.67,13.77,5.6,12.77,2.36-.37,3.93-2.7,6.19-3.46,2.79-.95,6,.9,7.24,3.57s.88,5.86-.21,8.6c-1.72,4.32-5,7.79-8.26,11.14C356.31,621,352,627.56,343.17,631.89Z"/><rect class="cls-11" x="332.42" y="540.29" width="2.86" height="152.71"/><polygon class="cls-11" points="333.85 586.6 315.08 567.83 317.1 565.81 333.85 582.56 350.59 565.81 352.61 567.83 333.85 586.6"/><polygon class="cls-11" points="333.85 622.26 315.08 603.5 317.1 601.48 333.85 618.22 350.59 601.48 352.61 603.5 333.85 622.26"/><path class="cls-8" d="M374.44,508.67l-.76.37c-7.87,3.76-12.05,3.13-19.72-.41a80.54,80.54,0,0,1-19.77-12.3c-7.4-6.54-13.15-15.39-14.35-25.2-.27-2.21-.25-4.62,1.06-6.41,1.79-2.46,5.47-2.82,8.31-1.73s5.08,3.32,7.34,5.36a8.4,8.4,0,0,0,3.24,2.07,3,3,0,0,0,3.41-1.14c1-1.8-.72-3.87-2.31-5.19-3.68-3.07-7.13-4.84-11-7.56-4.84-3.41-9.33-7.58-12-12.87s-3.25-11.86-.49-17.1a10.47,10.47,0,0,1,3.53-4c2.7-1.7,6.17-1.62,9.29-1s6.14,1.86,9.32,2.19c7.52.78,10.47-4.5,10.32-11.42-.1-4.64-1.6-9.14-1.87-13.77-.47-8.15,3.56-16.84,10.94-20.32s17.69-.15,20.33,7.57c2.87,8.4-3.68,17.83.66,25.85a24.37,24.37,0,0,0,7.11,7.76c4.12,2.55,10.05-.45,14.85-.23a4.32,4.32,0,0,1,3,1,4.15,4.15,0,0,1,.93,2.14,17.76,17.76,0,0,1-5.38,16.2c-5,4.52-13.57,6.82-15.69,13.9-1.31,4.4-.74,15.36,6.26,14.25,2.62-.42,4.38-3,6.89-3.87,3.12-1.05,6.69,1,8.08,4s1,6.53-.23,9.59c-1.92,4.83-5.61,8.69-9.21,12.43C389.1,496.51,384.23,503.84,374.44,508.67Z"/><rect class="cls-11" x="362.6" y="406.48" width="2.86" height="285.7"/><polygon class="cls-11" points="364.03 457.91 343.21 437.09 345.24 435.07 364.03 453.87 382.83 435.07 384.85 437.09 364.03 457.91"/><polygon class="cls-11" points="364.03 497.7 343.21 476.88 345.24 474.86 364.03 493.65 382.83 474.86 384.85 476.88 364.03 497.7"/><g class="cls-17"><path class="cls-11" d="M406,466.79c-1.39-3-5-5-8.08-4-2.51.86-4.27,3.45-6.89,3.87-7,1.11-7.57-9.85-6.26-14.25,2.12-7.08,10.73-9.38,15.69-13.9a17.06,17.06,0,0,0,2.24-2.56H386.19a2.9,2.9,0,0,0-2.9,2.91v5.26h0v58.55c4.68-4.09,8.43-8.9,13.23-13.88,3.6-3.74,7.29-7.6,9.21-12.43C406.94,473.32,407.35,469.77,406,466.79Z"/></g><rect class="cls-6" x="390.43" y="435.96" width="43.43" height="254.56" rx="2.9" transform="translate(824.3 1126.48) rotate(180)"/><path class="cls-52" d="M398.61,436h15.12V690.52H398.61a8.18,8.18,0,0,1-8.18-8.18V444.14A8.18,8.18,0,0,1,398.61,436Z"/><rect class="cls-11" x="390.43" y="673.42" width="5.44" height="2.8" transform="translate(786.3 1349.63) rotate(180)"/><rect class="cls-11" x="390.43" y="662.11" width="5.44" height="2.8" transform="translate(786.3 1327.02) rotate(180)"/><rect class="cls-11" x="390.43" y="650.8" width="5.44" height="2.8" transform="translate(786.3 1304.4) rotate(180)"/><rect class="cls-11" x="390.43" y="639.49" width="5.44" height="2.8" transform="translate(786.3 1281.79) rotate(180)"/><rect class="cls-11" x="390.43" y="628.19" width="10.88" height="2.8" transform="translate(791.74 1259.17) rotate(180)"/><rect class="cls-11" x="390.43" y="616.88" width="5.44" height="2.8" transform="translate(786.3 1236.56) rotate(180)"/><rect class="cls-11" x="390.43" y="605.57" width="5.44" height="2.8" transform="translate(786.3 1213.94) rotate(180)"/><rect class="cls-11" x="390.43" y="594.26" width="5.44" height="2.8" transform="translate(786.3 1191.33) rotate(180)"/><rect class="cls-11" x="390.43" y="582.96" width="5.44" height="2.8" transform="translate(786.3 1168.71) rotate(180)"/><rect class="cls-11" x="390.43" y="571.65" width="10.88" height="2.8" transform="translate(791.74 1146.1) rotate(180)"/><rect class="cls-11" x="390.43" y="560.34" width="5.44" height="2.8" transform="translate(786.3 1123.48) rotate(180)"/><rect class="cls-11" x="390.43" y="549.03" width="5.44" height="2.8" transform="translate(786.3 1100.87) rotate(180)"/><rect class="cls-11" x="390.43" y="537.73" width="5.44" height="2.8" transform="translate(786.3 1078.25) rotate(180)"/><rect class="cls-11" x="390.43" y="526.42" width="5.44" height="2.8" transform="translate(786.3 1055.64) rotate(180)"/><rect class="cls-11" x="390.43" y="515.11" width="10.88" height="2.8" transform="translate(791.74 1033.02) rotate(180)"/><rect class="cls-11" x="390.43" y="503.8" width="5.44" height="2.8" transform="translate(786.3 1010.41) rotate(180)"/><rect class="cls-11" x="390.43" y="492.5" width="5.44" height="2.8" transform="translate(786.3 987.79) rotate(180)"/><rect class="cls-11" x="390.43" y="481.19" width="5.44" height="2.8" transform="translate(786.3 965.18) rotate(180)"/><rect class="cls-11" x="390.43" y="469.88" width="5.44" height="2.8" transform="translate(786.3 942.56) rotate(180)"/><rect class="cls-11" x="390.43" y="458.57" width="10.88" height="2.8" transform="translate(791.74 919.95) rotate(180)"/><rect class="cls-11" x="390.43" y="447.27" width="5.44" height="2.8" transform="translate(786.3 897.33) rotate(180)"/><rect class="cls-53" x="148.08" y="624.9" width="84.26" height="21.85" rx="1.49"/><path class="cls-49" d="M231.05,643.54H149.36a3.36,3.36,0,0,1-1.28-.25v2.62a.84.84,0,0,0,.84.84h82.57a.84.84,0,0,0,.84-.84v-2.62A3.39,3.39,0,0,1,231.05,643.54Z"/><g class="cls-3"><rect class="cls-19" x="192.22" y="624.9" width="20.06" height="21.85"/></g><g class="cls-3"><rect class="cls-19" x="215.8" y="624.9" width="5.28" height="21.85" transform="translate(436.88 1271.65) rotate(180)"/></g><rect class="cls-54" x="147.9" y="646.35" width="84.26" height="21.85" rx="1.49"/><path class="cls-49" d="M230.87,665H149.18a3.36,3.36,0,0,1-1.28-.26v2.62a.83.83,0,0,0,.84.84h82.57a.83.83,0,0,0,.84-.84v-2.62A3.4,3.4,0,0,1,230.87,665Z"/><g class="cls-3"><rect class="cls-19" x="192.04" y="646.35" width="20.06" height="21.85"/></g><g class="cls-3"><rect class="cls-19" x="215.62" y="646.35" width="5.28" height="21.85" transform="translate(436.52 1314.56) rotate(180)"/></g><rect class="cls-55" x="143.88" y="667.81" width="84.26" height="21.85" rx="1.49"/><path class="cls-49" d="M226.85,686.45H145.16a3.22,3.22,0,0,1-1.28-.26v2.63a.85.85,0,0,0,.84.84H227.3a.85.85,0,0,0,.84-.84v-2.63A3.27,3.27,0,0,1,226.85,686.45Z"/><g class="cls-3"><rect class="cls-19" x="188.02" y="667.81" width="20.06" height="21.85"/></g><g class="cls-3"><rect class="cls-19" x="211.6" y="667.81" width="5.28" height="21.85" transform="translate(428.49 1357.46) rotate(180)"/></g><rect class="cls-56" x="234.66" y="624.68" width="84.26" height="21.85" rx="1.49"/><path class="cls-49" d="M317.63,643.32H235.94a3.22,3.22,0,0,1-1.28-.26v2.63a.84.84,0,0,0,.84.84h82.57a.84.84,0,0,0,.84-.84v-2.63A3.18,3.18,0,0,1,317.63,643.32Z"/><g class="cls-3"><rect class="cls-19" x="278.8" y="624.68" width="20.06" height="21.85"/></g><g class="cls-3"><rect class="cls-19" x="302.38" y="624.68" width="5.28" height="21.85" transform="translate(610.05 1271.2) rotate(180)"/></g><rect class="cls-57" x="236.35" y="604.29" width="84.26" height="21.85" rx="1.49"/><path class="cls-49" d="M319.32,622.93H237.63a3.22,3.22,0,0,1-1.28-.26v2.63a.84.84,0,0,0,.84.84h82.57a.84.84,0,0,0,.84-.84v-2.63A3.18,3.18,0,0,1,319.32,622.93Z"/><g class="cls-3"><rect class="cls-19" x="280.49" y="604.29" width="20.06" height="21.85"/></g><g class="cls-3"><rect class="cls-19" x="304.07" y="604.29" width="5.28" height="21.85" transform="translate(613.43 1230.42) rotate(180)"/></g><rect class="cls-58" x="234.34" y="583.19" width="84.26" height="21.85" rx="1.49"/><path class="cls-49" d="M317.32,601.84H235.63a3.27,3.27,0,0,1-1.29-.26v2.62a.84.84,0,0,0,.85.84h82.57a.84.84,0,0,0,.84-.84v-2.62A3.22,3.22,0,0,1,317.32,601.84Z"/><g class="cls-3"><rect class="cls-19" x="278.48" y="583.19" width="20.06" height="21.85"/></g><g class="cls-3"><rect class="cls-19" x="302.07" y="583.19" width="5.28" height="21.85" transform="translate(609.42 1188.24) rotate(180)"/></g><rect class="cls-59" x="236.35" y="646.13" width="84.26" height="21.85" rx="1.49"/><path class="cls-49" d="M319.32,664.77H237.63a3.39,3.39,0,0,1-1.28-.25v2.62a.84.84,0,0,0,.84.84h82.57a.84.84,0,0,0,.84-.84v-2.62A3.36,3.36,0,0,1,319.32,664.77Z"/><g class="cls-3"><rect class="cls-19" x="280.49" y="646.13" width="20.06" height="21.85"/></g><g class="cls-3"><rect class="cls-19" x="304.07" y="646.13" width="5.28" height="21.85" transform="translate(613.43 1314.11) rotate(180)"/></g><rect class="cls-60" x="232.33" y="667.58" width="84.26" height="21.85" rx="1.49"/><path class="cls-49" d="M315.31,686.23H233.62a3.27,3.27,0,0,1-1.29-.26v2.62a.84.84,0,0,0,.84.84h82.58a.84.84,0,0,0,.84-.84V686A3.25,3.25,0,0,1,315.31,686.23Z"/><g class="cls-3"><rect class="cls-19" x="276.47" y="667.58" width="20.06" height="21.85"/></g><g class="cls-3"><rect class="cls-19" x="300.06" y="667.58" width="5.28" height="21.85" transform="translate(605.4 1357.02) rotate(180)"/></g></g></g></svg>
