<svg xmlns="http://www.w3.org/2000/svg" xmlns:xlink="http://www.w3.org/1999/xlink" viewBox="0 0 1921.6 642.88"><defs><style>.cls-1{opacity:0.47;}.cls-2{fill:#e0e4f0;}.cls-3{opacity:0.5;}.cls-4{fill:#41446b;}.cls-25,.cls-5{opacity:0.3;}.cls-25,.cls-6{fill:#191c3c;}.cls-7{fill:#ffcebd;}.cls-8{fill:#fff;}.cls-9{fill:#4d5068;}.cls-10{opacity:0.14;}.cls-11{opacity:0.27;}.cls-12{fill:#bfbfbf;}.cls-13{fill:#3454ad;}.cls-14{opacity:0.28;}.cls-15{fill:#f7f9fa;}.cls-16{fill:#4563cc;}.cls-17{fill:#7d93d3;}.cls-18,.cls-19{fill:none;stroke:#fff;stroke-miterlimit:10;}.cls-18{stroke-width:0.76px;}.cls-19{stroke-width:0.5px;}.cls-20{fill:#bfcbef;}.cls-21{fill:#728edb;}.cls-22{fill:#e6e7e8;}.cls-23{fill:url(#linear-gradient);}.cls-24{fill:url(#linear-gradient-2);}.cls-26{fill:#fec55e;}.cls-27{fill:#e5b3a5;}.cls-28{fill:#575a8f;}.cls-29{fill:url(#linear-gradient-3);}.cls-30{opacity:0.4;}.cls-31{fill:#3a3c4e;}.cls-32{fill:#75778a;}.cls-33{fill:#474963;}.cls-34{fill:#2c2d3b;}.cls-35{opacity:0.1;}.cls-36{fill:#dfe2ec;}.cls-37{fill:#536dfe;}.cls-38{fill:#212121;}.cls-39{fill:#f5f7f9;}.cls-40{fill:url(#linear-gradient-4);}.cls-41{fill:#3752a0;}.cls-42{fill:#fed17e;}.cls-43{fill:#fde8bd;}.cls-44{fill:#9a9dd0;}.cls-45{fill:#e6e6f3;}.cls-46{fill:#8b9fd8;}.cls-47{fill:#ff65a7;}.cls-48{fill:#273747;}.cls-49{fill:#cd206b;}.cls-50{fill:url(#linear-gradient-5);}.cls-51{fill:url(#linear-gradient-6);}.cls-52{fill:#acbcea;}</style><linearGradient id="linear-gradient" x1="862.42" y1="485.04" x2="886.78" y2="485.04" gradientUnits="userSpaceOnUse"><stop offset="0" stop-color="#fec55e"/><stop offset="1" stop-color="#ffa000"/></linearGradient><linearGradient id="linear-gradient-2" x1="858.56" y1="409.84" x2="896.52" y2="409.84" xlink:href="#linear-gradient"/><linearGradient id="linear-gradient-3" x1="693.32" y1="342.91" x2="764.86" y2="342.91" xlink:href="#linear-gradient"/><linearGradient id="linear-gradient-4" x1="524.13" y1="456.62" x2="581.38" y2="456.62" xlink:href="#linear-gradient"/><linearGradient id="linear-gradient-5" x1="409.02" y1="90.04" x2="534.56" y2="90.04" gradientTransform="translate(66.22 -167.26) rotate(21.59)" xlink:href="#linear-gradient"/><linearGradient id="linear-gradient-6" x1="437.47" y1="158.66" x2="506.11" y2="158.66" xlink:href="#linear-gradient"/></defs><title>Our Team</title><g id="Layer_2" data-name="Layer 2"><g id="Layer_1-2" data-name="Layer 1"><g class="cls-1"><path class="cls-2" d="M1081.6,639.88a520.7,520.7,0,0,0-45-212.34A164.79,164.79,0,0,0,839.28,198.76,520,520,0,0,0,559,117.31q-19.28,0-38.19,1.37a134.61,134.61,0,0,0-206.69,59.49,524,524,0,0,0-109,77.23A149.18,149.18,0,0,0,56.69,495.45,522.66,522.66,0,0,0,36.46,639.88Z"/></g><g class="cls-1"><path class="cls-2" d="M1921.6,641.88c0-75.61-5.08-149.46-34-214.34a164.79,164.79,0,0,0-197.35-228.78A520,520,0,0,0,1410,117.31q-19.27,0-38.19,1.37a134.61,134.61,0,0,0-206.69,59.49,524,524,0,0,0-109,77.23A149.18,149.18,0,0,0,907.69,495.45a522.66,522.66,0,0,0-20.23,144.43Z"/></g><g class="cls-1"><path class="cls-2" d="M481,641.88c0-132.81-107.67-240.47-240.48-240.47S0,509.07,0,641.88Z"/></g><g class="cls-1"><path class="cls-2" d="M963,641.88c0-132.81-107.66-240.47-240.47-240.47S482,509.07,482,641.88Z"/></g><g class="cls-1"><path class="cls-2" d="M1441.78,641.88c0-132.81-107.66-240.47-240.47-240.47S960.83,509.07,960.83,641.88Z"/></g><g class="cls-1"><path class="cls-2" d="M1920.6,641.88c0-132.81-107.66-240.47-240.47-240.47s-240.47,107.66-240.47,240.47Z"/></g><g class="cls-3"><circle class="cls-2" cx="731.36" cy="103.81" r="15.82" transform="translate(463.02 792.03) rotate(-76.78)"/></g><g class="cls-3"><circle class="cls-2" cx="1371.36" cy="52.81" r="15.82" transform="translate(1006.28 1375.73) rotate(-76.78)"/></g><g class="cls-3"><path class="cls-2" d="M464.83,42.54a20.49,20.49,0,1,1-20.48-20.48A20.48,20.48,0,0,1,464.83,42.54Z"/></g><g class="cls-3"><path class="cls-2" d="M1523.83,57.54a20.49,20.49,0,1,1-20.48-20.48A20.48,20.48,0,0,1,1523.83,57.54Z"/></g><g class="cls-3"><path class="cls-2" d="M1158.83,127.54a20.49,20.49,0,1,1-20.48-20.48A20.48,20.48,0,0,1,1158.83,127.54Z"/></g><g class="cls-3"><path class="cls-2" d="M227.17,176.68a10.44,10.44,0,1,1-10.44-10.44A10.45,10.45,0,0,1,227.17,176.68Z"/></g><g class="cls-3"><circle class="cls-2" cx="321.36" cy="99.97" r="10.44"/></g><g class="cls-3"><circle class="cls-2" cx="1762.36" cy="127.97" r="10.44"/></g><g class="cls-3"><path class="cls-2" d="M827.49,125.57a9.32,9.32,0,1,1-9.32-9.31A9.31,9.31,0,0,1,827.49,125.57Z"/></g><g class="cls-3"><path class="cls-2" d="M528.83,50.94a3.22,3.22,0,1,1-3.22-3.21A3.22,3.22,0,0,1,528.83,50.94Z"/></g><g class="cls-3"><circle class="cls-2" cx="257.92" cy="134.97" r="4.19"/></g><g class="cls-3"><path class="cls-2" d="M112.12,226.13a5.57,5.57,0,1,1-5.57-5.57A5.57,5.57,0,0,1,112.12,226.13Z"/></g><g class="cls-3"><path class="cls-2" d="M570.49,65a5.57,5.57,0,1,1-5.56-5.57A5.56,5.56,0,0,1,570.49,65Z"/></g><g class="cls-3"><path class="cls-2" d="M1233.49,56a5.57,5.57,0,1,1-5.56-5.57A5.56,5.56,0,0,1,1233.49,56Z"/></g><g class="cls-3"><circle class="cls-2" cx="162.03" cy="208.68" r="23.62" transform="translate(-69.91 335.18) rotate(-80.78)"/></g><g class="cls-3"><circle class="cls-2" cx="1035.03" cy="182.68" r="23.62" transform="translate(688.91 1175.08) rotate(-80.78)"/></g><g class="cls-3"><path class="cls-2" d="M37,484.31a5.57,5.57,0,1,1-5.57-5.56A5.57,5.57,0,0,1,37,484.31Z"/></g><g class="cls-3"><circle class="cls-2" cx="645.25" cy="88.56" r="22.89"/></g><g class="cls-3"><circle class="cls-2" cx="1639.25" cy="89.56" r="22.89"/></g><g class="cls-3"><circle class="cls-2" cx="910.25" cy="145.56" r="22.89"/></g><g class="cls-3"><circle class="cls-2" cx="29.04" cy="286.18" r="18.12" transform="translate(-107.31 32.9) rotate(-22.5)"/></g><g class="cls-3"><path class="cls-2" d="M1870.17,191.68a10.44,10.44,0,1,1-10.44-10.44A10.45,10.45,0,0,1,1870.17,191.68Z"/></g><path class="cls-4" d="M341.19,421.47l47.23,209.06v11.35s-49.82,0-49.91-.1c-2.12-2.18,1.24-5.81,2.07-8.41L284.24,503Z"/><g class="cls-5"><polygon class="cls-6" points="344.96 438.18 328.81 439.19 284.24 502.96 307.88 557.68 320.91 496.01 349.09 456.45 344.96 438.18"/></g><path class="cls-4" d="M235.33,444.5l2.13,180.19c-2.16,4.43-8.61,11.25-4.65,16.21.79,1,48.77,1,48.77,1L312.41,496l42-58.95Z"/><path class="cls-7" d="M384.75,283l19.14,7.45,50.49-56.88-.79-15.82a6.57,6.57,0,0,1,5-6.72l7.64-1.85.88,9.26,3.46-23.76a12.61,12.61,0,0,1,9.73-10.44h0a1,1,0,0,1,1.15,1.05l-3.17,23.89,17.54-15.57a7.61,7.61,0,0,1,1.68-1.13l3.17-1.59a4.3,4.3,0,0,1,3.83,0h0a.08.08,0,0,1,0,.12l-19.78,26.36a10.52,10.52,0,0,1,1.9,9.26l-3.58,13.32-10.23,9-48.77,86.79-46.15-14.41Z"/><polygon class="cls-7" points="305.56 259.89 229.92 240.92 279.71 134.66 315.86 166.59 299.03 215.59 305.56 259.89"/><g class="cls-5"><polygon class="cls-6" points="395.92 288.29 384.75 283.95 377.94 322.32 390.02 326.1 395.92 288.29"/></g><path class="cls-8" d="M299,215.59l49.74,28.79a14.93,14.93,0,0,1,2.56,1.86l37.09,33.48L381,327.45,287.18,271.7Z"/><polygon class="cls-8" points="210.4 267.24 229.92 449.72 363.96 449.72 328.35 236.67 299.03 215.59 275.61 243.44 245.18 207.03 210.4 267.24"/><path class="cls-9" d="M274.86,152a177.5,177.5,0,0,1-10.78,21.71c-1.27,2.17-3.31,7.5-6.11,8.07-3.68.75-3.68-3.22-3.62-5.63.11-3.92-1.72-7.63-2.25-11.52-.25-1.81-.22-3.65-.39-5.47-.43-4.36-2-8.52-3-12.79-1.91-8.47,1.57-15.64,5.66-22.92,2.05-3.65,4-7.59,6.37-11,3.06-4.38,7.49-4.28,11.68-7,3.23-2.08,5.4-6,9.19-6.73,4.69-.84,9.44,3.93,13.84,2.1,4.57-1.9,8.77-4.41,13.79-1.6,1.7,1,3.24,2.4,5.18,2.66a17.9,17.9,0,0,0,4-.38c2.61-.27,5.19.53,7.69,1.31s5,1.78,5.84,4.13c.48,1.4.17,3,.81,4.34.81,1.69,2.85,2.37,4.71,2.59s3.83.19,5.45,1.12c2.61,1.49,3.35,9.19,2.14,11.65-1.38,2.79-4.89,3.86-8,3.7s-6.12-1.21-9.22-1.42-6.63.75-8.13,3.47a10.73,10.73,0,0,0-.93,2.71L315,150.34c-1.17,4.76-2.5,9.79-6.05,13.18a14.46,14.46,0,0,1-14.13,3,17.49,17.49,0,0,1-10.6-10.16c-.76-1.91-1.25-4-2.58-5.58s-3.9-2.4-5.45-1A5.82,5.82,0,0,0,274.86,152Z"/><path class="cls-7" d="M336.33,130.89v24.45l-3.19,3.19s6.91,9.57,6.37,19.67h-6.37v12.09A18.74,18.74,0,0,1,314.4,209H312a26.18,26.18,0,0,1-26.18-26.18v-10.5s-10.1-4.78-10.1-13.82c0,0-1.59-13.82,6.91-13.29,0,0,11.16-.53,11.69,8.51l12.18,1.06V148a9.15,9.15,0,0,1,8.56-9.13h0l.53-14.33S330,121.86,336.33,130.89Z"/><path class="cls-9" d="M332.07,196c-1.86-1-2.66,1.77-2.83,3.05s-.59,2.79-1.82,3.1a3.4,3.4,0,0,1-1.61-.13,12.31,12.31,0,0,1-2.38-.79,12,12,0,0,1-1.76-1.13c-2.1-1.52-3.86-3-3.75-5.74s.79-5.23,3.51-6.43c2.2-1,4.71-.87,7.06-.67,1.81.14,4.41,1.06,5.71-.76.67-.95.35-2.25,0-3.36a5.13,5.13,0,0,0-.8-1.78c-1.16-1.49-6.6-1-8.46-1.12a37,37,0,0,0-6.57-.22,8.17,8.17,0,0,0-5.42,2.74c-1.11,1.39-1.73,3.38-3.4,4a4.46,4.46,0,0,1-2.18.13,5.89,5.89,0,0,1-4.24-2.39c-1.29-2.07-.46-4.73.2-7.08,1.48-5.22.84-10.68,2.27-15.78.77-2.79,2.23-9.62-.1-12H293.09c1.3,5.75,2.76,16,.49,21.45-3.95,9.52-11.85,23.09-2.58,32,2.49,2.4,5.72,3.83,8.88,5.22a23.27,23.27,0,0,0,6.28,2.07c2.52.31,5.08-.21,7.62-.09,3.2.14,6.39,1.29,9.53.68a17.4,17.4,0,0,0,5.73-2.66,3.48,3.48,0,0,0,1-.84,9.85,9.85,0,0,0,.64-1.8,6.9,6.9,0,0,1,.73-1.19,9.57,9.57,0,0,0,1.57-5.79C332.93,197.22,332.72,196.39,332.07,196Z"/><g class="cls-10"><path class="cls-6" d="M335.73,622.16c-.2-.46,5.49-5.65,6-6.44-1.33-.53-3.1-.53-4.25-1.61-2.36-2.22-3.32-7.19-5.53-9.89-1.24-1.52-2.73-3-3.21-4.88s.66-4.38,2.63-4.37a34.18,34.18,0,0,1-9.06-16c-1-4.21-1.27-8.62-2.77-12.69a14.25,14.25,0,0,0-4.8-6.7c-.4-.28-7.27-2.79-6.06,0Z"/></g><g class="cls-11"><path class="cls-12" d="M226.34,416.3l.73,6.76a2.19,2.19,0,0,0,.45-2.29A43.51,43.51,0,0,1,226.34,416.3Z"/><path class="cls-12" d="M225.76,337.72c-4.06-1,3.89-4.33,6.84-7.7.42-1.11-8.8-1.32-9.72-1.9.55-4,0-7.7.54-11.74,2.13-1.11,10-2,7.93-2.66-10.09-3.39-1.81-47.29,1.14-53.83,1.38-3.07-10.29,16-11.69,19.05-3.57,7.93-4.64,16-6.57,24.11l1.2,11.24c.49.1,1,.17,1.47.28a14.3,14.3,0,0,0-1.31,1.21l2.82,26.32c.79.1.18,2.45,1,2.55-.77,1.12,0,0-.58,1.15l6.6,61.71c4.52,26.07,5.15-16.77,4.52-24.16-1.29-15-9.12-32.61,1.43-35.08C233.75,347.71,228,338,225.76,337.72Z"/></g><polygon class="cls-7" points="175.27 327.45 172.61 357.85 199.72 485.43 196.53 501.9 199.72 523.7 207.57 530.61 218.32 533.79 229.92 538.05 234.8 538.05 245.18 533.79 238.52 525.29 235.87 511.75 240.12 518.91 248.18 521.04 237.99 496.01 221.29 478.71 210.4 368.21 214.6 327.45 175.27 327.45"/><g class="cls-5"><polygon class="cls-6" points="174.53 335.96 213.73 335.96 214.6 327.45 175.27 327.45 174.53 335.96"/></g><path class="cls-8" d="M245.18,207l-60.74,34.66a22.53,22.53,0,0,0-11.34,18.52L170,327.45h48.36l3-46.13Z"/><rect class="cls-9" x="1542.77" y="328.76" width="5" height="88.7" rx="2.4" transform="translate(188.77 1201.95) rotate(-45)"/><rect class="cls-7" x="1706.72" y="224.05" width="37.04" height="38.46" transform="translate(47.67 713.81) rotate(-23.69)"/><g class="cls-5"><polygon class="cls-6" points="1735.84 221.35 1711.15 257.1 1700.55 233.11 1734.47 218.23 1735.84 221.35"/></g><path class="cls-7" d="M1736.17,222.21l-42.06,34.42a19.5,19.5,0,0,1-25.43-7.95L1661,234.06l-5.65,2.18a3.9,3.9,0,0,1-5.26-3.15l2.4-31.09-4.18-9.54c-.69-1.56-.08-11.12,1.48-11.81l60-18.56Z"/><path class="cls-13" d="M1729.8,512s3.12,105.68.78,128.92c0,.3-49.92.45-49.92.45L1699.43,512Z"/><g class="cls-5"><path class="cls-6" d="M1702.55,641.06c11.81-35.14,20.82-95.78,21.33-101.93.2-2.43,2.84-5.17,6.42-8.31-.28-11.37-.5-18.85-.5-18.85h-30.37l-18.74,129.15S1701.6,643.88,1702.55,641.06Z"/></g><path class="cls-13" d="M1642.56,497.32l-5,143.56s56,.29,56.1,0c7.92-36.23,20.78-95.63,21.29-101.77.74-8.88,33.33-21.48,29.26-44.81l-23.71-20.78-73,7.82Z"/><g class="cls-14"><path class="cls-15" d="M1653.67,497.32s5-16,5-16l63.06-6.76-1.21-1.06-73,7.82-5,16-5.34,143.75s7.38.81,7.57-.06c1.48-7.16-.43-14.63-.54-21.94-.13-8.81,2-16,3.41-24.45,1.59-9.69.37-20.35.83-30.17.67-14.32,3.2-28.36,4.27-42.57C1653.32,514.48,1651.43,504.45,1653.67,497.32Z"/></g><path class="cls-7" d="M1764,332.16l22.85,38.72a16.11,16.11,0,0,1-3,20L1746.1,425.8l-19.26-24.44Z"/><g class="cls-5"><path class="cls-6" d="M1744.25,494.32l-23.71-20.78-73,7.82-5,16-.24,2.22c40.57-8.57,83,13.67,99.51,9.65A23.21,23.21,0,0,0,1744.25,494.32Z"/></g><g class="cls-5"><path class="cls-6" d="M1764,332.16l-37.2,69.2,19.26,24.44,12.15-11.2c6-29.28,14.52-64.35,14.52-64.35.27-.7.5-1.32.77-2Z"/></g><path class="cls-4" d="M1746.1,242.1s3,6.66,7.41,10.37,27.41,26.66,25.92,44.44c0,0,3.71,10.37-13.33,53.34,0,0-22.22,91.11-20,102.22S1758,505.8,1758,505.8s-63.54-27-128.92-7.34c0,0,14.62-82,15.56-97.1,0,0,33.33-111.86,54.66-129.15Z"/><path class="cls-6" d="M1646.12,157.44l.17-.08c1.72-.75,3.58-1.3,5-2.51a29,29,0,0,0,3-3.53c1.78-2.07,4.52-3.53,6.56-5.16,2.9-2.32,5-4,8.9-4.54s8-.07,11.92-.58c6.9-.9,13.88-4.73,20.45-2.43,4.75,1.66,7.87,6.11,10.66,10.31,5.63,8.47,11.32,17,15.29,26.43,5,11.75,1.81,25.34,7.35,37a13.27,13.27,0,0,1,1.06,2.6,9.91,9.91,0,0,1,.2,2l.3,8.38c-.38-1.79-.86-3.76-2.38-4.79-3.29-2.24-4.83-1.51-6.56-5.24-1.48-3.2-4.06-5.76-5.53-9-.94-2-1.77-4.34-3.53-5.84-2-1.65-4.61-1.14-6.53-2.46s-1.87-3.72-3-5.54a19.79,19.79,0,0,0-6.45-6.13c-2.27-1.43-5.08-2.65-7.56-1.63s-3.64,4-3.55,6.67,1.13,5.22,1.85,7.81c1.63,5.93,1.51,12.18,1.14,18.32a25.44,25.44,0,0,0-2.72-8.63c-.91,1.63-1.81,3.27-2.72,4.91a59.12,59.12,0,0,0-6-13.77c-2.77-4.35-7.89-7.51-12-10.4l-7.73-5.39c-1.52-1.07-3.19-2.18-5-2.15-2.4,0-4.36,2-5.63,4-2.66,4.26-7.8,10.23-13.47,9.71-2.86-.26-2.87-1.45-3.35-3.91-.6-3.08-.91-4.22-3.52-6.08a4.08,4.08,0,0,1-1.37-1.65,1.93,1.93,0,0,0-.52-.83,2.76,2.76,0,0,0-.9-.27,2.74,2.74,0,0,1-1.69-3.16,8,8,0,0,1,1.86-3.42C1635.06,170.24,1638.37,160.9,1646.12,157.44Z"/><g class="cls-5"><path class="cls-6" d="M1698,429.16l34.79-61.75-32-13.46L1685.2,381.4l-35.1,2.39c-3.42,10.65-5.48,17.57-5.48,17.57-.22,3.58-1.22,11-2.61,20.1Z"/></g><g class="cls-10"><path class="cls-15" d="M1779.43,296.91c1.49-17.78-21.48-40.74-25.92-44.44s-7.41-10.37-7.41-10.37l-4.61,3c-.11,3.05.88,6.21,1.82,9.19,1.24,4,2.35,8.46.54,12.23-3,6.2-11.83,7-16,12.46-4.41,5.71-2.06,13.91.59,20.62,4.88,12.32,10.25,26,5.56,38.4-1.14,3-2.88,5.91-3.33,9.13-1.3,9.25,8.21,17,8.21,26.37s-9.5,16.16-12.42,25.19c-3.43,10.6,2.76,21.8,3,32.94.2,9-3.52,17.78-3,26.76.33,5.82,2.43,11.36,4.33,16.87,2.72,7.87,5.06,15.88,7.08,24,4,1.08,7.44,2.14,10.34,3.08.19-.73.35-1.45.47-2.14q1.68-10.26,3.35-20.52c-2.44-10.89-4.94-22.15-5.94-27.14-2.22-11.11,20-102.22,20-102.22C1783.14,307.28,1779.43,296.91,1779.43,296.91Z"/></g><path class="cls-7" d="M1699.67,352l-14.31,27.93-97.78,6.66-2.57-5.39a13.38,13.38,0,0,0-11.41-7.59l-30-1.46a3.58,3.58,0,0,0-3.76,3.57h0a3.59,3.59,0,0,0,3.27,3.57l9.33.82-.37,3.7-3.71.75-.13,2.34a10.52,10.52,0,0,0,2.63,7.56l1.3,1.47A7.43,7.43,0,0,1,1554,400l0,.12a7.78,7.78,0,0,0,4,6l8.27,4.54a6,6,0,0,0,2.87.74h12.17l8.89-2.6L1695,423.81l37.75-56.4Z"/><g class="cls-5"><path class="cls-6" d="M1741.66,376.17l-45-26.66,24.09-58.31a28.61,28.61,0,0,1,37.83-14.37h0c14.42,6.47,16.41,23.41,9.93,37.83Z"/></g><path class="cls-4" d="M1737.21,369.51l-42.77-20L1716.3,289a28.62,28.62,0,0,1,37.83-14.38h0a28.62,28.62,0,0,1,14.38,37.84Z"/><path class="cls-16" d="M1495.13,332.24l-16.82,1.27a37.81,37.81,0,1,1,12.33-18.16L1497,329A2.3,2.3,0,0,1,1495.13,332.24Z"/><path class="cls-17" d="M1447.34,276.32a29,29,0,1,1-20.64,35.43A29,29,0,0,1,1447.34,276.32Z"/><path class="cls-18" d="M1457.71,309.15a5.68,5.68,0,1,0-5.5-.34"/><path class="cls-19" d="M1457.65,322.62a18.75,18.75,0,1,0-5.5-.11"/><path class="cls-19" d="M1457.71,320.14a16.28,16.28,0,1,0-5.5-.1"/><path class="cls-19" d="M1457.71,317.35a13.54,13.54,0,1,0-5.5-.12"/><path class="cls-19" d="M1457.71,314.55a10.8,10.8,0,1,0-5.5-.16"/><path class="cls-19" d="M1457.71,311.9a8.25,8.25,0,1,0-5.5-.22"/><line class="cls-19" x1="1452.12" y1="322.77" x2="1452.12" y2="308.48"/><line class="cls-19" x1="1457.61" y1="322.86" x2="1457.61" y2="308.76"/><circle class="cls-8" cx="1455.33" cy="303.63" r="2.93"/><g class="cls-3"><path class="cls-2" d="M1273.81,151.18a18.64,18.64,0,1,1-18.64-18.63A18.64,18.64,0,0,1,1273.81,151.18Z"/></g><path class="cls-20" d="M942.09,323.9l15.67-9V296.71a2.36,2.36,0,0,1,2.36-2.36h183a2.37,2.37,0,0,1,2.37,2.36V354a2.37,2.37,0,0,1-2.37,2.37h-183a2.37,2.37,0,0,1-2.36-2.37V335.84l-15.67-9A1.67,1.67,0,0,1,942.09,323.9Z"/><rect class="cls-8" x="970.5" y="305.72" width="39.26" height="39.26" rx="3.27"/><path class="cls-8" d="M1124.19,316.31h-96.71a3.77,3.77,0,0,1-3.76-3.76h0a3.76,3.76,0,0,1,3.76-3.76h96.71a3.76,3.76,0,0,1,3.76,3.76h0A3.76,3.76,0,0,1,1124.19,316.31Z"/><path class="cls-8" d="M1124.19,330.84h-96.71a3.77,3.77,0,0,1-3.76-3.76h0a3.76,3.76,0,0,1,3.76-3.76h96.71a3.76,3.76,0,0,1,3.76,3.76h0A3.76,3.76,0,0,1,1124.19,330.84Z"/><path class="cls-8" d="M1091.85,345.37h-64.37a3.77,3.77,0,0,1-3.76-3.77h0a3.77,3.77,0,0,1,3.76-3.76h64.37a3.76,3.76,0,0,1,3.76,3.76h0A3.76,3.76,0,0,1,1091.85,345.37Z"/><path class="cls-20" d="M680.91,352.68l-15.67-9.05V325.49a2.37,2.37,0,0,0-2.37-2.37h-183a2.37,2.37,0,0,0-2.37,2.37v57.27a2.37,2.37,0,0,0,2.37,2.36h183a2.37,2.37,0,0,0,2.37-2.36V364.61l15.67-9A1.67,1.67,0,0,0,680.91,352.68Z"/><rect class="cls-8" x="613.24" y="334.49" width="39.26" height="39.26" rx="3.27" transform="translate(1265.73 708.24) rotate(180)"/><path class="cls-8" d="M498.81,345.08h96.7a3.76,3.76,0,0,0,3.76-3.76h0a3.76,3.76,0,0,0-3.76-3.76h-96.7a3.76,3.76,0,0,0-3.76,3.76h0A3.76,3.76,0,0,0,498.81,345.08Z"/><path class="cls-8" d="M498.81,359.61h96.7a3.76,3.76,0,0,0,3.76-3.76h0a3.76,3.76,0,0,0-3.76-3.76h-96.7a3.76,3.76,0,0,0-3.76,3.76h0A3.76,3.76,0,0,0,498.81,359.61Z"/><path class="cls-8" d="M531.15,374.14h64.36a3.76,3.76,0,0,0,3.76-3.76h0a3.76,3.76,0,0,0-3.76-3.76H531.15a3.76,3.76,0,0,0-3.76,3.76h0A3.76,3.76,0,0,0,531.15,374.14Z"/><path class="cls-20" d="M1068.72,205.34l-15.67-9.05V178.15a2.37,2.37,0,0,0-2.36-2.37h-183a2.36,2.36,0,0,0-2.36,2.37v57.26a2.36,2.36,0,0,0,2.36,2.37h183a2.37,2.37,0,0,0,2.36-2.37V217.27l15.67-9A1.66,1.66,0,0,0,1068.72,205.34Z"/><rect class="cls-8" x="1001.05" y="187.15" width="39.26" height="39.26" rx="3.27" transform="translate(2041.36 413.56) rotate(180)"/><path class="cls-8" d="M886.62,197.74h96.71a3.76,3.76,0,0,0,3.76-3.76h0a3.76,3.76,0,0,0-3.76-3.76H886.62a3.76,3.76,0,0,0-3.76,3.76h0A3.76,3.76,0,0,0,886.62,197.74Z"/><path class="cls-8" d="M886.62,212.27h96.71a3.77,3.77,0,0,0,3.76-3.76h0a3.76,3.76,0,0,0-3.76-3.76H886.62a3.76,3.76,0,0,0-3.76,3.76h0A3.76,3.76,0,0,0,886.62,212.27Z"/><path class="cls-8" d="M919,226.8h64.37a3.77,3.77,0,0,0,3.76-3.76h0a3.76,3.76,0,0,0-3.76-3.76H919A3.76,3.76,0,0,0,915.2,223h0A3.76,3.76,0,0,0,919,226.8Z"/><path class="cls-20" d="M1350.58,239,1365.05,253v71.11a6,6,0,0,1-6,6h-56.47a6,6,0,0,1-6-6V245a6,6,0,0,1,6-6Z"/><path class="cls-21" d="M1350.58,239,1365.05,253h-11.52a3,3,0,0,1-3-3Z"/><rect class="cls-22" x="1301.77" y="263.36" width="11.34" height="11.34"/><path class="cls-8" d="M1359.55,266.19H1319.4a1.41,1.41,0,0,1-1.42-1.42h0a1.41,1.41,0,0,1,1.42-1.41h40.15a1.42,1.42,0,0,1,1.42,1.41h0A1.42,1.42,0,0,1,1359.55,266.19Z"/><path class="cls-8" d="M1333.8,273.24h-14.4a1.41,1.41,0,0,1-1.42-1.41h0a1.41,1.41,0,0,1,1.42-1.42h14.4a1.41,1.41,0,0,1,1.42,1.42h0A1.41,1.41,0,0,1,1333.8,273.24Z"/><path class="cls-8" d="M1359.55,288.5H1319.4a1.41,1.41,0,0,1-1.42-1.41h0a1.41,1.41,0,0,1,1.42-1.42h40.15a1.42,1.42,0,0,1,1.42,1.42h0A1.42,1.42,0,0,1,1359.55,288.5Z"/><path class="cls-8" d="M1333.8,295.55h-14.4a1.41,1.41,0,0,1-1.42-1.41h0a1.41,1.41,0,0,1,1.42-1.42h14.4a1.41,1.41,0,0,1,1.42,1.42h0A1.41,1.41,0,0,1,1333.8,295.55Z"/><path class="cls-8" d="M1359.55,310.82H1319.4a1.42,1.42,0,0,1-1.42-1.42h0a1.42,1.42,0,0,1,1.42-1.42h40.15a1.43,1.43,0,0,1,1.42,1.42h0A1.43,1.43,0,0,1,1359.55,310.82Z"/><path class="cls-8" d="M1333.8,317.87h-14.4a1.42,1.42,0,0,1-1.42-1.42h0a1.42,1.42,0,0,1,1.42-1.42h14.4a1.42,1.42,0,0,1,1.42,1.42h0A1.42,1.42,0,0,1,1333.8,317.87Z"/><rect class="cls-22" x="1301.77" y="284.94" width="11.34" height="11.34"/><rect class="cls-22" x="1301.77" y="306.53" width="11.34" height="11.34"/><polygon class="cls-16" points="1307.73 273.46 1301.9 267.63 1303.91 265.61 1307.73 269.44 1317.82 259.35 1319.84 261.36 1307.73 273.46"/><polygon class="cls-16" points="1307.73 294.43 1301.9 288.59 1303.91 286.57 1307.73 290.4 1317.82 280.31 1319.84 282.32 1307.73 294.43"/><polygon class="cls-16" points="1307.73 315.39 1301.9 309.55 1303.91 307.53 1307.73 311.36 1317.82 301.27 1319.84 303.28 1307.73 315.39"/><path class="cls-6" d="M850.25,373.28l-36.7,15a36.73,36.73,0,0,0-22.82,34l-12.17,133,245.77,1.12V510.54a194.39,194.39,0,0,0-27.65-99.92l-11.61-19.37a46.29,46.29,0,0,0-34.24-22.17l-32-3.79-8.56-6.39Z"/><polygon class="cls-8" points="847.84 374.27 850.25 391.63 850.25 439.92 873.47 555.66 873.47 555.66 900.44 451.17 918.34 367.68 909.93 361.12 850.25 373.28 847.84 374.27"/><polygon class="cls-23" points="867.36 415.91 862.42 506.96 872.99 554.18 883.47 509.85 886.78 415.91 867.36 415.91"/><path class="cls-6" d="M922.84,304.91a10,10,0,0,0-2.1-6.64c-1.06-1.21-2.52-2.15-3.13-3.65a9.53,9.53,0,0,1-.44-2.07,9.92,9.92,0,0,0-1.81-4.66c-2.53-3.18-6.82-2.83-9.84-5.13a21,21,0,0,1-2.95-3.16c-1.11-1.28-1.83-3.82-3.34-4.63-1.17-.63-2.61,0-3.79.61-2.51,1.3-5.23,3.7-8.13,2.86-2.62-.75-4.7-2.78-7.41-3.27-6.17-1.13-11.08,6.26-17.36,6.26-1.88,0-3.8-.69-5.62-.2-2.22.61-3.61,2.79-4.49,4.92s-1.49,4.45-3,6.15-3.62,2.47-5.17,4c-2.68,2.67-3.09,6.8-3.35,10.57-.22,3.15-.44,6.31-.35,9.48a49.51,49.51,0,0,0,6.73,23.5l.23.1c.52-1.1,1.85-1.5,3-1.78l8.29-2A30.79,30.79,0,0,1,866,335a30.22,30.22,0,0,1,7.29,1.22q8.68,2.21,17.36,4.43c4.14,1.07,8.34,2.16,12.09,4.22a25.83,25.83,0,0,1,8.63,7.67A58.88,58.88,0,0,1,919,334.75a10.62,10.62,0,0,0,1.66-3.31c.42-1.84-.25-3.74-.28-5.62,0-3.16,1.73-6.12,1.76-9.28,0-1.9-.63-3.79-.45-5.7.14-1.52.92-2.87,1.07-4.39C922.81,305.94,922.84,305.43,922.84,304.91Z"/><polygon class="cls-9" points="921.11 365.55 928.36 389.77 918.86 394.84 928.36 403 873.47 555.66 872.51 548.88 904.62 371.19 910.3 358.9 918.86 365.29 921.11 365.55"/><polygon class="cls-9" points="847.84 374.27 828.45 405.81 837.57 412.57 828.45 423.54 873.47 555.66 847.84 374.27"/><polygon class="cls-24" points="878.29 402.3 858.56 417.39 896.27 417.39 896.52 416.05 878.29 402.3"/><path class="cls-7" d="M843,323.35h0a12.43,12.43,0,0,0-2.88,9.08l1,11.1a11.87,11.87,0,0,0,2.52,6.37l.2.26a6.24,6.24,0,0,0,9.7-.19l.8-1-2.25-21.39Z"/><path class="cls-7" d="M915.93,328.73h0a12.39,12.39,0,0,1,2.88,9.08l-1,11.1a11.87,11.87,0,0,1-2.52,6.37l-.2.26a6.25,6.25,0,0,1-9.7-.19l-.8-1L906.87,333Z"/><g class="cls-5"><path class="cls-6" d="M906.43,361.84l-56.18,11.44-2.41,1,.27,1.94a43.85,43.85,0,0,0,2.07,4L859.1,395a18.41,18.41,0,0,0,15.81,9h0a18.45,18.45,0,0,0,15.66-8.7l9.66-15.54A42.11,42.11,0,0,0,906,364.62Z"/></g><path class="cls-7" d="M847.59,319.55V358.6a41.92,41.92,0,0,0,6,21.57L862.48,395a18.41,18.41,0,0,0,15.81,9h0a18.42,18.42,0,0,0,15.65-8.7l9.67-15.54a41.9,41.9,0,0,0,5.72-15.12l2.42-14.25V313.22l-64.16-1.69Z"/><path class="cls-25" d="M887.27,349l-3.66,18.82a2.33,2.33,0,0,1-3.19,2l-4.52-1.83-1.3,2.17,7.5,3a2.32,2.32,0,0,0,3.19-1.95l2-22.2Z"/><path class="cls-6" d="M911.74,351.57a114.9,114.9,0,0,1-3.45-26.17c0-2.71.11-5.77-1-8.31-1-2.3-4.28-.92-6.5-1.43-2.93-.68-5.53-2.61-8.53-2.78s-4.73,1.16-7,2.83a17,17,0,0,1-3.72,2.34,10,10,0,0,1-5.89.24c-4.14-1-7.7-3.54-11.7-5s-9.19-1.25-11.61,2.24c-1.68,2.41-1.49,5.65-.87,8.53s1.58,5.78,1.2,8.7-2.15,19.93-5.08,19.77l-2.9-50.84,39-8.45L916.47,301Z"/><path class="cls-7" d="M858.56,534.43v-8a4.21,4.21,0,0,0-.76-2.42l-6-8.62L832,509.52l-11.74,5.87a4.89,4.89,0,0,0-2.43,2.76l-5,14.3-8.3,7.47a15.65,15.65,0,0,0-5.62,9.65c-.91,5.07,5.91,5.48,5.91,5.48l9,.32h8.45v-3.21l8.13.37a3.65,3.65,0,0,0,2.13-.56h0c2.32-1.47,3.15-5.16.8-6.58l-8.67-5.74c-.61-.37-2.15-.65-1.83-1.29h0a1.38,1.38,0,0,1,2-.52l11.74,8.06a4.26,4.26,0,0,0,5-.14h0a4.26,4.26,0,0,0,.9-5.78l-2.94-4.28-11.11-5.77h0a2.58,2.58,0,0,1,3.35-.91l8.05,5,3.9,4.64a4.28,4.28,0,0,0,6.14.42h0c1.58-1.44,2.83-3.87,1.63-5.63L846.75,526l-13.24-6.88h0a2.68,2.68,0,0,1,3.3-.91l9,5.32,5.13,4.43.12.67a7.15,7.15,0,0,0,7.48,5.83Z"/><path class="cls-8" d="M811.56,532.45s-30,25,2.25,22.92l-17.59-.09s-8.16-8.8,18.37-27.91l-1.77,5.08Z"/><rect class="cls-26" x="693.21" y="358.33" width="51.32" height="94.31"/><polygon class="cls-27" points="825.09 421.65 796.74 443.33 795.77 423.17 815.86 403.58 825.09 421.65"/><polygon class="cls-4" points="758.11 409.37 792.88 425.29 755.27 556.38 636.99 556.38 674.2 404.7 693.46 402.87 709.7 390.1 758.11 409.37"/><path class="cls-7" d="M710.1,386.44s-.93,12.36-3.84,15.55l-4.07,13.38v77.07l32,2.33,10.18-75.33s0-6.71,3.78-8.59-15.34-24.41-15.34-24.41Z"/><path class="cls-8" d="M705.12,427.72l-2.93,20.36-1.89,86.38,18.57,4.65,21.42-103h0a25.3,25.3,0,0,1-33-5.71Z"/><polygon class="cls-28" points="693.46 402.87 683.28 434.57 695.5 444.17 683.28 450.56 689.39 529.53 705.98 529.83 705.41 393.48 693.46 402.87"/><polygon class="cls-28" points="755.99 410.85 766.17 437.77 750.76 442.71 762.84 455.22 722.77 539.11 705.98 537.37 750.47 405.49 755.99 410.85"/><path class="cls-29" d="M764.58,341c-.66-3.95-1.43-8.12-4.26-11.22a25,25,0,0,0-5.84-4.25L741,317.59c-2.46-1.45-5.41-2.95-8.18-2-1.35.45-2.44,1.43-3.84,1.73-1.91.42-3.83-.54-5.76-.87-4.39-.75-8.6,1.68-12.23,4a46.41,46.41,0,0,0-9.34,7.17c-4.53,4.88-6.46,11.31-7.23,17.62s-1.1,23.09-1.1,23.09c10.46,5.24,23.48.18,34.93-3s21.64-9.18,31.49-15.3c2-1.26,4.21-2.7,4.88-4.84A8.79,8.79,0,0,0,764.58,341Z"/><g class="cls-5"><path class="cls-6" d="M710.1,386.44s-.08.93-.23,2.32h1l2.57,7.15a17.42,17.42,0,0,0,10.67,10.56l13.08,2.89c2.32.81,9.11,1.4,10.91,1.49.54-1-1,.5,0,0,3.78-1.88-15.34-24.41-15.34-24.41Z"/></g><path class="cls-7" d="M765.2,338.59s1.8,12.58,3,16.42a6.35,6.35,0,0,1,.3,2.63l-.46,4.37s2.47,7.27,2.91,11.34a30.11,30.11,0,0,1-1.75,14.39s-6.1,17.6-9.59,20.65c0,0-5.24,4.66-15.27,1.17l-15.55-5.41a17.43,17.43,0,0,1-10.68-10.57l-2.56-7.14H710.1a4.35,4.35,0,0,1-3.24-1.46l-2.45-2.77a16.35,16.35,0,0,1-4.11-10.85V368s1.74-7,8-3.49l5.09,5.38,1.17-.15V358.37s11.32-21.09,27-23.36a3.1,3.1,0,0,0,2.71-3.06V331S757,328.12,765.2,338.59Z"/><path class="cls-25" d="M762.48,374.94l-5-11h0l2.71,11a3.91,3.91,0,0,1-3.56,5.53h2.32A3.91,3.91,0,0,0,762.48,374.94Z"/><path class="cls-26" d="M725.26,386.5c-5.59-10.95-12.84-22.61-8.1-35.17.65-1.74-2.14-2.49-2.79-.77a26.37,26.37,0,0,0-1.24,13.7,1.32,1.32,0,0,0-.82,1.24A27.21,27.21,0,0,0,723,388.25,1.45,1.45,0,0,0,725.26,386.5Z"/><path class="cls-4" d="M687.9,409.75l5.56-6.88L666,405.48A27.5,27.5,0,0,0,642.21,425L608,539.54a13.09,13.09,0,0,0,12.55,16.84H713V530l-63.4-1.16,11.34-48.28,11.63-56.92Z"/><path class="cls-7" d="M713,533.16h7.67a13.62,13.62,0,0,0,11.7-6.65L754,490.12,771.2,483l-1.82,5.08L757.67,493l-2.84,5.23,5.23-3.49H767l-16,44.69-3.55,3a25,25,0,0,1-12.38,5.74L713,551.77Z"/><g class="cls-5"><polygon class="cls-6" points="763.9 490.39 769.38 488.08 771.2 483 765.74 485.25 763.9 490.39"/></g><g class="cls-5"><path class="cls-6" d="M747.45,542.5l3.55-3,16-44.69h-4.66l-17.86,49.91A24.18,24.18,0,0,0,747.45,542.5Z"/></g><polygon class="cls-4" points="744.94 556.38 774.69 473.24 799.91 475.29 785.08 556.38 744.94 556.38"/><rect class="cls-7" x="807.85" y="403.68" width="9.29" height="6.2" rx="2.61" transform="translate(-56.37 672.68) rotate(-43.61)"/><rect class="cls-7" x="808.86" y="410.91" width="15.71" height="6.2" rx="2.61" transform="translate(-90.72 536.48) rotate(-34.57)"/><rect class="cls-7" x="812.55" y="416.55" width="15.71" height="6.2" rx="2.61" transform="translate(-97.43 501.83) rotate(-32.21)"/><path class="cls-7" d="M824.85,420.52l-27,18.77c4.44-3.91,2-9.68,2-9.68v-6.12l5-3.33a3.29,3.29,0,0,0-3.53-5.56l-10,6.1-13,25.2v27.34L796.75,475l8.15-25.25c16.09-4.85,20.94-24.49,20.94-24.49Z"/><g class="cls-30"><path class="cls-31" d="M631.74,488.51c10.76,0-3.62-13.1,7.56-13.48,4.43-.15,11.22.44,9.09-3.48-2-3.59-8-3-10-6.31-4.22-7.07.07-15,2-22.1,2.25-8.16,8.85-23.66,11-31.84A27.47,27.47,0,0,0,642.21,425l-12.55,42.09-.67,2.25-.71,2.37L608,539.54a13.08,13.08,0,0,0-.31,6.28c5.56-9.89,9.74-23.46,12.67-34.34C622.44,503.91,628,488.51,631.74,488.51Z"/></g><path class="cls-26" d="M707.67,390.38l-1.32-3.95L698.44,379l-3.23-25.82c-3.47,4.51-1.4,10.1-2.74,15.14-1.05,3.92-4.18,7.49-4.76,11.46-.81,5.6,3.53,11.5.54,16.73s-12.26,8.17-12.41,13.69c-.1,3.76,4.35,7,4.26,10.77-.09,3.17-3.42,6.19-2.29,9.25.48,1.32,1.76,2.49,1.79,3.85s-1.23,2.7-.82,4c.65,2.14,5.37,2.44,7.4.79s1.81-4.17.72-6.22-2.91-3.88-3.83-6a2.57,2.57,0,0,1-.1-2.42c1.13-1.86,5-1.63,7.35-2.84,3.82-2,1.2-6.3-1.65-9,2.09-1.79,5.7-2.11,8.89-2.65s6.76-1.88,7-4.2-2.66-4.13-2.21-6.3c.37-1.77,2.79-2.89,4.56-4.18S709.76,391.4,707.67,390.38Z"/><path class="cls-6" d="M829.05,445.19l-3.37,3.59-26.44-45.55a2.34,2.34,0,0,1,2-3.52h0a2.33,2.33,0,0,1,2,1.17Z"/><path class="cls-32" d="M827.89,445.19l-25.75-44.31a2.4,2.4,0,0,0-1.44-1.1,2.26,2.26,0,0,0-.64.26,2.17,2.17,0,0,1,.91.84l25.75,44.31Z"/><circle class="cls-33" cx="826.98" cy="446.64" r="2.5"/><g class="cls-30"><path class="cls-34" d="M679.1,529.24l-18.68-1c-6.8-.31-13.63-.43-18.77-.29s-8.56.4-8.56.4l.32,3c-3,.87-5.17,1.65-5.17,1.65a89.39,89.39,0,0,1,11.32-1.62c-2.18,1.67-4.1,3.4-4.1,3.4s2.54-1.35,5.14-2.47c1.06-.47,2.12-.89,3-1.23,4.53-.37,8.57-.87,9.67-1,2.32-.09,4.72-.15,7.12-.19l18.69-.19,8.49-.17Z"/></g><polygon class="cls-6" points="1229.77 555.5 1169.46 555.5 1157.1 528.47 1147.95 555.5 1083.96 555.5 1083.96 470.39 1229.77 470.39 1229.77 555.5"/><g class="cls-35"><path class="cls-6" d="M1108.07,516.71l-.9-.31-.52-.2a2.32,2.32,0,0,1-.9-.68,2.75,2.75,0,0,1-.39-1.79c0-.48.07-1.05.07-1.67a7.15,7.15,0,0,0-.29-2.1,7.34,7.34,0,0,0-2-2.93c-.72-.68-1.43-1.27-1.85-1.76a3.18,3.18,0,0,1-.32-3.71,14.13,14.13,0,0,1,3.2-4l4-3.8,16.21-15.21-17.34,13.91-.58.47,2.77-3.52-10.19-19.06H1084V555.5h28.89a27.16,27.16,0,0,0,1.14-11.81,19.87,19.87,0,0,0-2.84-8l-.58-.89-.27-.37-.11-.13a2.48,2.48,0,0,1-.33-.45,1,1,0,0,1,.05-1.09,2.82,2.82,0,0,1,.41-.44l.14-.13.34-.27.69-.54,1.38-1.09,2.2-1.68.36-.28a5.57,5.57,0,0,0-1.53-9.66l-1.77-.62Z"/></g><path class="cls-7" d="M1258.69,466.66a6.15,6.15,0,0,1-.31-2.84,8,8,0,0,1,1.43-2.66c3.39-5.11,3-11.77,2.4-17.88a2.71,2.71,0,0,0-.69-1.87,2.68,2.68,0,0,0-1.42-.45c-5.63-.63-12-1-16.26,2.69l2.2-.7c-3.93,1.38-8,2.8-11.23,5.39s-5.7,6.63-5.27,10.78c.4,3.85,3.14,7.15,3.64,11,.22,1.7,0,3.52.85,5s2.78,2.4,4.54,3a57.6,57.6,0,0,0,18.18,2.87c1.89,0,4.23-.44,4.74-2.26a4.64,4.64,0,0,0-.2-2.41Q1260,471.48,1258.69,466.66Z"/><polygon class="cls-26" points="1110.67 232.66 1170.08 214.58 1197.01 221.41 1207.72 351.23 1207.72 470.39 1104.08 470.39 1093.87 277.42 1110.67 232.66"/><rect class="cls-6" x="1099.52" y="460.92" width="130.25" height="16.07"/><rect class="cls-36" x="1139.64" y="460.92" width="32.41" height="16.07"/><path class="cls-37" d="M1183.5,213.87l32.85,4.31a20.45,20.45,0,0,1,17.78,19.94l1.13,70.49-18.43,60.95,26.57,118.13h0a60,60,0,0,1-64.69-45.18l-13.86-55.94s20.58-29.9,22.72-78.1l-12.32-94.6Z"/><path class="cls-37" d="M1103.1,222.14,1063,248.9a17.48,17.48,0,0,0-7.69,16.3l23.35,231.94h0a81.18,81.18,0,0,0,79.12-62.95l9.08-39.39,5-15.32-41.72-121.41Z"/><polygon class="cls-13" points="1103.1 222.13 1100.94 250.96 1113.11 257.1 1107.03 268.92 1167.56 380.28 1170.09 373.55 1132.96 254.74 1103.1 222.13"/><path class="cls-13" d="M1183.5,213.87l12.79,24.9-4,6,6.62,6.7s10.86,53.63-2.37,77.61l-31.66,57.53s17.43-44.41,19.12-71.82l-12.44-102.08Z"/><path class="cls-6" d="M1174.59,170.46c-.56-4.35-.53-9-2.73-12.77a24,24,0,0,0-3.82-4.61,27.75,27.75,0,0,0-3.65-3.29,27.36,27.36,0,0,0-8.1-3.4,66.87,66.87,0,0,0-9.1-2.27c-4.93-.75-10-.4-14.93,0-3.8.27-7.68.55-11.21,2-7,2.8-11.49,9.52-15,16.17a21.14,21.14,0,0,0-1.79,4.18,23.21,23.21,0,0,0-.47,6.4l.41,19.11s-1-.08,0,.94a7.81,7.81,0,0,0,3.77,1.89c4.92,1.22,10.09.54,15.17.65,8.85.19,17.46,2.79,25.93,5.36a44.15,44.15,0,0,1,5.94,2.12c1.53.72,3,1.61,4.55,2.21,3.93,1.48,8.28,1,12.44.45,1.58-.2,3.29-.46,4.42-1.59s1.36-2.92,1.52-4.54a60.73,60.73,0,0,0,.45-7.86C1178.16,184.4,1175.51,177.55,1174.59,170.46Z"/><path class="cls-37" d="M1103.1,222.14l-41.44,27.67a17.49,17.49,0,0,0-7.76,13.79l-4.34,131.81L1061.85,499H1093l-3.76-110.57,5.65-70.4Z"/><path class="cls-7" d="M1067,499v8.51l-4.44,4.7a15.82,15.82,0,0,0-4.21,9l-3.6,30a3.79,3.79,0,0,0,3.76,4.24h1.17a3.8,3.8,0,0,0,3.78-3.54l.88-13.43,2.16,13.77a3.79,3.79,0,0,0,3.74,3.2h2.26a3.79,3.79,0,0,0,3.79-3.79V532.8a.29.29,0,0,1,.58,0l3.3,19.59a3.8,3.8,0,0,0,3.74,3.16h1a3.79,3.79,0,0,0,3.76-4.25l-1.15-9.32a8.34,8.34,0,0,1,.32-3.51l4.19-13.4,5.07,6.62h0a10.43,10.43,0,0,0,6.41,12.27l.51.19-.89-20.59a13.28,13.28,0,0,0-4.38-9.31l-10-9V499Z"/><g class="cls-5"><path class="cls-6" d="M1107.8,178.09v45.74a14.42,14.42,0,0,0,1.25,5.89l15.85,35.65a15.69,15.69,0,0,0,14.35,9.33h0a15.68,15.68,0,0,0,12.21-5.82l19.19-26.61c2.54-3.15.88-4.74.88-8.79v-46c0-4,1.45-7.63-2-9.65l-24.82-14.67-30.6,7A8.16,8.16,0,0,0,1107.8,178.09Z"/></g><path class="cls-7" d="M1103.37,176.32v45.74a14.59,14.59,0,0,0,1.25,5.89l15.85,35.65a15.7,15.7,0,0,0,14.36,9.33h0a15.7,15.7,0,0,0,12.21-5.82l19.67-24.28a17.64,17.64,0,0,0,3.94-11.12l2.65-46c0-4-4.75-7.63-8.15-9.65l-24.82-14.67-30.61,7A8.17,8.17,0,0,0,1103.37,176.32Z"/><g class="cls-5"><path class="cls-38" d="M1125,226.83a3.29,3.29,0,0,1-1-4.05c.86-2-.9-20.8-.71-22.83l-.65-.44s1.23,18.41-1.3,24.16a3.28,3.28,0,0,0,1,4,10.27,10.27,0,0,0,8.73,1.55l-.23-.53A10.15,10.15,0,0,1,1125,226.83Z"/></g><path class="cls-7" d="M1170.65,200.35a15.29,15.29,0,0,1,5.08-5.28,4.31,4.31,0,0,1,6.44,4.06l0,.11s-.94,6.9-3.78,10.18c0,0-2.49,5.94-7.72,6.2Z"/><path class="cls-6" d="M1174.72,169.35c-.16-3.33-.41-6.89-2.44-9.53s-5.18-3.72-8.27-4.57a78.72,78.72,0,0,0-35.66-1.49,29.19,29.19,0,0,0-5.75,1.6,59.13,59.13,0,0,1-5.63,2.54c-2.31.69-5.32-.22-7.41.73-2.55,1.15-4.07,5.39-4.78,7.85a49.08,49.08,0,0,0-1.41,10l-.42,5.95h.66c2.43-.59,3.7-3.17,5-5.28s3.83-4.19,6.09-3.11a8.83,8.83,0,0,1,2.36,2.21c2.85,3,7.36,3.58,11.48,4,3.82.35,7.86.67,11.33-1,1.64-.77,3.06-1.93,4.72-2.66,5.15-2.29,12,.85,13.58,6.25a19.86,19.86,0,0,1,.53,6.06l-.09,6.28a5.37,5.37,0,0,0,.17,1.79,3.64,3.64,0,0,0,2.9,2.2,15,15,0,0,0,3.73-.18c.14,2-.39,4.06,0,6.07.13.71.34,1.4.46,2.11a7.75,7.75,0,0,1-.08,2.88,12.15,12.15,0,0,0-.51,2.58c0,1.49,6,6.82,6,5.34.33-10.26-.63-19.73,4-22.67C1176.25,179.35,1175.51,185.34,1174.72,169.35Z"/><path class="cls-9" d="M1170.85,388.46a2.66,2.66,0,1,1-2.65-2.65A2.66,2.66,0,0,1,1170.85,388.46Z"/><g class="cls-35"><path class="cls-6" d="M1217.08,370.67c-.29-.24-.56-.49-.86-.71.21-.1.42-.22.63-.33l0-.07,18.43-60.95-.12-7.75c-3,5.65-9.39,8.1-11.51,14.19-1,3,0,4.55-.36,7.49-.5,3.64-2.87,5.1-4.29,8.27-1.92,4.28-1.13,10.72-1.91,15.14-.46,2.62-.2,5.23-.5,7.81-1,8.89-7.41,9.15-14.88,9.51-5.44.26-6.16,7.37-1.24,9.2,3.36,1.26,7.18,2.54,10,4.83,4.82,3.87,4.62,8,4.88,13.51.35,7.48,4,14.2,5.69,21.43,3.12,13.27,4.62,26.71,13.72,37.07Z"/></g><path class="cls-37" d="M1183.5,213.87l40.26,5.29a24.93,24.93,0,0,1,16.36,9.32l50.17,104.87a27.75,27.75,0,0,1,1.83,18.93l-23.78,91.94h-32.41L1254.21,349l-38.8-73Z"/><g class="cls-35"><path class="cls-6" d="M1093.7,491.57s0-.71,0-2.05.11-3.31.1-5.82c.05-5-.1-12.19-.63-20.78s-1.47-18.58-2.62-29.25-2.48-22.05-3.53-33.5-1.7-23-1.69-33.84a216.76,216.76,0,0,1,1.87-29.37c1.17-8.46,2.76-19.62,4.13-24.17.63-2.32,0-4.74.4-5.94s.2-6.68.2-6.68l3.82,11.91a6.71,6.71,0,0,1,.15,3.11c-.39,1.14-.72,3.41-1.35,5.63-1.39,4.33-4.16,8.76-5.4,16.95a212.31,212.31,0,0,0-2.2,28.69c-.15,10.68.35,22.13,1.24,33.54s2.09,22.83,3.1,33.54,1.82,20.74,2.25,29.35.47,15.81.36,20.82c0,2.51-.13,4.47-.17,5.81S1093.7,491.57,1093.7,491.57Z"/></g><path class="cls-6" d="M1170.65,231.71l.67-14.54-6-4.5.52,17.79-18.07,21.17-1.24-6.52-12.07-8.84-13.26.67-6.52,13.56,5.82,13.1a15.72,15.72,0,0,0,26.57,3.51l19.67-24.28A17.64,17.64,0,0,0,1170.65,231.71Z"/><polygon class="cls-7" points="1123.05 244.21 1136.43 243.66 1142.11 248.95 1143.66 258.25 1136.85 265.29 1127.76 265.29 1121.87 260.11 1120.41 250.92 1123.05 244.21"/><rect class="cls-6" x="1128.77" y="256.1" width="6.55" height="12.46"/><rect class="cls-8" x="152.6" y="574.98" width="1657" height="67.9"/><polygon class="cls-36" points="1811.61 603.29 150.6 588.41 150.6 562.84 1811.61 562.84 1811.61 603.29"/><rect class="cls-8" x="149.6" y="551.44" width="1660" height="21.29"/><path class="cls-36" d="M1073.66,553.68H893.77a14.49,14.49,0,0,1-13.12-8.34l-4.46-9.48h215l-4.46,9.48A14.48,14.48,0,0,1,1073.66,553.68Z"/><rect class="cls-39" x="882.55" y="414.26" width="202.32" height="130.34" rx="8.64"/><circle class="cls-22" cx="983.71" cy="483.61" r="14.38"/><path class="cls-40" d="M561.05,497.06l-.47.23c-4.94,2.36-7.57,2-12.38-.26a50.28,50.28,0,0,1-12.41-7.72c-4.65-4.1-8.25-9.66-9-15.81a5.61,5.61,0,0,1,.66-4c1.12-1.55,3.43-1.78,5.22-1.09a15.83,15.83,0,0,1,4.6,3.36,5.31,5.31,0,0,0,2,1.3,1.92,1.92,0,0,0,2.15-.71c.64-1.13-.46-2.43-1.45-3.26-2.31-1.93-4.48-3-6.9-4.74a22.84,22.84,0,0,1-7.53-8.08c-1.66-3.33-2-7.45-.3-10.74a6.63,6.63,0,0,1,2.21-2.52,7.87,7.87,0,0,1,5.83-.59,57,57,0,0,0,5.85,1.37c4.72.49,6.57-2.83,6.48-7.17-.06-2.91-1-5.73-1.17-8.64-.3-5.11,2.23-10.56,6.86-12.75s11.11-.1,12.76,4.75c1.8,5.27-2.31,11.19.41,16.23a15.53,15.53,0,0,0,4.46,4.87c2.59,1.6,6.32-.29,9.33-.15a2.74,2.74,0,0,1,1.86.6,2.53,2.53,0,0,1,.58,1.35A11.13,11.13,0,0,1,577.36,453c-3.12,2.84-8.52,4.29-9.85,8.73-.82,2.76-.46,9.64,3.93,8.94,1.64-.26,2.75-1.89,4.33-2.43,2-.66,4.19.64,5.07,2.51a7.7,7.7,0,0,1-.15,6c-1.2,3-3.52,5.46-5.78,7.81C570.25,489.43,567.19,494,561.05,497.06Z"/><rect class="cls-6" x="553.17" y="432.93" width="2.71" height="64.13"/><polygon class="cls-6" points="554.52 465.85 541.13 452.46 543.05 450.54 554.52 462.02 566 450.54 567.91 452.46 554.52 465.85"/><polygon class="cls-6" points="554.52 490.82 541.13 477.43 543.05 475.52 554.52 486.99 566 475.52 567.91 477.43 554.52 490.82"/><path class="cls-16" d="M555,551h0a35.27,35.27,0,0,1-35.28-35.28V497.18h70.56v18.51A35.28,35.28,0,0,1,555,551Z"/><path class="cls-41" d="M578.23,497.18v18.51A35.28,35.28,0,0,1,549,550.45a35.27,35.27,0,0,0,41.3-34.76V497.18Z"/><g class="cls-5"><path class="cls-6" d="M1278.8,372.8a11.16,11.16,0,0,0,.9-1.67h7.55l3.94-15.24h-38.31L1248.63,378H1269A11.85,11.85,0,0,0,1278.8,372.8Z"/></g><g class="cls-5"><path class="cls-6" d="M1284.53,374.88a13.17,13.17,0,0,0,.7,4.07l1-4.07Z"/></g><path class="cls-42" d="M1234.4,373.52H1269a11.85,11.85,0,0,0,11.85-11.86h-58.28A11.86,11.86,0,0,0,1234.4,373.52Z"/><path class="cls-43" d="M1234.4,371H1269a11.85,11.85,0,0,0,11.58-9.33h.27A11.85,11.85,0,0,1,1269,373.52H1234.4a11.86,11.86,0,0,1-11.86-11.86h.28A11.85,11.85,0,0,0,1234.4,371Z"/><rect class="cls-6" x="1291.72" y="361.66" width="5.9" height="15.4" transform="translate(2589.35 738.73) rotate(180)"/><rect class="cls-6" x="1306.83" y="375.24" width="5.91" height="15.4" transform="translate(2619.56 765.88) rotate(180)"/><rect class="cls-6" x="1309.78" y="372.43" width="5.91" height="15.4" transform="translate(932.6 1692.87) rotate(-90)"/><path class="cls-6" d="M1213.46,366.63h86.45V351.39H1228.7a15.24,15.24,0,0,0-15.24,15.24Z"/><path class="cls-33" d="M1227.86,357.28a15.24,15.24,0,0,0-14.06,9.35h-.34a15.24,15.24,0,0,1,15.24-15.24h71.21v5.89Z"/><path class="cls-6" d="M1284.53,370.37h29.53v13.52h-16a13.52,13.52,0,0,1-13.52-13.52Z"/><rect class="cls-6" x="1339.85" y="373.33" width="3.89" height="89.09" transform="translate(-16.98 776.7) rotate(-32.09)"/><rect class="cls-6" x="1329.05" y="382.63" width="3.89" height="80.16" transform="translate(-22.05 768.42) rotate(-31.95)"/><rect class="cls-6" x="1287.01" y="492.44" width="89.09" height="3.89" transform="translate(205.36 1359.91) rotate(-57.91)"/><rect class="cls-6" x="1302.28" y="497.28" width="80.16" height="3.89" transform="translate(208.29 1373.88) rotate(-58.04)"/><path class="cls-6" d="M1359.75,460.84a6.34,6.34,0,1,0,6.34-6.34A6.34,6.34,0,0,0,1359.75,460.84Z"/><rect class="cls-6" x="1350.98" y="454.5" width="15.51" height="12.68" transform="translate(2717.46 921.68) rotate(180)"/><path class="cls-33" d="M1344.64,460.84a6.34,6.34,0,1,0,6.34-6.34A6.34,6.34,0,0,0,1344.64,460.84Z"/><circle class="cls-6" cx="1324.45" cy="530.47" r="6.34"/><rect class="cls-6" x="1309.33" y="524.13" width="15.51" height="12.68" transform="translate(2634.18 1060.94) rotate(180)"/><path class="cls-33" d="M1303,530.47a6.34,6.34,0,1,0,6.33-6.34A6.33,6.33,0,0,0,1303,530.47Z"/><path class="cls-6" d="M1280.52,536.19h70.73a0,0,0,0,1,0,0v0a14.51,14.51,0,0,1-14.51,14.51H1295a14.51,14.51,0,0,1-14.51-14.51v0A0,0,0,0,1,1280.52,536.19Z" transform="translate(2631.77 1086.88) rotate(180)"/><path class="cls-20" d="M831.21,152h7.23a2.66,2.66,0,0,0,2.65-2.66v-9.21a2.65,2.65,0,0,0-2.65-2.65h-5.66A2.21,2.21,0,0,1,830.7,136c-.2-.52-.41-1.05-.65-1.56a2.21,2.21,0,0,1,.42-2.51l4-4a2.64,2.64,0,0,0,0-3.74l-6.52-6.52a2.65,2.65,0,0,0-3.74,0l-4,4a2.21,2.21,0,0,1-2.42.46c-.57-.25-1.19-.5-1.73-.7a2.18,2.18,0,0,1-1.38-2v-5.71a2.65,2.65,0,0,0-2.65-2.65h-9.22a2.65,2.65,0,0,0-2.65,2.65v5.66a2.21,2.21,0,0,1-1.48,2.06c-.55.21-1.1.44-1.64.69a2.22,2.22,0,0,1-2.51-.41l-4-4a2.65,2.65,0,0,0-3.75,0l-6.5,6.54a2.64,2.64,0,0,0,0,3.74l4,4a2.2,2.2,0,0,1,.47,2.42c-.24.57-.49,1.19-.7,1.73a2.17,2.17,0,0,1-2,1.39h-5.71a2.65,2.65,0,0,0-2.65,2.66l0,9.21a2.65,2.65,0,0,0,2.65,2.65l5.66,0a2.22,2.22,0,0,1,2.07,1.48q.3.79.66,1.56a2.24,2.24,0,0,1-.41,2.52l-4,4a2.64,2.64,0,0,0,0,3.74l6.53,6.51a2.65,2.65,0,0,0,3.75,0l4-4a2.19,2.19,0,0,1,2.41-.47c.58.25,1.2.5,1.74.7a2.2,2.2,0,0,1,1.38,2v5.71a2.66,2.66,0,0,0,2.66,2.65l9.21,0a2.65,2.65,0,0,0,2.65-2.65v-5.66a2.22,2.22,0,0,1,1.48-2.07c.53-.2,1.05-.42,1.56-.65a2.22,2.22,0,0,1,2.51.41l4,4a2.64,2.64,0,0,0,3.75,0l6.51-6.53a2.64,2.64,0,0,0,0-3.74l-4-4a2.18,2.18,0,0,1-.47-2.41C830.58,153.77,831.18,152.13,831.21,152Zm-36.68-9.59A13.06,13.06,0,1,1,802.67,157,13.07,13.07,0,0,1,794.53,142.44Z"/><path class="cls-8" d="M823.87,144.8a16.49,16.49,0,1,1-16.49-16.49A16.5,16.5,0,0,1,823.87,144.8Z"/><circle class="cls-20" cx="807.38" cy="144.8" r="5.43"/><path class="cls-20" d="M842.65,180.9h-6.77a1.39,1.39,0,1,1,0-2.77h4v-4.46a1.39,1.39,0,1,1,2.78,0Z"/><path class="cls-20" d="M773.93,115.25a1.39,1.39,0,0,1-1.39-1.39v-7.23h6.77a1.39,1.39,0,0,1,0,2.77h-4v4.46A1.38,1.38,0,0,1,773.93,115.25Z"/><rect class="cls-44" x="657.55" y="270.59" width="6.94" height="13.52" transform="translate(-2.51 548.65) rotate(-45)"/><rect class="cls-45" x="664" y="277.26" width="13.54" height="19.19" transform="translate(-6.37 558.33) rotate(-45)"/><path class="cls-20" d="M603.81,220.13a41.6,41.6,0,1,0,58.82,0A41.65,41.65,0,0,0,603.81,220.13Zm52.61,52.62a32.81,32.81,0,1,1,0-46.41A32.85,32.85,0,0,1,656.42,272.75Z"/><path class="cls-46" d="M656.6,226.16a33.07,33.07,0,1,0,0,46.77A33.1,33.1,0,0,0,656.6,226.16Zm-2.23,44.53a29.9,29.9,0,1,1,0-42.29A29.94,29.94,0,0,1,654.37,270.69Z"/><rect class="cls-20" x="664.72" y="279.84" width="6.94" height="19.19" transform="translate(-8.95 557.26) rotate(-45)"/><path class="cls-20" d="M634.94,225.74v23.48l16.56,16.6a23.37,23.37,0,0,0,6.9-16.55v-.07A23.46,23.46,0,0,0,634.94,225.74Z"/><path class="cls-16" d="M614.93,231.44A23.42,23.42,0,0,0,608,248l23.47.06V224.58A23.36,23.36,0,0,0,614.93,231.44Z"/><path class="cls-46" d="M632.66,251.51h0l-23.47-.06v0a23.47,23.47,0,0,0,40,16.62Z"/><path class="cls-47" d="M823.23,227.78v63.71a2.22,2.22,0,0,1-2.22,2.23h-13.4V319.1a1.21,1.21,0,0,1-2.13.78l-27.11-26.16H714.09a2.23,2.23,0,0,1-2.23-2.23V227.78a2.22,2.22,0,0,1,2.23-2.22H821A2.21,2.21,0,0,1,823.23,227.78Z"/><path class="cls-8" d="M811.66,248.67H724.19a2.85,2.85,0,0,1-2.84-2.85h0a2.84,2.84,0,0,1,2.84-2.84h87.47a2.84,2.84,0,0,1,2.84,2.84h0A2.85,2.85,0,0,1,811.66,248.67Z"/><path class="cls-8" d="M811.66,262.82H724.19a2.85,2.85,0,0,1-2.84-2.85h0a2.84,2.84,0,0,1,2.84-2.84h87.47A2.84,2.84,0,0,1,814.5,260h0A2.85,2.85,0,0,1,811.66,262.82Z"/><path class="cls-8" d="M811.66,277H742.4a2.85,2.85,0,0,1-2.84-2.85h0a2.84,2.84,0,0,1,2.84-2.84h69.26a2.84,2.84,0,0,1,2.84,2.84h0A2.85,2.85,0,0,1,811.66,277Z"/><path class="cls-47" d="M1188,108.86v63.71a2.22,2.22,0,0,0,2.22,2.23h13.4v25.38a1.21,1.21,0,0,0,2.13.78l27.11-26.16h64.29a2.23,2.23,0,0,0,2.22-2.23V108.86a2.22,2.22,0,0,0-2.22-2.22H1190.18A2.21,2.21,0,0,0,1188,108.86Z"/><path class="cls-8" d="M1199.53,129.75H1287a2.85,2.85,0,0,0,2.84-2.85h0a2.84,2.84,0,0,0-2.84-2.84h-87.47a2.84,2.84,0,0,0-2.84,2.84h0A2.85,2.85,0,0,0,1199.53,129.75Z"/><path class="cls-8" d="M1199.53,143.9H1287a2.85,2.85,0,0,0,2.84-2.85h0a2.84,2.84,0,0,0-2.84-2.84h-87.47a2.84,2.84,0,0,0-2.84,2.84h0A2.85,2.85,0,0,0,1199.53,143.9Z"/><path class="cls-8" d="M1199.53,158.05h69.26a2.85,2.85,0,0,0,2.84-2.85h0a2.84,2.84,0,0,0-2.84-2.84h-69.26a2.84,2.84,0,0,0-2.84,2.84h0A2.85,2.85,0,0,0,1199.53,158.05Z"/><g class="cls-5"><polygon class="cls-6" points="1267.96 493.05 1263.52 493.05 1226.3 493.05 1221.85 493.05 1204.05 550.7 1208.5 550.7 1231.56 550.7 1245.72 550.7 1250.17 550.7 1258.33 550.7 1265.58 550.7 1258.93 522.3 1267.96 493.05"/></g><polygon class="cls-48" points="1263.74 550.7 1270.99 550.7 1263.74 519.72 1236.97 550.7 1263.74 550.7"/><polygon class="cls-6" points="1255.58 550.7 1213.91 550.7 1231.71 493.05 1273.38 493.05 1255.58 550.7"/><polygon class="cls-33" points="1251.13 550.7 1209.46 550.7 1227.26 493.05 1268.93 493.05 1251.13 550.7"/><polygon class="cls-47" points="1248 543.14 1217.26 543.14 1230.39 500.61 1261.13 500.61 1248 543.14"/><polygon class="cls-49" points="1219.48 542.03 1232.27 500.61 1230.39 500.61 1217.26 543.14 1248 543.14 1248.35 542.03 1219.48 542.03"/><circle class="cls-50" cx="471.79" cy="90.04" r="62.77" transform="translate(-0.03 179.89) rotate(-21.59)"/><rect class="cls-51" x="437.47" y="134.7" width="68.64" height="47.93"/><polygon class="cls-16" points="510.56 185.42 487.73 204.51 453.76 204.51 433.02 185.42 433.02 155.43 510.56 155.43 510.56 185.42"/><rect class="cls-52" x="429.65" y="158.17" width="84.11" height="5.75" rx="1.96"/><rect class="cls-52" x="429.65" y="167.78" width="84.11" height="5.75" rx="1.96"/><rect class="cls-52" x="429.65" y="177.39" width="84.11" height="5.75" rx="1.96"/><path class="cls-6" d="M452.79,203.61H488a0,0,0,0,1,0,0v3.6a7.67,7.67,0,0,1-7.67,7.67H460.46a7.67,7.67,0,0,1-7.67-7.67v-3.6A0,0,0,0,1,452.79,203.61Z"/><path class="cls-42" d="M517.54,90a45.75,45.75,0,1,1-45.75-45.76A45.75,45.75,0,0,1,517.54,90Z"/><circle class="cls-46" cx="1073.26" cy="75.09" r="24.7"/><polygon class="cls-8" points="1069.27 87.33 1058.77 76.84 1064.77 70.84 1069.27 75.34 1081.76 62.85 1087.75 68.84 1069.27 87.33"/><circle class="cls-26" cx="105.25" cy="152.29" r="29.77" transform="translate(-76.86 119.03) rotate(-45)"/><path class="cls-8" d="M121.52,147a9.49,9.49,0,0,0-16.27-6.64,9.49,9.49,0,0,0-13.61,13.22l13.57,13.5,13.92-13.79.54-.68A9.41,9.41,0,0,0,121.52,147Z"/><path class="cls-13" d="M836.22,34.48a23,23,0,1,1-23.05-23A23.05,23.05,0,0,1,836.22,34.48Z"/><path class="cls-8" d="M821.53,47.7l-7.95-4.05a.52.52,0,0,0-.5,0l-7.84,4.25a.53.53,0,0,1-.78-.55l1.4-8.81a.52.52,0,0,0-.16-.47l-6.47-6.14a.53.53,0,0,1,.28-.91l8.82-1.4a.51.51,0,0,0,.39-.29l3.84-8a.53.53,0,0,1,1,0l4.06,8a.52.52,0,0,0,.4.29l8.85,1.17a.53.53,0,0,1,.3.9l-6.31,6.31a.54.54,0,0,0-.14.47l1.62,8.77A.53.53,0,0,1,821.53,47.7Z"/><path class="cls-9" d="M1459.24,21.51A21.51,21.51,0,1,1,1437.73,0,21.51,21.51,0,0,1,1459.24,21.51Z"/><path class="cls-8" d="M1445.53,33.85l-7.42-3.78a.53.53,0,0,0-.46,0l-7.32,4a.5.5,0,0,1-.73-.52l1.3-8.22a.48.48,0,0,0-.14-.44l-6-5.73a.5.5,0,0,1,.26-.85l8.23-1.3a.51.51,0,0,0,.37-.28l3.58-7.51a.5.5,0,0,1,.89,0l3.78,7.42a.5.5,0,0,0,.38.27l8.25,1.09a.49.49,0,0,1,.29.84l-5.89,5.89a.5.5,0,0,0-.13.44l1.51,8.19A.5.5,0,0,1,1445.53,33.85Z"/><circle class="cls-46" cx="1817.55" cy="111.19" r="26.06"/><path class="cls-8" d="M1833.93,111h-.7a2.11,2.11,0,0,0,2.07-2.46,2.19,2.19,0,0,0-2.2-1.75h-9.63a27.43,27.43,0,0,0,1.19-5.88c0-.45-.09-1.89-.18-2.68a1.8,1.8,0,0,0-.6-1.17,1.78,1.78,0,0,0-1.22-.48,1.84,1.84,0,0,0-1.83,1.57c-.24,1.58-.68,3.91-1.35,4.83s-2.91,3.81-2.91,3.81h-2v-1.45a.83.83,0,0,0-.83-.83h-13.13v17.9h13.13a.84.84,0,0,0,.83-.84v-1.2h1.16a1.57,1.57,0,0,1,.68.15,1.47,1.47,0,0,1,.53.36L1819,123a2,2,0,0,0,1.44.6h9.06a2.19,2.19,0,0,0,2.2-1.74,2.1,2.1,0,0,0-2.07-2.46h2.08a2.19,2.19,0,0,0,2.2-1.75,2.11,2.11,0,0,0-2.07-2.46h2.21a2.11,2.11,0,0,0,2.07-2.47A2.19,2.19,0,0,0,1833.93,111Z"/></g></g></svg>
