<svg xmlns="http://www.w3.org/2000/svg" xmlns:xlink="http://www.w3.org/1999/xlink" viewBox="0 0 1921.69 676.21"><defs><style>.cls-1{isolation:isolate;}.cls-2{opacity:0.47;}.cls-3{fill:#e0e4f0;}.cls-4{opacity:0.5;}.cls-5{fill:#d1ddff;}.cls-6{fill:#c8c8c8;opacity:0.23;mix-blend-mode:multiply;}.cls-7{fill:#fff;}.cls-8{fill:#ffcebd;}.cls-9{fill:#536dfe;}.cls-10{fill:#ff65a7;}.cls-11{fill:#ccccd1;}.cls-12{fill:#b9b8f1;}.cls-13{fill:#4568af;}.cls-14{fill:#f1f2f2;}.cls-15{fill:#f5f7f9;}.cls-16{fill:#e6e7e8;}.cls-17{fill:#fffffe;}.cls-18{fill:url(#linear-gradient);}.cls-19{fill:#bebcba;}.cls-20{fill:url(#linear-gradient-2);}.cls-21{fill:#191c3c;}.cls-22{fill:url(#linear-gradient-3);}.cls-23{fill:url(#linear-gradient-4);}.cls-24{fill:#4d5068;}.cls-25{fill:url(#linear-gradient-5);}.cls-26{fill:#272834;}.cls-27{fill:#fedfaa;}.cls-28{fill:#feca71;}.cls-29{fill:#fcd991;}.cls-30{fill:#474963;}.cls-31{opacity:0.3;}.cls-32{fill:#464873;}.cls-33{fill:#575a8f;}.cls-34{opacity:0.09;}.cls-35{fill:#f7f9fa;}.cls-36{fill:#fec55e;}.cls-37{opacity:0.04;}.cls-38{fill:url(#linear-gradient-6);}.cls-39{fill:#e5e4e3;}.cls-40{fill:#f9f9fb;}.cls-41{fill:#e5e9ff;}.cls-42{fill:url(#linear-gradient-7);}.cls-43{fill:url(#linear-gradient-8);}.cls-44{fill:url(#linear-gradient-9);}.cls-45{fill:#566cd3;}.cls-46{fill:#4563cc;}.cls-47{fill:url(#linear-gradient-10);}.cls-48{fill:#bf9447;}.cls-49{fill:url(#linear-gradient-11);}.cls-50{fill:#8edef2;}.cls-51{fill:url(#linear-gradient-12);}.cls-52{fill:#e5e8f0;}.cls-53{fill:#8184c4;}.cls-54{fill:#678dc9;}</style><linearGradient id="linear-gradient" x1="974.03" y1="151.17" x2="1292.83" y2="151.17" gradientUnits="userSpaceOnUse"><stop offset="0" stop-color="#fec55e"/><stop offset="1" stop-color="#ffa000"/></linearGradient><linearGradient id="linear-gradient-2" x1="1125.69" y1="281.25" x2="1152.77" y2="281.25" xlink:href="#linear-gradient"/><linearGradient id="linear-gradient-3" x1="1061.35" y1="447.64" x2="1097.55" y2="447.64" xlink:href="#linear-gradient"/><linearGradient id="linear-gradient-4" x1="979.82" y1="486.81" x2="1016.02" y2="486.81" xlink:href="#linear-gradient"/><linearGradient id="linear-gradient-5" x1="1125.69" y1="450.97" x2="1152.77" y2="450.97" xlink:href="#linear-gradient"/><linearGradient id="linear-gradient-6" x1="140.8" y1="252.9" x2="273.36" y2="252.9" xlink:href="#linear-gradient"/><linearGradient id="linear-gradient-7" x1="397.02" y1="422.22" x2="409.23" y2="422.22" xlink:href="#linear-gradient"/><linearGradient id="linear-gradient-8" x1="345.53" y1="425.21" x2="357.74" y2="425.21" xlink:href="#linear-gradient"/><linearGradient id="linear-gradient-9" x1="172.29" y1="425.43" x2="275.16" y2="425.43" xlink:href="#linear-gradient"/><linearGradient id="linear-gradient-10" x1="441.87" y1="635.08" x2="522.46" y2="635.08" xlink:href="#linear-gradient"/><linearGradient id="linear-gradient-11" x1="450.49" y1="635.08" x2="513.84" y2="635.08" xlink:href="#linear-gradient"/><linearGradient id="linear-gradient-12" x1="764.97" y1="578.72" x2="857.66" y2="578.72" xlink:href="#linear-gradient"/></defs><title>Work</title><g class="cls-1"><g id="Layer_2" data-name="Layer 2"><g id="Layer_1-2" data-name="Layer 1"><g class="cls-2"><path class="cls-3" d="M1073.69,676.21a520.54,520.54,0,0,0-45-212.34A164.78,164.78,0,0,0,831.37,235.09a520.12,520.12,0,0,0-280.25-81.45q-19.27,0-38.2,1.38A134.6,134.6,0,0,0,306.23,214.5a524.6,524.6,0,0,0-109,77.23,149.18,149.18,0,0,0-148.47,240A523,523,0,0,0,28.54,676.21Z"/></g><g class="cls-2"><path class="cls-3" d="M1921.69,676.21a520.54,520.54,0,0,0-45-212.34,164.78,164.78,0,0,0-197.34-228.78,520.12,520.12,0,0,0-280.25-81.45q-19.27,0-38.2,1.38a134.6,134.6,0,0,0-206.69,59.48,524.6,524.6,0,0,0-109,77.23,149.18,149.18,0,0,0-148.47,240,523,523,0,0,0-20.23,144.43Z"/></g><g class="cls-2"><path class="cls-3" d="M508,676.21c0-132.81-107.67-240.47-240.48-240.47S27.09,543.4,27.09,676.21Z"/></g><g class="cls-2"><path class="cls-3" d="M952.05,676.21c0-132.81-107.67-240.47-240.48-240.47S471.1,543.4,471.1,676.21Z"/></g><g class="cls-2"><path class="cls-3" d="M1440.87,676.21c0-132.81-107.66-240.47-240.48-240.47S959.92,543.4,959.92,676.21Z"/></g><g class="cls-2"><path class="cls-3" d="M1921.69,676.21c0-132.81-107.66-240.47-240.47-240.47S1440.74,543.4,1440.74,676.21Z"/></g><g class="cls-4"><circle class="cls-3" cx="720.44" cy="140.14" r="15.82" transform="translate(419.23 809.43) rotate(-76.78)"/></g><g class="cls-4"><circle class="cls-3" cx="1360.44" cy="89.14" r="15.82" transform="translate(962.49 1393.13) rotate(-76.78)"/></g><g class="cls-4"><path class="cls-3" d="M453.92,78.87a20.49,20.49,0,1,1-20.49-20.48A20.5,20.5,0,0,1,453.92,78.87Z"/></g><g class="cls-4"><path class="cls-3" d="M1512.92,93.87a20.49,20.49,0,1,1-20.49-20.48A20.5,20.5,0,0,1,1512.92,93.87Z"/></g><g class="cls-4"><path class="cls-3" d="M1147.92,163.87a20.49,20.49,0,1,1-20.49-20.48A20.5,20.5,0,0,1,1147.92,163.87Z"/></g><g class="cls-4"><path class="cls-3" d="M216.25,213a10.44,10.44,0,1,1-10.44-10.44A10.43,10.43,0,0,1,216.25,213Z"/></g><g class="cls-4"><circle class="cls-3" cx="310.45" cy="136.31" r="10.44" transform="translate(163.64 441.93) rotate(-88.05)"/></g><g class="cls-4"><circle class="cls-3" cx="1751.45" cy="164.31" r="10.44" transform="translate(1532.11 1909.71) rotate(-88.2)"/></g><g class="cls-4"><path class="cls-3" d="M816.57,161.9a9.31,9.31,0,1,1-9.31-9.31A9.31,9.31,0,0,1,816.57,161.9Z"/></g><g class="cls-4"><path class="cls-3" d="M517.91,87.27a3.22,3.22,0,1,1-3.21-3.21A3.22,3.22,0,0,1,517.91,87.27Z"/></g><g class="cls-4"><circle class="cls-3" cx="247" cy="171.31" r="4.19"/></g><g class="cls-4"><path class="cls-3" d="M101.2,262.46a5.57,5.57,0,1,1-5.56-5.57A5.56,5.56,0,0,1,101.2,262.46Z"/></g><g class="cls-4"><path class="cls-3" d="M559.58,101.28A5.57,5.57,0,1,1,554,95.71,5.57,5.57,0,0,1,559.58,101.28Z"/></g><g class="cls-4"><path class="cls-3" d="M1222.58,92.28a5.57,5.57,0,1,1-5.57-5.57A5.57,5.57,0,0,1,1222.58,92.28Z"/></g><g class="cls-4"><circle class="cls-3" cx="151.11" cy="245.01" r="23.62" transform="translate(-114.94 354.92) rotate(-80.78)"/></g><g class="cls-4"><circle class="cls-3" cx="1024.11" cy="219.01" r="23.62" transform="translate(643.88 1194.82) rotate(-80.78)"/></g><g class="cls-4"><path class="cls-3" d="M26.12,520.65a5.57,5.57,0,1,1-5.57-5.57A5.56,5.56,0,0,1,26.12,520.65Z"/></g><g class="cls-4"><circle class="cls-3" cx="634.33" cy="124.89" r="22.89"/></g><g class="cls-4"><circle class="cls-3" cx="1628.33" cy="125.89" r="22.89"/></g><g class="cls-4"><circle class="cls-3" cx="899.33" cy="181.89" r="22.89"/></g><g class="cls-4"><circle class="cls-3" cx="18.12" cy="322.52" r="18.12" transform="translate(-122.04 31.48) rotate(-22.5)"/></g><g class="cls-4"><path class="cls-3" d="M1859.25,228a10.44,10.44,0,1,1-10.44-10.44A10.43,10.43,0,0,1,1859.25,228Z"/></g><path class="cls-5" d="M1639,642.8v-45h-99.24v45c0,18.39-67.48,33.27-67.48,33.27h234.2S1639,661.19,1639,642.8Z"/><path class="cls-6" d="M1639,636.91v-34.4h-99.24v34.4Z"/><path class="cls-5" d="M1813.93,290H1364.74a14.27,14.27,0,0,0-14.1,14.43V589.49H1828v-285A14.27,14.27,0,0,0,1813.93,290Z"/><rect class="cls-7" x="1373.56" y="311.23" width="432.13" height="256.87"/><path class="cls-5" d="M1350.64,586.67v18.5a14.27,14.27,0,0,0,14.1,14.43h449.19a14.27,14.27,0,0,0,14.1-14.43v-18.5Z"/><path class="cls-8" d="M1687.82,342.29a11.93,11.93,0,0,1-5.2,16L1632.33,384a11.92,11.92,0,0,1-16-5.21h0a11.92,11.92,0,0,1,5.2-16l50.29-25.65a11.92,11.92,0,0,1,16,5.21Z"/><rect class="cls-9" x="1667.74" y="242.39" width="23.99" height="217.63"/><path class="cls-8" d="M1709.57,389.33A10.9,10.9,0,0,0,1699,378.44a10.9,10.9,0,0,0-.32-21.79H1654a87.65,87.65,0,0,0-39.54,9.73l-4.43,2.29V443.8h88.63A10.9,10.9,0,0,0,1699,422a10.89,10.89,0,0,0,0-21.78A10.89,10.89,0,0,0,1709.57,389.33Z"/><rect class="cls-5" x="1401.39" y="364.85" width="211.01" height="81.23"/><polygon class="cls-10" points="1716.23 162.95 1716.23 228.58 1778.8 245.68 1778.8 145.85 1716.23 162.95"/><rect class="cls-11" x="1643.24" y="149.58" width="73" height="92.81" rx="13.1"/><path class="cls-7" d="M1662.57,211.64a16.26,16.26,0,1,0,16.26-16.25A16.26,16.26,0,0,0,1662.57,211.64Z"/><path class="cls-12" d="M1672.11,211.64a6.72,6.72,0,1,0,6.72-6.71A6.72,6.72,0,0,0,1672.11,211.64Z"/><rect class="cls-7" x="1656.8" y="161.67" width="43.8" height="7.11" rx="3.52"/><rect class="cls-7" x="1656.8" y="175.22" width="43.8" height="7.11" rx="3.52"/><rect class="cls-12" x="1601.9" y="182.51" width="15.27" height="27.99"/><path class="cls-9" d="M1626.86,222.57h16.38V169.39h-16.38a9.69,9.69,0,0,0-9.69,9.69v33.8A9.69,9.69,0,0,0,1626.86,222.57Z"/><path class="cls-11" d="M1797.63,216.34a21,21,0,0,0,.09-41.91c-.12,0-.09,0-.09,0v41.88S1797.5,216.34,1797.63,216.34Z"/><rect class="cls-9" x="1778.8" y="132.9" width="18.77" height="126.18" rx="9.29"/><path class="cls-7" d="M899,2.12h464.81a13.65,13.65,0,0,1,13.65,13.65V676a0,0,0,0,1,0,0H885.38a0,0,0,0,1,0,0V15.77A13.65,13.65,0,0,1,899,2.12Z"/><path class="cls-13" d="M899,0h464.81a13.65,13.65,0,0,1,13.65,13.65V33.17a0,0,0,0,1,0,0H885.38a0,0,0,0,1,0,0V13.65A13.65,13.65,0,0,1,899,0Z"/><path class="cls-7" d="M933.46,18.71a4.33,4.33,0,1,1-4.33-4.33A4.32,4.32,0,0,1,933.46,18.71Z"/><path class="cls-7" d="M949.67,18.71a4.33,4.33,0,1,1-4.32-4.33A4.31,4.31,0,0,1,949.67,18.71Z"/><path class="cls-7" d="M965.88,18.71a4.33,4.33,0,1,1-4.32-4.33A4.31,4.31,0,0,1,965.88,18.71Z"/><rect class="cls-14" x="1113.69" y="255.23" width="179.15" height="47"/><rect class="cls-15" x="1113.69" y="534.23" width="179.15" height="129.59"/><rect class="cls-16" x="979.82" y="631.11" width="110.28" height="32.7" transform="translate(2069.91 1294.93) rotate(180)"/><rect class="cls-14" x="1113.69" y="380.56" width="179.15" height="23.5"/><rect class="cls-17" x="1152.77" y="388.39" width="120.46" height="7.83"/><rect class="cls-18" x="974.03" y="90.27" width="318.81" height="121.81"/><rect class="cls-5" x="885.38" y="33.17" width="492.1" height="57.1"/><path class="cls-17" d="M1027.59,78.29H985.72a3,3,0,0,1-3-3h0a3,3,0,0,1,3-3h41.87a3,3,0,0,1,3,3h0A3,3,0,0,1,1027.59,78.29Z"/><path class="cls-17" d="M1097.57,78.29h-50.82a3,3,0,0,1-3-3h0a3,3,0,0,1,3-3h50.82a3,3,0,0,1,3,3h0A3,3,0,0,1,1097.57,78.29Z"/><path class="cls-17" d="M1167.54,78.29h-50.81a3,3,0,0,1-3-3h0a3,3,0,0,1,3-3h50.81a3,3,0,0,1,3,3h0A3,3,0,0,1,1167.54,78.29Z"/><path class="cls-17" d="M1237.52,78.29H1186.7a3,3,0,0,1-3-3h0a3,3,0,0,1,3-3h50.82a3,3,0,0,1,3,3h0A3,3,0,0,1,1237.52,78.29Z"/><path class="cls-17" d="M1289.79,78.29h-33.11a3,3,0,0,1-3-3h0a3,3,0,0,1,3-3h33.11a3,3,0,0,1,3,3h0A3,3,0,0,1,1289.79,78.29Z"/><rect class="cls-19" x="999.08" y="171.89" width="80.37" height="80.37"/><rect class="cls-15" x="1006.37" y="179.18" width="65.79" height="65.79"/><rect class="cls-20" x="1125.69" y="267.7" width="27.09" height="27.09"/><rect class="cls-9" x="979.82" y="390.37" width="36.2" height="36.2"/><rect class="cls-14" x="1020.58" y="390.37" width="36.2" height="36.2"/><rect class="cls-10" x="1061.35" y="390.37" width="36.2" height="36.2"/><rect class="cls-10" x="979.82" y="429.54" width="36.2" height="36.2"/><rect class="cls-21" x="1020.58" y="429.54" width="36.2" height="36.2"/><rect class="cls-22" x="1061.35" y="429.54" width="36.2" height="36.2"/><rect class="cls-23" x="979.82" y="468.71" width="36.2" height="36.2"/><rect class="cls-14" x="1020.58" y="468.71" width="36.2" height="36.2"/><rect class="cls-10" x="1061.35" y="468.71" width="36.2" height="36.2"/><path class="cls-16" d="M1087.7,272.5H982.22a2.39,2.39,0,0,1-2.4-2.4h0a2.4,2.4,0,0,1,2.4-2.4H1087.7a2.4,2.4,0,0,1,2.39,2.4h0A2.39,2.39,0,0,1,1087.7,272.5Z"/><path class="cls-24" d="M1186.49,274.9h-18.35a2.4,2.4,0,0,1-2.39-2.4h0a2.39,2.39,0,0,1,2.39-2.4h18.35a2.39,2.39,0,0,1,2.39,2.4h0A2.4,2.4,0,0,1,1186.49,274.9Z"/><path class="cls-24" d="M1218.49,287.37h-50.35a2.4,2.4,0,0,1-2.39-2.4h0a2.39,2.39,0,0,1,2.39-2.4h50.35a2.39,2.39,0,0,1,2.39,2.4h0A2.4,2.4,0,0,1,1218.49,287.37Z"/><path class="cls-16" d="M1290.44,317.91H1127.6a2.4,2.4,0,0,1-2.4-2.4h0a2.4,2.4,0,0,1,2.4-2.39h162.84a2.39,2.39,0,0,1,2.39,2.39h0A2.39,2.39,0,0,1,1290.44,317.91Z"/><path class="cls-16" d="M1174.92,329.9H1127.6a2.4,2.4,0,0,1-2.4-2.4h0a2.41,2.41,0,0,1,2.4-2.4h47.32a2.4,2.4,0,0,1,2.39,2.4h0A2.39,2.39,0,0,1,1174.92,329.9Z"/><path class="cls-9" d="M1145.24,343.33H1127.6a2.41,2.41,0,0,1-2.4-2.4h0a2.4,2.4,0,0,1,2.4-2.4h17.64a2.39,2.39,0,0,1,2.4,2.4h0A2.4,2.4,0,0,1,1145.24,343.33Z"/><rect class="cls-14" x="1113.69" y="424.95" width="179.15" height="47"/><rect class="cls-25" x="1125.69" y="437.42" width="27.09" height="27.09"/><path class="cls-24" d="M1186.49,444.62h-18.35a2.4,2.4,0,0,1-2.39-2.4h0a2.39,2.39,0,0,1,2.39-2.4h18.35a2.39,2.39,0,0,1,2.39,2.4h0A2.4,2.4,0,0,1,1186.49,444.62Z"/><path class="cls-24" d="M1218.49,457.08h-50.35a2.39,2.39,0,0,1-2.39-2.39h0a2.39,2.39,0,0,1,2.39-2.4h50.35a2.39,2.39,0,0,1,2.39,2.4h0A2.39,2.39,0,0,1,1218.49,457.08Z"/><path class="cls-16" d="M1290.44,487.63H1127.6a2.4,2.4,0,0,1-2.4-2.4h0a2.41,2.41,0,0,1,2.4-2.4h162.84a2.4,2.4,0,0,1,2.39,2.4h0A2.39,2.39,0,0,1,1290.44,487.63Z"/><path class="cls-16" d="M1174.92,499.62H1127.6a2.41,2.41,0,0,1-2.4-2.4h0a2.41,2.41,0,0,1,2.4-2.4h47.32a2.4,2.4,0,0,1,2.39,2.4h0A2.4,2.4,0,0,1,1174.92,499.62Z"/><path class="cls-9" d="M1145.24,513.05H1127.6a2.41,2.41,0,0,1-2.4-2.4h0a2.4,2.4,0,0,1,2.4-2.4h17.64a2.39,2.39,0,0,1,2.4,2.4h0A2.4,2.4,0,0,1,1145.24,513.05Z"/><path class="cls-16" d="M1087.7,289.76H982.22a2.39,2.39,0,0,1-2.4-2.39h0a2.39,2.39,0,0,1,2.4-2.4H1087.7a2.39,2.39,0,0,1,2.39,2.4h0A2.39,2.39,0,0,1,1087.7,289.76Z"/><path class="cls-16" d="M1087.7,536.62H982.22a2.39,2.39,0,0,1-2.4-2.39h0a2.39,2.39,0,0,1,2.4-2.4H1087.7a2.39,2.39,0,0,1,2.39,2.4h0A2.39,2.39,0,0,1,1087.7,536.62Z"/><path class="cls-16" d="M1087.7,559.35H982.22a2.39,2.39,0,0,1-2.4-2.4h0a2.39,2.39,0,0,1,2.4-2.39H1087.7a2.39,2.39,0,0,1,2.39,2.39h0A2.39,2.39,0,0,1,1087.7,559.35Z"/><path class="cls-16" d="M1087.7,582.08H982.22a2.4,2.4,0,0,1-2.4-2.4h0a2.39,2.39,0,0,1,2.4-2.4H1087.7a2.39,2.39,0,0,1,2.39,2.4h0A2.4,2.4,0,0,1,1087.7,582.08Z"/><path class="cls-16" d="M1049.33,604.8H982.22a2.39,2.39,0,0,1-2.4-2.4h0a2.39,2.39,0,0,1,2.4-2.39h67.11a2.39,2.39,0,0,1,2.4,2.39h0A2.39,2.39,0,0,1,1049.33,604.8Z"/><path class="cls-16" d="M1049.33,307H982.22a2.4,2.4,0,0,1-2.4-2.4h0a2.39,2.39,0,0,1,2.4-2.4h67.11a2.39,2.39,0,0,1,2.4,2.4h0A2.4,2.4,0,0,1,1049.33,307Z"/><path class="cls-16" d="M1047.62,369.84H983.93a4.11,4.11,0,0,1-4.11-4.11h0a4.12,4.12,0,0,1,4.11-4.12h63.69a4.12,4.12,0,0,1,4.11,4.12h0A4.11,4.11,0,0,1,1047.62,369.84Z"/><path class="cls-9" d="M1142.4,392.31a5.42,5.42,0,1,1-5.42-5.42A5.42,5.42,0,0,1,1142.4,392.31Z"/><path class="cls-24" d="M1053.86,225.36h-31.45a7.78,7.78,0,0,1,7.78-7.79h15.89a7.78,7.78,0,0,1,7.78,7.79Z"/><path class="cls-26" d="M1046.08,217.57h-15.89a7.77,7.77,0,0,0-5.64,2.43,7.77,7.77,0,0,0,5.64,2.43h15.89a7.75,7.75,0,0,0,5.63-2.43A7.75,7.75,0,0,0,1046.08,217.57Z"/><path class="cls-15" d="M1059.81,245h-43.1v-5a21.55,21.55,0,0,1,21.55-21.55h0a21.55,21.55,0,0,1,21.55,21.55Z"/><path class="cls-24" d="M1043.61,219.05V245h16.2v-5A21.56,21.56,0,0,0,1043.61,219.05Z"/><path class="cls-24" d="M1032.91,219.05V245h-16.2v-5A21.57,21.57,0,0,1,1032.91,219.05Z"/><path class="cls-27" d="M1038.35,232.75h0a5.27,5.27,0,0,1-5.26-5.26v-11.1h10.52v11.1A5.26,5.26,0,0,1,1038.35,232.75Z"/><path class="cls-28" d="M1038.12,216.39h-5v11.1a5.27,5.27,0,0,0,5,5.25Z"/><path class="cls-29" d="M1037.91,184.41a12.82,12.82,0,0,0-12.82,12.81V209a12.79,12.79,0,0,0,5.13,10.24,7.7,7.7,0,0,0,14.74.46,12.82,12.82,0,0,0,5.76-10.7V197.22A12.82,12.82,0,0,0,1037.91,184.41Z"/><path class="cls-29" d="M1026.94,202.23a1.85,1.85,0,1,1-1.85-1.84A1.85,1.85,0,0,1,1026.94,202.23Z"/><path class="cls-29" d="M1052.57,202.23a1.85,1.85,0,1,1-1.85-1.84A1.85,1.85,0,0,1,1052.57,202.23Z"/><path class="cls-21" d="M1040.8,193.55h-15.19a12.93,12.93,0,0,1,12.94-12.93h15.18A12.93,12.93,0,0,1,1040.8,193.55Z"/><path class="cls-30" d="M1042.42,180.62v.91a12,12,0,0,1-12,12h6.87a12,12,0,0,0,12-12v-.91Z"/><path class="cls-7" d="M1030.4,241.4h0a.63.63,0,0,1-.63-.63V222.1a.63.63,0,0,1,.63-.63h0a.63.63,0,0,1,.63.63v18.67A.63.63,0,0,1,1030.4,241.4Z"/><path class="cls-7" d="M1045.91,241.4h0a.63.63,0,0,1-.63-.63V222.1a.63.63,0,0,1,.63-.63h0a.63.63,0,0,1,.63.63v18.67A.63.63,0,0,1,1045.91,241.4Z"/><rect class="cls-7" x="1324.22" y="10.35" width="14.53" height="4.03"/><rect class="cls-7" x="1324.23" y="16.69" width="14.53" height="4.03"/><rect class="cls-7" x="1324.24" y="23.03" width="14.53" height="4.03"/><rect class="cls-13" x="1006.88" y="42.85" width="280.12" height="9.82"/><path class="cls-10" d="M1424.34,324.45l13-7.52V301.84a2,2,0,0,1,2-2h121.22a2,2,0,0,1,2,2v47.63a2,2,0,0,1-2,2H1439.34a2,2,0,0,1-2-2V334.38l-13-7.52A1.39,1.39,0,0,1,1424.34,324.45Z"/><rect class="cls-7" x="1447.97" y="309.33" width="32.65" height="32.65" rx="2.72"/><path class="cls-7" d="M1550.35,318.14h-55.94c-1.2,0-2.17-1.4-2.17-3.13h0c0-1.73,1-3.13,2.17-3.13h55.94c1.2,0,2.18,1.4,2.18,3.13h0C1552.53,316.74,1551.55,318.14,1550.35,318.14Z"/><path class="cls-7" d="M1550.35,330.22h-55.94c-1.2,0-2.17-1.4-2.17-3.13h0c0-1.72,1-3.12,2.17-3.12h55.94c1.2,0,2.18,1.4,2.18,3.12h0C1552.53,328.82,1551.55,330.22,1550.35,330.22Z"/><path class="cls-7" d="M1531.65,342.3h-37.24c-1.2,0-2.17-1.4-2.17-3.12h0c0-1.73,1-3.13,2.17-3.13h37.24c1.2,0,2.17,1.4,2.17,3.13h0C1533.82,340.9,1532.85,342.3,1531.65,342.3Z"/><rect class="cls-21" x="1303.18" y="388.2" width="2.64" height="46.84" rx="1.27" transform="translate(91.02 1042.98) rotate(-45)"/><rect class="cls-8" x="1389.76" y="332.9" width="19.56" height="20.31" transform="translate(-19.88 591.34) rotate(-23.69)"/><g class="cls-31"><polygon class="cls-21" points="1405.14 331.48 1392.1 350.35 1386.51 337.69 1404.42 329.83 1405.14 331.48"/></g><path class="cls-8" d="M1405.31,331.93l-22.21,18.18a10.28,10.28,0,0,1-13.42-4.2l-2.47-4.36-3,1.14a2.06,2.06,0,0,1-2.78-1.66l-1.22-9.64a4.87,4.87,0,0,1,.52-2.88l1.93-3.7-3.77-8.59c-.36-.83,0-5.88.78-6.24l31.7-9.8Z"/><polygon class="cls-8" points="1364.2 664.57 1335.06 664.57 1345.62 657.26 1347.97 650.49 1364.2 650.49 1364.2 664.57"/><polygon class="cls-8" points="1454.24 651.14 1428.9 663.77 1433.95 651.96 1432.34 644.98 1446.09 636.34 1454.24 651.14"/><path class="cls-32" d="M1402,485s2,66.35,0,70.27c0,0,31.56,38.47,46.82,83.7l-16.25,8.89-58-84.69L1385.91,485Z"/><g class="cls-31"><path class="cls-21" d="M1384.35,567.75s14.08-63.76,14.47-68.45c.11-1.29,1.5-2.74,3.4-4.4-.15-6-.27-9.95-.27-9.95h-16l-11.34,78.17,20.85,30.31C1395.55,589.56,1384.78,570.6,1384.35,567.75Z"/></g><path class="cls-33" d="M1355.88,477.22l-3.32,89.45L1346,654.25h19.56s17.61-63.42,14.09-86.5c0,0,14.08-63.76,14.47-68.45s17.6-11.35,15.45-23.67l-12.52-11-38.53,4.12Z"/><g class="cls-34"><path class="cls-35" d="M1361.75,477.22l2.65-8.44,33.3-3.56-.64-.56-38.53,4.12-2.65,8.44-3.32,89.45L1346,654.25h5.87c.52-7,.93-13.84.91-20.77,0-5.52,1-11,.84-16.6,0-3.64-.77-7.53-.4-11.1.42-4.11,2.2-8.49,3.25-12.5a71.78,71.78,0,0,0,2.59-13.51c.34-5.72-.71-11.42-1.32-17.11-.76-7-.87-14.09-1-21.15-.07-4.65,1.08-8.47,1.81-12.91.83-5.12.19-10.75.43-15.93.35-7.56,1.69-15,2.26-22.49C1361.56,486.28,1360.57,481,1361.75,477.22Z"/></g><path class="cls-8" d="M1420,390l12.07,20.45a8.52,8.52,0,0,1-1.56,10.59l-20,18.42-10.17-12.91Z"/><g class="cls-31"><path class="cls-21" d="M1409.58,475.63l-12.52-11-38.53,4.12-2.65,8.44-.13,1.17c21.43-4.53,43.86,7.21,52.55,5.09A12.22,12.22,0,0,0,1409.58,475.63Z"/></g><g class="cls-31"><path class="cls-21" d="M1420,390l-19.64,36.55,10.17,12.9,6.42-5.91c3.15-15.46,7.66-34,7.66-34,.15-.36.27-.69.41-1.05Z"/></g><path class="cls-24" d="M1410.56,342.43a17.56,17.56,0,0,0,3.91,5.48c2.35,1.95,14.48,14.08,13.69,23.47,0,0,2,5.48-7,28.16,0,0-11.73,48.12-10.56,54s6.28,28.16,6.28,28.16-33.56-14.28-68.09-3.87c0,0,7.72-43.32,8.22-51.28,0,0,17.6-59.07,28.87-68.21Z"/><path class="cls-7" d="M1411.73,343.6l-1.56-7S1389.83,346,1386.7,353l-2,12.13S1400.78,346.34,1411.73,343.6Z"/><path class="cls-21" d="M1453.85,645.56l5.77,11.08a4,4,0,0,1-2.26,5.63L1421,674.61h-16.45a8,8,0,0,1-2.34-3.81L1421,662l8.49-11.73,8,5.57,11.31-3.81Z"/><path class="cls-7" d="M1460.08,655.25l1.86,3.25a2.34,2.34,0,0,1-1.1,3.31l-35.74,14.27h-17.6a5.28,5.28,0,0,1-5.28-5.28h24.64Z"/><path class="cls-21" d="M1366.65,655.62v12.84a4.33,4.33,0,0,1-4.33,4.33h-40.56l-17-2.94h0a8.88,8.88,0,0,1,5.56-5.15l17.62-5.56,13.2-8.65,5,10.56h14.63Z"/><path class="cls-7" d="M1304.74,669.85h63.08a0,0,0,0,1,0,0v1.52a4.64,4.64,0,0,1-4.64,4.64h-52.53a5.91,5.91,0,0,1-5.91-5.91v-.25A0,0,0,0,1,1304.74,669.85Z"/><rect class="cls-7" x="1328.93" y="658.09" width="2.25" height="3.38" transform="translate(-153.26 724.02) rotate(-28.86)"/><rect class="cls-7" x="1332.77" y="655.56" width="2.25" height="3.38" transform="translate(-151.57 725.55) rotate(-28.86)"/><rect class="cls-7" x="1332.77" y="655.56" width="2.25" height="3.38" transform="translate(-151.57 725.55) rotate(-28.86)"/><rect class="cls-7" x="1336.6" y="653.04" width="2.25" height="3.38" transform="translate(-149.87 727.09) rotate(-28.86)"/><rect class="cls-7" x="1422.45" y="659.55" width="2.25" height="3.14" transform="translate(81.84 1475.6) rotate(-56.17)"/><rect class="cls-7" x="1425.53" y="655.44" width="2.25" height="3.14" transform="translate(86.54 1476.21) rotate(-56.16)"/><rect class="cls-7" x="1428.61" y="651.32" width="2.25" height="3.14" transform="translate(91.32 1476.93) rotate(-56.16)"/><path class="cls-36" d="M1357.76,297.72l.09,0a10.76,10.76,0,0,0,2.65-1.32,15.7,15.7,0,0,0,1.57-1.87,25.09,25.09,0,0,1,3.47-2.73c1.53-1.22,2.65-2.11,4.7-2.39s4.21,0,6.29-.31c3.65-.47,7.33-2.49,10.8-1.28,2.51.87,4.16,3.23,5.63,5.44a86.3,86.3,0,0,1,8.08,14c1.9,4.5,1.5,9.93,2,14.79a8.7,8.7,0,0,1-.14,3.56c-.44,1.35-1.54,2.54-1.4,4-.16-1.59-2.66-4.34-3.38-5.91-.8-1.73-1.31-3.25-3.36-3.88-1-.3-2.15-.32-2.89-1A4.08,4.08,0,0,1,1391,317a8.71,8.71,0,0,0-1.48-2.89,3.46,3.46,0,0,0-2.85-1.33,1.65,1.65,0,0,0-1.13.51c-.14.16-.24.36-.38.52-.42.45-1.12.45-1.66.72-2.39,1.22-.27,4.93-.24,6.85,0,2.08-1,4.43-3,4.87a23.55,23.55,0,0,0-1.8-4.62c-1.67-2.92-4.51-4.93-7.26-6.85l-4.08-2.85a4.72,4.72,0,0,0-2.67-1.13,3.9,3.9,0,0,0-3,2.11c-2.11,3.37-6.35,7.25-10.43,3.76a7.3,7.3,0,0,1-2.25-5.61c0-3.14,1.49-4.42,3.06-6.81C1353.59,301.52,1354.58,299.16,1357.76,297.72Z"/><g class="cls-31"><path class="cls-21" d="M1385.13,441.22l18.37-32.61-16.9-7.11-8.2,14.5-18.54,1.26c-1.8,5.62-2.89,9.28-2.89,9.28-.12,1.89-.65,5.79-1.38,10.61Z"/></g><g class="cls-37"><path class="cls-35" d="M1428.16,371.38c.79-9.39-11.34-21.52-13.69-23.47a17.56,17.56,0,0,1-3.91-5.48l-2.44,1.57a15,15,0,0,0,1,4.85c.66,2.11,1.25,4.47.29,6.46-1.56,3.28-6.24,3.71-8.46,6.58-2.33,3-1.09,7.35.31,10.89,2.58,6.51,5.41,13.73,2.94,20.28-.6,1.61-1.52,3.12-1.76,4.82-.68,4.89,4.34,9,4.34,13.93s-5,8.53-6.56,13.3c-1.82,5.6,1.46,11.51,1.59,17.4.11,4.75-1.85,9.39-1.58,14.13a33.59,33.59,0,0,0,2.29,8.91c1.44,4.16,2.67,8.38,3.74,12.65,2.11.57,3.93,1.13,5.46,1.63.1-.39.19-.77.25-1.13l1.77-10.84c-1.29-5.75-2.61-11.7-3.14-14.33-1.17-5.87,10.56-54,10.56-54C1430.12,376.86,1428.16,371.38,1428.16,371.38Z"/></g><path class="cls-8" d="M1386,400.45l-7.56,14.74-51.63,3.52-1.36-2.84a7,7,0,0,0-6-4l-15.86-.78a1.9,1.9,0,0,0-2,1.89h0a1.88,1.88,0,0,0,1.73,1.88l4.92.44-.19,2-2,.39-.07,1.24a5.57,5.57,0,0,0,1.39,4l.69.78a3.89,3.89,0,0,1,1,2.17v.06a4.12,4.12,0,0,0,2.11,3.15l4.37,2.4a3.17,3.17,0,0,0,1.51.39h6.43l4.7-1.37,55.35,7.94,19.93-29.78Z"/><g class="cls-31"><path class="cls-21" d="M1408.21,413.24l-23.76-14.09,12.72-30.79a15.12,15.12,0,0,1,20-7.59h0c7.61,3.42,8.67,12.37,5.25,20Z"/></g><path class="cls-24" d="M1405.87,409.71l-22.59-10.56,11.54-32a15.12,15.12,0,0,1,20-7.59h0a15.11,15.11,0,0,1,7.6,20Z"/><path class="cls-38" d="M226.28,346.53l-1.1.54c-11.44,5.46-17.51,4.55-28.66-.59-10.26-4.74-20.22-10.37-28.72-17.88C157,319.09,148.68,306.23,146.94,292c-.39-3.19-.37-6.7,1.53-9.3,2.61-3.58,8-4.11,12.09-2.51s7.37,4.81,10.66,7.77a12.13,12.13,0,0,0,4.7,3c1.82.49,4,0,5-1.66,1.49-2.61-1.06-5.62-3.36-7.55-5.35-4.45-10.36-7-16-11-7-5-13.56-11-17.42-18.71s-4.73-17.24-.71-24.85a15.06,15.06,0,0,1,5.12-5.84c3.92-2.48,9-2.35,13.5-1.38s8.93,2.7,13.55,3.18c10.92,1.14,15.21-6.54,15-16.59-.14-6.74-2.32-13.29-2.71-20C187.2,174.72,193,162.1,203.77,157s25.72-.21,29.55,11c4.17,12.2-5.35,25.9,1,37.56,2.06,3.8,6.7,9,10.33,11.27,6,3.71,14.62-.65,21.59-.33,1.55.07,3.23.29,4.32,1.4a5.92,5.92,0,0,1,1.34,3.11A25.78,25.78,0,0,1,264,244.59c-7.21,6.57-19.73,9.92-22.8,20.21-1.91,6.38-1.08,22.31,9.09,20.7,3.81-.61,6.36-4.38,10-5.62,4.53-1.53,9.71,1.47,11.74,5.8s1.42,9.49-.34,13.93c-2.78,7-8.14,12.64-13.38,18.07C247.58,328.86,240.5,339.52,226.28,346.53Z"/><rect class="cls-21" x="209.73" y="198.04" width="2.87" height="272.8"/><polygon class="cls-21" points="211.16 271.86 181.36 242.06 183.39 240.03 211.16 267.8 238.93 240.03 240.96 242.06 211.16 271.86"/><polygon class="cls-21" points="211.16 329.68 181.36 299.88 183.39 297.85 211.16 325.62 238.93 297.85 240.96 299.88 211.16 329.68"/><path class="cls-5" d="M81.1,317.18H579.72a3.59,3.59,0,0,1,3.59,3.59V635.09a0,0,0,0,1,0,0H77.52a0,0,0,0,1,0,0V320.77A3.59,3.59,0,0,1,81.1,317.18Z"/><rect class="cls-7" x="103.45" y="345.79" width="453.92" height="263.6"/><path class="cls-39" d="M612.78,649.31H48a85.91,85.91,0,0,0,60.58,25H552.2a85.91,85.91,0,0,0,60.58-25Z"/><rect class="cls-40" x="48.04" y="633.43" width="564.74" height="15.88"/><path class="cls-39" d="M365.36,645.69h-69.9a4.33,4.33,0,0,1-4.32-4.32h0a4.33,4.33,0,0,1,4.32-4.32h69.9a4.33,4.33,0,0,1,4.32,4.32h0A4.33,4.33,0,0,1,365.36,645.69Z"/><rect class="cls-7" x="122.25" y="349.39" width="404.59" height="259.72"/><rect class="cls-41" x="345.05" y="430.53" width="140.31" height="182.58" transform="translate(937.03 106.61) rotate(90)"/><rect class="cls-7" x="263.81" y="518.42" width="151.25" height="6.8" transform="translate(861.26 182.38) rotate(90)"/><rect class="cls-7" x="285.52" y="518.42" width="151.25" height="6.8" transform="translate(882.96 160.68) rotate(90)"/><rect class="cls-7" x="307.22" y="518.42" width="151.25" height="6.8" transform="translate(904.67 138.97) rotate(90)"/><rect class="cls-7" x="328.93" y="518.42" width="151.25" height="6.8" transform="translate(926.38 117.26) rotate(90)"/><rect class="cls-7" x="350.64" y="518.42" width="151.25" height="6.8" transform="translate(948.08 95.56) rotate(90)"/><rect class="cls-7" x="372.34" y="518.42" width="151.25" height="6.8" transform="translate(969.79 73.85) rotate(90)"/><rect class="cls-7" x="394.05" y="518.42" width="151.25" height="6.8" transform="translate(991.5 52.14) rotate(90)"/><rect class="cls-7" x="415.76" y="518.42" width="151.25" height="6.8" transform="translate(1013.2 30.44) rotate(90)"/><rect class="cls-7" x="316.31" y="463.01" width="194.99" height="6.8" transform="translate(827.61 932.81) rotate(180)"/><rect class="cls-7" x="316.31" y="484.94" width="194.99" height="6.8" transform="translate(827.61 976.68) rotate(180)"/><rect class="cls-7" x="316.31" y="506.87" width="194.99" height="6.8" transform="translate(827.61 1020.54) rotate(180)"/><rect class="cls-7" x="316.31" y="528.8" width="194.99" height="6.8" transform="translate(827.61 1064.4) rotate(180)"/><rect class="cls-7" x="316.31" y="550.74" width="194.99" height="6.8" transform="translate(827.61 1108.27) rotate(180)"/><rect class="cls-7" x="316.31" y="572.67" width="194.99" height="6.8" transform="translate(827.61 1152.13) rotate(180)"/><rect class="cls-9" x="372.58" y="399.19" width="12.22" height="34.35"/><rect class="cls-42" x="397.02" y="410.9" width="12.22" height="22.64"/><rect class="cls-43" x="345.53" y="416.87" width="12.22" height="16.67"/><rect class="cls-9" x="445.89" y="379.63" width="12.22" height="53.91"/><rect class="cls-12" x="420.15" y="400.2" width="12.22" height="33.35"/><rect class="cls-12" x="470.32" y="366.85" width="12.22" height="66.69"/><path class="cls-44" d="M220.38,428.78h54.78A51.49,51.49,0,1,1,220.38,374Z"/><path class="cls-45" d="M271.78,421.91H239.05l29.58-14.05a47.47,47.47,0,0,1,3.15,14.05Z"/><rect class="cls-12" x="141.06" y="468.46" width="33.03" height="10.55" transform="matrix(0.8, -0.6, 0.6, 0.8, -252.19, 188.53)"/><path class="cls-41" d="M278.84,384.4a68.72,68.72,0,0,0-45.51-27c-1.88-.29-3.76-.45-5.63-.57a69.1,69.1,0,0,0-72.51,59.16A69.33,69.33,0,0,0,168.25,467a76.82,76.82,0,0,0,5.86,6.88,69.73,69.73,0,0,0,13.51,10.84A68.72,68.72,0,0,0,213.8,494c1.82.27,3.72.47,5.59.59a69.35,69.35,0,0,0,72.48-59.15A68.29,68.29,0,0,0,278.84,384.4Zm1.25,49.39a57.37,57.37,0,0,1-60,48.91c-1.54-.05-3.08-.24-4.6-.44A57.54,57.54,0,0,1,178.64,461l-.86-1.11A57.18,57.18,0,0,1,227,368.65c1.55.09,3.12.27,4.66.47a57.21,57.21,0,0,1,48.45,64.67Z"/><rect class="cls-45" x="73.91" y="488.19" width="92.33" height="29.48" transform="translate(-277.1 171.86) rotate(-36.76)"/><path class="cls-45" d="M52.32,501.19H105.4a7.59,7.59,0,0,1,7.58,7.58h0a7.58,7.58,0,0,1-7.58,7.58H52.32a7.58,7.58,0,0,1-7.58-7.58h0A7.59,7.59,0,0,1,52.32,501.19Z"/><path class="cls-45" d="M92.33,480.26h33a7.58,7.58,0,0,1,7.57,7.58h0a7.57,7.57,0,0,1-7.57,7.58h-33a7.58,7.58,0,0,1-7.58-7.58h0A7.58,7.58,0,0,1,92.33,480.26Z"/><path class="cls-45" d="M22.81,516.24H39.48a4.17,4.17,0,0,1,4.17,4.17h0a4.17,4.17,0,0,1-4.17,4.17H22.81a4.17,4.17,0,0,1-4.17-4.17h0A4.17,4.17,0,0,1,22.81,516.24Z"/><path class="cls-45" d="M91.91,530.88H32.56a5.74,5.74,0,1,0,0,11.48H91.91Z"/><path class="cls-45" d="M61,516.24H89.25a7.61,7.61,0,0,0-5.36,2.27,7,7,0,0,0-2.22,5.1,7.35,7.35,0,0,0,7.58,7.3H61a7.08,7.08,0,0,0,7.58-7.18A7.5,7.5,0,0,0,61,516.24Z"/><path class="cls-46" d="M323.66,540.36l-1.7-5.14,78.58-25.94a2.66,2.66,0,0,1,1.53,0L466.7,526l38-19.86,2.51,4.8-39,20.34a2.67,2.67,0,0,1-1.94.22l-64.86-16.86Z"/><path class="cls-46" d="M475.18,529.69a7.82,7.82,0,1,1-7.82-7.82A7.82,7.82,0,0,1,475.18,529.69Z"/><circle class="cls-46" cx="510.04" cy="510.84" r="8.17"/><path class="cls-46" d="M409.3,514.75a7.82,7.82,0,1,1-7.82-7.81A7.82,7.82,0,0,1,409.3,514.75Z"/><path class="cls-46" d="M332.25,540.07a7.82,7.82,0,1,1-7.82-7.82A7.82,7.82,0,0,1,332.25,540.07Z"/><rect class="cls-12" x="162.58" y="557.66" width="56.83" height="5.41"/><rect class="cls-12" x="260.01" y="557.66" width="37.89" height="5.41"/><rect class="cls-12" x="224.83" y="557.66" width="27.06" height="5.41"/><rect class="cls-12" x="243.77" y="544.13" width="54.12" height="5.41"/><rect class="cls-12" x="162.58" y="544.13" width="40.59" height="5.41"/><rect class="cls-12" x="211.29" y="544.13" width="24.36" height="5.41"/><rect class="cls-12" x="162.58" y="530.6" width="56.83" height="5.41"/><rect class="cls-12" x="260.01" y="530.6" width="37.89" height="5.41"/><rect class="cls-12" x="224.83" y="530.6" width="27.06" height="5.41"/><rect class="cls-12" x="243.77" y="517.06" width="54.12" height="5.41"/><rect class="cls-12" x="162.58" y="517.06" width="40.59" height="5.41"/><rect class="cls-12" x="211.29" y="517.06" width="24.36" height="5.41"/><path class="cls-15" d="M430.13,610.44v30.4l21.44,21.5a30.31,30.31,0,0,0,8.93-21.43v-.09A30.38,30.38,0,0,0,430.13,610.44Z"/><path class="cls-21" d="M404.73,619.93a30.3,30.3,0,0,0-8.93,21.45l30.38.08V611.05A30.26,30.26,0,0,0,404.73,619.93Z"/><path class="cls-46" d="M426.2,645.36h0l-30.39-.07v.05a30.38,30.38,0,0,0,51.84,21.52Z"/><g class="cls-31"><path class="cls-21" d="M442.65,613.16a40,40,0,0,0-3.78,36.43l12.71,12.75a30.31,30.31,0,0,0,8.93-21.43v-.09A30.37,30.37,0,0,0,442.65,613.16Z"/></g><path class="cls-47" d="M522.46,635.08a40.3,40.3,0,1,1-40.3-40.29A40.3,40.3,0,0,1,522.46,635.08Z"/><path class="cls-48" d="M518.06,635.08a35.9,35.9,0,1,1-35.9-35.89A35.89,35.89,0,0,1,518.06,635.08Z"/><path class="cls-49" d="M513.84,635.08a31.68,31.68,0,1,1-31.68-31.67A31.68,31.68,0,0,1,513.84,635.08Z"/><path class="cls-21" d="M486.29,651.24H474.56a4.91,4.91,0,0,1-4.9-4.9v-2.5h7v.43h9.66a3.37,3.37,0,0,0,3.37-3.37,2.19,2.19,0,0,0-2.19-2.19h-8.65a9.17,9.17,0,0,1-9.16-9.17v-1.25A10.35,10.35,0,0,1,480,618h11.73a4.91,4.91,0,0,1,4.9,4.89v2.85h-7v-.77H480a3.37,3.37,0,0,0-3.37,3.37v1.25a2.19,2.19,0,0,0,2.19,2.2h8.65a9.17,9.17,0,0,1,9.16,9.16A10.35,10.35,0,0,1,486.29,651.24Z"/><rect class="cls-21" x="479.66" y="614.56" width="6.97" height="41.04"/><path class="cls-10" d="M568.14,583a91.13,91.13,0,1,0,91.13-91.12A91.13,91.13,0,0,0,568.14,583Z"/><path class="cls-7" d="M587.83,583a71.44,71.44,0,1,0,71.44-71.44A71.43,71.43,0,0,0,587.83,583Z"/><path class="cls-10" d="M610.94,583a48.33,48.33,0,1,0,48.33-48.33A48.33,48.33,0,0,0,610.94,583Z"/><path class="cls-7" d="M636.74,583a22.53,22.53,0,1,0,22.53-22.53A22.53,22.53,0,0,0,636.74,583Z"/><path class="cls-50" d="M659.8,577.38h-86l-10.34-7.79H542.37L554,583.87l-11.66,11.69h21.09l10.34-7.79h86a5.2,5.2,0,1,0,0-10.39Z"/><path class="cls-8" d="M745.44,296.77l3.13,10.45c-20.69,11.41-23.78,31.8-61.19,32.33s-50.71-12.08-50.71-12.08c0,40.2,43.18,67,43.18,67v20.69H781.21V300.85l-1.76-4.08Z"/><rect class="cls-13" x="626.94" y="97.9" width="159.26" height="277.11" rx="24.63"/><path class="cls-12" d="M717.61,239.56l-17.88,13L724,286.06l17.88-13,3.84-2.78,31.81-23.07V196.08l-56.13,40.7Zm25.7-1.82-21.55,15.63L716.38,246l21.55-15.63Z"/><polygon class="cls-50" points="777.57 314.18 777.57 253.09 748.53 274.14 777.57 314.18"/><path class="cls-41" d="M777.57,190.24V120.89a7.1,7.1,0,0,0-7.1-7.1H642.68a7.1,7.1,0,0,0-6.79,5L718.66,233ZM664.91,150.8l21.56-15.63,5.38,7.42L670.3,158.22Z"/><path class="cls-12" d="M777.57,330.33v-8.08L744.7,276.92l-17.88,13,34.47,47.53h9.18A7.09,7.09,0,0,0,777.57,330.33Z"/><polygon class="cls-45" points="645.65 337.42 722.32 337.42 695.89 300.99 645.65 337.42"/><path class="cls-10" d="M635.58,217.81V330.33a7.08,7.08,0,0,0,3.43,6.06l54.11-39.23Z"/><polygon class="cls-12" points="699.73 298.21 728.16 337.42 755.45 337.42 717.61 285.24 699.73 298.21"/><rect class="cls-12" x="675.22" y="227.41" width="22.09" height="66.85" transform="translate(-22.42 452.55) rotate(-35.95)"/><polygon class="cls-12" points="672.8 223.46 635.58 172.13 635.58 209.75 654.92 236.42 672.8 223.46"/><path class="cls-12" d="M714.83,235.73,635.58,126.44v37.62L697,248.7Zm-48.15-57.37,37.74,52-7.5,5.44-37.75-52Z"/><path class="cls-7" d="M744.7,276.92l32.87,45.33v-8.07l-29-40,29-21v-5.85l-31.81,23.07-3.84,2.78-17.88,13-24.31-33.53,17.88-13,3.83-2.78,56.13-40.7v-5.84L718.66,233,635.89,118.81c0,.19-.1.38-.14.58s0,.14,0,.21l-.06.44,0,.2c0,.22,0,.43,0,.65v5.55l79.25,109.29L697,248.7l-61.37-84.64v8.07l37.22,51.33-17.88,13-19.34-26.67v8.06l57.54,79.35L639,336.39h0a6.9,6.9,0,0,0,1.19.58l.16.06.34.11.44.11.26.05.45.07.19,0c.21,0,.42,0,.64,0h3L695.9,301l26.42,36.43h5.84l-28.43-39.21,17.88-13,37.84,52.18h5.84l-34.47-47.53ZM697,294.38,657.7,240.25l17.88-13,39.25,54.12Z"/><rect class="cls-7" x="665.07" y="142.11" width="26.62" height="9.17" transform="translate(43.09 426.2) rotate(-35.95)"/><rect class="cls-7" x="716.53" y="237.26" width="26.62" height="9.17" transform="translate(-3 474.45) rotate(-35.94)"/><rect class="cls-7" x="677.16" y="174.96" width="9.27" height="64.29" transform="translate(8.27 439.71) rotate(-35.95)"/><rect class="cls-7" x="700.15" y="163.31" width="41.91" height="50.67" transform="translate(26.6 459.28) rotate(-35.95)"/><path class="cls-8" d="M647.63,298.38a13.71,13.71,0,0,1-18.79,4.81L611.63,293a13.71,13.71,0,0,1-4.81-18.79l2.32-3.93a13.73,13.73,0,0,1,18.8-4.82l17.21,10.2A13.71,13.71,0,0,1,650,294.44Z"/><path class="cls-8" d="M647.63,335.29a13.72,13.72,0,0,1-18.79,4.82l-17.21-10.2a13.71,13.71,0,0,1-4.81-18.79l2.32-3.93a13.74,13.74,0,0,1,18.8-4.82l17.21,10.2A13.72,13.72,0,0,1,650,331.36Z"/><path class="cls-8" d="M644.21,367.74a11.26,11.26,0,0,1-15.45,4l-14.15-8.38a11.28,11.28,0,0,1-4-15.45l1.91-3.23a11.28,11.28,0,0,1,15.45-4l14.16,8.38a11.29,11.29,0,0,1,4,15.45Z"/><path class="cls-8" d="M798.11,299.09l-18.05-41.74a9.27,9.27,0,0,0-8.51-5.59H739.24a9.33,9.33,0,0,0-8.66,12.65c7.17,19.5,28.49,18.93,28.49,18.93l7.17,23.88c-20.7,11.41-24.42,41.66-24.42,41.66s-7.12,41.29,19.32,66.33h37.73V302.77A9.29,9.29,0,0,0,798.11,299.09Z"/><path class="cls-8" d="M647.63,262.09a13.72,13.72,0,0,1-18.79,4.81l-17.21-10.19a13.71,13.71,0,0,1-4.81-18.79l2.32-3.94a13.72,13.72,0,0,1,18.8-4.81l17.21,10.19A13.72,13.72,0,0,1,650,258.15Z"/><rect class="cls-9" x="666.01" y="114.26" width="11.95" height="74.71" rx="5.92"/><circle class="cls-10" cx="671.98" cy="104.27" r="24" transform="translate(416.11 734.32) rotate(-76.72)"/><path class="cls-7" d="M864.69,676.21H757.94a3.66,3.66,0,0,1-3.67-3.66V484.88a3.67,3.67,0,0,1,3.67-3.67H864.69a3.68,3.68,0,0,1,3.67,3.67V672.55A3.67,3.67,0,0,1,864.69,676.21Z"/><rect class="cls-51" x="764.97" y="511.57" width="92.69" height="134.29"/><rect class="cls-30" x="792.3" y="492.18" width="38.03" height="2.67" rx="0.42"/><path class="cls-52" d="M819.63,658.57a8.32,8.32,0,1,1-8.32-8.32A8.32,8.32,0,0,1,819.63,658.57Z"/><path class="cls-53" d="M1807.93,628.5l-.52.25c-5.39,2.58-8.26,2.15-13.51-.28a54.73,54.73,0,0,1-13.55-8.43c-5.08-4.48-9-10.55-9.84-17.27a6.15,6.15,0,0,1,.73-4.39c1.23-1.69,3.75-1.94,5.7-1.18a17.36,17.36,0,0,1,5,3.66,5.67,5.67,0,0,0,2.22,1.42,2.08,2.08,0,0,0,2.35-.78c.7-1.23-.5-2.65-1.59-3.56-2.52-2.1-4.89-3.31-7.53-5.17a24.91,24.91,0,0,1-8.22-8.83c-1.82-3.62-2.23-8.13-.33-11.72a7.12,7.12,0,0,1,2.41-2.75c1.85-1.17,4.23-1.11,6.37-.65a61.66,61.66,0,0,0,6.39,1.5c5.15.54,7.17-3.09,7.07-7.83-.07-3.17-1.1-6.26-1.28-9.43-.32-5.59,2.44-11.54,7.5-13.93s12.12-.1,13.93,5.19c2,5.76-2.52,12.22.45,17.72a16.75,16.75,0,0,0,4.87,5.31c2.83,1.75,6.89-.3,10.18-.15a2.92,2.92,0,0,1,2,.66,2.72,2.72,0,0,1,.63,1.46,12.16,12.16,0,0,1-3.68,11.1c-3.4,3.1-9.31,4.68-10.75,9.53-.9,3-.51,10.53,4.28,9.76,1.8-.28,3-2.06,4.73-2.65,2.13-.72,4.58.7,5.53,2.74a8.38,8.38,0,0,1-.15,6.57c-1.32,3.31-3.85,6-6.32,8.52C1818,620.16,1814.64,625.19,1807.93,628.5Z"/><rect class="cls-21" x="1799.65" y="558.47" width="2.29" height="117.03"/><polygon class="cls-21" points="1800.8 593.95 1786.41 579.56 1788.03 577.94 1800.8 590.7 1813.57 577.94 1815.19 579.56 1800.8 593.95"/><polygon class="cls-21" points="1800.8 621.22 1786.41 606.83 1788.03 605.21 1800.8 617.97 1813.57 605.21 1815.19 606.83 1800.8 621.22"/><g class="cls-31"><path class="cls-21" d="M1828.79,567.86a2.92,2.92,0,0,0-2-.66c-3.29-.15-7.35,1.9-10.18.15a16.75,16.75,0,0,1-4.87-5.31c-2.15-4-.39-8.48,0-12.85a5.85,5.85,0,0,0-4.57,2.2c-1.25,1.72-1.27,4-1,6.14,1.15,9.41,6.66,17.89,13.76,24.16.6.53,1.21,1,1.83,1.54a26.71,26.71,0,0,0,4-2.81,12.16,12.16,0,0,0,3.68-11.1A2.72,2.72,0,0,0,1828.79,567.86Z"/></g><path class="cls-29" d="M1863.89,593.52l-.73.35c-7.54,3.6-11.55,3-18.9-.39a77.28,77.28,0,0,1-18.94-11.79c-7.1-6.27-12.61-14.75-13.76-24.16-.26-2.11-.24-4.42,1-6.14,1.72-2.35,5.25-2.7,8-1.65s4.87,3.17,7,5.13a8.09,8.09,0,0,0,3.1,2,2.92,2.92,0,0,0,3.28-1.1c1-1.72-.7-3.71-2.22-5-3.52-2.94-6.83-4.64-10.53-7.24-4.64-3.27-8.94-7.27-11.49-12.34s-3.12-11.37-.47-16.39a10,10,0,0,1,3.38-3.85c2.59-1.63,5.91-1.55,8.91-.91s5.88,1.78,8.93,2.1c7.2.75,10-4.32,9.89-10.95-.1-4.44-1.53-8.76-1.79-13.2-.45-7.81,3.41-16.13,10.48-19.47s17-.14,19.49,7.26c2.75,8.05-3.53,17.08.63,24.77A23.46,23.46,0,0,0,1876,508c4,2.44,9.64-.43,14.24-.22a4.14,4.14,0,0,1,2.84.92,3.89,3.89,0,0,1,.89,2.05,17,17,0,0,1-5.15,15.52c-4.76,4.34-13,6.55-15,13.33-1.26,4.21-.71,14.72,6,13.65,2.51-.4,4.19-2.89,6.61-3.7,3-1,6.4,1,7.74,3.82s.94,6.26-.23,9.19c-1.83,4.62-5.37,8.33-8.82,11.91C1877.94,581.86,1873.27,588.89,1863.89,593.52Z"/><rect class="cls-21" x="1852.77" y="495.58" width="2.29" height="179.92"/><polygon class="cls-21" points="1853.91 544.55 1834.12 524.75 1835.74 523.13 1853.91 541.31 1872.09 523.13 1873.71 524.75 1853.91 544.55"/><polygon class="cls-21" points="1853.91 582.68 1834.12 562.89 1835.74 561.27 1853.91 579.44 1872.09 561.27 1873.71 562.89 1853.91 582.68"/><polygon class="cls-13" points="1540.19 523.65 1598.47 470.73 1656.75 523.15 1656.24 595.33 1541.71 595.33 1540.19 523.65"/><rect class="cls-7" x="1555.71" y="490.75" width="86.25" height="104.74"/><polygon class="cls-9" points="1540.27 605.99 1540.27 525.84 1581.69 567.27 1540.27 605.99"/><polygon class="cls-9" points="1656.81 605.99 1656.81 525.84 1615.55 567.27 1656.81 605.99"/><polygon class="cls-54" points="1540.19 606.01 1656.75 606.01 1615.55 567.27 1581.61 567.27 1540.19 606.01"/></g></g></g></svg>
