<svg xmlns="http://www.w3.org/2000/svg" xmlns:xlink="http://www.w3.org/1999/xlink" viewBox="0 0 1921.69 618.57"><defs><style>.cls-1{isolation:isolate;}.cls-2{opacity:0.47;}.cls-3{fill:#e0e4f0;}.cls-4{opacity:0.5;}.cls-34,.cls-5{fill:#fff;}.cls-6{fill:#e5e9ff;}.cls-7{fill:url(#linear-gradient);}.cls-8{fill:#536dfe;}.cls-9{fill:#4568af;}.cls-10,.cls-12{fill:#b9b8f1;}.cls-11{fill:#e5e4e3;}.cls-12,.cls-33,.cls-34,.cls-41,.cls-42,.cls-45,.cls-46{fill-rule:evenodd;}.cls-13{opacity:0.45;}.cls-14{fill:#2143af;}.cls-15{fill:url(#linear-gradient-2);}.cls-16{fill:url(#linear-gradient-3);}.cls-17{fill:url(#linear-gradient-4);}.cls-18{fill:url(#linear-gradient-5);}.cls-19,.cls-42{fill:#ff65a7;}.cls-20{fill:#f7b75d;}.cls-21{fill:#575a8f;}.cls-22{fill:#121f55;}.cls-23{fill:#ffcebd;}.cls-24{mix-blend-mode:multiply;}.cls-25{fill:#f99ab6;}.cls-26{fill:#2747b3;}.cls-27{fill:#b8b9f1;}.cls-28{fill:#fffeff;}.cls-29,.cls-41{fill:#566cd3;}.cls-30{fill:url(#linear-gradient-6);}.cls-31{fill:url(#linear-gradient-7);}.cls-32{fill:url(#linear-gradient-8);}.cls-33{fill:url(#linear-gradient-9);}.cls-35{fill:#d1ddff;}.cls-36{fill:url(#linear-gradient-10);}.cls-37{fill:url(#linear-gradient-11);}.cls-38{fill:url(#linear-gradient-12);}.cls-39{fill:url(#linear-gradient-13);}.cls-40{fill:#f7a93e;}.cls-43{fill:url(#linear-gradient-14);}.cls-44{fill:#f5f7ff;}.cls-45{fill:url(#linear-gradient-15);}.cls-46,.cls-47{fill:#8edef2;}.cls-48{fill:#41446b;}.cls-49{fill:#8184c4;}.cls-50{fill:#191c3c;}.cls-51{opacity:0.3;}.cls-52{fill:#fcd991;}.cls-53{fill:url(#linear-gradient-16);}.cls-54{fill:#d8d8d8;}.cls-55{fill:#ececec;}.cls-56{fill:#dfe2ec;}.cls-57{fill:#f2f3f7;}.cls-58{fill:#fec55e;}.cls-59{opacity:0.2;}.cls-60{fill:#231f20;}.cls-61{fill:#717386;}.cls-62{fill:#4d5068;}.cls-63{fill:#9a9dd0;}.cls-64{fill:#9e9e9e;}.cls-65{fill:#c5c5c5;}.cls-66{fill:#414042;}.cls-67{fill:#212121;}.cls-68{fill:#fed17e;}.cls-69{fill:#f1f2f2;}.cls-70{fill:#a1aadc;}.cls-71{fill:#474963;}.cls-72{fill:#b1b1b1;}.cls-73{fill:#bf9447;}.cls-74{fill:#6d6e71;}.cls-75{fill:#f5f7f9;}.cls-76{fill:url(#linear-gradient-17);}.cls-77{fill:url(#linear-gradient-18);}.cls-78{fill:url(#linear-gradient-19);}.cls-79{fill:#6371c5;}.cls-80{fill:url(#linear-gradient-20);}.cls-81{fill:url(#linear-gradient-21);}.cls-82{fill:url(#linear-gradient-22);}.cls-83{fill:url(#linear-gradient-23);}.cls-84{fill:#fdfdfe;}.cls-85{fill:#fde1a7;}.cls-86{fill:url(#linear-gradient-24);}.cls-87{fill:#7295cc;}.cls-88{fill:url(#linear-gradient-25);}.cls-89{fill:#bda36d;}.cls-90{fill:#272834;}.cls-91{fill:url(#linear-gradient-26);}.cls-92{fill:#c1407e;}.cls-93{fill:#bf9855;}.cls-94{fill:#feca71;}.cls-95{fill:url(#linear-gradient-27);}.cls-96{fill:none;stroke:#4568af;stroke-miterlimit:10;}</style><linearGradient id="linear-gradient" x1="545" y1="550.18" x2="699.4" y2="550.18" gradientUnits="userSpaceOnUse"><stop offset="0" stop-color="#fec55e"/><stop offset="1" stop-color="#ffa000"/></linearGradient><linearGradient id="linear-gradient-2" x1="445.74" y1="149.08" x2="457.47" y2="149.08" xlink:href="#linear-gradient"/><linearGradient id="linear-gradient-3" x1="527.24" y1="277.07" x2="539.82" y2="277.07" xlink:href="#linear-gradient"/><linearGradient id="linear-gradient-4" x1="474.22" y1="280.14" x2="486.8" y2="280.14" xlink:href="#linear-gradient"/><linearGradient id="linear-gradient-5" x1="295.82" y1="280.38" x2="401.76" y2="280.38" xlink:href="#linear-gradient"/><linearGradient id="linear-gradient-6" x1="269.27" y1="154.06" x2="336.74" y2="154.06" xlink:href="#linear-gradient"/><linearGradient id="linear-gradient-7" x1="308.47" y1="217.82" x2="324.7" y2="217.82" xlink:href="#linear-gradient"/><linearGradient id="linear-gradient-8" x1="296.66" y1="231.46" x2="308.65" y2="231.46" xlink:href="#linear-gradient"/><linearGradient id="linear-gradient-9" x1="680.34" y1="403.87" x2="731.64" y2="403.87" xlink:href="#linear-gradient"/><linearGradient id="linear-gradient-10" x1="124.57" y1="354.73" x2="158.36" y2="354.73" xlink:href="#linear-gradient"/><linearGradient id="linear-gradient-11" x1="144.24" y1="317.57" x2="152.49" y2="317.57" xlink:href="#linear-gradient"/><linearGradient id="linear-gradient-12" x1="128.86" y1="328.33" x2="150.46" y2="328.33" xlink:href="#linear-gradient"/><linearGradient id="linear-gradient-13" x1="137.75" y1="298.24" x2="186.48" y2="298.24" xlink:href="#linear-gradient"/><linearGradient id="linear-gradient-14" x1="882.81" y1="232.46" x2="1049.57" y2="232.46" xlink:href="#linear-gradient"/><linearGradient id="linear-gradient-15" x1="1110.16" y1="307.71" x2="1210.17" y2="307.71" xlink:href="#linear-gradient"/><linearGradient id="linear-gradient-16" x1="1250.76" y1="379.89" x2="1317.57" y2="379.89" xlink:href="#linear-gradient"/><linearGradient id="linear-gradient-17" x1="1853.59" y1="568.14" x2="1864.45" y2="568.14" xlink:href="#linear-gradient"/><linearGradient id="linear-gradient-18" x1="1766.65" y1="491.82" x2="1784.08" y2="491.82" xlink:href="#linear-gradient"/><linearGradient id="linear-gradient-19" x1="1706.08" y1="510.9" x2="1735.64" y2="510.9" xlink:href="#linear-gradient"/><linearGradient id="linear-gradient-20" x1="1789.21" y1="587.22" x2="1819.3" y2="587.22" xlink:href="#linear-gradient"/><linearGradient id="linear-gradient-21" x1="1665.86" y1="599.94" x2="1702.52" y2="599.94" xlink:href="#linear-gradient"/><linearGradient id="linear-gradient-22" x1="1609.67" y1="596.06" x2="1654.1" y2="596.06" gradientTransform="translate(1642.02 -1141.25) rotate(70.27)" xlink:href="#linear-gradient"/><linearGradient id="linear-gradient-23" x1="1488.99" y1="598.3" x2="1528.92" y2="598.3" xlink:href="#linear-gradient"/><linearGradient id="linear-gradient-24" x1="1776.31" y1="433.8" x2="1841.83" y2="433.8" gradientTransform="translate(382.45 -760.22) rotate(26.44)" xlink:href="#linear-gradient"/><linearGradient id="linear-gradient-25" x1="1814.17" y1="430.86" x2="1837.4" y2="430.86" xlink:href="#linear-gradient"/><linearGradient id="linear-gradient-26" x1="1858.76" y1="391.41" x2="1896.06" y2="391.41" xlink:href="#linear-gradient"/><linearGradient id="linear-gradient-27" x1="1361.26" y1="413.58" x2="1469.56" y2="413.58" xlink:href="#linear-gradient"/></defs><title>BlueSky About</title><g class="cls-1"><g id="Layer_2" data-name="Layer 2"><g id="Layer_1-2" data-name="Layer 1"><g class="cls-2"><path class="cls-3" d="M1073.69,617.83a520.59,520.59,0,0,0-45-212.35A164.78,164.78,0,0,0,831.37,176.7,520.12,520.12,0,0,0,551.12,95.25q-19.27,0-38.2,1.38a134.6,134.6,0,0,0-206.69,59.49,523.86,523.86,0,0,0-109,77.23,149.18,149.18,0,0,0-148.47,240A523.11,523.11,0,0,0,28.54,617.83Z"/></g><g class="cls-2"><path class="cls-3" d="M1921.69,617.83a520.59,520.59,0,0,0-45-212.35A164.78,164.78,0,0,0,1679.37,176.7a520.12,520.12,0,0,0-280.25-81.45q-19.27,0-38.2,1.38a134.6,134.6,0,0,0-206.69,59.49,523.86,523.86,0,0,0-109,77.23,149.18,149.18,0,0,0-148.47,240,523.11,523.11,0,0,0-20.23,144.44Z"/></g><g class="cls-2"><path class="cls-3" d="M508,617.83C508,485,400.37,377.35,267.56,377.35S27.09,485,27.09,617.83Z"/></g><g class="cls-2"><path class="cls-3" d="M952.05,617.83c0-132.81-107.67-240.48-240.48-240.48S471.1,485,471.1,617.83Z"/></g><g class="cls-2"><path class="cls-3" d="M1440.87,617.83c0-132.81-107.66-240.48-240.48-240.48S959.92,485,959.92,617.83Z"/></g><g class="cls-2"><path class="cls-3" d="M1921.69,617.83c0-132.81-107.66-240.48-240.47-240.48S1440.74,485,1440.74,617.83Z"/></g><g class="cls-4"><circle class="cls-3" cx="720.44" cy="81.75" r="15.82" transform="translate(476.07 764.4) rotate(-76.78)"/></g><g class="cls-4"><circle class="cls-3" cx="1360.44" cy="30.75" r="15.82" transform="translate(1019.33 1348.09) rotate(-76.78)"/></g><g class="cls-4"><path class="cls-3" d="M453.92,20.48A20.49,20.49,0,1,1,433.43,0,20.49,20.49,0,0,1,453.92,20.48Z"/></g><g class="cls-4"><path class="cls-3" d="M1512.92,35.48A20.49,20.49,0,1,1,1492.43,15,20.49,20.49,0,0,1,1512.92,35.48Z"/></g><g class="cls-4"><path class="cls-3" d="M1147.92,105.48A20.49,20.49,0,1,1,1127.43,85,20.49,20.49,0,0,1,1147.92,105.48Z"/></g><g class="cls-4"><path class="cls-3" d="M216.25,154.62a10.44,10.44,0,1,1-10.44-10.43A10.43,10.43,0,0,1,216.25,154.62Z"/></g><g class="cls-4"><circle class="cls-3" cx="310.45" cy="77.92" r="10.44"/></g><g class="cls-4"><circle class="cls-3" cx="1751.45" cy="105.92" r="10.44"/></g><g class="cls-4"><path class="cls-3" d="M816.57,103.51a9.31,9.31,0,1,1-9.31-9.31A9.31,9.31,0,0,1,816.57,103.51Z"/></g><g class="cls-4"><path class="cls-3" d="M517.91,28.89a3.22,3.22,0,1,1-3.21-3.22A3.21,3.21,0,0,1,517.91,28.89Z"/></g><g class="cls-4"><circle class="cls-3" cx="247" cy="112.92" r="4.19"/></g><g class="cls-4"><path class="cls-3" d="M101.2,204.08a5.57,5.57,0,1,1-5.56-5.57A5.56,5.56,0,0,1,101.2,204.08Z"/></g><g class="cls-4"><path class="cls-3" d="M559.58,42.9A5.57,5.57,0,1,1,554,37.33,5.56,5.56,0,0,1,559.58,42.9Z"/></g><g class="cls-4"><path class="cls-3" d="M1222.58,33.9a5.57,5.57,0,1,1-5.57-5.57A5.56,5.56,0,0,1,1222.58,33.9Z"/></g><g class="cls-4"><circle class="cls-3" cx="151.11" cy="186.62" r="23.62" transform="matrix(0.16, -0.99, 0.99, 0.16, -57.31, 305.89)"/></g><g class="cls-4"><circle class="cls-3" cx="1024.11" cy="160.62" r="23.62" transform="translate(701.52 1145.78) rotate(-80.78)"/></g><g class="cls-4"><path class="cls-3" d="M26.12,462.26a5.57,5.57,0,1,1-5.57-5.57A5.57,5.57,0,0,1,26.12,462.26Z"/></g><g class="cls-4"><circle class="cls-3" cx="634.33" cy="66.51" r="22.89"/></g><g class="cls-4"><circle class="cls-3" cx="1628.33" cy="67.51" r="22.89"/></g><g class="cls-4"><circle class="cls-3" cx="899.33" cy="123.51" r="22.89"/></g><g class="cls-4"><circle class="cls-3" cx="18.12" cy="264.13" r="18.12" transform="translate(-99.7 27.04) rotate(-22.5)"/></g><g class="cls-4"><path class="cls-3" d="M1859.25,169.62a10.44,10.44,0,1,1-10.44-10.43A10.43,10.43,0,0,1,1859.25,169.62Z"/></g><rect class="cls-5" x="518.34" y="476.27" width="212.14" height="134.43" rx="15.42"/><rect class="cls-6" x="533.09" y="487.33" width="177.8" height="113.87"/><polygon class="cls-5" points="562.96 512.98 581.69 503.71 599.65 513.08 617.6 513.08 628.07 503.9 646.54 522.26 664.5 513.08 682.72 503.9 699.4 512.33 699.4 587.37 545 587.37 545 500.92 562.96 512.98"/><polygon class="cls-7" points="562.7 532.08 581.43 512.98 602.96 534.32 629.65 522.64 646.29 542.61 664.5 522.26 682.97 531.72 699.4 523.41 699.4 587.37 545 587.37 545 522.64 562.7 532.08"/><polygon class="cls-8" points="563.22 522.26 581.17 531.53 598.4 551.94 617.86 541 628.33 531.85 646.54 559.6 664.76 550.18 682.97 559.87 699.4 551.09 699.4 587.37 545 587.37 545 533.41 563.22 522.26"/><polygon class="cls-9" points="562.96 554.72 581.17 541.18 599.13 559.74 617.6 550.46 628.29 566.38 659.52 570 682.72 550.27 699.4 558.81 699.4 587.37 545 587.37 545 548.47 562.96 554.72"/><path class="cls-10" d="M725.05,544.27a3.94,3.94,0,1,1-3.94-3.94A3.93,3.93,0,0,1,725.05,544.27Z"/><path class="cls-11" d="M88.46,596.11v7.3a7.21,7.21,0,0,0,7.13,7.29H375.21a7.21,7.21,0,0,0,7.13-7.29v-7.3Z"/><path class="cls-5" d="M368.74,596.11V441.84a15.36,15.36,0,0,0-15.18-15.54H117.24a15.36,15.36,0,0,0-15.18,15.54V596.11Z"/><rect class="cls-6" x="115.3" y="441.03" width="240.2" height="143.15"/><path class="cls-5" d="M239.32,433.74a3.92,3.92,0,1,1-3.92-4A4,4,0,0,1,239.32,433.74Z"/><polygon class="cls-12" points="243.46 583.67 243.46 572.64 249.45 572.64 249.45 580.17 252.02 580.17 252.02 583.67 256.41 583.67 256.41 581.82 261.49 581.82 261.49 583.67 266.11 583.67 266.11 581.4 276.75 574.18 285.17 581.4 303.77 576.45 314.57 569.4 323.63 581.4 323.63 583.67 325.86 583.67 332.59 581.8 336.66 583.67 338.47 583.67 341.11 580.06 341.11 572.19 347.4 572.19 347.4 583.67 354.8 583.67 354.8 555.99 345.9 546.65 345.9 556.96 338.68 556.96 338.68 570.16 336.55 570.16 336.55 527.76 327.05 527.76 327.05 544.98 311.49 551.22 311.49 565.21 310.17 565.21 309.91 535.2 300.31 535.2 300.31 529.07 287.72 514.06 287.72 533.24 284.54 533.24 284.54 524.7 276.71 524.7 276.71 511.94 273.05 511.94 273.05 507.99 259.87 507.99 259.87 502.83 252.01 502.83 252.01 532.31 235.21 532.31 235.21 583.67 243.46 583.67"/><rect class="cls-6" x="330.52" y="530.78" width="2.63" height="10.57"/><rect class="cls-9" x="330.52" y="549.37" width="2.63" height="10.57"/><rect class="cls-9" x="284.84" y="535.23" width="2.63" height="6.42"/><rect class="cls-6" x="284.84" y="543.63" width="2.63" height="6.42"/><g class="cls-13"><rect class="cls-14" x="261.32" y="515.3" width="9.29" height="6.43"/></g><g class="cls-13"><rect class="cls-14" x="261.32" y="523.92" width="9.29" height="6.42"/></g><g class="cls-13"><rect class="cls-14" x="261.32" y="532.53" width="9.29" height="6.42"/></g><rect class="cls-9" x="284.84" y="553.45" width="2.63" height="6.42"/><rect class="cls-6" x="284.84" y="563.27" width="2.63" height="6.42"/><rect class="cls-6" x="315.03" y="554.47" width="5.81" height="5.07"/><rect class="cls-9" x="315.03" y="563.4" width="5.81" height="5.07"/><rect class="cls-9" x="298.6" y="541.57" width="8.1" height="2.07"/><rect class="cls-6" x="298.6" y="545.78" width="8.1" height="2.07"/><rect class="cls-9" x="298.6" y="549.99" width="8.1" height="2.07"/><rect class="cls-6" x="298.6" y="554.21" width="8.1" height="2.07"/><rect class="cls-9" x="298.6" y="558.42" width="8.1" height="2.07"/><rect class="cls-6" x="298.6" y="562.63" width="8.1" height="2.07"/><rect class="cls-9" x="298.6" y="566.84" width="8.1" height="2.07"/><rect class="cls-9" x="239.74" y="534.59" width="11.4" height="2.07"/><rect class="cls-9" x="239.74" y="538.8" width="11.4" height="2.07"/><rect class="cls-9" x="239.74" y="543.11" width="11.4" height="2.07"/><rect class="cls-9" x="239.74" y="547.32" width="11.4" height="2.07"/><polygon class="cls-12" points="123.93 583.67 123.93 572.64 129.92 572.64 129.92 580.17 132.49 580.17 132.49 583.67 136.88 583.67 136.88 581.82 141.96 581.82 141.96 583.67 146.59 583.67 146.59 581.4 157.23 574.18 165.65 581.4 184.25 576.45 195.04 569.4 204.11 581.4 204.11 583.67 206.34 583.67 213.06 581.8 217.13 583.67 218.94 583.67 221.59 580.06 221.59 572.19 227.87 572.19 227.87 583.67 235.27 583.67 235.27 555.99 226.38 546.65 226.38 556.96 219.16 556.96 219.16 570.16 217.03 570.16 217.03 527.76 207.53 527.76 207.53 544.98 191.97 551.22 191.97 565.21 190.65 565.21 190.38 535.2 180.78 535.2 180.78 529.07 168.2 514.06 168.2 533.24 165.02 533.24 165.02 524.7 157.19 524.7 157.19 511.94 153.52 511.94 153.52 507.99 140.34 507.99 140.34 502.83 132.49 502.83 132.49 532.31 115.69 532.31 115.69 583.67 123.93 583.67"/><rect class="cls-9" x="211" y="530.78" width="2.63" height="10.57"/><rect class="cls-9" x="211" y="549.37" width="2.63" height="10.57"/><rect class="cls-9" x="165.32" y="535.23" width="2.63" height="6.42"/><rect class="cls-9" x="165.32" y="543.63" width="2.63" height="6.42"/><g class="cls-13"><rect class="cls-14" x="141.79" y="515.3" width="9.29" height="6.43"/></g><g class="cls-13"><rect class="cls-14" x="141.79" y="523.92" width="9.29" height="6.42"/></g><g class="cls-13"><rect class="cls-14" x="141.79" y="532.53" width="9.29" height="6.42"/></g><rect class="cls-9" x="165.32" y="553.45" width="2.63" height="6.42"/><rect class="cls-9" x="165.32" y="563.27" width="2.63" height="6.42"/><rect class="cls-9" x="195.5" y="554.47" width="5.81" height="5.07"/><rect class="cls-9" x="195.5" y="563.4" width="5.81" height="5.07"/><rect class="cls-9" x="179.08" y="541.57" width="8.1" height="2.07"/><rect class="cls-9" x="179.08" y="545.78" width="8.1" height="2.07"/><rect class="cls-9" x="179.08" y="549.99" width="8.1" height="2.07"/><rect class="cls-9" x="179.08" y="554.21" width="8.1" height="2.07"/><rect class="cls-9" x="179.08" y="558.42" width="8.1" height="2.07"/><rect class="cls-9" x="179.08" y="562.63" width="8.1" height="2.07"/><rect class="cls-9" x="179.08" y="566.84" width="8.1" height="2.07"/><rect class="cls-9" x="120.22" y="534.59" width="11.4" height="2.07"/><rect class="cls-9" x="120.22" y="538.8" width="11.4" height="2.07"/><rect class="cls-9" x="120.22" y="543.11" width="11.4" height="2.07"/><rect class="cls-9" x="120.22" y="547.32" width="11.4" height="2.07"/><polygon class="cls-6" points="231.58 578.12 231.58 565.29 225.29 565.29 225.29 573.48 222.43 573.48 222.43 579.06 217.1 574.09 212.62 575.64 212.62 577.29 208.71 577.29 208.71 574.05 205.29 571.95 198.28 567.64 189 573.37 169.81 573.37 160.52 567.64 153.18 572.15 150.1 574.05 150.1 577.29 146.19 577.29 146.19 575.64 141.71 574.09 136.38 579.06 136.38 573.48 133.52 573.48 133.52 565.29 127.23 565.29 127.23 578.12 122.09 578.12 122.09 583.85 236.71 583.85 236.71 578.12 231.58 578.12"/><path class="cls-9" d="M547.43,240.08h18.09L464.11,139.47v-3.59c0-6.58-6-11.91-12.54-11.91S439,129.3,439,135.88v5.58l-99.35,98.62h18.09L439,159.44V524.59l-77.22,85.64,25.33.06L439,553.15V610.7h25.07V553.6l51.35,56.69,25.64-.06-77-85.32V157.46Z"/><path class="cls-15" d="M445.74,149.08a5.87,5.87,0,1,0,5.87-6.06A6,6,0,0,0,445.74,149.08Z"/><rect class="cls-5" x="244.29" y="202.07" width="416.62" height="267.45"/><rect class="cls-6" x="473.73" y="285.62" width="144.49" height="188.01" transform="translate(925.6 -166.34) rotate(90)"/><rect class="cls-5" x="390.07" y="376.13" width="155.75" height="7" transform="translate(847.57 -88.31) rotate(90)"/><rect class="cls-5" x="412.42" y="376.13" width="155.75" height="7" transform="translate(869.93 -110.67) rotate(90)"/><rect class="cls-5" x="434.77" y="376.13" width="155.75" height="7" transform="translate(892.28 -133.02) rotate(90)"/><rect class="cls-5" x="457.13" y="376.13" width="155.75" height="7" transform="translate(914.63 -155.37) rotate(90)"/><rect class="cls-5" x="479.48" y="376.13" width="155.75" height="7" transform="translate(936.98 -177.72) rotate(90)"/><rect class="cls-5" x="501.83" y="376.13" width="155.75" height="7" transform="translate(959.33 -200.07) rotate(90)"/><rect class="cls-5" x="524.18" y="376.13" width="155.75" height="7" transform="translate(981.69 -222.43) rotate(90)"/><rect class="cls-5" x="546.53" y="376.13" width="155.75" height="7" transform="translate(1004.04 -244.78) rotate(90)"/><rect class="cls-5" x="444.13" y="319.07" width="200.79" height="7" transform="translate(1089.05 645.14) rotate(180)"/><rect class="cls-5" x="444.13" y="341.65" width="200.79" height="7" transform="translate(1089.05 690.3) rotate(180)"/><rect class="cls-5" x="444.13" y="364.24" width="200.79" height="7" transform="translate(1089.05 735.47) rotate(180)"/><rect class="cls-5" x="444.13" y="386.82" width="200.79" height="7" transform="translate(1089.05 780.64) rotate(180)"/><rect class="cls-5" x="444.13" y="409.41" width="200.79" height="7" transform="translate(1089.05 825.81) rotate(180)"/><rect class="cls-5" x="444.13" y="431.99" width="200.79" height="7" transform="translate(1089.05 870.98) rotate(180)"/><rect class="cls-9" x="502.07" y="253.35" width="12.58" height="35.37"/><rect class="cls-16" x="527.24" y="265.42" width="12.58" height="23.31"/><rect class="cls-17" x="474.22" y="271.56" width="12.58" height="17.17"/><rect class="cls-9" x="577.56" y="233.21" width="12.58" height="55.52"/><rect class="cls-10" x="551.06" y="254.39" width="12.58" height="34.34"/><rect class="cls-10" x="602.72" y="220.05" width="12.58" height="68.68"/><path class="cls-18" d="M345.34,283.82h56.42a53,53,0,1,1-56.42-56.41Z"/><path class="cls-19" d="M398.28,276.74H364.57L395,262.28a48.74,48.74,0,0,1,3.25,14.46Z"/><rect class="cls-10" x="263.67" y="324.68" width="34.02" height="10.86" transform="translate(-141.75 233.64) rotate(-36.76)"/><path class="cls-6" d="M405.55,238.13a70.73,70.73,0,0,0-46.87-27.86c-1.94-.3-3.87-.46-5.79-.59a71.16,71.16,0,0,0-74.67,60.92,71.26,71.26,0,0,0,13.45,52.57,79.77,79.77,0,0,0,6,7.09,72.49,72.49,0,0,0,13.91,11.16,70.74,70.74,0,0,0,27,9.59c1.88.28,3.84.48,5.75.61A71.4,71.4,0,0,0,419,290.72,70.33,70.33,0,0,0,405.55,238.13ZM406.84,289a59.09,59.09,0,0,1-61.78,50.37c-1.58-.05-3.17-.26-4.74-.46A59.15,59.15,0,0,1,302.37,317l-.89-1.14a58.89,58.89,0,0,1,50.67-93.92c1.58.09,3.21.28,4.8.48A58.92,58.92,0,0,1,406.84,289Z"/><rect class="cls-19" x="194.52" y="345" width="95.07" height="30.36" transform="translate(-167.42 216.48) rotate(-36.76)"/><path class="cls-19" d="M172.29,358.39H227a7.8,7.8,0,0,1,7.8,7.8h0A7.81,7.81,0,0,1,227,374H172.29a7.81,7.81,0,0,1-7.8-7.81h0A7.8,7.8,0,0,1,172.29,358.39Z"/><path class="cls-19" d="M213.49,336.84h34a7.8,7.8,0,0,1,7.8,7.8h0a7.81,7.81,0,0,1-7.8,7.81h-34a7.81,7.81,0,0,1-7.81-7.81h0A7.81,7.81,0,0,1,213.49,336.84Z"/><path class="cls-19" d="M141.9,373.88h17.16a4.3,4.3,0,0,1,4.3,4.3h0a4.3,4.3,0,0,1-4.3,4.3H141.9a4.3,4.3,0,0,1-4.29-4.3h0A4.3,4.3,0,0,1,141.9,373.88Z"/><path class="cls-19" d="M213.05,389H151.94a5.92,5.92,0,0,0,0,11.83h61.11Z"/><path class="cls-19" d="M181.19,373.88h29.13a7.85,7.85,0,0,0-5.52,2.34,7.18,7.18,0,0,0-2.29,5.25,7.58,7.58,0,0,0,7.81,7.53H181.19a7.3,7.3,0,0,0,7.8-7.4A7.72,7.72,0,0,0,181.19,373.88Z"/><path class="cls-9" d="M451.7,398.72,450,393.43l80.91-26.72a2.83,2.83,0,0,1,1.58,0L599,384l39.17-20.46,2.58,4.94-40.12,21a2.81,2.81,0,0,1-2,.22l-66.8-17.36Z"/><path class="cls-9" d="M607.72,387.73a8,8,0,1,1-8.05-8.05A8,8,0,0,1,607.72,387.73Z"/><circle class="cls-9" cx="643.62" cy="368.33" r="8.41"/><path class="cls-9" d="M539.88,372.35a8.05,8.05,0,1,1-8-8.05A8,8,0,0,1,539.88,372.35Z"/><path class="cls-9" d="M460.54,398.42a8.05,8.05,0,1,1-8.05-8.05A8,8,0,0,1,460.54,398.42Z"/><rect class="cls-10" x="285.83" y="416.53" width="58.52" height="5.57"/><rect class="cls-10" x="386.15" y="416.53" width="39.01" height="5.57"/><rect class="cls-10" x="349.92" y="416.53" width="27.87" height="5.57"/><rect class="cls-10" x="369.43" y="402.6" width="55.73" height="5.57"/><rect class="cls-10" x="285.83" y="402.6" width="41.8" height="5.57"/><rect class="cls-10" x="335.99" y="402.6" width="25.08" height="5.57"/><rect class="cls-10" x="285.83" y="388.67" width="58.52" height="5.57"/><rect class="cls-10" x="386.15" y="388.67" width="39.01" height="5.57"/><rect class="cls-10" x="349.92" y="388.67" width="27.87" height="5.57"/><rect class="cls-10" x="369.43" y="374.73" width="55.73" height="5.57"/><rect class="cls-10" x="285.83" y="374.73" width="41.8" height="5.57"/><rect class="cls-10" x="335.99" y="374.73" width="25.08" height="5.57"/><g id="_8._Right_shoe" data-name="8. Right shoe"><path class="cls-20" d="M675.51,589.76a6.11,6.11,0,1,0,7.55-4.2A6.11,6.11,0,0,0,675.51,589.76Z"/><path class="cls-20" d="M657.34,590.93l22.26,6.35a4.43,4.43,0,0,0,5.48-3h0c.67-2.36-.92-8.37-3.28-9l-23.35.22a2.91,2.91,0,0,0-2.06,5A2.35,2.35,0,0,0,657.34,590.93Z"/><path class="cls-5" d="M674.3,588.07h0a1,1,0,0,0,1-1.26l-.55-2.31a1,1,0,0,0-1-.79h0a1,1,0,0,0-1,1.26l.55,2.31A1,1,0,0,0,674.3,588.07Z"/><path class="cls-5" d="M671,588.21h0a1,1,0,0,0,1-1.27l-.55-2.3a1,1,0,0,0-1-.79h0a1,1,0,0,0-1,1.27l.55,2.3A1,1,0,0,0,671,588.21Z"/></g><path class="cls-21" d="M688.1,548.18l.12-.06,33.38-19.68,10,10.82-35,18.57-8.22,35.75-.25,0L678.71,585l6.35-32.76A6,6,0,0,1,688.1,548.18Z"/><g id="_8._Right_shoe-2" data-name="8. Right shoe"><path class="cls-20" d="M755.29,603a5.5,5.5,0,1,0,5.49-5.51A5.5,5.5,0,0,0,755.29,603Z"/><path class="cls-20" d="M739.89,608.53l20.81,0a4,4,0,0,0,4-4h0c0-2.2-2.88-7-5.08-7l-20.12,6a2.61,2.61,0,0,0-.55,4.8A2.2,2.2,0,0,0,739.89,608.53Z"/><path class="cls-5" d="M753.83,601.84h0a.92.92,0,0,0,.51-1.33l-1-1.86a.92.92,0,0,0-1.1-.42h0a.92.92,0,0,0-.51,1.33l1,1.85A.93.93,0,0,0,753.83,601.84Z"/><path class="cls-5" d="M751,602.78h0a.92.92,0,0,0,.51-1.33l-1-1.85a.91.91,0,0,0-1.09-.43h0a.93.93,0,0,0-.52,1.33l1,1.86A.92.92,0,0,0,751,602.78Z"/></g><path class="cls-21" d="M716.77,523.54l22.13-2.42c1.38,1.56,3,6.39,3.53,8.56a12.9,12.9,0,0,1-9.73,15.42c-1.7.38-10.09.51-14-3.33C712.89,536.14,716.77,523.54,716.77,523.54Z"/><path class="cls-21" d="M730.58,535.37h14.24l-5.47,33.89,24,28-12.47,3.51L728,575.05a6,6,0,0,1-1.42-4.86Z"/><path class="cls-22" d="M672.36,521l33-.57a3.93,3.93,0,0,0,3.43-2.16l12.93-25.71-7-3.53-11.87,23.6-30.62.53Z"/><polygon class="cls-23" points="719.46 468.65 720.46 489.47 730.11 489.01 728.72 468.9 728.32 463.18 719.46 468.65"/><g class="cls-24"><path class="cls-25" d="M726.84,475.21s-2.18,5.36-6.74,6.7l-.34-7Z"/></g><path class="cls-23" d="M716.32,481c-.39-.06-1.13-.27-1.51-.37-3.59-1-7.13-6.91-7-10.31.16-4.07.59-6.11.35-8.86-.33-3.78,3.34-6.74,7.13-6.59l7.68.31a5.23,5.23,0,0,1,5,5.44l-.49,12.45C727.33,477.5,720.71,481.68,716.32,481Z"/><path class="cls-25" d="M732.18,483.74a5.45,5.45,0,0,0-3.62-.88l-4.27.5a12.16,12.16,0,0,0-5.55,2.1C723.15,486.74,728.48,486.3,732.18,483.74Z"/><path class="cls-22" d="M738.81,491.94c-.2-3.35-3.17-7.88-6.83-8.32-6.18.87-11.74,1.21-13.83,1.71a12.24,12.24,0,0,0-5.2,11.49l.54,38.52c11.58,8.16,32.77,4.88,32.77,4.88C746.26,523.59,739.19,498.54,738.81,491.94Z"/><path class="cls-22" d="M695.56,520.75l26.94.28a3.91,3.91,0,0,0,3.92-3.34L730.85,488l-7.75-1.16-3.93,26.28-23.53-.25Z"/><path class="cls-20" d="M719.24,485.12c1.77-.42,4.9-.52,9.88-1.13-2.76,6.49-10.22,11.89-12.43,19.49C715.53,502.21,715.65,487.62,719.24,485.12Z"/><path class="cls-26" d="M719.55,486.32c.32-.37,1.35-1.09,1.38-1.48.8-.1.67.21,1.78.1-3,2.8-1.27,7.4-2.47,11.61a23.7,23.7,0,0,0-3.55,6.93c-.64-.7-.89-5.49-.37-10.05A15.23,15.23,0,0,1,719.55,486.32Z"/><path class="cls-27" d="M719.2,487a2.63,2.63,0,0,0,2.51.38c.49-.35,1-2.23,1-2.23l-3.75-.57A6.37,6.37,0,0,0,719.2,487Z"/><path class="cls-22" d="M712.57,462.42c-14.86-3.24-4.16-12.68-4.16-12.68s.3,3.52,3.18,2.37c5.51-2.21,17.49-3.6,20.78,3.59,2.57,5.61-2.2,17.87-3.11,21.06-1.48-.93-.23-15.35-6.33-14.75C719.61,462.34,715.83,463.12,712.57,462.42Z"/><path class="cls-28" d="M714.82,477.87c-3-.13-1.08-5.15.08-5.09S717.86,478,714.82,477.87Z"/><polygon class="cls-5" points="724.58 488.74 732.12 483.72 729.57 480.92 720.59 484.91 724.58 488.74"/><polygon class="cls-5" points="718.31 486.8 718.74 485.13 720.18 483.62 720.8 484.91 718.31 486.8"/><path class="cls-29" d="M725.1,511.62a1.66,1.66,0,0,0-1.66-1.66h-60.2c-1.27,0-2.3.74-2.3,1.66s1,1.66,2.3,1.66h60.2a1.66,1.66,0,0,0,1.66-1.66Z"/><path class="cls-6" d="M727.47,511.62a1.74,1.74,0,0,1-1.8,1.66H702.81a1.66,1.66,0,1,1,0-3.32h22.86A1.73,1.73,0,0,1,727.47,511.62Z"/><rect class="cls-6" x="661.04" y="476.35" width="44.95" height="35.26" rx="2.45"/><rect class="cls-5" x="659.17" y="476.35" width="44.95" height="35.26" rx="2.45"/><path class="cls-6" d="M688.25,494h0a2.58,2.58,0,0,0-2.58-2.58h-8A2.58,2.58,0,0,0,675,494h0a2.59,2.59,0,0,0,2.58,2.58h8A2.59,2.59,0,0,0,688.25,494Z"/><path class="cls-23" d="M698.1,516.82a6.73,6.73,0,0,0-.86-4.56l-10.13-1.7a6.73,6.73,0,1,0,11,6.26Z"/><path class="cls-23" d="M676.72,515a6.65,6.65,0,0,0-1.23-4.47l-10.23-.86A6.73,6.73,0,1,0,676.72,515Z"/><path class="cls-29" d="M315.91,105.32a12.49,12.49,0,1,1-12.49-12.49A12.49,12.49,0,0,1,315.91,105.32Z"/><polygon class="cls-23" points="308 118.64 307.97 130.52 307.94 138.28 298.84 138.26 299.3 119.27 299.43 113.87 308 118.64"/><path class="cls-30" d="M335.76,153.51l-19.52-23.73a4.33,4.33,0,0,0-5.22-1.14c-2.85-1.39-9.91-2.84-14.59-.41-.35.19-.7.39-1,.62a4.32,4.32,0,0,0-5.54,1L270.26,153.6a4.31,4.31,0,0,0-.15,5.3l15,20.52a4.33,4.33,0,1,0,7-5.11l-13-17.8,10.66-12.94c-.32,10.36-1,25.7-1,25.7h28.82l-3.66,5a4.33,4.33,0,0,0,7,5.12l15.05-20.56A4.34,4.34,0,0,0,335.76,153.51Zm-17.64,15-.24-23.05,9.05,11Z"/><path class="cls-6" d="M303.86,145.61c2.16-6.64,4.53-11.28,6.67-17.19-6.54-2.46-12.88-1.09-14.22,0,2.13,5.91,4.5,10.55,6.67,17.19a7.64,7.64,0,0,0,.44,1.24.11.11,0,0,1,0,.05A12.21,12.21,0,0,0,303.86,145.61Z"/><polygon class="cls-26" points="304.2 128.89 303.42 128.89 302.64 128.89 301.16 137.87 302.2 143.34 303.42 146.85 304.64 143.34 305.68 137.87 304.2 128.89"/><path class="cls-23" d="M305.79,95.77h-4.74c-4.19,0-8.11,3.42-7.58,7.58.38,3,0,5.29,0,9.78,0,3.77,4.41,11.07,8.17,11.07h3.56c3.76,0,8.17-7.3,8.17-11.07,0-4.49-.38-6.76,0-9.78C313.9,99.19,310,95.77,305.79,95.77Z"/><path class="cls-28" d="M299.58,117.81a3.91,3.91,0,0,0,7.68,0Z"/><path class="cls-21" d="M308.15,195.77h-9.46a10.77,10.77,0,0,1-10.55-12.88l.57-13.62h29.42l.57,13.62A10.77,10.77,0,0,1,308.15,195.77Z"/><rect class="cls-26" x="282.51" y="159.65" width="43.15" height="26.7" rx="2.93"/><rect class="cls-5" x="282.51" y="160.88" width="43.15" height="26.7" rx="2.93"/><rect class="cls-26" x="297.58" y="172.01" width="13.02" height="4.45" rx="2.2"/><path class="cls-27" d="M304.58,129.4a2.54,2.54,0,0,1-2.45-.06,6,6,0,0,1-.54-2.3l3.66.1S305,129,304.58,129.4Z"/><polygon class="cls-5" points="299.54 131.73 296.44 128 299.02 124.68 303.42 127.07 299.54 131.73"/><polygon class="cls-5" points="307.3 131.73 310.4 128 307.82 124.68 303.42 127.07 307.3 131.73"/><path class="cls-31" d="M308.56,228.06l2.53-9.5h-.18a.92.92,0,0,1,.07-1.84l.6,0,.29-1.07h-.29a.92.92,0,0,1-.86-1.13.91.91,0,0,1,.93-.71l.7,0,1.59-6a3.92,3.92,0,0,1,.27-.33,6,6,0,0,1,.34-.67,5.48,5.48,0,0,1,9.35,5.7l0,0a.08.08,0,0,1,0,0l-10.79,17.7a2.2,2.2,0,0,1-.7.69A2.61,2.61,0,0,1,308.56,228.06Z"/><g id="_8._Right_shoe-3" data-name="8. Right shoe"><path class="cls-29" d="M315.08,214.07a5.47,5.47,0,1,0-1.83-7.52A5.47,5.47,0,0,0,315.08,214.07Z"/><path class="cls-9" d="M311.75,230l10.8-17.71a4,4,0,0,0-1.33-5.45h0c-1.87-1.14-7.44-1.2-8.58.67l-5.38,20.21a2.61,2.61,0,0,0,3.79,3A2.2,2.2,0,0,0,311.75,230Z"/><path class="cls-5" d="M313.33,214.71h0a.92.92,0,0,0-.87-1.12l-2.12-.08a.91.91,0,0,0-.93.71h0a.92.92,0,0,0,.86,1.13l2.12.08A.94.94,0,0,0,313.33,214.71Z"/><path class="cls-5" d="M312.66,217.61h0a.93.93,0,0,0-.87-1.13l-2.12-.07a.91.91,0,0,0-.93.71h0a.93.93,0,0,0,.87,1.13l2.11.08A.93.93,0,0,0,312.66,217.61Z"/></g><path class="cls-21" d="M288.82,180.29l32.8,23.51-10.32,8.85-29.52-22.54a6,6,0,0,1-1.37-8.35l.06-.1A6,6,0,0,1,288.82,180.29Z"/><path class="cls-32" d="M306.35,243.36l.65-9.81.17,0a.91.91,0,0,0,1.18-.79.92.92,0,0,0-.65-1l-.58-.17.08-1.1.27.08a.92.92,0,0,0,1.18-.79.94.94,0,0,0-.65-1l-.68-.2.41-6.17a1.7,1.7,0,0,0-.15-.41,4.9,4.9,0,0,0-.11-.74,5.47,5.47,0,0,0-10.68,2.4.14.14,0,0,1,0,.06s0,0,0,0l4.54,20.23a2.11,2.11,0,0,0,.44.87A2.61,2.61,0,0,0,306.35,243.36Z"/><g id="_8._Right_shoe-4" data-name="8. Right shoe"><path class="cls-20" d="M304.66,228a5.47,5.47,0,1,1,4.15-6.53A5.46,5.46,0,0,1,304.66,228Z"/><path class="cls-9" d="M302.69,244.21,298.15,224a4,4,0,0,1,3-4.74h0c2.14-.48,7.43,1.25,7.91,3.39l-1.38,20.87a2.61,2.61,0,0,1-4.55,1.59A2.21,2.21,0,0,1,302.69,244.21Z"/><path class="cls-5" d="M306.12,229.19h0a.92.92,0,0,1,1.18-.79l2,.61a.91.91,0,0,1,.65,1h0a.91.91,0,0,1-1.18.79l-2-.6A.92.92,0,0,1,306.12,229.19Z"/><path class="cls-5" d="M305.82,232.15h0a.93.93,0,0,1,1.18-.79l2,.61a.91.91,0,0,1,.66,1h0a.92.92,0,0,1-1.18.79l-2-.6A.94.94,0,0,1,305.82,232.15Z"/></g><path class="cls-21" d="M312.58,185.47,297,222.7l12.48,1.5,14.21-34.08a6,6,0,0,0-3.22-7.83l-.11,0A6,6,0,0,0,312.58,185.47Z"/><path class="cls-29" d="M302.85,101c6.35-3.61,10.77-.12,12.67,3.68a12.35,12.35,0,0,0-24.21-.74C295.31,105,298.89,103.2,302.85,101Z"/><path class="cls-33" d="M706,379.31c14.17,0,25.65,9.9,25.65,22.12,0,7.34-4.14,13.84-10.51,17.87l3.61,9.13-8.86-6.58a29.05,29.05,0,0,1-9.89,1.71c-14.16,0-25.65-9.91-25.65-22.13S691.83,379.31,706,379.31Z"/><path class="cls-34" d="M717.21,405.34a3.48,3.48,0,1,1,3.48-3.48A3.48,3.48,0,0,1,717.21,405.34Z"/><path class="cls-34" d="M706,405.34a3.48,3.48,0,1,1,3.48-3.48A3.48,3.48,0,0,1,706,405.34Z"/><path class="cls-34" d="M694.77,405.34a3.48,3.48,0,1,1,3.48-3.48A3.48,3.48,0,0,1,694.77,405.34Z"/><path class="cls-35" d="M768.11,617.13H45.42a4.18,4.18,0,1,1,0-8.36H768.11a4.18,4.18,0,0,1,0,8.36Z"/><path class="cls-10" d="M216.51,256.76l-45.24-29.52a2.6,2.6,0,0,0-2.4-.28,2.56,2.56,0,0,0-1.6,1.81l-3.44,14.12-8.67,2.6,3.92,10,1.84-.53-4,9.15,12.17,3.27Z"/><path class="cls-5" d="M217,256.32a.61.61,0,0,0-.24-.63L168.26,222.3a2.62,2.62,0,0,0-2.41-.29,2.57,2.57,0,0,0-1.6,1.82l-9,37.18a2.62,2.62,0,0,0,.6,2.35,2.56,2.56,0,0,0,2.27.84l58.42-7.44A.61.61,0,0,0,217,256.32Z"/><path class="cls-6" d="M201.73,252.92,157.9,250l-2.74-4.51,5.66-7.55,41.06,14.4a.3.3,0,0,1-.15.58Z"/><path class="cls-10" d="M157.56,259.82s-.38-.36-1-.88-1.36-1.35-2.12-2.14c-1.45-1.61-2.72-3.36-2.72-3.36a1.37,1.37,0,0,1,2.21-1.61s1.2,1.62,2.56,3.11c.7.71,1.32,1.41,1.94,1.94l1,.87a1.39,1.39,0,0,1-1.87,2.07Z"/><path class="cls-10" d="M145.16,240.74s-.67-1.94-1.23-4.08-.86-4.22-.86-4.22a1.3,1.3,0,0,1,1.08-1.49,1.32,1.32,0,0,1,1.5,1.09s.33,2,.83,4,1.21,3.91,1.21,3.91a1.33,1.33,0,0,1-2.51.88h0Z"/><path class="cls-10" d="M143.62,218l.38-1.25a27.43,27.43,0,0,1,1.06-2.83,26.55,26.55,0,0,1,1.42-2.67l.73-1.17a1.23,1.23,0,1,1,2.1,1.3l-.06.1-.64,1a24.8,24.8,0,0,0-1.27,2.41,26.14,26.14,0,0,0-.93,2.55c-.23.74-.37,1.24-.37,1.24a1.27,1.27,0,0,1-2.43-.72Z"/><path class="cls-10" d="M158.53,201.12l1.22-.47c.7-.3,1.81-.63,2.83-1,2.08-.59,4.19-1,4.19-1a1.18,1.18,0,1,1,.42,2.32s-2,.36-3.95.92c-1,.32-1.87.57-2.61.89l-1.22.48a1.18,1.18,0,0,1-1.55-.67,1.2,1.2,0,0,1,.67-1.56Z"/><path class="cls-10" d="M181,198.15l4.16.38,4.22.59a1.12,1.12,0,0,1-.3,2.21H189l-4.07-.54-4.16-.37a1.13,1.13,0,1,1,.19-2.26Z"/><path class="cls-10" d="M203.07,202.29l4,1.26,4,1.41a1,1,0,0,1-.69,2h0l-3.89-1.35-4-1.24a1.07,1.07,0,1,1,.64-2.05Z"/><path class="cls-10" d="M223.94,210.58l3.69,1.95,3.67,2.11a1,1,0,1,1-1,1.72h0l-3.59-2L223,212.38a1,1,0,0,1-.43-1.37,1,1,0,0,1,1.37-.43Z"/><path class="cls-10" d="M242.86,222.69l3.18,2.72,3.09,2.92a.93.93,0,0,1-1.27,1.35l0,0-3-2.81-3.2-2.69a1,1,0,0,1-.11-1.35,1,1,0,0,1,1.34-.11Z"/><path class="cls-10" d="M258,239.35s1.09,1.76,2.08,3.69,1.74,3.9,1.74,3.9a.87.87,0,0,1-1.62.63s-.76-1.9-1.69-3.73-2-3.58-2-3.58a.89.89,0,0,1,.29-1.23.88.88,0,0,1,1.22.29h0Z"/><path class="cls-10" d="M264.43,260.88l-.05,1.31c0,.77-.13,1.85-.24,2.93a8,8,0,0,1-.11.82c0,.25-.09.5-.13.74-.08.48-.16.93-.23,1.32-.13.77-.22,1.28-.22,1.28a.81.81,0,0,1-1.59-.27s.09-.51.22-1.28c.06-.39.14-.84.22-1.33l.12-.74a5.6,5.6,0,0,0,.09-.73c.1-1,.22-2,.22-2.8s0-1.31,0-1.31a.83.83,0,1,1,1.66.06Z"/><path class="cls-10" d="M257.81,282.36l-.86,1a19.78,19.78,0,0,1-2.15,2.09c-.43.35-.89.63-1.31.94a7.12,7.12,0,0,1-1.19.72l-1.22.64a.74.74,0,0,1-.69-1.32l.08,0,1.1-.59a6.07,6.07,0,0,0,1.09-.67c.37-.27.8-.53,1.17-.85a16.48,16.48,0,0,0,2-1.93l.86-1a.76.76,0,0,1,1.08-.08.77.77,0,0,1,.07,1.09Z"/><path class="cls-10" d="M236.93,287.53l-1.18-.57a24.44,24.44,0,0,1-2.57-1.48,28.6,28.6,0,0,1-2.33-1.82l-1-.9a.68.68,0,1,1,.91-1l0,0,.95.84a26.74,26.74,0,0,0,2.2,1.71,23.92,23.92,0,0,0,2.41,1.36l1.18.57a.7.7,0,1,1-.61,1.27Z"/><path class="cls-10" d="M223,270.38l-.22-1.29a25.13,25.13,0,0,1-.31-2.94,24.12,24.12,0,0,1,.11-2.95l.15-1.34a.63.63,0,0,1,.69-.55.63.63,0,0,1,.55.69v.06s0,.5-.13,1.26a23.71,23.71,0,0,0-.09,2.78,22.46,22.46,0,0,0,.31,2.77c.13.78.22,1.29.22,1.29a.64.64,0,1,1-1.27.22Z"/><path class="cls-10" d="M229.82,249.72s.41-.3,1.12-.72a15.1,15.1,0,0,1,2.72-1.26,15.64,15.64,0,0,1,4.26-.78.57.57,0,1,1,0,1.13,14.56,14.56,0,0,0-3.93.74,14.73,14.73,0,0,0-2.47,1.16c-.64.39-1.08.71-1.08.71a.59.59,0,0,1-.69-.95h0Z"/><path class="cls-10" d="M251.11,251.83l1,.82.49.39.55.5,1.13,1c.79.68,1.51,1.47,2.07,2l.93.95a.5.5,0,0,1,0,.71.5.5,0,0,1-.71,0l0,0-.91-.92c-.55-.55-1.24-1.3-2-2l-1.14-1c-.18-.15-.35-.31-.5-.45l-.5-.39-1-.82a.53.53,0,0,1,.66-.83Z"/><path class="cls-10" d="M265.37,269l1.78,3.78,1.48,4a.44.44,0,0,1-.26.57.44.44,0,0,1-.57-.25l0,0-1.46-3.85c-.89-1.89-1.79-3.78-1.79-3.78a.47.47,0,0,1,.84-.4Z"/><path class="cls-10" d="M271,290.61s0,2.08-.17,4.2-.6,4.18-.6,4.18a.38.38,0,0,1-.45.3.38.38,0,0,1-.3-.45s.39-2,.57-4.09.14-4.15.14-4.15a.4.4,0,0,1,.4-.41.42.42,0,0,1,.41.4h0Z"/><path class="cls-10" d="M264.49,311.77a30.91,30.91,0,0,1-2.87,3.09c-.83.66-1.61,1.38-2.29,1.8l-1.09.75a.32.32,0,0,1-.45-.09.32.32,0,0,1,.08-.44l0,0,1.05-.73a26.36,26.36,0,0,0,2.22-1.76,27.11,27.11,0,0,0,1.95-2.05l.85-1a.35.35,0,0,1,.48,0A.37.37,0,0,1,264.49,311.77Z"/><path class="cls-10" d="M244.82,321.15a40.67,40.67,0,0,1-4.2-.21c-2.1-.22-4.15-.67-4.15-.67a.25.25,0,1,1,.1-.5s2,.42,4.1.63a41,41,0,0,0,4.15.18.28.28,0,0,1,.29.28.29.29,0,0,1-.28.29Z"/><path class="cls-10" d="M223.32,315.56l-3.7-1.94L216,311.49a.2.2,0,0,1-.07-.27.19.19,0,0,1,.27-.06l3.61,2.09,3.71,1.92a.23.23,0,0,1,.09.3.21.21,0,0,1-.29.09Z"/><path class="cls-10" d="M204.64,303.41l-3.22-2.67c-1.63-1.32-3.16-2.75-3.16-2.75a.13.13,0,1,1,.18-.2s1.54,1.43,3.16,2.73l3.24,2.65a.17.17,0,0,1,0,.22.16.16,0,0,1-.22,0Z"/><path class="cls-10" d="M188.28,288.27l-5.88-5.94a.08.08,0,0,1,0-.11.09.09,0,0,1,.12,0l5.9,5.9a.11.11,0,0,1,0,.15.1.1,0,0,1-.14,0Z"/><path class="cls-10" d="M172.62,272.41l-5.91-5.91a0,0,0,0,1,0,0h0l5.95,5.88a0,0,0,0,1-.07.07Z"/><path class="cls-23" d="M126.15,404.74c.5-1.33,12.25-32.75,12.25-52h-7c0,18-11.69,49.21-11.8,49.53Z"/><path class="cls-23" d="M156.78,378.92l11.7-19.6a3.49,3.49,0,0,0-1.37-4.87l-18.78-9.88-3.25,6.18,15.52,8.16-9.81,16.43Z"/><path class="cls-22" d="M122.91,282.16a94.67,94.67,0,0,1,6.69-7.35,4.8,4.8,0,0,1,7,.34c19-2.91,22.55,24.2,13.9,31-7,5.47-12.85,1.7-12.85,1.7a24.55,24.55,0,0,1-10,3.88c-3.75.57-8.27-1.89-8.27-1.89A6.56,6.56,0,0,1,110,308c-4.06-5.6,2-11.53,5.14-11.59,0,0-3.82-4.6,1.41-7.65C118.59,287.53,122.91,282.16,122.91,282.16Z"/><path class="cls-23" d="M146.39,315.84a2.75,2.75,0,0,0,.78-4.36,8.67,8.67,0,0,0-6.31-2.8l-.65,0a6.92,6.92,0,0,0-5.53,2.44C135.74,314.36,142.93,317.17,146.39,315.84Z"/><path class="cls-23" d="M142.55,303.67l0,2.81.11,5.29-4.06.07-.13-6.75-.05-2.62A6.78,6.78,0,0,0,142.55,303.67Z"/><g class="cls-24"><path class="cls-25" d="M142.55,303.67l0,2.81a7,7,0,0,1-4.09-1.92l0-2.09A6.78,6.78,0,0,0,142.55,303.67Z"/></g><path class="cls-23" d="M144.81,303.66h0A11.77,11.77,0,0,1,129,298.44l-2.09-4.14a11.8,11.8,0,0,1,5.23-15.82h0A11.77,11.77,0,0,1,148,283.71l2.08,4.14a11.76,11.76,0,0,1-.53,11.53A11.61,11.61,0,0,1,144.81,303.66Z"/><path class="cls-22" d="M131.8,291.47c8.46,1.37,9.39-7.74,8.91-11.49-1-7.84-11.25-6.33-14.84-2.43a20.2,20.2,0,0,0-4.46,17.1c1.7,8.13,10,13.19,10,13.19,9.13-6.69-.3-13.1-.3-13.1Z"/><path class="cls-20" d="M150.12,344.11a11.18,11.18,0,1,1-13.38-8.42A11.17,11.17,0,0,1,150.12,344.11Z"/><path class="cls-28" d="M143.88,297.25a3.15,3.15,0,0,0,5.53-2.78Z"/><path class="cls-36" d="M158.36,349.78c-14.77,12.81-33.09,19.09-33.09,19.09s-3.12-18.74,3.8-26.86c3.47-4.07,21.33,1.85,21.33,1.85Z"/><path class="cls-37" d="M152.33,317.71c.76,2.11-1.37,4.24-3.6,4.48a4,4,0,0,1-4.47-3.59c-.25-2.23,3.07-7.11,4.33-5.25S151.67,315.91,152.33,317.71Z"/><path class="cls-38" d="M134.68,311.09a6.92,6.92,0,0,0-1.65,4.16s1,18.36-4,26.82c-2.17,3.64,21.46,3.53,21.46,3.53l-.63-27.15a9.3,9.3,0,0,0-2.66-7C147.07,315.58,138.65,310.65,134.68,311.09Z"/><path class="cls-39" d="M138.24,317.78c4.2,0,32.49-1.33,48.24-36.21l-6.37-2.87c-14.67,32.52-41,32.14-42.11,32.1l-.25,7Z"/><path class="cls-25" d="M180.3,273.1a5.92,5.92,0,0,1,4-.82l4.8,7.78a6,6,0,1,1-8.84-7Z"/><path class="cls-22" d="M155.37,380.81a4.55,4.55,0,1,1-3.07-5.66A4.55,4.55,0,0,1,155.37,380.81Z"/><path class="cls-22" d="M166.31,388.8l-16.52-4.9a3.31,3.31,0,0,1-2.22-4.11h0c.52-1.74,3.92-4.88,5.67-4.36l14.58,9.46a2.17,2.17,0,0,1-.69,3.95A1.74,1.74,0,0,1,166.31,388.8Z"/><path class="cls-22" d="M125.71,408.61a4.55,4.55,0,1,1-.81-6.38A4.55,4.55,0,0,1,125.71,408.61Z"/><path class="cls-22" d="M133,420,119.4,409.47a3.31,3.31,0,0,1-.6-4.63h0c1.12-1.44,5.43-3.13,6.87-2l10.17,14.1a2.16,2.16,0,0,1-2.06,3.42A1.75,1.75,0,0,1,133,420Z"/><path class="cls-40" d="M143,343.36a27.05,27.05,0,0,0,5.74-.61l-.21-1a26.48,26.48,0,0,1-17-2.07l-.49.87A26.3,26.3,0,0,0,143,343.36Z"/><path class="cls-5" d="M970.11,395.29a75.67,75.67,0,1,1-75.67-75.66A75.67,75.67,0,0,1,970.11,395.29Z"/><circle class="cls-5" cx="980.64" cy="395.29" r="78.17"/><circle class="cls-5" cx="1061.45" cy="395.29" r="57.96"/><circle class="cls-5" cx="1107.63" cy="354.89" r="26.7"/><path class="cls-5" d="M807.32,362.09A28.45,28.45,0,1,0,829,328.2,28.46,28.46,0,0,0,807.32,362.09Z"/><path class="cls-5" d="M1054.67,403.27A42.28,42.28,0,1,1,1012.39,361,42.28,42.28,0,0,1,1054.67,403.27Z"/><circle class="cls-5" cx="908.49" cy="401.41" r="54.85"/><path class="cls-41" d="M898.63,399.14l-27.53-90L871,309a21.73,21.73,0,0,0-20.23-14.53,20.72,20.72,0,0,0-6,.88c-11.16,3.38-17.4,15.51-13.91,27.05l26.19,90.27Z"/><path class="cls-34" d="M863.87,411.21l-27.41-90.52c-2.57-8.51,1.93-17.39,10.06-19.85,7.85-2.38,16.22,2.11,19.09,10.08l27.67,91.38Z"/><polygon class="cls-42" points="871.73 366.37 875.7 379.19 841.35 389.83 844.83 381.71 837.37 377.01 871.73 366.37"/><path class="cls-5" d="M1060.68,316.8h-3.74a17.47,17.47,0,0,1-17.47-17.47h0a17.48,17.48,0,0,1,17.47-17.48h3.74a17.48,17.48,0,0,1,17.47,17.48h0A17.48,17.48,0,0,1,1060.68,316.8Z"/><path class="cls-43" d="M1032.91,257.81c9-13.85,16.66-28,16.66-43.55a83.38,83.38,0,1,0-166.76-.09c0,15.57,7.21,30.1,14.63,42.57h-.32c34.18,53,27.73,77.32,27.73,77.32l41.27,0,41.27,0S1004.84,301,1032.91,257.81Z"/><polygon class="cls-9" points="924.89 326.35 924.88 351.16 940.06 378.52 992.68 378.55 1007.89 351.21 1007.91 326.4 924.89 326.35"/><path class="cls-35" d="M948.39,219.46a10.6,10.6,0,0,0,9.3-6.14,10.21,10.21,0,0,0,8.44,4.8h58.67c5.57,0,10.09-5.16,10.09-11.5s-4.52-11.5-10.09-11.5h-.41a19.2,19.2,0,0,0-3.72-17.5,16.53,16.53,0,0,0-2.39-2.21,12.57,12.57,0,0,0-4.09-2.15,13.22,13.22,0,0,0-3.74-.69,24.3,24.3,0,0,0-4.72-8.35,19.69,19.69,0,0,0-13.13-6.85,18.75,18.75,0,0,0-12.48,3.54,20.61,20.61,0,0,0-3.07-2.5,12.57,12.57,0,0,0-4.9-2.34,18.4,18.4,0,0,0-5.49-.83,19.49,19.49,0,0,0-14.9,7.24,11.89,11.89,0,0,0-5.31-1.71,18.17,18.17,0,0,0-3-.26c-8.66,0-16.26,6-19.31,15.14-7.83.25-14.19,7.31-14.69,16.15a1.94,1.94,0,0,0-.07.33,12.66,12.66,0,0,0-.11,1.73q0,.63.06,1.26h-1.54c-5.56,0-10.09,5.16-10.09,11.5s4.53,11.5,10.09,11.5H943.5A9.61,9.61,0,0,0,948.39,219.46Z"/><path class="cls-5" d="M970.09,167a2,2,0,0,0-1.77,2.08v.24c0,8.36-5.87,15.22-13.21,15.42l-.18-.58a18.48,18.48,0,0,0-9.12-10.73,1.72,1.72,0,0,0-2.36,1.07,2.28,2.28,0,0,0-.15.81,2.09,2.09,0,0,0,1.08,1.88,14.61,14.61,0,0,1,7.21,8.48,17.42,17.42,0,0,1-.17,11.81,2.15,2.15,0,0,0,.94,2.69,1.72,1.72,0,0,0,2.36-1.07A22,22,0,0,0,956,188.74c8.91-.7,15.93-9.19,15.93-19.47,0-.1,0-.2,0-.3A1.93,1.93,0,0,0,970.09,167Z"/><path class="cls-5" d="M1024.8,195.12h-.41a19.2,19.2,0,0,0-3.72-17.5,16.53,16.53,0,0,0-2.39-2.21,12.57,12.57,0,0,0-4.09-2.15,13.22,13.22,0,0,0-3.74-.69,24.3,24.3,0,0,0-4.72-8.35,19.69,19.69,0,0,0-13.13-6.85,18.75,18.75,0,0,0-12.48,3.54,20.61,20.61,0,0,0-3.07-2.5,12.57,12.57,0,0,0-4.9-2.34,18.4,18.4,0,0,0-5.49-.83,19.49,19.49,0,0,0-14.9,7.24,11.89,11.89,0,0,0-5.31-1.71,18.17,18.17,0,0,0-3-.26c-8.66,0-16.26,6-19.31,15.14-7.83.25-14.19,7.31-14.69,16.15a1.94,1.94,0,0,0-.07.33,12.66,12.66,0,0,0-.11,1.73q0,.63.06,1.26h-1.54c-5.56,0-10.09,5.16-10.09,11.5s4.53,11.5,10.09,11.5H943.5a9.61,9.61,0,0,0,4.89,1.35,10.6,10.6,0,0,0,9.3-6.14,10.21,10.21,0,0,0,8.44,4.8h58.67c5.57,0,10.09-5.16,10.09-11.5S1030.37,195.12,1024.8,195.12Zm0,18.9H966.13c-3.85,0-7-3.57-7-8s3.14-8,7-8h5.64c.79,4.61,3.89,8.48,8.15,9.56a1.81,1.81,0,0,0,2.15-1.56,2.07,2.07,0,0,0-1.37-2.44c-3.79-1-6.2-5.26-5.36-9.58a2.23,2.23,0,0,0,0-.68c1-5.72,5.38-10.06,10.67-10.06,5.64,0,10.29,4.92,10.83,11.19l-.59,0c-5.4,0-9.78,5-9.78,11.15a1.81,1.81,0,1,0,3.59,0c0-3.88,2.78-7,6.19-7s6.18,3.17,6.18,7a1.81,1.81,0,1,0,3.59,0,11.39,11.39,0,0,0-5.54-10c-.07-9-6.53-16.37-14.47-16.37-7.46,0-13.61,6.48-14.38,14.76h-5.53c-5.83,0-10.58,5.42-10.58,12.07,0,.25,0,.49,0,.73a3.13,3.13,0,0,0,0,.43c0,4.49-3.2,8.15-7.14,8.15s-7.15-3.66-7.15-8.15a1.81,1.81,0,1,0-3.59,0,13.36,13.36,0,0,0,1.82,6.81h-4.12c-3.85,0-7-3.57-7-8a8.74,8.74,0,0,1,.93-4,2.25,2.25,0,0,0,.31-.55s0,0,0,0a6.79,6.79,0,0,1,5.74-3.43H943a2.07,2.07,0,0,0,0-4.1h-7.61a9.47,9.47,0,0,0-5,1.41,13.64,13.64,0,0,0-.67-3,11.32,11.32,0,0,0-5.6-6.59,1.71,1.71,0,0,0-2.36,1.06,2.32,2.32,0,0,0-.15.81,2.1,2.1,0,0,0,1.08,1.89,7.46,7.46,0,0,1,3.69,4.33,8.89,8.89,0,0,1,0,5.74,13.28,13.28,0,0,0-1.63,6.43,13,13,0,0,0,2.65,8H907.75c-3.58,0-6.49-3.32-6.49-7.4s2.91-7.4,6.49-7.4h2.6a10.71,10.71,0,0,0,7.88,6.49,1.84,1.84,0,0,0,2-1.73,2,2,0,0,0-1.52-2.32,7.09,7.09,0,0,1-5.26-4.44,2.56,2.56,0,0,0-.07-.62,15.11,15.11,0,0,1-.46-3.66c0-6.47,4.1-11.86,9.49-13a1.56,1.56,0,0,0,1,0,10.7,10.7,0,0,1,1.06-.24h0l.72,0a1.64,1.64,0,0,0,.76-.14c4.25.07,8.12,3.35,9.25,8.27a1.78,1.78,0,0,0,2.19,1.46,2.09,2.09,0,0,0,1.29-2.5c-1.37-6-5.72-10.21-10.77-11.14,2.8-6.74,8.73-11.11,15.43-11.11.44,0,.86,0,1.29.06a1.63,1.63,0,0,0,.73.17c.22,0,.44,0,.65,0a15.07,15.07,0,0,1,4.41,1.51,11.44,11.44,0,0,1,4.79,9.37,1.81,1.81,0,1,0,3.59-.06,16.12,16.12,0,0,0-4.15-10.77,16,16,0,0,1,11.94-5.56,15,15,0,0,1,3.42.39,1.74,1.74,0,0,0,.64.22l.52.09a15.93,15.93,0,0,1,3.93,1.88,11.74,11.74,0,0,1,4,10.34,2,2,0,0,0,1.57,2.28,1.87,1.87,0,0,0,2-1.79,16.89,16.89,0,0,0-1.1-8.09c6.68-5.06,15.8-4.07,21.52,2.46a20,20,0,0,1,3.69,6.29,13.15,13.15,0,0,0-6.17,4.58,2.24,2.24,0,0,0-.44,1.34,2.16,2.16,0,0,0,.62,1.55,1.65,1.65,0,0,0,2.54-.21,9,9,0,0,1,10.16-3.34,11,11,0,0,1,2.58,1.4,9,9,0,0,1,.94.82,2,2,0,0,0,.33.25q.36.34.69.72a14.66,14.66,0,0,1,2.43,14.6h-5.61a2.07,2.07,0,0,0,0,4.1h9.86c3.58,0,6.5,3.32,6.5,7.4S1028.38,214,1024.8,214Z"/><rect class="cls-35" x="816.84" y="397.82" width="226.47" height="214.66"/><rect class="cls-9" x="1043.31" y="397.82" width="81.68" height="214.66"/><polygon class="cls-44" points="1004.8 485.73 771.64 485.73 816.67 397.82 1042.77 397.82 1004.8 485.73"/><polygon class="cls-35" points="1159.98 477.55 1077.67 477.55 1043.57 397.82 1125.87 397.82 1159.98 477.55"/><path class="cls-45" d="M1110.16,331.82l63.75-70.51.11-.1a21.73,21.73,0,0,1,24.55-4.22,20.38,20.38,0,0,1,5,3.4c8.56,7.92,8.87,21.56.68,30.4l-63,69.74Z"/><path class="cls-34" d="M1135.75,356.3,1200,286.87c6-6.52,5.87-16.48-.37-22.24-6-5.58-15.5-5.2-21.58.72l-64.84,70.08Z"/><polygon class="cls-46" points="1148.29 312.54 1139.11 322.33 1165.36 346.92 1165.78 338.1 1174.54 337.13 1148.29 312.54"/><path class="cls-47" d="M1271.21,224.78l3.84-3.85,6.39,6.39c1.28,1.29,3.27,2.36,4.4,1.23l5.64-5.64-4.35-4.36c-1.29-1.29-.87-2.25.26-3.38l6.1-6.1c1.13-1.13,2.21-1.66,3.5-.38l4.35,4.36,4.86-4.86c1.12-1.12.84-3.9-.44-5.18l-6.39-6.39,3.06-3.06a3,3,0,0,0,.08-4.31l-7-7a3,3,0,0,0-4.31.1l-3,3.06-5.63-5.63a3.41,3.41,0,0,0-4.63.11l-4.86,4.86,3,3c1.29,1.28,2.08,3.69,1,4.82l-6.11,6.1c-1.12,1.13-3.42.22-4.7-1.06l-3-3-5.64,5.65c-1.13,1.13-.61,2.56.67,3.85l5.63,5.63-3.84,3.84a2.86,2.86,0,0,0,0,4.17l7,6.95A2.88,2.88,0,0,0,1271.21,224.78Z"/><path class="cls-27" d="M1267.73,179.38l-3.91-3.9,6.54-6.55c1.28-1.28,2.77-3.56,1.64-4.69l-5.94-5.94-4.71,4.71c-1.28,1.28-1.66.87-2.78-.26l-6.12-6.1c-1.12-1.13-2.09-2.07-.81-3.35l4.71-4.71-4.71-4.71c-1.12-1.12-3.9-.13-5.17,1.15l-6.55,6.54-3.41-3.41c-1.13-1.12-3.24-1.88-4.53-.6l-7,7c-1.28,1.27-.85,3.72.27,4.85l3.41,3.41-5.43,5.44a2.73,2.73,0,0,0,0,4.05L1228,177l2.8-2.8c1.28-1.28,4.13-2.22,5.26-1.09l6.1,6.1c1.13,1.13-.37,3.42-1.65,4.7l-2.8,2.8,5.94,5.95c1.13,1.12,2.28.77,3.56-.51l5.44-5.44,3.9,3.91a3.11,3.11,0,0,0,4.36-.22l7-7A2.7,2.7,0,0,0,1267.73,179.38Z"/><path class="cls-26" d="M1277.87,199.53l.05,8a1.67,1.67,0,0,1-.49,1.21,1.65,1.65,0,0,1-1.22.49l-7.91-.14.06-3.38,6.17.11,0-6.27Z"/><rect class="cls-26" x="1261.9" y="177" width="3.38" height="35.78" transform="translate(232.21 950.47) rotate(-44.99)"/><path class="cls-26" d="M1256.18,165.32h0l7.91.14-.06,3.38-6.18-.11,0,6.26-3.38,0-.06-8a1.69,1.69,0,0,1,1.69-1.7Z"/><rect class="cls-26" x="1267.14" y="161.77" width="3.38" height="35.78" transform="translate(244.59 949.82) rotate(-45)"/><path class="cls-14" d="M1050.58,331.41c-3.73,0-6.75-4.85-6.73-10.81s3.07-10.78,6.81-10.77,6.76,4.86,6.74,10.82S1054.32,331.43,1050.58,331.41Z"/><path class="cls-14" d="M1083.48,336.49c-4.36-2.5-9.18-8.76-7.34-14.28,4.31-12.9-5.75-17.51-10.72-18.46a15,15,0,0,0-12.14,2.53c-4.5,3.6-3.15,9.81-.64,14.81-2.73,1.57-4,5-2.47,7.46,3.41,5.47.48,12.83-1.56,17.21-3.27,7,1.29,15.78,9.23,19.77s18.26,3.56,26.23,0c4-1.78,7.52-4.36,9.32-7.8C1097.28,350.32,1091.66,341.2,1083.48,336.49Z"/><path class="cls-25" d="M1028.84,385.83a53,53,0,0,1-6,.49,2.76,2.76,0,1,1-.15-5.52c9.69-.27,16.94-3.13,21.55-8.49,7-8.2,5.69-19.59,5.68-19.7a2.76,2.76,0,1,1,5.48-.69c.07.56,1.64,13.95-7,24C1043.85,381.29,1037.26,384.62,1028.84,385.83Z"/><path class="cls-48" d="M1052.05,347.52a4.81,4.81,0,0,0-4.1,5.33c0,.11,1.18,10.7-5.21,18.14-3.12,3.63-7.66,6-13.48,7.09a10.76,10.76,0,0,1,.62,9.61c8.55-1.37,15.33-4.88,20.13-10.46,9.18-10.71,7.51-25,7.44-25.56A4.81,4.81,0,0,0,1052.05,347.52Z"/><path class="cls-23" d="M1052.81,352.22a3,3,0,0,1-.87-4.83,9.65,9.65,0,0,1,7-3.12l.71,0a7.63,7.63,0,0,1,6.14,2.7C1064.62,350.58,1056.64,353.69,1052.81,352.22Z"/><path class="cls-23" d="M1057.48,338.72l-.06,3.12-.12,5.86,4.5.08.15-7.49.06-2.9A7.52,7.52,0,0,1,1057.48,338.72Z"/><g class="cls-24"><path class="cls-25" d="M1057.48,339.46l-.06,3.13a7.84,7.84,0,0,0,4.54-2.13l0-2.33A7.39,7.39,0,0,1,1057.48,339.46Z"/></g><path class="cls-23" d="M1058.6,341.07h0a13.05,13.05,0,0,0,12.93-13.19l-.06-5.13a13,13,0,0,0-13.19-12.93h0A13.05,13.05,0,0,0,1045.35,323l.06,5.14a13,13,0,0,0,13.19,12.92Z"/><path class="cls-22" d="M1048.67,383.56a12.39,12.39,0,1,0,14.83-9.33A12.39,12.39,0,0,0,1048.67,383.56Z"/><path class="cls-28" d="M1057.74,334.28a3.49,3.49,0,0,1-6.87.07Z"/><path class="cls-48" d="M1046.22,354.3c-.84,2.33,1.52,4.69,4,5a4.5,4.5,0,0,0,5-4c.27-2.47-3.41-7.89-4.8-5.83S1047,352.3,1046.22,354.3Z"/><path class="cls-48" d="M1065.79,347a7.61,7.61,0,0,1,1.83,4.62s-1.11,20.36,4.47,29.73l-23.74,2,.64-28.18a10.31,10.31,0,0,1,3-7.72C1052.05,351.93,1061.39,346.46,1065.79,347Z"/><path class="cls-14" d="M1049.8,437.87a4.12,4.12,0,0,0-3.45,2.74c-1,3.19-.66,6.54-2.71,12-1.39,3.7-2.79,4.45-3.78,7.46-.85,2.58,1.52,3.42,3.87,2.51.91-.36,6.69-1.87,6.79-6.49.08-3.37-.31-5.95.76-8.85s2-1.26,2.33-.37c.25.63,1,2.44,1.27,3a.43.43,0,0,0,.55.22h0a.41.41,0,0,0,.24-.57,20.33,20.33,0,0,1-1.15-5.85C1054.25,440.06,1051.79,437.77,1049.8,437.87Z"/><path class="cls-23" d="M1047.51,453.79c1.2-2.7,2.63-11,1.92-12.82-.83-2.15-5.32-2.31-5.59-.38-.48,3.32.9,9.12-1.84,15.34C1042.33,457.56,1046.1,456.94,1047.51,453.79Z"/><path class="cls-22" d="M1064.62,397.71l-29.21,13.58,2.77-6.6L1049,439.77a4,4,0,0,1-7.61,2.65l-13.31-34.21a5.13,5.13,0,0,1,2.56-6.49l.21-.1,29.05-13.91a5.53,5.53,0,1,1,4.78,10Z"/><path class="cls-14" d="M1030.18,426.84a4.17,4.17,0,0,0-4.34.81c-2.39,2.36-3.63,5.48-8,9.33-3,2.61-4.54,2.63-6.82,4.83-2,1.88-.25,3.74,2.24,4,1,.11,6.8,1.47,9.05-2.57,1.63-2.95,2.49-5.41,4.78-7.47s2.36-.19,2.25.75c-.08.67-.24,2.64-.28,3.25a.43.43,0,0,0,.38.45h0a.41.41,0,0,0,.47-.4,20.56,20.56,0,0,1,1.71-5.71C1033.09,430.86,1032,427.68,1030.18,426.84Z"/><path class="cls-23" d="M1020.72,439.85c2.32-1.82,7.46-8.49,7.68-10.44.27-2.29-3.62-4.52-4.77-2.94-2,2.71-3.46,8.48-8.78,12.7C1014.39,440.77,1018,442,1020.72,439.85Z"/><path class="cls-22" d="M1062.57,398.6,1030.4,397l5.53-4.54-6.79,36.07a4,4,0,0,1-8-1.2l4.19-36.47a5.12,5.12,0,0,1,5.28-4.55h.24l32.18,1.25a5.53,5.53,0,1,1-.43,11.05Z"/><path class="cls-23" d="M1064.87,386.32c-1.4.23-2.91.4-4.52.51a2.77,2.77,0,1,1-.36-5.52c5.12-.33,11.57-1.59,13.22-5.71,2.61-6.5-6.37-18.34-9.72-22a2.76,2.76,0,1,1,4.06-3.74c1.57,1.69,15.15,16.89,10.79,27.77C1076.52,382.21,1072,385.11,1064.87,386.32Z"/><path class="cls-48" d="M1069,348.51a4.79,4.79,0,0,0-7.14.1,5,5,0,0,0,.23,6.52c3.81,4.2,11.21,14.7,9.2,19.72a4.66,4.66,0,0,1-2,2.14,4.76,4.76,0,0,0-2.27,5l0,.1a4.7,4.7,0,0,0,6.87,3.31,13.91,13.91,0,0,0,6.25-6.95C1084.94,366.61,1071.73,351.43,1069,348.51Z"/><path class="cls-23" d="M1048.57,383.66a6.58,6.58,0,0,0,1.92,4.15l10.1-.83a6.64,6.64,0,1,0-12-3.32Z"/><path class="cls-25" d="M1014.17,384.9a6.59,6.59,0,0,0,1.75,4.22l10.12-.4a6.64,6.64,0,1,0-11.87-3.82Z"/><path class="cls-14" d="M1073.71,320.14c-1.46,4.18-8,5.67-14.69,3.34s-10.85-7.61-9.39-11.78,8-5.67,14.69-3.34S1075.18,316,1073.71,320.14Z"/><path class="cls-22" d="M1066.73,387.46a1.67,1.67,0,0,0-1.67-1.66h-60.19c-1.26,0-2.29.75-2.29,1.66s1,1.66,2.29,1.66h60.19a1.66,1.66,0,0,0,1.67-1.66Z"/><path class="cls-5" d="M1069.08,387.46a1.73,1.73,0,0,1-1.79,1.66h-22.85a1.66,1.66,0,1,1,0-3.32h22.85A1.73,1.73,0,0,1,1069.08,387.46Z"/><rect class="cls-5" x="1002.67" y="352.21" width="44.94" height="35.25" rx="2.45"/><rect class="cls-9" x="1000.8" y="352.21" width="44.94" height="35.25" rx="2.45"/><path class="cls-5" d="M1029.88,369.83h0a2.59,2.59,0,0,0-2.59-2.58h-8a2.58,2.58,0,0,0-2.58,2.58h0a2.57,2.57,0,0,0,2.58,2.58h8A2.58,2.58,0,0,0,1029.88,369.83Z"/><path class="cls-35" d="M1342.8,617.63H544.38a4.33,4.33,0,1,1,0-8.66H1342.8a4.33,4.33,0,1,1,0,8.66Z"/><path class="cls-49" d="M1348.93,559.11l-.52.25c-5.39,2.58-8.26,2.15-13.51-.28a54.73,54.73,0,0,1-13.55-8.43c-5.08-4.48-9-10.54-9.84-17.27a6.15,6.15,0,0,1,.73-4.39c1.23-1.69,3.75-1.94,5.7-1.18a17.22,17.22,0,0,1,5,3.67,5.9,5.9,0,0,0,2.22,1.42,2.1,2.1,0,0,0,2.35-.79c.7-1.23-.5-2.65-1.59-3.55-2.52-2.1-4.89-3.32-7.53-5.18a25,25,0,0,1-8.22-8.82c-1.82-3.63-2.23-8.13-.33-11.72a7.08,7.08,0,0,1,2.41-2.76c1.85-1.17,4.23-1.11,6.37-.65a59.19,59.19,0,0,0,6.39,1.5c5.15.54,7.17-3.08,7.07-7.82-.07-3.18-1.1-6.27-1.28-9.44-.32-5.59,2.44-11.54,7.5-13.93s12.12-.1,13.93,5.19c2,5.76-2.52,12.22.45,17.72a16.89,16.89,0,0,0,4.87,5.32c2.83,1.74,6.89-.31,10.18-.16a3,3,0,0,1,2,.66,2.72,2.72,0,0,1,.63,1.46,12.16,12.16,0,0,1-3.68,11.1c-3.4,3.1-9.31,4.68-10.75,9.53-.9,3-.51,10.53,4.28,9.77,1.8-.29,3-2.07,4.73-2.65,2.13-.73,4.58.69,5.53,2.73a8.38,8.38,0,0,1-.15,6.57c-1.32,3.31-3.85,6-6.32,8.52C1359,550.78,1355.64,555.8,1348.93,559.11Z"/><rect class="cls-50" x="1340.65" y="489.08" width="2.29" height="117.03"/><polygon class="cls-50" points="1341.8 524.56 1327.41 510.17 1329.03 508.55 1341.8 521.32 1354.57 508.55 1356.19 510.17 1341.8 524.56"/><polygon class="cls-50" points="1341.8 551.83 1327.41 537.44 1329.03 535.82 1341.8 548.58 1354.57 535.82 1356.19 537.44 1341.8 551.83"/><g class="cls-51"><path class="cls-50" d="M1369.79,498.47a3,3,0,0,0-2-.66c-3.29-.15-7.35,1.9-10.18.16a16.89,16.89,0,0,1-4.87-5.32c-2.15-4-.39-8.48,0-12.85a5.86,5.86,0,0,0-4.57,2.21c-1.25,1.71-1.27,4-1,6.14,1.15,9.4,6.66,17.88,13.76,24.15.6.53,1.21,1,1.83,1.54a26.71,26.71,0,0,0,4-2.81,12.16,12.16,0,0,0,3.68-11.1A2.72,2.72,0,0,0,1369.79,498.47Z"/></g><path class="cls-52" d="M1404.89,524.13l-.73.35c-7.54,3.61-11.55,3-18.9-.39a76.68,76.68,0,0,1-18.94-11.79c-7.1-6.27-12.61-14.75-13.76-24.15-.26-2.11-.24-4.43,1-6.14,1.72-2.36,5.25-2.71,8-1.66s4.87,3.18,7,5.13a8.09,8.09,0,0,0,3.1,2,2.92,2.92,0,0,0,3.28-1.1c1-1.72-.7-3.7-2.22-5-3.52-2.94-6.83-4.64-10.53-7.24-4.64-3.27-8.94-7.27-11.49-12.34s-3.12-11.37-.47-16.39a10,10,0,0,1,3.38-3.85c2.59-1.63,5.91-1.55,8.91-.91s5.88,1.78,8.93,2.1c7.2.75,10-4.32,9.89-10.95-.1-4.44-1.53-8.76-1.79-13.19-.45-7.82,3.41-16.14,10.48-19.48s17-.14,19.49,7.26c2.75,8-3.53,17.08.63,24.77a23.46,23.46,0,0,0,6.81,7.44c4,2.44,9.64-.43,14.24-.22a4.14,4.14,0,0,1,2.84.92,3.89,3.89,0,0,1,.89,2.05,17,17,0,0,1-5.15,15.52c-4.76,4.34-13,6.55-15,13.33-1.26,4.21-.71,14.72,6,13.65,2.51-.4,4.19-2.88,6.61-3.7,3-1,6.4,1,7.74,3.82s.94,6.26-.23,9.19c-1.83,4.63-5.37,8.33-8.82,11.92C1418.94,512.47,1414.27,519.5,1404.89,524.13Z"/><rect class="cls-50" x="1393.77" y="426.19" width="2.29" height="179.92"/><polygon class="cls-50" points="1394.91 475.16 1375.12 455.37 1376.74 453.75 1394.91 471.92 1413.09 453.75 1414.71 455.37 1394.91 475.16"/><polygon class="cls-50" points="1394.91 513.3 1375.12 493.5 1376.74 491.88 1394.91 510.05 1413.09 491.88 1414.71 493.5 1394.91 513.3"/><g class="cls-2"><path class="cls-3" d="M1896.21,616.61c0-165.11-133.84-298.95-298.94-298.95s-298.94,133.84-298.94,299Z"/></g><path class="cls-53" d="M1293.85,427.08l-.56.26c-5.76,2.76-8.82,2.3-14.44-.29a59.24,59.24,0,0,1-14.48-9c-5.42-4.79-9.63-11.27-10.51-18.46a6.53,6.53,0,0,1,.77-4.69c1.32-1.8,4-2.07,6.09-1.27s3.72,2.43,5.38,3.92a6,6,0,0,0,2.37,1.52,2.22,2.22,0,0,0,2.5-.83c.75-1.32-.53-2.84-1.7-3.81-2.69-2.24-5.22-3.54-8-5.53-3.55-2.5-6.84-5.55-8.78-9.43s-2.39-8.69-.36-12.52a7.56,7.56,0,0,1,2.58-2.94c2-1.25,4.52-1.19,6.81-.7a64.82,64.82,0,0,0,6.82,1.6c5.51.58,7.67-3.3,7.56-8.36-.07-3.4-1.17-6.7-1.37-10.09-.34-6,2.6-12.33,8-14.88s13-.11,14.9,5.55c2.1,6.15-2.7,13.05.47,18.93a18,18,0,0,0,5.21,5.68c3,1.87,7.36-.32,10.88-.16a3.15,3.15,0,0,1,2.18.7,3,3,0,0,1,.67,1.57,13,13,0,0,1-3.93,11.86c-3.64,3.31-10,5-11.49,10.18-1,3.22-.55,11.25,4.58,10.43,1.92-.3,3.2-2.2,5-2.83,2.28-.77,4.89.75,5.91,2.93a9,9,0,0,1-.17,7c-1.4,3.53-4.1,6.37-6.74,9.1C1304.58,418.17,1301,423.54,1293.85,427.08Z"/><rect class="cls-50" x="1285.17" y="352.24" width="2.11" height="156.66"/><polygon class="cls-50" points="1286.22 389.91 1270.97 374.66 1272.46 373.17 1286.22 386.93 1299.99 373.17 1301.48 374.66 1286.22 389.91"/><polygon class="cls-50" points="1286.22 419.05 1270.97 403.8 1272.46 402.31 1286.22 416.07 1299.99 402.31 1301.48 403.8 1286.22 419.05"/><path class="cls-9" d="M1187,441.93h242.25a2.64,2.64,0,0,1,2.64,2.64V597.51a0,0,0,0,1,0,0H1184.35a0,0,0,0,1,0,0V444.56A2.64,2.64,0,0,1,1187,441.93Z"/><rect class="cls-5" x="1197.04" y="455.93" width="222.14" height="129"/><path class="cls-54" d="M1446.3,604.47H1169.92a42.07,42.07,0,0,0,29.65,12.23h217.08a42.07,42.07,0,0,0,29.65-12.23Z"/><rect class="cls-55" x="1169.92" y="596.7" width="276.38" height="7.77"/><path class="cls-54" d="M1325.21,602.7H1291a2.12,2.12,0,0,1-2.11-2.12h0a2.12,2.12,0,0,1,2.11-2.11h34.21a2.12,2.12,0,0,1,2.12,2.11h0A2.12,2.12,0,0,1,1325.21,602.7Z"/><path class="cls-56" d="M1245.61,495h-26.75a4.48,4.48,0,0,1-4.48-4.48h0a4.48,4.48,0,0,1,4.48-4.49h26.75a4.49,4.49,0,0,1,4.48,4.49h0A4.49,4.49,0,0,1,1245.61,495Z"/><path class="cls-57" d="M1299.43,519.46h-39.22a4.49,4.49,0,0,1-4.48-4.48h0a4.49,4.49,0,0,1,4.48-4.49h39.22a4.48,4.48,0,0,1,4.48,4.49h0A4.48,4.48,0,0,1,1299.43,519.46Z"/><path class="cls-56" d="M1330.18,519.46h-15.12a4.49,4.49,0,0,1-4.49-4.48h0a4.49,4.49,0,0,1,4.49-4.49h15.12a4.49,4.49,0,0,1,4.49,4.49h0A4.49,4.49,0,0,1,1330.18,519.46Z"/><path class="cls-57" d="M1299.43,544h-63.31a4.49,4.49,0,0,1-4.48-4.49h0a4.49,4.49,0,0,1,4.48-4.48h63.31a4.48,4.48,0,0,1,4.48,4.48h0A4.48,4.48,0,0,1,1299.43,544Z"/><path class="cls-57" d="M1316.59,544h84.32a4.49,4.49,0,0,0,4.48-4.49h0a4.49,4.49,0,0,0-4.48-4.48h-84.32a4.49,4.49,0,0,0-4.48,4.48h0A4.49,4.49,0,0,0,1316.59,544Z"/><path class="cls-57" d="M1254.66,568.46h-35.8a4.48,4.48,0,0,1-4.48-4.49h0a4.48,4.48,0,0,1,4.48-4.48h35.8a4.48,4.48,0,0,1,4.48,4.48h0A4.48,4.48,0,0,1,1254.66,568.46Z"/><path class="cls-56" d="M1269.78,568.46h11.71A4.49,4.49,0,0,0,1286,564h0a4.49,4.49,0,0,0-4.48-4.48h-11.71a4.49,4.49,0,0,0-4.49,4.48h0A4.49,4.49,0,0,0,1269.78,568.46Z"/><path class="cls-57" d="M1296.45,568.46h87A4.48,4.48,0,0,0,1388,564h0a4.48,4.48,0,0,0-4.48-4.48h-87A4.49,4.49,0,0,0,1292,564h0A4.49,4.49,0,0,0,1296.45,568.46Z"/><path class="cls-57" d="M1330.18,495h-66.55a4.49,4.49,0,0,1-4.49-4.48h0a4.49,4.49,0,0,1,4.49-4.49h66.55a4.49,4.49,0,0,1,4.49,4.49h0A4.49,4.49,0,0,1,1330.18,495Z"/><path class="cls-57" d="M1345.3,495h23.32a4.49,4.49,0,0,0,4.48-4.48h0a4.49,4.49,0,0,0-4.48-4.49H1345.3a4.48,4.48,0,0,0-4.48,4.49h0A4.48,4.48,0,0,0,1345.3,495Z"/><path class="cls-35" d="M1402.61,163.83H1770a11.43,11.43,0,0,1,11.43,11.43v443a0,0,0,0,1,0,0H1391.18a0,0,0,0,1,0,0v-443A11.43,11.43,0,0,1,1402.61,163.83Z"/><rect class="cls-5" x="1405.47" y="213.83" width="363.19" height="404.44"/><rect class="cls-3" x="1437.78" y="299.41" width="298.57" height="114.79"/><rect class="cls-19" x="1525.06" y="299.41" width="211.38" height="114.79"/><rect class="cls-19" x="1437.8" y="299.41" width="298.64" height="49.06"/><path class="cls-19" d="M1509,381.5h0a5.59,5.59,0,0,1-5.6-5.6V338a5.6,5.6,0,0,1,5.6-5.6h0a5.6,5.6,0,0,1,5.59,5.6V375.9A5.59,5.59,0,0,1,1509,381.5Z"/><path class="cls-19" d="M1487,366.79h0a5.6,5.6,0,0,1-5.6-5.6V338.4a5.6,5.6,0,0,1,5.6-5.59h0a5.6,5.6,0,0,1,5.6,5.59v22.79A5.6,5.6,0,0,1,1487,366.79Z"/><path class="cls-19" d="M1498,325.79a5.6,5.6,0,0,0-5.6,5.6v22.79c0,.13,0,.24,0,.36a5.57,5.57,0,0,1,11.12,0c0-.12,0-.23,0-.36V331.39A5.6,5.6,0,0,0,1498,325.79Z"/><path class="cls-19" d="M1520,329.3a5.6,5.6,0,0,0-5.6,5.6v22.79c0,.13,0,.24,0,.36a5.57,5.57,0,0,1,11.12,0c0-.12,0-.23,0-.36V334.9A5.6,5.6,0,0,0,1520,329.3Z"/><rect class="cls-5" x="1496.85" y="181.28" width="194.72" height="16.07"/><path class="cls-5" d="M1753,183.92h-14.67a1.9,1.9,0,0,1-1.89-1.9h0a1.89,1.89,0,0,1,1.89-1.89H1753a1.89,1.89,0,0,1,1.89,1.89h0A1.9,1.9,0,0,1,1753,183.92Z"/><path class="cls-5" d="M1753,191.2h-14.67a1.89,1.89,0,0,1-1.89-1.89h0a1.89,1.89,0,0,1,1.89-1.89H1753a1.89,1.89,0,0,1,1.89,1.89h0A1.89,1.89,0,0,1,1753,191.2Z"/><path class="cls-5" d="M1753,198.49h-14.67a1.89,1.89,0,0,1-1.89-1.89h0a1.89,1.89,0,0,1,1.89-1.89H1753a1.89,1.89,0,0,1,1.89,1.89h0A1.89,1.89,0,0,1,1753,198.49Z"/><circle class="cls-5" cx="1429.02" cy="189.31" r="7.84"/><circle class="cls-5" cx="1452" cy="189.31" r="7.84"/><circle class="cls-5" cx="1474.99" cy="189.31" r="7.84"/><rect class="cls-56" x="1437.78" y="448.55" width="298.57" height="14.23"/><rect class="cls-56" x="1437.78" y="481.81" width="298.57" height="14.23"/><rect class="cls-56" x="1437.78" y="230.55" width="298.57" height="14.23"/><rect class="cls-56" x="1437.78" y="263.81" width="298.57" height="14.23"/><rect class="cls-56" x="1437.78" y="515.06" width="298.57" height="14.23"/><rect class="cls-56" x="1437.78" y="548.32" width="298.57" height="14.23"/><polygon class="cls-6" points="1731.65 410.05 1731.65 399.32 1726.39 399.32 1726.39 406.17 1723.99 406.17 1723.99 410.84 1719.54 406.68 1715.79 407.98 1715.79 409.36 1712.51 409.36 1712.51 406.65 1709.66 404.89 1703.79 401.29 1696.02 406.08 1679.97 406.08 1672.2 401.29 1666.06 405.06 1663.48 406.65 1663.48 409.36 1660.2 409.36 1660.2 407.98 1656.46 406.68 1652 410.84 1652 406.17 1649.6 406.17 1649.6 399.32 1644.35 399.32 1644.35 410.05 1640.05 410.05 1640.05 414.85 1735.94 414.85 1735.94 410.05 1731.65 410.05"/><rect class="cls-50" x="1366.52" y="313.96" width="2.11" height="303.52"/><rect class="cls-50" x="1414.24" y="313.96" width="2.11" height="303.52"/><rect class="cls-50" x="1367.57" y="357.3" width="47.72" height="2.11"/><rect class="cls-50" x="1367.57" y="336.79" width="47.72" height="2.11"/><rect class="cls-50" x="1367.57" y="377.81" width="47.72" height="2.11"/><rect class="cls-50" x="1367.57" y="398.31" width="47.72" height="2.11"/><rect class="cls-50" x="1367.57" y="418.82" width="47.72" height="2.11"/><rect class="cls-50" x="1367.57" y="439.33" width="47.72" height="2.11"/><rect class="cls-50" x="1367.57" y="459.84" width="47.72" height="2.11"/><rect class="cls-50" x="1367.57" y="480.35" width="47.72" height="2.11"/><rect class="cls-50" x="1367.57" y="500.85" width="47.72" height="2.11"/><rect class="cls-50" x="1367.57" y="521.36" width="47.72" height="2.11"/><rect class="cls-50" x="1367.57" y="541.87" width="47.72" height="2.11"/><rect class="cls-50" x="1367.57" y="562.38" width="47.72" height="2.11"/><rect class="cls-50" x="1367.57" y="582.88" width="47.72" height="2.11"/><rect class="cls-50" x="1367.57" y="603.39" width="47.72" height="2.11"/><path class="cls-58" d="M1287.82,561.21h.07l4.19,0,5.81-17.62a3.93,3.93,0,0,0-.31-3.18l-7.83-13.82h-1.36l-.13,14.68a8.79,8.79,0,0,1,1.67.86,2.8,2.8,0,1,1-4,0,7.51,7.51,0,0,1,1.36-.91l.34-14.64h-1.34l-8,13.73a3.94,3.94,0,0,0-.35,3.2l5.68,17.65Z"/><g class="cls-59"><polygon class="cls-60" points="1283.63 561.18 1287.85 561.2 1287.94 561.21 1292.08 561.23 1294.03 555.32 1281.74 555.32 1283.63 561.18"/></g><rect class="cls-61" x="1278.65" y="558.05" width="18.56" height="33.51"/><rect class="cls-62" x="1287.93" y="558.05" width="9.28" height="33.51"/><path class="cls-63" d="M1321.92,549.18v8a2.64,2.64,0,0,0,2.64,2.65,5.23,5.23,0,0,1,5.23,5.23v21.68a4.78,4.78,0,0,0,5.28,4.76,5,5,0,0,0,4.3-5V565.09a5.23,5.23,0,0,1,5.23-5.23,2.64,2.64,0,0,0,2.64-2.65v-8Zm11,37.27a1.66,1.66,0,1,1,1.66,1.66A1.66,1.66,0,0,1,1332.92,586.45Z"/><rect class="cls-58" x="1321.92" y="524.54" width="25.33" height="18.25" transform="translate(2669.16 1067.33) rotate(180)"/><rect class="cls-58" x="1322.03" y="524.54" width="10.08" height="18.25" transform="translate(2654.13 1067.33) rotate(180)"/><rect class="cls-64" x="1321.92" y="541.7" width="25.33" height="7.48" transform="translate(2669.16 1090.88) rotate(180)"/><rect class="cls-65" x="1321.92" y="542.13" width="25.33" height="1.13" transform="translate(2669.16 1085.38) rotate(180)"/><rect class="cls-65" x="1321.92" y="544.79" width="25.33" height="1.13" transform="translate(2669.16 1090.72) rotate(180)"/><rect class="cls-65" x="1321.92" y="547.46" width="25.33" height="1.13" transform="translate(2669.16 1096.05) rotate(180)"/><path class="cls-9" d="M1334.58,549.18v35.61a1.66,1.66,0,1,0,0,3.32v3.42a4.77,4.77,0,0,1-4.79-4.76V565.09a5.23,5.23,0,0,0-5.23-5.23,2.64,2.64,0,0,1-2.64-2.65v-8Z"/><path class="cls-19" d="M1330.59,524.54v7.16a2,2,0,0,0,2,2h0a2,2,0,0,0,2-2v-2.07a1.65,1.65,0,0,1,1.65-1.65h0a1.65,1.65,0,0,1,1.65,1.65v7.56a1.65,1.65,0,0,0,1.65,1.65h0a1.65,1.65,0,0,0,1.65-1.65v-3.53h0a3.3,3.3,0,0,0,3.3-3.3v-5.82Z"/><g class="cls-51"><path class="cls-66" d="M1321.92,524.54v32.67a2.64,2.64,0,0,0,2.64,2.65,4.81,4.81,0,0,1,.85.09V532.23l-3.05-7.69h-.44Z"/></g><rect class="cls-58" x="1312.66" y="532.23" width="10.43" height="51.48"/><path class="cls-58" d="M1312.66,586.22h10.43a0,0,0,0,1,0,0v2.91a2.43,2.43,0,0,1-2.43,2.43h-5.57a2.43,2.43,0,0,1-2.43-2.43v-2.91A0,0,0,0,1,1312.66,586.22Z"/><rect class="cls-67" x="1312.66" y="583.72" width="10.43" height="2.5"/><rect class="cls-68" x="1312.66" y="532.23" width="5.21" height="51.48"/><path class="cls-69" d="M1317.44,520.16l-4.78,12.07h10.42l-4.78-12.07A.46.46,0,0,0,1317.44,520.16Z"/><path class="cls-67" d="M1317.75,519.41l-1.29,3.25h2.81l-1.29-3.25A.13.13,0,0,0,1317.75,519.41Z"/><g class="cls-51"><path class="cls-66" d="M1293.13,558.05l4.76-14.44a3.93,3.93,0,0,0-.31-3.18l-6.79-12v60.73a2.37,2.37,0,0,0,2.37,2.37h4V558.05Z"/></g><rect class="cls-9" x="1293.12" y="517.93" width="12.56" height="73.63" rx="2.14" transform="translate(2598.81 1109.49) rotate(180)"/><path class="cls-70" d="M1295.49,517.93h4.37v73.63h-4.37a2.37,2.37,0,0,1-2.37-2.37v-68.9A2.37,2.37,0,0,1,1295.49,517.93Z"/><rect class="cls-66" x="1293.12" y="586.61" width="1.57" height="0.81" transform="translate(2587.82 1174.03) rotate(180)"/><rect class="cls-66" x="1293.12" y="583.34" width="1.57" height="0.81" transform="translate(2587.82 1167.49) rotate(180)"/><rect class="cls-66" x="1293.12" y="580.07" width="1.57" height="0.81" transform="translate(2587.82 1160.95) rotate(180)"/><rect class="cls-66" x="1293.12" y="576.8" width="1.57" height="0.81" transform="translate(2587.82 1154.41) rotate(180)"/><rect class="cls-66" x="1293.12" y="573.53" width="3.15" height="0.81" transform="translate(2589.39 1147.86) rotate(180)"/><rect class="cls-66" x="1293.12" y="570.26" width="1.57" height="0.81" transform="translate(2587.82 1141.32) rotate(180)"/><rect class="cls-66" x="1293.12" y="566.99" width="1.57" height="0.81" transform="translate(2587.82 1134.78) rotate(180)"/><rect class="cls-66" x="1293.12" y="563.72" width="1.57" height="0.81" transform="translate(2587.82 1128.24) rotate(180)"/><rect class="cls-66" x="1293.12" y="560.44" width="1.57" height="0.81" transform="translate(2587.82 1121.7) rotate(180)"/><rect class="cls-66" x="1293.12" y="557.17" width="3.15" height="0.81" transform="translate(2589.39 1115.16) rotate(180)"/><rect class="cls-66" x="1293.12" y="553.9" width="1.57" height="0.81" transform="translate(2587.82 1108.62) rotate(180)"/><rect class="cls-66" x="1293.12" y="550.63" width="1.57" height="0.81" transform="translate(2587.82 1102.08) rotate(180)"/><rect class="cls-66" x="1293.12" y="547.36" width="1.57" height="0.81" transform="translate(2587.82 1095.53) rotate(180)"/><rect class="cls-66" x="1293.12" y="544.09" width="1.57" height="0.81" transform="translate(2587.82 1088.99) rotate(180)"/><rect class="cls-66" x="1293.12" y="540.82" width="3.15" height="0.81" transform="translate(2589.39 1082.45) rotate(180)"/><rect class="cls-66" x="1293.12" y="537.55" width="1.57" height="0.81" transform="translate(2587.82 1075.91) rotate(180)"/><rect class="cls-66" x="1293.12" y="534.28" width="1.57" height="0.81" transform="translate(2587.82 1069.37) rotate(180)"/><rect class="cls-66" x="1293.12" y="531.01" width="1.57" height="0.81" transform="translate(2587.82 1062.83) rotate(180)"/><rect class="cls-66" x="1293.12" y="527.74" width="1.57" height="0.81" transform="translate(2587.82 1056.29) rotate(180)"/><rect class="cls-66" x="1293.12" y="524.47" width="3.15" height="0.81" transform="translate(2589.39 1049.75) rotate(180)"/><rect class="cls-66" x="1293.12" y="521.2" width="1.57" height="0.81" transform="translate(2587.82 1043.21) rotate(180)"/><g class="cls-51"><path class="cls-66" d="M1303.5,518v14.52h-1.16v16.1h1.16v42.94a2.35,2.35,0,0,0,2.19-2.33v-68.9A2.35,2.35,0,0,0,1303.5,518Z"/></g><rect class="cls-50" x="1305.83" y="547.81" width="5.54" height="43.75"/><rect class="cls-71" x="1308.6" y="547.81" width="2.77" height="43.75"/><rect class="cls-50" x="1304.67" y="538.17" width="7.46" height="10.41"/><rect class="cls-5" x="1304.67" y="538.17" width="7.46" height="0.67"/><rect class="cls-50" x="1304.67" y="532.48" width="7.46" height="5.69"/><polygon class="cls-64" points="1311.67 520.65 1305.83 515.6 1305.83 532.48 1311.67 532.48 1311.67 520.65"/><polygon class="cls-55" points="1305.83 517.45 1305.83 532.48 1311.67 532.48 1311.67 522.5 1305.83 517.45"/><polygon class="cls-72" points="1308.75 532.48 1311.67 532.48 1311.67 522.5 1308.75 519.97 1308.75 532.48"/><g class="cls-51"><g class="cls-51"><path class="cls-66" d="M1293.16,591.56h10.16a1.16,1.16,0,0,0,.18,0h0a2.34,2.34,0,0,0,1.54-.73s.06-.1.1-.15a2.07,2.07,0,0,0,.55-1.45V570h-27v21.59h14.51Z"/></g><g class="cls-51"><path class="cls-66" d="M1312.66,588.88a2.68,2.68,0,0,0,2.68,2.68h5.06a2.68,2.68,0,0,0,2.68-2.68V570h-10.42v18.91Z"/></g><g class="cls-51"><polygon class="cls-66" points="1311.37 591.56 1311.37 569.97 1305.83 569.97 1305.83 591.56 1308.6 591.56 1311.37 591.56"/></g><g class="cls-51"><path class="cls-66" d="M1329.79,570v16.8a4.62,4.62,0,0,0,.11,1c0,.13.08.26.12.39a5.25,5.25,0,0,0,.17.52c.08.17.18.33.27.49s.12.22.18.31a6,6,0,0,0,.45.55c.05,0,.09.1.14.14a3.87,3.87,0,0,0,.63.52l.06.05a4.73,4.73,0,0,0,3.15.8,5,5,0,0,0,4.3-5V570Zm4.79,18.14a1.66,1.66,0,1,1,1.66-1.66A1.66,1.66,0,0,1,1334.58,588.11Z"/></g></g><path class="cls-58" d="M1277.58,572.3h76.64a0,0,0,0,1,0,0V613a4.47,4.47,0,0,1-4.47,4.47h-72.17a0,0,0,0,1,0,0V572.3A0,0,0,0,1,1277.58,572.3Z"/><path class="cls-73" d="M1269.73,572.3h3.38a4.47,4.47,0,0,1,4.47,4.47v40.71a0,0,0,0,1,0,0h-7.85a0,0,0,0,1,0,0V572.3A0,0,0,0,1,1269.73,572.3Z" transform="translate(2547.31 1189.78) rotate(180)"/><g class="cls-59"><polygon class="cls-60" points="1269.73 581.83 1274.77 581.83 1277.58 572.3 1269.73 574.17 1269.73 581.83"/></g><path class="cls-58" d="M1268.59,578h5.53a1,1,0,0,0,.94-.58l2.52-5.16h-7.85l-2.07,4.24A1,1,0,0,0,1268.59,578Z"/><g class="cls-59"><polygon class="cls-60" points="1354.22 581.83 1354.22 574.17 1277.58 572.3 1281.79 581.83 1354.22 581.83"/></g><path class="cls-58" d="M1356.37,578h-74a1,1,0,0,1-.84-.42l-3.9-5.32h76.64l3,4.08A1,1,0,0,1,1356.37,578Z"/><g class="cls-51"><path class="cls-74" d="M1866.63,455.48H1672.14a4.58,4.58,0,0,0-4.5,4.66V618.27h203.49V460.14A4.58,4.58,0,0,0,1866.63,455.48Z"/></g><path class="cls-75" d="M1683.77,455.62h192.88a9.33,9.33,0,0,1,9.33,9.33V618.27a0,0,0,0,1,0,0H1674.44a0,0,0,0,1,0,0V464.95A9.33,9.33,0,0,1,1683.77,455.62Z"/><path class="cls-19" d="M1886,475.21V459.57a4.68,4.68,0,0,0-4.68-4.68H1679.12a4.68,4.68,0,0,0-4.68,4.68v15.64Z"/><path class="cls-5" d="M1690.3,465.78a2.71,2.71,0,1,1-2.7-2.7A2.7,2.7,0,0,1,1690.3,465.78Z"/><path class="cls-5" d="M1699.31,465.78a2.71,2.71,0,1,1-2.7-2.7A2.7,2.7,0,0,1,1699.31,465.78Z"/><path class="cls-5" d="M1708.33,465.78a2.71,2.71,0,1,1-2.71-2.7A2.71,2.71,0,0,1,1708.33,465.78Z"/><g class="cls-59"><path class="cls-50" d="M1881.3,455.62h-6a4.68,4.68,0,0,1,4.68,4.68v158h6v-158A4.68,4.68,0,0,0,1881.3,455.62Z"/></g><path class="cls-56" d="M1695.58,495.58h-3.35a3.76,3.76,0,0,1-3.76-3.76h0a3.76,3.76,0,0,1,3.76-3.76h3.35a3.77,3.77,0,0,1,3.76,3.76h0A3.76,3.76,0,0,1,1695.58,495.58Z"/><path class="cls-56" d="M1695.58,514.66h-3.35a3.76,3.76,0,0,1-3.76-3.76h0a3.76,3.76,0,0,1,3.76-3.76h3.35a3.77,3.77,0,0,1,3.76,3.76h0A3.76,3.76,0,0,1,1695.58,514.66Z"/><path class="cls-56" d="M1695.58,533.74h-3.35a3.76,3.76,0,0,1-3.76-3.76h0a3.76,3.76,0,0,1,3.76-3.76h3.35a3.77,3.77,0,0,1,3.76,3.76h0A3.76,3.76,0,0,1,1695.58,533.74Z"/><path class="cls-56" d="M1695.58,552.82h-3.35a3.76,3.76,0,0,1-3.76-3.76h0a3.76,3.76,0,0,1,3.76-3.76h3.35a3.77,3.77,0,0,1,3.76,3.76h0A3.76,3.76,0,0,1,1695.58,552.82Z"/><path class="cls-56" d="M1695.58,571.9h-3.35a3.76,3.76,0,0,1-3.76-3.76h0a3.76,3.76,0,0,1,3.76-3.76h3.35a3.77,3.77,0,0,1,3.76,3.76h0A3.76,3.76,0,0,1,1695.58,571.9Z"/><path class="cls-56" d="M1695.58,591h-3.35a3.76,3.76,0,0,1-3.76-3.76h0a3.76,3.76,0,0,1,3.76-3.76h3.35a3.77,3.77,0,0,1,3.76,3.76h0A3.76,3.76,0,0,1,1695.58,591Z"/><path class="cls-56" d="M1695.58,610.06h-3.35a3.76,3.76,0,0,1-3.76-3.76h0a3.76,3.76,0,0,1,3.76-3.76h3.35a3.77,3.77,0,0,1,3.76,3.76h0A3.76,3.76,0,0,1,1695.58,610.06Z"/><path class="cls-56" d="M1860.69,495.58h-3.34a3.76,3.76,0,0,1-3.76-3.76h0a3.76,3.76,0,0,1,3.76-3.76h3.34a3.76,3.76,0,0,1,3.76,3.76h0A3.76,3.76,0,0,1,1860.69,495.58Z"/><path class="cls-49" d="M1860.69,514.66h-3.34a3.76,3.76,0,0,1-3.76-3.76h0a3.76,3.76,0,0,1,3.76-3.76h3.34a3.76,3.76,0,0,1,3.76,3.76h0A3.76,3.76,0,0,1,1860.69,514.66Z"/><path class="cls-52" d="M1860.69,533.74h-3.34a3.76,3.76,0,0,1-3.76-3.76h0a3.76,3.76,0,0,1,3.76-3.76h3.34a3.76,3.76,0,0,1,3.76,3.76h0A3.76,3.76,0,0,1,1860.69,533.74Z"/><path class="cls-49" d="M1860.69,552.82h-3.34a3.76,3.76,0,0,1-3.76-3.76h0a3.76,3.76,0,0,1,3.76-3.76h3.34a3.76,3.76,0,0,1,3.76,3.76h0A3.76,3.76,0,0,1,1860.69,552.82Z"/><path class="cls-76" d="M1860.69,571.9h-3.34a3.76,3.76,0,0,1-3.76-3.76h0a3.76,3.76,0,0,1,3.76-3.76h3.34a3.76,3.76,0,0,1,3.76,3.76h0A3.76,3.76,0,0,1,1860.69,571.9Z"/><path class="cls-49" d="M1860.69,591h-3.34a3.76,3.76,0,0,1-3.76-3.76h0a3.76,3.76,0,0,1,3.76-3.76h3.34a3.76,3.76,0,0,1,3.76,3.76h0A3.76,3.76,0,0,1,1860.69,591Z"/><path class="cls-56" d="M1860.69,610.06h-3.34a3.76,3.76,0,0,1-3.76-3.76h0a3.76,3.76,0,0,1,3.76-3.76h3.34a3.76,3.76,0,0,1,3.76,3.76h0A3.76,3.76,0,0,1,1860.69,610.06Z"/><path class="cls-56" d="M1758.48,495.58h-48.64a3.76,3.76,0,0,1-3.76-3.76h0a3.77,3.77,0,0,1,3.76-3.76h48.64a3.77,3.77,0,0,1,3.77,3.76h0A3.76,3.76,0,0,1,1758.48,495.58Z"/><path class="cls-77" d="M1770.41,495.58h9.91a3.76,3.76,0,0,0,3.76-3.76h0a3.77,3.77,0,0,0-3.76-3.76h-9.91a3.76,3.76,0,0,0-3.76,3.76h0A3.76,3.76,0,0,0,1770.41,495.58Z"/><path class="cls-78" d="M1731.88,514.66h-22a3.76,3.76,0,0,1-3.76-3.76h0a3.77,3.77,0,0,1,3.76-3.76h22a3.76,3.76,0,0,1,3.76,3.76h0A3.76,3.76,0,0,1,1731.88,514.66Z"/><path class="cls-79" d="M1751.39,514.66h65.86a3.76,3.76,0,0,0,3.76-3.76h0a3.76,3.76,0,0,0-3.76-3.76h-65.86a3.76,3.76,0,0,0-3.76,3.76h0A3.76,3.76,0,0,0,1751.39,514.66Z"/><path class="cls-56" d="M1802.52,533.74h-92.68a3.76,3.76,0,0,1-3.76-3.76h0a3.77,3.77,0,0,1,3.76-3.76h92.68a3.77,3.77,0,0,1,3.76,3.76h0A3.76,3.76,0,0,1,1802.52,533.74Z"/><path class="cls-56" d="M1822.88,552.82h-113a3.76,3.76,0,0,1-3.76-3.76h0a3.77,3.77,0,0,1,3.76-3.76h113a3.76,3.76,0,0,1,3.76,3.76h0A3.76,3.76,0,0,1,1822.88,552.82Z"/><path class="cls-79" d="M1802.52,571.9h-34.25a3.76,3.76,0,0,1-3.76-3.76h0a3.76,3.76,0,0,1,3.76-3.76h34.25a3.77,3.77,0,0,1,3.76,3.76h0A3.76,3.76,0,0,1,1802.52,571.9Z"/><path class="cls-56" d="M1754.39,571.9h-44.55a3.76,3.76,0,0,1-3.76-3.76h0a3.77,3.77,0,0,1,3.76-3.76h44.55a3.77,3.77,0,0,1,3.76,3.76h0A3.76,3.76,0,0,1,1754.39,571.9Z"/><path class="cls-56" d="M1780.32,591h-70.48a3.76,3.76,0,0,1-3.76-3.76h0a3.77,3.77,0,0,1,3.76-3.76h70.48a3.77,3.77,0,0,1,3.76,3.76h0A3.76,3.76,0,0,1,1780.32,591Z"/><path class="cls-80" d="M1793,591h22.56a3.76,3.76,0,0,0,3.76-3.76h0a3.76,3.76,0,0,0-3.76-3.76H1793a3.77,3.77,0,0,0-3.77,3.76h0A3.76,3.76,0,0,0,1793,591Z"/><path class="cls-56" d="M1802.52,610.06h-92.68a3.76,3.76,0,0,1-3.76-3.76h0a3.77,3.77,0,0,1,3.76-3.76h92.68a3.77,3.77,0,0,1,3.76,3.76h0A3.76,3.76,0,0,1,1802.52,610.06Z"/><polygon class="cls-58" points="1740.12 592.32 1726.48 591.31 1737.36 578.93 1740.12 592.32"/><polygon class="cls-58" points="1729.3 604.63 1715.66 603.62 1726.54 591.24 1729.3 604.63"/><polygon class="cls-58" points="1755.62 616.86 1718.39 616.87 1750.85 579.93 1755.62 616.86"/><polygon class="cls-68" points="1755.62 616.86 1729.21 604.56 1740.09 592.18 1755.62 616.86"/><polygon class="cls-68" points="1715.66 603.62 1718.39 616.87 1729.15 604.62 1715.66 603.62"/><polygon class="cls-68" points="1726.48 591.31 1729.21 604.56 1739.97 592.31 1726.48 591.31"/><polygon class="cls-68" points="1737.36 578.93 1740.09 592.18 1750.85 579.93 1737.36 578.93"/><path class="cls-81" d="M1696,614a18.33,18.33,0,1,1,2.26-25.82A18.33,18.33,0,0,1,1696,614Z"/><path class="cls-5" d="M1680.66,588.22l.79.94-4.88,4.08c-1.93,1.63-3.32,1.17-4.38-.08a4.07,4.07,0,0,1-.67-1.15l.89-.5a3,3,0,0,0,.52.9c.71.85,1.5,1,2.93-.17Z"/><path class="cls-5" d="M1678.76,596.09l-2.93,1.17-.81-1,9.36-3.63.95,1.13-5.2,8.6-.84-1,1.63-2.69Zm2.74,1.77,1.5-2.47c.33-.56.68-1,1-1.49l0,0c-.52.25-1.07.5-1.63.74l-2.7,1Z"/><path class="cls-5" d="M1681.89,604.48l5.29-8.49.85,1-2.63,4.14c-.72,1.14-1.38,2.16-2.07,3.07v0c1-.5,2.19-1,3.41-1.45l4.64-1.78.84,1-9.47,3.51Z"/><path class="cls-5" d="M1688.37,607.56l-2.92,1.16-.82-1,9.36-3.64,1,1.14-5.2,8.59-.84-1,1.64-2.7Zm2.74,1.77,1.5-2.47c.34-.57.68-1,1-1.5l0,0c-.52.26-1.06.51-1.62.74l-2.71,1Z"/><g class="cls-51"><path class="cls-60" d="M1681.85,600.51a20,20,0,0,0-6.92-15.15,17.08,17.08,0,0,0-4.78,26.36,17.87,17.87,0,0,0,4.7,4A20,20,0,0,0,1681.85,600.51Z"/></g><path class="cls-9" d="M1678.59,598.17a20.11,20.11,0,1,1-20.11-20.11A20.11,20.11,0,0,1,1678.59,598.17Z"/><path class="cls-5" d="M1646.78,594.55V598h4v-3.46h1.08v8.27h-1.08v-3.88h-4v3.88h-1.07v-8.27Z"/><path class="cls-5" d="M1655.29,595.46h-2.52v-.91h6.12v.91h-2.52v7.36h-1.08Z"/><path class="cls-5" d="M1666.79,599.19c-.07-1.15-.14-2.54-.13-3.57h0c-.28,1-.63,2-1.05,3.14l-1.46,4h-.81l-1.33-3.94c-.4-1.16-.73-2.23-1-3.21h0c0,1-.09,2.42-.16,3.66l-.22,3.54h-1l.57-8.27h1.37l1.41,4c.34,1,.62,1.93.83,2.79h0c.21-.84.5-1.75.87-2.79l1.47-4h1.36l.52,8.27h-1Z"/><path class="cls-5" d="M1669.69,594.55h1.07v7.38h3.53v.89h-4.6Z"/><g class="cls-51"><path class="cls-60" d="M1650.81,581.93a18.31,18.31,0,0,0-2.45,33.59,22.14,22.14,0,0,0,2.45-33.59Z"/></g><circle class="cls-82" cx="1631.89" cy="596.06" r="22.21" transform="translate(519.9 1930.9) rotate(-70.27)"/><path class="cls-5" d="M1628.74,603.92a8.08,8.08,0,0,1-2.71,1.92c-3.15,1.47-6.46.59-8.18-3.08a6.14,6.14,0,0,1,3.09-8.61,6.58,6.58,0,0,1,2.89-.75l.21,1.34a5.86,5.86,0,0,0-2.48.59c-2.62,1.23-3.58,3.73-2.21,6.67,1.29,2.74,3.69,3.76,6.41,2.48a6.2,6.2,0,0,0,2.14-1.57Z"/><path class="cls-5" d="M1630.81,592.62l1.82,3.91,3.76-1.76.46,1-3.75,1.75,1.84,3.94-1.06.5L1632,598l-3.75,1.76-.47-1,3.75-1.76-1.83-3.9Z"/><path class="cls-5" d="M1640.71,588l1.83,3.9,3.75-1.76.47,1-3.75,1.76,1.84,3.93-1.07.5-1.84-3.94-3.75,1.76-.47-1,3.75-1.75-1.82-3.91Z"/><g class="cls-51"><path class="cls-60" d="M1611.77,605.48a22.13,22.13,0,0,0,6,7.66,21.81,21.81,0,0,0-2.9-29.68,19.72,19.72,0,0,0-3.06,22Z"/></g><path class="cls-19" d="M1616.63,603.61a21.95,21.95,0,1,1-13.41-28A22,22,0,0,1,1616.63,603.61Z"/><path class="cls-5" d="M1582.64,584.6a20.59,20.59,0,0,1,3.33.89,5.7,5.7,0,0,1,3.27,2.37,3.73,3.73,0,0,1,.18,3.14,4.05,4.05,0,0,1-2,2.43,5.7,5.7,0,0,1-4.49,0,6.23,6.23,0,0,1-1.32-.6l-1.84,5.23-1.68-.59Zm-.53,6.89a5.71,5.71,0,0,0,1.35.63c2,.71,3.62.16,4.25-1.64s-.32-3-2.18-3.64a7.89,7.89,0,0,0-1.63-.43Z"/><path class="cls-5" d="M1594.69,588.67l-1.92,5.46,6.31,2.23,1.93-5.46,1.7.6-4.6,13-1.7-.6,2.15-6.12-6.31-2.22-2.16,6.12-1.68-.6,4.6-13Z"/><path class="cls-5" d="M1605.59,592.69a21.4,21.4,0,0,1,3.32.88,5.7,5.7,0,0,1,3.28,2.38,3.7,3.7,0,0,1,.18,3.13,4.11,4.11,0,0,1-2,2.44,5.77,5.77,0,0,1-4.5,0,6.42,6.42,0,0,1-1.31-.59l-1.84,5.23-1.69-.6Zm-.54,6.88a6.12,6.12,0,0,0,1.35.63c2,.72,3.62.17,4.26-1.63s-.32-3-2.18-3.65a7.15,7.15,0,0,0-1.64-.42Z"/><path class="cls-19" d="M1557.11,598.34a19.56,19.56,0,1,1-19.56-19.55A19.55,19.55,0,0,1,1557.11,598.34Z"/><polygon class="cls-5" points="1535.73 604.44 1529.4 598.12 1531.63 595.88 1535.73 599.98 1543.47 592.23 1545.71 594.47 1535.73 604.44"/><g class="cls-51"><path class="cls-60" d="M1518,598.34a19.48,19.48,0,0,0,7.39,15.29,19.91,19.91,0,0,0,0-30.62A19.52,19.52,0,0,0,1518,598.34Z"/></g><path class="cls-83" d="M1526.93,607a20,20,0,1,1-9.28-26.67A20,20,0,0,1,1526.93,607Z"/><path class="cls-5" d="M1507.94,595.78l2.12-4.38,3.56,1.72-2.12,4.38,4.38,2.12-1.58,3.26-4.38-2.12-2.13,4.41-3.56-1.72,2.13-4.41-4.31-2.09,1.57-3.26Z"/><g class="cls-51"><path class="cls-60" d="M1499.14,580.93a19.94,19.94,0,0,0-.62,34.39,20.31,20.31,0,0,0,.62-34.39Z"/></g><circle class="cls-9" cx="1485.25" cy="597.93" r="20.34"/><path class="cls-5" d="M1478.78,602.13v.14l-1.85,1.82-5.39-5.34v-.35l5.39-5.34,1.85,1.83V595l-3.7,3.56Z"/><path class="cls-5" d="M1490.68,588l-7.83,19.86h-3l7.8-19.86Z"/><path class="cls-5" d="M1495.43,598.59l-3.7-3.56v-.14l1.85-1.83,5.39,5.34v.35l-5.39,5.34-1.85-1.82v-.14Z"/><path class="cls-58" d="M1435.61,600.63h4.9a1.81,1.81,0,0,0,1.8-1.8v-6.25a1.79,1.79,0,0,0-1.8-1.79h-3.83a1.51,1.51,0,0,1-1.4-1c-.14-.36-.28-.71-.44-1.06a1.51,1.51,0,0,1,.28-1.71l2.71-2.71a1.8,1.8,0,0,0,0-2.54l-4.42-4.41a1.8,1.8,0,0,0-2.54,0l-2.73,2.73a1.49,1.49,0,0,1-1.64.31l-1.17-.47a1.48,1.48,0,0,1-.94-1.38v-3.87a1.79,1.79,0,0,0-1.8-1.8h-6.24a1.8,1.8,0,0,0-1.8,1.8v3.83a1.51,1.51,0,0,1-1,1.4c-.38.14-.75.3-1.11.47a1.52,1.52,0,0,1-1.71-.28l-2.72-2.71a1.81,1.81,0,0,0-2.54,0l-4.4,4.43a1.79,1.79,0,0,0,0,2.54l2.74,2.73a1.47,1.47,0,0,1,.31,1.63c-.16.39-.33.81-.47,1.17a1.48,1.48,0,0,1-1.38,1h-3.87a1.79,1.79,0,0,0-1.79,1.8v6.24a1.79,1.79,0,0,0,1.8,1.79h3.84a1.48,1.48,0,0,1,1.4,1c.14.35.29.71.45,1a1.52,1.52,0,0,1-.28,1.71l-2.71,2.72a1.79,1.79,0,0,0,0,2.54l4.42,4.4a1.8,1.8,0,0,0,2.54,0l2.73-2.74a1.47,1.47,0,0,1,1.63-.31l1.18.47a1.48,1.48,0,0,1,.94,1.38v3.87a1.79,1.79,0,0,0,1.79,1.79h6.25a1.78,1.78,0,0,0,1.79-1.8v-3.83a1.51,1.51,0,0,1,1-1.4c.36-.14.71-.29,1.06-.45a1.51,1.51,0,0,1,1.7.28l2.72,2.71a1.8,1.8,0,0,0,2.54,0l4.41-4.42a1.8,1.8,0,0,0,0-2.54l-2.74-2.73a1.49,1.49,0,0,1-.31-1.64C1435.18,601.81,1435.59,600.7,1435.61,600.63Zm-24.86-6.5a8.85,8.85,0,1,1,5.52,9.85A8.86,8.86,0,0,1,1410.75,594.13Z"/><path class="cls-84" d="M1196,569.22h57.17a1.64,1.64,0,0,1,1.64,1.64v45a1.64,1.64,0,0,1-1.64,1.64h-52.45a4.73,4.73,0,0,1-4.73-4.73V569.22A0,0,0,0,1,1196,569.22Z"/><path class="cls-19" d="M1202.36,609.34c-2.08-.07-6.31.36-6.31,4.82V566.92a4.84,4.84,0,0,1,4.84-4.84h1.47Z"/><path class="cls-19" d="M1236.3,597.67h3.12a1.15,1.15,0,0,0,1.14-1.15v-4a1.14,1.14,0,0,0-1.14-1.14H1237a1,1,0,0,1-.89-.63c-.09-.23-.18-.46-.28-.68A.94.94,0,0,1,1236,589l1.72-1.73a1.14,1.14,0,0,0,0-1.62l-2.81-2.81a1.14,1.14,0,0,0-1.62,0l-1.74,1.74a1,1,0,0,1-1,.2l-.74-.3a.94.94,0,0,1-.6-.88v-2.47A1.14,1.14,0,0,0,1228,580h-4a1.14,1.14,0,0,0-1.15,1.14v2.44a1,1,0,0,1-.64.9l-.7.29a1,1,0,0,1-1.09-.17l-1.73-1.73a1.15,1.15,0,0,0-1.62,0l-2.8,2.82a1.14,1.14,0,0,0,0,1.62l1.75,1.73a1,1,0,0,1,.2,1c-.11.25-.21.52-.3.75a.94.94,0,0,1-.88.6h-2.47a1.14,1.14,0,0,0-1.14,1.14v4a1.15,1.15,0,0,0,1.15,1.14h2.44a1,1,0,0,1,.9.64c.08.23.18.45.28.68a1,1,0,0,1-.18,1.08l-1.72,1.73a1.14,1.14,0,0,0,0,1.62l2.82,2.81a1.15,1.15,0,0,0,1.62,0l1.73-1.74a.94.94,0,0,1,1-.2l.75.3a.94.94,0,0,1,.6.88V608a1.16,1.16,0,0,0,1.15,1.15h4a1.14,1.14,0,0,0,1.14-1.15V605.5a1,1,0,0,1,.63-.89l.68-.28a1,1,0,0,1,1.08.17l1.73,1.73a1.15,1.15,0,0,0,1.62,0l2.81-2.82a1.16,1.16,0,0,0,0-1.62l-1.75-1.73a1,1,0,0,1-.2-1C1236,598.42,1236.29,597.71,1236.3,597.67Zm-15.83-4.14a5.64,5.64,0,1,1,3.51,6.27A5.64,5.64,0,0,1,1220.47,593.53Z"/><g class="cls-51"><path class="cls-66" d="M1254.86,616.26V570.44a1.22,1.22,0,0,0-1.22-1.22h-3.89v46.94a1.32,1.32,0,0,0,1.32,1.32h2.57A1.22,1.22,0,0,0,1254.86,616.26Z"/></g><rect class="cls-58" x="1251.33" y="565.34" width="5.36" height="45.47"/><path class="cls-9" d="M1251.33,610.81h5.36a0,0,0,0,1,0,0v4.9a1.77,1.77,0,0,1-1.77,1.77h-1.82a1.77,1.77,0,0,1-1.77-1.77v-4.9A0,0,0,0,1,1251.33,610.81Z"/><rect class="cls-85" x="1251.33" y="565.34" width="2.68" height="45.47"/><path class="cls-69" d="M1253.78,559.13l-2.45,6.21h5.35l-2.46-6.21A.24.24,0,0,0,1253.78,559.13Z"/><path class="cls-67" d="M1253.94,558.75l-.66,1.67h1.45l-.67-1.67A.07.07,0,0,0,1253.94,558.75Z"/><rect class="cls-67" x="1251.33" y="609.52" width="5.36" height="1.28"/><g class="cls-51"><path class="cls-50" d="M1886,596.24l-1.47.61-.87-1.78,2.34-.7v-4l-19.81-47.79-2.82-30a33.81,33.81,0,0,0,4.76-9.75c1.23-3.85.92-9,.51-12.35h1.26v-5h-.64c2.57-4.78,8.11-18.68,12.5-30.64-.15,0-.29,0-.44,0H1846l-1.38,1.54v-1.54h-66.72v19a4.47,4.47,0,0,0,4.47,4.46H1801a5.19,5.19,0,0,0-1.77,1.09l11.1,1.21h5.6l4.88-2.3h18.54c-1.16,3.09-2.13,5.67-2.73,7.24h-2.13v5h.83l-2.14,10.71-.28,1.36-12.31,40-3.91,56h2.93v2.23h-2.74l-4.46,5h-9.17a15.36,15.36,0,0,0-13.7,8.41H1788v3.16h41V614.3h-1.5V600.85h-2.09v-2.23h3.22l9.2-59.32.1-.15h0l5.5-8.27,7.58,21.74L1876,597.36l2-.59,1.16,2.36-1.76.74-2.16,6.38-10.7.19c-5.18,2.17-6.64,2.34-7.1,7.64h-.86v3.16h22.34l7.14-3.05Z"/></g><rect class="cls-86" x="1780.82" y="415.85" width="56.49" height="35.91" rx="1.53" transform="translate(-3.9 850.99) rotate(-26.44)"/><path class="cls-68" d="M1841.64,436.71,1809,431.2a1.89,1.89,0,0,0-2,1l-15.29,29.36a1.89,1.89,0,0,0,1.76.06l47.15-23.45A1.88,1.88,0,0,0,1841.64,436.71Z"/><path class="cls-68" d="M1776.49,430.89l32.63,5.52a1.91,1.91,0,0,0,2-1l15.29-29.35a1.87,1.87,0,0,0-1.75-.07l-47.15,23.45A1.89,1.89,0,0,0,1776.49,430.89Z"/><g class="cls-51"><path class="cls-60" d="M1786.42,425a17.46,17.46,0,0,0,30.09-15Z"/></g><path class="cls-9" d="M1814.28,404.07a17.47,17.47,0,1,1-23.43-7.87A17.48,17.48,0,0,1,1814.28,404.07Z"/><path class="cls-87" d="M1808.19,407.1a10.67,10.67,0,1,1-14.31-4.8A10.67,10.67,0,0,1,1808.19,407.1Z"/><polygon class="cls-5" points="1803.99 416.47 1801.48 417.72 1796.43 407.56 1794.03 408.76 1792.78 406.24 1797.69 403.8 1803.99 416.47"/><rect class="cls-5" x="1806.16" y="414.26" width="47" height="32.93" rx="1.5" transform="matrix(0.86, 0.52, -0.52, 0.86, 485.47, -883.18)"/><path class="cls-88" d="M1835.6,440.35l-21.43-12.93a12.51,12.51,0,1,1,21.43,12.93Z"/><polygon class="cls-21" points="1814.43 435.26 1833.23 430.7 1837.36 449.09 1814.43 435.26"/><polygon class="cls-79" points="1804.88 429.5 1823.69 424.95 1827.81 443.33 1804.88 429.5"/><path class="cls-79" d="M1840.88,428.12l4.24,2.55a.92.92,0,0,1,.31,1.27h0a.91.91,0,0,1-1.26.31l-.27-.15a.79.79,0,0,0-1.09.27h0a.8.8,0,0,0,.27,1.1l4.51,2.72a.77.77,0,0,1,.26,1.05h0a.77.77,0,0,1-1,.26l-13.87-8.36a.78.78,0,0,1-.26-1.06h0a.77.77,0,0,1,1-.26l1,.57a.8.8,0,0,0,1.1-.27h0a.81.81,0,0,0-.28-1.1l-3.92-2.36a.93.93,0,0,1-.31-1.27h0a.91.91,0,0,1,1.26-.31Z"/><path class="cls-52" d="M1788.28,442.66h60.52a0,0,0,0,1,0,0v31.21a4.47,4.47,0,0,1-4.47,4.47h-56.05a0,0,0,0,1,0,0V442.66A0,0,0,0,1,1788.28,442.66Z"/><path class="cls-89" d="M1782.08,442.66h1.73a4.47,4.47,0,0,1,4.47,4.47v31.21a0,0,0,0,1,0,0h-6.2a0,0,0,0,1,0,0V442.66A0,0,0,0,1,1782.08,442.66Z" transform="translate(3570.36 920.99) rotate(180)"/><g class="cls-59"><polygon class="cls-50" points="1782.08 450.18 1786.06 450.18 1788.28 442.66 1782.08 444.14 1782.08 450.18"/></g><path class="cls-52" d="M1781.18,447.19h4.37a.83.83,0,0,0,.74-.46l2-4.07h-6.2l-1.64,3.35A.82.82,0,0,0,1781.18,447.19Z"/><g class="cls-59"><polygon class="cls-50" points="1848.8 450.18 1848.8 444.14 1788.28 442.66 1791.61 450.18 1848.8 450.18"/></g><path class="cls-52" d="M1850.5,447.19H1792a.83.83,0,0,1-.67-.33l-3.08-4.2h60.52l2.37,3.22A.82.82,0,0,1,1850.5,447.19Z"/><rect class="cls-23" x="1823.78" y="596.52" width="5.88" height="6.44"/><rect class="cls-23" x="1882.36" y="593.3" width="5.88" height="6.44" transform="translate(-69.69 893.49) rotate(-26.2)"/><polygon class="cls-21" points="1872.33 487.25 1862.54 508.52 1842.08 539.3 1832.88 598.62 1820.85 598.62 1824.76 542.62 1837.07 502.64 1840.15 487.25 1872.33 487.25"/><g class="cls-51"><path class="cls-50" d="M1866.33,500.29,1838.4,496l-1.33,6.64-1.45,4.73a94.72,94.72,0,0,1,6.56,31.78l20.36-30.63Z"/></g><rect class="cls-23" x="1871.85" y="408.21" width="12.31" height="14.27"/><g class="cls-51"><polygon class="cls-50" points="1884.16 416.09 1871.85 411.61 1871.85 408.21 1884.16 408.21 1884.16 416.09"/></g><path class="cls-62" d="M1869.53,415.34l16.51,4.2v3.08s6.44,8.67,6.16,13.15-17.35,49.8-19.87,51.48h-32.18s12.87-33.85,13.71-37.49c0,0,3.92-18.19,10.92-23.79,0,0,2.18-3.54,4.14-4.57C1868.92,421.4,1870.93,419.26,1869.53,415.34Z"/><path class="cls-90" d="M1871.4,454.43,1861.71,442l8.79-7.59a7.82,7.82,0,0,1,11.07-.22h0a7.84,7.84,0,0,1,.22,11.08Z"/><path class="cls-62" d="M1873,430.19h.9a7.38,7.38,0,0,1,7.38,7.38v13.14a0,0,0,0,1,0,0h-15.67a0,0,0,0,1,0,0V437.57A7.39,7.39,0,0,1,1873,430.19Z" transform="translate(1084.93 -1315.11) rotate(52.58)"/><path class="cls-50" d="M1850.08,460.69c-1.37,3.76-2.95,8-4.44,12l7.27-3.43,18.51-14.91-7.21-9.42Z"/><path class="cls-23" d="M1820.1,480.63l30.31-14.27,18.51-14.91-7.21-9.43-15.12,16.88-27.47,17.17,1.07,1.3-5.53.24c-2.36.1-8.74-.8-11.26,1.81l11.1,1.21Z"/><path class="cls-21" d="M1872.33,487.25s2,9.52,0,15.67a33.81,33.81,0,0,1-4.76,9.75l2.82,30,21.27,51.31-11.5,3.43-24.9-44.74-17.91-51.34,2.8-14Z"/><path class="cls-23" d="M1889,411.33h-17.79a5.05,5.05,0,0,1-5.06-5.06v-5.76h-4.48c-2-15,4.48-19.4,4.48-19.4H1889Z"/><path class="cls-91" d="M1895.82,383.74c-.41-2.56-2-6.72-4.47-8a4.44,4.44,0,0,0-4.09,0c0-1.71-1-3.7-2.81-3.8a8.53,8.53,0,0,0-3.35.73,32.72,32.72,0,0,1-11.7,2.42,14.75,14.75,0,0,1-10.64-4.69,20.35,20.35,0,0,0,1.15,6.87,7.1,7.1,0,0,0,3.87,4.78c3.08,2,5.39.92,8.76,1.1,1.41.08,2.81.37,4.22.44,1.26.06,3-.45,4.17.15,4,2.09-5.21,7.63-5.34,9.51l6.2-3.35c-2.14,2.52-4.39,5.35-4.4,8.65a11.85,11.85,0,0,1,5.51-3q-1,2.08-2,4.17c-.22.46-.37,1.14.09,1.36.66.32,1.54-.94,2-.38a60.34,60.34,0,0,0-2.43,5.81,5.43,5.43,0,0,0,2.18-1.58,10,10,0,0,0,.36,6.33c1.5-.31,2.82,1.06,4.34,1.3s2.26-.79,3.47-1.3a8.38,8.38,0,0,1,5-.25,16,16,0,0,1-1.53-3.27c-.9-3.08.9-5.52,1.22-8.52a99.77,99.77,0,0,0,.41-10.66A29.75,29.75,0,0,0,1895.82,383.74Z"/><rect class="cls-90" x="1838.66" y="485.57" width="35.44" height="5"/><path class="cls-79" d="M1818.53,478.8l-3.68-3.55a1.3,1.3,0,0,1-.57-1.75h0a1.3,1.3,0,0,1,1.75-.58l4.79,2.43a1.3,1.3,0,0,1,.57,1.75h0C1821.07,477.74,1819.17,479.12,1818.53,478.8Z"/><path class="cls-62" d="M1831.75,600.85H1821l-4.46,5h-9.17a15.36,15.36,0,0,0-13.7,8.41h38Z"/><path class="cls-5" d="M1829.66,607.57a3.36,3.36,0,1,1-3.36-3.36A3.35,3.35,0,0,1,1829.66,607.57Z"/><rect class="cls-58" x="1792.21" y="614.3" width="41.04" height="3.16"/><path class="cls-62" d="M1891.41,595.73l-9.87,4.14-2.16,6.38-10.7.19c-5.34,2.24-6.72,2.33-7.14,8.1h19.8l15.28-6.41Z"/><path class="cls-5" d="M1892.09,602.74a3.36,3.36,0,1,1-4.4-1.8A3.36,3.36,0,0,1,1892.09,602.74Z"/><rect class="cls-58" x="1860.72" y="614.08" width="22.34" height="3.16"/><rect class="cls-58" x="1881.75" y="610.92" width="16.69" height="3.16" transform="translate(-88.49 793.69) rotate(-23.19)"/><g class="cls-51"><path class="cls-50" d="M1495.62,351.43a1.49,1.49,0,0,0-.47-.64,1.51,1.51,0,0,0-.74-.3h-.76c0-1,0-2.07-.15-3.11h-.31c0-.28,0-.56,0-.83l-34.65-.25c0,.23,0,.47,0,.71h-.3a37.17,37.17,0,0,0-.06,8h.3c0,.23,0,.47,0,.71l34.65.24h0c0-.19,0-.38,0-.58h.32a35.45,35.45,0,0,0,.22-3.57h.59s0,0,.06,0a.15.15,0,0,1,0,.06s0,0,0,.19l0,1.77,0,7.08v2.32a.38.38,0,0,1,0,.08.25.25,0,0,1,0,.08.78.78,0,0,1-.25.39l-.07.05h0l0,0-.1.05-.41.18-.8.37-1.6.75-6.42,3-6.42,3-.83.38a2.13,2.13,0,0,0-.54.43,2.28,2.28,0,0,0-.34.53,2,2,0,0,0-.18.66v1.37l0,2.67h-1.69v.58a.21.21,0,0,0,.22.22h0a.7.7,0,0,0-.7.67l-.13,2.54-.1,0c-1.16.39-2.3.82-3.43,1.28a5.63,5.63,0,0,0-2.7,1.83,5.11,5.11,0,0,0-.68,2.07,17.77,17.77,0,0,0-.1,4.55l-.07,1.35-.64-.28-26.53,18.39s-15.49-8-23-11.08c-5-2.07-8.12-1.35-9.61-.66l-1.3-6.74c1.77.23,3.53-.18,5.51-.22a7.6,7.6,0,0,0,4-.83c1.49-.95,2.11-2.78,2.63-4.47.35-1.15.7-2.3,1.06-3.45a10.4,10.4,0,0,0,.63-3.34,3.55,3.55,0,0,0-1.33-2.79l1.46-.06a.72.72,0,0,0,.68-.85c-.41-2.14-1.09-4.22-1.46-6.36s.07-4.7-1.5-6.84a7.59,7.59,0,0,0,1-1.3,4,4,0,0,0,.72-2.48,3.51,3.51,0,0,0-2-2.55c-2.44-1.3-4.43-.79-6.88,0a3.53,3.53,0,0,1-3.42-.33,10.44,10.44,0,0,1-.85-1,4.52,4.52,0,0,0-6.28-.42c-1.76,1.61-2.25,2.92-4.57,3.69a9.19,9.19,0,0,0-4.13,2.35v4.52a5.79,5.79,0,0,1,.48,1.42,2.43,2.43,0,0,1-.48,1.72V378c1.17,1.27,1,3,1,4.85a4.57,4.57,0,0,1-1,2.54v3.13a3.2,3.2,0,0,0,3.78.41v.61a.88.88,0,0,0,.88.88h.8l-1.16,9h-1.7l-2.6.94V583.94h4.63v-2.89h-1.23v-.89l-1.19-4.58h-.85v-.73h1.78l3.2-55.41,13.36-36.32,19.76,22.58-15.49,46.95,1.87.1-.6,1.26h-1l-2.67,3.39v2.69h-1v2.16h31.37v-2.16h-.83v-.17a4,4,0,0,0-3.18-3.89l-9.88-2h-7l.45-.94,2,.11,24.84-51.9L1424.92,459l-1.18-2,2.85-36.85L1447,423a3.57,3.57,0,0,0,3-1,3.52,3.52,0,0,0,.65-.88l22.66-25,0,.6a.65.65,0,0,0,.64.68l5.54,0a.65.65,0,0,0,.65-.67l-.13-3.61a2.89,2.89,0,0,0,1.86-2c.34-1.22.07-1.44-.27-2.48-.28-.81.16-1.4-.73-2a.46.46,0,0,1-.16-.15c-.08-.16.06-.34.18-.48a1.87,1.87,0,0,0-1.23-3l-.15-4.28a.7.7,0,0,0-.69-.68h.16a.22.22,0,0,0,.23-.22v-.58h-1.54l0-2.67v-1.28a.64.64,0,0,1,.05-.2.77.77,0,0,1,.29-.32l.77-.37,6.42-3,6.42-3,1.61-.75.8-.37.4-.19.1,0,0,0,.08-.05a1.31,1.31,0,0,0,.3-.2,2.17,2.17,0,0,0,.69-1.08,1.29,1.29,0,0,0,.05-.35.82.82,0,0,0,0-.14V361l.06-7.08v-1.77c0-.08,0-.12,0-.28A1.44,1.44,0,0,0,1495.62,351.43Zm-22.34,43.81-.42-.19a3.29,3.29,0,0,0,.44-.16Z"/></g><path class="cls-5" d="M1491.49,351.83a1.44,1.44,0,0,0-.09-.4,1.49,1.49,0,0,0-.47-.64,1.51,1.51,0,0,0-.74-.3h-.51l-3.54,0v1.34l3.54,0h.37s0,0,.06,0a.15.15,0,0,1,.05.06s0,0,0,.19l0,1.77-.05,7.08v2.4s0,0,0,.08a.78.78,0,0,1-.25.39l-.07.05h0l0,0-.1.05-.4.18-.81.37-1.6.75-6.42,3-6.42,3-.83.38a1.92,1.92,0,0,0-.53.43,2,2,0,0,0-.35.53,2,2,0,0,0-.18.66v1.37l0,3.54h1.34l0-3.54v-1.28a.49.49,0,0,1,.06-.2.7.7,0,0,1,.28-.32l.78-.37,6.41-3,6.42-3,1.61-.75.8-.37.4-.19.1,0,0,0,.08-.05a1.31,1.31,0,0,0,.3-.2,2.17,2.17,0,0,0,.69-1.08,1.29,1.29,0,0,0,.05-.35.82.82,0,0,0,0-.14V361l.06-7.08v-1.77C1491.5,352,1491.5,352,1491.49,351.83Z"/><path class="cls-58" d="M1489.23,355.39h-.69l.06-8h.69A37.17,37.17,0,0,1,1489.23,355.39Z"/><path class="cls-58" d="M1453.91,355h.69l.06-8H1454A37.17,37.17,0,0,0,1453.91,355Z"/><path class="cls-19" d="M1489,346.53a60.72,60.72,0,0,1-.07,9.44l-34.64-.24a59.62,59.62,0,0,1,.06-9.45Z"/><path class="cls-92" d="M1454.08,351c0,1.58,0,3.15.16,4.73l34.64.24c.13-1.57.21-3.14.22-4.72Z"/><path class="cls-58" d="M1469,396.66a.65.65,0,0,0,.64.68l5.54,0a.65.65,0,0,0,.65-.67l-.63-18a.7.7,0,0,0-.69-.68l-3.92,0a.7.7,0,0,0-.7.67Z"/><path class="cls-93" d="M1474.89,377.27v.58a.22.22,0,0,1-.23.22l-4.12,0a.22.22,0,0,1-.22-.22v-.58Z"/><path class="cls-94" d="M1472.67,378.06l-2.09,0a.7.7,0,0,0-.7.67l-.89,18a.65.65,0,0,0,.64.68l2.84,0Z"/><path class="cls-23" d="M1476.41,383.57c-1.6-1.64-4.6.42-6.27,1.11a2.11,2.11,0,0,0,.67-3.18,1,1,0,0,0-.46-.31,1.3,1.3,0,0,0-.7.09c-1.16.39-2.3.82-3.43,1.28a5.63,5.63,0,0,0-2.7,1.83,5.11,5.11,0,0,0-.68,2.07,17.77,17.77,0,0,0-.1,4.55l-.1,1.79c1.11,1.29,2.73,1.35,4.28,2.05a2.7,2.7,0,0,0,1.35.31,3.94,3.94,0,0,0,1.3-.52,11.25,11.25,0,0,1,4.8-1.3,3,3,0,0,0,3.18-2.27c.35-1.22.07-1.44-.27-2.48-.28-.81.16-1.4-.73-2a.46.46,0,0,1-.16-.15c-.08-.16.07-.34.18-.48A1.93,1.93,0,0,0,1476.41,383.57Z"/><rect class="cls-79" x="1383.15" y="570.72" width="5.17" height="7.57"/><rect class="cls-79" x="1412.9" y="549.36" width="5.17" height="7.57" transform="translate(380.36 -559.54) rotate(25.72)"/><path class="cls-23" d="M1382,355.68a2.68,2.68,0,0,0-.26-1.35,2.16,2.16,0,0,0-1.71-.82,9.76,9.76,0,0,1-2-.17,9.89,9.89,0,0,0-1.71-.59c-1.55-.14-2.79,1.82-4.31,1.49-.39-.08-.72-.31-1.1-.42a2.53,2.53,0,0,0-2.82,1.9,7.44,7.44,0,0,0,.19,3.71,21.6,21.6,0,0,0,3,6.18c2.76-.06,3.34.88,6.08,1.15a16.54,16.54,0,0,0,1.08-2.07l.14.09c.12-.63,1.11-1.34,1.52-1.85a10,10,0,0,0,1.63-2.27,6,6,0,0,0,.26-2.35C1382.07,357.43,1382.05,356.56,1382,355.68Z"/><polygon class="cls-23" points="1403.28 400.59 1391.1 400.59 1393.17 384.57 1400.18 384.57 1403.28 400.59"/><polygon class="cls-62" points="1386.8 453.21 1376.75 516.74 1381.77 574.85 1390.1 574.85 1393.3 519.44 1406.66 483.12 1426.42 505.7 1410.93 552.65 1420.37 553.18 1445.21 501.28 1417.34 453.21 1386.8 453.21"/><polygon class="cls-61" points="1391.06 453.21 1386.8 453.21 1376.75 516.74 1381.77 574.85 1382.84 574.85 1381.01 516.74 1391.06 453.21"/><polygon class="cls-90" points="1427.27 504.85 1409.76 480.02 1406.66 483.12 1426.42 505.7 1427.27 504.85"/><g class="cls-51"><polygon class="cls-50" points="1400.18 384.57 1393.17 384.57 1391.9 394.37 1401.46 391.17 1400.18 384.57"/></g><path class="cls-23" d="M1406.2,390.4h-14.58a.88.88,0,0,1-.88-.88V359.21h14.51a11.1,11.1,0,0,1,5.3,1.29c4.83,2.6,3.71,6,4.26,9.12.37,2.14,1,4.22,1.46,6.36a.72.72,0,0,1-.68.85c-1.22,0-3.29.18-3.29.17l.86,5.2A7.06,7.06,0,0,1,1406.2,390.4Z"/><path class="cls-50" d="M1414,376.76c-3.57-2.18-5.73,2.38-8.32,3.49a3,3,0,0,1-3.62-.79,11.82,11.82,0,0,1-1.76-6.1,14,14,0,0,1,1.15-4.81,8.48,8.48,0,0,1,3.77-3.95,4.42,4.42,0,0,1,2.53-.41c1.3.2,1.91.72,3.27.23a7,7,0,0,0,3.32-2.94A4,4,0,0,0,1415,359a3.49,3.49,0,0,0-2-2.55c-2.44-1.3-4.43-.79-6.88,0a3.53,3.53,0,0,1-3.42-.33,10.44,10.44,0,0,1-.85-1,4.52,4.52,0,0,0-6.28-.42c-1.76,1.61-2.25,2.92-4.57,3.69-1.52.51-3.42,1.22-4.36,2.6-1.58,2.31.32,3.53.71,5.69.18,1-.59,1.88-1.15,2.73a7.85,7.85,0,0,0-1.14,5.7,3.89,3.89,0,0,0,1.3,2.4c1.74,1.3,1.52,3.25,1.54,5.32,0,1.73-1.49,2.51-1.56,4-.14,3.26,4.67,3.14,5.7.57,1.32-3.29.24-7.16.31-10.56,0-2,2.1-4.46,4.18-3.06,1.2.82,1.1,2.12,1,3.31-.1,1.83-.11,3.78-.25,5.66-.2,2.82-1.25,6.59,1.78,8.4,2.65,1.52,5.07.64,7.94.58a7.6,7.6,0,0,0,4-.83c1.49-.95,2.11-2.78,2.63-4.47.35-1.15.7-2.3,1.06-3.45a10.4,10.4,0,0,0,.63-3.34A3.49,3.49,0,0,0,1414,376.76Z"/><g class="cls-51"><path class="cls-50" d="M1386.8,453.21l-1.64,10.36c3,0,7,.58,9.63-.51,3.16-1.32,6-4,9.41-3.78a20.7,20.7,0,0,1,4.62,1.36,12.91,12.91,0,0,0,6.53.27c1.91-.41,3.48-1.57,5.35-1.92l-3.36-5.78Z"/></g><path class="cls-95" d="M1401.85,399.39s3.21-3.07,10.68,0,23,11.08,23,11.08L1462,392.08l7.53,3.38-23.2,25.63a3.53,3.53,0,0,1-3.62,1.86l-20.37-2.84L1419.52,457c-1.91.26-3.46,1.49-5.38,1.9a12.45,12.45,0,0,1-6.24-.25,20.24,20.24,0,0,0-4.43-1.31c-3.27-.23-6,2.36-9,3.62s-8,.14-11,.6c-.8-3.77,2.48-8.49,2.07-12.43-.63-6.13-2-12.65-5.59-17.78L1361.26,395l9.08-29.37h8.54l-4.81,24.57,7,12.28,8.54-3.07Z"/><polygon class="cls-52" points="1438.6 410.48 1463.02 392.52 1462.03 392.07 1435.5 410.48 1438.6 410.48"/><path class="cls-52" d="M1387.27,461.46c1.4.06,2.85.12,4.22,0A37.67,37.67,0,0,0,1387.27,461.46Z"/><path class="cls-52" d="M1388.64,449.09c-.63-6.13-2-12.65-5.59-17.78L1364.36,395l7-29.37h-1L1361.26,395,1380,431.31c3.6,5.13,5,11.65,5.59,17.78.41,3.94-2.87,8.66-2.07,12.43a17,17,0,0,1,3.09-.09C1385.83,457.67,1389.05,453,1388.64,449.09Z"/><path class="cls-73" d="M1439.64,419.85,1419.27,417s-1.66,40.21.25,39.95l2.85-36.85,20.37,2.84a3.53,3.53,0,0,0,3.62-1.86S1441.12,420.05,1439.64,419.85Z"/><polygon class="cls-58" points="1390.36 583.94 1381.04 583.94 1381.04 579.76 1382.24 575.58 1389.17 575.58 1390.36 580.16 1390.36 583.94"/><rect class="cls-62" x="1379.65" y="581.05" width="11.94" height="2.89"/><path class="cls-58" d="M1438.05,562.25h-29.52V557.4l2.67-3.39H1425l9.88,2a4,4,0,0,1,3.18,3.89Z"/><rect class="cls-62" x="1407.51" y="560.09" width="31.37" height="2.16"/><path class="cls-96" d="M211.59,485.18a6.63,6.63,0,1,0-6.41-.4"/><path class="cls-96" d="M211.52,500.89a21.88,21.88,0,1,0-6.41-.13"/><path class="cls-96" d="M211.59,498a19,19,0,1,0-6.41-.12"/><path class="cls-96" d="M211.59,494.75a15.82,15.82,0,1,0-6.41-.15"/><path class="cls-96" d="M211.59,491.47a12.6,12.6,0,1,0-6.41-.18"/><path class="cls-96" d="M211.59,488.38a9.62,9.62,0,1,0-6.41-.25"/><line class="cls-96" x1="205.07" y1="501.06" x2="205.07" y2="484.39"/><line class="cls-96" x1="211.48" y1="501.17" x2="211.48" y2="484.71"/><circle class="cls-9" cx="208.81" cy="478.73" r="3.42"/></g></g></g></svg>
