<svg xmlns="http://www.w3.org/2000/svg" xmlns:xlink="http://www.w3.org/1999/xlink" viewBox="0 0 1921.69 667.92"><defs><style>.cls-1{isolation:isolate;}.cls-2{opacity:0.47;}.cls-3{fill:#e0e4f0;}.cls-4{opacity:0.5;}.cls-5{fill:#b0c9f4;}.cls-6{fill:#4563cc;}.cls-37,.cls-7{fill:#f5f7f9;}.cls-25,.cls-8{fill:#fff;}.cls-40,.cls-9{fill:#d1ddff;}.cls-10{fill:#121f55;}.cls-11{fill:#566cd3;}.cls-12,.cls-44{fill:#ff65a7;}.cls-13,.cls-39{fill:#8edef2;}.cls-14{fill:url(#linear-gradient);}.cls-15{fill:#536dfe;}.cls-16{fill:#b9b8f1;}.cls-17{fill:url(#linear-gradient-2);}.cls-18{fill:url(#linear-gradient-3);}.cls-19{fill:#2143af;}.cls-20{fill:#e5e9ff;}.cls-21{fill:#bfd3f7;}.cls-22{fill:#c5d5f9;}.cls-23{fill:url(#linear-gradient-4);}.cls-24,.cls-25,.cls-37,.cls-38,.cls-39,.cls-40,.cls-44{fill-rule:evenodd;}.cls-24{fill:url(#linear-gradient-5);}.cls-26{fill:#4d5068;}.cls-27{fill:#ffcebd;}.cls-28{fill:#2747b3;}.cls-29{fill:#fffeff;}.cls-30{fill:#b8b9f1;}.cls-31{fill:#191c3c;}.cls-32{mix-blend-mode:multiply;}.cls-33{fill:#f99ab6;}.cls-34{fill:url(#linear-gradient-6);}.cls-35{fill:url(#linear-gradient-7);}.cls-36{fill:url(#linear-gradient-8);}.cls-38{fill:url(#linear-gradient-9);}.cls-41{fill:url(#linear-gradient-10);}.cls-42{fill:#dbdbdb;}.cls-43{fill:url(#linear-gradient-11);}.cls-45{fill:url(#linear-gradient-12);}.cls-46{fill:url(#linear-gradient-13);}.cls-47{fill:url(#linear-gradient-14);}.cls-48{fill:url(#linear-gradient-15);}.cls-49{fill:url(#linear-gradient-16);}.cls-50{fill:#61c8e0;}.cls-51{fill:#f7b75d;}.cls-52{fill:url(#linear-gradient-17);}.cls-53{fill:url(#linear-gradient-18);}</style><linearGradient id="linear-gradient" x1="920.36" y1="478.42" x2="953.82" y2="478.42" gradientUnits="userSpaceOnUse"><stop offset="0" stop-color="#fec55e"/><stop offset="1" stop-color="#ffa000"/></linearGradient><linearGradient id="linear-gradient-2" x1="895.53" y1="613.4" x2="920.76" y2="613.4" xlink:href="#linear-gradient"/><linearGradient id="linear-gradient-3" x1="992.57" y1="610.74" x2="1033.26" y2="610.74" xlink:href="#linear-gradient"/><linearGradient id="linear-gradient-4" x1="1336.05" y1="419.99" x2="1390.63" y2="419.99" xlink:href="#linear-gradient"/><linearGradient id="linear-gradient-5" x1="1501.58" y1="318.02" x2="1545.11" y2="318.02" xlink:href="#linear-gradient"/><linearGradient id="linear-gradient-6" x1="1570.87" y1="440.77" x2="1602.05" y2="440.77" xlink:href="#linear-gradient"/><linearGradient id="linear-gradient-7" x1="1553.86" y1="471.7" x2="1597.56" y2="471.7" xlink:href="#linear-gradient"/><linearGradient id="linear-gradient-8" x1="1500.86" y1="451.12" x2="1589.86" y2="451.12" xlink:href="#linear-gradient"/><linearGradient id="linear-gradient-9" x1="1405.78" y1="640.78" x2="1421.5" y2="640.78" gradientTransform="matrix(1, 0, 0, 0.78, -0.68, 146.95)" xlink:href="#linear-gradient"/><linearGradient id="linear-gradient-10" x1="167.68" y1="566.65" x2="206.94" y2="566.65" xlink:href="#linear-gradient"/><linearGradient id="linear-gradient-11" x1="397.06" y1="440.96" x2="465.7" y2="440.96" xlink:href="#linear-gradient"/><linearGradient id="linear-gradient-12" x1="629.94" y1="546.35" x2="674.95" y2="546.35" xlink:href="#linear-gradient"/><linearGradient id="linear-gradient-13" x1="118.07" y1="560.87" x2="250.93" y2="560.87" xlink:href="#linear-gradient"/><linearGradient id="linear-gradient-14" x1="595.33" y1="517.13" x2="615.31" y2="517.13" xlink:href="#linear-gradient"/><linearGradient id="linear-gradient-15" x1="559.69" y1="519.5" x2="572.18" y2="519.5" xlink:href="#linear-gradient"/><linearGradient id="linear-gradient-16" x1="539.64" y1="518.99" x2="569.81" y2="518.99" xlink:href="#linear-gradient"/><linearGradient id="linear-gradient-17" x1="802.33" y1="656.1" x2="844.1" y2="656.1" xlink:href="#linear-gradient"/><linearGradient id="linear-gradient-18" x1="803.73" y1="656.1" x2="845.49" y2="656.1" xlink:href="#linear-gradient"/></defs><title>Thoughts</title><g class="cls-1"><g id="Layer_2" data-name="Layer 2"><g id="Layer_1-2" data-name="Layer 1"><g class="cls-2"><path class="cls-3" d="M1073.69,667.41a520.62,520.62,0,0,0-45-212.35A164.8,164.8,0,0,0,831.37,226.28a520.12,520.12,0,0,0-280.25-81.44q-19.27,0-38.2,1.37A134.6,134.6,0,0,0,306.23,205.7a524.23,524.23,0,0,0-109,77.23A149.18,149.18,0,0,0,48.77,523,523.11,523.11,0,0,0,28.54,667.41Z"/></g><g class="cls-2"><path class="cls-3" d="M1921.69,667.41a520.62,520.62,0,0,0-45-212.35,164.8,164.8,0,0,0-197.34-228.78,520.12,520.12,0,0,0-280.25-81.44q-19.27,0-38.2,1.37a134.6,134.6,0,0,0-206.69,59.49,524.23,524.23,0,0,0-109,77.23A149.18,149.18,0,0,0,896.77,523a523.11,523.11,0,0,0-20.23,144.44Z"/></g><g class="cls-2"><path class="cls-3" d="M508,667.41c0-132.81-107.67-240.47-240.48-240.47S27.09,534.6,27.09,667.41Z"/></g><g class="cls-2"><path class="cls-3" d="M952.05,667.41c0-132.81-107.67-240.47-240.48-240.47S471.1,534.6,471.1,667.41Z"/></g><g class="cls-2"><path class="cls-3" d="M1440.87,667.41c0-132.81-107.66-240.47-240.48-240.47S959.92,534.6,959.92,667.41Z"/></g><g class="cls-2"><path class="cls-3" d="M1921.69,667.41c0-132.81-107.66-240.47-240.47-240.47S1440.74,534.6,1440.74,667.41Z"/></g><g class="cls-4"><circle class="cls-3" cx="720.44" cy="131.33" r="15.82" transform="translate(427.8 802.64) rotate(-76.78)"/></g><g class="cls-4"><circle class="cls-3" cx="1360.44" cy="80.33" r="15.82" transform="translate(971.06 1386.34) rotate(-76.78)"/></g><g class="cls-4"><path class="cls-3" d="M453.92,70.07a20.49,20.49,0,1,1-20.49-20.49A20.49,20.49,0,0,1,453.92,70.07Z"/></g><g class="cls-4"><path class="cls-3" d="M1512.92,85.07a20.49,20.49,0,1,1-20.49-20.49A20.49,20.49,0,0,1,1512.92,85.07Z"/></g><g class="cls-4"><path class="cls-3" d="M1147.92,155.07a20.49,20.49,0,1,1-20.49-20.49A20.49,20.49,0,0,1,1147.92,155.07Z"/></g><g class="cls-4"><path class="cls-3" d="M216.25,204.21a10.44,10.44,0,1,1-10.44-10.44A10.44,10.44,0,0,1,216.25,204.21Z"/></g><g class="cls-4"><circle class="cls-3" cx="310.45" cy="127.5" r="10.44"/></g><g class="cls-4"><circle class="cls-3" cx="1751.45" cy="155.5" r="10.44"/></g><g class="cls-4"><path class="cls-3" d="M816.57,153.1a9.31,9.31,0,1,1-9.31-9.32A9.31,9.31,0,0,1,816.57,153.1Z"/></g><g class="cls-4"><path class="cls-3" d="M517.91,78.47a3.22,3.22,0,1,1-3.21-3.22A3.22,3.22,0,0,1,517.91,78.47Z"/></g><g class="cls-4"><circle class="cls-3" cx="247" cy="162.5" r="4.19"/></g><g class="cls-4"><path class="cls-3" d="M101.2,253.66a5.57,5.57,0,1,1-5.56-5.57A5.57,5.57,0,0,1,101.2,253.66Z"/></g><g class="cls-4"><path class="cls-3" d="M559.58,92.48A5.57,5.57,0,1,1,554,86.91,5.57,5.57,0,0,1,559.58,92.48Z"/></g><g class="cls-4"><path class="cls-3" d="M1222.58,83.48a5.57,5.57,0,1,1-5.57-5.57A5.57,5.57,0,0,1,1222.58,83.48Z"/></g><g class="cls-4"><circle class="cls-3" cx="151.11" cy="236.2" r="23.62" transform="translate(-106.25 347.53) rotate(-80.78)"/></g><g class="cls-4"><circle class="cls-3" cx="1024.11" cy="210.2" r="23.62" transform="translate(652.58 1187.42) rotate(-80.78)"/></g><g class="cls-4"><path class="cls-3" d="M26.12,511.84a5.57,5.57,0,1,1-5.57-5.57A5.57,5.57,0,0,1,26.12,511.84Z"/></g><g class="cls-4"><circle class="cls-3" cx="634.33" cy="116.09" r="22.89"/></g><g class="cls-4"><circle class="cls-3" cx="1628.33" cy="117.09" r="22.89"/></g><g class="cls-4"><circle class="cls-3" cx="899.33" cy="173.09" r="22.89"/></g><g class="cls-4"><circle class="cls-3" cx="18.12" cy="313.71" r="18.12" transform="translate(-118.67 30.81) rotate(-22.5)"/></g><g class="cls-4"><path class="cls-3" d="M1859.25,219.21a10.44,10.44,0,1,1-10.44-10.44A10.44,10.44,0,0,1,1859.25,219.21Z"/></g><path class="cls-5" d="M1341.58,667.41A136,136,0,0,0,1139,620.07a186.7,186.7,0,0,0-139.14-95.14c-2-1.27-4.75-2-8.43-2A128.63,128.63,0,0,1,862.77,394.29l.18-272.8h57.58L816.42,0l-104,121.54,57.62,0-.2,272.77A128.71,128.71,0,0,1,658.67,521.79,186.41,186.41,0,0,0,487.8,637.17a138.73,138.73,0,0,0-149.41,30.24Z"/><path class="cls-6" d="M1624.29,532.81a130.26,130.26,0,0,1,134.17-125.72h.47a130.19,130.19,0,1,1-8.81,260.23l-.48,0A130.24,130.24,0,0,1,1624.29,532.81Z"/><path class="cls-7" d="M1777.65,655.91a19.27,19.27,0,0,1-2.14-3.34c.54-5.67,3-11.23,5.63-16.56.87-1.77,1.75-3.52,2.56-5.24,6.59-11,6.49-17.82,2.66-22.7a17.81,17.81,0,0,0-3.52-3.33c-1.73-.64-3.53-1.28-5.35-1.93s-3.69-1.31-5.55-2a39.74,39.74,0,0,1-6.26-1.35c-29.61-7-6-30.59-.94-49.28a34.92,34.92,0,0,1,2.07-3.94c2.23-3.47,5.51-5.55,15.15-6.57,1.3-.13,2.72-.17,4.21-.21a23.75,23.75,0,0,0,12.14-3.27,21.7,21.7,0,0,1,3.81-6.23,18,18,0,0,1,4.22-3.48,21.85,21.85,0,0,1,4.78-2.1c7.42-8.54,19.2,3.25,26.89-7.39a5.63,5.63,0,0,0-1.1-4.12c-1.11-1.5-3.22-3-7.09-3.94-4.69-1.16-8.44-1.89-11.45-2.48-7.89-1.54-11.85-8.2-19.79-14.14a65.49,65.49,0,0,1-11.35-10.73c-1.57-3.32-2.07-6.49-10.36-10.48-11.22-5.42-21.2,7.48-26.48.07-1.57-2.2.71-5.72,1.66-7.69,1.9-3.94,2.39-8.16,5-11.77a5.71,5.71,0,0,1,2.82-2.11s4.06-.78,5.58-1.86a18,18,0,0,1,11.62-3.05c.33,0,.62.11.92.16h0c6.6,1.27,6.9,12,15,12,9.63,0,8.43-9.28,5-10.52-3.47-2.06-6.78-.63-10.43-.63-4.15,0-12.79-3.81-14.13-3.64-2.17.28-5.08,1.54-7.21,1.95l-6.27.65c-2.65-.09-9.47-9.53-2-14.14,2.26-1.4,12.78-3.54,12.78-3.54,2.93-.15,6-7.48,9.22-6.93,2.4.41,6.33,6.26,18.91,6.91,2.8.14,22.72-4.72,22.31,3.25-.08,1.69,2.09,3.16,3.63,2.95a45.71,45.71,0,0,1,8,.13,129.35,129.35,0,0,0-73.79-26.2h-.3a129.56,129.56,0,0,0-85.3,28.49,21.39,21.39,0,0,0,7.9,4.16,2.38,2.38,0,0,1,1.76,2.31c-.37,4.8-9.08,5.55-6.21,15.48,1.21,4.17,7.69,5.17,11.89,6.41,2,.57,4.24,1.37,4.86,3.6a11.4,11.4,0,0,0,5.84,7.05,9.23,9.23,0,0,1,2.13,1.07l2,1.89a7.77,7.77,0,0,1,1.29,6c-.93,5.62-6.73,5.94-11.12,4.37,0,0-1.89-.8-2.26-1a6.82,6.82,0,0,1-.85-.61,6.31,6.31,0,0,1-1.7-1.54l-.88-.64-6.09-8.5s-6.4-3.88-9,.37a9,9,0,0,1-2.88,3c-1.11.73-10.87,3.71-8.65,1.08,1.23-1.47,2.73-3.76-.68-5.88-3.23-2-6.29,2-7.86,6.52-1.17,3.36-5-3.85-9.1-1.16-.51.33-1.76,5-2,5.36-2,3.17-3.74,2.88-7.25,1.89-1,2.51-2,5.06-2.89,7.64a7.31,7.31,0,0,1,2.22.47c8.12,3.1,13.33-4.73,20.91-1.89,8.57,3.21,9.25-5.52,16.52-6.55,8.81-1.24,8.53,5.09,25.74,6.94,8.19.87,12.33,6.58,19.62,8.75a7.1,7.1,0,0,1,5.11,8.25c1.71,14.59,1.55,39.14-18.94,38.09-6.58-.34-25.12-5.17-28.59,1.48-5.35,10.26-7.16,20.67-8.44,32.11-.62,5.58-6.84,20.75-6.84,20.75-1.76,4.75-2.6,17.63-3.44,18.77a129.83,129.83,0,0,0,94.3,45.69l.29,0a129.83,129.83,0,0,0,39.76-4.85C1784,661.6,1780.18,659.06,1777.65,655.91Z"/><path class="cls-7" d="M1876.09,490.35l-.28.18s-2,.31-2.3,1.52l-.11.57c-.52,2.08-2.34,6.84-8.27,6.91-4.25.05-5.7,4.61-7.09,9-1.16,3.63-2.46,7.74-5.12,9.91-1.52,1.23-2.8,2.4-4,3.49a19.5,19.5,0,0,0-2.82,5.57,27.41,27.41,0,0,0-1.17,6.11,49.57,49.57,0,0,1,2.21,5,41.89,41.89,0,0,1,2.92,7.09,35.29,35.29,0,0,1,1.35,6.74q.38,3.35.48,6.54t-.09,6.26a60.87,60.87,0,0,1-5.49,16.28c-.86,1.73,11,32.93,10.54,35.95a129.5,129.5,0,0,0,19.22-127.17Z"/><path class="cls-8" d="M1859.25,618.48a21.43,21.43,0,0,0-12.24,3.75,15.87,15.87,0,0,0-9.29-5.2,22.11,22.11,0,0,0,.23-3.17,21.58,21.58,0,0,0-43.16,0,21.85,21.85,0,0,0,.61,5.1,22.09,22.09,0,0,0-26.55,21.25h112A21.77,21.77,0,0,0,1859.25,618.48Z"/><rect class="cls-9" x="861.92" y="417.31" width="214.11" height="245.09" rx="17.44"/><rect class="cls-10" x="867.72" y="454.12" width="199.73" height="170.74" transform="translate(1507.07 -428.1) rotate(90)"/><path class="cls-11" d="M978.86,653.15H956.31a3.23,3.23,0,0,1-3.22-3.23h0a3.22,3.22,0,0,1,3.22-3.22h22.55a3.22,3.22,0,0,1,3.22,3.22h0A3.23,3.23,0,0,1,978.86,653.15Z"/><path class="cls-12" d="M920.76,507.61H895.53V455.09h25.23Z"/><path class="cls-6" d="M974.44,507.61H949.21V455.09h25.23Z"/><path class="cls-13" d="M993.22,507.61H968V455.09h25.23Z"/><path class="cls-11" d="M1018.93,506.58,998.06,492.4,1027.59,449l20.87,14.18Z"/><path class="cls-14" d="M934.23,506.43l-13.87-50.65L940,450.42l13.87,50.65Z"/><path class="cls-11" d="M1047.2,577.92H1022V525.4h25.23Z"/><path class="cls-12" d="M993.53,577.92H968.3V525.4h25.23Z"/><path class="cls-13" d="M974.74,577.92H949.51V525.4h25.23Z"/><path class="cls-15" d="M915.14,580.47l-20.86-14.18,29.52-43.44L944.67,537Z"/><path class="cls-8" d="M1002.78,582.6,988.91,532l19.6-5.37,13.87,50.66Z"/><rect class="cls-16" x="882.22" y="502.17" width="170.74" height="6.44"/><rect class="cls-16" x="882.22" y="574.92" width="170.74" height="6.44"/><path class="cls-17" d="M920.76,639.66H895.53V587.14h25.23Z"/><path class="cls-18" d="M1033.26,631.59l-23.9,8.07-16.79-49.77,23.91-8.06Z"/><path class="cls-6" d="M974.44,639.66H949.21V587.14h25.23Z"/><path class="cls-12" d="M993.22,639.66H968V587.14h25.23Z"/><path class="cls-15" d="M940.35,639.75l-19.59-5.36,13.87-50.65,19.59,5.36Z"/><rect class="cls-19" x="1487.76" y="451.96" width="162.59" height="210.44"/><rect class="cls-19" x="1324.42" y="451.96" width="163.34" height="210.44"/><rect class="cls-8" x="1487.76" y="463.64" width="144.54" height="187.08"/><rect class="cls-8" x="1342.54" y="463.64" width="144.54" height="187.08"/><polygon class="cls-13" points="1602.47 451.96 1602.47 526.53 1590.19 518.78 1577.9 526.53 1577.9 451.96 1602.47 451.96"/><rect class="cls-5" x="1182.31" y="583.34" width="105.45" height="79.01"/><path class="cls-9" d="M1455.24,264.68H1014.82A14,14,0,0,0,1001,278.84V558.31h468.07V278.84A14,14,0,0,0,1455.24,264.68Z"/><rect class="cls-20" x="1023.47" y="285.49" width="423.69" height="251.85"/><path class="cls-21" d="M1001,555.55v18.14a14,14,0,0,0,13.82,14.15h440.42a14,14,0,0,0,13.83-14.15V555.55Z"/><rect class="cls-22" x="1240.07" y="486.43" width="172.14" height="35.46"/><rect class="cls-22" x="1067.14" y="486.43" width="172.94" height="35.46"/><rect class="cls-8" x="1240.07" y="301.1" width="172.14" height="185.34"/><rect class="cls-7" x="1067.14" y="301.1" width="172.94" height="185.34"/><rect class="cls-6" x="1347.76" y="316.93" width="38.43" height="6.44"/><rect class="cls-6" x="1285.91" y="334.96" width="100.28" height="6.44"/><rect class="cls-6" x="1267.3" y="370.5" width="102.68" height="6.44"/><rect class="cls-6" x="1267.3" y="407.41" width="55" height="6.44"/><rect class="cls-6" x="1267.3" y="389.05" width="55" height="6.44"/><rect class="cls-6" x="1267.3" y="426.65" width="55" height="6.44"/><rect class="cls-6" x="1267.3" y="444.67" width="55" height="6.44"/><rect class="cls-6" x="1267.3" y="463.82" width="123.55" height="6.44"/><rect class="cls-6" x="1168.82" y="370.33" width="29.22" height="6.44"/><rect class="cls-6" x="1095.36" y="407.25" width="118.9" height="6.44"/><rect class="cls-6" x="1095.36" y="388.87" width="118.9" height="6.44"/><rect class="cls-6" x="1095.36" y="426.47" width="118.9" height="6.44"/><rect class="cls-6" x="1095.36" y="444.5" width="118.9" height="6.44"/><rect class="cls-6" x="1115.79" y="463.82" width="98.47" height="6.44"/><path class="cls-6" d="M1199.74,360.19a19.54,19.54,0,1,1,19.54-19.54A19.55,19.55,0,0,1,1199.74,360.19Zm0-32.63a13.1,13.1,0,1,0,13.09,13.09A13.11,13.11,0,0,0,1199.74,327.56Z"/><rect class="cls-6" x="1311.95" y="500.95" width="84.72" height="6.44"/><rect class="cls-6" x="1285.91" y="500.95" width="16.73" height="6.44"/><rect class="cls-6" x="1202.01" y="500.95" width="22.61" height="6.44"/><rect class="cls-6" x="1154.81" y="500.95" width="36.73" height="6.44"/><rect class="cls-6" x="1086.31" y="500.95" width="58.96" height="6.44"/><polygon class="cls-12" points="1133.4 301.1 1133.4 372.36 1115.79 364.96 1098.18 372.36 1098.18 301.1 1133.4 301.1"/><rect class="cls-23" x="1336.05" y="392.09" width="54.58" height="55.8"/><path class="cls-24" d="M1523.34,297.18c12,0,21.77,8.4,21.77,18.77,0,6.23-3.51,11.75-8.92,15.17l3.06,7.75-7.51-5.58a24.78,24.78,0,0,1-8.4,1.45c-12,0-21.76-8.41-21.76-18.79S1511.32,297.18,1523.34,297.18Z"/><path class="cls-25" d="M1532.86,319.28a3,3,0,1,1,3-2.95A3,3,0,0,1,1532.86,319.28Z"/><path class="cls-25" d="M1523.34,319.28a3,3,0,1,1,3-2.95A3,3,0,0,1,1523.34,319.28Z"/><path class="cls-25" d="M1513.82,319.28a3,3,0,1,1,3-2.95A3,3,0,0,1,1513.82,319.28Z"/><path class="cls-15" d="M1021.71,242.43a7.09,7.09,0,0,1-5.73-2.91l-24.53-33.58a7.07,7.07,0,0,1,.25-8.68l32.06-38.94a7.09,7.09,0,1,1,10.94,9L1006.14,202l21.29,29.14a7.09,7.09,0,0,1-5.72,11.27Z"/><path class="cls-15" d="M1068.8,242.36a7.09,7.09,0,0,1-5.72-11.27l21.38-29.22L1056,167.28a7.09,7.09,0,0,1,11-9l31.94,38.84a7.09,7.09,0,0,1,.25,8.69l-24.63,33.65A7.06,7.06,0,0,1,1068.8,242.36Z"/><path class="cls-26" d="M1066.42,118.23A20.45,20.45,0,1,1,1046,97.78,20.45,20.45,0,0,1,1066.42,118.23Z"/><polygon class="cls-27" points="1053.47 140.03 1053.42 159.48 1053.38 172.19 1038.47 172.16 1039.22 141.07 1039.44 132.22 1053.47 140.03"/><path class="cls-15" d="M1023.81,170.5c.05-6.06,5.29-11.93,10.72-14.76,8.13-4.23,20.67-1.28,24.67,1.09,6.8,4,10.85,12.27,10.37,20.72l.48,45.36H1021.9S1023.69,184.3,1023.81,170.5Z"/><path class="cls-20" d="M1046.7,184.19c3.53-10.88,7.42-18.47,10.91-28.14-10.7-4-21.07-1.78-23.28,0,3.5,9.67,7.38,17.26,10.91,28.14a14.11,14.11,0,0,0,.73,2s0,.06,0,.07S1046.52,185,1046.7,184.19Z"/><polygon class="cls-28" points="1047.25 156.82 1045.97 156.82 1044.69 156.82 1042.28 171.52 1043.98 180.46 1045.97 186.22 1047.97 180.46 1049.67 171.52 1047.25 156.82"/><path class="cls-27" d="M1049.85,102.6h-7.75c-6.86,0-13.27,5.61-12.42,12.41.63,4.95,0,8.67,0,16,0,6.16,7.22,18.11,13.38,18.11h5.82c6.16,0,13.38-11.95,13.38-18.11,0-7.35-.62-11.07,0-16C1063.12,108.21,1056.7,102.6,1049.85,102.6Z"/><path class="cls-29" d="M1039.69,138.68a6.39,6.39,0,0,0,12.57,0Z"/><path class="cls-10" d="M1053.71,266.28h-15.48A17.62,17.62,0,0,1,1021,245.21l.94-22.3h48.15l.93,22.3A17.61,17.61,0,0,1,1053.71,266.28Z"/><path class="cls-28" d="M1077.58,250.86h-61a4.79,4.79,0,0,1-4.79-4.79V212a4.79,4.79,0,0,1,4.79-4.79h61a4.78,4.78,0,0,1,4.79,4.79v34.12A4.78,4.78,0,0,1,1077.58,250.86Z"/><rect class="cls-8" x="1011.75" y="209.18" width="70.63" height="43.7" rx="4.79"/><path class="cls-28" d="M1054.11,234.68H1040a3.61,3.61,0,0,1-3.6-3.61V231a3.61,3.61,0,0,1,3.6-3.61h14.1a3.61,3.61,0,0,1,3.61,3.61v.07A3.61,3.61,0,0,1,1054.11,234.68Z"/><path class="cls-30" d="M1047.88,157.66a4.16,4.16,0,0,1-4-.12c-.66-.68-.89-3.75-.89-3.75l6,.17S1048.58,157,1047.88,157.66Z"/><polygon class="cls-8" points="1039.61 161.46 1034.55 155.35 1038.77 149.92 1045.97 153.83 1039.61 161.46"/><polygon class="cls-8" points="1052.33 161.46 1057.4 155.35 1053.17 149.92 1045.97 153.83 1052.33 161.46"/><path class="cls-19" d="M1054.39,319.14l4.15-15.56h-.31a1.51,1.51,0,0,1,.11-3l1,0,.47-1.75h-.47a1.51,1.51,0,0,1,.11-3l1.15.05,2.61-9.8a3.16,3.16,0,0,1,.44-.54,8,8,0,0,1,.56-1.09,9,9,0,0,1,15.3,9.32l-.07.09a.17.17,0,0,1,0,.05l-17.66,29a3.62,3.62,0,0,1-1.15,1.12C1057.4,326,1053.42,322.79,1054.39,319.14Z"/><g id="_8._Right_shoe" data-name="8. Right shoe"><path class="cls-11" d="M1065.05,296.24a9,9,0,1,0-3-12.31A9,9,0,0,0,1065.05,296.24Z"/><path class="cls-15" d="M1059.61,322.37l17.67-29a6.5,6.5,0,0,0-2.17-8.93h0c-3.06-1.87-12.18-2-14,1.1l-8.81,33.08c-1,3.65,3,6.86,6.2,4.85A3.45,3.45,0,0,0,1059.61,322.37Z"/><path class="cls-8" d="M1062.19,297.29h0a1.51,1.51,0,0,0-1.42-1.84l-3.46-.13a1.5,1.5,0,0,0-1.53,1.16h0a1.51,1.51,0,0,0,1.41,1.85l3.47.13A1.51,1.51,0,0,0,1062.19,297.29Z"/><path class="cls-8" d="M1061.09,302h0a1.51,1.51,0,0,0-1.41-1.85l-3.47-.13a1.51,1.51,0,0,0-1.53,1.17h0a1.52,1.52,0,0,0,1.41,1.85l3.47.12A1.5,1.5,0,0,0,1061.09,302Z"/></g><path class="cls-10" d="M1022.08,240.94l53.68,38.49-16.88,14.49L1010.55,257a9.78,9.78,0,0,1-2.24-13.66l.11-.16A9.79,9.79,0,0,1,1022.08,240.94Z"/><path class="cls-19" d="M1050.76,344.19l1.07-16.07.29.09a1.51,1.51,0,0,0,.86-2.89l-1-.29.13-1.8.44.13a1.52,1.52,0,0,0,1.94-1.3,1.5,1.5,0,0,0-1.08-1.59l-1.1-.33L1053,310a2.92,2.92,0,0,0-.24-.66,10.4,10.4,0,0,0-.18-1.21,9,9,0,1,0-17.48,3.92l0,.1v.06l7.44,33.11a3.38,3.38,0,0,0,.72,1.44C1045.7,349.72,1050.51,348,1050.76,344.19Z"/><g id="_8._Right_shoe-2" data-name="8. Right shoe"><path class="cls-19" d="M1048,319.08a9,9,0,1,1,6.78-10.7A9,9,0,0,1,1048,319.08Z"/><path class="cls-15" d="M1044.78,345.57l-7.43-33.11a6.49,6.49,0,0,1,4.91-7.76h0c3.5-.79,12.16,2.05,13,5.55l-2.27,34.16c-.25,3.76-5.06,5.53-7.44,2.6A3.62,3.62,0,0,1,1044.78,345.57Z"/><path class="cls-8" d="M1050.39,321h0a1.51,1.51,0,0,1,1.93-1.3l3.32,1a1.48,1.48,0,0,1,1.07,1.59h0a1.5,1.5,0,0,1-1.92,1.3l-3.33-1A1.5,1.5,0,0,1,1050.39,321Z"/><path class="cls-8" d="M1049.9,325.84h0a1.52,1.52,0,0,1,1.94-1.3l3.32,1a1.52,1.52,0,0,1,1.07,1.6h0a1.5,1.5,0,0,1-1.93,1.29l-3.33-1A1.52,1.52,0,0,1,1049.9,325.84Z"/></g><path class="cls-10" d="M1061,249.41l-25.43,61,20.43,2.46L1079.22,257a9.79,9.79,0,0,0-5.27-12.81l-.18-.08A9.8,9.8,0,0,0,1061,249.41Z"/><path class="cls-26" d="M1045,111.09c10.4-5.9,17.63-.18,20.74,6a20.21,20.21,0,0,0-39.62-1.21C1032.7,117.71,1038.56,114.77,1045,111.09Z"/><path class="cls-31" d="M1572.55,389.08c-1.31-1.91.47-5.09-.64-8.87-3.37-11.4.58-16.37.58-16.37-.07-4.19,3.45-7.86,8.71-9.8a24.87,24.87,0,0,1,8.34-1.45,23,23,0,0,1,11.89,3c3.34,2,5.77,4.87,5.5,8.05-.19,2.24-2.6,5.21-.14,9,6.06,9.36,3.43,14.77.21,16.45-3,1.54-6.39,1.67-8.13,2.67C1589.93,396.85,1577.22,395.84,1572.55,389.08Z"/><path class="cls-27" d="M1544.52,430.82a55.68,55.68,0,0,1-6.39-1.11,3,3,0,1,1,1.35-5.84c10.24,2.37,18.63,1.36,24.93-3,9.62-6.68,11.33-19,11.35-19.12a3,3,0,0,1,5.94.78c-.08.61-2.09,15.09-13.87,23.26C1561.51,430.17,1553.69,431.85,1544.52,430.82Z"/><path class="cls-10" d="M1574.34,406.33a7.8,7.8,0,0,0-1.64.16,29,29,0,0,0,1.32-5,4.78,4.78,0,0,1,4.74-4.13,4.18,4.18,0,0,1,.59,0,4.76,4.76,0,0,1,4.09,5.32,39,39,0,0,1-2.3,8.27A6.86,6.86,0,0,0,1574.34,406.33Z"/><path class="cls-27" d="M1580,403.8a3.3,3.3,0,0,1-.94-5.24,10.48,10.48,0,0,1,7.59-3.38l.77,0a8.34,8.34,0,0,1,6.66,2.93C1592.79,402,1584.15,405.39,1580,403.8Z"/><path class="cls-27" d="M1585.06,389.16l-.07,3.39-.13,6.35,4.89.09.15-8.12.06-3.16A8,8,0,0,1,1585.06,389.16Z"/><g class="cls-32"><path class="cls-33" d="M1585.06,390l-.07,3.38a8.46,8.46,0,0,0,4.92-2.31l0-2.52A8.08,8.08,0,0,1,1585.06,390Z"/></g><path class="cls-27" d="M1586.27,391.72h0a14.16,14.16,0,0,0,14-14.31l-.06-5.57a14.17,14.17,0,0,0-14.3-14h0a14.16,14.16,0,0,0-14,14.31l0,5.56a14.16,14.16,0,0,0,14.31,14Z"/><path class="cls-34" d="M1571.07,437.78c-1.65,7.24,7.31,14.44,14.55,16.09a13.44,13.44,0,1,0,6-26.21C1584.35,426,1572.71,430.55,1571.07,437.78Z"/><path class="cls-29" d="M1585.34,384.35a3.79,3.79,0,0,1-7.44.07Z"/><path class="cls-10" d="M1572,407.08c-.92,2.54,1.63,5.63,4.31,5.92s5.94-3.21,6.23-5.89-3.7-8.55-5.21-6.31S1572.8,404.91,1572,407.08Z"/><path class="cls-10" d="M1594.07,398.08a8.33,8.33,0,0,1,2,5s-4.36,21.1,4.85,32.26c0,0-16.62,10-30,3.23,0-9.56,5.84-16.16,4.92-31.64a11.06,11.06,0,0,1,3.2-8.37C1579.17,403.48,1589.3,397.56,1594.07,398.08Z"/><path class="cls-11" d="M1575.88,498a4.52,4.52,0,0,0-4.22,2.28c-1.7,3.21-1.94,6.85-5.16,12.25-2.19,3.68-3.83,4.22-5.46,7.24-1.4,2.59,1,4,3.65,3.42,1-.21,7.5-.73,8.49-5.63.73-3.59,6.53-4.77,6.74-6,.13-.79-.42-3.31-.11-6.46C1580.2,501.2,1578,498.28,1575.88,498Z"/><path class="cls-27" d="M1570.39,514.57c1.8-2.65,4.91-11.24,4.5-13.32-.49-2.46-5.24-3.48-5.9-1.47-1.14,3.45-.78,9.9-4.89,16C1564.15,517.6,1568.29,517.66,1570.39,514.57Z"/><path class="cls-6" d="M1502,464.56a4.49,4.49,0,0,0,.7-4.73c-1.56-3.29-4.33-5.66-6.74-11.47-1.63-3.95-1.09-5.59-2.53-8.7-1.25-2.67-3.75-1.58-4.93.88-.46,1-3.9,6.45-.56,10.17,2.44,2.73-.09,8.09.82,9,.55.57,2.91,1.63,5.24,3.77C1496.8,466.12,1500.45,466.11,1502,464.56Z"/><path class="cls-27" d="M1492,450.26c1,3,6.07,10.65,8,11.58,2.26,1.07,5.93-2.12,4.71-3.86-2.09-3-7.47-6.54-9.92-13.49C1493.25,443.45,1490.73,446.74,1492,450.26Z"/><path class="cls-35" d="M1557.09,457.16l.23-.11,31.74-14.58a6,6,0,0,1,5,10.89l-.06,0-27.32,12.18,9.66,33.16-8.3,2.75-13.84-37.33A5.56,5.56,0,0,1,1557.09,457.16Z"/><path class="cls-27" d="M1586.24,439c-1.55,0-3.19-.09-4.93-.26a3,3,0,0,1,.61-6c5.53.57,12.66.39,15.17-3.72,4-6.49-3.52-20.76-6.45-25.25a3,3,0,1,1,5-3.27c1.37,2.09,13.16,20.78,6.54,31.64C1599.43,436.69,1594.07,439,1586.24,439Z"/><path class="cls-31" d="M1601.84,373.38s-10,3.59-16.32-.77-9.13-11.1-6.39-15,10-3.59,16.31.77S1601.84,373.38,1601.84,373.38Z"/><path class="cls-36" d="M1589.34,441.06s-5.55.15-13.88.49c-4.16.21-9,.43-14.22.68l-16.3,1-2.08.12-.52,0h-.13l-.57.05-.26,0-1,.15-2,.31-.12,0-.51.08-.06,0-.25.06-.5.12-1,.25-7.79,1.93c-2.53.64-5,1.21-7.29,1.83l-6.51,1.72c-4,1-7.38,2-9.73,2.64l-3.68,1.06,1.68,7.52,3.78-.61c2.4-.41,5.83-1,9.93-1.74l6.62-1.22c2.36-.41,4.82-.94,7.37-1.44l7.88-1.57,1-.2.51-.1.25-.05h.06l-.4.07h.16l2-.25,1-.13.25,0h0l-.41,0h.19l.52,0,2.08-.08,16.32-.64,14.22-.72c8.32-.47,13.86-.88,13.86-.88Z"/><path class="cls-10" d="M1587.52,444.6a1.79,1.79,0,0,0-1.8-1.8h-65.27c-1.37,0-2.49.81-2.49,1.8s1.12,1.8,2.49,1.8h65.27a1.79,1.79,0,0,0,1.8-1.8Z"/><path class="cls-8" d="M1590.08,444.6a1.88,1.88,0,0,1-1.94,1.8h-24.79a1.81,1.81,0,1,1,0-3.6h24.79A1.88,1.88,0,0,1,1590.08,444.6Z"/><rect class="cls-8" x="1518.06" y="406.37" width="48.74" height="38.23" rx="2.66"/><rect class="cls-7" x="1516.04" y="406.37" width="48.74" height="38.23" rx="2.66"/><path class="cls-16" d="M1547.57,425.48h0a2.81,2.81,0,0,0-2.8-2.8H1536a2.81,2.81,0,0,0-2.8,2.8h0a2.8,2.8,0,0,0,2.8,2.8h8.73A2.8,2.8,0,0,0,1547.57,425.48Z"/><path class="cls-10" d="M1599,405.81a6.86,6.86,0,0,0-6.74,4.55,51.61,51.61,0,0,0-3.13-5.62,4.75,4.75,0,1,1,8-5.19,67.38,67.38,0,0,1,3.69,6.45A8.3,8.3,0,0,0,1599,405.81Z"/><path class="cls-27" d="M1568.31,433.38a7.23,7.23,0,0,0-.32,5l10.08,4.46a7.22,7.22,0,1,0-9.76-9.42Z"/><path class="cls-9" d="M1664.25,667.1H828.79a4.83,4.83,0,1,1,0-9.66h835.46a4.83,4.83,0,0,1,0,9.66Z"/><rect class="cls-6" x="1484.54" y="451.96" width="6.44" height="210.44"/><path class="cls-25" d="M1374.51,657.07l170.65-.18c10.28,0,18.59-8,18.58-17.82,0-9.5-7.81-17.24-17.6-17.74l-171.69.19Z"/><path class="cls-16" d="M1546.13,616.5l-179.16.19v9.67l178.91-.2,13,12.91c0,7.15-6.16,13-13.75,13l-178.13.19v9.67l178.13-.2c12.92,0,23.42-10.19,23.4-22.66C1568.55,627,1558.81,617.13,1546.13,616.5Z"/><path class="cls-37" d="M1418.87,614.52l170.47-.21c11.82,0,21.39-9.2,21.37-20.5,0-10.92-9-19.83-20.24-20.4l-171.67.21Z"/><path class="cls-12" d="M1410.28,619.36V609.7l179.07-.23a16.89,16.89,0,0,0,11.78-4.67,15.14,15.14,0,0,0,4.76-11c0-8.29-6.89-15.14-15.66-15.58l-180,.23,0-9.66,180.26-.23c14.15.71,25.06,11.79,25.08,25.22a24.65,24.65,0,0,1-7.73,18,26.6,26.6,0,0,1-18.46,7.37Z"/><polygon class="cls-38" points="1421.45 631.45 1405.92 631.38 1405.77 663.8 1413.58 658.67 1421.3 663.87 1421.45 631.45"/><polygon class="cls-39" points="1541.42 587.12 1523.56 587.04 1523.34 634.9 1532.33 627.32 1541.2 634.99 1541.42 587.12"/><rect class="cls-8" x="48.17" y="481.45" width="272.09" height="172.42" rx="19.78"/><rect class="cls-22" x="73.29" y="493.62" width="228.04" height="146.06"/><path class="cls-22" d="M54.37,566.65A6.38,6.38,0,1,1,60.75,573,6.38,6.38,0,0,1,54.37,566.65Z"/><rect class="cls-20" x="266.53" y="503.26" width="24.28" height="40.57"/><rect class="cls-20" x="83.81" y="503.26" width="175.05" height="40.57"/><rect class="cls-20" x="83.81" y="556.51" width="48.55" height="40.57"/><rect class="cls-20" x="141.31" y="580.04" width="149.49" height="17.04"/><rect class="cls-20" x="141.31" y="556.51" width="149.49" height="17.04"/><rect class="cls-20" x="83.81" y="605" width="206.99" height="25.04"/><path class="cls-40" d="M201.83,613.54h-29a47,47,0,0,1-46.89-46.89h0a47,47,0,0,1,46.89-46.88h29a47,47,0,0,1,46.88,46.88h0A47,47,0,0,1,201.83,613.54Z"/><path class="cls-37" d="M160.74,541.55l53.13-3.11c7.54,0,13.7,6.92,13.7,15.39v25.65c0,8.46-6.16,15.39-13.7,15.39l-53.13-3.11a13.74,13.74,0,0,1-13.69-13.7V555.24A13.73,13.73,0,0,1,160.74,541.55Z"/><path class="cls-41" d="M194.11,579.48h-13.6a12.86,12.86,0,0,1-12.83-12.83h0a12.86,12.86,0,0,1,12.83-12.82h13.6a12.87,12.87,0,0,1,12.83,12.82h0A12.87,12.87,0,0,1,194.11,579.48Z"/><path class="cls-6" d="M187.88,579.48h-7.37a12.86,12.86,0,0,1-12.83-12.83h0a12.86,12.86,0,0,1,12.83-12.82h7.37Z"/><polygon class="cls-8" points="196.04 566.92 182.29 574.86 182.29 558.98 196.04 566.92"/><path class="cls-8" d="M477.54,623.91V583.33H384.71v40.58c0,16.56-63.12,30-63.12,30H540.66S477.54,640.47,477.54,623.91Z"/><path class="cls-42" d="M477.54,622.89V583.33H384.71v39.56Z"/><path class="cls-9" d="M633.4,306.18H228.85a12.86,12.86,0,0,0-12.7,13V575.89h430V319.18A12.86,12.86,0,0,0,633.4,306.18Z"/><rect class="cls-8" x="236.8" y="325.29" width="389.18" height="231.34"/><path class="cls-8" d="M216.15,573.35V590a12.86,12.86,0,0,0,12.7,13H633.4a12.86,12.86,0,0,0,12.7-13V573.35Z"/><rect class="cls-20" x="570.57" y="342.65" width="42.65" height="62.92"/><rect class="cls-20" x="249.55" y="342.65" width="307.55" height="62.92"/><rect class="cls-20" x="249.55" y="425.23" width="85.3" height="62.92"/><rect class="cls-20" x="350.57" y="461.71" width="262.65" height="26.43"/><rect class="cls-20" x="350.57" y="425.23" width="262.65" height="26.43"/><rect class="cls-20" x="249.55" y="500.44" width="363.67" height="38.83"/><path class="cls-40" d="M456.77,522.94H406a82.22,82.22,0,0,1-82-82h0a82.22,82.22,0,0,1,82-82h50.77a82.22,82.22,0,0,1,82,82h0A82.22,82.22,0,0,1,456.77,522.94Z"/><path class="cls-37" d="M384.93,397.06l92.91-5.44c13.17,0,23.94,12.11,23.94,26.91v44.85c0,14.8-10.77,26.91-23.94,26.91l-92.91-5.44A24,24,0,0,1,361,460.91V421A24,24,0,0,1,384.93,397.06Z"/><path class="cls-43" d="M443.28,463.39H419.49A22.5,22.5,0,0,1,397.06,441h0a22.5,22.5,0,0,1,22.43-22.43h23.79A22.49,22.49,0,0,1,465.7,441h0A22.5,22.5,0,0,1,443.28,463.39Z"/><path class="cls-6" d="M432.38,463.39H419.49A22.5,22.5,0,0,1,397.06,441h0a22.5,22.5,0,0,1,22.43-22.43h12.89Z"/><polygon class="cls-8" points="446.64 441.43 422.6 455.3 422.6 427.55 446.64 441.43"/><path class="cls-6" d="M491.39,637.89v8a7.9,7.9,0,0,0,7.81,8H805.69a7.91,7.91,0,0,0,7.82-8v-8Z"/><path class="cls-8" d="M798.6,637.89V468.79a16.84,16.84,0,0,0-16.64-17h-259a16.84,16.84,0,0,0-16.64,17v169.1Z"/><rect class="cls-22" x="520.81" y="467.89" width="263.28" height="156.91"/><path class="cls-8" d="M656.74,459.9a4.3,4.3,0,1,1-4.29-4.39A4.35,4.35,0,0,1,656.74,459.9Z"/><rect class="cls-20" x="746.27" y="480.07" width="28.75" height="42.42"/><rect class="cls-20" x="529.86" y="480.07" width="207.33" height="42.42"/><rect class="cls-20" x="529.86" y="535.75" width="57.51" height="42.41"/><rect class="cls-20" x="597.97" y="560.34" width="177.06" height="17.82"/><rect class="cls-20" x="597.97" y="535.75" width="177.06" height="17.82"/><rect class="cls-20" x="529.86" y="586.45" width="245.16" height="26.17"/><path class="cls-44" d="M669.09,600.1H635.8a53.91,53.91,0,0,1-53.75-53.75h0A53.91,53.91,0,0,1,635.8,492.6h33.29a53.91,53.91,0,0,1,53.75,53.75h0A53.91,53.91,0,0,1,669.09,600.1Z"/><path class="cls-37" d="M622,517.57,682.9,514c8.64,0,15.7,7.94,15.7,17.65v29.4c0,9.7-7.06,17.65-15.7,17.65L622,575.13a15.75,15.75,0,0,1-15.7-15.7V533.27A15.75,15.75,0,0,1,622,517.57Z"/><path class="cls-45" d="M660.24,561.06H644.65a14.75,14.75,0,0,1-14.71-14.71h0a14.75,14.75,0,0,1,14.71-14.71h15.59A14.75,14.75,0,0,1,675,546.35h0A14.75,14.75,0,0,1,660.24,561.06Z"/><path class="cls-6" d="M653.1,561.06h-8.45a14.75,14.75,0,0,1-14.71-14.71h0a14.75,14.75,0,0,1,14.71-14.71h8.45Z"/><polygon class="cls-8" points="662.45 546.66 646.69 555.76 646.69 537.56 662.45 546.66"/><path class="cls-9" d="M838.19,667.92H31.06a4.67,4.67,0,0,1,0-9.34H838.19a4.67,4.67,0,0,1,0,9.34Z"/><rect class="cls-10" x="243.12" y="587.24" width="13.51" height="42.31" transform="translate(-387.06 444.39) rotate(-53.23)"/><path class="cls-46" d="M184.49,627.29a66.68,66.68,0,0,1-65.72-57,66.45,66.45,0,0,1,56.31-75.15c1.95-.29,3.91-.44,5.4-.54s2.67-.12,4-.12a66.87,66.87,0,0,1,39.83,13.28,66.12,66.12,0,0,1,25.94,43.75,65.44,65.44,0,0,1-8,42.1,69,69,0,0,1-4.56,7,75.28,75.28,0,0,1-5.63,6.61,68.09,68.09,0,0,1-13,10.43,66.11,66.11,0,0,1-25.2,9c-1.7.25-3.51.44-5.35.57-1.36.08-2.69.12-4,.12Zm0-121.5c-1.1,0-2.21,0-3.31.1-1.58.09-3.17.28-4.53.45A55.17,55.17,0,0,0,130,568.68a55.32,55.32,0,0,0,54.49,47.24c1.1,0,2.22,0,3.33-.1,1.55-.05,3.1-.25,4.47-.43a55.76,55.76,0,0,0,35.52-20.53l.83-1.09a54.94,54.94,0,0,0-11.12-76.91A55.37,55.37,0,0,0,184.49,505.79Z"/><rect class="cls-6" x="261.03" y="591.2" width="21.58" height="67.59" transform="translate(-391.57 468.71) rotate(-53.24)"/><path class="cls-6" d="M321.43,623.73H282.57a5.55,5.55,0,0,0-5.55,5.55h0a5.54,5.54,0,0,0,5.55,5.55h38.86a5.54,5.54,0,0,0,5.54-5.55h0A5.55,5.55,0,0,0,321.43,623.73Z"/><path class="cls-6" d="M292.14,608.41H268a5.54,5.54,0,0,0-5.55,5.55h0a5.55,5.55,0,0,0,5.55,5.55h24.16a5.55,5.55,0,0,0,5.54-5.55h0A5.54,5.54,0,0,0,292.14,608.41Z"/><path class="cls-6" d="M338.14,634.75h-7.31a3.06,3.06,0,0,0-3.06,3h0a3.06,3.06,0,0,0,3.06,3.06h7.31a3.06,3.06,0,0,0,3.06-3.06h0A3.06,3.06,0,0,0,338.14,634.75Z"/><path class="cls-6" d="M292.44,645.46H331a4.21,4.21,0,0,1,0,8.41H292.44Z"/><path class="cls-6" d="M315.1,634.75H294.39a5.57,5.57,0,0,1,3.92,1.66,5.08,5.08,0,0,1,1.63,3.73,5.38,5.38,0,0,1-5.55,5.35H315.1a5.18,5.18,0,0,1-5.55-5.26A5.48,5.48,0,0,1,315.1,634.75Z"/><path class="cls-13" d="M624.26,442.1l-6.47,24.77-21.21,8.84,3,7.17,23-9.58a3.87,3.87,0,0,0,2.26-2.61l7-26.63a3.84,3.84,0,0,0-2.75-4.69l-.08,0A3.84,3.84,0,0,0,624.26,442.1Z"/><path class="cls-10" d="M611.16,513a4.58,4.58,0,0,0,1.4-5.74s-.59-1.17-1.65-3.19-2.57-4.91-4.45-8.34c-1.66-3.06-3.59-6.56-5.68-10.29L608,487l6.89,1.45,6.19,1.26c3.83.77,7,1.35,9.27,1.79s3.53.63,3.53.63a6.23,6.23,0,0,0,2.52-12.2s-1.26-.31-3.48-.82-5.4-1.23-9.23-2l-6.17-1.3-6.9-1.41c-4.79-1-9.91-1.94-15-2.9l-1.92-.36-.48-.09-.24,0-.07,0-.48-.08h-.16a7.46,7.46,0,0,0-5.28,1.35,7.55,7.55,0,0,0-1.88,10.35l.26.41.52.81,4.1,6.32c2.66,4.1,5.19,7.9,7.38,11.14s4.06,5.91,5.35,7.8,2.07,2.93,2.07,2.93A4.56,4.56,0,0,0,611.16,513Z"/><g id="_8._Right_shoe-3" data-name="8. Right shoe"><path class="cls-47" d="M612.68,503.12a6.19,6.19,0,0,0-9.15,2.23,2.15,2.15,0,0,0-.33.35l-7.71,22.58a3,3,0,0,0,4.09,3.67,2.48,2.48,0,0,0,.85-.72l13.67-19.31v0l0-.07A6.25,6.25,0,0,0,612.68,503.12Z"/><path class="cls-8" d="M601.86,514.31h0a1.06,1.06,0,0,0-1.37-.87l-2.3.74a1.06,1.06,0,0,0-.72,1.13h0a1.06,1.06,0,0,0,1.37.88l2.3-.75A1.05,1.05,0,0,0,601.86,514.31Z"/><path class="cls-8" d="M602.28,517.68h0a1.06,1.06,0,0,0-1.37-.87l-2.3.74a1.06,1.06,0,0,0-.72,1.13h0a1,1,0,0,0,1.37.87l2.3-.74A1.05,1.05,0,0,0,602.28,517.68Z"/><path class="cls-28" d="M606.9,511.28a3.75,3.75,0,1,0-.89-5.23A3.76,3.76,0,0,0,606.9,511.28Z"/></g><path class="cls-31" d="M635.85,426.16l.7,5.15,1.13-.36a2.08,2.08,0,0,0,1.44-2h0a2.06,2.06,0,0,1,.74-1.59l2.9-3a8.38,8.38,0,0,0,2.32-4.52,4.8,4.8,0,0,0-.71-3.74c-1.15-1.49,2.76-5.58,0-9-1.25-1.55-3.22-2.69-4-4.35-2.7-5.57-6.77-5.13-9.61-3.13-2.53,1.79-3.63-1.83-8.6-1.21-3.87.48-5.42,3.24-5.1,5.54,0,0-6.59.26-6.59,7.63s7.78,8.29,7.78,8.29Z"/><polygon class="cls-27" points="627.85 420.63 628.94 433.08 629.66 441.22 639.2 440.38 637.03 420.52 636.41 414.87 627.85 420.63"/><g class="cls-32"><path class="cls-33" d="M635.42,426.84v2a13.73,13.73,0,0,1-6.48,4.25l-.55-6.24Z"/></g><path class="cls-27" d="M625.26,432.66h-1.55c-3.38,0-7.33-6.55-7.33-9.93,0-4,.34-6.07,0-8.79-.47-3.73,3-6.81,6.81-6.81h7.61a5.19,5.19,0,0,1,5.19,5.19v12.36C636,429.09,629.67,432.66,625.26,432.66Z"/><path class="cls-31" d="M624.31,407.13s-.68,5.63,8.82,5.29c0,0-.28,11.11,4.72,11.91l.89-3.74s2.06-12.19-2.55-14.26S624.31,407.13,624.31,407.13Z"/><path class="cls-27" d="M641,435.09a5.24,5.24,0,0,0-3.62-.73l-4.21.66a12,12,0,0,0-5.41,2.29C632.22,438.41,637.49,437.76,641,435.09Z"/><path class="cls-13" d="M647.7,442.56c-.36-3.31-3.45-6.5-6.66-7.47-3.55,2.67-8.82,3.32-13.24,2.22a12.14,12.14,0,0,0-4.7,11.59l4.47,25.19L650.28,471S648.51,450.09,647.7,442.56Z"/><path class="cls-10" d="M563.68,514.7s.87-1,2.44-2.66,3.78-4.09,6.5-6.92,17.68-18,17.68-18l.34-.31.7-.58a14.37,14.37,0,0,1,1.53-1,12.49,12.49,0,0,1,3.4-1.34c.29-.07.59-.14.89-.19.14,0,25.53-2.4,27.72-2.93,3.85-.94,2.42-8.19,2.42-8.19l22.82-3.5c.16,3.27,2.27,6.44,2.84,8.57a12.77,12.77,0,0,1-14,16c-.61.05-1.53.14-2.74.23-2.28.17-5.54.45-9.46.7l-6.32.41-7.06.41-7.55.38-6.74.3a1.19,1.19,0,0,0-.26.05l-.12.06-.06,0h0l-.07.07-2.89,2.62L590,504c-3.66,3.27-7.11,6.29-10.08,8.86s-5.49,4.66-7.23,6.16-2.78,2.3-2.78,2.3a4.56,4.56,0,0,1-6.27-6.59Z"/><g id="_8._Right_shoe-4" data-name="8. Right shoe"><path class="cls-48" d="M560,517.53a6.24,6.24,0,1,0,7.89-4A6.23,6.23,0,0,0,560,517.53Z"/><path class="cls-49" d="M541.41,517.94l22.45,7.45a4.52,4.52,0,0,0,5.72-2.87h0c.79-2.38-.58-8.58-3-9.37l-23.85-.79a3,3,0,0,0-2.32,5A2.51,2.51,0,0,0,541.41,517.94Z"/><path class="cls-8" d="M558.85,515.75h0a1.05,1.05,0,0,0,1-1.25l-.46-2.37a1,1,0,0,0-1-.85h0a1,1,0,0,0-1,1.24l.45,2.38A1.06,1.06,0,0,0,558.85,515.75Z"/><path class="cls-8" d="M555.45,515.75h0a1,1,0,0,0,1-1.25l-.45-2.37a1,1,0,0,0-1-.85h0a1,1,0,0,0-1,1.24l.46,2.38A1.05,1.05,0,0,0,555.45,515.75Z"/><path class="cls-28" d="M562.38,518.32a3.75,3.75,0,1,0,4.73-2.38A3.74,3.74,0,0,0,562.38,518.32Z"/></g><path class="cls-29" d="M627.26,426.59a3.51,3.51,0,0,1-6.9,0Z"/><path class="cls-33" d="M583.6,471.84a6.62,6.62,0,0,0,4-2.23L586,459.55a6.59,6.59,0,0,0-4.51-.9,6.68,6.68,0,1,0,2.07,13.19Z"/><path class="cls-13" d="M647,472.45a3.88,3.88,0,0,0,2.46-4.82l-8.74-28.41-7.43,2.29,7.56,24.57-18.4,5,2,7.5,22.27-6.07Z"/><rect class="cls-50" x="644.95" y="442.58" width="1.11" height="24" transform="translate(-99.39 192.96) rotate(-15.8)"/><polygon class="cls-50" points="639.06 459.25 635.22 445.62 633.89 445.79 637.73 459.43 639.06 459.25"/><path class="cls-27" d="M613.15,474.13a6.64,6.64,0,0,0,1,4.48L624.24,480a6.67,6.67,0,1,0-11.09-5.83Z"/><path class="cls-10" d="M631.16,479.16a1.67,1.67,0,0,0-1.67-1.67H569.2c-1.26,0-2.3.75-2.3,1.66s1,1.67,2.3,1.67h60.29a1.67,1.67,0,0,0,1.67-1.66Z"/><path class="cls-8" d="M633.52,479.15a1.73,1.73,0,0,1-1.79,1.67h-22.9a1.67,1.67,0,1,1,0-3.33h22.9A1.73,1.73,0,0,1,633.52,479.15Z"/><rect class="cls-8" x="567" y="443.84" width="45.02" height="35.31" rx="2.45"/><rect class="cls-6" x="565.13" y="443.84" width="45.02" height="35.31" rx="2.45"/><path class="cls-8" d="M594.25,461.49h0a2.58,2.58,0,0,0-2.59-2.58h-8a2.58,2.58,0,0,0-2.59,2.58h0a2.59,2.59,0,0,0,2.59,2.59h8A2.59,2.59,0,0,0,594.25,461.49Z"/><path class="cls-15" d="M808.1,637.23a5.77,5.77,0,0,1-4.66-2.36l-20-27.33a5.78,5.78,0,0,1,.2-7.07l26.09-31.68a5.77,5.77,0,1,1,8.91,7.33l-23.25,28.23,17.33,23.71a5.77,5.77,0,0,1-4.66,9.17Z"/><path class="cls-15" d="M846.42,637.18a5.7,5.7,0,0,1-3.4-1.12,5.77,5.77,0,0,1-1.25-8.06l17.4-23.77L836,576.08a5.77,5.77,0,1,1,8.91-7.33l26,31.61a5.75,5.75,0,0,1,.2,7.07l-20,27.39A5.77,5.77,0,0,1,846.42,637.18Z"/><path class="cls-10" d="M812.05,533.46a16.64,16.64,0,1,0,33.28,0c0-9.19-7.45-13.37-16.64-13.37S812.05,524.27,812.05,533.46Z"/><polygon class="cls-27" points="822.59 553.9 822.63 569.73 822.67 580.08 834.79 580.04 834.18 554.75 834.01 547.55 822.59 553.9"/><path class="cls-15" d="M809.81,578.7c0-4.94,4.31-9.71,8.73-12,6.61-3.45,16.82-1.05,20.07.89,5.54,3.29,8.84,10,8.45,16.86l.39,36.91h-39.2S809.72,589.93,809.81,578.7Z"/><path class="cls-27" d="M836.54,566.64c-4.83-2-11.64-2.7-17.14-.35l4.08,4.08a6.59,6.59,0,0,0,9.33,0Z"/><path class="cls-27" d="M825.53,523.94h6.32c5.58,0,10.8,4.57,10.1,10.1-.51,4,0,7.05,0,13,0,5-5.87,14.74-10.89,14.74h-4.74c-5,0-10.89-9.73-10.89-14.74,0-6,.51-9,0-13C814.74,528.51,820,523.94,825.53,523.94Z"/><path class="cls-29" d="M833.8,552.8a5.2,5.2,0,0,1-10.22,0Z"/><path class="cls-11" d="M834.14,656.64H821.55a14.32,14.32,0,0,1-14-17.14l.75-18.15h39.2l.75,18.15A14.33,14.33,0,0,1,834.14,656.64Z"/><path class="cls-11" d="M770.5,636.39l53.51-5.1,1.53,16L772,652.42a8,8,0,0,1-8.69-7.18v-.16A8,8,0,0,1,770.5,636.39Z"/><path class="cls-11" d="M877.32,636.39l-53.51-5.1-1.52,16,53.51,5.1a8,8,0,0,0,8.68-7.18l0-.16A8,8,0,0,0,877.32,636.39Z"/><rect class="cls-8" x="803.01" y="611.71" width="49.69" height="35.57" rx="3.9"/><rect class="cls-22" x="803.01" y="613.35" width="49.69" height="35.57" rx="3.9"/><rect class="cls-8" x="819.18" y="628.18" width="17.34" height="5.93" rx="2.93"/><path class="cls-8" d="M806.76,663.62l15.59-.94-.05.29a1.46,1.46,0,0,0,2.89.48l.15-1,1.76-.1-.08.45a1.46,1.46,0,0,0,2.89.47l.18-1.11,9.81-.58a2.75,2.75,0,0,0,.61-.32,8.1,8.1,0,0,0,1.14-.32,8.69,8.69,0,1,0-5.91-16.34l-.1,0h0l-31,11.21a3.39,3.39,0,0,0-1.3.87C800.81,659.43,803.1,663.84,806.76,663.62Z"/><g id="_8._Right_shoe-5" data-name="8. Right shoe"><path class="cls-51" d="M830.58,657.9a8.69,8.69,0,1,1,11.13,5.22A8.68,8.68,0,0,1,830.58,657.9Z"/><path class="cls-52" d="M804.69,658l31-11.2a6.31,6.31,0,0,1,8.07,3.78h0c1.18,3.27-.49,12-3.76,13.14l-33.15,2c-3.65.21-5.94-4.2-3.41-6.85A3.39,3.39,0,0,1,804.69,658Z"/><path class="cls-8" d="M829,660.42h0a1.46,1.46,0,0,1,1.48,1.7l-.54,3.32a1.47,1.47,0,0,1-1.41,1.23h0a1.46,1.46,0,0,1-1.48-1.7l.55-3.32A1.46,1.46,0,0,1,829,660.42Z"/><path class="cls-8" d="M824.31,660.55h0a1.46,1.46,0,0,1,1.48,1.7l-.54,3.32a1.48,1.48,0,0,1-1.41,1.23h0a1.47,1.47,0,0,1-1.48-1.71l.54-3.32A1.47,1.47,0,0,1,824.31,660.55Z"/></g><path class="cls-27" d="M874.06,639.77l-36.15,9.73a6.5,6.5,0,0,0-4.59,8l0,.13a6.52,6.52,0,0,0,8,4.6l36.14-9.73a6.5,6.5,0,0,0,4.6-8l0-.13A6.52,6.52,0,0,0,874.06,639.77Z"/><path class="cls-8" d="M841.07,663.62l-15.59-.94,0,.29a1.46,1.46,0,0,1-1.48,1.7,1.47,1.47,0,0,1-1.41-1.22l-.15-1-1.76-.1.08.45a1.46,1.46,0,0,1-2.89.47l-.18-1.11-9.81-.58a2.48,2.48,0,0,1-.6-.32,8.23,8.23,0,0,1-1.15-.32,8.69,8.69,0,0,1,5.91-16.34l.1,0h.05l31,11.21a3.28,3.28,0,0,1,1.29.87C847,659.43,844.72,663.84,841.07,663.62Z"/><g id="_8._Right_shoe-6" data-name="8. Right shoe"><path class="cls-51" d="M817.24,657.9a8.69,8.69,0,1,0-11.13,5.22A8.68,8.68,0,0,0,817.24,657.9Z"/><path class="cls-53" d="M843.13,658l-31-11.2a6.32,6.32,0,0,0-8.08,3.78h0c-1.18,3.27.49,12,3.77,13.14l33.14,2c3.66.21,5.94-4.2,3.41-6.85A3.39,3.39,0,0,0,843.13,658Z"/><path class="cls-8" d="M818.79,660.42h0a1.46,1.46,0,0,0-1.48,1.7l.55,3.32a1.45,1.45,0,0,0,1.4,1.23h0a1.47,1.47,0,0,0,1.49-1.7l-.55-3.32A1.47,1.47,0,0,0,818.79,660.42Z"/><path class="cls-8" d="M823.52,660.55h0a1.47,1.47,0,0,0-1.49,1.7l.55,3.32a1.46,1.46,0,0,0,1.4,1.23h0a1.47,1.47,0,0,0,1.48-1.71l-.54-3.32A1.45,1.45,0,0,0,823.52,660.55Z"/></g><path class="cls-27" d="M773.76,639.77l36.15,9.73a6.51,6.51,0,0,1,4.6,8l0,.13a6.52,6.52,0,0,1-8,4.6l-36.15-9.73a6.52,6.52,0,0,1-4.6-8l0-.13A6.53,6.53,0,0,1,773.76,639.77Z"/><path class="cls-10" d="M829.7,517.5c15.16,0,14.89,16.27,14.89,16.27-15.9,3-22-8.23-22-10.43C822.59,523.34,824.26,517.5,829.7,517.5Z"/><path class="cls-10" d="M821.81,521.08c-12.12-1.61-9.37,14.29-9.37,14.29,8-1.54,12.73-8,12.45-9.49Z"/><path class="cls-19" d="M280.9,212.25c5.06,0,9.13-6.56,9.11-14.62s-4.15-14.57-9.21-14.56-9.13,6.57-9.11,14.63S275.85,212.27,280.9,212.25Z"/><path class="cls-19" d="M236.42,219.12c5.89-3.38,12.41-11.85,9.92-19.32-5.82-17.43,7.78-23.67,14.5-25s12.67.43,16.41,3.43c6.09,4.87,4.27,13.26.88,20,3.68,2.12,5.45,6.68,3.33,10.08-4.61,7.4-.64,17.36,2.11,23.27,4.42,9.52-1.74,21.34-12.47,26.74s-24.7,4.82-35.48,0c-5.35-2.39-10.17-5.89-12.61-10.53C217.75,237.82,225.35,225.49,236.42,219.12Z"/><path class="cls-33" d="M310.3,285.84a73,73,0,0,0,8.07.67,3.74,3.74,0,1,0,.2-7.48c-13.1-.35-22.91-4.22-29.14-11.47-9.5-11.09-7.7-26.49-7.68-26.64a3.77,3.77,0,0,0-3.24-4.18,3.73,3.73,0,0,0-4.17,3.25c-.1.76-2.22,18.87,9.42,32.43C290,279.71,298.91,284.2,310.3,285.84Z"/><path class="cls-12" d="M278.93,234a6.52,6.52,0,0,1,5.54,7.21c0,.14-1.59,14.46,7,24.52,4.22,4.91,10.37,8.12,18.24,9.6a14.56,14.56,0,0,0-.84,13c-11.57-1.85-20.73-6.6-27.22-14.15-12.42-14.48-10.16-33.76-10.06-34.57A6.5,6.5,0,0,1,278.93,234Z"/><path class="cls-27" d="M277.9,240.39a4.12,4.12,0,0,0,1.17-6.53,13.08,13.08,0,0,0-9.47-4.22l-1,0a10.35,10.35,0,0,0-8.3,3.65C261.93,238.17,272.71,242.38,277.9,240.39Z"/><path class="cls-27" d="M271.57,222.13l.09,4.23.16,7.92-6.09.11-.19-10.13-.08-3.93A10,10,0,0,0,271.57,222.13Z"/><g class="cls-32"><path class="cls-33" d="M271.57,223.14l.09,4.22c-2.16-.32-4.77-1.28-6.14-2.87l-.06-3.15A10.12,10.12,0,0,0,271.57,223.14Z"/></g><path class="cls-27" d="M270.06,225.32h0a17.67,17.67,0,0,1-17.48-17.84l.07-6.94a17.66,17.66,0,0,1,17.84-17.49h0A17.64,17.64,0,0,1,288,200.89l-.07,7a17.66,17.66,0,0,1-17.85,17.48Z"/><path class="cls-10" d="M283.5,282.77a16.76,16.76,0,1,1-20.07-12.62A16.77,16.77,0,0,1,283.5,282.77Z"/><path class="cls-29" d="M271.23,216.13a4.72,4.72,0,0,0,9.28.09Z"/><path class="cls-12" d="M286.8,243.2c1.15,3.16-2.05,6.34-5.39,6.71a6.08,6.08,0,0,1-6.71-5.38c-.37-3.35,4.62-10.67,6.49-7.88S285.82,240.49,286.8,243.2Z"/><path class="cls-12" d="M260.34,233.26a10.4,10.4,0,0,0-2.48,6.25s1.51,27.53-6,40.21l32.1,2.68-.86-38.11a13.94,13.94,0,0,0-4-10.43C278.92,240,266.29,232.61,260.34,233.26Z"/><path class="cls-19" d="M275.58,364a27.78,27.78,0,0,1-1.55,7.9.57.57,0,0,0,.31.78h0a.58.58,0,0,0,.74-.3c.35-.76,1.39-3.21,1.72-4.06.47-1.2,1.71-3.41,3.16.51s.91,7.4,1,12c.14,6.24,8,8.29,9.19,8.77,3.17,1.23,6.38.09,5.23-3.4-1.34-4.06-3.23-5.08-5.11-10.08-2.77-7.33-2.28-11.86-3.66-16.18-.25-.79-1.71-3.56-4.67-3.71C279.27,356.08,276,359.18,275.58,364Z"/><path class="cls-27" d="M285.06,377.75c-1.62-3.65-3.56-14.87-2.6-17.34,1.13-2.91,7.19-3.13,7.57-.51.64,4.49-1.22,12.33,2.49,20.74C292.06,382.84,287,382,285.06,377.75Z"/><path class="cls-10" d="M261.92,301.91l39.5,18.36-3.74-8.92L283,358.79a5.46,5.46,0,0,0,10.3,3.58l18-46.26a6.94,6.94,0,0,0-3.45-8.78l-.29-.14-39.29-18.8a7.47,7.47,0,1,0-6.45,13.48Z"/><path class="cls-19" d="M306.49,351.17a27.91,27.91,0,0,1,2.32,7.71.56.56,0,0,0,.64.54h0a.58.58,0,0,0,.51-.6c-.05-.84-.27-3.49-.38-4.4-.14-1.27-.07-3.81,3-1s4.27,6.12,6.48,10.11c3,5.46,10.91,3.63,12.23,3.48,3.38-.39,5.68-2.9,3-5.45-3.08-3-5.23-3-9.23-6.53-5.86-5.19-7.54-9.43-10.78-12.61-.59-.58-3.18-2.35-5.86-1.1C306.06,342.44,304.57,346.73,306.49,351.17Z"/><path class="cls-27" d="M321.29,358.9c-3.14-2.47-10.09-11.49-10.39-14.12-.36-3.1,4.9-6.12,6.45-4C320,344.47,322,352.27,329.23,358,329.85,360.14,325,361.78,321.29,358.9Z"/><path class="cls-10" d="M264.69,303.1l43.51-2.18-7.48-6.14,9.19,48.78a5.45,5.45,0,0,0,10.78-1.63L315,292.62a7,7,0,0,0-7.15-6.16l-.32,0L264,288.17a7.47,7.47,0,1,0,.59,14.93Z"/><path class="cls-27" d="M261.58,286.5a60.12,60.12,0,0,0,6.12.69,3.74,3.74,0,1,0,.48-7.46c-6.92-.45-15.64-2.15-17.88-7.72-3.52-8.8,8.62-24.81,13.16-29.72a3.74,3.74,0,1,0-5.5-5.06c-2.12,2.29-20.49,22.83-14.6,37.55C245.83,281,252,284.88,261.58,286.5Z"/><path class="cls-12" d="M256,235.37a6.49,6.49,0,0,1,9.65.14,6.69,6.69,0,0,1-.31,8.82c-5.16,5.67-15.16,19.88-12.45,26.66a6.36,6.36,0,0,0,2.68,2.9,6.45,6.45,0,0,1,3.08,6.7l0,.14a6.35,6.35,0,0,1-9.29,4.48,18.74,18.74,0,0,1-8.45-9.4C234.44,259.86,252.3,239.32,256,235.37Z"/><path class="cls-27" d="M283.63,282.91a8.9,8.9,0,0,1-2.6,5.61l-13.65-1.13a9,9,0,1,1,16.25-4.48Z"/><path class="cls-33" d="M330.15,284.58a9,9,0,0,1-2.37,5.72l-13.69-.54a9,9,0,1,1,16.06-5.18Z"/><path class="cls-19" d="M249.63,197c2,5.65,10.87,7.66,19.86,4.51s14.68-10.28,12.7-15.93-10.88-7.66-19.87-4.51S247.65,191.37,249.63,197Z"/><path class="cls-10" d="M259.08,288.05a2.24,2.24,0,0,1,2.25-2.24h81.39c1.71,0,3.11,1,3.11,2.24s-1.4,2.25-3.11,2.25H261.33a2.24,2.24,0,0,1-2.25-2.25Z"/><path class="cls-8" d="M255.88,288.05a2.35,2.35,0,0,0,2.43,2.25h30.91a2.25,2.25,0,1,0,0-4.49H258.31A2.34,2.34,0,0,0,255.88,288.05Z"/><rect class="cls-8" x="284.92" y="240.37" width="60.78" height="47.67" rx="3.31"/><rect class="cls-20" x="287.45" y="240.37" width="60.78" height="47.67" rx="3.31"/><path class="cls-8" d="M308.91,264.2h0a3.48,3.48,0,0,1,3.49-3.48h10.88a3.48,3.48,0,0,1,3.49,3.48h0a3.5,3.5,0,0,1-3.49,3.5H312.4A3.5,3.5,0,0,1,308.91,264.2Z"/></g></g></g></svg>
