<svg xmlns="http://www.w3.org/2000/svg" xmlns:xlink="http://www.w3.org/1999/xlink" viewBox="0 0 568.54 508.25"><defs><style>.cls-1,.cls-3{fill:none;}.cls-2{isolation:isolate;}.cls-3{stroke:#fff;stroke-miterlimit:10;stroke-width:0.5px;}.cls-4{fill:#fff;}.cls-5{fill:#e8eeff;}.cls-6{fill:#4563cc;}.cls-7{fill:#98aee5;}.cls-8{fill:#2d4383;}.cls-9{fill:#ffc4b1;}.cls-10,.cls-22{fill:#fd9c3d;}.cls-11{fill:#ffbd59;}.cls-12{fill:#ffdb5a;}.cls-13{fill:#db428b;}.cls-14{fill:#72a4d6;}.cls-15{fill:#8ec2fe;}.cls-16{fill:#ccd6ea;}.cls-17{fill:#6e6fda;}.cls-18{fill:#9899ef;}.cls-19{opacity:0.3;}.cls-20{opacity:0.5;}.cls-21{fill:url(#Áåçûìÿííûé_ãðàäèåíò_182);}.cls-22{mix-blend-mode:multiply;}.cls-23{opacity:0.55;mix-blend-mode:screen;}.cls-24{fill:url(#Áåçûìÿííûé_ãðàäèåíò_76);}.cls-25{fill:url(#Áåçûìÿííûé_ãðàäèåíò_76-2);}.cls-26{fill:url(#Áåçûìÿííûé_ãðàäèåíò_76-3);}.cls-27{fill:url(#Áåçûìÿííûé_ãðàäèåíò_76-4);}.cls-28{fill:#6e8adb;}.cls-29{clip-path:url(#clip-path);}.cls-30{fill:#064f8a;}.cls-31{fill:#ffaa83;}.cls-32{fill:#d1ddff;}.cls-33{fill:#cd206b;}.cls-34{fill:#ff65a7;}.cls-35{fill:#61a1f0;}.cls-36{fill:#0845a9;}.cls-37{fill:#713d23;}.cls-38{fill:#475260;}.cls-39{fill:#aa382d;}</style><linearGradient id="Áåçûìÿííûé_ãðàäèåíò_182" x1="772.05" y1="264.25" x2="818.29" y2="264.25" gradientTransform="matrix(-1, 0, 0, 1, 1082.87, 0)" gradientUnits="userSpaceOnUse"><stop offset="0" stop-color="#cb19ff"/><stop offset="0.14" stop-color="#aa15ec"/><stop offset="0.44" stop-color="#660cc4"/><stop offset="0.7" stop-color="#3305a8"/><stop offset="0.89" stop-color="#150196"/><stop offset="1" stop-color="#09008f"/></linearGradient><linearGradient id="Áåçûìÿííûé_ãðàäèåíò_76" x1="814.66" y1="59.7" x2="870.44" y2="59.7" gradientTransform="matrix(-1, 0, 0, 1, 1082.87, 0)" gradientUnits="userSpaceOnUse"><stop offset="0" stop-color="#fff"/><stop offset="0.04" stop-color="#f3f3f3"/><stop offset="0.4" stop-color="#8d8d8d"/><stop offset="0.69" stop-color="#414141"/><stop offset="0.89" stop-color="#121212"/><stop offset="1"/><stop offset="1"/></linearGradient><linearGradient id="Áåçûìÿííûé_ãðàäèåíò_76-2" x1="784.08" y1="74.22" x2="830.83" y2="74.22" xlink:href="#Áåçûìÿííûé_ãðàäèåíò_76"/><linearGradient id="Áåçûìÿííûé_ãðàäèåíò_76-3" x1="839.16" y1="87" x2="875.59" y2="87" xlink:href="#Áåçûìÿííûé_ãðàäèåíò_76"/><linearGradient id="Áåçûìÿííûé_ãðàäèåíò_76-4" x1="805.61" y1="93" x2="841.58" y2="93" xlink:href="#Áåçûìÿííûé_ãðàäèåíò_76"/><clipPath id="clip-path"><path class="cls-1" d="M84.73,441.88l.21-25.49a4.47,4.47,0,0,0,.74,2.35l-.2,25.49A4.58,4.58,0,0,1,84.73,441.88Z"/></clipPath></defs><title>ideas</title><g class="cls-2"><g id="Layer_2" data-name="Layer 2"><g id="Layer_1-2" data-name="Layer 1"><path class="cls-3" d="M124.56,28.88c1.7.16,3-1.08,3.11-3.39a11.18,11.18,0,0,0-4.47-9.06c-2.68-1.8-5-.66-5.23,2.54a11,11,0,0,0,1.92,6.41"/><path class="cls-3" d="M123.6,42.61c8,4.1,14.59.14,15.23-9.62.7-10.59-5.9-24-14.75-29.92S107.5.89,106.8,11.48c-.62,9.5,4.63,21.26,12.11,27.87"/><path class="cls-3" d="M123.82,40.12c6.78,3.29,12.37-.17,12.93-8.53.6-9.21-5.14-20.86-12.83-26s-14.42-1.89-15,7.32c-.54,8.14,3.89,18.19,10.24,24"/><path class="cls-3" d="M124,37.27c5.47,2.45,9.94-.46,10.39-7.26.5-7.65-4.27-17.34-10.67-21.64s-12-1.57-12.49,6.08c-.44,6.58,3,14.66,8.08,19.53"/><path class="cls-3" d="M124.19,34.4c4.17,1.61,7.52-.72,7.86-6,.4-6.1-3.4-13.82-8.5-17.25S114,9.93,113.58,16c-.33,5,2.19,11.13,5.93,15"/><path class="cls-3" d="M124.37,31.69c2.94.86,5.24-.94,5.49-4.73a16.26,16.26,0,0,0-6.49-13.16c-3.89-2.61-7.29-1-7.59,3.7a16.37,16.37,0,0,0,3.91,10.81"/><line class="cls-3" x1="118.87" y1="39.59" x2="119.83" y2="24.99"/><line class="cls-3" x1="123.56" y1="42.84" x2="124.51" y2="28.42"/><ellipse class="cls-4" cx="122.9" cy="21.86" rx="2.12" ry="3.69" transform="translate(3.09 56.89) rotate(-26.39)"/><path class="cls-5" d="M94.51,329.65c0,13.07-20,23.66-44.6,23.66s-44.6-10.59-44.6-23.66S25.28,306,49.91,306,94.51,316.59,94.51,329.65Z"/><path class="cls-5" d="M107,323.14c0,13.06-20,23.65-44.6,23.65s-44.6-10.59-44.6-23.65,20-23.66,44.6-23.66S107,310.07,107,323.14Z"/><path class="cls-5" d="M127.7,459.36,69.48,426.65a9.66,9.66,0,0,0-9.49,0L6.12,457.12a9.66,9.66,0,0,0,0,16.83l58.21,32.72a9.66,9.66,0,0,0,9.49,0l53.87-30.46A9.66,9.66,0,0,0,127.7,459.36Z"/><path class="cls-5" d="M126.48,206.31,68.27,173.6a9.64,9.64,0,0,0-9.49,0L4.91,204.07a9.66,9.66,0,0,0,0,16.83l58.21,32.72a9.66,9.66,0,0,0,9.49,0l53.87-30.46A9.66,9.66,0,0,0,126.48,206.31Z"/><path class="cls-5" d="M564.08,301.57l-52.75-29.64a8.74,8.74,0,0,0-8.59,0l-48.81,27.6a8.76,8.76,0,0,0,0,15.25l52.74,29.64a8.78,8.78,0,0,0,8.6,0l48.81-27.6A8.76,8.76,0,0,0,564.08,301.57Z"/><path class="cls-5" d="M218.26,431.88l46.38-27.12a16.15,16.15,0,0,1,16.06-.06C309.39,421,340.86,438.85,362,450.79a16.15,16.15,0,0,1,.12,28c-10.48,6.05-39.13,22.93-46.6,27.24a16.14,16.14,0,0,1-16.08.05L218.34,459.9A16.15,16.15,0,0,1,218.26,431.88Z"/><path class="cls-5" d="M462.67,426c-10.39-5.88-28.6-16.19-44.77-25.39a5.56,5.56,0,0,0-5.54,0l-19.14,11.06a5.57,5.57,0,0,0,0,9.67l44.65,25.46a5.56,5.56,0,0,0,5.55,0l19.26-11.12A5.57,5.57,0,0,0,462.67,426Z"/><path class="cls-5" d="M447.13,238.74c-10-5.68-25-14.15-38.62-21.9a7.64,7.64,0,0,0-7.63,0l-13.89,8a7.68,7.68,0,0,0,0,13.32l38.51,22a7.68,7.68,0,0,0,7.65,0l14-8.08A7.68,7.68,0,0,0,447.13,238.74Z"/><path class="cls-5" d="M99.18,223.53c7.6-4.3,18.94-10.72,29.27-16.6a5.84,5.84,0,0,1,5.79,0L144.77,213a5.82,5.82,0,0,1,0,10.09l-29.2,16.65a5.81,5.81,0,0,1-5.79,0l-10.61-6.13A5.81,5.81,0,0,1,99.18,223.53Z"/><path class="cls-6" d="M176.18,79.87q0-.48-.06-1c0-.17,0-.33,0-.49,0-.32-.06-.64-.09-1l-.06-.46c0-.22-.06-.44-.09-.66l-.15-1-.12-.67c-.06-.32-.12-.65-.19-1s-.11-.52-.16-.78l-.15-.65c-.07-.28-.14-.57-.22-.85s-.1-.43-.16-.64-.19-.69-.29-1l-.12-.39c-.14-.47-.29-.93-.44-1.4-.23-.69-.49-1.38-.75-2.07-.06-.17-.13-.34-.2-.52-.22-.58-.46-1.16-.71-1.74l-.11-.26c-.28-.64-.57-1.28-.87-1.91L171,61l-.76-1.49L170,59c-.33-.62-.68-1.23-1-1.84l-.2-.34c-.32-.54-.64-1.06-1-1.58l-.29-.46c-.4-.63-.82-1.26-1.25-1.87l-.2-.28c-.45-.63-.91-1.26-1.38-1.87l-.22-.29c-.14-.19-.29-.37-.44-.56l-.57-.7c-.16-.19-.32-.37-.47-.56l-.56-.65c-.38-.44-.77-.87-1.16-1.29l-.07-.07c-.42-.44-.84-.88-1.27-1.3l-.81-.79-.24-.22c-.36-.34-.72-.67-1.09-1l-.3-.26-.82-.69-.41-.33c-.24-.19-.49-.39-.74-.57s-.29-.23-.44-.34l-.73-.53-.44-.31-.8-.53-.38-.25c-.4-.25-.79-.49-1.19-.72l-1.15-.63-.29-.15c-.34-.17-.68-.34-1-.49l-.12-.06-1-.45c-.37-.15-.73-.29-1.1-.42l-.27-.1c-.45-.15-.9-.29-1.34-.41l-.77-.19-.36-.09-1.13-.21h0l-1-.12-.33,0-.72,0h-.31l-.73,0h-.26c-.31,0-.62,0-.92.09l-.2,0-.73.13-.25,0a7.54,7.54,0,0,0-.82.2h-.05c-.29.08-.57.18-.84.28l-.22.09c-.23.08-.44.17-.66.27l-.17.08-.82.43h0l14.36-8.34.14-.08c.22-.13.45-.24.68-.35l.17-.08.39-.18.27-.1.22-.09c.27-.1.54-.19.82-.27h0l0,0,.82-.2.25-.05.26-.05.47-.07.2,0,.83-.08h1.64l.47,0,.33,0,1,.12h.05l1.12.21.36.09.7.17.07,0c.44.12.89.26,1.34.42l.27.1c.37.13.73.26,1.1.41l.14.06.9.39.12.06c.34.16.68.32,1,.5l.29.15c.38.2.76.4,1.15.63s.79.47,1.19.72l.38.25.8.53.44.31.73.53.44.33c.25.19.5.38.74.58l.41.33c.27.22.55.45.82.69l.3.25c.37.32.73.66,1.09,1l.23.22.72.69.1.11c.43.42.85.85,1.27,1.29l.07.08c.39.42.78.85,1.16,1.29l.11.12.45.53.47.55.57.71c.15.19.3.37.44.56l.09.1.13.18c.47.62.93,1.24,1.38,1.87a1.33,1.33,0,0,0,.14.19l.06.09c.43.62.85,1.24,1.25,1.88a1.88,1.88,0,0,1,.12.18c.06.09.12.18.17.27.33.52.65,1,1,1.58l.15.25,0,.09c.35.61.7,1.23,1,1.85a1.09,1.09,0,0,1,.08.15c.06.1.11.2.16.3.26.5.51,1,.76,1.5l.15.31.09.18c.3.64.59,1.27.87,1.91l0,.06.08.21c.25.58.49,1.16.71,1.74l.12.28c0,.08,0,.16.08.24.26.68.51,1.37.75,2.06,0,0,0,0,0,0,.15.46.3.91.43,1.37l.12.38c.07.26.15.52.22.78,0,.09,0,.17.07.25s.11.43.16.64.15.57.22.86l.15.64c0,.16.07.31.1.46l.06.32c.07.33.13.65.19,1l.12.67.15,1c0,.16.05.32.07.47l0,.2.06.46.09.95c0,.17,0,.33,0,.49,0,.33,0,.64.06,1,0,.15,0,.29,0,.44,0,.45,0,.91,0,1.36,0,6.68-2.11,11.56-5.4,14.59l-18.36,17.8-15.56,9.52L169,96c3.29-3,7.23-7.64,7.25-14.32,0-.45,0-.9,0-1.36C176.2,80.16,176.19,80,176.18,79.87Z"/><path class="cls-7" d="M126.59,53c0,6.68,2,14,5.3,20.77,5,10.33,19.38,41.46,19.38,41.46l19.56-19c3.29-3,5.38-7.91,5.4-14.59,0-15.75-6-33.39-24.82-43.25C137.39,31.06,126.63,37.25,126.59,53Z"/><path class="cls-8" d="M133.88,56.72c-.24,11.65,7.74,25.89,17.78,31.75S170.06,89.6,170.29,78s-7.73-25.9-17.78-31.75S134.12,45.06,133.88,56.72Z"/><path class="cls-6" d="M135.16,58c0,10.3,19.53,33.62,19.53,33.62s6.22-2.7,9.22-5.13c2.33-1.89,3.73-5.22,3.75-9.72,0-10.3-7.24-22.88-16.2-28.06S135.19,47.66,135.16,58Z"/><path class="cls-4" d="M131.82,61.29c0,10.3,7.23,22.88,16.19,28.06s16.28,1,16.31-9.29S157.08,57.18,148.12,52,131.85,51,131.82,61.29Z"/><path class="cls-6" d="M137.89,65.26l.46,3.21,0,.17a.83.83,0,0,0,.26.39l2.6,1.78a22.9,22.9,0,0,0,1.15,3l-.88,2.65a.73.73,0,0,0,.12.65L143.46,80a.75.75,0,0,0,.2.2c.09.07.19.07.24,0L145.71,79a14.09,14.09,0,0,0,2,1.84l1.07,3.85a.76.76,0,0,0,.3.5l.09,0,2.12.81c.19.07.29-.06.26-.3l0-3.43a3.54,3.54,0,0,0,1.66-.44l2.38,2.8a.53.53,0,0,0,.15.15.19.19,0,0,0,.28,0l1.18-1.69a.6.6,0,0,0-.07-.62l-1.78-3.67a10.59,10.59,0,0,0,.37-2.45l2.3.1c.16.06.25-.1.21-.38l-.46-3.19a1.16,1.16,0,0,0,0-.18.76.76,0,0,0-.25-.39l-2.6-1.78a22.38,22.38,0,0,0-1.15-3l.87-2.65a.67.67,0,0,0-.12-.65l-1.83-2.85a.74.74,0,0,0-.19-.2c-.1-.07-.19-.08-.24,0l-1.81,1.19a12.87,12.87,0,0,0-2-1.83l-1.07-3.86a.77.77,0,0,0-.32-.51s0,0-.06,0l-2.14-.81c-.18-.07-.29.06-.26.3l0,3.43a3.53,3.53,0,0,0-1.66.43l-2.38-2.79a.78.78,0,0,0-.15-.16c-.11-.06-.21-.06-.28,0l-1.19,1.68a.67.67,0,0,0,.08.64l1.78,3.66a9.5,9.5,0,0,0-.36,2.45l-2.32-.11C137.94,64.83,137.84,65,137.89,65.26Zm9.33-.48a3.85,3.85,0,0,1,.87.46A10.83,10.83,0,0,1,152,72.17c.46,3.27-.92,5.24-3.08,4.4a4.51,4.51,0,0,1-.87-.45,10.9,10.9,0,0,1-3.91-7C143.67,65.91,145.05,63.94,147.22,64.78Z"/><path class="cls-9" d="M96.33,119.22c.6-1.68.57-2.93-.09-3.7a3.81,3.81,0,0,0-3.26-.88c-.17,0-1.15.43-3.63,5-2.95,5.47-6.11,13.3-6.14,13.38l0,.06a.63.63,0,0,1-.34.3.65.65,0,0,1-.51,0l-15-7.48L65,129.08c2.46,1.52,13.41,7.6,16.4,9.22s6.47-.87,10-7.52A84.56,84.56,0,0,0,96.33,119.22Z"/><path class="cls-7" d="M97.84,119.76c.81-2.27.68-4.05-.39-5.29a5.35,5.35,0,0,0-4.78-1.41c-.87.17-2.12,1-4.74,5.86-2.38,4.44-4.88,10.32-5.82,12.59l-12.52-6.08A33.17,33.17,0,0,1,65.71,131c3.36,2.05,12.11,7.26,14.9,8.76,4,2.17,8.14-.58,12.23-8.17A86.08,86.08,0,0,0,97.84,119.76Z"/><path class="cls-9" d="M65.3,122.35a3.22,3.22,0,0,0-1.73-.65l-3.2,0a1.17,1.17,0,0,0,1.1,1.17c.21,0,2.12.27,2.12.27s.53.25.46.64a3.22,3.22,0,0,1-1.94.14,28.09,28.09,0,0,1-3.46-1.63s-1.6-.89-1.12,1.07.1,2.36,1.28,3.77S64.57,129,65,129.08l2.42-3.1a6.59,6.59,0,0,1-.85-.76C66,124.39,66,123,65.3,122.35Z"/><path class="cls-9" d="M120.21,166c-.55,1,1,14,.91,15.31-.36,5.72,6.51,26.72,5.66,31.79-.39,2.31-1.7,5.69-3.38,6.36-.76.3.71,1.85,1.32,2.39,2,1.86,3.42-1.77,4.77-3.15,1.91-2,4-4,4-4-1.37-1.76-1.26-6.23-1-14.45s-1.42-12.52-1.25-16.18c.24-4.86,4.84-22.3,4.84-22.3C134,160.88,122.6,161.88,120.21,166Z"/><path class="cls-8" d="M133,213.61c-1.77.68-2.51,5-5.59,7.28-3.28,2.44-4-1.39-4-1.39a27.9,27.9,0,0,0-6.34.64.59.59,0,0,0-.48.81,11.6,11.6,0,0,0,7.51,4.86A3,3,0,0,0,127,225a23.37,23.37,0,0,1,5.06-4.19l-.2,5.33a1,1,0,0,0,1.34-.21,29.27,29.27,0,0,1,1.2-6.4C135.75,215,133,213.61,133,213.61Z"/><path class="cls-9" d="M119.44,190.58c.23-4.87,8.65-24,8.65-24-2.11-1-17.3,1.75-19.69,5.9-.55,1,2.52,16.25,2.43,17.61-.45,7.31,4.63,26.57,4.14,29.49-.39,2.32-1.7,5.7-3.39,6.36-.76.31.72,1.85,1.33,2.4,2,1.86,3.41-1.77,4.77-3.15,1.91-1.95,4-4,4-4-1.37-1.75-1.26-6.22-1-14.44S119.26,194.24,119.44,190.58Z"/><path class="cls-8" d="M121.14,220c-1.78.69-2.51,5-5.59,7.29-3.28,2.44-4-1.4-4-1.4a28.61,28.61,0,0,0-6.34.64.59.59,0,0,0-.47.81,11.52,11.52,0,0,0,7.51,4.86,3,3,0,0,0,2.88-.85,23.58,23.58,0,0,1,5.06-4.2l-.2,5.34a1,1,0,0,0,1.34-.22,28.76,28.76,0,0,1,1.2-6.4C123.94,221.41,121.16,220,121.14,220Z"/><path class="cls-7" d="M96.52,111.08a5.52,5.52,0,0,0-4,2,11.17,11.17,0,0,0-2,2.91s-.85,3.2-2.63,8.13c-1.18,3.25.24,10.9,2.68,13.69A4.6,4.6,0,0,0,96,139.05l9.18,9.25c14.91-2.65,11.31-16.28,11.31-16.28C112.37,127.34,106.19,111.19,96.52,111.08Z"/><path class="cls-9" d="M84.48,103.74h0l-.09-.11a8.55,8.55,0,0,0-12.06-.79c-3.3,2.9-4.68,6.7-2.41,10.33.82,1.31,2,2.11,3.13,3.83,1.85,2.93,7,4.73,10.81,4.56a2.7,2.7,0,0,0,1.55-.61c.84-.69,4.56-11,2.21-13.64Z"/><path class="cls-6" d="M116.5,131.79s2.56,13.57-11.33,16.51a10.5,10.5,0,0,1,.71,2.73c1,6.72.29,27.15.29,27.15,16.53,1.27,30.08-8.83,33.43-13.32,0,0-5-15.66-7.75-21.39C127.65,134.69,118.91,133.21,116.5,131.79Z"/><rect class="cls-10" x="45.81" y="132.21" width="18.99" height="19.16"/><polygon class="cls-11" points="14.07 198.1 64.8 227.21 64.8 179.88 14.07 150.78 14.07 198.1"/><path class="cls-10" d="M19.71,170.47l-.17,46.84h0c-.28,2.58,1.93,5,4,6,11.61,5.1,16.88-2.88,17.84-6,.71-2.3,2.37-2.11,2.37-2.11l0-47.55-7.15-4Z"/><polygon class="cls-10" points="64.8 227.21 114.47 198.69 114.47 151.37 64.8 179.88 64.8 227.21"/><path class="cls-12" d="M45.81,132.21c2.43,2.82,7.18.25,12.92,3.48,6.6,3.71,2.84,9.19-.59,10.7-12.09,5.31-17.89-2.92-18.58-6.26a2.71,2.71,0,0,0-3.31-2.35l-22.18,13,21,12.08c-2.3,2.5-6.71.19-12,3.18-6.19,3.48-2.66,8.62.55,10,11.32,5,16.76-2.73,17.41-5.85a2.5,2.5,0,0,1,3-2.22L64.8,179.88l49.67-28.51L63.71,121.68Z"/><path class="cls-9" d="M96.81,125.94c-.71-1.64-1.58-2.53-2.59-2.64a3.79,3.79,0,0,0-3,1.57c-.1.14-.55,1.1.77,6.17,1.57,6,4.59,13.9,4.62,14s0,0,0,.07a.61.61,0,0,1,0,.44.63.63,0,0,1-.39.34l-16,4.7.39,3.94c2.84-.56,15-3.55,18.29-4.41s4.15-5,2.25-12.35A85.92,85.92,0,0,0,96.81,125.94Z"/><path class="cls-7" d="M98.28,125.31c-1-2.21-2.26-3.42-3.89-3.61a5.39,5.39,0,0,0-4.46,2.22c-.52.72-.87,2.17.52,7.52,1.27,4.87,3.45,10.88,4.3,13.19l-13.31,4.06a33.49,33.49,0,0,1,.91,6.69c3.86-.79,13.81-2.93,16.88-3.73,4.43-1.15,5.57-6,3.4-14.3A85.78,85.78,0,0,0,98.28,125.31Z"/><path class="cls-13" d="M102,112.17c-2.45-.31-7.23-3.28-10.35-8.92s-8.25-8.53-13.41-8.66S69,99.82,68.06,102.42c-1.18,3.26-.78,3.72-.78,3.72s-2.75,1-3,3.45c-.58,6,7.87,6.16,7.87,6.16-4-4.31-3.37-7.12-3.37-7.12s3.14,3,6.12,3.86c6.65,1.93,10-.4,11,2.91s-.2,7.93,7.53,11.31c11.1,4.85,12.68,13.13,12.68,13.13s10.45-10.57,4.23-21.39C109.3,116.57,106,112.69,102,112.17Z"/><path class="cls-9" d="M79.06,150.62c-1-.21-1.92-1.31-2.86-1.26a3.22,3.22,0,0,0-1.71.7l-2.33,2.2a1.18,1.18,0,0,0,1.61.1c.16-.14,1.74-1.24,1.74-1.24s.55-.18.77.16A3.32,3.32,0,0,1,75,152.7a27.32,27.32,0,0,1-3.66,1.16s-1.77.44-.08,1.54,1.68,1.67,3.5,1.9,5.5-2.54,5.82-2.79l-.34-3.91A7.72,7.72,0,0,1,79.06,150.62Z"/><path class="cls-14" d="M151.16,258.76l160.33,93.66a19.39,19.39,0,0,0,9.7,2.47,20,20,0,0,0,9.67-2.39l83.05-46.43c3.24-1.8,7.43-12.85,7.43-12.85s0,7.39,0,8.92A13.77,13.77,0,0,1,413.91,314l-83.05,46.43a20.07,20.07,0,0,1-9.67,2.4,19.41,19.41,0,0,1-9.7-2.48L151.16,266.65a13.49,13.49,0,0,1-7-11.77c0-1.43,0-8.34,0-8.34S148.14,257,151.16,258.76Z"/><path class="cls-15" d="M151.57,235.19l83.06-46.43a20,20,0,0,1,9.67-2.4,19.33,19.33,0,0,1,9.7,2.49L414.32,282.5a13.49,13.49,0,0,1,7,11.76,13.78,13.78,0,0,1-7.43,11.81L330.86,352.5a20,20,0,0,1-9.67,2.39,19.39,19.39,0,0,1-9.7-2.47L151.16,258.76a13.47,13.47,0,0,1-7-11.76A13.75,13.75,0,0,1,151.57,235.19Z"/><polygon class="cls-16" points="555.46 190.5 454.8 134.88 454.8 36.01 555.46 91.63 555.46 190.5"/><polygon class="cls-17" points="468.94 59.76 468.91 76.44 465.06 74.27 465.09 57.59 468.94 59.76"/><polygon class="cls-15" points="473.82 67.55 473.8 79.19 469.94 77.02 469.97 65.39 473.82 67.55"/><polygon class="cls-18" points="478.71 68.19 478.68 81.94 474.83 79.77 474.86 66.03 478.71 68.19"/><polygon class="cls-4" points="483.58 75.37 483.57 84.63 479.72 82.46 479.73 73.21 483.58 75.37"/><g class="cls-19"><polygon class="cls-17" points="547.04 123.23 532.73 114.79 532.63 92.32 547.04 100.82 547.04 123.23"/></g><g class="cls-19"><polygon class="cls-17" points="547.04 134.5 540.06 130.39 540.03 124.44 547.04 128.57 547.04 134.5"/></g><g class="cls-19"><path class="cls-17" d="M520.71,86.82l3.33,2c1,.56,1.72,2.74,1.73,4.87s-.75,3.4-1.7,2.84l-3.32-2c-1-.55-1.72-2.73-1.73-4.86S519.77,86.26,520.71,86.82Z"/></g><g class="cls-19"><polygon class="cls-17" points="515.8 91.62 509.05 87.64 509.01 79.93 515.76 83.91 515.8 91.62"/></g><g class="cls-19"><polygon class="cls-17" points="507.01 86.44 500.25 82.45 500.22 74.74 506.97 78.72 507.01 86.44"/></g><g class="cls-19"><polygon class="cls-17" points="498.21 81.25 491.46 77.27 491.42 69.56 498.18 73.54 498.21 81.25"/></g><g class="cls-19"><polygon class="cls-17" points="547.04 146.31 540.11 142.22 540.09 136.28 547.04 140.38 547.04 146.31"/></g><g class="cls-19"><polygon class="cls-17" points="547.04 158.11 540.17 154.06 540.14 148.12 547.04 152.18 547.04 158.11"/></g><g class="cls-19"><polygon class="cls-17" points="547.04 169.92 540.22 165.9 540.19 159.96 547.04 163.99 547.04 169.92"/></g><polygon class="cls-17" points="471.76 85.67 471.76 89.61 465.65 86.16 465.65 82.22 471.76 85.67"/><polygon class="cls-17" points="471.76 96.11 465.65 92.66 465.65 88.72 471.76 92.17 471.76 96.11"/><polygon class="cls-17" points="471.76 102.61 465.65 99.16 465.65 95.23 471.76 98.68 471.76 102.61"/><polygon class="cls-17" points="471.76 109.11 465.65 105.67 465.65 101.73 471.76 105.18 471.76 109.11"/><polygon class="cls-17" points="464.63 81.64 464.63 85.58 463.49 84.94 463.49 81 464.63 81.64"/><polygon class="cls-17" points="464.63 88.15 464.63 92.08 463.49 91.44 463.49 87.5 464.63 88.15"/><polygon class="cls-17" points="464.63 94.65 464.63 98.58 463.49 97.94 463.49 94.01 464.63 94.65"/><polygon class="cls-17" points="464.63 101.16 464.63 105.09 463.49 104.45 463.49 100.51 464.63 101.16"/><path class="cls-4" d="M485.17,95c9.54,5.47,15.57,47.27,23.82,52.32,7.23,4.41,5.63-38.33,12.14-39.47s10.58,46.59,8.57,62.88L472.53,139S476.28,89.87,485.17,95Z"/><path class="cls-18" d="M480,121.94c6.14-1.68,8.21,19.15,13.7,18.18,7.8-1.37,5.43-29.64,12-27.51,5.59,1.81,7,29.89,9.12,37.54,2.84,10.17,3.65-.33,7.78-1,5.8-1,8.35,8.95,7,21.61L472.53,139S472.53,124,480,121.94Z"/><path class="cls-15" d="M480.87,130.69c8.68,5.2,8.2,13.21,15.37,17.3,6.82,3.89,11.37-23.31,16-20.71,7,3.92,2.65,31.54,6.78,33.89,3.67,2.09,4.28-6.74,7.19-5,4.73,2.87,3.47,14.52,3.47,14.52L472.53,139S472.92,125.94,480.87,130.69Z"/><g class="cls-20"><polygon class="cls-13" points="445.65 106.01 379.79 68.56 379.79 10.35 445.65 47.79 445.65 106.01"/></g><polygon class="cls-17" points="388.99 21.1 388.96 34.3 386 32.59 386.03 19.39 388.99 21.1"/><polygon class="cls-15" points="392.74 27.27 392.72 36.48 389.76 34.76 389.78 25.55 392.74 27.27"/><polygon class="cls-15" points="396.5 27.78 396.48 38.65 393.52 36.94 393.54 26.06 396.5 27.78"/><polygon class="cls-4" points="400.25 33.46 400.24 40.78 397.27 39.07 397.29 31.75 400.25 33.46"/><g class="cls-19"><polygon class="cls-17" points="439 62.66 430.98 57.89 430.93 45.16 439 49.97 439 62.66"/></g><g class="cls-19"><polygon class="cls-17" points="439 69.05 435.09 66.72 435.07 63.35 439 65.69 439 69.05"/></g><g class="cls-19"><path class="cls-17" d="M424.26,45.08l1.86,1.11a3.68,3.68,0,0,1,1,2.76c0,1.21-.42,1.93-.95,1.61l-1.86-1.11a3.62,3.62,0,0,1-1-2.75C423.3,45.49,423.73,44.77,424.26,45.08Z"/></g><g class="cls-19"><polygon class="cls-17" points="421.51 47.8 417.73 45.55 417.71 41.17 421.49 43.43 421.51 47.8"/></g><g class="cls-19"><polygon class="cls-17" points="416.58 44.86 412.81 42.61 412.79 38.24 416.56 40.49 416.58 44.86"/></g><g class="cls-19"><polygon class="cls-17" points="411.66 41.93 407.88 39.67 407.86 35.3 411.64 37.56 411.66 41.93"/></g><g class="cls-19"><polygon class="cls-17" points="439 75.74 435.12 73.43 435.1 70.06 439 72.38 439 75.74"/></g><g class="cls-19"><polygon class="cls-17" points="439 82.43 435.15 80.14 435.13 76.77 439 79.07 439 82.43"/></g><g class="cls-19"><polygon class="cls-17" points="439 89.12 435.18 86.84 435.16 83.47 439 85.76 439 89.12"/></g><polygon class="cls-17" points="391.14 39.61 391.14 42.13 387.35 39.92 387.35 37.4 391.14 39.61"/><polygon class="cls-17" points="391.14 46.29 387.35 44.08 387.35 41.56 391.14 43.77 391.14 46.29"/><polygon class="cls-17" points="391.14 50.45 387.35 48.25 387.35 45.73 391.14 47.93 391.14 50.45"/><polygon class="cls-17" points="391.14 54.62 387.35 52.41 387.35 49.89 391.14 52.1 391.14 54.62"/><polygon class="cls-17" points="386.71 37.03 386.71 39.55 386 39.14 386 36.62 386.71 37.03"/><polygon class="cls-17" points="386.71 43.71 386 43.3 386 40.78 386.71 41.19 386.71 43.71"/><polygon class="cls-17" points="386.71 47.88 386 47.46 386 44.95 386.71 45.36 386.71 47.88"/><polygon class="cls-17" points="386.71 49.52 386.71 52.04 386 51.63 386 49.11 386.71 49.52"/><path class="cls-4" d="M405.55,46.19a5.83,5.83,0,0,1,2.15-.41c3.7,0,7.72,3.27,10.55,8.57l-5.47,5.91-.24-.45c-1-1.94-2.29-3.09-3.4-3a1.34,1.34,0,0,0-.64.2,3,3,0,0,0-1.21,2l-6.87-5.49C401.28,49.75,403.09,47.16,405.55,46.19Z"/><path class="cls-15" d="M412,69.92a1.46,1.46,0,0,0,.63-.2c1.55-.9,1.88-4.48.74-8h0L419,55.66a29.89,29.89,0,0,1,1.52,3.89c2.95,9.47,1,18.87-4.28,21a5.87,5.87,0,0,1-2.15.41,9.54,9.54,0,0,1-6.18-2.81l2.41-8.92A2.47,2.47,0,0,0,412,69.92Z"/><path class="cls-17" d="M407.1,60.5a13,13,0,0,0,.66,4.48,12,12,0,0,0,1.4,2.94L406.71,77a26,26,0,0,1-5.44-9.83A27.67,27.67,0,0,1,400.14,55Z"/><path class="cls-6" d="M287.69,255.91c12,0,21.82,3.14,23,7.17a23.73,23.73,0,0,1,1.17,7.43,24.17,24.17,0,1,1-48.34,0,23.73,23.73,0,0,1,1.17-7.43C265.89,259.05,275.73,255.91,287.69,255.91Z"/><path class="cls-21" d="M287.69,249.76c12,0,21.82,5.71,23,13a9,9,0,0,1,.12,1.48c0,8-10.36,14.48-23.13,14.48s-23.11-6.48-23.11-14.48a9,9,0,0,1,.12-1.48C265.89,255.47,275.73,249.76,287.69,249.76Z"/><path class="cls-6" d="M287.69,221.5c15.44,0,28.85,6.61,35.52,16.27.13.21.29.41.4.62a25.9,25.9,0,0,1,3.05,6.43c.13.42.24.83.33,1.27a22.69,22.69,0,0,1,.7,5.61c0,.74-.05,1.5-.11,2.23a.39.39,0,0,0,0,.15,23.46,23.46,0,0,1-1.1,5,19.22,19.22,0,0,1-.77,2c-5.22,12.05-20.27,20.78-38,20.78-22.08,0-40-13.52-40-30.21S265.61,221.5,287.69,221.5Z"/><path class="cls-7" d="M287.69,217.62c15.44,0,28.85,6.61,35.52,16.28.13.21.29.41.4.62a25.73,25.73,0,0,1,3.05,6.43,12.22,12.22,0,0,1,.33,1.26,22.83,22.83,0,0,1,.7,5.62c0,.73-.05,1.5-.11,2.23a.39.39,0,0,0,0,.15,23.46,23.46,0,0,1-1.1,5,20.13,20.13,0,0,1-.77,2c-5.22,12.05-20.27,20.77-38,20.77-22.08,0-40-13.51-40-30.2S265.61,217.62,287.69,217.62Z"/><path class="cls-6" d="M287.69,209c18,0,33.58,6.61,41.34,16.28.16.2.33.41.46.61a24.18,24.18,0,0,1,3.55,6.44,10.22,10.22,0,0,1,.38,1.26,19.53,19.53,0,0,1,.82,5.61,21,21,0,0,1-.13,2.24.32.32,0,0,0,0,.14,20.77,20.77,0,0,1-1.28,5.06,18.59,18.59,0,0,1-.89,2c-6.08,12.05-23.6,20.78-44.23,20.78-25.69,0-46.53-13.52-46.53-30.21S262,209,287.69,209Z"/><path class="cls-7" d="M287.69,205.16c18,0,33.58,6.61,41.34,16.28.16.21.33.41.46.62a24.29,24.29,0,0,1,3.55,6.43,10.38,10.38,0,0,1,.38,1.27,19.53,19.53,0,0,1,.82,5.61,20.84,20.84,0,0,1-.13,2.23.39.39,0,0,0,0,.15,20.69,20.69,0,0,1-1.28,5.05,18.75,18.75,0,0,1-.89,2c-6.08,12.05-23.6,20.77-44.23,20.77-25.69,0-46.53-13.51-46.53-30.2S262,205.16,287.69,205.16Z"/><path class="cls-6" d="M287.69,197c19.62,0,36.64,6.61,45.12,16.27.16.21.36.42.5.62a23.59,23.59,0,0,1,3.87,6.44,8.87,8.87,0,0,1,.42,1.26,18,18,0,0,1,.89,5.61,18.42,18.42,0,0,1-.14,2.23.39.39,0,0,0,0,.15,19.28,19.28,0,0,1-1.4,5,18.43,18.43,0,0,1-1,2c-6.64,12.05-25.76,20.78-48.27,20.78-28,0-50.78-13.52-50.78-30.21S259.65,197,287.69,197Z"/><path class="cls-7" d="M287.69,193.15c19.62,0,36.64,6.61,45.12,16.28.16.21.36.41.5.62a23.54,23.54,0,0,1,3.87,6.43,8.59,8.59,0,0,1,.42,1.27,18,18,0,0,1,.89,5.61,18.54,18.54,0,0,1-.14,2.23.39.39,0,0,0,0,.15,20.64,20.64,0,0,1-2.37,7c-6.64,12.05-25.76,20.77-48.27,20.77-28,0-50.78-13.51-50.78-30.2S259.65,193.15,287.69,193.15Z"/><path class="cls-6" d="M287.69,184.71c20.68,0,38.63,6.61,47.57,16.28.17.2.38.41.52.61a23.42,23.42,0,0,1,4.09,6.44,10.41,10.41,0,0,1,.44,1.26,17.2,17.2,0,0,1,.94,5.61,18.73,18.73,0,0,1-.15,2.24.25.25,0,0,0,0,.14,18.07,18.07,0,0,1-1.47,5.06,18.84,18.84,0,0,1-1,2c-7,12-27.15,20.77-50.89,20.77-29.56,0-53.54-13.52-53.54-30.21S258.13,184.71,287.69,184.71Z"/><path class="cls-7" d="M287.69,180.84c20.68,0,38.63,6.61,47.57,16.27.17.21.38.42.52.62a23.28,23.28,0,0,1,4.09,6.44,10.41,10.41,0,0,1,.44,1.26,17.2,17.2,0,0,1,.94,5.61,18.42,18.42,0,0,1-.15,2.23.27.27,0,0,0,0,.15,18,18,0,0,1-1.47,5.05,17.1,17.1,0,0,1-1,2c-7,12.05-27.15,20.78-50.89,20.78-29.56,0-53.54-13.52-53.54-30.21S258.13,180.84,287.69,180.84Z"/><path class="cls-12" d="M283.92,32.56q1.9-.09,3.78-.09a79.29,79.29,0,0,1,67.35,121.15c-9.1,14.62-13.08,31.6-13.46,48.81-.17,7.82-5.38,15.6-15.65,21.56-21,12.2-55.11,12.2-76.23,0-10.35-6-15.66-13.77-15.9-21.61-.54-17.52-4.92-34.64-14-49.64A79.29,79.29,0,0,1,283.92,32.56Z"/><path class="cls-10" d="M287.69,172.73c20.68,0,38.63,6.61,47.57,16.27.17.21.38.42.52.62a23.28,23.28,0,0,1,4.09,6.44,10.41,10.41,0,0,1,.44,1.26,17.2,17.2,0,0,1,.94,5.61,18.42,18.42,0,0,1-.15,2.23.27.27,0,0,0,0,.15,18,18,0,0,1-1.47,5.05,17.1,17.1,0,0,1-1,2c-7,12-27.15,20.78-50.89,20.78-29.56,0-53.54-13.52-53.54-30.21S258.13,172.73,287.69,172.73Z"/><path class="cls-22" d="M292.86,205.16H341.1a.27.27,0,0,0,0,.15,18,18,0,0,1-1.47,5.05H292.86c-1.94,0-3.53-.64-3.53-2.61S290.92,205.16,292.86,205.16Z"/><path class="cls-22" d="M337.3,191.53H274.82a4,4,0,0,0-.5,1.88,3.88,3.88,0,0,0,3.52,3.91h62.47a10.41,10.41,0,0,0-.44-1.26A23.11,23.11,0,0,0,337.3,191.53Z"/><path class="cls-4" d="M291.19,138.29c1.94,0,2.61,1.57,2.61,3.52v65c0,1.94-.67,3.52-2.61,3.52s-2.61-1.58-2.61-3.52v-65C288.58,139.86,289.24,138.29,291.19,138.29Z"/><path class="cls-4" d="M276.92,125.24c1.95,0,2.61,1.58,2.61,3.52v65c0,1.95-.66,3.52-2.61,3.52s-2.61-1.57-2.61-3.52v-65C274.31,126.82,275,125.24,276.92,125.24Z"/><g class="cls-23"><path class="cls-24" d="M260.32,44.48q2.52,7.23,5.05,14.45a62.18,62.18,0,0,0-21,16l-11.18-9.78A80.35,80.35,0,0,1,260.32,44.48Z"/><path class="cls-25" d="M266.38,61.8q2.53,7.23,5.06,14.45a40.55,40.55,0,0,0-13.63,10.39l-11.17-9.78A58.64,58.64,0,0,1,266.38,61.8Z"/><path class="cls-26" d="M241.06,79.19a62.11,62.11,0,0,0-10.54,24.16l-15.24-1.48a80.5,80.5,0,0,1,13.63-31.22Z"/><path class="cls-27" d="M255.64,89.42a40.2,40.2,0,0,0-6.85,15.7l-15.24-1.48a58.59,58.59,0,0,1,9.93-22.76Z"/></g><polygon class="cls-6" points="467.73 258.92 488.87 246.43 467.73 239.41 467.73 258.92"/><polygon class="cls-6" points="511.11 337.1 561.85 308 561.85 258.66 511.11 287.76 511.11 337.1"/><path class="cls-28" d="M491.25,241.81a2.46,2.46,0,0,1-2.16-2.22c-.65-3.13-6.09-10.84-17.41-5.86-3.21,1.41-6.74,6.54-.56,10,5.14,2.9,9.42.84,11.78,2.94l-21.45,12.55,17.63,10.12a2.63,2.63,0,0,0,3-2.39c.7-3.33,6.5-11.56,18.59-6.25,3.42,1.51,7.18,7,.59,10.7-5.63,3.17-10.3.77-12.77,3.33l22.66,13,50.74-29.1L512.2,229.55Z"/><path class="cls-7" d="M461.45,308.59l16.84,9.67A2.81,2.81,0,0,0,482,316c.7-3.33,6.5-11.56,18.59-6.25,3.42,1.51,7.18,7,.59,10.7-5.74,3.23-10.49.66-12.93,3.47l22.82,13.19V287.76l-49.66-28.52Z"/><path class="cls-6" d="M500.75,260.68c-12.09-5.31-18.1,2.82-18.68,6.18a2.76,2.76,0,0,1-2.71,2.51v49a2.64,2.64,0,0,0,2.81-2.4,11,11,0,0,1,6.12-6.94l.13-34.2c2.43-2.81,7.18-.24,12.92-3.47C507.94,267.66,504.17,262.19,500.75,260.68Z"/><polygon class="cls-7" points="488.29 323.91 511.11 337.1 511.11 287.76 488.45 274.75 488.29 323.91"/><g class="cls-2"><g class="cls-29"><path class="cls-11" d="M84.73,441.88a4.58,4.58,0,0,0,.75,2.35l.2-25.49a4.47,4.47,0,0,1-.74-2.35Z"/></g></g><polygon class="cls-11" points="43.3 443.84 46.58 445.74 46.78 420.25 43.5 418.35 43.3 443.84"/><path class="cls-10" d="M55.07,421.1a10.14,10.14,0,0,0-4.9-1.15,18.16,18.16,0,0,0-3.39.3l-.2,25.49a18.06,18.06,0,0,1,3.39-.29,10,10,0,0,1,4.9,1.14,3.66,3.66,0,0,1,2.07,3.22l.2-25.49A3.65,3.65,0,0,0,55.07,421.1Z"/><path class="cls-11" d="M107,423.12a2.56,2.56,0,0,1-.26.62.18.18,0,0,0,0,.07,2.93,2.93,0,0,1-.39.48,1.14,1.14,0,0,1-.16.15,3.87,3.87,0,0,1-.59.46,6.08,6.08,0,0,1-.81.39l-.33.13a7.39,7.39,0,0,1-.75.21l-.29.07a7.54,7.54,0,0,1-.83.12,2.87,2.87,0,0,1-.41.05,11.56,11.56,0,0,1-1.33.05,16.07,16.07,0,0,1-1.67-.1c-.57-.07-1.16-.15-1.75-.27L97.18,451a20,20,0,0,0,3.42.38c.46,0,.9,0,1.33-.05l.41-.05.73-.1.09,0a1.46,1.46,0,0,0,.3-.07q.39-.09.75-.21l.33-.13.28-.1a5,5,0,0,0,.52-.28c.16-.1.31-.21.44-.31l.16-.15.16-.15a3.49,3.49,0,0,0,.39-.49l.05-.07s0,0,0,0a2.63,2.63,0,0,0,.25-.6,1.16,1.16,0,0,0,0-.18,2,2,0,0,0,.07-.31c0-.1,0-.2,0-.3l.21-25.49a2.35,2.35,0,0,1-.09.6A1.29,1.29,0,0,1,107,423.12Z"/><polygon class="cls-10" points="94.21 452.86 97.18 451.04 97.38 425.55 94.42 427.37 94.21 452.86"/><path class="cls-11" d="M35.59,454l.2-25.49a4.41,4.41,0,0,1,.41-1.74l-.2,25.5A4.32,4.32,0,0,0,35.59,454Z"/><polygon class="cls-11" points="15.52 460.95 37.54 473.76 37.74 448.27 15.72 435.46 15.52 460.95"/><polygon class="cls-10" points="99.03 476.26 116.23 465.67 116.43 440.18 99.23 450.77 99.03 476.26"/><path class="cls-10" d="M94.31,443.92a10.25,10.25,0,0,0-4.92-1.14c-.51,0-1,0-1.57.06l-.44,0c-.44.05-.88.11-1.32.19l-.24,0-.12,0-.5.11-.75.18-.52.15-.71.22-.53.19-.69.26-.51.22-.33.14-.19.1a16.08,16.08,0,0,0-1.59.86c-.33.2-.62.4-.91.61l-.26.19-.32.24-.23.21-.27.23c-.17.15-.33.31-.48.47l-.2.2a7,7,0,0,0-.57.67.35.35,0,0,1,0,.08c-.12.17-.24.34-.34.51l-.06.1-.08.16a4.55,4.55,0,0,0-.26.55l-.06.13a3.83,3.83,0,0,0-.18.64.8.8,0,0,0,0,.15,2.17,2.17,0,0,0,0,.25c0,.12,0,.24,0,.36l-.2,25.5a3.27,3.27,0,0,1,.07-.62c0-.05,0-.1,0-.15a5.74,5.74,0,0,1,.19-.64.5.5,0,0,0,0-.13c.08-.18.17-.36.27-.55a1.09,1.09,0,0,1,.08-.15,5.93,5.93,0,0,1,.4-.62l0-.07a7.08,7.08,0,0,1,.57-.68l.19-.2.49-.47.26-.23.56-.45.26-.19c.28-.21.58-.41.9-.61.51-.31,1-.59,1.59-.85l.53-.25.51-.22.69-.26.52-.19.72-.22.52-.15.75-.18.49-.1.37-.07c.44-.07.88-.14,1.32-.18l.44,0a14,14,0,0,1,1.57-.07,10.25,10.25,0,0,1,4.92,1.15,3.67,3.67,0,0,1,2.06,3.22l.2-25.5A3.68,3.68,0,0,0,94.31,443.92Z"/><polygon class="cls-11" points="95.76 474.36 99.03 476.26 99.23 450.77 95.96 448.87 95.76 474.36"/><polygon class="cls-10" points="46.27 482.4 49.24 480.57 49.44 455.08 46.48 456.91 46.27 482.4"/><path class="cls-11" d="M47.1,460a2.92,2.92,0,0,1-.27.63l0,0a2.9,2.9,0,0,1-.42.52l-.15.14a4.12,4.12,0,0,1-.6.46,4.7,4.7,0,0,1-.81.4l-.32.12a5.92,5.92,0,0,1-.75.22l-.3.07a7,7,0,0,1-.82.12l-.41,0a11.3,11.3,0,0,1-1.32.05,22.44,22.44,0,0,1-10.49-3c-3.48-2-5.41-4.48-5.39-6.48l-.2,25.49c0,2,1.91,4.46,5.39,6.48a22.41,22.41,0,0,0,10.49,3c.45,0,.9,0,1.32,0l.4-.06c.25,0,.5-.05.73-.09l.1,0,.3-.07q.39-.09.75-.21l.32-.13.27-.1c.19-.09.37-.19.54-.29a2.92,2.92,0,0,0,.44-.32,1.14,1.14,0,0,0,.16-.15l.15-.14a2.65,2.65,0,0,0,.42-.53h0a2.47,2.47,0,0,0,.26-.63c0-.06,0-.13,0-.2s.05-.19.06-.29,0-.2,0-.29l.2-25.5a2.8,2.8,0,0,1-.08.59A1.18,1.18,0,0,1,47.1,460Z"/><polygon class="cls-11" points="49.24 480.57 71.26 493.38 71.46 467.88 49.44 455.08 49.24 480.57"/><polygon class="cls-10" points="71.26 493.38 88.45 482.79 88.65 457.29 71.46 467.88 71.26 493.38"/><path class="cls-12" d="M97.38,425.55a19,19,0,0,0,3.42.37,9,9,0,0,0,4.75-1c3.15-1.94,1.44-6-3.81-9.06a22.52,22.52,0,0,0-10.48-3,9,9,0,0,0-4.75,1c-1.83,1.12-2,3-.83,4.91l-3,1.82-22-12.82L43.5,418.34l3.28,1.91a18.16,18.16,0,0,1,3.39-.3,10.14,10.14,0,0,1,4.9,1.15c3.49,2,2.46,6-2.3,9a19.38,19.38,0,0,1-10,2.77,10.14,10.14,0,0,1-4.92-1.14,3.61,3.61,0,0,1-1.65-4.95l-3.28-1.89-17.2,10.59,22,12.81-3,1.83a18.39,18.39,0,0,0-3.45-.38,8.86,8.86,0,0,0-4.7,1c-3.16,1.95-1.46,6,3.8,9.06a22.44,22.44,0,0,0,10.49,3,8.88,8.88,0,0,0,4.73-1c1.83-1.12,2-2.95.84-4.89l3-1.83,22,12.8,17.19-10.59-3.27-1.91a16.65,16.65,0,0,1-3.4.3,10.08,10.08,0,0,1-4.9-1.14c-3.48-2-2.46-6.05,2.3-9a19.4,19.4,0,0,1,10-2.78,10.25,10.25,0,0,1,4.92,1.14A3.62,3.62,0,0,1,96,448.87l3.27,1.9,17.2-10.59-22-12.81Z"/><path class="cls-5" d="M202.29,380.42l-45-26.06a16.58,16.58,0,0,0-17,.19L119.82,367a16.61,16.61,0,0,0,.31,28.56l45,26.06a16.6,16.6,0,0,0,17-.18L202.61,409A16.61,16.61,0,0,0,202.29,380.42Z"/><path class="cls-14" d="M215.87,291.68,203.3,299a1.56,1.56,0,0,1-.76.2,1.65,1.65,0,0,1-.76-.19l-5.33-3a3.11,3.11,0,0,1-.58-.56s0,.36,0,.52a1.07,1.07,0,0,0,.58.93l5.33,3a1.63,1.63,0,0,0,.76.18,1.54,1.54,0,0,0,.76-.19l12.57-7.34a1.05,1.05,0,0,0,.54-.92v-.42A4.21,4.21,0,0,1,215.87,291.68Z"/><path class="cls-15" d="M215.83,290.3l-5.33-3a1.65,1.65,0,0,0-.76-.19,1.56,1.56,0,0,0-.76.2l-12.56,7.34a1,1,0,0,0-.55.92,1.06,1.06,0,0,0,.58.92l5.33,3a1.61,1.61,0,0,0,1.52,0l12.57-7.34a1.05,1.05,0,0,0,.54-.92A1.07,1.07,0,0,0,215.83,290.3Z"/><path class="cls-8" d="M210.49,291.55a1,1,0,0,0-.43-.38,2.77,2.77,0,0,0-1.27-.27,3.41,3.41,0,0,0-1.61.37c-.85.46-.92,1.16-.17,1.56a3.43,3.43,0,0,0,2.88-.1l.07,0h0c.57-.33.75-.77.53-1.14Z"/><path class="cls-4" d="M210.71,290.61a1.6,1.6,0,0,1,.6.62c0,.06.06.13.08.19l.37-1.69-2.36.45A3.08,3.08,0,0,1,210.71,290.61Z"/><path class="cls-4" d="M210.56,293.13s-.07.05-.09.07a4.42,4.42,0,0,1-1.63.58l2.34.62-.22-1.61A2.18,2.18,0,0,1,210.56,293.13Z"/><path class="cls-4" d="M205.89,291.44a2.17,2.17,0,0,1,.71-.66,4.09,4.09,0,0,1,1.5-.54l-2.59-.45Z"/><path class="cls-4" d="M205.7,292.6l-.39,1.78,2.68-.52a5.08,5.08,0,0,1-1.63-.49A1.55,1.55,0,0,1,205.7,292.6Z"/><path class="cls-15" d="M130.94,385.84c-.68.38,0,1.14,0,1.93,0,1.34.14,2.43,1.6,2.43s1.61-1.07,1.62-2.42c0-.62.8-1.19.38-1.61l-.09-.1s13-1.68,15.72-1.08a22,22,0,0,1,2.5-1.54C145.63,380.93,135.7,383.15,130.94,385.84Z"/><path class="cls-7" d="M132.63,385.15a2.56,2.56,0,1,0,2.55,2.56A2.56,2.56,0,0,0,132.63,385.15Z"/><path class="cls-4" d="M152.72,380.67l0-.07c-15.76-1.44-22.34,5.76-22.34,5.76,2.82-1.33,10.07-4.74,22.33-2.91a2.46,2.46,0,0,1-.91-.77C151.31,382,151.73,381.24,152.72,380.67Z"/><path class="cls-15" d="M138.62,399.51a3.83,3.83,0,0,0-.47,1.65,3.08,3.08,0,0,0,6.13,0,2.22,2.22,0,0,0,0-.37,2.59,2.59,0,0,0-.42-1.11A44.52,44.52,0,0,1,157,386.33V384.4c-.12,0-4.49-.2-4.61-.24C146,387,139.6,397.41,138.62,399.51Z"/><path class="cls-7" d="M141.28,398a3.07,3.07,0,1,0,3.07,3.07A3.08,3.08,0,0,0,141.28,398Z"/><path class="cls-4" d="M151.73,383.45c-.75.39-10.18,9.49-12.59,14.55a1.38,1.38,0,0,0,.83,1.93l.08,0a1.39,1.39,0,0,0,1.69-.85c2.11-5.15,14.73-14.94,14.61-14.94A8.58,8.58,0,0,1,151.73,383.45Z"/><path class="cls-15" d="M183,385.84c-4.76-2.69-14.7-4.91-21.74-2.39a20.33,20.33,0,0,1,2.5,1.54c2.72-.6,15.73,1.08,15.73,1.08l-.1.1c-.42.42.39,1,.39,1.61,0,1.35.14,2.43,1.61,2.42s1.6-1.09,1.6-2.43C183,387,183.68,386.22,183,385.84Z"/><path class="cls-7" d="M181.29,385.15a2.56,2.56,0,1,0,2.56,2.56A2.56,2.56,0,0,0,181.29,385.15Z"/><path class="cls-4" d="M161.26,380.6l0,.07c1,.57,1.41,1.3,1,2a2.5,2.5,0,0,1-.92.77c12.27-1.83,19.51,1.58,22.33,2.91C183.59,386.36,177,379.16,161.26,380.6Z"/><path class="cls-15" d="M161.53,384.16c-.12,0-4.49.19-4.61.24v1.93a44.66,44.66,0,0,1,13.19,13.37,2.6,2.6,0,0,0-.43,1.11c0,.12,0,.24,0,.37a3.08,3.08,0,0,0,6.13,0,3.83,3.83,0,0,0-.47-1.65C174.33,397.41,168,387,161.53,384.16Z"/><path class="cls-7" d="M172.7,398a3.07,3.07,0,1,0,3.07,3.07A3.08,3.08,0,0,0,172.7,398Z"/><path class="cls-4" d="M162.21,383.45a8.62,8.62,0,0,1-4.63.71c-.11,0,12.51,9.79,14.61,14.94a1.4,1.4,0,0,0,1.7.85l.07,0a1.39,1.39,0,0,0,.84-1.93C172.38,392.94,163,383.84,162.21,383.45Z"/><path class="cls-30" d="M157.55,379.87c-3.83,0-6.93,1.21-6.93,2.7s3.1,2.71,6.93,2.71,6.92-1.21,6.92-2.71S161.37,379.87,157.55,379.87Z"/><path class="cls-15" d="M157.55,379.16c-3.83,0-6.93,1.21-6.93,2.7s3.1,2.71,6.93,2.71,6.92-1.21,6.92-2.71S161.37,379.16,157.55,379.16Z"/><path class="cls-8" d="M185.67,365.87a33,33,0,0,0-7.24,1.66s.46,5-3.86,3c-3-1.4-6.73-6.16-7.87-6.16,0,0-3.1,2.46-.39,7.21s3.08,6.86,3.08,6.86a1.17,1.17,0,0,0,1.57-.26l-1.59-6.06,7,3.22a4.49,4.49,0,0,0,3.62-.61,13.51,13.51,0,0,0,6.48-8.16C186.57,366.12,186.12,365.83,185.67,365.87Z"/><path class="cls-31" d="M164.17,321.28l5.38,11.27,2.55-1.64a48.31,48.31,0,0,0-3.37,16.74c-.21,9.57-.33,14.78-2,16.74a38.18,38.18,0,0,1,5,4.51c1.5,1.69,5.76,3.48,8.26,1.43a1.32,1.32,0,0,0-.33-2.19c-1.92-.87-4.64-2.57-5-5.29-.41-3.43,8.55-30.91,8.55-39.43S167.25,320,164.17,321.28Z"/><path class="cls-8" d="M198.35,377.4a32.87,32.87,0,0,0-7.23,1.66s.46,5-3.86,3c-3-1.4-6.73-6.16-7.87-6.16,0,0-3.11,2.46-.4,7.21s3.09,6.86,3.09,6.86a1.17,1.17,0,0,0,1.57-.26l-1.59-6.06,7,3.22a4.46,4.46,0,0,0,3.61-.61,13.47,13.47,0,0,0,6.48-8.16C199.25,377.65,198.8,377.36,198.35,377.4Z"/><path class="cls-31" d="M173.69,330.38l8.55,13.7,2.54-1.64a48.35,48.35,0,0,0-3.36,16.73c-.21,9.58-.33,14.79-2,16.75a37.72,37.72,0,0,1,5,4.51c1.5,1.69,5.77,3.47,8.26,1.43a1.31,1.31,0,0,0-.32-2.19c-1.92-.87-4.65-2.57-5-5.29-.4-3.43,8.55-30.91,8.55-39.44C195.9,323.14,176.78,329.13,173.69,330.38Z"/><path class="cls-32" d="M154.72,382.47a4.47,4.47,0,0,0,2.77.6c2.41,0,3-.6,3-.6V364.39h-5.74Z"/><polygon class="cls-18" points="166.59 362.08 191.25 349.42 163.9 333.79 166.59 362.08"/><path class="cls-12" d="M175.79,330.69c-2.64-1.82-9-7.55-9-7.55l-1.28,11c-7.59,7.14-17.57-2.76-17.66-2.83h0s-6.34,10.09,3,18.51c9.21,8.25,20.1,3.89,31.41-5.6C182.32,344.18,184.51,336.73,175.79,330.69Z"/><path class="cls-17" d="M162.89,306c-4.74-2.61-7.59-4.52-7.59-4.52a11.49,11.49,0,0,0-3.49-.94,5.77,5.77,0,0,0-4.5,1.23c-7.43,6.68.55,23.06.55,29.5,0,0,10,10,17.66,2.83l1.28-11a4.75,4.75,0,0,0,3.34-4.68C170.14,314.63,166,307.72,162.89,306Z"/><path class="cls-31" d="M168.69,285.16c-.72-4.46-4.46-6.51-9.1-6.51a9,9,0,0,0-9,9s0,.1,0,.15h0v5c0,3.75,10.1,9.32,11.25,9.27a2.76,2.76,0,0,0,1.65-.6c3.1-2.47,6-7.52,5.39-11.12C168.54,288.26,169,286.77,168.69,285.16Z"/><path class="cls-8" d="M163.66,287c1.94-1.31,5.85-1.79,5.85-6.05,0-2-4.91-7.08-11-7.08a13.58,13.58,0,0,0-12.22,9.39c-3.06,10-1.17,31.08-1.17,38.76,0,10.95,9.28,10.28,9.28,7.33,0-15.41,3-22.86,6.41-22.86,2.92,0,7.8,4.17,9.32,11.37.43-7.19-2.79-10.36-5.5-15.14C161.13,296.55,161.48,288.45,163.66,287Z"/><path class="cls-17" d="M181.75,310.53c-6.61.58-14.65-2.18-20.52-4.33-2.07-.64-4.41,1.35-5.33,4.1a7.61,7.61,0,0,0-.14,2.07c.1,3.19,1.88,4.27,4.19,5.05,6.54,2.22,14.81,1.85,22.08,1.41a4.39,4.39,0,0,0,4.14-4.53s0-.11,0-.14A4.1,4.1,0,0,0,181.75,310.53Z"/><path class="cls-9" d="M208.12,294.58a30.11,30.11,0,0,1-3.83,1.46,3.42,3.42,0,0,1-2.06-.31c0-.43.54-.65.54-.65s2.06-.13,2.29-.11a1.24,1.24,0,0,0,1.27-1.16l-3.41-.3a3.55,3.55,0,0,0-1.9.55c-.83.6-.69,2-1.53,2.73-2,1.66-9.46,8.41-9.46,8.41l3.63,4.47c3.06-3.11,6.83-8.27,7.58-8.4.43-.06,4.93-.11,6.31-1.52s1-1.88,1.68-3.93S208.12,294.58,208.12,294.58Z"/><path class="cls-17" d="M196.18,298.74a70.35,70.35,0,0,1-16.27,12.61,3.76,3.76,0,0,0-1.51,4.86l.26.46a4,4,0,0,0,5.39,1.48C189,315.59,196.49,308.2,201,303A13.89,13.89,0,0,1,196.18,298.74Z"/><path class="cls-15" d="M131.61,344.54a13,13,0,0,0,6.45,11.24l19.46,11.38a10.48,10.48,0,0,0,10.25.2l3.1-1.65-39.26-22.35Z"/><path class="cls-15" d="M153.87,309.47l-19.54-11.82c-2-1.07-3.76-.79-4.64.56h0a4.57,4.57,0,0,0-.58,2.81l1.65,40.89a6.57,6.57,0,0,0,3.25,5.28l28.52,16.57-3-45.6A12.16,12.16,0,0,0,153.87,309.47Z"/><path class="cls-32" d="M188.4,349.21,168,359.76v0l.07,0-3.51-43.55A12.07,12.07,0,0,0,159,307.6l-19-11.93c-2.3-1.23-9.36,0-10.35,2.54.88-1.35,2.6-1.63,4.64-.56l19.54,11.82a12.16,12.16,0,0,1,5.65,8.69l3,45.6v.06a3.82,3.82,0,0,0,5.62,3.34l22.92-12.7a2.9,2.9,0,0,0,1.54-2.57v-.06A2.92,2.92,0,0,0,188.4,349.21Z"/><polygon class="cls-17" points="22.25 339.52 78.01 307.12 78.07 286.48 22.31 318.88 22.25 339.52"/><path class="cls-6" d="M14.32,312.28a19.64,19.64,0,0,1-1.46-2.08,15.9,15.9,0,0,1-1.5-3.23,13.43,13.43,0,0,1-.72-4.4l-.06,20.63c0,5.9,3.88,11.81,11.67,16.32l.06-20.64A28.25,28.25,0,0,1,14.32,312.28Z"/><path class="cls-7" d="M22.13,286.48c-15.4,8.95-15.31,23.46.18,32.4l27.88-16.2,27.88-16.2C62.57,277.54,37.53,277.53,22.13,286.48Z"/><path class="cls-28" d="M22.13,286.49a31.73,31.73,0,0,0-5,3.57c-.36.32-.7.64-1,1-3.64,3.58-5.45,7.61-5.43,11.66H50.19l27.87-16.19C62.57,277.54,37.52,277.53,22.13,286.49Z"/><path class="cls-33" d="M100.67,285.18l-.06,36.09c0,3.51-1.44,7.06-4.38,10.42l.06-36.09C99.22,292.24,100.66,288.69,100.67,285.18Z"/><path class="cls-13" d="M88.87,269,61,285.2l35.3,10.4C104.17,286.58,101.26,276.16,88.87,269Z"/><polygon class="cls-34" points="60.93 321.29 96.23 331.69 96.29 295.6 60.99 285.2 60.93 321.29"/><path class="cls-11" d="M84.24,314.39l-.65.62-.61.54c-.18.15-.34.3-.52.44l-.66.52-.54.41-.72.51-.56.38c-.25.17-.52.34-.79.5s-.36.24-.55.35l-.22.12c-.34.2-.68.4-1,.59l-.39.22-1,.5-.35.17c-.44.22-.89.42-1.34.63l-.24.1-1.16.49-.44.17-1.09.41-.38.14-1.46.5-1.75.53-.1,0c-.56.16-1.13.31-1.7.45l-.62.15-1.22.28-.74.15-1.13.22-.61.11-1.75.28-.64.09c-.76.1-1.53.2-2.3.28h-.22c-.6.06-1.21.11-1.81.15l-.7.05-1.36.06-.88,0-1.06,0H49l-.94,0-1,0-1-.06-1-.06-1-.08-1-.09-1-.11-.95-.13-.93-.13-1-.16-.92-.16-1-.19-.87-.18-1.19-.27-.82-.2-1.21-.32c-.34-.1-.69-.18-1-.29s-.89-.26-1.31-.4l-.4-.13-.86-.29-.45-.15-.79-.29-.41-.16-.54-.22-.87-.36-.52-.22-.83-.39-.49-.23c-.29-.15-.59-.29-.88-.45l-.41-.21c-.43-.23-.85-.46-1.28-.71l-.06,20.64,1.28.71.41.21.88.44.49.24c.27.13.55.26.84.38s.34.15.51.22l.87.37.34.14.2.07.41.16.8.29.44.16.86.29.4.13,1.31.4.48.14.55.14c.4.12.81.22,1.21.32l.82.2c.39.1.79.19,1.19.27l.42.1.45.08,1,.19.91.17,1,.16.53.08.4.05.95.12,1,.11,1,.09.55.06.41,0,1,.07,1,0,1,0,.55,0H50.9l1.06,0h.88l1.36-.07.7,0c.6,0,1.21-.09,1.81-.15l.21,0h0c.77-.08,1.54-.17,2.3-.27l.64-.1c.59-.08,1.17-.17,1.75-.27l.39-.07.22,0,1.13-.22.74-.16c.41-.08.82-.18,1.22-.28l.62-.14,1.7-.46.1,0c.59-.17,1.18-.35,1.75-.54l.07,0,1.39-.47.38-.14c.37-.14.73-.27,1.09-.42l.44-.17,1.15-.48.25-.11c.46-.2.9-.41,1.34-.62l.35-.18,1-.5.4-.21c.35-.19.69-.39,1-.59l.22-.12.06,0,.49-.31.8-.5.55-.39.72-.5.54-.42c.22-.17.45-.34.66-.52s.35-.29.52-.44l.61-.53.11-.1c.19-.17.36-.35.54-.53l.33-.31c.32-.33.63-.66.92-1l.06-20.64c-.29.34-.6.67-.92,1Z"/><path class="cls-12" d="M22.31,318.88a43.6,43.6,0,0,0,10,4.21c19.49,5.75,43.28,1.27,53.14-10l-35.3-10.4Z"/><rect class="cls-6" x="267.56" y="372.53" width="18.99" height="19.16"/><polygon class="cls-6" points="267.56 478.9 318.29 449.8 318.29 391.11 267.56 420.21 267.56 478.9"/><path class="cls-17" d="M287.54,408.57l-7.15,4,0,58.92s1.66-.18,2.36,2.11c1,3.13,6.24,11.11,17.84,6,2.09-.92,4.31-3.38,4-6l0,0-.17-58.2Z"/><polygon class="cls-28" points="217.89 450.38 267.56 478.9 267.56 420.2 217.89 391.69 217.89 450.38"/><path class="cls-18" d="M296.1,378.1a2.7,2.7,0,0,0-3.3,2.35c-.7,3.34-6.5,11.57-18.59,6.25-3.42-1.5-7.19-7-.59-10.69,5.74-3.24,10.49-.66,12.93-3.48L268.64,362l-50.75,29.69,49.67,28.51,12.61-7.3a2.52,2.52,0,0,1,3,2.22c.65,3.12,6.08,10.84,17.41,5.86,3.21-1.41,6.73-6.54.55-10-5.32-3-9.73-.68-12-3.18l29.19-16.68Z"/><polygon class="cls-6" points="353.26 440.58 353.26 416.34 330.83 424.07 353.26 440.58"/><polygon class="cls-35" points="308.39 502.31 359.12 473.21 359.12 437.56 308.39 466.66 308.39 502.31"/><polygon class="cls-15" points="258.72 473.8 308.39 502.31 308.39 466.66 258.72 438.14 258.72 473.8"/><path class="cls-32" d="M349.69,421.07c6.6-3.71,2.83-9.19-.59-10.69-12.09-5.32-17.89,2.91-18.59,6.25a2.65,2.65,0,0,1-3,2.39l-18-10.57L289.78,420c2.29,2.58,6.72.21,12.07,3.22,6.18,3.48,2.65,8.61-.55,10-11.33,5-16.76-2.74-17.42-5.86a2.49,2.49,0,0,0-2.91-2.23l-22.2,13,49.67,28.52,50.73-29.1-22.33-13.09C339.3,421.8,344,424.27,349.69,421.07Z"/><path class="cls-6" d="M300.59,413.75l-.1,0-12.74-5.07h0l-.12-.07-7.1,4v.34l0,12.55s1.44-.23,1.57-.21a2.54,2.54,0,0,1,1.82,2.17,10.53,10.53,0,0,0,8.11,7.26,13.46,13.46,0,0,0,5.58-.15,21.3,21.3,0,0,0,3.73-1.26,7.32,7.32,0,0,0,3.3-3V415.3l-.05,0Z"/><path class="cls-7" d="M292.79,380.46c-.69,3.33-6.49,11.55-18.58,6.25-3.42-1.51-7.18-7-.59-10.71,5.74-3.23,10.49-.66,12.92-3.47L268.64,362l-50.76,29.68,49.61,28.48.07,0,9.34-5.43.51-.34,2.76-1.68h.05l.28,0a2.5,2.5,0,0,1,2.67,2.27c.6,2.91,5.31,10.24,15,6.66h0a6.54,6.54,0,0,0,2.38-.79c2-.88,4.14-3.13,3.94-5.61a4.57,4.57,0,0,0-1.57-3,8.14,8.14,0,0,0-1.82-1.32c-5.32-3-9.73-.68-12-3.18l28.79-16.45.4-.23-22.19-13A2.71,2.71,0,0,0,292.79,380.46Z"/><path class="cls-8" d="M428.38,99.87a4.32,4.32,0,0,0-6,.51A50.38,50.38,0,0,1,405,113.19c-3.6,1.51-3.43,4.71-1.95,6.57a10,10,0,0,0,1.06,1.13c2.43,2.34,4.56,1.84,6.87.73,6.58-3.14,12.53-9.5,17.7-15.19a4.61,4.61,0,0,0-.22-6.45Z"/><path class="cls-9" d="M428,72.45a3.71,3.71,0,0,0-1.24-1.68l-3-1.94a1.33,1.33,0,0,0,.33,1.79c.19.13,1.84,1.56,1.84,1.56s.35.56,0,.89A3.7,3.7,0,0,1,423.94,72c-.87-1.07-2.25-4.27-3.43-6.35-.38-.66-2.6-1.79-1.72.33.18.42,2.12,3.18,1.82,3.93a7.89,7.89,0,0,0-1,4.12c.25,2.07,3.22,4,3.54,4.3.55.58.4,7.32,1,11.88L430,88.8s-1.95-10.44-2.54-13.09C427.23,74.58,428.26,73.47,428,72.45Z"/><path class="cls-8" d="M422.6,80.86a73.91,73.91,0,0,1-.89,21.66A4,4,0,0,0,424.6,107l.54.11a4.22,4.22,0,0,0,4.86-3.34c1.29-5.72.43-16.78-.74-23.94A14.52,14.52,0,0,1,422.6,80.86Z"/><path class="cls-36" d="M406.5,239.12s0,0,0,0Z"/><path class="cls-8" d="M416,225.46a15.63,15.63,0,0,0-4.85.87c-3.33,1-13.43,2.4-13.43,2.4s-.19,4.2-.19,7.77c0,2.55,2.65,3.92,5.26,3.92a8.42,8.42,0,0,0,4-1.61l.24-1.71,1,.64s9.8-6.48,10.58-8.15A3,3,0,0,0,416,225.46Z"/><path class="cls-17" d="M397.25,233.64c8.58,2.3,11.85-3,11.85-3l4.36-65.52-17.1,2.33Z"/><path class="cls-36" d="M426.77,250.39s0,0,0,0Z"/><path class="cls-8" d="M436.26,236.73a15.63,15.63,0,0,0-4.85.87c-3.33,1-13.42,2.4-13.42,2.4s-.19,4.2-.19,7.77c0,2.55,2.64,3.92,5.25,3.92a8.42,8.42,0,0,0,3.95-1.61l.24-1.71,1,.64s9.8-6.48,10.58-8.15A3,3,0,0,0,436.26,236.73Z"/><path class="cls-17" d="M417.52,244.91c8.58,2.3,11.85-3,11.85-3l.29-71-17.58,2Z"/><path class="cls-12" d="M431,128.23c.24-3.59-.39-11.08-4.12-13.66-2.51-1.74-8-3.18-13.71-3.18-15.66,0-16.2,13.67-16.2,17.26,0,7.8-2.29,38.24-2.29,38.24,1.65,1.06,4.44,4.22,10,5.37a64.71,64.71,0,0,0,12.8,1.39c5.35,0,10.26-.82,14.15-2.71C431.65,170.94,430.5,135.79,431,128.23Z"/><path class="cls-9" d="M411.06,102.13s.58,6.47-.62,9.33c-.9,2.14,11.24,3.23,8.89.17-1.13-1.48.84-5.77.84-5.77Z"/><path class="cls-9" d="M422.39,88.8c-2.92-1.53-10.36-.08-12.16,5.14-1.09,3.12.68,7.83.68,7.83s4.22,5.5,6.12,6.74c.45.3,3.45,1.73,5,0s3.44-6.23,3.06-11.35S424.34,89.81,422.39,88.8Z"/><path class="cls-37" d="M423,88.74c-3.16-3.36-11.08-4.17-15.27.61s-2.21,13.76.95,17c1.89,1.92,6,3.21,8.87,1.49,3.56-2.13,3.78-12.59,5.62-13.12,5-1.43,4-6.69,4-6.69S425.42,91.36,423,88.74Z"/><path class="cls-8" d="M448.51,119.13c-7,.62-15.44-2.29-21.63-4.56-2.17-.67-4.64,1.42-5.61,4.32a7.63,7.63,0,0,0-.15,2.18c.11,3.37,2,4.5,4.41,5.32,6.9,2.34,15.6,2,23.27,1.49a4.62,4.62,0,0,0,4.36-4.77s0-.12,0-.15A4.33,4.33,0,0,0,448.51,119.13Z"/><path class="cls-9" d="M476.29,102.33a31.39,31.39,0,0,1-4,1.54,3.65,3.65,0,0,1-2.17-.33c-.05-.45.57-.68.57-.68s2.17-.14,2.41-.12a1.32,1.32,0,0,0,1.34-1.22l-3.59-.32a3.76,3.76,0,0,0-2,.58c-.86.63-.73,2.14-1.61,2.88-2.07,1.75-10,8.86-10,8.86l3.82,4.7c3.22-3.26,7.19-8.71,8-8.84.45-.07,5.19-.12,6.65-1.61s1.06-2,1.76-4.14S476.29,102.33,476.29,102.33Z"/><path class="cls-8" d="M463.7,106.72A74.07,74.07,0,0,1,446.57,120a4,4,0,0,0-1.59,5.12s.25.45.26.48a4.23,4.23,0,0,0,5.69,1.57c5.2-2.7,13.11-10.49,17.82-16A14.65,14.65,0,0,1,463.7,106.72Z"/><path class="cls-8" d="M429.92,303.38a4.42,4.42,0,0,0-6.28.93c-4.46,5.37-9.07,12.57-14.93,16.5a4.38,4.38,0,0,0-1.22,5.94,1,1,0,0,1,.09.13,4.66,4.66,0,0,0,6.44,1c6.31-4.49,13.38-9.7,17.31-15.91,1.38-2.18,2.14-4.25.09-7A7.94,7.94,0,0,0,429.92,303.38Z"/><path class="cls-9" d="M396.2,299a3.7,3.7,0,0,0-1.85-1l-3.61-.44a1.33,1.33,0,0,0,1.06,1.49c.24,0,2.35.62,2.35.62s.56.36.42.79a3.64,3.64,0,0,1-2.2-.13A32.37,32.37,0,0,1,388.7,298s-1.67-1.24-1.42,1-.24,2.68.88,4.45,5.79,2.81,6.22,3c.76.29,3.53,6.49,6,10.39l4.75-3.84s-6.29-8.66-8-10.82C396.47,301.25,396.92,299.79,396.2,299Z"/><path class="cls-8" d="M400.2,304.93a14.79,14.79,0,0,1-5.9,3.33c3.49,6.41,9.66,15.75,14.22,19.5a4.25,4.25,0,0,0,5.93-.35l.37-.42a4,4,0,0,0-.5-5.39A74.63,74.63,0,0,1,400.2,304.93Z"/><path class="cls-8" d="M453.91,425l-6.77-.31c.14.2.17,1.26-.42,3.43-.65,2.39-2,7.09-2.26,8.3-.48,2,.71,3.05,2.72,3.52,1.74.41,5.8-1.74,6.35-4,.37-1.48,2.35-8.39.62-10.06Z"/><path class="cls-9" d="M453.36,419.87c-.62-5.1-.14-15.74-.14-15.74l-8.87.86s2.66,14.76,2.79,19.74a19.09,19.09,0,0,1-.42,3.43c.22.34,1.09-.16,2.46,0,1.71.25,3.41,1.15,4,.56,1.25-1.31,1.25-3.92,1.15-5.15C454.17,421.83,453.66,422.31,453.36,419.87Z"/><path class="cls-8" d="M419,407.5l-5.38-1.64s-1.17,1.44-2.12,2.36c-1.84,1.79-9.54,4.51-9.54,7,0,1.28,3.16,2.43,5.74,2.52a7.92,7.92,0,0,0,5.56-2.16c1.14-1,5.17-1.63,5.75-2.42a2.59,2.59,0,0,0,.2-3A8,8,0,0,1,419,407.5Z"/><path class="cls-9" d="M413.47,405.59c-.21.79-.56,1.21-1.94,2.63a8.39,8.39,0,0,0,3.16,2.49c1.16.53,4.55-.47,4.55-.47,0-4,4.09-12.11,4.09-15.06l-8.78-.86S414.21,402.86,413.47,405.59Z"/><path class="cls-7" d="M420.21,347c-.27,1.48-8.38,45-9.87,59.62A16.24,16.24,0,0,0,421,409.45s14.41-43.21,14.41-57.42C435.21,350.88,420.89,347.61,420.21,347Z"/><path class="cls-7" d="M432.28,347c.15,1.38,11.61,77.4,11.73,77.55,4.5,4.18,12.53.85,12.65.71s-4.7-73.69-5-76.85C449.39,349.84,433.71,348.16,432.28,347Z"/><path class="cls-8" d="M431.5,300.54c-10.43,0-10.45,13.22-10.45,16.76,0,7.44-2.2,31.49-2.2,31.49,6.55,5.95,17.11,9.83,24.53,9.83a26,26,0,0,0,10.11-2s2.31-32.83-2.78-48C450.07,306.74,447.14,300.54,431.5,300.54Z"/><path class="cls-4" d="M440.2,301.09a5.22,5.22,0,0,0,.46,2c-2.22,2.73-8.72,1.85-9,.16,0-.12,1.23-2.57,1.25-2.89a23.81,23.81,0,0,0-3.44,1.77c-1,.76-1.41,3.37-1.15,3.86.64-.88,3.19-1.66,3.19-1.66.73,1.37.39,4.37.39,4.37a16.87,16.87,0,0,0,8.53-2.68C443.9,303.19,441,300.63,440.2,301.09Z"/><path class="cls-9" d="M431.89,297.7c0,.32.9,3.79-.39,5.53.29,1.69,6.94,2.55,9.16-.18-.71-.84-.67-5.4.39-7.42C440.44,295.89,433.58,298,431.89,297.7Z"/><path class="cls-9" d="M435.38,281.11c-4.08-.57-8.13.2-9.37,4.37-.44,1.49.2,3.67-.38,5.65-1,3.35.86,8.52,3.26,11.26a2.41,2.41,0,0,0,1.37.78c2.91.51,10-3.85,10.47-7.43,0,0,.69-4.87.69-4.91C442.09,286.09,439.76,281.73,435.38,281.11Z"/><path class="cls-37" d="M424.27,283.7c-.25,1.45-.73,6.69,15.73,4,2,3.1.63,8.42.63,8.42,4.56-3.08,7-11.5,2.87-16.4C438.05,273.36,425.4,277.12,424.27,283.7Z"/><path class="cls-9" d="M441.76,288.62a1.38,1.38,0,0,0-1.48.34c1.08,1.81.08,4.8.34,6.16,1-.16,2.25-2.58,2.37-3.6S442.82,288.85,441.76,288.62Z"/><path class="cls-4" d="M400.8,336.24l-5.71-3.46a1.72,1.72,0,0,0-1.59,0l-4.63,2.68c-.45.26-.47.69,0,.94l5.71,3.46a1.72,1.72,0,0,0,1.59,0l4.63-2.68C401.21,336.92,401.23,336.5,400.8,336.24Z"/><path class="cls-4" d="M432.13,334.45l-33.32-20.17a1.89,1.89,0,0,0-1.76,0L373.35,328c-.5.29-.52.76-.05,1l33.32,20.18a1.89,1.89,0,0,0,1.76,0l23.7-13.72C432.58,335.2,432.6,334.73,432.13,334.45Z"/><path class="cls-17" d="M432.08,335.49l-23.7,13.72-.19.1h0l-.18.05h0l-.2,0h-.52l-.15,0-.13,0-.09,0-.24-.11L373.3,329l-.08-.05a.27.27,0,0,1-.08-.07.52.52,0,0,1-.1-.11v0a.54.54,0,0,1,0-.11v0a.3.3,0,0,1,0-.13l-.06,1.68h0v.07l0,0h0l0,.08,0,0v0s0,0,0,0l.07.09h0l.09.07.06.05h0l33.32,20.17a1.34,1.34,0,0,0,.24.12h.09l.13,0,0,0h.67l.12,0h.07l.07,0,.11,0h0l.18-.09L432,337.17a.66.66,0,0,0,.38-.53l.06-1.68A.65.65,0,0,1,432.08,335.49Z"/><polygon class="cls-8" points="376.5 327.13 408.76 346.66 421.68 339.19 389.42 319.65 376.5 327.13"/><path class="cls-17" d="M419.52,339.37l-.1,0h0l-.12,0h0l-.11,0h0l-.09,0-1.46-.88-.05-.05,1-.6a.15.15,0,0,0,.09-.13l0-.41a.19.19,0,0,1-.1.12l-1.17.68a.18.18,0,0,1-.1,0h-.24a.13.13,0,0,1-.09,0l-1.46-.88a.12.12,0,0,1-.05-.05l1-.59a.17.17,0,0,0,.09-.12v-.42a.17.17,0,0,1-.09.13l-1.17.68-.1,0h0l-.11,0h0l-.11,0h0l-.09,0-1.45-.89s0,0-.06-.05l1-.58a.17.17,0,0,0,.1-.14v-.42a.15.15,0,0,1-.09.13l-1.17.68-.11,0h-.23l-.1,0-1.45-.89s0,0-.06,0l1-.59a.15.15,0,0,0,.09-.13l0-.42a.09.09,0,0,1,0,.07.11.11,0,0,1-.07.06l-1.17.68-.1,0h-.24l-.09,0-1.45-.88a.1.1,0,0,1-.06-.05l1-.59a.15.15,0,0,0,.09-.12l0-.43a.09.09,0,0,1,0,.07s0,0-.06.06l-1.18.68-.1,0h0l-.12,0h-.12l-.09,0-1.45-.88a.1.1,0,0,1-.06-.05l1-.59a.14.14,0,0,0,.1-.13V331a.17.17,0,0,1-.09.13l-1.18.68-.1,0h-.23l-.1,0-1.45-.88s0,0-.06-.05l1-.59a.16.16,0,0,0,.1-.13v-.42a.15.15,0,0,1-.09.13l-1.18.68-.1,0h-.24l-.09,0-1.45-.88s-.05,0-.06-.05l1-.59c.06,0,.09-.08.09-.13l0-.42s0,.09-.1.13l-1.17.68-.1,0h-.24a.25.25,0,0,1-.09,0l-1.45-.88s-.05,0-.06-.05l1-.59a.16.16,0,0,0,.09-.13l0-.42s0,.09-.1.13l-1.17.68-.1,0h-.24l-.1,0-1.45-.88-.05,0,1-.59c.07,0,.1-.08.1-.13l0-.42a.2.2,0,0,1-.1.13l-1.17.68-.1,0h-.25l-.09,0-1.45-.88s0,0-.06-.05l1-.59c.06,0,.1-.08.1-.13v-.42c0,.05,0,.09-.09.13l-1.17.68-.1,0h-.25l-.09,0-1.45-.88a.17.17,0,0,1-.06-.06h0l1-.58a.23.23,0,0,0,.1-.13v-.42c0,.05,0,.09-.09.13l-1.17.68a.45.45,0,0,1-.11,0h0l-.12,0h0l-.1,0h0l-.09,0-1.46-.88-.05-.05,1-.59a.23.23,0,0,0,.1-.13v-.42a.17.17,0,0,1-.1.13l-1.17.68a.29.29,0,0,1-.1,0h0l-.11,0h-.13l-.09,0-1.45-.88,0,0,1-.6c.06,0,.09-.08.09-.13l0-.42a.16.16,0,0,1-.1.13l-1.17.68-.1,0h-.24l-.09,0-1.46-.88-.06-.06h0a.14.14,0,0,1,0-.07v.43h0v0h0l0,0,0,0h0l1.46.88.06,0h.28l0,0,.05,0,.07-.05v.28h0v0h0s0,0,0,0l0,0h0l1.45.87.07,0h.32l.05,0,.12-.07,0,.33h0a0,0,0,0,0,0,0v0h0v0h0l0,0,0,0h0l.64.39,0,0-1.17.68-.1,0h-.24l-.1,0-4.9-3-.06-.06h0a.09.09,0,0,1,0-.07v.42h0v0h0a0,0,0,0,1,0,0l0,0h0l1.43.86,0,0-1.18.68-.1,0h-.24l-.09,0L384.9,323l-.06-.06h0a.11.11,0,0,1,0-.07l0,.42v0h0l0,0,0,0h0l.95.58,0,0-2.95,1.71-.1,0h-.24l-.1,0-1.1-.66-.06-.06h0a.07.07,0,0,1,0-.06l0,.42v.06h0v0l0,0h0l.95.58s0,0,0,0l-3,1.72-.1,0h-.24l-.09,0-1.1-.67a.09.09,0,0,1-.06-.06h0a.14.14,0,0,1,0-.06v.44h0v0h0l0,0,0,0h0l1.11.67.06,0h.28a.05.05,0,0,0,0,0h.05l1.88-1.09v.27h0v0h0s0,0,0,0l0,0h0l1.66,1,.07,0h.32l0,0,.12-.07v.33h0v0h0l0,0,0,0h0l.82.5.06,0h.33l0,0,.19-.11v.4h0v0h0s0,0,0,0l0,0h0l.25.15s0,0,0,0l-1.16.68-.11,0h0l-.11,0h0l-.1,0h0l-.09,0-1.45-.88s0,0-.06-.05l1-.59a.19.19,0,0,0,.1-.12v-.43a.2.2,0,0,1-.09.14l-1.18.68-.1,0h0l-.11,0h0l-.11,0h0l-.09,0-1.46-.88-.06-.06h0a.14.14,0,0,1,0-.07l0,.43v0h0l0,0,0,0h0l1.45.88.07,0h.28l0,0,.05,0,.12-.07v.33h0v0h0l0,0,0,0h0l1.45.89.07,0H384l0,0,0,0,.14-.08v.39h0s0,0,0,0l0,0h0l1.45.88.06,0h.33l0,0,.12-.06v.32h0v0a0,0,0,0,0,0,0v0h0l0,0h0l1.46.88.06,0h.33l0,0,.12-.06v.32h0s0,0,0,0h0l0,0,0,0h0l9.78,5.92.07,0h.32l.05,0,.12-.07v.35h0v0h0l0,0,0,0h0l1.45.88.07,0h.29l0,0,0,0,.12-.07v.32h0v0h0l0,0,0,0h0l1.46.88s0,0,.06,0h.33l0,0,.12-.07v.32h0v0h0v0l0,0h0l1.45.88.06,0h.33l0,0,.12-.07V344s0,0,0,0v0h0l0,0,0,0h0l1.45.88.07,0h.28l0,0,0,0,.11-.06v.34h0v0h0l0,0,0,0h0l1.13.68.06,0h.33l0,0,1.17-.67a.23.23,0,0,0,.1-.13v-.4h.12l.05,0,1.17-.68c.06,0,.09-.08.09-.13v-.3l.46.27.06,0h.29l0,0,0,0,1.17-.67a.17.17,0,0,0,.1-.14v-.27l.08.05.07,0H414l0,0h.05l1.17-.69a.15.15,0,0,0,.09-.12v-.29l.09.05a.09.09,0,0,0,.07,0h.32l0,0,1.17-.68a.16.16,0,0,0,.1-.12v-.42a.17.17,0,0,1-.09.13l-1.17.67-.1.05h-.25l-.09,0-3.18-1.92-.06-.06h0v0l1-.58a.15.15,0,0,0,.09-.13v-.28l1.17.7.06,0h.29l0,0,.05,0,.12-.07v.35h0v0h0l0,0,0,0h0l1.46.88.06,0H417l0,0,0,0,0,0,1.14-.66a.18.18,0,0,0,.1-.13v-.28l.76.47.07,0h.32l.05,0,1.17-.67a.17.17,0,0,0,.09-.14l0-.41a.17.17,0,0,1-.1.12Zm-27.1-13.53-1.57.91,0,.42.55-.32,0,.35v.06h0a0,0,0,0,0,0,0l0,0h0l.63.38,0,0-1.17.67-.11,0h0l-.12,0h-.11l-.1,0-2.88-1.74a.09.09,0,0,1-.06-.06h0s0,0,0-.06l0,.42h0v0h0s0,0,0,0h0l0,0,0,0h0l1.31.8,0,0-1.17.68-.1,0h0l-.11,0h0l-.11,0h0l-.1,0-1.91-1.16s-.05,0-.07-.06h0s0,0,0,0l1-.56a.17.17,0,0,0,.09-.13v-.28l.08.05.06,0h.29l0,0,.05,0,1.17-.68a.15.15,0,0,0,.09-.13l0-.29.52.32.07,0H389l0,0,.05,0,1.17-.68a.2.2,0,0,0,.1-.13v-.3l1.27.77.07,0H392l0,0,.13-.08v.34h0v0a0,0,0,0,0,0,0v0h0v0l.05,0h0l.22.12Z"/><path class="cls-17" d="M384.81,325.46l0,0,0,0h0v-.05h0V325L383,326a.12.12,0,0,0,.05.05l1.57.95.1,0H385l.1,0,1.17-.67s0,0,0,0l-1.43-.87Z"/><path class="cls-17" d="M387.05,324.68l0,0a0,0,0,0,1,0,0h0v-.06h0v-.28l-.09.05,0,0h-.32l-.07,0-.56-.34v.29a.2.2,0,0,1-.1.13l-1,.59s0,0,.06.05l1.57.95.09,0h.24l.1,0,1.17-.68,0,0-1-.6Z"/><path class="cls-17" d="M388.16,323.51c0,.05,0,.09-.1.13l-1,.59,0,0,1.57.95.09,0h0l.1,0h0l.11,0h0l.1,0,1.17-.68.05,0-2.12-1.29Z"/><path class="cls-17" d="M391,328.76l-.12.07-.05,0h-.32l-.07,0-1.5-.92v.28a.17.17,0,0,1-.1.14l-1,.58h0a.17.17,0,0,0,.06.06l1.46.87a.25.25,0,0,0,.09,0h.12l.11,0h0l.1,0,1.17-.67s0,0,.05-.05h0v0h0Z"/><path class="cls-17" d="M392,331.92l0,0,0,0h0a0,0,0,0,0,0,0v0h0v-.33l-.12.07-.05,0,0,0h-.28a.09.09,0,0,1-.07,0l-.78-.47v.31a.15.15,0,0,1-.09.12l-1,.59.05.06L391,333l.09,0h0l.11,0h0l.11,0h0l.1,0,1.17-.68,0-.05-.63-.38Z"/><path class="cls-17" d="M394.1,333.18l0,0,0,0h0v0h0v-.33l-.12.07,0,0h-.33a.11.11,0,0,1-.07,0l-.78-.47v.3a.17.17,0,0,1-.09.14l-1,.58.05,0,1.46.88a.19.19,0,0,0,.09,0h.24l.1,0,1.17-.68a.1.1,0,0,0,.05,0l-.63-.38Z"/><path class="cls-17" d="M396.18,334.45l0,0h0v0h0V334l-.12.07-.05,0h-.32l-.06,0-.79-.47v.31a.17.17,0,0,1-.09.13l-1,.58.05.06,1.46.87.09,0h.13l.11,0h0a.18.18,0,0,0,.1,0l1.18-.67s0,0,0,0l-.63-.38Z"/><path class="cls-17" d="M398.26,335.7l0,0v0h0v-.06h0v-.33l-.12.08h0l0,0h-.29l-.06,0-.78-.48v.3a.22.22,0,0,1-.1.14l-1,.59s0,0,.06,0l1.45.89.09,0h.13l.11,0h0l.1,0,1.18-.69,0,0-.62-.39Z"/><path class="cls-17" d="M400.35,337l0,0,0,0h0v-.06h0v-.33l-.13.07,0,0h-.32l-.07,0-.78-.47v.31a.23.23,0,0,1-.1.13l-1,.58.07.06,1.45.88.09,0h.24l.1,0,1.17-.68a.11.11,0,0,0,.05,0l-.63-.38Z"/><path class="cls-17" d="M402.43,338.22l0,0,0,0h0v-.06h0v-.32l-.12.07-.05,0h-.32l-.06,0-.78-.47v.3a.2.2,0,0,1-.1.13l-1,.59.06.05,1.45.88a.32.32,0,0,0,.09,0h.24a.29.29,0,0,0,.1,0l1.17-.68.05,0-.63-.38Z"/><path class="cls-17" d="M404.51,339.49l0,0h0s0,0,0,0v0h0V339l-.12.07,0,0H404l-.06,0-.78-.48,0,.31c0,.05,0,.09-.09.13l-1,.59.06,0,1.45.88.09,0h.25l.1,0,1.17-.68,0,0-.62-.38Z"/><path class="cls-17" d="M406.6,340.75l0,0,0,0h0v-.06h0l0-.32-.13.07,0,0h0s0,0,0,0H406l-.07,0-.78-.47v.3c0,.05,0,.09-.1.13l-1,.59.06.05,1.45.88.1,0h.24l.1,0,1.17-.68.05,0-.63-.38Z"/><path class="cls-17" d="M408.71,342l0,0,0,0h0v-.06h0v-.36l-.15.09-.05,0h-.32l-.07,0-.78-.47v.3c0,.05,0,.09-.1.13l-1,.59.05.05,1.46.88a.19.19,0,0,0,.09,0H408l.1,0,1.17-.68.05,0-.6-.36Z"/><path class="cls-17" d="M411,337l0,0,0,0h0v0h0l0-.32-.12.07-.05,0h-.32s-.05,0-.07,0l-1.16-.7v.28a.16.16,0,0,1-.1.13l-1,.59.05.05,1.45.88.1,0h.24l.1,0,1.17-.68,0,0L411,337Z"/><path class="cls-17" d="M408.9,335.76l0,0,0,0h0s0,0,0,0v0h0l0-.32-.13.07,0,0h-.32l-.07,0-1.16-.7V335a.16.16,0,0,1-.1.13l-1,.59s0,0,.06.05l1.45.88.09,0h.24a.23.23,0,0,0,.1,0l1.18-.68,0,0-.23-.14Z"/><path class="cls-17" d="M406.81,334.5l0,0,0,0h0v0h0v0h0v-.32l-.12.07,0,0h0s0,0,0,0h-.27l-.06,0-1.17-.71v.29a.17.17,0,0,1-.1.13l-1,.59a.1.1,0,0,0,.06.05l1.45.88.09,0h.24l.1,0,1.18-.68,0,0-.23-.14Z"/><path class="cls-17" d="M404.73,333.24l0,0v0h0v0h0v-.33l-.12.08-.05,0h-.32l-.07,0-1.16-.71v.29c0,.05,0,.09-.1.13l-1,.59.06,0,1.45.88a.17.17,0,0,0,.1,0h.12a.22.22,0,0,0,.11,0h0a.19.19,0,0,0,.1,0l1.17-.68,0,0-.22-.14Z"/><path class="cls-17" d="M402.65,332s0,0,0,0l0,0h0v0h0v0h0v-.32l-.12.06,0,0h-.32l-.07,0-1.16-.7v.29a.2.2,0,0,1-.1.13l-1,.59.06.05,1.45.88.1,0h.24l.1,0,1.17-.68,0,0-.23-.14Z"/><path class="cls-17" d="M400.56,330.71l0,0,0,0h0v-.06h0v-.33l-.12.08,0,0H400l-.06,0-1.16-.71v.29a.2.2,0,0,1-.1.13l-1,.59.05.05,1.46.88.09,0h.24a.29.29,0,0,0,.1,0l1.17-.68,0,0-.23-.14Z"/><path class="cls-17" d="M398.48,329.45l0,0,0,0h0V329l-.12.07-.05,0h-.32l-.06,0-1.17-.71v.29s0,.09-.09.13l-1,.59.05.05,1.46.88.09,0h.24l.1,0,1.17-.68,0,0-.24-.15Z"/><path class="cls-17" d="M396.4,328.19s0,0,0,0l0,0h0v0h0v0h0v-.32l-.12.07,0,0h-.32l-.07,0-1.16-.71v.29a.17.17,0,0,1-.1.13l-1,.58s0,0,.05.06l1.46.88.09,0h.24l.1,0,1.17-.68,0,0-.24-.14Z"/><path class="cls-17" d="M394.32,326.93l0,0,0,0h0v-.06h0l0-.32-.12.06-.05,0,0,0h-.25l0,0-.06,0-1.19-.72v.28a.16.16,0,0,1-.1.13l-1,.59h0l.06.06,1.45.88a.29.29,0,0,0,.1,0h.24l.1-.05,1.17-.67s0,0,0,0l-.23-.15Z"/><path class="cls-17" d="M393.52,328.58l0,0s0,0,0,0h0v-.06h0v-.32l-.12.07,0,0H393l-.06,0-.76-.47V328a.19.19,0,0,1-.1.12l-1,.6.06.05,1.45.88.09,0h.13l.11,0h0l.11,0,1.17-.69,0,0-.63-.39Z"/><path class="cls-17" d="M395.13,331.62h0v-.32l-.12.06,0,0h-.33l-.06,0-1.46-.87h0l0,0v.29a.15.15,0,0,1-.09.12l-1,.59a.1.1,0,0,0,.06.05l1.45.88.09,0h.13l.11,0h0a.18.18,0,0,0,.1,0l1.18-.67a.1.1,0,0,0,0,0h0A0,0,0,0,1,395.13,331.62Z"/><path class="cls-17" d="M397.1,332.61l0,0,0,0h-.29l-.06,0-1.46-.89h0a0,0,0,0,1,0,0V332a.23.23,0,0,1-.1.13l-1,.59.06,0,1.45.88.09,0h.13l.11,0h0a.18.18,0,0,0,.1,0l1.18-.67,0-.05h0s0,0,0,0v-.35Z"/><path class="cls-17" d="M399.3,334.14h0l0-.33-.12.07-.05,0h-.32a.09.09,0,0,1-.07,0L397.3,333h0l0,0v.28a.19.19,0,0,1-.1.14l-1,.58.06.06,1.45.88.1,0h.12a.2.2,0,0,0,.11,0h0l.1,0,1.17-.68.05,0v-.05Z"/><path class="cls-17" d="M401.38,335.39l0-.33-.13.08,0,0h-.32l-.07,0-1.45-.88h0l0,0v.29a.17.17,0,0,1-.1.13l-1,.59,0,.05,1.46.88a.19.19,0,0,0,.09,0h.24l.1,0,1.17-.68.05-.05h0v0Z"/><path class="cls-17" d="M403.47,336.67h0v-.33l-.11.07-.05,0H403l-.07,0-1.45-.88h0l0,0v.29a.17.17,0,0,1-.1.13l-1,.59.06.05,1.45.88.1,0h.24a.25.25,0,0,0,.09,0l1.18-.68.05,0v0Z"/><path class="cls-17" d="M405.55,337.93v-.34l-.13.07,0,0h-.32l-.07,0-1.45-.88h0l0,0V337s0,.09-.1.13l-1,.59.06.05,1.45.88a.17.17,0,0,0,.1,0h.24l.1,0,1.17-.68.05,0v0Z"/><path class="cls-17" d="M407.63,339.19h0v-.32l-.12.07,0,0h-.32l-.07,0-1.45-.88h0l0,0v.28c0,.05,0,.09-.09.13l-1,.59s0,0,0,.05L406,340a.25.25,0,0,0,.09,0h.24l.1,0,1.17-.68.05,0s0,0,0,0Z"/><path class="cls-17" d="M408.1,337.41l0,0,0,0h0s0,0,0,0,0,0,0,0h0V337l-.12.07,0,0,0,0h-.29l-.06,0-.77-.46v.28s0,.09-.09.13l-1,.59a.1.1,0,0,0,.06.05l1.45.88.09,0h.24l.1,0,1.18-.68,0,0-.64-.38Z"/><path class="cls-17" d="M406,336.15l0,0,0,0h0v0s0,0,0,0v0h0v-.32l-.12.07-.05,0h-.32l-.06,0-.77-.46v.28a.15.15,0,0,1-.09.13l-1,.59.05.05,1.46.88a.25.25,0,0,0,.09,0h.24l.1,0,1.17-.68s0,0,0,0l-.63-.38Z"/><path class="cls-17" d="M403.94,334.89l0,0s0,0,0,0h0v0h0v-.33l-.13.08,0,0h-.33l-.06,0-.77-.47v.29a.17.17,0,0,1-.09.13l-1,.58s0,0,.06.06l1.46.88a.19.19,0,0,0,.09,0h.24l.1,0,1.17-.68,0,0-.63-.38Z"/><path class="cls-17" d="M401.85,333.63s0,0,0,0a0,0,0,0,0,0,0h0v0s0,0,0,0h0v-.32l-.12.07,0,0h-.33l-.06,0-.77-.46v.28c0,.05,0,.09-.09.13l-1,.59.05,0,1.46.88.09,0h.24l.1-.05,1.17-.67,0,0-.64-.38Z"/><path class="cls-17" d="M399.77,332.36l0,0a0,0,0,0,0,0,0h0v-.06h0v-.32l-.12.07-.05,0h-.32l-.06,0-.77-.46v.28a.15.15,0,0,1-.09.12l-1,.59.05.06,1.46.88a.14.14,0,0,0,.09,0H399l.12,0h0a.17.17,0,0,0,.1,0l1.17-.68,0,0-.63-.38Z"/><path class="cls-17" d="M397.69,331.11l0,0,0,0h0a0,0,0,0,0,0,0v0h0v-.32l-.12.06-.05,0h-.32l-.07,0-.76-.46v.29a.17.17,0,0,1-.1.13l-1,.59s0,0,.05.05l1.45.88.1,0H397l.1,0,1.17-.68,0,0-.63-.38Z"/><path class="cls-17" d="M395.6,329.85l0,0,0,0h0s0,0,0,0v0h0v-.33l-.13.08,0,0h-.32l-.07,0-.76-.47v.29a.16.16,0,0,1-.1.12l-1,.6.06.05,1.45.88.1,0h.23l.11,0,1.17-.67,0,0-.63-.38Z"/><path class="cls-17" d="M410.18,338.67l0,0,0,0h0v0h0v-.32l-.12.07,0,0h-.32l-.07,0-.77-.46v.28a.16.16,0,0,1-.1.13l-1,.59s0,0,.06.05l1.45.88.09,0h.24l.1,0,1.18-.68,0,0-.63-.38Z"/><path class="cls-17" d="M409.71,340.46v0h0v-.32l-.12.07,0,0h-.33l-.07,0-1.45-.88h0l0,0v.28c0,.05,0,.09-.09.13l-1,.59a.12.12,0,0,0,.05.05l1.46.88a.19.19,0,0,0,.09,0h.24l.1,0,1.17-.68.05,0v0Z"/><path class="cls-17" d="M393.06,330l-.12.07,0,0,0,0h-.29a.11.11,0,0,1-.07,0l-1.45-.88h0l0,0v.29a.17.17,0,0,1-.1.13l-1,.58.05.06,1.46.88.09,0h.24l.1-.05,1.17-.67s0,0,.05-.05h0v0h0Z"/><path class="cls-17" d="M394.71,325l0,0,0,0h0v0h0v-.35l-.14.08,0,0,0,0h-.29l-.07,0-.75-.46v.28s0,.09-.1.13l-1,.58h0l.07.06,1.45.88.09,0h0l.1,0h0l.12,0h0l.1,0,1.17-.68,0,0-.63-.38Z"/><path class="cls-17" d="M396.79,326.3s0,0,0,0l0,0h0v-.06h0v-.32l-.12.07,0,0h-.33l-.06,0-.77-.46v.28c0,.05,0,.09-.09.13l-1,.58.05.06,1.46.88.09,0H396l.11,0h0a.29.29,0,0,0,.1,0l1.18-.68,0,0-.64-.39Z"/><path class="cls-17" d="M398.87,327.57l0,0,0,0h0v-.06h0l0-.32-.13.07,0,0h-.33l-.06,0-.77-.46V327c0,.05,0,.09-.09.13l-1,.59.06,0,1.45.88.09,0h.25l.1,0,1.17-.68,0,0-.63-.38Z"/><path class="cls-17" d="M401,328.83l0,0,0,0h0v-.06h0v-.32l-.12.07,0,0h-.32l-.07,0-.76-.46v.28a.19.19,0,0,1-.1.13l-1,.59.06.05,1.45.88a.29.29,0,0,0,.1,0h.24l.1,0,1.17-.68,0,0-.63-.38Z"/><path class="cls-17" d="M403,330.09l0,0,0,0h0v0h0v-.32l-.12.07-.05,0h-.32l-.07,0-.76-.47v.29c0,.05,0,.09-.1.13l-1,.59.05.05,1.46.88.09,0h.24l.1,0,1.17-.68,0,0-.63-.38Z"/><path class="cls-17" d="M405.12,331.35l0,0,0,0h0v0h0v-.32l-.12.07-.05,0h-.32l-.07,0-.76-.46v.28a.17.17,0,0,1-.1.13l-1,.59.05.05,1.46.88a.14.14,0,0,0,.09,0h.24l.1,0,1.17-.68,0,0-.63-.38Z"/><path class="cls-17" d="M407.21,332.61s0,0,0,0l0,0h0s0,0,0,0v0h0v-.33l-.13.07,0,0h-.33l-.06,0-.77-.46v.28c0,.05,0,.09-.09.13l-1,.59s0,0,.06.05l1.45.88.1,0h.24l.1,0,1.17-.68,0,0-.63-.38Z"/><path class="cls-17" d="M409.29,333.87l0,0,0,0h0v0h0v0h0v-.33l-.12.07-.05,0,0,0h-.29l-.07,0-.76-.46v.28c0,.05,0,.09-.1.13l-1,.59.05.05,1.45.88.1,0h.24l.1,0,1.17-.68,0,0-.63-.38Z"/><path class="cls-17" d="M411.37,335.13l0,0,0,0h0v0h0v0h0v-.33l-.12.07-.05,0h-.32l-.06,0-.77-.46v.28a.14.14,0,0,1-.1.13l-1,.59a.12.12,0,0,0,.05,0l1.46.88.09,0h.24l.1,0,1.17-.68s0,0,0,0l-.63-.37Z"/><path class="cls-17" d="M413.45,336.39l0,0a0,0,0,0,1,0,0h0v0h0v-.33l-.12.07,0,0h-.33l-.06,0-.77-.46v.28a.15.15,0,0,1-.09.13l-1,.59.05.05,1.46.88.09,0h0l.1,0h0l.12,0h0l.1,0,1.17-.68,0,0-.64-.39Z"/><path class="cls-17" d="M417.62,338.91l0,0,0,0h0s0,0,0,0h0v0h0v-.33l-.11.07-.05,0h-.32a.15.15,0,0,1-.07,0l-.76-.46v.28a.16.16,0,0,1-.1.13l-1,.59s0,0,.06.05l1.45.88.09,0H417l.1,0,1.17-.68,0,0-.63-.39Z"/><path class="cls-17" d="M415.53,337.65l0,0v0h0v-.37l-.12.07,0,0,0,0H415l-.06,0-.77-.47v.28a.15.15,0,0,1-.09.13l-1,.59s0,0,.06.05l1.45.88.1,0h.23a.23.23,0,0,0,.1,0l1.18-.68,0,0-.63-.39Z"/><path class="cls-17" d="M413.06,338.28l0,0,0,0h0v0h0v0h0v-.33l-.12.07-.05,0,0,0h-.29l-.07,0-1.16-.7v.28a.14.14,0,0,1-.1.13l-1,.59.05.05,1.46.88a.25.25,0,0,0,.09,0H412l.1,0,1.17-.68s0,0,0,0l-.24-.14Z"/><path class="cls-17" d="M412.3,340l0,0s0,0,0,0h0v0h0v-.36l-.16.09,0,0,0,0h-.28a.15.15,0,0,1-.07,0l-.76-.46v.28a.2.2,0,0,1-.1.13l-1,.59s0,0,.06.05l1.45.88.09,0h.25l.1,0,1.17-.68,0,0-.6-.36Z"/><path class="cls-17" d="M413,340.63a.14.14,0,0,1-.1.13l-1,.59.06,0,1.81,1.09a.25.25,0,0,0,.09,0h0l.11,0h0l.12,0h0a.18.18,0,0,0,.1,0l1.17-.67,0,0L413,340.35Z"/><path class="cls-17" d="M411.87,341.82l0,0s0,0,0,0h0v0h0v-.33l-.12.07,0,0h-.33l-.06,0-1.46-.88h0l0,0v.28a.15.15,0,0,1-.09.13l-1,.58v0h0l.06.06,3.18,1.92.1,0h0l.11,0h0l.11,0h0l.1,0,1.17-.68,0,0-1.67-1Z"/><path class="cls-17" d="M409.34,342.72s0,.09-.09.13l-1,.59,0,.05,1.46.88.09,0h.24l.1,0,1.17-.68.05,0-2-1.23Z"/><path class="cls-17" d="M410,344.84h-.16l-.07,0-1.45-.88h0l0,0v.3a.15.15,0,0,1-.09.12l-1,.59a.12.12,0,0,0,.05.05l1.13.68.09,0h.13l.11,0h0l.1,0,1.18-.67a.17.17,0,0,0,.08-.11h0Z"/><path class="cls-17" d="M408.19,343.8v0h0l0-.32-.13.07,0,0h-.32l-.07,0-1.45-.88h0l0,0v.3s0,.08-.09.12l-1,.59.05.06,1.46.87a.25.25,0,0,0,.09,0h.24l.1,0,1.17-.68s0,0,.06,0v0Z"/><path class="cls-17" d="M406.1,342.52v-.32l-.12.07,0,0h-.33l-.06,0-1.46-.88h0l0,0v.29a.14.14,0,0,1-.1.13l-1,.59s0,0,.06.05l1.45.88.09,0h.25l.1,0,1.17-.68.05-.05h0v0h0Z"/><path class="cls-17" d="M404,341.28v0h0v-.32l-.12.07-.05,0h-.32l-.06,0-1.46-.88h0l0,0v.29a.2.2,0,0,1-.1.13l-1,.59s0,0,.06.05l1.45.88.1,0h.24l.1,0,1.17-.68,0-.05h0S404,341.29,404,341.28Z"/><path class="cls-17" d="M402,339.68l-.12.07-.05,0h-.32l-.06,0-1.46-.88h0l0,0v.29a.15.15,0,0,1-.09.13l-1,.59s0,0,.06,0l1.45.88.09,0h.24l.11,0,1.17-.68.05-.05h0v0h0Z"/><path class="cls-17" d="M399.86,338.76v0h0v-.32l-.12.07-.05,0h-.32l-.07,0-1.45-.88h0l0,0,0,0h0a0,0,0,0,0,0,0v0h0v-.33l-.13.07-.05,0h-.32l-.06,0-1.46-.88h0l0,0,0,0h0v0h0v-.33l-.12.08,0,0h-.33l-.07,0-1.45-.89h0l0,0,0,0h0v0h0v-.33l-.12.07-.05,0,0,0h-.28a.09.09,0,0,1-.07,0l-1.45-.87h0l0,0,0,0h0v0h0l0-.32-.13.07,0,0a.05.05,0,0,1,0,0h-.28l-.07,0-1.45-.88h0l0,0v.3a.17.17,0,0,1-.09.13l-1,.59.05.05,9.79,5.92.09,0h0l.1,0h0l.11,0h0l.1,0,1.17-.68s0,0,.06,0h0Z"/><path class="cls-17" d="M389.45,332.11l-.12.07,0,0,0,0H389s0,0,0,0-.05,0-.07,0l-1.49-.9v.29a.17.17,0,0,1-.1.13l-1,.59,0,0,1.45.88a.29.29,0,0,0,.1,0H388l.11,0h0l.1,0,1.17-.68.05-.05h0v0h0Z"/><path class="cls-17" d="M386.51,330.74l0,0v0h0v0s0,0,0,0v0h0v-.36l-.15.09,0,0,0,0h-.29l-.06,0-.55-.33v.29a.19.19,0,0,1-.1.12l-1,.59h0a.17.17,0,0,0,.06.06l1.45.88.09,0h.25l.1,0,1.17-.68,0,0-.84-.51Z"/><path class="cls-17" d="M389.94,330.66l0,0,0,0h0s0,0,0,0h0v0h0l0-.32-.13.08,0,0h-.32l-.07,0-1.45-.89h0l0,0,0,0h0v0h0l0-.35-.15.08,0,0h-.32l-.07,0-1.2-.72v.3c0,.05,0,.09-.1.13l-1,.57,0,0h0s0,0,.06.06l.86.52.1,0h0l.1,0h0l.11,0h0l.1,0,1.17-.68a.15.15,0,0,0,.09-.13v.42a.16.16,0,0,1-.1.13l-1,.59h0s0,0,.06.06l2.38,1.44.1,0h0l.11,0h0l.11,0h0l.1,0,1.17-.68.05,0-.63-.38Z"/><path class="cls-17" d="M385.29,327.85l0,0,0,0h0v-.45l-.19.11,0,0h-.32l-.07,0-.05,0v.29a.17.17,0,0,1-.1.13l-1,.58.06.06.82.5.1,0h.24l.1,0,1.17-.68.05,0-.68-.41Z"/><path class="cls-17" d="M383,326.49l0,0,0,0h0v0h0v0h0V326l-.12.07,0,0h-.08s0,0,0,0h-.23l-.06,0-.09-.06v.3a.19.19,0,0,1-.1.12l-1,.6,0,0,1.65,1,.1,0h.24l.1,0,1.17-.68s0,0,0,0l-1.47-.89Z"/><path class="cls-32" d="M390.12,319.93a.42.42,0,0,0-.43,0l-1.17.67c-.13.07-.13.19,0,.26l1.45.88a.47.47,0,0,0,.43,0l1.17-.68c.13-.07.13-.18,0-.25Z"/><path class="cls-32" d="M392.16,321.16a.47.47,0,0,0-.43,0l-1.17.68c-.13.07-.13.19,0,.26L392,323a.47.47,0,0,0,.43,0l1.17-.68c.13-.07.13-.19,0-.26Z"/><path class="cls-32" d="M394.24,322.42a.47.47,0,0,0-.43,0l-1.17.68c-.13.07-.13.18,0,.26l1.46.88a.56.56,0,0,0,.44,0l1.17-.68a.14.14,0,0,0,0-.26Z"/><path class="cls-32" d="M396.34,323.69a.47.47,0,0,0-.43,0l-1.17.68c-.12.07-.13.19,0,.26l1.45.88a.46.46,0,0,0,.44,0l1.17-.67c.12-.07.13-.19,0-.26Z"/><path class="cls-32" d="M398.42,325a.47.47,0,0,0-.43,0l-1.17.68c-.12.07-.13.19,0,.26l1.45.88a.49.49,0,0,0,.44,0l1.17-.68c.12-.07.13-.19,0-.26Z"/><path class="cls-32" d="M400.51,326.21a.5.5,0,0,0-.43,0l-1.18.68a.14.14,0,0,0,0,.26l1.45.88a.49.49,0,0,0,.44,0l1.17-.68c.12-.07.13-.19,0-.26Z"/><path class="cls-32" d="M402.59,327.48a.42.42,0,0,0-.43,0l-1.17.67c-.13.07-.13.19,0,.26l1.46.88a.47.47,0,0,0,.43,0l1.17-.68c.12-.07.13-.19,0-.25Z"/><path class="cls-32" d="M404.67,328.73a.47.47,0,0,0-.43,0l-1.17.68c-.13.07-.13.19,0,.26l1.45.88a.47.47,0,0,0,.43,0l1.18-.68a.14.14,0,0,0,0-.26Z"/><path class="cls-32" d="M406.75,330a.5.5,0,0,0-.43,0l-1.17.68c-.12.08-.13.19,0,.26l1.45.88a.47.47,0,0,0,.43,0l1.18-.68a.14.14,0,0,0,0-.26Z"/><path class="cls-32" d="M408.84,331.26a.47.47,0,0,0-.43,0l-1.17.68c-.13.07-.13.18,0,.25l1.45.88a.47.47,0,0,0,.43,0l1.17-.68c.13-.07.13-.18,0-.25Z"/><path class="cls-32" d="M410.92,332.52a.47.47,0,0,0-.43,0l-1.17.68c-.13.07-.13.18,0,.25l1.45.88a.47.47,0,0,0,.43,0l1.17-.68c.13-.07.13-.18,0-.25Z"/><path class="cls-32" d="M413,333.78a.47.47,0,0,0-.43,0l-1.17.68c-.12.07-.13.18,0,.25l1.45.88a.49.49,0,0,0,.44,0l1.17-.68c.12-.07.13-.18,0-.25Z"/><path class="cls-32" d="M415.08,335a.47.47,0,0,0-.43,0l-1.17.67c-.12.08-.13.19,0,.26l1.45.89a.56.56,0,0,0,.44,0l1.17-.69c.12-.07.13-.18,0-.25Z"/><path class="cls-32" d="M417.17,336.3a.47.47,0,0,0-.43,0l-1.18.68c-.12.07-.12.18,0,.25l1.46.88a.47.47,0,0,0,.43,0l1.17-.68c.12-.07.13-.18,0-.25Z"/><path class="cls-32" d="M419.25,337.56a.47.47,0,0,0-.43,0l-1.18.68c-.12.07-.12.18,0,.25l1.46.89a.47.47,0,0,0,.43,0l1.17-.69c.13-.07.13-.18,0-.25Z"/><path class="cls-32" d="M388.33,321a.43.43,0,0,0-.44,0l-1.17.68c-.12.07-.13.18,0,.25l4.9,3a.49.49,0,0,0,.44,0l1.17-.68c.12-.07.13-.19,0-.26Z"/><path class="cls-32" d="M393.87,324.32a.47.47,0,0,0-.43,0l-1.18.68a.14.14,0,0,0,0,.26l1.45.88a.47.47,0,0,0,.43,0l1.17-.68c.13-.07.13-.19,0-.26Z"/><path class="cls-32" d="M396,325.58a.47.47,0,0,0-.43,0l-1.17.68c-.13.07-.13.19,0,.26l1.46.88a.47.47,0,0,0,.43,0l1.18-.68a.14.14,0,0,0,0-.26Z"/><path class="cls-32" d="M398,326.84a.47.47,0,0,0-.43,0l-1.17.68c-.12.07-.13.18,0,.26l1.45.88a.49.49,0,0,0,.44,0l1.17-.68c.12-.07.13-.19,0-.26Z"/><path class="cls-32" d="M400.11,328.1a.47.47,0,0,0-.43,0l-1.17.68c-.12.07-.13.19,0,.26l1.45.88a.49.49,0,0,0,.44,0l1.17-.68a.14.14,0,0,0,0-.26Z"/><path class="cls-32" d="M402.19,329.36a.47.47,0,0,0-.43,0l-1.17.68c-.12.07-.13.18,0,.26l1.46.88a.47.47,0,0,0,.43,0l1.17-.68c.12-.07.13-.19,0-.26Z"/><path class="cls-32" d="M404.28,330.62a.49.49,0,0,0-.44,0l-1.17.68a.14.14,0,0,0,0,.26l1.46.88a.47.47,0,0,0,.43,0l1.17-.68c.12-.07.13-.19,0-.26Z"/><path class="cls-32" d="M406.37,331.89a.49.49,0,0,0-.44,0l-1.17.68a.13.13,0,0,0,0,.25l1.45.88a.49.49,0,0,0,.44,0l1.17-.68c.12-.07.13-.19,0-.25Z"/><path class="cls-32" d="M408.45,333.14a.46.46,0,0,0-.44,0l-1.17.68c-.12.07-.13.18,0,.25l1.45.88a.49.49,0,0,0,.44,0l1.17-.68c.12-.07.13-.18,0-.25Z"/><path class="cls-32" d="M410.53,334.41a.42.42,0,0,0-.43,0l-1.18.67c-.12.08-.12.19,0,.26l1.46.88a.47.47,0,0,0,.43,0l1.17-.68c.13-.07.13-.18,0-.25Z"/><path class="cls-32" d="M412.61,335.66a.54.54,0,0,0-.43,0l-1.18.69c-.12.07-.12.18,0,.25l1.46.88a.47.47,0,0,0,.43,0l1.17-.68c.13-.07.13-.18,0-.25Z"/><path class="cls-32" d="M414.69,336.93a.47.47,0,0,0-.43,0l-1.17.68c-.13.07-.13.18,0,.25l1.45.88a.47.47,0,0,0,.43,0l1.18-.68c.12-.07.12-.18,0-.25Z"/><path class="cls-32" d="M416.77,338.18a.54.54,0,0,0-.43,0l-1.17.69c-.12.07-.13.18,0,.25l1.45.88a.49.49,0,0,0,.44,0l1.17-.68c.12-.07.12-.18,0-.25Z"/><path class="cls-32" d="M386.52,322a.49.49,0,0,0-.44,0l-1.17.68c-.12.07-.13.19,0,.26l1.57.95a.47.47,0,0,0,.43,0l1.18-.68c.12-.07.13-.19,0-.25Z"/><path class="cls-32" d="M388.68,323.32a.54.54,0,0,0-.43,0l-1.17.68c-.13.07-.13.19,0,.26l1.57.95a.47.47,0,0,0,.43,0l1.17-.68c.13-.07.13-.18,0-.26Z"/><path class="cls-32" d="M384.71,323.06a.44.44,0,0,0-.43,0l-3,1.71a.14.14,0,0,0,0,.26l1.1.66a.49.49,0,0,0,.44,0L385.8,324c.13-.07.13-.19,0-.26Z"/><path class="cls-32" d="M386.44,324.1a.5.5,0,0,0-.43,0l-1.17.68c-.12.07-.13.19,0,.26l1.57.95a.47.47,0,0,0,.43,0l1.17-.68c.13-.07.13-.18,0-.25Z"/><path class="cls-32" d="M393.08,326a.49.49,0,0,0-.44,0l-1.17.68c-.12.07-.13.19,0,.26l1.45.88a.46.46,0,0,0,.44,0l1.17-.67c.12-.07.13-.19,0-.26Z"/><path class="cls-32" d="M391,324.7a.49.49,0,0,0-.44,0l-1.79,1-.43.25-.75.43c-.12.07-.13.18,0,.25l2.88,1.74a.44.44,0,0,0,.43,0l1.18-.67a.14.14,0,0,0,0-.26l-1.21-.73,1.57-.91c.12-.08.13-.19,0-.26Z"/><path class="cls-32" d="M395.16,327.23a.49.49,0,0,0-.44,0l-1.17.68c-.12.07-.13.19,0,.26l1.46.88a.47.47,0,0,0,.43,0l1.17-.68c.12-.07.13-.19,0-.26Z"/><path class="cls-32" d="M397.24,328.49a.47.47,0,0,0-.43,0l-1.17.68c-.13.07-.13.19,0,.26l1.46.88a.47.47,0,0,0,.43,0l1.17-.68c.13-.07.13-.19,0-.26Z"/><path class="cls-32" d="M399.32,329.75a.47.47,0,0,0-.43,0l-1.17.68c-.12.07-.13.19,0,.26l1.46.88a.47.47,0,0,0,.43,0l1.17-.68c.13-.07.13-.19,0-.26Z"/><path class="cls-32" d="M401.4,331a.47.47,0,0,0-.43,0l-1.17.68c-.12.07-.13.19,0,.26l1.45.88a.49.49,0,0,0,.44,0l1.17-.68a.14.14,0,0,0,0-.26Z"/><path class="cls-32" d="M403.49,332.27a.49.49,0,0,0-.44,0l-1.17.68c-.12.07-.13.19,0,.26l1.45.88a.49.49,0,0,0,.44,0l1.17-.68c.12-.07.13-.19,0-.26Z"/><path class="cls-32" d="M405.57,333.54a.44.44,0,0,0-.43,0l-1.17.68c-.13.06-.13.18,0,.25l1.45.88a.47.47,0,0,0,.43,0l1.18-.68c.12-.07.12-.18,0-.25Z"/><path class="cls-32" d="M407.65,334.8a.47.47,0,0,0-.43,0l-1.17.68a.13.13,0,0,0,0,.25l1.45.88a.47.47,0,0,0,.43,0l1.18-.68c.12-.07.13-.19,0-.25Z"/><path class="cls-32" d="M409.74,336.06a.46.46,0,0,0-.44,0l-1.17.68c-.12.07-.13.18,0,.25l1.45.88a.46.46,0,0,0,.44,0l1.17-.68c.12-.07.13-.18,0-.25Z"/><path class="cls-32" d="M411.82,337.32a.49.49,0,0,0-.44,0l-1.17.68c-.12.07-.12.18,0,.25l1.46.88a.47.47,0,0,0,.43,0l1.17-.68c.12-.07.13-.18,0-.25Z"/><path class="cls-32" d="M413.93,338.59a.44.44,0,0,0-.43,0l-1.18.68c-.12.07-.12.18,0,.25l3.18,1.92a.43.43,0,0,0,.44,0l1.17-.67c.12-.07.13-.19,0-.26Z"/><path class="cls-32" d="M392.68,327.86a.47.47,0,0,0-.43,0l-1.17.68c-.12.07-.13.18,0,.26l1.45.88a.56.56,0,0,0,.44,0l1.17-.69c.12-.07.12-.18,0-.25Z"/><path class="cls-32" d="M394.77,329.12a.49.49,0,0,0-.44,0l-1.17.68c-.12.07-.13.18,0,.26l1.45.88a.46.46,0,0,0,.44,0l1.17-.67c.12-.07.13-.19,0-.26Z"/><path class="cls-32" d="M396.85,330.38a.49.49,0,0,0-.44,0l-1.17.68c-.12.07-.13.19,0,.26l1.45.88a.49.49,0,0,0,.44,0l1.17-.68c.12-.07.13-.19,0-.26Z"/><path class="cls-32" d="M398.93,331.64a.47.47,0,0,0-.43,0l-1.18.68a.14.14,0,0,0,0,.26l1.46.88a.47.47,0,0,0,.43,0l1.17-.68c.13-.07.13-.19,0-.26Z"/><path class="cls-32" d="M401,332.9a.47.47,0,0,0-.43,0l-1.17.68c-.13.07-.13.19,0,.26l1.46.88a.47.47,0,0,0,.43,0l1.17-.67c.12-.07.13-.19,0-.26Z"/><path class="cls-32" d="M403.1,334.17a.49.49,0,0,0-.44,0l-1.17.67a.14.14,0,0,0,0,.26l1.46.88a.47.47,0,0,0,.43,0l1.17-.68c.12-.07.13-.19,0-.26Z"/><path class="cls-32" d="M405.18,335.42a.46.46,0,0,0-.44,0l-1.17.67c-.12.07-.13.19,0,.26l1.46.88a.47.47,0,0,0,.43,0l1.17-.68c.12-.07.13-.19,0-.25Z"/><path class="cls-32" d="M407.26,336.68a.54.54,0,0,0-.43,0l-1.17.68c-.13.07-.13.19,0,.26l1.45.88a.47.47,0,0,0,.43,0l1.18-.68c.12-.07.12-.18,0-.26Z"/><path class="cls-32" d="M409.34,338a.42.42,0,0,0-.43,0l-1.17.67c-.13.07-.13.19,0,.26l1.45.88a.47.47,0,0,0,.43,0l1.18-.68a.14.14,0,0,0,0-.26Z"/><path class="cls-32" d="M411.43,339.2a.49.49,0,0,0-.44,0l-1.17.68c-.12.07-.13.18,0,.25l1.45.88a.49.49,0,0,0,.44,0l1.17-.68c.12-.07.13-.18,0-.26Z"/><path class="cls-32" d="M413.51,340.47a.49.49,0,0,0-.44,0l-1.17.67c-.12.08-.13.19,0,.26l1.81,1.09a.42.42,0,0,0,.43,0l1.17-.67c.12-.07.13-.19,0-.26Z"/><path class="cls-32" d="M384.66,325.14a.47.47,0,0,0-.43,0l-1.18.68c-.12.07-.12.18,0,.25l1.57.95a.43.43,0,0,0,.44,0l1.17-.67c.12-.08.13-.19,0-.26Z"/><path class="cls-32" d="M386.92,326.5a.42.42,0,0,0-.43,0l-1.17.67c-.13.07-.13.19,0,.26l1.92,1.16a.47.47,0,0,0,.43,0l1.17-.68c.12-.07.13-.18,0-.25Z"/><path class="cls-32" d="M389.49,328.05a.49.49,0,0,0-.44,0l-1.17.68a.14.14,0,0,0,0,.26l1.46.87a.42.42,0,0,0,.43,0l1.17-.67c.12-.08.13-.19,0-.26Z"/><path class="cls-32" d="M391.57,329.31a.47.47,0,0,0-.43,0L390,330a.14.14,0,0,0,0,.26l1.46.88a.5.5,0,0,0,.43,0l1.17-.67c.12-.07.13-.19,0-.26Z"/><path class="cls-32" d="M393.65,330.57a.47.47,0,0,0-.43,0l-1.17.68c-.12.07-.13.18,0,.25l1.45.88a.42.42,0,0,0,.43,0l1.18-.67c.12-.08.12-.19,0-.26Z"/><path class="cls-32" d="M395.73,331.83a.47.47,0,0,0-.43,0l-1.17.68c-.13.07-.13.18,0,.26l1.45.88a.47.47,0,0,0,.43,0l1.18-.67c.12-.08.13-.19,0-.26Z"/><path class="cls-32" d="M397.82,333.09a.49.49,0,0,0-.44,0l-1.17.68c-.12.07-.13.19,0,.26l1.45.88a.49.49,0,0,0,.44,0l1.17-.68c.12-.07.13-.19,0-.26Z"/><path class="cls-32" d="M399.9,334.35a.49.49,0,0,0-.44,0l-1.17.68c-.12.07-.13.18,0,.26l1.46.88a.54.54,0,0,0,.43,0l1.17-.68c.12-.08.13-.19,0-.26Z"/><path class="cls-32" d="M402,335.61a.49.49,0,0,0-.44,0l-1.17.68c-.12.07-.13.19,0,.26l1.45.88a.47.47,0,0,0,.43,0l1.18-.68c.12-.07.13-.18,0-.25Z"/><path class="cls-32" d="M404.06,336.87a.47.47,0,0,0-.43,0l-1.17.68c-.12.08-.13.19,0,.26l1.45.88a.49.49,0,0,0,.44,0l1.17-.68c.12-.07.13-.19,0-.26Z"/><path class="cls-32" d="M406.15,338.13a.49.49,0,0,0-.44,0l-1.17.67c-.12.07-.13.19,0,.26L406,340a.47.47,0,0,0,.43,0l1.17-.68c.12-.07.13-.19,0-.25Z"/><path class="cls-32" d="M408.23,339.4a.43.43,0,0,0-.44,0l-1.17.67a.14.14,0,0,0,0,.26l1.46.88a.47.47,0,0,0,.43,0l1.17-.68c.12-.07.13-.19,0-.25Z"/><path class="cls-32" d="M410.34,340.67a.47.47,0,0,0-.43,0l-1.17.68c-.13.07-.13.19,0,.26l3.18,1.92a.49.49,0,0,0,.44,0l1.17-.68c.12-.07.13-.18,0-.25Z"/><path class="cls-32" d="M381.12,325.13a.47.47,0,0,0-.43,0l-3,1.73c-.12.07-.13.18,0,.25l1.1.67a.47.47,0,0,0,.43,0l3-1.72c.13-.07.13-.19,0-.26Z"/><path class="cls-32" d="M382.81,326.16a.44.44,0,0,0-.43,0l-1.18.67a.14.14,0,0,0,0,.26l1.66,1a.49.49,0,0,0,.44,0l1.17-.68c.12-.07.13-.19,0-.26Z"/><path class="cls-32" d="M385.11,327.54a.56.56,0,0,0-.44,0l-1.17.68c-.12.08-.12.19,0,.26l.82.5a.49.49,0,0,0,.44,0l1.17-.68c.12-.07.13-.19,0-.26Z"/><path class="cls-32" d="M386.63,328.47a.49.49,0,0,0-.44,0l-1.17.67c-.12.08-.12.19,0,.26l.86.52a.49.49,0,0,0,.44,0l1.17-.68c.12-.07.13-.18,0-.25Z"/><path class="cls-32" d="M388.15,329.38a.52.52,0,0,0-.44,0l-1.17.67c-.12.08-.13.19,0,.26l2.38,1.44a.49.49,0,0,0,.44,0l1.17-.68c.12-.07.13-.18,0-.25Z"/><path class="cls-32" d="M391.16,331.21a.49.49,0,0,0-.44,0l-1.17.68c-.12.07-.13.18,0,.26L391,333a.54.54,0,0,0,.43,0l1.17-.68c.12-.08.13-.19,0-.26Z"/><path class="cls-32" d="M393.24,332.47a.49.49,0,0,0-.44,0l-1.17.68c-.12.07-.12.18,0,.25l1.46.88a.42.42,0,0,0,.43,0l1.17-.68c.12-.07.13-.18,0-.25Z"/><path class="cls-32" d="M395.32,333.73a.47.47,0,0,0-.43,0l-1.17.68c-.13.07-.13.19,0,.26l1.46.87a.47.47,0,0,0,.43,0l1.18-.67a.14.14,0,0,0,0-.26Z"/><path class="cls-32" d="M397.4,335a.47.47,0,0,0-.43,0l-1.17.68c-.12.07-.13.18,0,.25l1.45.89a.5.5,0,0,0,.43,0l1.18-.69c.12-.07.12-.18,0-.25Z"/><path class="cls-32" d="M399.49,336.25a.47.47,0,0,0-.43,0l-1.18.68a.14.14,0,0,0,0,.26l1.45.88a.47.47,0,0,0,.43,0l1.17-.68c.13-.07.13-.19,0-.26Z"/><path class="cls-32" d="M401.57,337.51a.47.47,0,0,0-.43,0l-1.17.68c-.12.07-.13.18,0,.26l1.45.88a.47.47,0,0,0,.43,0l1.17-.68c.13-.07.13-.19,0-.26Z"/><path class="cls-32" d="M403.66,338.77a.49.49,0,0,0-.44,0l-1.17.68c-.12.07-.13.19,0,.26l1.45.88a.49.49,0,0,0,.44,0l1.17-.68c.12-.07.13-.19,0-.26Z"/><path class="cls-32" d="M405.74,340a.49.49,0,0,0-.44,0l-1.17.68c-.12.07-.13.19,0,.26l1.45.88a.49.49,0,0,0,.44,0l1.17-.68c.12-.07.13-.19,0-.26Z"/><path class="cls-32" d="M407.82,341.29a.46.46,0,0,0-.44,0l-1.17.67a.14.14,0,0,0,0,.26l1.46.88a.47.47,0,0,0,.43,0l1.17-.68c.12-.07.13-.19,0-.26Z"/><path class="cls-32" d="M409.9,342.55a.46.46,0,0,0-.44,0l-1.17.67a.14.14,0,0,0,0,.26l1.46.88a.47.47,0,0,0,.43,0l1.17-.68c.13-.07.13-.19,0-.25Z"/><path class="cls-32" d="M381.69,327.61a.47.47,0,0,0-.43,0l-1.17.68c-.12.07-.13.18,0,.26l1.46.88a.5.5,0,0,0,.43,0l1.17-.67c.13-.08.13-.19,0-.26Z"/><path class="cls-32" d="M383.77,328.87a.47.47,0,0,0-.43,0l-1.17.68c-.13.07-.13.18,0,.25l1.45.88a.49.49,0,0,0,.44,0l1.17-.68c.12-.07.12-.18,0-.25Z"/><path class="cls-32" d="M385.88,330.14a.49.49,0,0,0-.44,0l-1.17.68c-.12.07-.13.19,0,.26l1.45.88a.49.49,0,0,0,.44,0l1.17-.68a.14.14,0,0,0,0-.26Z"/><path class="cls-32" d="M388,331.4a.49.49,0,0,0-.44,0l-1.17.68c-.12.07-.13.19,0,.26l1.45.88a.49.49,0,0,0,.44,0l1.17-.68c.12-.07.13-.19,0-.26Z"/><path class="cls-32" d="M390,332.66a.47.47,0,0,0-.43,0l-1.18.68a.14.14,0,0,0,0,.26l9.79,5.92a.47.47,0,0,0,.43,0l1.17-.68c.13-.07.13-.18,0-.25Z"/><path class="cls-32" d="M400.45,339a.44.44,0,0,0-.43,0l-1.17.67c-.12.07-.13.19,0,.26l1.45.88a.49.49,0,0,0,.44,0l1.17-.68c.12-.07.12-.18,0-.25Z"/><path class="cls-32" d="M402.53,340.23a.44.44,0,0,0-.43,0l-1.17.67c-.12.08-.13.19,0,.26l1.45.88a.49.49,0,0,0,.44,0l1.17-.68c.12-.07.13-.18,0-.25Z"/><path class="cls-32" d="M404.62,341.49a.49.49,0,0,0-.44,0l-1.17.67c-.12.07-.13.19,0,.26l1.45.88a.49.49,0,0,0,.44,0l1.17-.68c.12-.07.13-.19,0-.25Z"/><path class="cls-32" d="M406.7,342.75a.47.47,0,0,0-.43,0l-1.18.68a.14.14,0,0,0,0,.26l1.46.87a.47.47,0,0,0,.43,0l1.17-.68c.13-.07.13-.18,0-.25Z"/><path class="cls-32" d="M408.78,344a.44.44,0,0,0-.43,0l-1.17.67c-.13.07-.13.19,0,.26l1.13.68a.42.42,0,0,0,.43,0l1.18-.67c.12-.08.12-.19,0-.26Z"/><path class="cls-32" d="M408,319.44l-33.55-20.17c-.48-.29-.88-.06-.91.52L372.43,327a1.9,1.9,0,0,0,.82,1.56l33.54,20.17c.48.29.89.06.91-.52L408.8,321A1.93,1.93,0,0,0,408,319.44Z"/><path class="cls-17" d="M410.23,319.85a.44.44,0,0,1,0-.1s0,0,0,0h0a.79.79,0,0,0,0-.13.2.2,0,0,0,0-.08h0a.17.17,0,0,0,0-.07l-.06-.14h0a1.29,1.29,0,0,0-.09-.16l0,0,0,0,0,0-.1-.12,0,0,0,0-.07-.07-.05-.05-.16-.11-33.55-20.17-.16-.08-.2-.05h-.17l0,0-.05,0h0l-1.45.85a.31.31,0,0,1,.12,0h.17l.14,0a1.43,1.43,0,0,1,.19.09L408,319.44l.16.12.05,0,.1.11,0,0,.12.16h0a2,2,0,0,1,.11.2h0l.09.21h0a1.72,1.72,0,0,1,.07.21v0a1.38,1.38,0,0,1,0,.2v0a1.48,1.48,0,0,1,0,.21l-1.1,27.22a.65.65,0,0,1-.28.58l1.45-.84a.67.67,0,0,0,.28-.58l1.1-27.23s0-.19,0-.19S410.23,319.87,410.23,319.85Z"/><path class="cls-8" d="M449.16,307.76a10.12,10.12,0,0,0-1.25-.93c-2-1.28-5.25-1.09-6.37,2.68a50.66,50.66,0,0,1-10.92,18.8,4.36,4.36,0,0,0,.15,6.06l.12.1a4.65,4.65,0,0,0,6.49-.5c5.13-5.8,10.84-12.47,13.27-19.4C451.5,312.13,451.77,309.94,449.16,307.76Z"/><path class="cls-9" d="M411,342.92c-1,.61-2.39,0-3.26.63a3.74,3.74,0,0,0-1.19,1.74l-.83,3.54a1.31,1.31,0,0,0,1.59-.9c.07-.23.88-2.27.88-2.27s.41-.52.83-.33a3.67,3.67,0,0,1-.36,2.18,32.83,32.83,0,0,1-2.75,3.39s-1.41,1.52.88,1.52,2.64.53,4.52-.39,3.42-5.45,3.63-5.86c.38-.72,6.84-2.82,11-4.88l-3.3-5.14S413.31,341.48,411,342.92Z"/><path class="cls-8" d="M436.82,328a4,4,0,0,0-5.4-.05,74.64,74.64,0,0,1-18,12.36,14.77,14.77,0,0,1,2.72,6.21c6.73-2.82,16.64-8,20.84-12.18a4.26,4.26,0,0,0,.24-5.94S436.85,328,436.82,328Z"/><path class="cls-5" d="M450.57,484.14a14,14,0,0,0,6.37,11c1.79,1,3.4,1.13,4.56.44l0,0L489.9,479.1a3.94,3.94,0,0,0,1.75-2.91l10.51-6.11c1.37.53,2.81,1,4.28,1.4l.3.1.23.05c.61.16,1.22.3,1.84.44l1,.22c.8.16,1.61.3,2.42.43l.41.07h0c1.34.2,2.69.33,4.06.43l.49,0h.41c1.21.07,2.42.11,3.63.11h.08l.33,0c1,0,2.09-.05,3.13-.12l.49,0,.49-.06c1-.08,2-.2,3-.34l.38,0,.1,0c1.22-.18,2.43-.42,3.62-.68l.37-.07c.12,0,.24-.08.36-.1,1.4-.34,2.78-.73,4.11-1.18l.16-.05.43-.17c.85-.3,1.68-.63,2.48-1l.78-.34c1-.45,1.92-.92,2.81-1.44,6.44-3.75,9.66-8.65,9.67-13.56l0-6.16s0,.11,0,.17a12.2,12.2,0,0,0-1.89-6.64,13.82,13.82,0,0,0-1.22-1.75q-.35-.42-.72-.84c-.25-.28-.53-.56-.8-.84-.56-.55-1.18-1.08-1.84-1.61-.33-.26-.68-.52-1-.77l-.54-.38-1.15-.73-.61-.36c-13-7.53-34.18-7.53-47.14,0l-.6.35c-.35.22-.69.43-1,.65a24.08,24.08,0,0,0-2.62,2c-.3.25-.58.52-.85.79s-.49.51-.73.76l-.33.38c-.11.12-.2.24-.3.36-.24.29-.46.57-.67.87l-.12.16a.21.21,0,0,1,0,.06c-.11.17-.23.34-.34.52s-.14.22-.2.33-.28.48-.41.72l-.24.48-.18.39c-.09.21-.17.43-.25.64s-.09.23-.13.34-.15.47-.21.71-.06.2-.08.3c-.07.29-.14.59-.19.88a3.62,3.62,0,0,0-.06.46,9,9,0,0,0-.09,1.27V448s0-.09,0-.14V454a9.74,9.74,0,0,0,.08,1.42h0a11.12,11.12,0,0,0,.46,2c0,.08,0,.17,0,.25s.09.23.14.34a4.52,4.52,0,0,0,.18.47q.18.43.39.87l.21.42.1.2c.12.22.27.43.41.65s.1.16.14.24h0l-4.8,2.8-.25-.12a3.4,3.4,0,0,0-.34-.12l-.15-.06-.18-.06-.5-.12a3.35,3.35,0,0,0-.44-.07h0l-.34,0-.35,0-.34.05h-.06a2.27,2.27,0,0,0-.25.06l-.29.1-.29.13-.11.07-28.41,16.51h0C451.3,480.7,450.58,482.12,450.57,484.14Zm43.75-34.27c.79-2.89,3.28-5.69,7.46-7.91,10.4-5.51,27.38-5.52,37.83,0,4.29,2.25,6.82,5.09,7.58,8a7.83,7.83,0,0,0,.26-1.51,8.14,8.14,0,0,1-.89,3.18h0a4.23,4.23,0,0,1-.22.42,12,12,0,0,1-1.93,2.49c-.19.19-.39.37-.59.55a17.59,17.59,0,0,1-1.45,1.17c-.53.38-1.1.74-1.7,1.1-.31.18-.62.36-.95.53a33.22,33.22,0,0,1-3.07,1.4h0c-.72.28-1.46.54-2.22.77a48.3,48.3,0,0,1-27.17,0,31.72,31.72,0,0,1-3.28-1.2h0c-.7-.31-1.37-.63-2-1h0c-.24-.13-.48-.26-.71-.4a5.74,5.74,0,0,1-.53-.32,9.8,9.8,0,0,1-1.15-.74,6.3,6.3,0,0,1-.53-.37A11.73,11.73,0,0,1,494.32,449.87Z"/><path class="cls-8" d="M545.74,445.67c-.74-2.84-3.19-5.58-7.34-7.77-10.11-5.33-26.54-5.31-36.6,0-4.07,2.16-6.49,4.88-7.24,7.69-1.11-4.09,1.3-8.4,7.24-11.56,10.06-5.31,26.49-5.32,36.6,0C544.42,437.21,546.88,441.55,545.74,445.67Z"/><path class="cls-8" d="M492.24,453c-.16-.16-.3-.33-.45-.5s-.46-.48-.67-.73l-.35-.46c-.2-.26-.4-.52-.58-.78s-.22-.35-.33-.53-.31-.5-.45-.76-.15-.3-.22-.45-.26-.53-.37-.8l-.18-.48c-.07-.19-.12-.37-.18-.55a11.3,11.3,0,0,1-.44-2,10.66,10.66,0,0,1-.09-1.38v6a10.64,10.64,0,0,0,.08,1.38h0a11.4,11.4,0,0,0,.44,1.95c0,.08,0,.16.06.24a2.92,2.92,0,0,0,.13.34c.05.15.11.3.17.45s.25.56.38.84.13.28.21.41l.09.19c.12.21.26.42.39.63s.19.31.3.47q.31.46.69.93l.23.3.05.07c.24.29.51.57.78.85.1.11.19.22.3.33.4.4.83.8,1.29,1.19l0-6C493.07,453.77,492.65,453.38,492.24,453Z"/><path class="cls-28" d="M543,456.91c-.87.5-1.78,1-2.71,1.39l-.79.35c-.76.33-1.53.63-2.31.92l-.66.24c-1.27.43-2.58.8-3.92,1.12l-.78.18c-1.13.25-2.28.48-3.44.65l-.57.07c-.94.13-1.89.24-2.84.32l-1,.08c-1,.06-2,.1-2.93.12h-.48c-1.19,0-2.38,0-3.57-.1l-.71-.05c-1.35-.1-2.7-.23-4-.43-.93-.13-1.85-.3-2.77-.48l-.88-.21c-.59-.13-1.18-.26-1.76-.41l-.61-.18c-1.4-.39-2.77-.83-4.09-1.34v6c1.33.52,2.71,1,4.14,1.36.1,0,.19.07.29.09l.22.06,1.77.42.94.21c.77.16,1.55.29,2.34.42l.4.07h0c1.29.19,2.6.32,3.92.41l.48,0h.39c1.17.07,2.35.11,3.52.1H521c1,0,2-.05,3-.12l.47,0,.47-.05c1-.09,2-.2,3-.33l.37-.05h.09c1.18-.18,2.35-.41,3.5-.66l.36-.07.34-.1c1.37-.33,2.7-.7,4-1.14l.15,0,.41-.17c.82-.29,1.63-.61,2.41-.95l.75-.33c.94-.43,1.85-.89,2.72-1.39,6.23-3.63,9.34-8.37,9.36-13.12l0-6C552.38,448.55,549.27,453.29,543,456.91Z"/><polygon class="cls-38" points="488.11 467.33 488.09 473.3 479.44 468.3 479.46 462.34 488.11 467.33"/><polygon class="cls-28" points="502.18 459.16 502.17 465.12 488.09 473.3 488.11 467.33 502.18 459.16"/><path class="cls-32" d="M479.46,462.34h0l8.66,5,14.07-8.18c12.56,4.92,29.79,4.18,40.85-2.25,6.1-3.55,9.21-8.17,9.35-12.82a11.75,11.75,0,0,0-1.83-6.55,15.17,15.17,0,0,0-1.18-1.69c-.23-.28-.46-.55-.7-.82s-.51-.54-.78-.81a21.34,21.34,0,0,0-1.78-1.56c-.32-.25-.65-.5-1-.75l-.53-.36c-.36-.24-.73-.48-1.11-.71l-.59-.35c-12.62-7.29-33.07-7.29-45.61,0l-.58.34c-.34.21-.67.42-1,.63a23.69,23.69,0,0,0-2.53,1.94c-.29.25-.57.51-.83.77s-.47.49-.7.74-.22.24-.32.37l-.29.34c-.23.28-.44.56-.65.84,0,.05-.08.1-.12.16l0,.05c-.12.17-.23.34-.34.51l-.19.32c-.14.23-.27.46-.39.7s-.16.3-.23.46l-.18.38c-.09.2-.17.41-.25.61l-.12.34-.21.68c0,.1,0,.19-.07.29-.07.28-.13.57-.18.85a3.47,3.47,0,0,0-.06.45,10.18,10.18,0,0,0-.09,1.23v.33c.07,3.62,1.93,7.23,5.59,10.34l-3.52,2h0Zm22.34-28.29c10.06-5.33,26.49-5.33,36.6,0,6.81,3.58,9.05,8.67,6.73,13.25h0a2.32,2.32,0,0,1-.22.41,11.28,11.28,0,0,1-1.86,2.42l-.57.53c-.43.38-.9.76-1.41,1.13s-1.06.72-1.64,1.07c-.3.17-.6.34-.92.5a28.83,28.83,0,0,1-3,1.36h0c-.7.27-1.41.52-2.15.75a46.66,46.66,0,0,1-26.29,0,31.53,31.53,0,0,1-3.18-1.17h0c-.68-.29-1.33-.6-2-.94h0c-.24-.12-.47-.25-.69-.38a5.39,5.39,0,0,1-.52-.3,12.44,12.44,0,0,1-1.11-.72c-.17-.12-.35-.24-.51-.37C491.91,446.26,492.8,438.82,501.8,434.05Z"/><path class="cls-39" d="M457.14,474.66c-.12,0-.22-.05-.34-.08l.33.07Z"/><path class="cls-39" d="M456,474.42a3.2,3.2,0,0,0-.44,0,2.91,2.91,0,0,1,.42,0Z"/><path class="cls-39" d="M455,474.47l-.09,0,.07,0Z"/><path class="cls-39" d="M454.89,474.5a2.85,2.85,0,0,0-.31.12A2.85,2.85,0,0,1,454.89,474.5Z"/><g class="cls-2"><path class="cls-12" d="M481.65,458.73l.28-.13a1.52,1.52,0,0,1,.28-.09,1,1,0,0,1,.25-.06h.06l.32,0,.34,0,.33,0h0l.42.06a4.37,4.37,0,0,1,.49.12,1.15,1.15,0,0,1,.17.06l.15.05.33.12a9.25,9.25,0,0,1,.83.42,9.42,9.42,0,0,1,1.19.83c.12.09.24.21.36.31s.42.36.62.56l.18.19.13.15c.09.1.19.19.28.3s.3.35.44.53l.24.32,0,0,.1.14c.11.15.22.31.32.47l.3.46.15.27a.25.25,0,0,1,0,.07l.07.11c.09.16.17.3.25.46s.15.31.22.46.15.31.22.46.13.33.19.48.13.34.19.5.12.35.17.53.11.38.16.57.1.43.14.65a1.2,1.2,0,0,0,0,.2l0,.23.06.39c0,.33.05.66.05,1,0,1.94-.69,3.32-1.8,4l-27.49,16c1.11-.65,1.79-2,1.8-4a9.51,9.51,0,0,0-.11-1.39l0-.2a13.55,13.55,0,0,0-1.64-4.43l0-.08c-.27-.46-.56-.9-.87-1.33l0-.05c-.3-.4-.62-.78-.95-1.15l-.14-.15c-.25-.26-.52-.5-.79-.73l-.36-.33a9,9,0,0,0-1.19-.82,7.47,7.47,0,0,0-1.16-.54l-.16-.05a4.56,4.56,0,0,0-1.09-.24h0a3.52,3.52,0,0,0-1,.05h0a3.13,3.13,0,0,0-.91.35l27.49-16Z"/><path class="cls-11" d="M458.45,475.2a13.56,13.56,0,0,1,6.16,10.66c0,3.92-2.78,5.51-6.2,3.54a13.61,13.61,0,0,1-6.16-10.67C452.26,474.81,455,473.23,458.45,475.2Z"/></g></g></g></g></svg>
